<svg width="243" height="424" viewBox="0 0 243 424" fill="none" xmlns="http://www.w3.org/2000/svg">
<path d="M213.839 238.796C180.12 248.018 172.152 245.441 166.146 254.473C165.458 255.513 161.927 260.812 162.645 267.604C163.202 273.02 166.234 277.207 168.123 279.036C179.666 290.205 211.452 276.548 229.659 261.588C233.628 258.323 244.277 249.584 242.124 243.377C241.245 240.83 238.521 239.571 236.558 238.693C227.901 234.829 218.922 237.39 213.839 238.781V238.796Z" fill="url(#paint0_linear_139_2101)"/>
<path d="M109.752 12.3252H116.929V59.3874H109.752V12.3252Z" fill="url(#paint1_linear_139_2101)"/>
<path d="M88.5566 54.4541H138.11C141.767 54.4541 144.731 57.4164 144.731 61.0706V78.7684C144.731 82.4226 141.767 85.3849 138.11 85.3849H88.5566C84.9 85.3849 81.9358 82.4226 81.9358 78.7684V61.0706C81.9358 57.4164 84.9 54.4541 88.5566 54.4541Z" fill="url(#paint2_linear_139_2101)"/>
<path d="M133.526 69.2393H93.1566C42.2847 69.2393 0.992538 110.505 0.992538 161.344V188.234C0.992538 216.808 24.2093 239.995 52.7872 239.995H173.881C202.473 239.995 225.675 216.794 225.675 188.234V161.344C225.675 110.505 184.383 69.2393 133.511 69.2393H133.526Z" fill="url(#paint3_linear_139_2101)"/>
<path d="M36.3368 183.331C39.281 184.78 42.5768 185.541 45.9165 185.541H180.75C184.104 185.541 187.4 184.78 190.329 183.331C197.551 179.759 201.623 172.557 200.612 165.165L200.539 164.623C197.082 139.591 174.392 120.342 146.591 118.907C134.829 118.293 122.481 117.985 109.59 118.058C99.4981 118.117 89.7427 118.41 80.3534 118.893C52.4347 120.327 29.5841 139.504 26.1126 164.623C26.0833 164.799 26.0687 164.989 26.0394 165.165C25.014 172.557 29.1008 179.759 36.3221 183.331H36.3368Z" fill="url(#paint4_linear_139_2101)"/>
<path style="mix-blend-mode:screen" d="M148.877 180.037C134.833 180.037 123.448 168.66 123.448 154.625C123.448 140.59 134.833 129.213 148.877 129.213C162.92 129.213 174.305 140.59 174.305 154.625C174.305 168.66 162.92 180.037 148.877 180.037Z" fill="url(#paint5_radial_139_2101)"/>
<path d="M148.877 172.864C138.797 172.864 130.626 164.698 130.626 154.625C130.626 144.552 138.797 136.386 148.877 136.386C158.957 136.386 167.128 144.552 167.128 154.625C167.128 164.698 158.957 172.864 148.877 172.864Z" fill="#EEFDFF"/>
<path d="M148.877 169.937C140.415 169.937 133.556 163.082 133.556 154.625C133.556 146.169 140.415 139.313 148.877 139.313C157.339 139.313 164.199 146.169 164.199 154.625C164.199 163.082 157.339 169.937 148.877 169.937Z" fill="url(#paint6_linear_139_2101)"/>
<path d="M139.048 150.658C139.048 153.791 141.597 156.338 144.732 156.338C147.866 156.338 150.415 153.791 150.415 150.658C150.415 147.526 147.866 144.979 144.732 144.979C141.597 144.979 139.048 147.526 139.048 150.658Z" fill="#EEFDFF"/>
<path d="M151.147 168.635C149.893 168.635 148.877 167.619 148.877 166.366C148.877 165.113 149.893 164.097 151.147 164.097C152.401 164.097 153.417 165.113 153.417 166.366C153.417 167.619 152.401 168.635 151.147 168.635Z" fill="#EEFDFF"/>
<path d="M156.757 162.969C156.757 163.598 157.27 164.096 157.885 164.096C158.5 164.096 159.013 163.584 159.013 162.969C159.013 162.354 158.5 161.842 157.885 161.842C157.27 161.842 156.757 162.354 156.757 162.969Z" fill="#EEFDFF"/>
<path style="mix-blend-mode:screen" d="M80.192 180.037C66.1482 180.037 54.7634 168.66 54.7634 154.625C54.7634 140.59 66.1482 129.213 80.192 129.213C94.2358 129.213 105.621 140.59 105.621 154.625C105.621 168.66 94.2358 180.037 80.192 180.037Z" fill="url(#paint7_radial_139_2101)"/>
<path d="M80.1922 172.864C70.1124 172.864 61.941 164.698 61.941 154.625C61.941 144.552 70.1124 136.386 80.1922 136.386C90.272 136.386 98.4434 144.552 98.4434 154.625C98.4434 164.698 90.272 172.864 80.1922 172.864Z" fill="#EEFDFF"/>
<path d="M80.1921 169.937C71.7302 169.937 64.8705 163.082 64.8705 154.625C64.8705 146.169 71.7302 139.313 80.1921 139.313C88.654 139.313 95.5137 146.169 95.5137 154.625C95.5137 163.082 88.654 169.937 80.1921 169.937Z" fill="url(#paint8_linear_139_2101)"/>
<path d="M70.3633 150.658C70.3633 153.791 72.912 156.338 76.0466 156.338C79.1813 156.338 81.73 153.791 81.73 150.658C81.73 147.526 79.1813 144.979 76.0466 144.979C72.912 144.979 70.3633 147.526 70.3633 150.658Z" fill="#EEFDFF"/>
<path d="M82.4479 168.635C81.1939 168.635 80.1774 167.619 80.1774 166.366C80.1774 165.113 81.1939 164.097 82.4479 164.097C83.7018 164.097 84.7183 165.113 84.7183 166.366C84.7183 167.619 83.7018 168.635 82.4479 168.635Z" fill="#EEFDFF"/>
<path d="M88.0724 162.969C88.0724 163.598 88.585 164.096 89.2002 164.096C89.8155 164.096 90.3281 163.584 90.3281 162.969C90.3281 162.354 89.8155 161.842 89.2002 161.842C88.585 161.842 88.0724 162.354 88.0724 162.969Z" fill="#EEFDFF"/>
<path d="M104.142 9.19287C104.142 14.2724 108.258 18.3857 113.341 18.3857C118.424 18.3857 122.54 14.2724 122.54 9.19287C122.54 4.11337 118.424 0 113.341 0C108.258 0 104.142 4.11337 104.142 9.19287Z" fill="url(#paint9_linear_139_2101)"/>
<path d="M106.94 5.60647C106.94 7.15813 108.199 8.40239 109.737 8.40239C111.275 8.40239 112.535 7.14349 112.535 5.60647C112.535 4.06944 111.275 2.81055 109.737 2.81055C108.199 2.81055 106.94 4.06944 106.94 5.60647Z" fill="white"/>
<path d="M34.1698 98.7059C34.0526 102.995 37.5534 108.118 41.5669 108.557C45.3314 108.967 48.3342 105.132 51.4249 101.165C54.4716 97.2567 61.151 87.2294 58.4998 84.3896C54.999 80.6422 34.4481 88.5762 34.1698 98.6912V98.7059Z" fill="white"/>
<path d="M68.5475 82.355C66.7839 82.355 65.3543 80.9262 65.3543 79.1638C65.3543 77.4014 66.7839 75.9727 68.5475 75.9727C70.3111 75.9727 71.7407 77.4014 71.7407 79.1638C71.7407 80.9262 70.3111 82.355 68.5475 82.355Z" fill="white"/>
<path d="M34.6231 158.212C35.6485 158.929 42.7966 144.378 61.9853 131.775C68.7232 127.339 75.388 124.178 74.9925 123.255C74.597 122.318 67.0973 124.06 61.0917 126.842C41.9617 135.713 33.4074 157.363 34.6378 158.212H34.6231Z" fill="white"/>
<path d="M83.7527 63.6032C83.987 63.6325 84.1335 62.3004 85.2468 60.2217C85.2468 60.2217 85.7741 59.2556 86.3746 58.4359C88.3082 55.7863 94.8264 55.8449 95.3391 55.8449C105.505 55.9327 112.052 55.2886 112.052 55.3472C112.052 55.4057 107.277 55.3033 103.791 55.2301C93.9329 55.0251 88.0591 54.4982 85.5397 57.1331C84.4997 58.2309 83.9724 59.6508 83.9724 59.6508C83.2547 61.5831 83.5037 63.5593 83.7673 63.5886L83.7527 63.6032Z" fill="white"/>
<path d="M85.8758 196.461C86.1248 198.891 88.1462 200.765 90.5924 200.999L124.268 204.248C126.699 204.483 129.058 203.034 129.761 200.691C130.083 199.652 130.317 198.583 130.478 197.471C130.522 197.164 130.449 196.856 130.259 196.607C130.068 196.358 129.79 196.212 129.482 196.183L86.989 192.084C86.6814 192.055 86.3885 192.157 86.1541 192.348C85.9197 192.552 85.7879 192.831 85.7732 193.138C85.7293 194.251 85.7586 195.363 85.8611 196.446L85.8758 196.461Z" fill="#EEFDFF"/>
<path d="M85.8764 196.461C86.9457 206.898 95.251 215.476 106.105 216.515C116.798 217.555 126.465 210.924 129.629 201.101C128.78 203.195 126.568 204.483 124.268 204.249L90.5783 201.013C88.1468 200.765 86.1254 198.906 85.8764 196.476V196.461Z" fill="url(#paint10_linear_139_2101)"/>
<path d="M32.8066 272.053C32.8066 272.361 32.8066 272.654 32.8066 272.946C32.9092 275.772 33.5683 277.894 33.8906 278.846C43.1627 307.142 48.7142 322.073 56.5068 334.149C57.8544 336.228 59.2606 338.233 60.784 340.195C62.7761 342.815 64.9586 345.377 67.3755 348.012C72.7512 353.867 80.8954 356.517 83.5174 357.424C93.1117 360.806 101.593 360.191 107.218 360.249H108.199C113.853 360.191 122.319 360.82 131.899 357.424C134.521 356.517 142.68 353.867 148.041 348.012C162.835 331.924 168.533 318.545 181.526 278.846C181.833 277.938 182.449 275.962 182.595 273.312C182.639 272.551 182.654 271.775 182.595 271.014C182.317 266.271 180.383 261.616 176.97 257.371C171.111 250.081 162.074 246.085 152.728 246.056L107.672 245.865L63.4352 245.69C53.8848 245.646 44.6274 249.657 38.5632 257.035C35.6337 260.606 33.7588 264.471 33.0703 268.452C32.9824 269.023 32.8945 269.594 32.836 270.165C32.7774 270.795 32.7481 271.424 32.7481 272.068L32.8066 272.053Z" fill="url(#paint11_linear_139_2101)"/>
<path d="M107.745 245.851L152.802 246.041C162.147 246.085 171.2 250.081 177.044 257.357C180.457 261.602 182.391 266.257 182.669 270.999C182.435 266.14 180.442 261.353 176.868 257.02C170.819 249.642 161.547 245.631 151.996 245.675L107.745 245.851Z" fill="url(#paint12_linear_139_2101)"/>
<path d="M62.9521 312.192C63.6112 277.265 68.3424 270.355 61.3701 262.041C60.5645 261.089 56.4777 256.215 49.7544 254.97C44.3933 253.975 39.5302 255.688 37.2305 257.005C23.2418 264.925 27.4018 299.251 36.6006 320.916C38.6074 325.644 43.9978 338.321 50.56 338.014C53.2552 337.897 55.2327 335.628 56.6242 334.003C62.7909 326.801 62.8495 317.461 62.9521 312.192Z" fill="url(#paint13_linear_139_2101)"/>
<path d="M56.5219 334.149C57.8695 336.228 59.2757 338.234 60.7991 340.195C61.2824 339.697 61.7072 339.2 62.1027 338.746C68.2694 331.544 68.328 322.205 68.4306 316.935C69.0897 282.008 73.821 275.098 66.8486 266.799C66.3359 266.184 64.461 263.959 61.4289 262.114C68.3134 270.4 63.6261 277.367 62.9669 312.192C62.879 317.462 62.7912 326.801 56.6391 334.018C56.5951 334.062 56.5512 334.106 56.5365 334.149H56.5219Z" fill="url(#paint14_linear_139_2101)"/>
<path d="M36.806 283.105C37.0111 279.357 37.7142 276.591 39.1204 271.072C40.966 263.855 43.2804 260.328 41.7716 258.937C40.7902 258.029 38.8714 258.644 38.4319 258.776C31.8258 260.884 29.7751 273.268 30.068 281.026C30.2438 285.769 31.401 291.083 33.1441 291.317C33.4224 291.361 34.0962 291.317 34.5942 290.892C36.5424 289.18 36.6596 285.974 36.8207 283.12L36.806 283.105Z" fill="white"/>
<path d="M32.2648 296.353C32.2648 297.114 32.88 297.729 33.6417 297.729C34.4033 297.729 35.0186 297.114 35.0186 296.353C35.0186 295.591 34.4033 294.977 33.6417 294.977C32.88 294.977 32.2648 295.591 32.2648 296.353Z" fill="white"/>
<path d="M109.752 423.34C70.0552 423.34 37.8748 410.174 37.8748 393.932C37.8748 377.69 70.0552 364.523 109.752 364.523C149.448 364.523 181.628 377.69 181.628 393.932C181.628 410.174 149.448 423.34 109.752 423.34Z" fill="#CCE2E1" fill-opacity="0.51" style="mix-blend-mode:soft-light"/>
<defs>
<linearGradient id="paint0_linear_139_2101" x1="235" y1="247.521" x2="154.006" y2="291.856" gradientUnits="userSpaceOnUse">
<stop offset="0.04" stop-color="#FFCCBF"/>
<stop offset="1" stop-color="#49E1D2"/>
</linearGradient>
<linearGradient id="paint1_linear_139_2101" x1="127.959" y1="37.9862" x2="106.442" y2="34.8496" gradientUnits="userSpaceOnUse">
<stop offset="0.04" stop-color="#36E4D4"/>
<stop offset="1" stop-color="#E9CEC1"/>
</linearGradient>
<linearGradient id="paint2_linear_139_2101" x1="133.452" y1="92.6162" x2="95.2784" y2="49.4818" gradientUnits="userSpaceOnUse">
<stop offset="0.04" stop-color="#31E4D4"/>
<stop offset="1" stop-color="#E7CFC1"/>
</linearGradient>
<linearGradient id="paint3_linear_139_2101" x1="188.792" y1="241.913" x2="37.505" y2="90.5279" gradientUnits="userSpaceOnUse">
<stop offset="0.04" stop-color="#31E4D4"/>
<stop offset="1" stop-color="#FFCCBF"/>
</linearGradient>
<linearGradient id="paint4_linear_139_2101" x1="113.736" y1="185.336" x2="112.39" y2="124.821" gradientUnits="userSpaceOnUse">
<stop stop-color="#030D14"/>
<stop offset="1" stop-color="#0B2F45"/>
</linearGradient>
<radialGradient id="paint5_radial_139_2101" cx="0" cy="0" r="1" gradientUnits="userSpaceOnUse" gradientTransform="translate(148.877 154.625) rotate(180) scale(25.1649 25.1486)">
<stop offset="0.13" stop-color="#3280FC"/>
<stop offset="1"/>
</radialGradient>
<linearGradient id="paint6_linear_139_2101" x1="164.199" y1="154.625" x2="133.541" y2="154.625" gradientUnits="userSpaceOnUse">
<stop stop-color="#030D14"/>
<stop offset="1" stop-color="#0B2F45"/>
</linearGradient>
<radialGradient id="paint7_radial_139_2101" cx="0" cy="0" r="1" gradientUnits="userSpaceOnUse" gradientTransform="translate(80.192 0.73228) rotate(180) scale(25.1649 25.1486)">
<stop offset="0.13" stop-color="#3280FC"/>
<stop offset="1"/>
</radialGradient>
<linearGradient id="paint8_linear_139_2101" x1="95.5137" y1="154.625" x2="64.8558" y2="154.625" gradientUnits="userSpaceOnUse">
<stop stop-color="#030D14"/>
<stop offset="1" stop-color="#0B2F45"/>
</linearGradient>
<linearGradient id="paint9_linear_139_2101" x1="113.001" y1="19.9212" x2="104.235" y2="7.8361" gradientUnits="userSpaceOnUse">
<stop stop-color="#6DDDCE"/>
<stop offset="1" stop-color="#FFCCBF"/>
</linearGradient>
<linearGradient id="paint10_linear_139_2101" x1="114.264" y1="208.83" x2="70.4513" y2="165.004" gradientUnits="userSpaceOnUse">
<stop offset="0.07" stop-color="#0DA9AB"/>
<stop offset="1" stop-color="#DEFA8E"/>
</linearGradient>
<linearGradient id="paint11_linear_139_2101" x1="155.658" y1="341.761" x2="39.6167" y2="206.165" gradientUnits="userSpaceOnUse">
<stop offset="0.04" stop-color="#FFCCBF"/>
<stop offset="1" stop-color="#3EE3D3"/>
</linearGradient>
<linearGradient id="paint12_linear_139_2101" x1="161.81" y1="274.191" x2="92.0219" y2="192.654" gradientUnits="userSpaceOnUse">
<stop offset="0.04" stop-color="#06CFF1"/>
<stop offset="1" stop-color="#DEFA8E"/>
</linearGradient>
<linearGradient id="paint13_linear_139_2101" x1="11.7775" y1="321.494" x2="68.4644" y2="273.377" gradientUnits="userSpaceOnUse">
<stop offset="0.04" stop-color="#36E4D4"/>
<stop offset="1" stop-color="#FDCCBF"/>
</linearGradient>
<linearGradient id="paint14_linear_139_2101" x1="88.3809" y1="315.354" x2="34.9903" y2="300.848" gradientUnits="userSpaceOnUse">
<stop offset="0.305255" stop-color="#FCC6B8"/>
<stop offset="1" stop-color="#29C8BA"/>
</linearGradient>
</defs>
</svg>
