<svg width="96" height="96" viewBox="0 0 96 96" fill="none" xmlns="http://www.w3.org/2000/svg">
<path d="M47.8703 95.436C74.2534 95.436 95.6411 74.0719 95.6411 47.718C95.6411 21.3641 74.2534 0 47.8703 0C21.4873 0 0.0996094 21.3641 0.0996094 47.718C0.0996094 74.0719 21.4873 95.436 47.8703 95.436Z" fill="#3B3B3B"/>
<path d="M68.9179 66.0205H26.8417C25.6501 66.0173 24.5084 65.5429 23.6671 64.7009C22.8258 63.859 22.3535 62.7184 22.354 61.5295V34.0925C22.3532 32.9036 22.8253 31.7631 23.6667 30.9211C24.5081 30.0791 25.65 29.6045 26.8417 29.6016H68.9179C70.1094 29.6045 71.2512 30.0789 72.0925 30.9207C72.9339 31.7624 73.4061 32.9028 73.4056 34.0916V61.5295C73.4059 62.7183 72.9336 63.8588 72.0923 64.7007C71.251 65.5426 70.1095 66.0171 68.9179 66.0205ZM70.4125 34.0916C70.4125 33.6953 70.2554 33.3152 69.9753 33.0342C69.6953 32.7531 69.3151 32.5939 68.9179 32.5916H26.8417C26.4445 32.5939 26.0644 32.7531 25.7844 33.0342C25.5044 33.3152 25.3472 33.6953 25.3472 34.0916V37.0286H70.4145L70.4125 34.0916ZM70.4125 40.0217H25.3451V61.5295C25.3451 61.9258 25.5023 62.3061 25.7823 62.5872C26.0624 62.8682 26.4426 63.0272 26.8398 63.0295H68.9159C69.3131 63.0272 69.6932 62.8682 69.9732 62.5872C70.2533 62.3061 70.4104 61.9258 70.4104 61.5295L70.4125 40.0217ZM59.6218 56.8215C59.2243 56.8197 58.8436 56.661 58.5631 56.3799C58.2827 56.0988 58.1252 55.7181 58.1252 55.3215V45.4487C58.1179 45.2482 58.1511 45.048 58.223 44.8606C58.2948 44.6732 58.4037 44.5021 58.5433 44.3577C58.6829 44.2132 58.8503 44.0985 59.0355 44.02C59.2206 43.9415 59.4196 43.9009 59.6207 43.9009C59.8219 43.9009 60.021 43.9415 60.2061 44.02C60.3912 44.0985 60.5586 44.2132 60.6982 44.3577C60.8378 44.5021 60.9467 44.6732 61.0186 44.8606C61.0904 45.048 61.1237 45.2482 61.1163 45.4487V55.3206C61.114 55.7141 60.9568 56.091 60.6785 56.3699C60.4003 56.6488 60.0232 56.8073 59.6288 56.8115L59.6218 56.8215ZM51.7941 52.4856H49.3704V55.3247C49.3777 55.5252 49.3446 55.7252 49.2727 55.9126C49.2009 56.1 49.0919 56.2711 48.9522 56.4155C48.8126 56.56 48.6452 56.6749 48.4601 56.7534C48.275 56.8319 48.076 56.8723 47.8749 56.8723C47.6737 56.8723 47.4746 56.8319 47.2895 56.7534C47.1044 56.6749 46.9369 56.56 46.7973 56.4155C46.6577 56.2711 46.5488 56.1 46.477 55.9126C46.4052 55.7252 46.3719 55.5252 46.3792 55.3247V45.4526C46.3792 45.0564 46.5364 44.6761 46.8164 44.395C47.0965 44.114 47.4765 43.955 47.8738 43.9526H51.7831C52.9068 43.9698 53.9787 44.4273 54.7672 45.2261C55.5558 46.0249 55.9978 47.101 55.9978 48.2222C55.9978 49.3433 55.5558 50.4194 54.7672 51.2183C53.9787 52.0171 52.9068 52.4745 51.7831 52.4917L51.7941 52.4856ZM51.7941 46.9426H49.3704V49.4917H51.7941C52.1267 49.4824 52.4426 49.344 52.6746 49.106C52.9066 48.868 53.0364 48.549 53.0364 48.217C53.0364 47.8851 52.9066 47.5664 52.6746 47.3284C52.4426 47.0904 52.1267 46.9519 51.7941 46.9426ZM42.8208 56.8147C42.4233 56.8128 42.0426 56.6539 41.7622 56.3728C41.4817 56.0917 41.3242 55.7113 41.3242 55.3147V52.4756H37.6344V55.3147C37.6418 55.5152 37.6086 55.7152 37.5368 55.9026C37.4649 56.09 37.3559 56.2611 37.2163 56.4055C37.0767 56.55 36.9093 56.6649 36.7242 56.7434C36.539 56.8219 36.34 56.8623 36.1389 56.8623C35.9378 56.8623 35.7386 56.8219 35.5535 56.7434C35.3684 56.6649 35.2011 56.55 35.0615 56.4055C34.9219 56.2611 34.8129 56.09 34.741 55.9026C34.6692 55.7152 34.6359 55.5152 34.6433 55.3147V48.7805C34.6616 47.5127 35.1792 46.3032 36.0843 45.4131C36.9895 44.523 38.2094 44.0242 39.4804 44.0242C40.7513 44.0242 41.9711 44.523 42.8763 45.4131C43.7814 46.3032 44.299 47.5127 44.3173 48.7805V55.3147C44.3173 55.7106 44.1604 56.0903 43.8808 56.3713C43.6013 56.6523 43.2216 56.8118 42.8247 56.8147H42.8208ZM41.3242 48.7837C41.33 48.5383 41.2864 48.2941 41.1962 48.0657C41.106 47.8372 40.971 47.629 40.799 47.4534C40.6271 47.2778 40.4216 47.1382 40.1948 47.043C39.968 46.9477 39.7244 46.8987 39.4783 46.8987C39.2322 46.8987 38.9887 46.9477 38.7618 47.043C38.535 47.1382 38.3296 47.2778 38.1576 47.4534C37.9857 47.629 37.8506 47.8372 37.7604 48.0657C37.6703 48.2941 37.6267 48.5383 37.6324 48.7837V49.4836H41.3242V48.7837Z" fill="white"/>
</svg>
