<svg width="482" height="500" viewBox="0 0 482 500" fill="none" xmlns="http://www.w3.org/2000/svg">
<g opacity="0.1">
<path d="M186.602 72.2454L198.553 69.043L219.551 147.41L207.6 150.612L186.602 72.2454Z" fill="url(#paint0_linear_139_2163)"/>
<path d="M170.105 151.855L252.62 129.745C258.709 128.114 264.966 131.724 266.597 137.809L274.493 167.278C276.124 173.363 272.509 179.619 266.42 181.25L183.905 203.36C177.817 204.991 171.559 201.381 169.929 195.296L162.032 165.827C160.402 159.742 164.016 153.486 170.105 151.855Z" fill="url(#paint1_linear_139_2163)"/>
<path d="M251.584 156.41L184.362 174.422C99.6515 197.12 49.3048 284.258 71.9882 368.913L83.9862 413.691C96.7354 461.271 145.741 489.523 193.328 476.772L394.969 422.743C442.58 409.985 470.864 360.998 458.121 313.442L446.123 268.664C423.44 184.009 336.269 133.719 251.559 156.417L251.584 156.41Z" fill="url(#paint2_linear_139_2163)"/>
<path d="M140.653 389.755C146.203 390.855 152.03 390.652 157.591 389.162L382.111 329.002C387.697 327.505 392.845 324.767 397.077 321.047C407.508 311.877 411.075 298.068 406.094 286.209L405.73 285.34C388.806 245.201 342.435 223.271 295.501 233.286C275.64 237.511 254.941 242.508 233.51 248.381C216.731 252.982 200.617 257.822 185.198 262.816C139.348 277.661 109.854 319.789 115.281 363.165C115.311 363.471 115.371 363.794 115.401 364.1C116.992 376.867 127.011 387.036 140.629 389.762L140.653 389.755Z" fill="url(#paint3_linear_139_2163)"/>
<path style="mix-blend-mode:screen" d="M326.581 334.059C303.196 340.325 279.162 326.459 272.9 303.089C266.638 279.719 280.519 255.694 303.904 249.428C327.289 243.162 351.323 257.027 357.585 280.398C363.848 303.768 349.966 327.793 326.581 334.059Z" fill="url(#paint4_radial_139_2163)"/>
<path d="M323.381 322.113C306.597 326.611 289.347 316.659 284.852 299.885C280.358 283.111 290.321 265.867 307.105 261.37C323.89 256.872 341.14 266.824 345.635 283.598C350.129 300.372 340.166 317.616 323.381 322.113Z" fill="#EEFDFF"/>
<path d="M322.076 317.241C307.985 321.017 293.504 312.662 289.731 298.581C285.958 284.5 294.322 270.024 308.412 266.248C322.503 262.473 336.984 270.827 340.757 284.909C344.53 298.99 336.166 313.466 322.076 317.241Z" fill="url(#paint5_linear_139_2163)"/>
<path d="M297.106 289.523C298.504 294.74 303.884 297.844 309.104 296.445C314.324 295.047 317.431 289.668 316.034 284.452C314.636 279.235 309.255 276.131 304.036 277.53C298.816 278.929 295.708 284.307 297.106 289.523Z" fill="#EEFDFF"/>
<path d="M325.274 314.059C323.186 314.619 321.04 313.38 320.481 311.293C319.922 309.206 321.161 307.061 323.249 306.501C325.337 305.942 327.483 307.18 328.042 309.267C328.602 311.354 327.362 313.5 325.274 314.059Z" fill="#EEFDFF"/>
<path d="M332.087 302.122C332.367 303.17 333.443 303.77 334.468 303.495C335.492 303.221 336.117 302.139 335.843 301.115C335.568 300.091 334.486 299.467 333.462 299.742C332.437 300.016 331.812 301.098 332.087 302.122Z" fill="#EEFDFF"/>
<path style="mix-blend-mode:screen" d="M212.209 364.703C188.824 370.969 164.79 357.104 158.528 333.734C152.266 310.363 166.147 286.338 189.533 280.072C212.918 273.806 236.952 287.672 243.214 311.042C249.476 334.412 235.595 358.437 212.209 364.703Z" fill="url(#paint6_radial_139_2163)"/>
<path d="M209.008 352.758C192.224 357.255 174.974 347.303 170.479 330.529C165.984 313.756 175.948 296.512 192.732 292.014C209.517 287.517 226.767 297.469 231.262 314.243C235.756 331.016 225.793 348.26 209.008 352.758Z" fill="#EEFDFF"/>
<path d="M207.704 347.886C193.614 351.661 179.132 343.307 175.359 329.226C171.586 315.144 179.95 300.668 194.041 296.893C208.131 293.117 222.612 301.472 226.385 315.553C230.159 329.635 221.795 344.11 207.704 347.886Z" fill="url(#paint7_linear_139_2163)"/>
<path d="M182.735 320.168C184.132 325.384 189.513 328.488 194.732 327.09C199.952 325.691 203.06 320.313 201.662 315.096C200.264 309.88 194.884 306.776 189.664 308.174C184.444 309.573 181.337 314.952 182.735 320.168Z" fill="#EEFDFF"/>
<path d="M210.878 344.709C208.79 345.269 206.644 344.031 206.085 341.944C205.526 339.857 206.765 337.711 208.853 337.152C210.941 336.592 213.087 337.831 213.646 339.918C214.206 342.005 212.966 344.15 210.878 344.709Z" fill="#EEFDFF"/>
<path d="M217.715 332.766C217.996 333.814 219.072 334.414 220.096 334.14C221.12 333.865 221.745 332.783 221.471 331.76C221.197 330.736 220.115 330.112 219.09 330.386C218.066 330.661 217.441 331.742 217.715 332.766Z" fill="#EEFDFF"/>
<path d="M175.863 69.5339C178.129 77.9922 186.819 83.0051 195.282 80.7373C203.746 78.4695 208.765 69.7835 206.498 61.3253C204.232 52.867 195.543 47.8541 187.079 50.1219C178.615 52.3898 173.597 61.0757 175.863 69.5339Z" fill="url(#paint8_linear_139_2163)"/>
<path d="M178.922 62.3144C179.615 64.8982 182.267 66.408 184.828 65.7218C187.39 65.0355 188.925 62.3772 188.24 59.8178C187.554 57.2584 184.895 55.7242 182.333 56.4104C179.772 57.0966 178.236 59.755 178.922 62.3144Z" fill="white"/>
<path d="M99.2869 249.81C101.005 257.004 109.121 263.974 116 262.914C122.451 261.917 125.74 254.191 129.117 246.206C132.446 238.339 139.095 218.661 133.413 215.115C125.911 210.437 95.2307 232.818 99.2804 249.786L99.2869 249.81Z" fill="white"/>
<path d="M149.235 207.244C146.299 208.031 143.281 206.289 142.494 203.355C141.708 200.42 143.451 197.403 146.388 196.616C149.324 195.829 152.343 197.57 153.129 200.505C153.915 203.44 152.172 206.457 149.235 207.244Z" fill="white"/>
<path d="M126.592 348.694C128.619 349.431 134.03 322.012 160.359 292.464C169.6 282.072 179.287 273.833 178.217 272.474C177.14 271.09 165.429 277.337 156.67 284.648C128.773 307.955 124.189 347.823 126.616 348.687L126.592 348.694Z" fill="white"/>
<path d="M166.189 169.235C166.592 169.18 166.242 166.896 167.168 162.938C167.168 162.938 167.615 161.094 168.249 159.461C170.287 154.186 181.167 151.376 182.02 151.147C198.987 146.757 209.602 142.764 209.629 142.861C209.655 142.959 201.657 144.919 195.82 146.352C179.313 150.409 169.297 152.153 166.278 157.664C165.036 159.956 164.791 162.556 164.791 162.556C164.458 166.094 165.754 169.273 166.207 169.205L166.189 169.235Z" fill="white"/>
<path d="M229.002 389.515C230.5 393.45 234.702 395.669 238.88 394.967L296.405 385.353C300.559 384.658 303.839 381.193 303.965 376.979C304.038 375.105 303.951 373.221 303.723 371.296C303.659 370.765 303.4 370.286 302.972 369.956C302.544 369.627 302.015 369.507 301.49 369.596L228.902 381.73C228.377 381.819 227.935 382.12 227.63 382.542C227.331 382.987 227.235 383.509 227.348 384.028C227.771 385.9 228.317 387.739 228.971 389.497L229.002 389.515Z" fill="#EEFDFF"/>
<path d="M229.003 389.518C235.441 406.42 253.098 416.999 271.635 413.886C289.904 410.846 303.044 395.491 303.93 377.723C303.449 381.588 300.341 384.72 296.407 385.356L238.864 395.001C234.704 395.671 230.509 393.477 229.01 389.542L229.003 389.518Z" fill="url(#paint9_linear_139_2163)"/>
</g>
<defs>
<linearGradient id="paint0_linear_139_2163" x1="228.369" y1="106.852" x2="191.14" y2="111.229" gradientUnits="userSpaceOnUse">
<stop offset="0.04" stop-color="#36E4D4"/>
<stop offset="1" stop-color="#E9CEC1"/>
</linearGradient>
<linearGradient id="paint1_linear_139_2163" x1="261.891" y1="195.37" x2="179.079" y2="140.576" gradientUnits="userSpaceOnUse">
<stop offset="0.04" stop-color="#31E4D4"/>
<stop offset="1" stop-color="#E7CFC1"/>
</linearGradient>
<linearGradient id="paint2_linear_139_2163" x1="420.655" y1="419.283" x2="101.191" y2="234.702" gradientUnits="userSpaceOnUse">
<stop offset="0.04" stop-color="#31E4D4"/>
<stop offset="1" stop-color="#FFCCBF"/>
</linearGradient>
<linearGradient id="paint3_linear_139_2163" x1="270.431" y1="358.561" x2="241.189" y2="258.394" gradientUnits="userSpaceOnUse">
<stop stop-color="#030D14"/>
<stop offset="1" stop-color="#0B2F45"/>
</linearGradient>
<radialGradient id="paint4_radial_139_2163" cx="0" cy="0" r="1" gradientUnits="userSpaceOnUse" gradientTransform="translate(315.243 291.743) rotate(165) scale(43.3821 43.354)">
<stop offset="0.13" stop-color="#3280FC"/>
<stop offset="1"/>
</radialGradient>
<linearGradient id="paint5_linear_139_2163" x1="340.757" y1="284.909" x2="289.707" y2="298.588" gradientUnits="userSpaceOnUse">
<stop stop-color="#030D14"/>
<stop offset="1" stop-color="#0B2F45"/>
</linearGradient>
<radialGradient id="paint6_radial_139_2163" cx="0" cy="0" r="1" gradientUnits="userSpaceOnUse" gradientTransform="translate(132.207 66.1303) rotate(165) scale(43.3821 43.354)">
<stop offset="0.13" stop-color="#3280FC"/>
<stop offset="1"/>
</radialGradient>
<linearGradient id="paint7_linear_139_2163" x1="226.385" y1="315.553" x2="175.335" y2="329.232" gradientUnits="userSpaceOnUse">
<stop stop-color="#030D14"/>
<stop offset="1" stop-color="#0B2F45"/>
</linearGradient>
<linearGradient id="paint8_linear_139_2163" x1="195.401" y1="83.4459" x2="175.412" y2="67.2334" gradientUnits="userSpaceOnUse">
<stop stop-color="#6DDDCE"/>
<stop offset="1" stop-color="#FFCCBF"/>
</linearGradient>
<linearGradient id="paint9_linear_139_2163" x1="281.792" y1="397.449" x2="189.282" y2="344.019" gradientUnits="userSpaceOnUse">
<stop offset="0.07" stop-color="#0DA9AB"/>
<stop offset="1" stop-color="#DEFA8E"/>
</linearGradient>
</defs>
</svg>
