<svg width="320" height="1004" viewBox="0 0 320 1004" fill="none" xmlns="http://www.w3.org/2000/svg">
<path d="M819.663 656.453C818.39 656.23 817.144 656.533 816.147 657.191L784.527 613.178C784.91 612.822 785.195 612.342 785.293 611.79C785.507 610.579 784.821 609.413 783.709 608.994L800.524 554.236C800.631 554.263 800.72 554.307 800.836 554.325C803.462 554.797 805.972 553.043 806.435 550.417C806.906 547.791 805.153 545.281 802.527 544.809C801.957 544.711 801.396 544.729 800.862 544.818L712.637 158.546C713.527 158.288 714.239 157.549 714.408 156.579C714.658 155.208 713.741 153.899 712.37 153.65C711.337 153.463 710.349 153.935 709.806 154.754L519.932 32.3116C520.448 31.4837 520.822 30.549 521 29.5341C521.765 25.2343 518.908 21.1303 514.608 20.3647C512.623 20.0087 510.692 20.436 509.098 21.4152L466.219 -48.3433C467.322 -49.0466 468.141 -50.1683 468.39 -51.557C468.862 -54.1832 467.109 -56.6937 464.483 -57.1655C461.857 -57.6373 459.346 -55.8835 458.883 -53.2574C458.812 -52.8568 458.812 -52.4562 458.839 -52.0645L349.979 -44.4174C349.881 -46.6251 348.27 -48.548 346.009 -48.9575C343.383 -49.4294 340.873 -47.6756 340.41 -45.0494C340.009 -42.806 341.229 -40.6606 343.232 -39.7882L310.714 56.1609C310.304 56.0274 309.895 55.9117 309.458 55.8315C304.358 54.9235 299.462 58.3865 298.545 63.5587C297.69 68.3482 300.548 72.9329 305.025 74.3127L274.573 186.233C274.519 186.224 274.466 186.197 274.412 186.188C271.786 185.716 269.276 187.47 268.813 190.096C268.341 192.722 270.095 195.233 272.721 195.696C273.852 195.901 274.946 195.669 275.881 195.153L323.541 271.775C322.286 272.594 321.351 273.894 321.066 275.478C320.986 275.923 320.977 276.351 321.004 276.787L247.814 283.704L250.547 268.018C251.82 268.107 252.968 267.235 253.199 265.953C253.449 264.582 252.532 263.273 251.161 263.024C249.843 262.792 248.597 263.629 248.277 264.902L171.303 245.166C171.437 244.356 171.17 243.563 170.636 243.012L175.425 237.181C176.6 238.106 177.997 238.765 179.564 239.041C184.691 239.958 189.623 236.477 190.549 231.278C191.475 226.079 188.056 221.112 182.92 220.195C180.339 219.732 177.819 220.391 175.825 221.806L155.316 193.016C155.743 192.518 156.063 191.912 156.188 191.218C156.553 189.161 155.182 187.194 153.126 186.829C151.114 186.473 149.2 187.782 148.773 189.767L93.9825 187.719C93.9291 183.224 90.7423 179.253 86.2113 178.452C83.7722 178.016 81.3865 178.585 79.446 179.85L17.8636 91.1915C18.5401 90.6485 19.0475 89.874 19.2078 88.9481C19.5728 86.9184 18.2197 84.9777 16.1901 84.6127C14.1605 84.2566 12.2199 85.6009 11.8549 87.6306C11.7481 88.2448 11.8104 88.8502 11.9885 89.4111L-106.921 136.584C-107.562 135.196 -108.835 134.136 -110.455 133.851C-113.081 133.38 -115.592 135.133 -116.054 137.759C-116.482 140.136 -115.075 142.407 -112.85 143.163L-132.95 214.8C-132.95 214.8 -132.977 214.8 -132.986 214.791C-134.677 214.489 -136.297 215.619 -136.591 217.311C-136.778 218.361 -136.413 219.385 -135.701 220.079L-231.688 336.423C-232.837 335.542 -234.199 334.91 -235.721 334.643C-240.857 333.726 -245.78 337.207 -246.706 342.406C-247.631 347.605 -244.213 352.572 -239.077 353.489C-237.376 353.792 -235.703 353.605 -234.19 353.044L-173.595 504.588C-174.441 504.873 -175.118 505.585 -175.287 506.529C-175.313 506.653 -175.313 506.778 -175.313 506.903L-336.854 521.431C-336.774 519.571 -338.046 517.888 -339.898 517.559C-341.928 517.194 -343.868 518.574 -344.242 520.639C-344.616 522.704 -343.263 524.672 -341.233 525.037C-341.064 525.072 -340.904 525.072 -340.735 525.072L-379.653 739.146C-382.19 738.826 -384.558 740.526 -385.012 743.072C-385.484 745.698 -383.73 748.209 -381.104 748.672C-379.849 748.894 -378.63 748.6 -377.633 747.959L-224.585 972.645C-225.51 973.357 -226.196 974.381 -226.418 975.627C-226.89 978.253 -225.137 980.764 -222.511 981.227C-219.885 981.699 -217.374 979.945 -216.911 977.319C-216.885 977.203 -216.894 977.078 -216.885 976.963L125.904 993.503C125.691 998.221 128.949 1002.49 133.658 1003.33C138.785 1004.25 143.717 1000.76 144.642 995.568C145.337 991.669 143.583 987.895 140.494 985.874L242.526 816.81C242.713 816.89 242.9 816.961 243.105 816.997C244.146 817.184 245.152 816.694 245.686 815.848L417.766 895.061C417.65 895.355 417.561 895.667 417.499 895.987C417.027 898.613 418.781 901.124 421.407 901.587C424.033 902.058 426.543 900.305 427.006 897.679C427.166 896.788 427.051 895.925 426.757 895.132L794.542 733.003C794.898 733.644 795.521 734.134 796.296 734.277C797.667 734.526 798.984 733.609 799.224 732.238C799.474 730.867 798.557 729.549 797.177 729.309C796.385 729.167 795.628 729.416 795.067 729.914L763.386 704.383C764.24 703.225 764.864 701.854 765.139 700.341C765.54 698.124 765.139 695.943 764.151 694.109L814.865 663.993C815.577 665.008 816.663 665.747 817.971 665.987C820.598 666.459 823.108 664.705 823.579 662.079C824.051 659.453 822.298 656.942 819.672 656.479L819.663 656.453ZM800.355 544.933C798.646 545.432 797.257 546.838 796.928 548.708C796.509 551.049 797.862 553.293 800.017 554.085L783.201 608.852C782.631 608.763 782.088 608.87 781.617 609.128L702.774 499.389C704.572 497.983 705.898 495.935 706.326 493.496C707.251 488.297 703.833 483.329 698.697 482.412C698.35 482.35 698.002 482.315 697.655 482.288L711.925 158.644C711.987 158.644 712.049 158.644 712.112 158.644L800.337 544.933H800.355ZM294.388 723.371C294.112 723.318 293.845 723.327 293.587 723.371L277.368 660.61C278.089 660.272 278.649 659.613 278.801 658.767C279.05 657.396 278.133 656.088 276.762 655.838C276.549 655.803 276.344 655.803 276.13 655.812L261.852 600.546C262.297 600.448 262.724 600.306 263.134 600.137L285.842 642.565C285.459 642.921 285.183 643.393 285.094 643.945C284.845 645.316 285.762 646.633 287.133 646.874C287.471 646.936 287.818 646.927 288.13 646.847L310.874 689.329L294.779 723.478C294.646 723.434 294.521 723.389 294.379 723.362L294.388 723.371ZM243.826 811.985C242.508 811.834 241.289 812.715 241.049 814.041C241.013 814.219 241.004 814.397 241.013 814.566L191.644 819.89C191.457 819.133 190.923 818.492 190.184 818.181L257.668 600.323C258.015 600.439 258.371 600.537 258.745 600.599C259.626 600.76 260.49 600.751 261.327 600.626L275.605 655.892C274.715 656.15 273.994 656.889 273.825 657.859C273.593 659.15 274.394 660.37 275.623 660.717L243.817 811.967L243.826 811.985ZM126.581 992.328C127.017 989.889 128.388 987.85 130.248 986.532L132.75 990.396C131.895 991.037 131.272 991.99 131.067 993.129C131.067 993.156 131.067 993.182 131.067 993.209L126.51 992.987C126.536 992.764 126.554 992.55 126.599 992.328H126.581ZM137.014 989.853L138.385 985.438C138.856 985.616 139.31 985.82 139.747 986.07L137.352 990.031C137.245 989.969 137.138 989.906 137.014 989.853ZM136.506 989.693C136.364 989.657 136.239 989.604 136.097 989.577C135.055 989.39 134.04 989.613 133.195 990.111L130.693 986.248C132.492 985.126 134.672 984.627 136.907 985.028C137.245 985.09 137.566 985.171 137.886 985.26L136.515 989.684L136.506 989.693ZM137.005 984.467C134.628 984.04 132.296 984.574 130.382 985.776L35.142 838.701C35.498 838.309 35.7651 837.81 35.863 837.241C35.863 837.232 35.863 837.214 35.863 837.205L186.721 820.949C186.872 821.768 187.424 822.472 188.199 822.81L138.037 984.716C137.699 984.618 137.352 984.53 136.996 984.467H137.005ZM-337.201 522.829L-152.115 563.584C-152.231 564.599 -151.724 565.551 -150.878 566.041L-172.474 620.291C-172.946 620.122 -173.435 619.98 -173.943 619.891C-177.744 619.214 -181.429 620.95 -183.459 624.004L-337.423 523.283C-337.334 523.141 -337.263 522.989 -337.192 522.838L-337.201 522.829ZM-170.302 506.965L-116.695 502.14C-116.508 503.146 -115.725 503.983 -114.666 504.17C-114.069 504.276 -113.5 504.152 -113.001 503.885L-84.9606 539.788L-147.38 562.729C-147.727 562.044 -148.368 561.527 -149.178 561.376C-149.57 561.305 -149.952 561.34 -150.308 561.438L-171.29 508.959C-170.8 508.585 -170.444 508.051 -170.328 507.401C-170.302 507.25 -170.293 507.107 -170.293 506.956L-170.302 506.965ZM14.8726 91.9571C15.7895 92.1173 16.6797 91.9215 17.4274 91.4764L79.0098 180.126C77.087 181.532 75.6716 183.66 75.2176 186.206C75.0663 187.025 75.0485 187.835 75.1019 188.627L-130.742 216.518C-130.822 216.34 -130.929 216.171 -131.036 216.02L12.8875 90.9245C13.4039 91.4408 14.0893 91.8236 14.8637 91.9571H14.8726ZM81.9562 184.363C81.1017 185.004 80.4697 185.957 80.265 187.105C80.2115 187.381 80.1937 187.666 80.2026 187.942L75.6716 188.556C75.6182 187.817 75.6449 187.069 75.7784 186.304C76.2057 183.918 77.5321 181.924 79.3303 180.597L81.9473 184.363H81.9562ZM93.2793 189.42C92.7363 192.446 90.7601 194.85 88.1875 196.043L86.4695 191.761C87.6445 191.156 88.5435 190.034 88.7928 188.627C88.8284 188.431 88.8284 188.236 88.8373 188.049L93.4039 188.218C93.3861 188.618 93.3505 189.019 93.2793 189.429V189.42ZM160.131 254.958L128.78 293.114C128.521 292.953 128.219 292.829 127.898 292.775C127.578 292.722 127.266 292.731 126.972 292.784L110.015 250.498C110.611 250.142 111.065 249.555 111.207 248.825L160.123 254.967L160.131 254.958ZM325.597 281.977C328.642 282.52 331.553 280.49 332.096 277.446C332.47 275.362 331.624 273.368 330.093 272.131L386.548 196.906L388.862 210.189C384.954 210.785 381.661 213.839 380.922 217.987C379.996 223.186 383.414 228.154 388.551 229.07C389.779 229.293 390.99 229.249 392.147 228.999L414.784 358.911C413.066 359.4 411.677 360.816 411.348 362.694C411.143 363.825 411.375 364.929 411.9 365.863L389.432 386.686C389.103 386.392 388.693 386.178 388.221 386.089C386.85 385.849 385.542 386.757 385.293 388.128C385.257 388.306 385.248 388.475 385.257 388.644L368.7 390.879C368.352 390.185 367.703 389.659 366.884 389.517C365.611 389.285 364.409 390.06 364.035 391.262L258.478 370.582C258.567 369.798 258.291 369.042 257.766 368.516L323.408 281.051C324.048 281.496 324.787 281.826 325.615 281.977H325.597ZM277.661 188.405L362.638 129.098L376.578 145.318C376.168 145.683 375.875 146.172 375.768 146.751C375.696 147.151 375.732 147.552 375.848 147.917L277.911 188.85C277.839 188.699 277.75 188.556 277.661 188.414V188.405ZM312.04 65.7754C312.307 63.8347 311.257 62.0008 309.556 61.2352L311.034 56.8642C314.826 58.3598 317.176 62.3925 316.5 66.6033L312.04 65.7754ZM307.028 69.5055C308.346 69.737 309.61 69.3274 310.553 68.5084L313.527 71.9714C311.577 73.6718 308.924 74.5086 306.209 74.0279C306.022 73.9922 305.853 73.9477 305.675 73.9032L306.886 69.461C306.93 69.4699 306.975 69.4966 307.019 69.5055H307.028ZM310.945 68.1523C311.408 67.636 311.746 67.0039 311.933 66.2917L316.393 67.1197C316.001 68.8823 315.12 70.4224 313.918 71.6064L310.945 68.1434V68.1523ZM316.954 67.2265L363.305 75.8617C363.118 77.206 364.008 78.4612 365.353 78.7016C365.557 78.7372 365.762 78.7372 365.958 78.7283L373.32 120.988L362.727 128.385L314.292 72.0338C315.592 70.7696 316.544 69.1227 316.963 67.2265H316.954ZM346.988 -39.7437L392.138 35.8013C391.088 36.5046 390.313 37.6174 390.073 38.9528C389.601 41.5789 391.355 44.0894 393.981 44.5612C395.085 44.7571 396.153 44.5434 397.07 44.0627L417.544 78.3277C415.389 79.7075 413.778 81.942 413.271 84.6572L368.308 76.2712C368.335 75.0516 367.48 73.9566 366.234 73.7341C366.02 73.6985 365.816 73.6896 365.611 73.7074L345.893 -39.4588C346.267 -39.5211 346.641 -39.6101 346.988 -39.7526V-39.7437ZM336.609 632.755C334.259 632.336 332.007 633.93 331.579 636.307C331.241 638.194 332.158 639.983 333.716 640.874L331.74 645.067C328.384 643.313 326.39 639.476 327.102 635.505C327.974 630.618 332.603 627.342 337.428 628.206C338.122 628.33 338.781 628.544 339.404 628.811L337.437 632.986C337.179 632.879 336.903 632.799 336.618 632.755H336.609ZM334.179 641.123C334.464 641.239 334.757 641.336 335.069 641.39C337.143 641.755 339.137 640.562 339.876 638.639L344.166 640.179C342.698 644.185 338.558 646.705 334.268 645.939C333.547 645.814 332.861 645.583 332.22 645.298L334.188 641.123H334.179ZM340.018 638.132C340.045 638.034 340.081 637.936 340.098 637.829C340.437 635.915 339.493 634.099 337.9 633.226L339.876 629.033C343.276 630.778 345.297 634.633 344.585 638.63C344.523 638.986 344.433 639.333 344.327 639.681L340.018 638.132ZM340.116 628.526L391.266 519.98C391.818 520.212 392.396 520.399 393.002 520.505C393.571 520.603 394.141 520.639 394.693 520.621L404.903 661.393L344.852 639.868C344.968 639.494 345.066 639.12 345.137 638.728C345.893 634.473 343.73 630.369 340.107 628.517L340.116 628.526ZM288.014 641.897C287.382 641.79 286.768 641.924 286.26 642.236L263.606 599.914C265.795 598.846 267.451 596.789 267.914 594.208C268.252 592.338 267.896 590.504 267.033 588.973L387.749 516.989C388.159 517.621 388.649 518.191 389.218 518.68L288.958 642.262C288.682 642.075 288.361 641.951 288.014 641.888V641.897ZM189.641 818.012C188.27 817.762 186.952 818.679 186.712 820.05C186.685 820.175 186.685 820.3 186.685 820.415L35.9075 836.662C35.8986 835.923 35.5959 835.238 35.1063 834.712L254.811 598.641C255.496 599.264 256.288 599.781 257.178 600.137L189.685 818.012C189.685 818.012 189.659 818.012 189.65 818.003L189.641 818.012ZM-150.068 566.343C-148.697 566.593 -147.389 565.676 -147.139 564.305C-147.077 563.931 -147.095 563.566 -147.193 563.219L-84.6223 540.224L-62.3323 568.756L-64.5132 604.098C-69.2045 603.858 -73.4773 607.187 -74.3319 611.994C-74.6346 613.695 -74.4654 615.368 -73.9313 616.891L-98.6782 626.968C-99.0254 626.292 -99.6663 625.766 -100.476 625.624C-101.847 625.375 -103.156 626.292 -103.405 627.663C-103.476 628.072 -103.441 628.473 -103.325 628.855L-103.984 629.122L-166.18 629.051C-166.26 625.277 -168.557 621.894 -171.993 620.461L-150.406 566.245C-150.299 566.281 -150.193 566.317 -150.068 566.343ZM-111.701 501.686L-57.8903 496.843L-59.9734 530.592L-84.4354 539.583L-112.565 503.573C-112.147 503.208 -111.835 502.71 -111.728 502.122C-111.701 501.971 -111.693 501.828 -111.693 501.686H-111.701ZM9.27344 287.425C10.7155 287.683 12.1131 287.247 13.1724 286.384L50.3283 326.925C50.0079 327.263 49.7764 327.699 49.6963 328.198C49.4649 329.489 50.2661 330.717 51.5123 331.064L34.9016 403.689C32.053 403.182 29.3469 404.936 28.5635 407.651L-48.499 389.125C-48.4812 389.054 -48.4545 388.992 -48.4367 388.911C-48.2586 387.932 -48.6859 386.98 -49.4426 386.428L7.95596 286.953C8.36542 287.158 8.80167 287.336 9.28235 287.416L9.27344 287.425ZM-130.449 217.96C-130.431 217.631 -130.466 217.319 -130.555 217.017L75.1464 189.135C75.636 192.918 78.351 196.132 82.1343 197.111L72.0664 241.142H72.0486C70.7311 240.911 69.4849 241.738 69.1645 243.012L-130.449 217.969V217.96ZM83.2915 192.037L82.2589 196.559C78.716 195.633 76.1701 192.616 75.7072 189.064L80.2471 188.449C80.4697 190.132 81.6358 191.547 83.2915 192.037ZM71.47 246.127C72.6985 246.199 73.8022 245.371 74.0604 244.151L106.214 248.184C106.151 249.439 107.015 250.57 108.279 250.801C108.715 250.881 109.133 250.828 109.525 250.694L126.456 292.918C125.699 293.238 125.112 293.924 124.961 294.796C124.818 295.606 125.085 296.39 125.602 296.951L83.158 348.602C82.0008 347.703 80.621 347.053 79.0721 346.777C76.1701 346.26 73.3305 347.151 71.2475 348.967L54.0938 330.254C54.3697 329.925 54.5745 329.524 54.6546 329.079C54.8682 327.886 54.2095 326.747 53.1324 326.302L71.4611 246.127H71.47ZM368.237 76.7787L413.191 85.1647C412.861 87.6573 413.502 90.0698 414.864 91.9838L373.783 120.658L366.465 78.6482C367.329 78.4078 368.023 77.7134 368.237 76.7876V76.7787ZM417.837 78.8084L420.196 82.7432C419.244 83.3753 418.541 84.3723 418.309 85.5919L413.832 84.7551C414.312 82.2002 415.817 80.0992 417.837 78.7995V78.8084ZM398.423 42.9944L439.433 75.6125L430.603 81.3634C429.241 79.1289 426.988 77.4642 424.238 76.9745C422.012 76.5739 419.831 77.0101 417.998 78.0428L397.532 43.7956C397.862 43.5731 398.164 43.2971 398.432 42.9944H398.423ZM511.84 35.9082C512.846 36.0862 513.834 36.0595 514.769 35.8726L541.305 149.172C540.869 149.324 540.486 149.582 540.183 149.929L488.891 112.521L510.968 35.6945C511.253 35.7746 511.537 35.8459 511.831 35.8993L511.84 35.9082ZM662.734 326.488L449.937 473.911C449.804 473.759 449.661 473.626 449.492 473.51L566.461 269.113C566.799 269.264 567.155 269.38 567.538 269.451C569.256 269.754 570.912 269.104 571.989 267.885L662.671 324.183C662.573 324.388 662.493 324.601 662.449 324.833C662.342 325.429 662.458 325.999 662.734 326.48V326.488ZM514.208 473.626C516.834 474.098 519.344 472.344 519.816 469.718C519.816 469.673 519.816 469.629 519.825 469.575L601.169 478.077C601.169 478.335 601.214 478.576 601.285 478.816L467.215 535.862C466.708 535.159 466.121 534.527 465.435 533.984L512.294 472.816C512.846 473.207 513.496 473.501 514.208 473.626ZM466.672 536.084L462.444 537.883L465.088 534.429C465.684 534.909 466.219 535.461 466.672 536.084ZM461.857 537.785C461.403 537.509 460.904 537.295 460.343 537.197C459.845 537.108 459.364 537.126 458.892 537.197L458.109 532.648C459.097 532.479 460.121 532.461 461.153 532.648C462.462 532.88 463.637 533.396 464.661 534.117L461.857 537.785ZM458.385 537.322C457.237 537.669 456.275 538.47 455.723 539.574L451.548 537.722C452.715 535.203 454.967 533.378 457.593 532.746L458.385 537.313V537.322ZM451.023 537.491L401.725 515.663C401.921 515.164 402.081 514.639 402.179 514.096C402.544 512.048 402.081 510.054 401.031 508.434L446.136 477.187C446.501 477.623 447.008 477.943 447.614 478.05C447.81 478.086 447.997 478.086 448.184 478.077L457.495 532.185C454.673 532.844 452.269 534.803 451.023 537.491ZM-70.8157 714.878C-70.8157 714.878 -70.8335 714.878 -70.8424 714.878L-65.172 623.185C-60.6232 623.238 -56.5551 619.962 -55.7183 615.288C-55.3978 613.517 -55.6026 611.772 -56.1901 610.205L-38.2086 602.887C-37.8614 603.51 -37.256 603.982 -36.5083 604.125L-33.3126 651.058L-70.3884 714.994C-70.5219 714.941 -70.6644 714.896 -70.8068 714.878H-70.8157ZM52.0286 331.127C52.6517 331.162 53.2481 330.975 53.7199 330.61L70.8736 349.323C69.476 350.685 68.4612 352.474 68.0962 354.54C67.4998 357.914 68.7282 361.181 71.0694 363.317L37.1359 404.624C36.6285 404.259 36.041 404.001 35.409 403.823L52.0286 331.136V331.127ZM417.437 358.893L452.875 237.804C452.875 237.804 452.875 237.804 452.884 237.804C453.507 237.91 454.112 237.777 454.611 237.474L495.425 284.211C495.105 284.55 494.873 284.986 494.784 285.484C494.642 286.268 494.891 287.025 495.381 287.585L418.71 359.445C418.327 359.196 417.891 359.018 417.437 358.884V358.893ZM541.67 154.024C541.937 154.069 542.195 154.06 542.453 154.024L555.085 207.963C554.257 208.23 553.598 208.907 553.402 209.806L463.308 201.545L488.74 113.038L539.898 150.347C539.774 150.579 539.676 150.819 539.631 151.086C539.391 152.457 540.299 153.766 541.679 154.015L541.67 154.024ZM497.722 283.446C497.027 283.321 496.36 283.49 495.826 283.864L455.038 237.163C455.269 236.949 455.456 236.7 455.59 236.415L563.657 263.736C563.657 263.736 563.639 263.798 563.63 263.834C563.479 264.689 563.577 265.517 563.844 266.273L499.609 284.986C499.289 284.211 498.603 283.615 497.722 283.455V283.446ZM563.8 263.22L455.768 235.907C455.777 235.854 455.803 235.81 455.812 235.756C456.026 234.563 455.358 233.406 454.272 232.97L463.156 202.061L553.34 210.331C553.331 211.542 554.186 212.628 555.414 212.85C555.69 212.895 555.966 212.886 556.233 212.85L567.271 259.979C565.651 260.362 564.325 261.582 563.8 263.229V263.22ZM462.773 201.5L438.525 199.274C438.516 198.42 438.071 197.636 437.377 197.182L478.458 105.533L488.295 112.708L462.773 201.5ZM438.472 199.8L462.622 202.016L453.765 232.827C453.266 232.738 452.786 232.809 452.349 232.988L437.27 201.473C437.866 201.117 438.32 200.53 438.463 199.8H438.472ZM496.841 288.413C498.211 288.654 499.529 287.746 499.769 286.375C499.823 286.072 499.814 285.769 499.769 285.484L564.058 266.763C564.414 267.502 564.948 268.134 565.616 268.606L398.725 506.084C398.467 505.914 398.191 505.754 397.906 505.621L496.573 288.342C496.662 288.369 496.752 288.404 496.849 288.422L496.841 288.413ZM448.495 473.056C447.124 472.816 445.816 473.724 445.566 475.104C445.46 475.682 445.575 476.252 445.833 476.733L400.728 507.98C400.283 507.375 399.749 506.84 399.144 506.386L565.607 269.514L449.029 473.234C448.86 473.163 448.682 473.101 448.486 473.065L448.495 473.056ZM386.53 511.915L303.245 506.555C303.263 504.722 302.239 503.066 300.637 502.238L315.983 468C316.135 468.062 316.304 468.106 316.473 468.142C317.434 468.311 318.351 467.911 318.912 467.189L387.518 508.826C387.1 509.582 386.779 510.41 386.619 511.309C386.583 511.514 386.566 511.719 386.539 511.924L386.53 511.915ZM61.0371 490.157L29.1333 581.949L2.79294 589.819L60.69 489.971C60.8057 490.033 60.9214 490.104 61.0461 490.149L61.0371 490.157ZM61.5446 490.309C61.7048 490.353 61.8561 490.416 62.0253 490.442C63.6721 490.736 65.2655 490.157 66.3515 489.036L131.682 543.607C130.756 544.8 130.097 546.224 129.812 547.818C129.572 549.189 129.634 550.533 129.946 551.806L29.7742 581.744L61.5624 490.291L61.5446 490.309ZM130.364 547.933C130.631 546.447 131.245 545.102 132.109 543.981L135.625 546.919C135.242 547.444 134.957 548.049 134.842 548.726C134.744 549.278 134.761 549.821 134.859 550.337L130.471 551.646C130.186 550.462 130.124 549.198 130.355 547.924L130.364 547.933ZM142.426 546.687C141.794 545.921 140.922 545.361 139.88 545.174C138.385 544.907 136.934 545.459 135.963 546.509L132.456 543.58C134.45 541.292 137.53 540.064 140.69 540.625C142.987 541.034 144.901 542.307 146.2 544.052L142.417 546.678L142.426 546.687ZM135.011 550.853C135.491 552.34 136.72 553.515 138.34 553.809C138.785 553.889 139.23 553.871 139.657 553.809L140.61 558.331C139.613 558.509 138.571 558.527 137.521 558.34C134.138 557.735 131.557 555.26 130.613 552.144L135.002 550.836L135.011 550.853ZM140.183 553.72C141.776 553.302 143.067 551.993 143.378 550.248C143.583 549.1 143.316 547.987 142.737 547.088L146.503 544.47C147.731 546.331 148.283 548.663 147.856 551.049C147.206 554.69 144.473 557.423 141.135 558.242L140.183 553.72ZM146.672 543.732C145.292 541.871 143.236 540.509 140.797 540.064C137.423 539.458 134.138 540.767 132.02 543.215L66.6809 488.635C67.1438 488.039 67.4909 487.335 67.6334 486.543C67.6334 486.507 67.6334 486.481 67.6334 486.445L201.827 500.235C201.729 501.828 202.112 503.36 202.878 504.677L146.672 543.732ZM217.494 502.113C217.53 501.935 217.548 501.748 217.566 501.57L240.443 503.048C240.523 504.179 241.351 505.149 242.508 505.354C243.861 505.594 245.152 504.704 245.419 503.368L293.622 506.466C293.613 507.437 293.889 508.354 294.397 509.137L257.534 536.004C256.155 534.233 254.161 532.942 251.793 532.515C246.666 531.598 241.734 535.078 240.808 540.277C240.363 542.77 240.933 545.209 242.197 547.177L238.983 549.518C238.618 549.117 238.138 548.833 237.568 548.726C237.096 548.637 236.633 548.699 236.224 548.859L213.943 507.383C215.75 506.235 217.085 504.374 217.494 502.104V502.113ZM258.861 543.5C258.211 547.159 255.452 549.91 252.078 550.702L251.232 546.153C252.799 545.717 254.063 544.417 254.365 542.699C254.579 541.524 254.294 540.375 253.68 539.458L257.392 536.752C258.701 538.639 259.288 541.043 258.852 543.491L258.861 543.5ZM246.666 544.586C247.298 545.432 248.232 546.064 249.345 546.26C249.817 546.34 250.271 546.331 250.725 546.26L251.57 550.809C250.591 550.978 249.567 550.996 248.544 550.809C246.211 550.39 244.262 549.082 242.962 547.292L246.666 544.595V544.586ZM253.36 539.049C252.737 538.328 251.891 537.803 250.885 537.625C248.535 537.206 246.274 538.8 245.855 541.185C245.668 542.245 245.891 543.278 246.381 544.141L242.66 546.856C241.476 545.013 240.951 542.726 241.369 540.384C242.241 535.497 246.87 532.221 251.695 533.075C253.911 533.467 255.781 534.678 257.081 536.334L253.36 539.049ZM239.304 549.945L242.5 547.613C243.879 549.518 245.953 550.916 248.437 551.352C249.541 551.548 250.627 551.53 251.668 551.352L257.935 585.198C257.312 585.385 256.716 585.635 256.155 585.964L238.592 553.275C239.117 552.901 239.5 552.34 239.615 551.664C239.722 551.049 239.589 550.453 239.295 549.945H239.304ZM261.531 585.003C260.481 584.816 259.431 584.851 258.443 585.065L252.185 551.263C255.781 550.426 258.727 547.488 259.422 543.598C259.885 540.99 259.253 538.435 257.855 536.423L294.708 509.556C295.127 510.063 295.634 510.481 296.23 510.784L262.804 585.359C262.395 585.216 261.968 585.092 261.523 585.012L261.531 585.003ZM315.529 467.75L300.174 502.006C299.889 501.9 299.604 501.811 299.293 501.757C298.011 501.526 296.756 501.837 295.75 502.514L271.145 469.949C272.837 468.543 274.074 466.566 274.492 464.225C274.964 461.572 274.297 458.982 272.854 456.952L286.501 447.524L314.639 464.599C314.55 464.795 314.47 464.991 314.435 465.213C314.257 466.228 314.711 467.216 315.521 467.759L315.529 467.75ZM265.956 458.234C264.816 458.029 263.712 458.305 262.813 458.901L260.045 455.234C261.923 453.872 264.318 453.248 266.766 453.685C268.938 454.067 270.78 455.234 272.071 456.845L268.27 459.471C267.665 458.848 266.872 458.394 265.956 458.234ZM262.404 459.231C261.665 459.872 261.113 460.744 260.926 461.795C260.766 462.685 260.891 463.575 261.229 464.341L257.428 466.967C256.457 465.213 256.057 463.121 256.44 460.993C256.84 458.768 258.015 456.881 259.635 455.563L262.404 459.231ZM261.478 464.804C262.101 465.854 263.125 466.638 264.416 466.869C265.582 467.074 266.721 466.789 267.629 466.157L270.389 469.816C268.493 471.213 266.08 471.863 263.606 471.418C261.069 470.964 258.985 469.451 257.704 467.421L261.487 464.813L261.478 464.804ZM268.03 465.819C268.742 465.186 269.258 464.332 269.445 463.317C269.668 462.053 269.32 460.824 268.608 459.881L272.392 457.263C273.754 459.169 274.377 461.608 273.932 464.109C273.54 466.299 272.392 468.169 270.807 469.486L268.039 465.819H268.03ZM272.534 456.525C271.154 454.797 269.187 453.542 266.864 453.133C264.255 452.67 261.709 453.337 259.707 454.797L227.642 412.351C227.749 412.236 227.847 412.102 227.927 411.968L286.011 447.222L272.534 456.533V456.525ZM227.251 412.707L259.288 455.118C257.561 456.516 256.297 458.528 255.879 460.896C255.469 463.183 255.906 465.418 256.956 467.296L238.939 479.742L226.583 413.046C226.823 412.965 227.046 412.859 227.251 412.707ZM257.232 467.741C258.603 469.905 260.81 471.498 263.508 471.979C266.143 472.451 268.724 471.747 270.736 470.261L295.34 502.834C294.512 503.538 293.898 504.508 293.685 505.656C293.667 505.754 293.676 505.843 293.658 505.932L245.473 502.834C245.455 501.641 244.609 500.591 243.399 500.368C243.185 500.333 242.971 500.333 242.758 500.351L239.046 480.303L257.232 467.732V467.741ZM242.241 500.448C241.351 500.716 240.639 501.446 240.47 502.416C240.47 502.452 240.47 502.478 240.47 502.514L217.619 501.045C217.69 499.247 217.156 497.529 216.159 496.14L238.583 480.65L242.25 500.457L242.241 500.448ZM201.89 499.71L67.6779 485.911C67.7847 483.525 66.1378 481.371 63.7255 480.944C62.9243 480.801 62.1499 480.881 61.4288 481.113L36.1568 414.31C37.8214 413.589 39.1032 412.075 39.4415 410.152C39.7975 408.132 39.0142 406.182 37.5632 404.936L71.4789 363.656C72.6718 364.626 74.1227 365.32 75.7339 365.614C78.7071 366.139 81.6002 365.196 83.701 363.291L204.355 494.929C203.136 496.06 202.246 497.573 201.934 499.336C201.907 499.46 201.899 499.585 201.89 499.71ZM75.8318 365.044C74.3185 364.777 72.9566 364.127 71.835 363.211L74.7637 359.641C75.2978 360.059 75.9209 360.371 76.633 360.495C77.9683 360.736 79.2501 360.308 80.2026 359.48L83.3004 362.863C81.3331 364.644 78.6092 365.534 75.8141 365.044H75.8318ZM80.5943 359.124C81.1284 358.528 81.5201 357.789 81.6714 356.943C81.9473 355.385 81.3776 353.899 80.2916 352.919L83.2203 349.359C85.5081 351.362 86.7365 354.504 86.1579 357.744C85.8285 359.614 84.9384 361.252 83.6921 362.507L80.5943 359.124ZM79.8822 352.59C79.3837 352.243 78.8139 351.985 78.173 351.869C76.9089 351.646 75.6894 352.011 74.7458 352.759L71.6391 349.367C73.5975 347.676 76.2592 346.839 78.9831 347.329C80.4252 347.587 81.7159 348.192 82.8019 349.029L79.8733 352.59H79.8822ZM74.3542 353.098C73.7488 353.712 73.3127 354.504 73.1435 355.421C72.8765 356.899 73.3839 358.323 74.3542 359.302L71.4344 362.863C69.2445 360.851 68.0873 357.789 68.657 354.62C69.0042 352.679 69.9478 350.997 71.2652 349.723L74.3542 353.098ZM32.9343 414.684C33.8779 414.853 34.7948 414.746 35.6404 414.47L60.9126 481.273C60.334 481.531 59.8087 481.905 59.3725 482.359L-48.8462 389.864C-48.7838 389.775 -48.7393 389.686 -48.6859 389.588L28.4211 408.123C28.4211 408.123 28.4122 408.158 28.4033 408.185C27.8603 411.23 29.8899 414.141 32.9343 414.684ZM-49.1933 390.265L59.0432 482.777C58.5892 483.374 58.2509 484.059 58.1085 484.852C58.0462 485.199 58.0284 485.537 58.0462 485.867L-43.4072 494.991L-50.4841 390.923C-49.9945 390.834 -49.5405 390.612 -49.1844 390.274L-49.1933 390.265ZM58.0996 486.383C58.1352 486.632 58.1886 486.872 58.2598 487.104L-41.4577 523.764L-43.3805 495.517L58.0996 486.383ZM58.4289 487.611C58.8028 488.475 59.417 489.223 60.2182 489.739L2.05408 590.05L-33.6776 600.733C-33.9891 599.941 -34.6834 599.326 -35.5736 599.166C-35.8318 599.122 -36.0721 599.131 -36.3214 599.166L-41.4132 524.324L58.4378 487.62L58.4289 487.611ZM-36.8466 599.273C-37.0958 599.353 -37.3184 599.469 -37.5231 599.629L-61.7893 568.56L-59.466 530.957L-41.9295 524.511L-36.8466 599.282V599.273ZM-37.9148 599.985C-38.2085 600.324 -38.4311 600.733 -38.5112 601.205C-38.5824 601.614 -38.5468 602.024 -38.4222 602.398L-56.3859 609.707C-57.6144 606.911 -60.1514 604.766 -63.3471 604.196C-63.5608 604.16 -63.7744 604.143 -63.988 604.116L-61.8338 569.352L-37.9059 599.985H-37.9148ZM-63.4539 604.757C-60.454 605.291 -58.0773 607.303 -56.9201 609.929L-61.1751 611.665C-61.7626 610.472 -62.8664 609.555 -64.2729 609.315C-64.2907 609.315 -64.3085 609.315 -64.3263 609.315L-64.0415 604.695C-63.8456 604.712 -63.6498 604.73 -63.4628 604.766L-63.4539 604.757ZM-64.8426 609.261C-66.9701 609.172 -68.9018 610.677 -69.2935 612.867C-69.4181 613.579 -69.3558 614.273 -69.16 614.914L-73.4061 616.65C-73.9046 615.226 -74.0648 613.659 -73.78 612.066C-72.9788 607.552 -68.9641 604.419 -64.5577 604.641L-64.8426 609.261ZM-68.9997 615.404C-68.4389 616.686 -67.2728 617.674 -65.804 617.941C-65.6616 617.968 -65.5191 617.959 -65.3856 617.977L-65.6705 622.606C-65.982 622.579 -66.2936 622.544 -66.6141 622.49C-69.6852 621.938 -72.0975 619.846 -73.2281 617.131L-68.9997 615.413V615.404ZM-64.8604 617.995C-62.8753 617.906 -61.1395 616.446 -60.7745 614.38C-60.632 613.597 -60.73 612.831 -60.9704 612.137L-56.7242 610.41C-56.1723 611.879 -55.9854 613.517 -56.2791 615.181C-57.0625 619.57 -60.8724 622.642 -65.1364 622.615L-64.8515 617.995H-64.8604ZM-35.992 604.169C-34.8081 604.151 -33.7666 603.306 -33.544 602.095C-33.4906 601.801 -33.4995 601.516 -33.544 601.24L1.66245 590.718L-32.8497 650.239L-35.9831 604.169H-35.992ZM2.39236 590.495L28.9107 582.572L-25.4345 738.932C-25.5146 738.915 -25.5858 738.879 -25.666 738.87C-26.0576 738.799 -26.4493 738.799 -26.8321 738.826L-32.7963 651.182L2.39236 590.504V590.495ZM-24.9272 739.075L29.5338 582.376L130.061 552.331C131.067 555.643 133.818 558.278 137.414 558.919C138.536 559.124 139.649 559.097 140.717 558.901L149.69 601.365C148.764 601.605 148.007 602.362 147.829 603.368C147.714 604.018 147.865 604.65 148.185 605.166L-23.0311 740.295C-23.5474 739.752 -24.1883 739.333 -24.9272 739.075ZM150.749 601.321C150.562 601.285 150.384 601.276 150.206 601.285L141.233 558.803C144.794 557.949 147.705 555.029 148.399 551.156C148.853 548.619 148.265 546.144 146.948 544.159L203.136 505.131C204.284 506.849 206.109 508.122 208.308 508.514C210.15 508.843 211.949 508.496 213.471 507.668L235.734 549.109C235.173 549.474 234.755 550.061 234.621 550.773C234.381 552.144 235.289 553.462 236.66 553.702C237.167 553.791 237.666 553.72 238.102 553.533L255.683 586.249C253.983 587.406 252.728 589.213 252.336 591.403C252.211 592.107 252.193 592.81 252.256 593.495L152.752 603.217C152.521 602.273 151.764 601.499 150.74 601.321H150.749ZM263.276 585.555L296.685 511.024C296.969 511.131 297.263 511.22 297.566 511.274C300.192 511.746 302.702 509.992 303.165 507.366C303.183 507.268 303.174 507.179 303.183 507.09L386.477 512.458C386.432 513.909 386.779 515.306 387.447 516.517L266.73 588.501C265.902 587.219 264.709 586.187 263.267 585.563L263.276 585.555ZM572.185 261.724C571.482 260.807 570.458 260.131 569.23 259.917C568.74 259.828 568.259 259.846 567.788 259.899L556.732 212.717C557.542 212.414 558.174 211.72 558.334 210.803V210.794L629.521 217.319C629.521 217.684 629.592 218.041 629.735 218.361L572.176 261.724H572.185ZM629.584 216.794L558.37 210.269C558.325 209.103 557.479 208.088 556.295 207.874C556.055 207.83 555.824 207.839 555.601 207.856L542.961 153.899C543.326 153.766 543.655 153.561 543.922 153.285L629.895 215.993C629.744 216.233 629.646 216.5 629.584 216.785V216.794ZM488.437 112.174L478.663 105.044L509.935 35.285C510.113 35.3651 510.291 35.4453 510.469 35.5076L488.437 112.174ZM464.928 92.3933L508.448 34.3948C508.769 34.6351 509.098 34.8577 509.454 35.0446L478.227 104.723L465.426 95.3845C465.542 95.1619 465.64 94.9305 465.684 94.6634C465.836 93.791 465.524 92.9542 464.928 92.3844V92.3933ZM508.039 34.0654L464.5 92.0728C464.242 91.9126 463.957 91.7969 463.637 91.7435C462.8 91.5921 461.999 91.877 461.429 92.42L440.314 75.6214L506.615 32.4363C507.006 33.0416 507.487 33.5847 508.03 34.0565L508.039 34.0654ZM461.1 92.8295C460.966 93.0343 460.869 93.2569 460.788 93.5061L431.831 88.1024C431.831 88.1024 431.84 88.0579 431.849 88.0401C432.24 85.8145 431.849 83.6424 430.852 81.7996L439.852 75.9418L461.1 92.8384V92.8295ZM421.781 90.693C423.953 91.0758 426.027 89.7404 426.668 87.6484L431.172 88.4852C430.06 93.061 425.609 96.0611 420.971 95.2332C418.79 94.8415 416.938 93.6664 415.639 92.0461L419.422 89.4021C420.036 90.0431 420.837 90.5149 421.772 90.6841L421.781 90.693ZM426.801 87.1588C426.801 87.1588 426.801 87.141 426.801 87.1321C426.962 86.2507 426.837 85.3872 426.517 84.6216L430.38 82.1111C431.288 83.8293 431.662 85.8679 431.297 87.9422C431.297 87.96 431.288 87.9867 431.279 88.0045L426.801 87.1677V87.1588ZM424.131 77.5087C426.721 77.9716 428.84 79.5384 430.122 81.6482L426.276 84.1587C425.662 83.0904 424.62 82.2892 423.321 82.0577C422.368 81.8886 421.443 82.0578 420.641 82.4673L418.283 78.5146C420.009 77.5443 422.048 77.1437 424.131 77.5176V77.5087ZM418.256 86.0816C418.185 87.1588 418.487 88.1825 419.093 89.0016L415.327 91.6277C414.063 89.8383 413.449 87.5772 413.751 85.2359L418.256 86.0727V86.0816ZM415.185 92.3755C416.564 94.1115 418.541 95.3845 420.882 95.794C425.822 96.6754 430.567 93.4705 431.742 88.592L460.708 93.9957C460.655 94.5477 460.779 95.064 461.047 95.518L380.236 145.62C379.871 145.14 379.337 144.783 378.688 144.677C378.447 144.632 378.207 144.641 377.975 144.668L373.889 121.21L415.185 92.3844V92.3755ZM380.512 146.056L461.358 95.9364C461.411 95.9899 461.456 96.0433 461.509 96.0878L405.224 171.09L380.379 148.496C380.548 148.229 380.673 147.926 380.735 147.597C380.833 147.053 380.735 146.519 380.512 146.056ZM461.928 96.3994C462.177 96.5507 462.453 96.6575 462.765 96.7198C463.69 96.889 464.581 96.5151 465.141 95.8296L478.013 105.213L436.896 196.942C436.754 196.889 436.602 196.844 436.442 196.809C435.614 196.666 434.822 196.942 434.261 197.476L405.615 171.437L461.937 96.3905L461.928 96.3994ZM435.552 201.794C435.979 201.874 436.406 201.821 436.789 201.687L451.887 233.237C451.406 233.566 451.05 234.074 450.898 234.67L399.429 221.655C399.455 221.521 399.5 221.397 399.518 221.254C399.847 219.42 399.624 217.613 398.983 216.011L433.852 200.61C434.217 201.206 434.813 201.66 435.561 201.794H435.552ZM398.957 221.165C398.939 221.29 398.903 221.406 398.877 221.521L394.461 220.409C394.461 220.409 394.461 220.382 394.47 220.364C394.613 219.572 394.515 218.806 394.266 218.103L398.458 216.251C399.055 217.765 399.268 219.447 398.957 221.165ZM394.061 217.613C393.473 216.429 392.369 215.53 390.981 215.29C390.74 215.245 390.509 215.236 390.269 215.236L389.467 210.652C390.224 210.58 391.008 210.607 391.791 210.741C394.737 211.266 397.07 213.215 398.254 215.762L394.061 217.613ZM389.743 215.263C387.883 215.477 386.298 216.883 385.951 218.842C385.524 221.228 387.091 223.498 389.441 223.916C390.055 224.023 390.669 223.996 391.239 223.845L392.031 228.394C390.945 228.625 389.797 228.67 388.631 228.465C383.806 227.602 380.592 222.928 381.465 218.041C382.159 214.132 385.266 211.257 388.951 210.705L389.743 215.263ZM391.746 223.676C392.948 223.204 393.918 222.207 394.328 220.907L398.77 222.029C397.897 225.118 395.485 227.432 392.556 228.26L391.755 223.676H391.746ZM399.313 222.171L450.818 235.195C450.765 236.264 451.388 237.243 452.367 237.643L416.929 358.742C416.369 358.644 415.808 358.661 415.274 358.75L392.637 228.83C395.779 227.967 398.378 225.492 399.304 222.18L399.313 222.171ZM412.149 366.282C412.852 367.279 413.938 368.018 415.238 368.249C417.864 368.721 420.374 366.967 420.837 364.341C421.158 362.561 420.437 360.842 419.128 359.774L495.772 287.941C495.87 288.013 495.959 288.075 496.066 288.128L397.408 505.389C396.892 505.176 396.34 505.006 395.77 504.909C395.254 504.82 394.728 504.775 394.221 504.793L388.141 391.021C389.174 390.852 390.037 390.069 390.233 388.983C390.358 388.262 390.171 387.567 389.761 387.033L412.14 366.291L412.149 366.282ZM387.313 391.021C387.42 391.039 387.527 391.039 387.625 391.048L393.705 504.828C391.274 505.042 389.085 506.36 387.776 508.372L319.188 466.744C319.286 466.54 319.366 466.326 319.411 466.103C319.651 464.732 318.743 463.415 317.363 463.174C316.393 463.005 315.467 463.415 314.906 464.154L286.973 447.204L364.516 393.621C364.881 394.048 365.379 394.36 365.976 394.467C367.347 394.716 368.655 393.799 368.904 392.428C368.967 392.063 368.949 391.707 368.86 391.369L385.301 389.152C385.533 390.095 386.29 390.861 387.304 391.039L387.313 391.021ZM364.213 393.167L286.474 446.883L228.141 411.479C228.185 411.354 228.221 411.23 228.248 411.105C228.292 410.838 228.292 410.571 228.248 410.313L363.893 392.018C363.893 392.428 364.017 392.82 364.213 393.167ZM225.319 413.152C225.568 413.197 225.818 413.188 226.058 413.152L238.449 480.062L215.812 495.704C214.708 494.35 213.15 493.371 211.317 492.979L225.239 413.108C225.239 413.108 225.292 413.126 225.319 413.135V413.152ZM204.747 494.582L84.0749 362.926C85.4012 361.59 86.3537 359.845 86.7187 357.842C87.3329 354.388 86.0244 351.05 83.5764 348.922L126.011 297.28C126.305 297.485 126.643 297.636 127.017 297.707C127.48 297.787 127.934 297.734 128.343 297.574L206.839 493.371C206.082 493.665 205.379 494.074 204.747 494.582ZM-43.9324 495.036L-57.3206 496.238L-50.9025 392.508L-43.9324 495.036ZM-43.8968 495.561L-41.9651 523.951L-59.4303 530.369L-57.3562 496.772L-43.8968 495.561ZM-60 531.144L-62.2789 567.928L-84.0971 540.001L-60.0089 531.144H-60ZM-166.732 629.025H-171.308C-171.397 627.369 -172.403 625.909 -173.898 625.259L-172.189 620.968C-168.975 622.321 -166.812 625.49 -166.732 629.025ZM-171.317 629.55H-166.741C-166.75 629.977 -166.786 630.404 -166.866 630.841C-167.142 632.39 -167.8 633.778 -168.726 634.927L-172.233 631.971C-171.806 631.419 -171.486 630.778 -171.352 630.039C-171.325 629.87 -171.325 629.71 -171.317 629.55ZM-166.305 630.939C-166.225 630.476 -166.189 630.013 -166.171 629.55L-105.203 629.612L-150.068 648.173C-150.406 647.461 -151.065 646.918 -151.902 646.767C-152.685 646.624 -153.433 646.874 -153.994 647.354L-168.299 635.292C-167.311 634.072 -166.608 632.594 -166.314 630.939H-166.305ZM-149.881 648.672L-103.085 629.318C-102.729 629.95 -102.105 630.431 -101.34 630.565C-99.9689 630.805 -98.6515 629.897 -98.4112 628.517C-98.3399 628.134 -98.3755 627.752 -98.4734 627.404L-73.7355 617.336C-72.5338 620.22 -69.97 622.455 -66.6942 623.042C-66.3559 623.105 -66.0176 623.14 -65.6883 623.158L-71.3587 714.825C-72.0174 714.852 -72.6227 715.137 -73.0678 715.591L-150.193 650.55C-150.032 650.292 -149.917 650.007 -149.863 649.696C-149.801 649.34 -149.819 648.992 -149.899 648.663L-149.881 648.672ZM-69.8988 715.217L-33.2414 651.993L-27.3306 738.888C-28.6658 739.128 -29.8409 739.903 -30.5619 741.033L-68.9819 718.466C-68.8751 718.261 -68.795 718.048 -68.7505 717.807C-68.5635 716.766 -69.0531 715.76 -69.8988 715.226V715.217ZM-22.6661 740.695L148.533 605.576C148.889 605.932 149.351 606.199 149.886 606.297C151.256 606.546 152.574 605.629 152.814 604.258C152.841 604.089 152.859 603.911 152.85 603.751L252.345 594.03C252.461 594.804 252.701 595.543 253.03 596.228L-22.4435 741.016C-22.5147 740.909 -22.5948 740.802 -22.675 740.695H-22.6661ZM395.245 520.55C396.26 520.443 397.23 520.14 398.111 519.669L496.342 690.727C495.363 691.332 494.571 692.222 494.108 693.326L405.464 661.554L395.236 520.55H395.245ZM500.259 689.961C499.03 689.738 497.838 689.961 496.805 690.468L398.574 519.41C399.117 519.072 399.615 518.68 400.061 518.226L525.157 632.755C524.917 633.066 524.73 633.431 524.659 633.85C524.472 634.918 524.979 635.933 525.851 636.458L501.434 690.317C501.06 690.157 500.668 690.032 500.25 689.961H500.259ZM529.421 633.218L537.424 628.571C537.797 629.06 538.341 629.425 538.99 629.541C539.72 629.674 540.432 629.461 540.975 629.042L655.052 750.96L529.207 635.746C529.412 635.452 529.563 635.114 529.635 634.74C529.732 634.206 529.635 633.672 529.421 633.218ZM537.148 628.117L529.145 632.763C528.771 632.283 528.237 631.918 527.587 631.802C526.822 631.669 526.074 631.9 525.522 632.363L400.408 517.817C400.844 517.309 401.218 516.74 401.52 516.117L450.827 537.945C450.587 538.542 450.409 539.174 450.293 539.823C449.367 545.022 452.786 549.99 457.922 550.907C460.851 551.432 463.699 550.515 465.791 548.681L537.548 625.375C537.246 625.713 537.032 626.122 536.943 626.603C536.845 627.137 536.934 627.654 537.148 628.108V628.117ZM458.02 550.355C453.195 549.491 449.982 544.818 450.854 539.93C450.961 539.316 451.13 538.737 451.352 538.185L455.536 540.037C455.456 540.26 455.385 540.491 455.341 540.731C454.913 543.117 456.48 545.387 458.83 545.806C460.094 546.028 461.322 545.663 462.266 544.916L465.408 548.272C463.441 549.999 460.771 550.844 458.02 550.355ZM462.658 544.568C463.263 543.954 463.699 543.162 463.859 542.254C463.948 541.755 463.931 541.266 463.859 540.794L468.337 539.868C468.515 540.892 468.542 541.969 468.337 543.055C467.999 544.978 467.064 546.643 465.773 547.916L462.649 544.577L462.658 544.568ZM463.744 540.277C463.539 539.547 463.165 538.889 462.631 538.363L466.993 536.503C467.554 537.366 467.981 538.328 468.221 539.343L463.735 540.277H463.744ZM467.527 536.28L601.507 479.279C601.863 479.92 602.487 480.409 603.261 480.543C604.632 480.783 605.949 479.875 606.19 478.504C606.439 477.133 605.522 475.816 604.142 475.576C602.798 475.335 601.516 476.216 601.24 477.543L519.878 469.032C519.967 466.664 518.32 464.528 515.917 464.1C513.291 463.629 510.781 465.382 510.318 468.008C510.006 469.736 510.674 471.391 511.893 472.477L465.026 533.663C463.94 532.889 462.676 532.328 461.278 532.087C460.174 531.891 459.079 531.909 458.038 532.087L448.727 477.997C449.643 477.748 450.382 477 450.56 476.012C450.667 475.415 450.542 474.828 450.266 474.338L663.054 326.916C663.419 327.343 663.918 327.655 664.514 327.762C664.737 327.797 664.959 327.797 665.173 327.779L694.976 482.493C691.38 483.329 688.433 486.258 687.739 490.157C687.516 491.395 687.552 492.614 687.783 493.781L468.791 539.245C468.542 538.194 468.106 537.197 467.536 536.289L467.527 536.28ZM688.291 490.246C688.94 486.588 691.709 483.828 695.083 483.036L695.955 487.576C694.37 488.003 693.089 489.303 692.777 491.048C692.679 491.626 692.697 492.187 692.804 492.721L688.335 493.647C688.113 492.552 688.086 491.404 688.291 490.246ZM692.955 493.229C693.445 494.68 694.664 495.837 696.267 496.122C697.379 496.318 698.465 496.051 699.356 495.481L702.035 499.211C700.175 500.502 697.842 501.089 695.457 500.662C691.967 500.039 689.323 497.413 688.46 494.155L692.955 493.22V493.229ZM699.774 495.161C700.539 494.52 701.109 493.629 701.296 492.561C701.723 490.175 700.157 487.905 697.807 487.487C697.682 487.469 697.566 487.469 697.451 487.46L697.655 482.831C697.976 482.849 698.296 482.884 698.617 482.947C703.441 483.81 706.655 488.484 705.783 493.371C705.373 495.65 704.145 497.582 702.453 498.899L699.774 495.169V495.161ZM696.925 487.424C696.774 487.424 696.623 487.46 696.471 487.478L695.599 482.938C696.097 482.849 696.614 482.813 697.13 482.813L696.925 487.424ZM695.492 482.386L665.689 327.673C666.57 327.405 667.274 326.675 667.443 325.705C667.656 324.494 666.98 323.337 665.876 322.91L711.382 158.546C711.382 158.546 711.408 158.546 711.426 158.555L697.148 482.243C696.587 482.243 696.035 482.288 695.483 482.377L695.492 482.386ZM710.892 158.386L665.377 322.776C664.434 322.616 663.526 323.017 662.974 323.72L572.345 267.448C572.746 266.888 573.04 266.238 573.164 265.517C573.378 264.306 573.111 263.131 572.514 262.16L630.038 218.815C630.411 219.322 630.963 219.696 631.631 219.812C633.002 220.052 634.31 219.144 634.56 217.765C634.693 217.035 634.479 216.322 634.061 215.779L710.527 158.164C710.643 158.244 710.768 158.315 710.892 158.368V158.386ZM630.251 215.592L544.278 152.885C544.447 152.617 544.572 152.315 544.625 151.994C544.865 150.623 543.957 149.306 542.587 149.065C542.337 149.021 542.097 149.03 541.857 149.057L515.312 35.7479C515.988 35.561 516.638 35.3028 517.234 34.9467L630.581 215.316C630.465 215.405 630.358 215.494 630.251 215.601V215.592ZM506.374 32.009L439.923 75.292L398.779 42.5671C399.179 42.0063 399.473 41.3564 399.607 40.6264C399.669 40.2703 399.687 39.9142 399.669 39.567L505.413 29.0623C505.538 30.1128 505.876 31.1098 506.383 32.0001L506.374 32.009ZM373.435 121.548L377.486 144.783C377.326 144.837 377.174 144.908 377.023 144.988L363.083 128.768L373.435 121.548ZM380.076 148.932L404.93 171.526L386.868 195.598L378.857 149.626C379.32 149.511 379.747 149.27 380.076 148.932ZM405.322 171.873L433.95 197.886C433.754 198.179 433.602 198.509 433.531 198.874C433.451 199.319 433.505 199.746 433.647 200.147L398.797 215.539C397.541 212.824 395.049 210.75 391.916 210.189C391.061 210.037 390.224 210.02 389.396 210.1L386.993 196.301L405.33 171.873H405.322ZM255.532 372.763C256.778 372.985 257.971 372.246 258.362 371.08L363.163 391.609L228.141 409.823C228.007 409.449 227.785 409.111 227.491 408.844L254.766 372.496C254.997 372.62 255.256 372.727 255.532 372.78V372.763ZM224.749 412.974L210.818 492.917C209.616 492.748 208.441 492.855 207.346 493.202L128.824 297.351C129.394 296.986 129.821 296.399 129.955 295.678C129.972 295.562 129.972 295.446 129.981 295.33L247.182 284.265L225.586 408.176C224.465 408.265 223.494 409.084 223.289 410.241C223.085 411.408 223.717 412.52 224.749 412.983V412.974ZM106.329 247.65L74.1494 243.608C74.1494 242.584 73.5352 241.658 72.6005 241.276L82.6773 197.218C82.7396 197.227 82.8019 197.254 82.8731 197.263C84.6357 197.574 86.3716 197.36 87.9383 196.746L107.691 246.021C107.041 246.332 106.534 246.911 106.338 247.659L106.329 247.65ZM82.9622 196.702C82.9087 196.702 82.8553 196.675 82.793 196.666L83.8257 192.162C84.5823 192.286 85.3211 192.188 85.9977 191.939L87.7157 196.212C86.2469 196.791 84.6179 196.995 82.9622 196.693V196.702ZM-130.493 218.468L69.1111 243.51C69.0665 244.676 69.8321 245.718 70.9626 246.029L52.6428 326.141C52.6428 326.141 52.6428 326.141 52.6339 326.141C51.9484 326.017 51.2719 326.195 50.7378 326.569L13.5908 286.036C14.2495 285.369 14.7213 284.505 14.8904 283.508C15.3622 280.882 13.6086 278.371 10.9826 277.909C8.84616 277.526 6.81656 278.621 5.86404 280.446L-130.609 218.86C-130.564 218.735 -130.529 218.61 -130.502 218.477L-130.493 218.468ZM7.50201 286.695L-49.8877 386.152C-50.0746 386.072 -50.2616 386 -50.4663 385.965C-51.8105 385.724 -53.0923 386.606 -53.3771 387.932L-228.145 345.913C-228.128 345.842 -228.11 345.771 -228.092 345.691C-227.896 344.596 -227.905 343.501 -228.074 342.459L5.54361 284.069C5.87299 285.137 6.55841 286.081 7.50201 286.695ZM-228.653 345.584C-228.662 345.646 -228.679 345.709 -228.697 345.771L-233.13 344.703C-233.077 344.364 -233.068 344.035 -233.086 343.706L-228.617 342.593C-228.466 343.563 -228.457 344.569 -228.644 345.584H-228.653ZM-233.157 343.18C-233.344 342.21 -233.851 341.346 -234.572 340.714L-231.644 337.162C-230.175 338.426 -229.133 340.154 -228.715 342.076L-233.157 343.18ZM-234.991 347.649L-232.169 351.264C-232.712 351.664 -233.291 352.011 -233.914 352.279L-235.623 348.005C-235.4 347.907 -235.196 347.783 -234.991 347.649ZM-234.581 347.311C-233.958 346.768 -233.495 346.056 -233.255 345.219L-228.804 346.287C-229.294 348.166 -230.344 349.768 -231.742 350.934L-234.572 347.311H-234.581ZM-228.252 346.412L-53.4216 388.449C-53.4216 389.65 -52.5671 390.71 -51.3387 390.932C-51.3387 390.932 -51.3208 390.932 -51.3119 390.932L-57.828 496.291L-111.719 501.143C-111.924 500.164 -112.698 499.362 -113.749 499.175C-114.434 499.051 -115.111 499.22 -115.636 499.594L-231.395 351.388C-229.899 350.142 -228.768 348.433 -228.252 346.421V346.412ZM-174.023 620.407C-173.551 620.496 -173.097 620.621 -172.661 620.772L-174.37 625.081C-174.521 625.036 -174.664 624.974 -174.824 624.947C-176.533 624.645 -178.189 625.41 -179.132 626.763L-182.96 624.262C-181.046 621.395 -177.583 619.766 -174.023 620.398V620.407ZM-179.399 627.226C-179.613 627.618 -179.782 628.045 -179.862 628.508C-180.014 629.381 -179.898 630.226 -179.586 630.983L-183.592 633.226C-184.384 631.571 -184.696 629.666 -184.349 627.707C-184.153 626.621 -183.761 625.615 -183.236 624.707L-179.399 627.217V627.226ZM-179.346 631.455C-178.732 632.532 -177.681 633.36 -176.373 633.591C-174.931 633.85 -173.524 633.342 -172.554 632.363L-169.056 635.31C-171.049 637.517 -174.076 638.684 -177.183 638.132C-179.898 637.651 -182.105 635.951 -183.361 633.698L-179.346 631.455ZM-177.29 638.693C-173.969 639.28 -170.747 638.034 -168.628 635.683L-154.332 647.737C-154.563 648.049 -154.741 648.405 -154.813 648.814C-154.893 649.26 -154.839 649.696 -154.697 650.096L-376.004 741.63C-376.004 741.63 -376.004 741.612 -376.012 741.603L-183.85 633.974C-182.515 636.378 -180.165 638.176 -177.281 638.693H-177.29ZM-375.781 742.102L-154.474 650.568C-154.109 651.165 -153.513 651.61 -152.774 651.743C-151.902 651.895 -151.056 651.583 -150.495 650.978L-73.3794 716.009C-73.5485 716.276 -73.6642 716.579 -73.7266 716.908C-73.8868 717.825 -73.5307 718.706 -72.8631 719.267L-219.493 972.137C-219.911 971.924 -220.347 971.755 -220.828 971.666C-222.03 971.452 -223.196 971.719 -224.166 972.307L-377.232 747.603C-376.369 746.9 -375.728 745.912 -375.514 744.728C-375.354 743.811 -375.469 742.921 -375.79 742.111L-375.781 742.102ZM-219.021 972.378L-72.418 719.561C-72.1866 719.686 -71.9462 719.784 -71.6703 719.837C-70.7178 720.006 -69.8009 719.606 -69.249 718.893L-30.7934 741.487C-30.9892 741.888 -31.1494 742.307 -31.2385 742.76C-31.5233 744.354 -30.9803 745.894 -29.9388 746.971L-218.79 972.556C-218.87 972.494 -218.941 972.422 -219.021 972.369V972.378ZM-21.7225 744.461C-21.5356 743.401 -21.7225 742.36 -22.1676 741.47L253.288 596.691C253.609 597.261 254.009 597.777 254.455 598.249L34.7235 834.339C34.3675 834.08 33.958 833.885 33.4951 833.796C32.9966 833.707 32.5159 833.76 32.0708 833.911L-23.8055 747.621C-22.7551 746.918 -21.9717 745.805 -21.7314 744.461H-21.7225ZM288.655 646.633C289.376 646.295 289.928 645.636 290.079 644.791C290.231 643.954 289.946 643.135 289.385 642.574L389.646 518.992C390.01 519.268 390.393 519.517 390.812 519.731L339.662 628.277C338.995 627.983 338.291 627.752 337.544 627.618C332.416 626.701 327.485 630.191 326.559 635.381C325.802 639.609 327.93 643.687 331.517 645.556L311.185 688.706L288.664 646.642L288.655 646.633ZM331.989 645.77C332.674 646.081 333.404 646.322 334.179 646.455C338.745 647.274 343.152 644.595 344.718 640.331L404.974 661.927L421.656 892.008C421.158 892.07 420.677 892.195 420.223 892.408L311.488 689.275L331.989 645.77ZM423.116 892.026C422.805 891.972 422.493 891.945 422.182 891.954L405.517 662.123L493.956 693.824C493.885 694.047 493.805 694.261 493.769 694.492C493.226 697.537 495.256 700.448 498.3 700.991C501.345 701.534 504.256 699.504 504.799 696.46C505.235 694.011 503.997 691.679 501.914 690.566L526.341 636.681C526.457 636.716 526.581 636.761 526.706 636.787C527.516 636.93 528.299 636.672 528.86 636.146L657.882 754.271C657.66 754.574 657.49 754.921 657.419 755.322C657.33 755.82 657.401 756.31 657.58 756.746L426.267 894.109C425.564 893.058 424.451 892.275 423.107 892.043L423.116 892.026ZM661.87 754.191C661.496 753.728 660.98 753.39 660.348 753.274C659.627 753.149 658.924 753.345 658.39 753.755L541.358 628.677C541.51 628.499 541.634 628.303 541.732 628.09L746.802 695.908C746.695 696.255 746.606 696.611 746.544 696.976C746.143 699.228 746.562 701.436 747.576 703.297L661.87 754.2V754.191ZM747.104 697.074C747.167 696.736 747.247 696.406 747.345 696.086L751.689 697.519C751.653 697.635 751.609 697.75 751.591 697.866C751.413 698.854 751.591 699.825 752.027 700.653L748.075 702.994C747.122 701.249 746.731 699.175 747.113 697.065L747.104 697.074ZM752.276 701.115C752.908 702.05 753.897 702.736 755.081 702.949C756.62 703.225 758.107 702.629 759.077 701.525L762.638 704.392C760.653 706.777 757.511 708.068 754.27 707.49C751.716 707.035 749.624 705.504 748.342 703.448L752.276 701.115ZM757.457 694.555L758.81 690.139C760.769 690.824 762.371 692.178 763.413 693.887L759.478 696.228C758.997 695.489 758.303 694.884 757.457 694.555ZM756.95 694.403C756.843 694.376 756.736 694.332 756.62 694.314C754.564 693.949 752.579 695.115 751.831 697.012L747.514 695.578C748.965 691.537 753.122 688.991 757.431 689.765C757.733 689.818 758.027 689.881 758.312 689.97L756.95 694.403ZM757.537 689.204C752.944 688.385 748.52 691.091 746.98 695.4L541.901 627.582C541.901 627.582 541.919 627.529 541.928 627.493C542.168 626.122 541.26 624.805 539.881 624.565C539.168 624.44 538.483 624.627 537.94 625.019L466.174 548.316C467.554 546.963 468.542 545.192 468.907 543.144C469.112 541.987 469.094 540.838 468.898 539.743L687.908 494.27C688.816 497.751 691.638 500.555 695.367 501.223C697.904 501.677 700.397 501.045 702.382 499.674L781.207 609.395C780.771 609.76 780.451 610.267 780.344 610.873C780.139 612.021 780.753 613.116 781.759 613.597L758.481 689.436C758.169 689.347 757.858 689.275 757.537 689.213V689.204ZM709.61 155.19C709.557 155.342 709.512 155.493 709.477 155.653C709.334 156.463 709.601 157.256 710.127 157.816L633.705 215.405C633.376 215.129 632.984 214.925 632.53 214.845C632.005 214.756 631.497 214.827 631.043 215.032L517.688 34.653C518.454 34.1277 519.13 33.4778 519.682 32.7122L709.61 155.199V155.19ZM458.946 -51.5837C459.302 -49.6608 460.797 -48.0584 462.836 -47.6934C463.886 -47.5065 464.919 -47.6934 465.809 -48.1296L508.698 21.6556C507.06 22.8129 505.867 24.5844 505.484 26.7121C505.377 27.3264 505.342 27.9317 505.377 28.5282L399.607 39.0329C399.295 37.0477 397.791 35.3829 395.699 35.0179C394.604 34.8221 393.536 35.0269 392.619 35.5076L347.487 -40.0107C348.733 -40.6873 349.677 -41.8891 349.944 -43.3936C349.979 -43.5716 349.97 -43.7497 349.988 -43.9277L458.937 -51.5837H458.946ZM343.757 -39.6546C343.953 -39.5923 344.14 -39.5211 344.344 -39.4855C344.701 -39.4232 345.057 -39.4054 345.395 -39.4232L365.121 73.7697C364.356 73.9922 363.733 74.5531 363.448 75.3276L317.078 66.6745C317.808 62.1789 315.289 57.8791 311.239 56.2945L343.757 -39.6546ZM299.132 63.6211C299.996 58.7604 304.598 55.5022 309.396 56.3568C309.797 56.428 310.188 56.5348 310.571 56.6595L309.094 61.0216C308.924 60.9682 308.764 60.9059 308.595 60.8792C306.254 60.4607 304.02 62.0453 303.592 64.4223C303.209 66.5677 304.447 68.6063 306.423 69.2918L305.212 73.743C301.011 72.4432 298.34 68.1345 299.141 63.6389L299.132 63.6211ZM305.568 74.4107C305.764 74.4552 305.951 74.5086 306.156 74.5442C309.04 75.0605 311.862 74.1703 313.936 72.3631L362.317 128.652L277.385 187.933C276.816 187.203 276.032 186.642 275.107 186.331L305.56 74.4018L305.568 74.4107ZM276.371 194.859C277.377 194.156 278.124 193.061 278.356 191.752C278.507 190.897 278.4 190.061 278.133 189.295L376.079 148.362C376.435 149.012 377.058 149.502 377.842 149.644C378.011 149.68 378.18 149.689 378.349 149.68L386.45 196.159L329.71 271.766C329.087 271.348 328.375 271.054 327.591 270.911C326.327 270.689 325.09 270.92 324.031 271.481L276.362 194.859H276.371ZM321.102 277.268C321.307 278.612 321.992 279.823 323.016 280.686L257.383 368.142C257.107 367.964 256.796 367.831 256.449 367.768C255.078 367.519 253.769 368.436 253.52 369.807C253.36 370.715 253.716 371.596 254.365 372.157L227.099 408.488C226.85 408.336 226.565 408.221 226.254 408.167C226.218 408.167 226.182 408.167 226.156 408.167L247.76 284.194L321.111 277.268H321.102ZM129.972 294.796C129.883 294.262 129.625 293.773 129.242 293.399L160.79 255.003L248.286 265.98C248.473 266.879 249.149 267.617 250.066 267.885L247.306 283.713L129.981 294.796H129.972ZM168.401 247.196C169.603 247.409 170.76 246.733 171.196 245.638L248.232 265.392C248.232 265.392 248.232 265.428 248.232 265.445L161.182 254.522L167.493 246.84C167.76 247.009 168.072 247.133 168.401 247.196ZM182.858 220.711C187.682 221.575 190.896 226.248 190.024 231.136C189.151 236.023 184.522 239.299 179.698 238.445C178.238 238.186 176.92 237.563 175.825 236.7L178.754 233.13C179.261 233.504 179.849 233.771 180.508 233.896C182.858 234.314 185.11 232.72 185.537 230.335C185.964 227.949 184.398 225.679 182.048 225.26C180.89 225.056 179.76 225.34 178.852 225.964L176.19 222.225C178.06 220.889 180.436 220.284 182.858 220.711ZM178.344 232.801L175.416 236.353C173.155 234.35 171.953 231.234 172.523 228.011C172.923 225.768 174.125 223.863 175.772 222.545L178.442 226.293C177.721 226.934 177.196 227.789 177.009 228.812C176.733 230.344 177.294 231.821 178.336 232.801H178.344ZM148.746 190.248C148.613 192.153 149.912 193.889 151.835 194.227C153.001 194.432 154.132 194.067 154.969 193.346L175.443 222.082C173.68 223.489 172.398 225.51 171.971 227.913C171.357 231.341 172.647 234.661 175.06 236.789L170.271 242.62C169.986 242.424 169.656 242.282 169.291 242.21C167.921 241.961 166.603 242.878 166.363 244.249C166.211 245.104 166.505 245.931 167.084 246.492L160.568 254.424L111.305 248.246C111.288 247.053 110.442 246.003 109.222 245.789C108.875 245.727 108.528 245.745 108.199 245.816L88.4367 196.515C91.1874 195.251 93.306 192.687 93.8757 189.464C93.9558 189.028 93.9915 188.601 94.0092 188.173L148.746 190.221V190.248ZM86.1401 178.968C90.3862 179.725 93.3861 183.446 93.4485 187.657L88.864 187.488C88.7216 185.547 87.3151 183.873 85.33 183.517C84.2885 183.33 83.2737 183.553 82.4281 184.052L79.802 180.268C81.6269 179.093 83.8612 178.559 86.1401 178.968ZM-112.316 143.27C-112.244 143.288 -112.182 143.315 -112.12 143.323C-109.494 143.795 -106.984 142.042 -106.512 139.415C-106.36 138.587 -106.458 137.786 -106.708 137.038L12.211 89.8562C12.3178 90.0787 12.4424 90.2835 12.5938 90.4793L-131.33 215.575C-131.632 215.281 -131.997 215.049 -132.407 214.898L-112.307 143.261L-112.316 143.27ZM-135.273 220.373C-134.917 220.622 -134.508 220.8 -134.054 220.88C-132.71 221.121 -131.428 220.453 -130.805 219.322L5.65042 280.9C5.54361 281.185 5.45456 281.487 5.40115 281.799C5.29434 282.395 5.32104 282.992 5.42789 283.562L-228.145 341.934C-228.59 339.886 -229.703 338.061 -231.261 336.717L-135.264 220.373H-135.273ZM-238.961 352.893C-243.786 352.029 -246.999 347.355 -246.127 342.468C-245.255 337.581 -240.626 334.305 -235.801 335.159C-234.386 335.409 -233.113 336.005 -232.035 336.824L-234.973 340.376C-235.454 340.056 -236.006 339.815 -236.62 339.708C-238.979 339.29 -241.231 340.883 -241.649 343.269C-242.077 345.655 -240.51 347.925 -238.16 348.344C-237.448 348.468 -236.753 348.397 -236.112 348.192L-234.394 352.483C-235.81 353.008 -237.377 353.178 -238.97 352.893H-238.961ZM-233.682 352.813C-233.015 352.519 -232.383 352.154 -231.804 351.718L-116.028 499.941C-116.348 500.288 -116.58 500.724 -116.669 501.223C-116.686 501.348 -116.695 501.472 -116.695 501.597L-170.32 506.422C-170.524 505.443 -171.299 504.641 -172.349 504.455C-172.59 504.41 -172.83 504.419 -173.061 504.446L-233.691 352.822L-233.682 352.813ZM-173.23 509.422C-172.696 509.52 -172.171 509.431 -171.717 509.217L-150.771 561.616C-151.332 561.91 -151.777 562.409 -151.982 563.041L-336.996 522.304C-336.96 522.179 -336.916 522.063 -336.889 521.93L-175.26 507.392C-175.073 508.398 -174.299 509.235 -173.23 509.431V509.422ZM-337.717 523.675L-183.708 624.422C-184.277 625.383 -184.696 626.461 -184.901 627.627C-185.274 629.71 -184.936 631.749 -184.073 633.52L-376.262 741.158C-376.92 740.197 -377.926 739.493 -379.128 739.208L-340.183 525.019C-339.213 524.912 -338.331 524.422 -337.708 523.684L-337.717 523.675ZM-216.84 976.402C-216.84 975.048 -217.419 973.802 -218.371 972.912L-29.5382 747.336C-28.9151 747.853 -28.1763 748.235 -27.3217 748.387C-26.2268 748.583 -25.1675 748.378 -24.2506 747.897L31.599 834.143C30.8424 834.552 30.2727 835.282 30.1124 836.19C29.8276 837.784 30.8869 839.315 32.4892 839.6C33.326 839.751 34.1449 839.52 34.7769 839.039L129.963 986.043C127.969 987.449 126.51 989.622 126.047 992.212C126.002 992.461 125.975 992.702 125.958 992.942L-216.831 976.402H-216.84ZM144.091 995.426C143.218 1000.31 138.589 1003.59 133.764 1002.73C129.331 1001.94 126.269 997.936 126.474 993.494L131.032 993.717C130.943 995.871 132.42 997.803 134.575 998.186C136.925 998.604 139.186 997.01 139.604 994.625C139.916 992.889 139.159 991.215 137.815 990.271L140.2 986.31C143.094 988.215 144.731 991.758 144.082 995.426H144.091ZM140.049 985.562C139.577 985.295 139.088 985.055 138.563 984.868L188.724 822.944C188.724 822.944 188.76 822.953 188.777 822.961C190.148 823.211 191.466 822.294 191.706 820.923C191.733 820.745 191.751 820.567 191.742 820.389L241.102 815.065C241.244 815.644 241.591 816.142 242.072 816.498L140.04 985.562H140.049ZM245.927 815.332C245.971 815.199 246.016 815.056 246.042 814.914C246.265 813.667 245.526 812.483 244.36 812.083L276.166 660.806C276.415 660.824 276.656 660.806 276.887 660.761L293.088 723.478C292.278 723.781 291.637 724.484 291.468 725.392C291.228 726.763 292.136 728.081 293.515 728.321C294.886 728.561 296.195 727.653 296.444 726.282C296.631 725.232 296.133 724.217 295.278 723.692L311.203 689.89L419.76 892.684C419.021 893.129 418.425 893.77 418.007 894.554L245.909 815.332H245.927ZM794.738 730.271C794.515 730.573 794.346 730.92 794.275 731.321C794.204 731.731 794.239 732.122 794.355 732.496L426.561 894.625C426.561 894.625 426.543 894.598 426.534 894.581L657.829 757.227C658.203 757.761 658.772 758.153 659.458 758.268C660.829 758.518 662.146 757.601 662.386 756.23C662.484 755.669 662.386 755.135 662.155 754.663L747.852 703.768C749.223 705.967 751.449 707.596 754.172 708.086C757.618 708.7 760.974 707.32 763.083 704.783L794.738 730.288V730.271ZM764.605 700.207C764.347 701.632 763.778 702.905 762.968 704L759.407 701.133C759.754 700.635 760.003 700.056 760.119 699.415C760.288 698.463 760.119 697.528 759.736 696.718L763.68 694.376C764.597 696.103 764.97 698.142 764.605 700.216V700.207ZM758.979 689.614L782.266 613.775C782.266 613.775 782.347 613.802 782.391 613.81C783.023 613.917 783.629 613.784 784.136 613.472L815.764 657.494C814.918 658.197 814.304 659.177 814.09 660.334C813.885 661.465 814.117 662.56 814.624 663.485L763.911 693.602C762.798 691.777 761.089 690.335 758.988 689.605L758.979 689.614Z" fill="#2F2F2F"/>
</svg>
