<svg width="97" height="96" viewBox="0 0 97 96" fill="none" xmlns="http://www.w3.org/2000/svg">
<path d="M48.6384 95.8188C75.0215 95.8188 96.4091 74.4547 96.4091 48.1008C96.4091 21.7469 75.0215 0.382812 48.6384 0.382812C22.2554 0.382812 0.867676 21.7469 0.867676 48.1008C0.867676 74.4547 22.2554 95.8188 48.6384 95.8188Z" fill="#3B3B3B"/>
<path d="M28.8189 39.4876L38.938 67.1426C33.9835 64.7444 30.1578 60.5183 28.2695 55.3577C26.3812 50.197 26.5782 44.506 28.8189 39.4876ZM62.5121 47.0336C62.4837 44.9639 61.878 42.9431 60.7629 41.1976C59.6894 39.4526 58.68 37.9786 58.68 36.2336C58.665 35.731 58.7547 35.2308 58.9433 34.7645C59.132 34.2983 59.4155 33.8761 59.776 33.5247C60.1365 33.1733 60.5662 32.9004 61.0378 32.7231C61.5094 32.5458 62.0128 32.468 62.5161 32.4946C60.2513 30.426 57.5632 28.8727 54.6376 27.942C51.7121 27.0114 48.6189 26.7256 45.5718 27.1045C42.5247 27.4833 39.5964 28.5177 36.9893 30.1362C34.3822 31.7547 32.1584 33.9187 30.4718 36.4786C32.8135 36.5376 35.1566 36.4564 37.4885 36.2356C37.6031 36.2267 37.7183 36.2403 37.8276 36.2758C37.9369 36.3113 38.0381 36.368 38.1255 36.4425C38.2128 36.517 38.2846 36.6079 38.3368 36.7101C38.3889 36.8123 38.4203 36.9238 38.4293 37.0381C38.4382 37.1524 38.4245 37.2674 38.3889 37.3764C38.3533 37.4854 38.2966 37.5864 38.2219 37.6735C38.1472 37.7607 38.056 37.8323 37.9536 37.8843C37.8511 37.9363 37.7394 37.9677 37.6248 37.9766C37.6248 37.9766 36.4751 38.1106 35.1981 38.1766L42.9225 61.0956L47.5655 47.2106L44.2576 38.1786C43.1139 38.1106 42.0323 37.9786 42.0323 37.9786C41.8007 37.9608 41.5855 37.852 41.4343 37.676C41.2831 37.5 41.2081 37.2712 41.2259 37.0401C41.2437 36.809 41.3529 36.5943 41.5293 36.4435C41.7057 36.2926 41.935 36.2178 42.1667 36.2356C45.905 36.5861 49.6681 36.5861 53.4064 36.2356C53.6316 36.229 53.8506 36.3092 54.018 36.4595C54.1855 36.6098 54.2885 36.8186 54.3056 37.0426C54.3228 37.2667 54.2528 37.4887 54.1102 37.6626C53.9675 37.8365 53.7633 37.949 53.5397 37.9766C53.5397 37.9766 52.388 38.1106 51.113 38.1766L58.7822 60.9226L60.8983 53.8696C61.8134 50.9446 62.5111 48.8416 62.5111 47.0306L62.5121 47.0336ZM48.5669 49.9506L42.2017 68.3996C46.4734 69.6529 51.0319 69.535 55.2328 68.0626C55.0553 67.7766 48.6782 50.2676 48.5629 49.9506H48.5669ZM66.8103 37.9506C67.1905 41.275 66.6836 44.6405 65.3408 47.7066L58.8524 66.3906C63.631 63.6175 67.1357 59.093 68.6204 53.7805C70.105 48.468 69.4524 42.7872 66.8013 37.9476L66.8103 37.9506ZM72.9249 48.1026C72.9245 52.981 71.4741 57.7497 68.7572 61.8058C66.0403 65.8619 62.1788 69.0232 57.661 70.89C53.1432 72.7569 48.1719 73.2453 43.3759 72.2937C38.5798 71.3421 34.1742 68.9932 30.7163 65.5439C27.2583 62.0945 24.9032 57.6998 23.9487 52.9152C22.9943 48.1307 23.4833 43.1712 25.3541 38.6639C27.2248 34.1567 30.3932 30.304 34.4586 27.593C38.5241 24.8821 43.304 23.4346 48.194 23.4336C54.7489 23.4426 61.0326 26.0443 65.6675 30.6684C70.3024 35.2924 72.9101 41.5614 72.9189 48.1006L72.9249 48.1026ZM71.7912 48.1026C71.7922 43.4476 70.4095 38.8969 67.818 35.0259C65.2265 31.1548 61.5425 28.1374 57.232 26.3551C52.9215 24.5728 48.178 24.1057 43.6013 25.0129C39.0247 25.92 34.8205 28.1607 31.5204 31.4516C28.2203 34.7425 25.9724 38.9357 25.0612 43.501C24.1499 48.0664 24.6161 52.7988 26.4008 57.0998C28.1855 61.4008 31.2086 65.0773 35.0878 67.6643C38.9669 70.2513 43.5279 71.6326 48.194 71.6336C54.4477 71.6254 60.4429 69.1434 64.865 64.7319C69.287 60.3204 71.775 54.3394 71.7832 48.1006L71.7912 48.1026Z" fill="white"/>
</svg>
