<svg width="1920" height="560" viewBox="0 0 1920 560" fill="none" xmlns="http://www.w3.org/2000/svg">
<rect y="17" width="1920" height="543" fill="url(#paint0_linear_0_1)"/>
<g opacity="0.05">
<path d="M1509.27 53.2095L1521.45 55.3398L1507.49 135.259L1495.3 133.129L1509.27 53.2095Z" fill="url(#paint1_linear_0_1)"/>
<path d="M1460.77 118.46L1544.92 133.168C1551.13 134.253 1555.28 140.163 1554.2 146.369L1548.95 176.422C1547.86 182.628 1541.95 186.779 1535.74 185.693L1451.59 170.985C1445.38 169.9 1441.22 163.99 1442.31 157.784L1447.56 127.731C1448.65 121.525 1454.56 117.375 1460.77 118.46Z" fill="url(#paint2_linear_0_1)"/>
<path d="M1532.75 156.915L1464.19 144.933C1377.8 129.834 1295.43 187.654 1280.34 273.987L1272.36 319.651C1263.88 368.175 1296.43 414.441 1344.96 422.923L1550.59 458.865C1599.15 467.351 1645.44 434.838 1653.91 386.339L1661.89 340.674C1676.98 254.341 1619.11 172.01 1532.72 156.911L1532.75 156.915Z" fill="url(#paint3_linear_0_1)"/>
<path d="M1333.84 321.816C1338.41 325.15 1343.78 327.421 1349.45 328.413L1578.42 368.432C1584.12 369.428 1589.94 369.113 1595.34 367.522C1608.67 363.6 1617.72 352.578 1618.2 339.725L1618.23 338.783C1619.79 295.249 1586.98 255.826 1540.19 245.138C1520.4 240.603 1499.52 236.416 1477.61 232.715C1460.45 229.819 1443.8 227.42 1427.71 225.454C1379.88 219.603 1335.38 245.386 1322.03 287.012C1321.93 287.302 1321.85 287.62 1321.74 287.91C1317.81 300.159 1322.61 313.602 1333.81 321.811L1333.84 321.816Z" fill="url(#paint4_linear_0_1)"/>
<path style="mix-blend-mode:screen" d="M1525.93 349.626C1502.08 345.458 1486.12 322.758 1490.29 298.924C1494.45 275.091 1517.16 259.149 1541.01 263.318C1564.86 267.486 1580.82 290.186 1576.65 314.019C1572.49 337.853 1549.78 353.794 1525.93 349.626Z" fill="url(#paint5_radial_0_1)"/>
<path d="M1528.06 337.444C1510.94 334.452 1499.49 318.16 1502.48 301.053C1505.47 283.947 1521.77 272.505 1538.89 275.497C1556 278.489 1567.46 294.781 1564.47 311.888C1561.48 328.994 1545.18 340.436 1528.06 337.444Z" fill="#EEFDFF"/>
<path d="M1528.93 332.476C1514.56 329.964 1504.94 316.287 1507.45 301.926C1509.96 287.566 1523.65 277.96 1538.02 280.472C1552.39 282.984 1562 296.661 1559.49 311.021C1556.98 325.382 1543.3 334.987 1528.93 332.476Z" fill="url(#paint6_linear_0_1)"/>
<path d="M1517.96 296.818C1517.03 302.138 1520.6 307.22 1525.92 308.15C1531.25 309.08 1536.33 305.512 1537.26 300.192C1538.19 294.872 1534.62 289.79 1529.29 288.86C1523.97 287.93 1518.89 291.498 1517.96 296.818Z" fill="#EEFDFF"/>
<path d="M1533.17 330.936C1531.04 330.564 1529.61 328.537 1529.99 326.408C1530.36 324.28 1532.39 322.856 1534.52 323.228C1536.64 323.601 1538.07 325.628 1537.7 327.756C1537.33 329.884 1535.3 331.308 1533.17 330.936Z" fill="#EEFDFF"/>
<path d="M1544.38 322.981C1544.19 324.05 1544.91 325.047 1545.96 325.23C1547 325.412 1548.02 324.694 1548.21 323.65C1548.39 322.606 1547.67 321.584 1546.63 321.402C1545.58 321.219 1544.56 321.937 1544.38 322.981Z" fill="#EEFDFF"/>
<path style="mix-blend-mode:screen" d="M1409.29 329.239C1385.44 325.071 1369.49 302.371 1373.65 278.538C1377.82 254.704 1400.53 238.763 1424.38 242.931C1448.22 247.099 1464.18 269.799 1460.02 293.633C1455.85 317.466 1433.14 333.408 1409.29 329.239Z" fill="url(#paint7_radial_0_1)"/>
<path d="M1411.42 317.057C1394.3 314.065 1382.85 297.773 1385.84 280.667C1388.83 263.56 1405.13 252.118 1422.25 255.11C1439.36 258.102 1450.82 274.395 1447.83 291.501C1444.84 308.607 1428.54 320.049 1411.42 317.057Z" fill="#EEFDFF"/>
<path d="M1412.29 312.089C1397.92 309.577 1388.3 295.9 1390.81 281.539C1393.32 267.179 1407.01 257.574 1421.38 260.085C1435.75 262.597 1445.36 276.274 1442.85 290.635C1440.34 304.995 1426.66 314.6 1412.29 312.089Z" fill="url(#paint8_linear_0_1)"/>
<path d="M1401.32 276.431C1400.39 281.751 1403.96 286.833 1409.28 287.763C1414.61 288.694 1419.69 285.125 1420.62 279.805C1421.55 274.485 1417.98 269.404 1412.66 268.473C1407.33 267.543 1402.25 271.112 1401.32 276.431Z" fill="#EEFDFF"/>
<path d="M1416.51 310.545C1414.38 310.173 1412.95 308.146 1413.32 306.018C1413.7 303.889 1415.72 302.466 1417.85 302.838C1419.98 303.21 1421.41 305.237 1421.03 307.365C1420.66 309.494 1418.63 310.918 1416.51 310.545Z" fill="#EEFDFF"/>
<path d="M1427.74 302.594C1427.55 303.663 1428.27 304.66 1429.32 304.843C1430.36 305.026 1431.39 304.308 1431.57 303.264C1431.75 302.22 1431.03 301.197 1429.99 301.015C1428.94 300.832 1427.92 301.55 1427.74 302.594Z" fill="#EEFDFF"/>
<path d="M1500.67 46.2266C1499.16 54.8525 1504.93 63.0593 1513.56 64.5679C1522.19 66.0766 1530.4 60.313 1531.91 51.6872C1533.42 43.0614 1527.65 34.8545 1519.02 33.3459C1510.39 31.8373 1502.18 37.6008 1500.67 46.2266Z" fill="url(#paint9_linear_0_1)"/>
<path d="M1506.49 40.967C1506.02 43.602 1507.79 46.0889 1510.41 46.5454C1513.02 47.0019 1515.53 45.2379 1515.99 42.6278C1516.44 40.0177 1514.68 37.506 1512.07 37.0495C1509.45 36.593 1506.94 38.3569 1506.49 40.967Z" fill="white"/>
<path d="M1355.28 177.468C1353.8 184.716 1358.23 194.456 1364.91 196.393C1371.18 198.206 1377.42 192.585 1383.85 186.765C1390.18 181.032 1404.5 165.987 1400.84 160.378C1396.01 152.975 1358.75 160.348 1355.28 177.443L1355.28 177.468Z" fill="white"/>
<path d="M1418.51 159.904C1415.51 159.381 1413.51 156.53 1414.03 153.537C1414.56 150.544 1417.41 148.542 1420.4 149.066C1423.4 149.589 1425.4 152.44 1424.88 155.433C1424.35 158.426 1421.5 160.428 1418.51 159.904Z" fill="white"/>
<path d="M1338.38 278.652C1339.91 280.174 1356.37 257.587 1392.7 241.879C1405.46 236.347 1417.71 232.956 1417.31 231.272C1416.92 229.564 1403.67 230.296 1392.64 233.237C1357.52 242.623 1336.57 276.849 1338.41 278.656L1338.38 278.652Z" fill="white"/>
<path d="M1449.89 132.575C1450.28 132.694 1450.93 130.475 1453.44 127.276C1453.44 127.276 1454.62 125.792 1455.88 124.578C1459.95 120.652 1471 122.686 1471.87 122.839C1489.11 126.005 1500.42 126.855 1500.4 126.954C1500.39 127.053 1492.31 125.462 1486.41 124.303C1469.73 121.029 1459.91 118.391 1454.85 122.118C1452.76 123.673 1451.44 125.928 1451.44 125.928C1449.65 128.996 1449.49 132.426 1449.92 132.554L1449.89 132.575Z" fill="white"/>
<path d="M1414.07 358.816C1413.77 363.017 1416.65 366.798 1420.73 367.922L1476.95 383.436C1481.01 384.555 1485.45 382.794 1487.34 379.026C1488.19 377.356 1488.91 375.611 1489.51 373.77C1489.68 373.261 1489.64 372.717 1489.39 372.238C1489.14 371.759 1488.72 371.428 1488.2 371.287L1417.26 351.714C1416.74 351.573 1416.22 351.66 1415.76 351.914C1415.3 352.192 1415 352.625 1414.88 353.143C1414.47 355.019 1414.19 356.917 1414.05 358.787L1414.07 358.816Z" fill="#EEFDFF"/>
<path d="M1414.07 358.818C1412.79 376.86 1424.34 393.892 1442.47 398.878C1460.32 403.817 1478.7 395.426 1486.99 379.685C1484.93 382.987 1480.79 384.518 1476.95 383.438L1420.7 367.945C1416.65 366.801 1413.77 363.044 1414.06 358.843L1414.07 358.818Z" fill="url(#paint10_linear_0_1)"/>
</g>
<defs>
<linearGradient id="paint0_linear_0_1" x1="960" y1="17" x2="960" y2="560" gradientUnits="userSpaceOnUse">
<stop stop-color="#1E1E1E"/>
<stop offset="1" stop-color="#181818"/>
</linearGradient>
<linearGradient id="paint1_linear_0_1" x1="1532.57" y1="102.19" x2="1496.96" y2="90.4774" gradientUnits="userSpaceOnUse">
<stop offset="0.04" stop-color="#36E4D4"/>
<stop offset="1" stop-color="#E9CEC1"/>
</linearGradient>
<linearGradient id="paint2_linear_0_1" x1="1525.68" y1="196.591" x2="1473.66" y2="112.011" gradientUnits="userSpaceOnUse">
<stop offset="0.04" stop-color="#31E4D4"/>
<stop offset="1" stop-color="#E7CFC1"/>
</linearGradient>
<linearGradient id="paint3_linear_0_1" x1="1575.35" y1="466.547" x2="1363.37" y2="164.567" gradientUnits="userSpaceOnUse">
<stop offset="0.04" stop-color="#31E4D4"/>
<stop offset="1" stop-color="#FFCCBF"/>
</linearGradient>
<linearGradient id="paint4_linear_0_1" x1="1464.68" y1="348.194" x2="1480.36" y2="245.03" gradientUnits="userSpaceOnUse">
<stop stop-color="#030D14"/>
<stop offset="1" stop-color="#0B2F45"/>
</linearGradient>
<radialGradient id="paint5_radial_0_1" cx="0" cy="0" r="1" gradientUnits="userSpaceOnUse" gradientTransform="translate(1533.47 306.472) rotate(-170.086) scale(43.3821 43.354)">
<stop offset="0.13" stop-color="#3280FC"/>
<stop offset="1"/>
</radialGradient>
<linearGradient id="paint6_linear_0_1" x1="1559.49" y1="311.021" x2="1507.43" y2="301.922" gradientUnits="userSpaceOnUse">
<stop stop-color="#030D14"/>
<stop offset="1" stop-color="#0B2F45"/>
</linearGradient>
<radialGradient id="paint7_radial_0_1" cx="0" cy="0" r="1" gradientUnits="userSpaceOnUse" gradientTransform="translate(1462.51 24.7495) rotate(-170.086) scale(43.3821 43.354)">
<stop offset="0.13" stop-color="#3280FC"/>
<stop offset="1"/>
</radialGradient>
<linearGradient id="paint8_linear_0_1" x1="1442.85" y1="290.635" x2="1390.79" y2="281.535" gradientUnits="userSpaceOnUse">
<stop stop-color="#030D14"/>
<stop offset="1" stop-color="#0B2F45"/>
</linearGradient>
<linearGradient id="paint9_linear_0_1" x1="1512.53" y1="67.0745" x2="1501.23" y2="43.9501" gradientUnits="userSpaceOnUse">
<stop stop-color="#6DDDCE"/>
<stop offset="1" stop-color="#FFCCBF"/>
</linearGradient>
<linearGradient id="paint10_linear_0_1" x1="1458.6" y1="388.249" x2="1397.21" y2="300.821" gradientUnits="userSpaceOnUse">
<stop offset="0.07" stop-color="#0DA9AB"/>
<stop offset="1" stop-color="#DEFA8E"/>
</linearGradient>
</defs>
</svg>
