<svg xmlns="http://www.w3.org/2000/svg" width="23.614" height="31.152" viewBox="0 0 23.614 31.152">
  <g id="d-binary-converter-tools" transform="translate(0.5 0.5)">
    <g id="Group_1506" data-name="Group 1506" transform="translate(0)">
      <path id="Path_1364" data-name="Path 1364" d="M143.335,320.652H125.029a2.153,2.153,0,0,1-2.154-2.154V292.654a2.153,2.153,0,0,1,2.154-2.154h12.659a2.15,2.15,0,0,1,1.522.631l5.649,5.649a2.15,2.15,0,0,1,.631,1.522v20.2A2.153,2.153,0,0,1,143.335,320.652Z" transform="translate(-122.875 -290.5)" fill="#2f3133" stroke="#fff" stroke-miterlimit="10" stroke-width="1"/>
      <path id="Path_1365" data-name="Path 1365" d="M139.49,293.885v5.391h5.391" transform="translate(-125.187 -290.965)" fill="none" stroke="#fff" stroke-linecap="round" stroke-linejoin="round" stroke-width="1"/>
    </g>
    <g id="Group_1509" data-name="Group 1509" transform="translate(4.009 14.206)">
      <g id="Group_1507" data-name="Group 1507" transform="translate(0 0)">
        <path id="Path_1366" data-name="Path 1366" d="M128.542,307.874l-.487.149a.636.636,0,0,1-.149.02.361.361,0,0,1-.088-.712l.718-.23a1.44,1.44,0,0,1,.406-.074h.013a.407.407,0,0,1,.414.413v4.012a.411.411,0,0,1-.414.413.415.415,0,0,1-.413-.413Z" transform="translate(-127.539 -307.006)" fill="#fff"/>
        <path id="Path_1367" data-name="Path 1367" d="M131.655,307.874l-.488.149a.635.635,0,0,1-.148.02.361.361,0,0,1-.089-.712l.718-.23a1.445,1.445,0,0,1,.407-.074h.013a.406.406,0,0,1,.413.413v4.012a.41.41,0,0,1-.413.413.415.415,0,0,1-.413-.413Z" transform="translate(-127.967 -307.006)" fill="#fff"/>
        <path id="Path_1368" data-name="Path 1368" d="M133.977,309.47v-.014a2.1,2.1,0,1,1,4.133-.014v.014a2.1,2.1,0,1,1-4.133.014Zm3.273,0v-.014c0-.935-.481-1.7-1.213-1.7s-1.2.746-1.2,1.687v.014c0,.935.474,1.7,1.213,1.7S137.25,310.4,137.25,309.47Z" transform="translate(-128.424 -307.003)" fill="#fff"/>
        <path id="Path_1369" data-name="Path 1369" d="M139.668,309.47v-.014a2.1,2.1,0,1,1,4.134-.014v.014a2.221,2.221,0,0,1-2.074,2.453A2.2,2.2,0,0,1,139.668,309.47Zm3.273,0v-.014c0-.935-.481-1.7-1.213-1.7s-1.2.746-1.2,1.687v.014c0,.935.474,1.7,1.213,1.7S142.941,310.4,142.941,309.47Z" transform="translate(-129.206 -307.003)" fill="#fff"/>
      </g>
      <g id="Group_1508" data-name="Group 1508" transform="translate(0.258 6.441)">
        <path id="Path_1370" data-name="Path 1370" d="M127.838,316.937v-.013a2.1,2.1,0,1,1,4.133-.014v.014a2.1,2.1,0,1,1-4.133.013Zm3.272,0v-.013c0-.935-.48-1.7-1.213-1.7s-1.2.745-1.2,1.687v.014c0,.935.474,1.7,1.213,1.7S131.11,317.866,131.11,316.937Z" transform="translate(-127.838 -314.471)" fill="#fff"/>
        <path id="Path_1371" data-name="Path 1371" d="M134.28,315.342l-.488.148a.594.594,0,0,1-.148.021.361.361,0,0,1-.089-.712l.719-.23a1.444,1.444,0,0,1,.407-.074h.013a.406.406,0,0,1,.413.413v4.011a.41.41,0,0,1-.413.413.414.414,0,0,1-.413-.413Z" transform="translate(-128.586 -314.474)" fill="#fff"/>
        <path id="Path_1372" data-name="Path 1372" d="M136.6,316.937v-.013a2.1,2.1,0,1,1,4.133-.014v.014a2.1,2.1,0,1,1-4.133.013Zm3.272,0v-.013c0-.935-.48-1.7-1.213-1.7s-1.2.745-1.2,1.687v.014c0,.935.474,1.7,1.213,1.7S139.874,317.866,139.874,316.937Z" transform="translate(-129.043 -314.471)" fill="#fff"/>
        <path id="Path_1373" data-name="Path 1373" d="M143.044,315.342l-.488.148a.594.594,0,0,1-.148.021.361.361,0,0,1-.089-.712l.719-.23a1.445,1.445,0,0,1,.407-.074h.013a.406.406,0,0,1,.413.413v4.011a.41.41,0,0,1-.413.413.414.414,0,0,1-.413-.413Z" transform="translate(-129.79 -314.474)" fill="#fff"/>
      </g>
    </g>
  </g>
</svg>
