<svg xmlns="http://www.w3.org/2000/svg" width="16" height="16.015" viewBox="0 0 16 16.015">
  <g id="Group_3324" data-name="Group 3324" transform="translate(-1259.833 -129.973)">
    <path id="Path_1682" data-name="Path 1682" d="M1275.626,144.867l-3.5-3.618a6.882,6.882,0,1,0-5.4,2.628,6.834,6.834,0,0,0,4.51-1.7l3.516,3.632.012.012a.632.632,0,0,0,.425.164h.037a.634.634,0,0,0,.441-.215A.65.65,0,0,0,1275.626,144.867Zm-8.9-13.6a5.661,5.661,0,1,1-5.615,5.661A5.644,5.644,0,0,1,1266.728,131.264Z" transform="translate(0 0)" fill="#fff"/>
    <path id="Path_1683" data-name="Path 1683" d="M1372.176,239.656h2.292v2.292a.51.51,0,0,0,1.021,0v-2.292h2.292a.51.51,0,1,0,0-1.021h-2.292v-2.292a.51.51,0,0,0-1.021,0v2.292h-2.292a.51.51,0,0,0,0,1.021Z" transform="translate(-108.229 -102.402)" fill="#fff"/>
  </g>
</svg>
