<svg xmlns="http://www.w3.org/2000/svg" width="16" height="15.912" viewBox="0 0 16 15.912">
  <g id="Group_3326" data-name="Group 3326" transform="translate(-1259.833 -129.973)">
    <path id="Path_1684" data-name="Path 1684" d="M1275.626,144.771l-3.5-3.595a6.9,6.9,0,1,0-.886.925l3.516,3.609.012.012a.635.635,0,0,0,.426.163h.037a.636.636,0,0,0,.441-.213A.643.643,0,0,0,1275.626,144.771Zm-8.9-13.515a5.625,5.625,0,1,1-5.615,5.625A5.626,5.626,0,0,1,1266.729,131.256Z" transform="translate(0 0)" fill="#fff"/>
    <path id="Path_1685" data-name="Path 1685" d="M1372.164,319.871h5.463a.5.5,0,1,0,0-.995h-5.463a.5.5,0,1,0,0,.995Z" transform="translate(-108.165 -182.69)" fill="#fff"/>
  </g>
</svg>
