<svg width="17" height="17" viewBox="0 0 17 17" fill="none" xmlns="http://www.w3.org/2000/svg">
<path d="M5.24988 7.04168C5.24988 6.56649 5.43864 6.11078 5.77465 5.77477C6.11065 5.43877 6.56637 5.25 7.04156 5.25H14.2083C14.6834 5.25 15.1392 5.43877 15.4752 5.77477C15.8112 6.11078 15.9999 6.56649 15.9999 7.04168V14.2084C15.9999 14.6836 15.8112 15.1393 15.4752 15.4753C15.1392 15.8113 14.6834 16.0001 14.2083 16.0001H7.04156C6.56637 16.0001 6.11065 15.8113 5.77465 15.4753C5.43864 15.1393 5.24988 14.6836 5.24988 14.2084V7.04168Z" stroke="white" stroke-width="1.5" stroke-linecap="round" stroke-linejoin="round"/>
<path d="M12.4167 5.25004V3.45836C12.4167 2.98318 12.2279 2.52746 11.8919 2.19146C11.5559 1.85545 11.1002 1.66669 10.625 1.66669H3.4583C2.98312 1.66669 2.5274 1.85545 2.1914 2.19146C1.85539 2.52746 1.66663 2.98318 1.66663 3.45836V10.6251C1.66663 11.1003 1.85539 11.556 2.1914 11.892C2.5274 12.228 2.98312 12.4167 3.4583 12.4167H5.24998" stroke="white" stroke-width="1.5" stroke-linecap="round" stroke-linejoin="round"/>
</svg>
