<svg xmlns="http://www.w3.org/2000/svg" width="29.051" height="24" viewBox="0 0 29.051 24">
  <g id="d-website-management-tools" transform="translate(0.5 0.5)">
    <g id="Group_1486" data-name="Group 1486" transform="translate(0.052)">
      <rect id="Rectangle_353" data-name="Rectangle 353" width="28" height="23" rx="2" fill="#2f3133" stroke="#fff" stroke-linecap="round" stroke-linejoin="round" stroke-width="1"/>
    </g>
    <g id="Group_1487" data-name="Group 1487" transform="translate(1.585 2.053)">
      <circle id="Ellipse_61" data-name="Ellipse 61" cx="0.558" cy="0.558" r="0.558" transform="translate(0)" fill="#fff"/>
      <circle id="Ellipse_62" data-name="Ellipse 62" cx="0.558" cy="0.558" r="0.558" transform="translate(2.231)" fill="#fff"/>
      <circle id="Ellipse_63" data-name="Ellipse 63" cx="0.558" cy="0.558" r="0.558" transform="translate(4.461)" fill="#fff"/>
    </g>
    <line id="Line_31" data-name="Line 31" x2="27.714" transform="translate(0 4.753)" fill="none" stroke="#fff" stroke-linecap="round" stroke-linejoin="round" stroke-width="1"/>
    <g id="Group_1490" data-name="Group 1490" transform="translate(7.709 8.412)">
      <g id="Group_1488" data-name="Group 1488" transform="translate(1.394)">
        <path id="Path_1358" data-name="Path 1358" d="M55.019,136.439h-.356a4.061,4.061,0,0,0-.4-.961l.251-.251a.492.492,0,0,0,0-.692l-.8-.8a.5.5,0,0,0-.692,0l-.251.251a4.013,4.013,0,0,0-.961-.4v-.356a.49.49,0,0,0-.489-.49H50.187a.49.49,0,0,0-.489.49v.356a4.026,4.026,0,0,0-.961.4l-.251-.251a.5.5,0,0,0-.692,0l-.8.8a.49.49,0,0,0-.143.347.485.485,0,0,0,.143.345l.251.251a4.026,4.026,0,0,0-.4.961H46.49a.49.49,0,0,0-.49.489v1.135a.49.49,0,0,0,.49.489h.356a4.013,4.013,0,0,0,.4.961l-.251.251a.493.493,0,0,0,0,.693l.8.8a.5.5,0,0,0,.692,0l.251-.251a4.074,4.074,0,0,0,.961.4v.356a.49.49,0,0,0,.489.489h1.135a.49.49,0,0,0,.489-.489V141.4a4.046,4.046,0,0,0,.961-.4l.251.251a.5.5,0,0,0,.692,0l.8-.8a.492.492,0,0,0,0-.692l-.251-.251a4.048,4.048,0,0,0,.4-.961h.356a.49.49,0,0,0,.489-.489v-1.135a.49.49,0,0,0-.489-.489ZM52.867,137.5a2.113,2.113,0,1,1-2.112-2.114,2.115,2.115,0,0,1,2.112,2.114Z" transform="translate(-46 -132.741)" fill="#2f3133" stroke="#fff" stroke-linecap="round" stroke-linejoin="round" stroke-width="0.7"/>
      </g>
      <g id="Group_1489" data-name="Group 1489" transform="translate(0 11.562)">
        <line id="Line_32" data-name="Line 32" x2="8.137" transform="translate(4.16)" fill="none" stroke="#fff" stroke-linecap="round" stroke-miterlimit="10" stroke-width="1"/>
        <line id="Line_33" data-name="Line 33" x2="2.194" fill="none" stroke="#fff" stroke-linecap="round" stroke-miterlimit="10" stroke-width="1"/>
      </g>
    </g>
  </g>
</svg>
