<svg xmlns="http://www.w3.org/2000/svg" width="28.755" height="28.755" viewBox="0 0 28.755 28.755">
  <g id="d-meta-tags-tools" transform="translate(0.5 0.5)">
    <g id="Group_1457" data-name="Group 1457" transform="translate(0)">
      <path id="Path_1338" data-name="Path 1338" d="M60.466,205.263l-10.034.032a1.775,1.775,0,0,0-1.255.525l-14.321,14.4a1.4,1.4,0,0,0,.063,1.927L45.2,232.493a1.777,1.777,0,0,0,2.522,0l13.987-14.064a1.8,1.8,0,0,0,.522-1.265l.019-10.1A1.789,1.789,0,0,0,60.466,205.263Z" transform="translate(-34.5 -205.263)" fill="#2f3133" stroke="#fff" stroke-linecap="round" stroke-linejoin="round" stroke-width="1"/>
      <circle id="Ellipse_50" data-name="Ellipse 50" cx="1.788" cy="1.788" r="1.788" transform="translate(20.542 3.65)" fill="#2f3133" stroke="#fff" stroke-linecap="round" stroke-linejoin="round" stroke-width="1"/>
    </g>
    <g id="Group_1458" data-name="Group 1458" transform="translate(8.563 9.477)">
      <path id="Path_1339" data-name="Path 1339" d="M45.8,222.681l-.49,5.395,5.395-.49" transform="translate(-45.314 -218.267)" fill="none" stroke="#fff" stroke-linecap="round" stroke-linejoin="round" stroke-width="1"/>
      <path id="Path_1340" data-name="Path 1340" d="M55.77,222.523l.49-5.395-5.395.49" transform="translate(-46.452 -217.129)" fill="none" stroke="#fff" stroke-linecap="round" stroke-linejoin="round" stroke-width="1"/>
      <line id="Line_12" data-name="Line 12" x2="4.369" y2="8.085" transform="translate(2.72 0.862)" fill="none" stroke="#fff" stroke-linecap="round" stroke-linejoin="round" stroke-width="1"/>
    </g>
  </g>
</svg>
