<svg xmlns="http://www.w3.org/2000/svg" width="21.3" height="27.967" viewBox="0 0 21.3 27.967">
  <g id="Plagiarism_Checker" data-name="Plagiarism Checker" transform="translate(-38.225 -33.85)">
    <g id="Group_2" data-name="Group 2" transform="translate(38.875 34.5)">
      <path id="Path_1" data-name="Path 1" d="M56.97,61.167H40.78a1.9,1.9,0,0,1-1.9-1.9V36.4a1.9,1.9,0,0,1,1.9-1.9h11.2a1.9,1.9,0,0,1,1.346.558l5,5a1.9,1.9,0,0,1,.558,1.346V59.262A1.9,1.9,0,0,1,56.97,61.167Z" transform="translate(-38.875 -34.5)" fill="none" stroke="#fff" stroke-miterlimit="10" stroke-width="1.3"/>
      <path id="Path_2" data-name="Path 2" d="M55.49,37.885v4.849h4.849" transform="translate(-42.965 -35.259)" fill="none" stroke="#fff" stroke-linecap="round" stroke-linejoin="round" stroke-width="1.3"/>
      <g id="Group_1" data-name="Group 1" transform="translate(3.592 20.654)">
        <line id="Line_1" data-name="Line 1" x2="12.816" transform="translate(0 2.909)" fill="none" stroke="#fff" stroke-linecap="round" stroke-miterlimit="10" stroke-width="1.3"/>
        <line id="Line_2" data-name="Line 2" x2="7.968" transform="translate(4.849)" fill="none" stroke="#fff" stroke-linecap="round" stroke-miterlimit="10" stroke-width="1.3"/>
        <line id="Line_3" data-name="Line 3" x2="2.149" fill="none" stroke="#fff" stroke-linecap="round" stroke-miterlimit="10" stroke-width="1.3"/>
      </g>
    </g>
    <g id="Group_3" data-name="Group 3" transform="translate(44.918 44.997)">
      <circle id="Ellipse_1" data-name="Ellipse 1" cx="2.892" cy="2.892" r="2.892" transform="translate(0)" fill="none" stroke="#fff" stroke-miterlimit="10" stroke-width="1.3"/>
      <line id="Line_4" data-name="Line 4" x2="2.42" y2="2.42" transform="translate(4.937 4.937)" fill="#fff" stroke="#fff" stroke-linecap="round" stroke-miterlimit="10" stroke-width="1.3"/>
    </g>
  </g>
</svg>
