<svg xmlns="http://www.w3.org/2000/svg" width="23.588" height="28.608" viewBox="0 0 23.588 28.608">
  <g id="d-password-management-tools" transform="translate(0.5 0.5)">
    <g id="Group_1460" data-name="Group 1460" transform="translate(0)">
      <path id="Rectangle_339" data-name="Rectangle 339" d="M6.991,0h0a6.991,6.991,0,0,1,6.991,6.991v4.528a0,0,0,0,1,0,0H0a0,0,0,0,1,0,0V6.991A6.991,6.991,0,0,1,6.991,0Z" transform="translate(4.303)" fill="#2f3133" stroke="#fff" stroke-linecap="round" stroke-linejoin="round" stroke-width="1"/>
      <rect id="Rectangle_340" data-name="Rectangle 340" width="22.588" height="16.716" rx="2" transform="translate(0 10.892)" fill="#2f3133" stroke="#fff" stroke-linecap="round" stroke-linejoin="round" stroke-width="1"/>
    </g>
    <rect id="Rectangle_341" data-name="Rectangle 341" width="16.526" height="5.813" rx="2" transform="translate(3.031 16.496)" fill="#2f3133" stroke="#fff" stroke-linecap="round" stroke-linejoin="round" stroke-width="1"/>
    <g id="Group_1461" data-name="Group 1461" transform="translate(5.6 18.226)">
      <path id="Path_1341" data-name="Path 1341" d="M130.98,229.674l-.366-.157.365-.162a.327.327,0,0,0,.217-.3.324.324,0,0,0-.324-.323.347.347,0,0,0-.227.087l-.307.224.04-.359a.312.312,0,0,0-.543-.259.33.33,0,0,0-.074.263l.04.355-.3-.223a.336.336,0,0,0-.223-.089.321.321,0,0,0-.115.624l.368.163-.369.159a.345.345,0,0,0-.214.3.331.331,0,0,0,.323.33.39.39,0,0,0,.227-.086l.307-.226-.04.36a.32.32,0,0,0,.072.259.317.317,0,0,0,.472,0,.329.329,0,0,0,.073-.261l-.04-.357.311.229a.4.4,0,0,0,.217.083.331.331,0,0,0,.33-.324A.335.335,0,0,0,130.98,229.674Z" transform="translate(-128.942 -228.321)" fill="#fff"/>
      <path id="Path_1342" data-name="Path 1342" d="M134.755,229.674l-.367-.157.365-.162a.321.321,0,0,0-.107-.624.348.348,0,0,0-.228.087l-.307.224.041-.359a.318.318,0,0,0-.072-.259.323.323,0,0,0-.472,0,.332.332,0,0,0-.073.263l.04.355-.3-.223a.337.337,0,0,0-.223-.089.321.321,0,0,0-.115.624l.367.163-.368.159a.345.345,0,0,0-.215.3.331.331,0,0,0,.324.33.393.393,0,0,0,.227-.086l.307-.226-.04.36a.322.322,0,0,0,.071.259.308.308,0,0,0,.237.1.3.3,0,0,0,.235-.106.327.327,0,0,0,.074-.261l-.04-.357.311.229a.394.394,0,0,0,.217.083.331.331,0,0,0,.329-.324A.334.334,0,0,0,134.755,229.674Z" transform="translate(-129.671 -228.321)" fill="#fff"/>
      <path id="Path_1343" data-name="Path 1343" d="M138.529,229.674l-.366-.157.365-.162a.321.321,0,0,0-.106-.624.347.347,0,0,0-.227.087l-.307.224.04-.359a.312.312,0,0,0-.543-.259.33.33,0,0,0-.074.263l.04.355-.3-.223a.339.339,0,0,0-.223-.089.321.321,0,0,0-.115.624l.368.163-.369.159a.345.345,0,0,0-.214.3.331.331,0,0,0,.324.33.4.4,0,0,0,.227-.086l.307-.226-.04.36a.32.32,0,0,0,.072.259.317.317,0,0,0,.472,0,.33.33,0,0,0,.073-.261l-.04-.357.311.229a.4.4,0,0,0,.217.083.331.331,0,0,0,.33-.324A.335.335,0,0,0,138.529,229.674Z" transform="translate(-130.401 -228.321)" fill="#fff"/>
      <path id="Path_1344" data-name="Path 1344" d="M142.3,229.674l-.367-.157.365-.162a.321.321,0,0,0-.106-.624.344.344,0,0,0-.227.087l-.307.224.04-.359a.318.318,0,0,0-.072-.259.323.323,0,0,0-.472,0,.333.333,0,0,0-.073.263l.04.355-.3-.223a.337.337,0,0,0-.223-.089.321.321,0,0,0-.115.624l.367.163-.368.159a.345.345,0,0,0-.215.3.331.331,0,0,0,.324.33.393.393,0,0,0,.227-.086l.307-.226-.04.36a.322.322,0,0,0,.071.259.308.308,0,0,0,.237.1.3.3,0,0,0,.235-.106.327.327,0,0,0,.074-.261l-.04-.357.311.229a.394.394,0,0,0,.217.083.331.331,0,0,0,.329-.324A.334.334,0,0,0,142.3,229.674Z" transform="translate(-131.131 -228.321)" fill="#fff"/>
    </g>
  </g>
</svg>
