<svg width="42" height="42" viewBox="0 0 42 42" fill="none" xmlns="http://www.w3.org/2000/svg">
<rect width="42" height="42" rx="4" fill="#2E2E2E"/>
<path d="M25.4111 24.897H16.6311L12.8711 31.607C13.3211 31.847 13.8411 31.997 14.1711 31.997C17.6311 31.997 24.6811 31.947 28.1811 31.947C28.5411 31.947 28.8811 31.817 29.1811 31.627L25.4211 24.907L25.4111 24.897Z" fill="#4185F3"/>
<path d="M12.861 31.607L16.621 24.897H9.00098C9.00098 25.367 9.16098 25.787 9.41098 26.277C10.121 27.627 11.321 29.797 12.021 30.927C12.191 31.207 12.881 31.627 12.861 31.607Z" fill="#1767D1"/>
<path d="M25.4106 24.897L29.1706 31.617C29.6606 31.297 30.0606 30.797 30.3106 30.337C30.8906 29.297 31.8806 27.557 32.5606 26.387C32.8806 25.837 33.0006 25.347 32.9906 24.897H25.4106Z" fill="#E94235"/>
<path d="M16.6308 24.8968L21.0208 17.1068L17.0908 10.4268C16.6708 10.7068 16.3008 11.0968 16.1408 11.3968C14.4308 14.4668 10.9808 20.7468 9.25083 23.8568C9.07083 24.1768 8.99083 24.5368 9.00083 24.9068H16.6308V24.8968Z" fill="#30A753"/>
<path d="M25.4107 24.897L21.0107 17.107L24.8307 10.437C25.2507 10.727 25.7207 11.097 25.8807 11.397C27.5907 14.467 31.0407 20.747 32.7807 23.857C32.9607 24.177 33.0107 24.537 33.0007 24.907H25.4207L25.4107 24.897Z" fill="#F9BC00"/>
<path d="M17.0908 10.427L21.0108 17.107L24.8308 10.437C24.4408 10.197 23.8808 10.067 23.3408 10.047C21.8408 9.997 19.4008 9.977 18.0908 10.037C17.7708 10.047 17.1008 10.437 17.0908 10.437V10.427Z" fill="#0F8038"/>
</svg>
