<svg width="24" height="24" viewBox="0 0 24 24" fill="none" xmlns="http://www.w3.org/2000/svg">
<path d="M23.71 22.29L18.22 16.8C19.68 15.02 20.56 12.75 20.56 10.28C20.55 4.61 15.94 0 10.28 0C4.62 0 0 4.61 0 10.28C0 15.95 4.61 20.56 10.28 20.56C12.75 20.56 15.03 19.68 16.8 18.22L22.29 23.71C22.49 23.91 22.74 24 23 24C23.26 24 23.51 23.9 23.71 23.71C24.1 23.32 24.1 22.69 23.71 22.3V22.29ZM2 10.28C2 5.71 5.71 2 10.28 2C14.85 2 18.56 5.71 18.56 10.28C18.56 14.85 14.85 18.56 10.28 18.56C5.71 18.56 2 14.84 2 10.28Z" fill="#2B2D38"/>
</svg>
