<svg xmlns="http://www.w3.org/2000/svg" width="23.561" height="31.081" viewBox="0 0 23.561 31.081">
  <g id="d-online-pdf-tools" transform="translate(0.5 0.5)">
    <g id="Group_1463" data-name="Group 1463">
      <path id="Path_1345" data-name="Path 1345" d="M227.287,235.248H209.024a2.149,2.149,0,0,1-2.149-2.149V207.316a2.148,2.148,0,0,1,2.149-2.149h12.629a2.145,2.145,0,0,1,1.519.629l5.635,5.635a2.149,2.149,0,0,1,.629,1.52V233.1A2.149,2.149,0,0,1,227.287,235.248Z" transform="translate(-206.875 -205.167)" fill="#2f3133" stroke="#fff" stroke-miterlimit="10" stroke-width="1"/>
      <path id="Path_1346" data-name="Path 1346" d="M223.49,208.552v5.379h5.379" transform="translate(-209.222 -205.639)" fill="#2f3133" stroke="#fff" stroke-linecap="round" stroke-linejoin="round" stroke-width="1"/>
    </g>
    <g id="Group_1464" data-name="Group 1464" transform="translate(3.413 16.507)">
      <path id="Path_1347" data-name="Path 1347" d="M214.731,224.972h-1.694a.523.523,0,0,0-.529.528v4.61a.524.524,0,0,0,1.049,0v-1.3h1.065c1.369,0,2.254-.758,2.254-1.931v-.016A1.9,1.9,0,0,0,214.731,224.972Zm-.08,2.883h-1.1v-1.922h1.1c.737,0,1.159.348,1.159.954v.015C215.81,227.472,215.345,227.855,214.651,227.855Z" transform="translate(-212.507 -224.972)" fill="#fff"/>
      <path id="Path_1348" data-name="Path 1348" d="M219.655,224.972h-1.577a.523.523,0,0,0-.528.528v4.563a.523.523,0,0,0,.528.528h1.577a2.8,2.8,0,0,0,2.983-2.81v-.017A2.8,2.8,0,0,0,219.655,224.972Zm1.888,2.825a1.762,1.762,0,0,1-1.888,1.833H218.6v-3.7h1.056a1.788,1.788,0,0,1,1.888,1.849Z" transform="translate(-212.255 -224.972)" fill="#fff"/>
      <path id="Path_1349" data-name="Path 1349" d="M227.215,225.933a.48.48,0,0,0,0-.961h-3.233a.523.523,0,0,0-.528.528v4.61a.524.524,0,0,0,1.048,0v-1.776h2.356a.481.481,0,0,0,0-.963H224.5v-1.438Z" transform="translate(-211.961 -224.972)" fill="#fff"/>
    </g>
  </g>
</svg>
