<svg xmlns="http://www.w3.org/2000/svg" width="28.611" height="28.611" viewBox="0 0 28.611 28.611">
  <g id="d-proxy-tools" transform="translate(0.5 0.5)">
    <path id="Path_1393" data-name="Path 1393" d="M2.51,0H25.1a2.51,2.51,0,0,1,2.51,2.51v4.2a2.51,2.51,0,0,1-2.51,2.51H2.51A2.51,2.51,0,0,1,0,6.709V2.51A2.51,2.51,0,0,1,2.51,0Z" transform="translate(0 18.391)" fill="#2f3133" stroke="#fff" stroke-linecap="round" stroke-width="1"/>
    <rect id="Rectangle_348" data-name="Rectangle 348" width="27.611" height="9.219" rx="2" transform="translate(0 9.196)" fill="#2f3133" stroke="#fff" stroke-linecap="round" stroke-linejoin="round" stroke-width="1"/>
    <rect id="Rectangle_349" data-name="Rectangle 349" width="27.611" height="9.219" rx="2" transform="translate(0)" fill="#2f3133" stroke="#fff" stroke-linecap="round" stroke-linejoin="round" stroke-width="1"/>
    <g id="Group_1477" data-name="Group 1477" transform="translate(4.072 2.849)">
      <circle id="Ellipse_54" data-name="Ellipse 54" cx="1.761" cy="1.761" r="1.761" fill="#2f3133" stroke="#fff" stroke-linecap="round" stroke-linejoin="round" stroke-width="1"/>
      <line id="Line_19" data-name="Line 19" y2="2.078" transform="translate(5.761 0.722)" fill="none" stroke="#fff" stroke-linecap="round" stroke-linejoin="round" stroke-width="1"/>
      <line id="Line_20" data-name="Line 20" y2="2.078" transform="translate(8.103 0.722)" fill="none" stroke="#fff" stroke-linecap="round" stroke-linejoin="round" stroke-width="1"/>
      <line id="Line_21" data-name="Line 21" x2="8.301" transform="translate(11.166 1.761)" fill="none" stroke="#fff" stroke-linecap="round" stroke-linejoin="round" stroke-width="1"/>
    </g>
    <g id="Group_1478" data-name="Group 1478" transform="translate(4.072 12.044)">
      <circle id="Ellipse_55" data-name="Ellipse 55" cx="1.761" cy="1.761" r="1.761" fill="#2f3133" stroke="#fff" stroke-linecap="round" stroke-linejoin="round" stroke-width="1"/>
      <line id="Line_22" data-name="Line 22" y2="2.078" transform="translate(5.761 0.722)" fill="none" stroke="#fff" stroke-linecap="round" stroke-linejoin="round" stroke-width="1"/>
      <line id="Line_23" data-name="Line 23" y2="2.078" transform="translate(8.103 0.722)" fill="none" stroke="#fff" stroke-linecap="round" stroke-linejoin="round" stroke-width="1"/>
      <line id="Line_24" data-name="Line 24" x2="8.301" transform="translate(11.166 1.761)" fill="none" stroke="#fff" stroke-linecap="round" stroke-linejoin="round" stroke-width="1"/>
    </g>
    <g id="Group_1479" data-name="Group 1479" transform="translate(4.072 21.24)">
      <circle id="Ellipse_56" data-name="Ellipse 56" cx="1.761" cy="1.761" r="1.761" transform="translate(0 0)" fill="#2f3133" stroke="#fff" stroke-linecap="round" stroke-linejoin="round" stroke-width="1"/>
      <line id="Line_25" data-name="Line 25" y2="2.078" transform="translate(5.761 0.722)" fill="none" stroke="#fff" stroke-linecap="round" stroke-linejoin="round" stroke-width="1"/>
      <line id="Line_26" data-name="Line 26" y2="2.078" transform="translate(8.103 0.722)" fill="none" stroke="#fff" stroke-linecap="round" stroke-linejoin="round" stroke-width="1"/>
      <line id="Line_27" data-name="Line 27" x2="8.301" transform="translate(11.166 1.761)" fill="none" stroke="#fff" stroke-linecap="round" stroke-linejoin="round" stroke-width="1"/>
    </g>
  </g>
</svg>
