<svg xmlns="http://www.w3.org/2000/svg" width="21.027" height="17.741" viewBox="0 0 21.027 17.741">
  <g id="flip" transform="translate(0 17.741) rotate(-90)">
    <g id="Group_3276" data-name="Group 3276" transform="translate(8.255)">
      <g id="Group_3275" data-name="Group 3275">
        <path id="Path_1653" data-name="Path 1653" d="M.616,0A.616.616,0,0,0,0,.616V3.491a.616.616,0,1,0,1.232,0V.616A.616.616,0,0,0,.616,0Z" fill="#fff"/>
      </g>
    </g>
    <g id="Group_3278" data-name="Group 3278" transform="translate(8.255 5.626)">
      <g id="Group_3277" data-name="Group 3277">
        <path id="Path_1654" data-name="Path 1654" d="M.616,0A.616.616,0,0,0,0,.616V3.491a.616.616,0,1,0,1.232,0V.616A.616.616,0,0,0,.616,0Z" fill="#fff"/>
      </g>
    </g>
    <g id="Group_3280" data-name="Group 3280" transform="translate(8.255 11.294)">
      <g id="Group_3279" data-name="Group 3279">
        <path id="Path_1655" data-name="Path 1655" d="M.616,0A.616.616,0,0,0,0,.616V3.491a.616.616,0,0,0,1.232,0V.616A.616.616,0,0,0,.616,0Z" fill="#fff"/>
      </g>
    </g>
    <g id="Group_3282" data-name="Group 3282" transform="translate(8.255 16.92)">
      <g id="Group_3281" data-name="Group 3281">
        <path id="Path_1656" data-name="Path 1656" d="M.616,0A.616.616,0,0,0,0,.616V3.491a.616.616,0,0,0,1.232,0V.616A.616.616,0,0,0,.616,0Z" fill="#fff"/>
      </g>
    </g>
    <g id="Group_3284" data-name="Group 3284" transform="translate(0 2.71)">
      <g id="Group_3283" data-name="Group 3283">
        <path id="Path_1657" data-name="Path 1657" d="M5.725,1.54.8.027A.616.616,0,0,0,0,.616V14.99a.616.616,0,0,0,.8.589l4.928-1.513a.616.616,0,0,0,.435-.589V2.129A.616.616,0,0,0,5.725,1.54Zm-.8,11.481-3.7,1.135V1.45l3.7,1.135Z" fill="#fff"/>
      </g>
    </g>
    <g id="Group_3286" data-name="Group 3286" transform="translate(11.581 2.71)">
      <g id="Group_3285" data-name="Group 3285">
        <path id="Path_1658" data-name="Path 1658" d="M5.91.121A.616.616,0,0,0,5.363.027L.435,1.54A.616.616,0,0,0,0,2.129V13.477a.616.616,0,0,0,.435.589l4.928,1.513a.616.616,0,0,0,.8-.589V.616A.616.616,0,0,0,5.91.121ZM4.928,14.156l-3.7-1.135V2.584l3.7-1.135Z" fill="#fff"/>
      </g>
    </g>
  </g>
</svg>
