<svg xmlns="http://www.w3.org/2000/svg" width="20.005" height="22.002" viewBox="0 0 20.005 22.002">
  <g id="mic" transform="translate(-400 -2310.25)">
    <path id="Path_1381" data-name="Path 1381" d="M105.668,211.666V213A7.342,7.342,0,0,1,99,220.3v2.741h3.334a.666.666,0,1,1,0,1.333h-8a.666.666,0,1,1,0-1.333h3.334V220.3A7.342,7.342,0,0,1,91,213v-1.333a.667.667,0,0,1,.667-.666h2.222v1.333H92.333V213a6,6,0,0,0,12,0v-.666h-1.556V211H105A.667.667,0,0,1,105.668,211.666Z" transform="translate(311.666 2107.879)" fill="#fff"/>
    <path id="Path_1383" data-name="Path 1383" d="M155.665,0A4.67,4.67,0,0,0,151,4.665v6.709a4.665,4.665,0,0,0,9.33,0V4.665A4.67,4.67,0,0,0,155.665,0Z" transform="translate(254.335 2310.252)" fill="#0074e7"/>
    <path id="Union_30" data-name="Union 30" d="M-8278,5908.04v-7.375a.668.668,0,0,1,.667-.667.666.666,0,0,1,.666.667v7.375a.667.667,0,0,1-.666.667.667.667,0,0,1-.667-.667Zm2.665-2v-3.332a.668.668,0,0,1,.667-.667.668.668,0,0,1,.668.667v3.332a.666.666,0,0,1-.667.665.666.666,0,0,1-.662-.665Z" transform="translate(8678 -3589.748)" fill="#5aadff"/>
    <path id="Union_29" data-name="Union 29" d="M-8275.33,5908.04v-7.375a.667.667,0,0,1,.667-.667.668.668,0,0,1,.667.667v7.375a.668.668,0,0,1-.667.667.667.667,0,0,1-.667-.667Zm-2.665-2v-3.332a.668.668,0,0,1,.667-.667.667.667,0,0,1,.666.667v3.332a.666.666,0,0,1-.194.471.667.667,0,0,1-.472.195.666.666,0,0,1-.475-.193.667.667,0,0,1-.2-.473Z" transform="translate(8694.001 -3589.748)" fill="#5aadff"/>
  </g>
</svg>
