<svg xmlns="http://www.w3.org/2000/svg" width="11.81" height="17.713" viewBox="0 0 11.81 17.713">
  <g id="Upside_Down" data-name="Upside Down" transform="translate(-5.903 17.713) rotate(-90)">
    <path id="Path_1784" data-name="Path 1784" d="M11.738,9a.738.738,0,0,1,.738.738v8.856a.738.738,0,0,1-1.476,0V9.738A.738.738,0,0,1,11.738,9Z" transform="translate(-2.882 -2.357)" fill="#fff"/>
    <path id="Path_1785" data-name="Path 1785" d="M16.616,8.324,21.289,13l.079.07a.912.912,0,0,1,.275.651.934.934,0,0,1-.244.627l-4.791,5.16a.935.935,0,0,1-.686.3A.924.924,0,0,1,15,18.886V8.922A.917.917,0,0,1,16.616,8.324Z" transform="translate(-15 -2.095)" fill="#fff"/>
    <path id="Path_1786" data-name="Path 1786" d="M5,8.355c.009-.01.063-.072.073-.082A.912.912,0,0,1,5.72,8a.924.924,0,0,1,.923.923v9.963a.924.924,0,0,1-1.6.627l-4.8-5.174A.927.927,0,0,1,0,13.72a.94.94,0,0,1,.324-.694Z" transform="translate(11.071 -2.095)" fill="#fff"/>
  </g>
</svg>
