<svg xmlns="http://www.w3.org/2000/svg" xmlns:xlink="http://www.w3.org/1999/xlink" width="36" height="36" viewBox="0 0 36 36">
  <defs>
    <clipPath id="clip-ADD_Header_And_Footer_To_PDF_Light_Mode_">
      <rect width="36" height="36"/>
    </clipPath>
  </defs>
  <g id="ADD_Header_And_Footer_To_PDF_Light_Mode_" data-name="ADD Header And Footer To PDF (Light Mode)" clip-path="url(#clip-ADD_Header_And_Footer_To_PDF_Light_Mode_)">
    <g id="Group_247" data-name="Group 247" transform="translate(-205.334 -399.31)">
      <g id="Group_246" data-name="Group 246">
        <g id="Group_239" data-name="Group 239">
          <path id="Path_115" data-name="Path 115" d="M233.958,434.809h-21.25a2.5,2.5,0,0,1-2.5-2.5v-30a2.5,2.5,0,0,1,2.5-2.5H227.4a2.5,2.5,0,0,1,1.768.733l6.556,6.556a2.5,2.5,0,0,1,.732,1.768v23.443A2.5,2.5,0,0,1,233.958,434.809Z" fill="#fff"/>
          <path id="Path_116" data-name="Path 116" d="M233.959,435.31h-21.25a3,3,0,0,1-3-3v-30a3,3,0,0,1,3-3H227.4a2.981,2.981,0,0,1,2.121.878l6.557,6.556a3.025,3.025,0,0,1,.879,2.122V432.31A3,3,0,0,1,233.959,435.31Zm-21.25-35a2,2,0,0,0-2,2v30a2,2,0,0,0,2,2h21.25a2,2,0,0,0,2-2V408.866a2.016,2.016,0,0,0-.586-1.415l-6.557-6.555a1.986,1.986,0,0,0-1.414-.586Z" fill="#1e70b9"/>
        </g>
        <g id="Group_240" data-name="Group 240">
          <path id="Path_117" data-name="Path 117" d="M228.334,410.681h-12a1.5,1.5,0,0,1-1.5-1.5v-3a1.5,1.5,0,0,1,1.5-1.5h12a1.5,1.5,0,0,1,1.5,1.5v3A1.5,1.5,0,0,1,228.334,410.681Zm-12-5a.5.5,0,0,0-.5.5v3a.5.5,0,0,0,.5.5h12a.5.5,0,0,0,.5-.5v-3a.5.5,0,0,0-.5-.5Z" fill="#1e70b9"/>
        </g>
        <g id="Group_241" data-name="Group 241">
          <path id="Path_118" data-name="Path 118" d="M230.459,430.31h-15.25a1.5,1.5,0,0,1-1.5-1.5v-3a1.5,1.5,0,0,1,1.5-1.5h15.25a1.5,1.5,0,0,1,1.5,1.5v3A1.5,1.5,0,0,1,230.459,430.31Zm-15.25-5a.5.5,0,0,0-.5.5v3a.5.5,0,0,0,.5.5h15.25a.5.5,0,0,0,.5-.5v-3a.5.5,0,0,0-.5-.5Z" fill="#1e70b9"/>
        </g>
        <g id="Group_245" data-name="Group 245">
          <g id="Group_242" data-name="Group 242">
            <path id="Path_119" data-name="Path 119" d="M231.593,419.685H215.074a.5.5,0,1,1,0-1h16.519a.5.5,0,0,1,0,1Z" fill="#1e70b9"/>
          </g>
          <g id="Group_243" data-name="Group 243">
            <path id="Path_120" data-name="Path 120" d="M231.593,415.935H221.324a.5.5,0,1,1,0-1h10.269a.5.5,0,0,1,0,1Z" fill="#1e70b9"/>
          </g>
          <g id="Group_244" data-name="Group 244">
            <path id="Path_121" data-name="Path 121" d="M217.843,415.935h-2.769a.5.5,0,1,1,0-1h2.769a.5.5,0,0,1,0,1Z" fill="#1e70b9"/>
          </g>
        </g>
      </g>
    </g>
  </g>
</svg>
