<svg xmlns="http://www.w3.org/2000/svg" xmlns:xlink="http://www.w3.org/1999/xlink" width="36" height="36" viewBox="0 0 36 36">
  <defs>
    <clipPath id="clip-ADD_Hyperlink_To_PDF_Light_Mode_">
      <rect width="36" height="36"/>
    </clipPath>
  </defs>
  <g id="ADD_Hyperlink_To_PDF_Light_Mode_" data-name="ADD Hyperlink To PDF (Light Mode)" clip-path="url(#clip-ADD_Hyperlink_To_PDF_Light_Mode_)">
    <g id="Group_157" data-name="Group 157" transform="translate(-290 -208.498)">
      <g id="Group_153" data-name="Group 153">
        <g id="Group_152" data-name="Group 152">
          <g id="Group_146" data-name="Group 146">
            <path id="Path_70" data-name="Path 70" d="M318.625,244h-21.25a2.5,2.5,0,0,1-2.5-2.5v-30a2.5,2.5,0,0,1,2.5-2.5h14.694a2.5,2.5,0,0,1,1.767.732l6.557,6.557a2.5,2.5,0,0,1,.732,1.767V241.5A2.5,2.5,0,0,1,318.625,244Z" fill="#fff"/>
            <path id="Path_71" data-name="Path 71" d="M318.625,244.5h-21.25a3,3,0,0,1-3-3v-30a3,3,0,0,1,3-3h14.694a2.982,2.982,0,0,1,2.121.879l6.556,6.556a2.983,2.983,0,0,1,.879,2.122V241.5A3,3,0,0,1,318.625,244.5Zm-21.25-35a2,2,0,0,0-2,2v30a2,2,0,0,0,2,2h21.25a2,2,0,0,0,2-2V218.055a1.989,1.989,0,0,0-.586-1.415l-6.556-6.556a1.986,1.986,0,0,0-1.414-.586Z" fill="#1e70b9"/>
          </g>
          <g id="Group_147" data-name="Group 147">
            <path id="Path_72" data-name="Path 72" d="M317.74,219.134h-6.25a.5.5,0,0,1-.5-.5v-6.25a.5.5,0,1,1,1,0v5.75h5.75a.5.5,0,0,1,0,1Z" fill="#1e70b9"/>
          </g>
          <g id="Group_151" data-name="Group 151">
            <g id="Group_148" data-name="Group 148">
              <path id="Path_73" data-name="Path 73" d="M316.259,240.5H299.74a.5.5,0,0,1,0-1h16.519a.5.5,0,0,1,0,1Z" fill="#1e70b9"/>
            </g>
            <g id="Group_149" data-name="Group 149">
              <path id="Path_74" data-name="Path 74" d="M316.259,236.748H305.99a.5.5,0,0,1,0-1h10.269a.5.5,0,0,1,0,1Z" fill="#1e70b9"/>
            </g>
            <g id="Group_150" data-name="Group 150">
              <path id="Path_75" data-name="Path 75" d="M302.509,236.748H299.74a.5.5,0,0,1,0-1h2.769a.5.5,0,0,1,0,1Z" fill="#1e70b9"/>
            </g>
          </g>
        </g>
      </g>
      <g id="Group_156" data-name="Group 156">
        <g id="Group_154" data-name="Group 154">
          <path id="Path_76" data-name="Path 76" d="M308.281,229.649h-.026a2.435,2.435,0,0,1-1.733-.738.5.5,0,0,1,.715-.7,1.451,1.451,0,0,0,1.028.438,1.387,1.387,0,0,0,1.037-.418l2.264-2.264a1.479,1.479,0,0,0,0-2.093,1.516,1.516,0,0,0-2.093,0l-.28.28a.5.5,0,1,1-.707-.707l.28-.28a2.537,2.537,0,0,1,3.507,0,2.478,2.478,0,0,1,0,3.507l-2.239,2.24A2.474,2.474,0,0,1,308.281,229.649Z" fill="#1e70b9"/>
        </g>
        <g id="Group_155" data-name="Group 155">
          <path id="Path_77" data-name="Path 77" d="M305.48,232.44a2.48,2.48,0,0,1-1.754-4.233l2.241-2.24a2.474,2.474,0,0,1,3.509,0,.5.5,0,0,1-.713.7,1.465,1.465,0,0,0-2.065-.022l-2.265,2.265a1.481,1.481,0,0,0,0,2.093,1.518,1.518,0,0,0,2.093,0l.281-.28a.5.5,0,1,1,.7.709l-.28.279A2.459,2.459,0,0,1,305.48,232.44Z" fill="#1e70b9"/>
        </g>
      </g>
    </g>
  </g>
</svg>
