<svg id="calendar_1_" data-name="calendar (1)" xmlns="http://www.w3.org/2000/svg" width="18" height="18" viewBox="0 0 18 18">
  <g id="Group_3447" data-name="Group 3447" transform="translate(4.491 8.083)">
    <g id="Group_3446" data-name="Group 3446">
      <rect id="Rectangle_486" data-name="Rectangle 486" width="1.834" height="1.834" fill="#ea5050"/>
    </g>
  </g>
  <g id="Group_3449" data-name="Group 3449" transform="translate(8.083 8.083)">
    <g id="Group_3448" data-name="Group 3448">
      <rect id="Rectangle_487" data-name="Rectangle 487" width="1.834" height="1.834" fill="#ea5050"/>
    </g>
  </g>
  <g id="Group_3451" data-name="Group 3451" transform="translate(11.676 8.083)">
    <g id="Group_3450" data-name="Group 3450">
      <rect id="Rectangle_488" data-name="Rectangle 488" width="1.834" height="1.834" fill="#ea5050"/>
    </g>
  </g>
  <g id="Group_3453" data-name="Group 3453" transform="translate(4.491 11.676)">
    <g id="Group_3452" data-name="Group 3452">
      <rect id="Rectangle_489" data-name="Rectangle 489" width="1.834" height="1.834" fill="#ea5050"/>
    </g>
  </g>
  <g id="Group_3455" data-name="Group 3455" transform="translate(8.083 11.676)">
    <g id="Group_3454" data-name="Group 3454">
      <rect id="Rectangle_490" data-name="Rectangle 490" width="1.834" height="1.834" fill="#ea5050"/>
    </g>
  </g>
  <g id="Group_3457" data-name="Group 3457" transform="translate(11.676 11.676)">
    <g id="Group_3456" data-name="Group 3456">
      <rect id="Rectangle_491" data-name="Rectangle 491" width="1.834" height="1.834" fill="#ea5050"/>
    </g>
  </g>
  <g id="Group_3459" data-name="Group 3459">
    <g id="Group_3458" data-name="Group 3458">
      <path id="Path_1740" data-name="Path 1740" d="M17.1,1.8H15.3V.9a.9.9,0,0,0-1.8,0v.9h-9V.9A.85.85,0,0,0,3.6,0a.85.85,0,0,0-.9.9v.9H.9a.85.85,0,0,0-.9.9V17.1a.85.85,0,0,0,.9.9H17.1a.9.9,0,0,0,.9-.9V2.7A.9.9,0,0,0,17.1,1.8Zm-.9,14.4H1.8V5.4H16.2Z" fill="#ea5050"/>
    </g>
  </g>
</svg>
