<svg width="46" height="34" viewBox="0 0 46 34" fill="none" xmlns="http://www.w3.org/2000/svg">
<path d="M23 6.46969V1.42969" stroke="#1E70B9" stroke-miterlimit="10" stroke-linecap="round"/>
<path d="M19.91 1.30957H26.1" stroke="#1E70B9" stroke-miterlimit="10" stroke-linecap="round"/>
<path d="M40.48 17.5097V28.3197C40.48 30.7297 38.52 32.6897 36.11 32.6897H9.88999C7.47999 32.6897 5.51999 30.7297 5.51999 28.3197V10.8397C5.51999 8.42973 7.47999 6.46973 9.88999 6.46973H30.08" stroke="#1E70B9" stroke-miterlimit="10" stroke-linecap="round"/>
<path d="M1.14999 19.5791H5.51999" stroke="#1E70B9" stroke-miterlimit="10" stroke-linecap="round"/>
<path d="M40.48 19.5791H44.85" stroke="#1E70B9" stroke-miterlimit="10" stroke-linecap="round"/>
<path d="M29.56 17.3896V21.7596" stroke="#1E70B9" stroke-miterlimit="10" stroke-linecap="round"/>
<path d="M16.44 17.3896V21.7596" stroke="#1E70B9" stroke-miterlimit="10" stroke-linecap="round"/>
<path d="M34.91 11.77V8.38C34.91 7.76 35.42 7.25 36.04 7.25C36.66 7.25 37.17 7.76 37.17 8.38V11.77" stroke="#1E70B9" stroke-miterlimit="10" stroke-linecap="round"/>
<path d="M34.91 10.0693H37.17" stroke="#1E70B9" stroke-miterlimit="10" stroke-linecap="round"/>
<path d="M39.44 7.23926V11.7693" stroke="#1E70B9" stroke-miterlimit="10" stroke-linecap="round"/>
<path d="M37.56 16.1994C41.0946 16.1994 43.96 13.334 43.96 9.79941C43.96 6.26479 41.0946 3.39941 37.56 3.39941C34.0254 3.39941 31.16 6.26479 31.16 9.79941C31.16 13.334 34.0254 16.1994 37.56 16.1994Z" stroke="#1E70B9" stroke-miterlimit="10" stroke-linecap="round"/>
</svg>
