<svg width="34" height="33" viewBox="0 0 34 33" fill="none" xmlns="http://www.w3.org/2000/svg">
<path d="M13.49 29.0004H3.06006C2.10006 29.0004 1.31995 28.2204 1.31995 27.2604V2.93042C1.31995 1.97042 2.10006 1.19043 3.06006 1.19043H13.49C15.41 1.19043 16.97 2.75043 16.97 4.67043C16.97 2.75043 18.53 1.19043 20.45 1.19043H30.88C31.84 1.19043 32.62 1.97042 32.62 2.93042V27.2604C32.62 28.2204 31.84 29.0004 30.88 29.0004H20.45C18.53 29.0004 16.97 30.5604 16.97 32.4804C16.97 30.5604 15.41 29.0004 13.49 29.0004Z" stroke="#1E70B9" stroke-miterlimit="10" stroke-linecap="round"/>
<path d="M16.96 4.6709V32.4809" stroke="#1E70B9" stroke-miterlimit="10" stroke-linecap="round"/>
<path d="M22.33 15.1006H27.35" stroke="#1E70B9" stroke-miterlimit="10" stroke-linecap="round"/>
<path d="M22.33 8.53027H27.35" stroke="#1E70B9" stroke-miterlimit="10" stroke-linecap="round"/>
<path d="M22.33 22.0508H27.35" stroke="#1E70B9" stroke-miterlimit="10" stroke-linecap="round"/>
<path d="M6.23999 15.1006H11.26" stroke="#1E70B9" stroke-miterlimit="10" stroke-linecap="round"/>
<path d="M6.23999 22.0508H11.26" stroke="#1E70B9" stroke-miterlimit="10" stroke-linecap="round"/>
<path d="M5.65002 10.77V7.22995C5.65002 6.24995 6.44004 5.45996 7.42004 5.45996C8.40004 5.45996 9.18994 6.24995 9.18994 7.22995V10.77" stroke="#1E70B9" stroke-miterlimit="10" stroke-linecap="round"/>
<path d="M5.65002 9H9.18994" stroke="#1E70B9" stroke-miterlimit="10" stroke-linecap="round"/>
<path d="M11.85 5.46973V10.7797" stroke="#1E70B9" stroke-miterlimit="10" stroke-linecap="round"/>
</svg>
