<svg width="30" height="30" viewBox="0 0 30 30" fill="none" xmlns="http://www.w3.org/2000/svg">
<path d="M26.77 0.549805H3.96997C2.58926 0.549805 1.46997 1.66909 1.46997 3.0498V26.8298C1.46997 28.2105 2.58926 29.3298 3.96997 29.3298H26.77C28.1507 29.3298 29.27 28.2105 29.27 26.8298V3.0498C29.27 1.66909 28.1507 0.549805 26.77 0.549805Z" fill="white" stroke="#1E70B9" stroke-miterlimit="10"/>
<path d="M8.39001 18.9902H22.34" stroke="#1E70B9" stroke-miterlimit="10" stroke-linecap="round"/>
<path d="M8.39001 23.1006H22.34" stroke="#1E70B9" stroke-miterlimit="10" stroke-linecap="round"/>
<path d="M21.03 4.7998H9.70999C8.98098 4.7998 8.39001 5.39078 8.39001 6.1198V14.1498C8.39001 14.8788 8.98098 15.4698 9.70999 15.4698H21.03C21.759 15.4698 22.35 14.8788 22.35 14.1498V6.1198C22.35 5.39078 21.759 4.7998 21.03 4.7998Z" stroke="#1E70B9" stroke-miterlimit="10" stroke-linecap="round"/>
<path d="M12.09 12.6998V8.95985C12.09 7.92985 12.93 7.08984 13.96 7.08984C14.99 7.08984 15.83 7.92985 15.83 8.95985V12.6998" stroke="#1E70B9" stroke-miterlimit="10" stroke-linecap="round"/>
<path d="M12.09 10.8301H15.83" stroke="#1E70B9" stroke-miterlimit="10" stroke-linecap="round"/>
<path d="M18.64 7.08984V12.7099" stroke="#1E70B9" stroke-miterlimit="10" stroke-linecap="round"/>
</svg>
