<?xml version="1.0" encoding="utf-8"?>
<!-- Generator: Adobe Illustrator 28.1.0, SVG Export Plug-In . SVG Version: 6.00 Build 0)  -->
<svg version="1.1" id="Layer_1" xmlns="http://www.w3.org/2000/svg" xmlns:xlink="http://www.w3.org/1999/xlink" x="0px" y="0px"
	 viewBox="0 0 64 64" style="enable-background:new 0 0 64 64;" xml:space="preserve">
<style type="text/css">
	.st0{fill:#FFFFFF;stroke:#1E70B9;stroke-miterlimit:10;}
	.st1{fill:#1E70B9;}
</style>
<path class="st0" d="M35.3,14.5H17c-1.4,0-2.5,1.1-2.5,2.5v18.3c0,1.4,1.1,2.5,2.5,2.5h18.3c1.4,0,2.5-1.1,2.5-2.5V17
	C37.8,15.6,36.7,14.5,35.3,14.5z"/>
<path class="st0" d="M47,26.2H28.7c-1.4,0-2.5,1.1-2.5,2.5V47c0,1.4,1.1,2.5,2.5,2.5H47c1.4,0,2.5-1.1,2.5-2.5V28.7
	C49.5,27.3,48.4,26.2,47,26.2z"/>
<path class="st1" d="M23.1,26.8L21.8,24c-0.1-0.2-0.3-0.4-0.5-0.4c-0.1,0-0.4,0.1-0.5,0.3l-1.3,2.9c0,0.1-0.1,0.2-0.1,0.2
	c0,0.3,0.2,0.5,0.5,0.5c0.2,0,0.4-0.1,0.5-0.3l0.3-0.6h1.4l0.3,0.6c0.1,0.2,0.3,0.3,0.5,0.3c0.3,0,0.5-0.2,0.5-0.5
	C23.1,27,23.1,26.9,23.1,26.8z M21,25.7l0.3-0.6l0.3,0.6H21z"/>
<path class="st1" d="M25,25.1c-0.6-0.1-0.6-0.2-0.6-0.4c0-0.1,0.2-0.2,0.4-0.2c0.2,0,0.4,0.1,0.7,0.2c0.1,0.1,0.2,0.1,0.3,0.1
	c0.3,0,0.5-0.2,0.5-0.5c0-0.1-0.1-0.3-0.2-0.4c-0.4-0.3-0.7-0.4-1.2-0.4c-0.8,0-1.4,0.5-1.4,1.2c0,0.8,0.7,1.1,1.3,1.2
	c0.6,0.1,0.6,0.2,0.6,0.3c0,0.2-0.2,0.2-0.4,0.2c-0.3,0-0.6-0.1-0.8-0.3c-0.1-0.1-0.2-0.1-0.3-0.1c-0.3,0-0.5,0.2-0.5,0.5
	c0,0.1,0.1,0.3,0.2,0.4c0.4,0.3,0.9,0.5,1.4,0.5c0.8,0,1.4-0.5,1.4-1.2C26.3,25.5,25.6,25.2,25,25.1L25,25.1z"/>
<path class="st1" d="M30,24.5c0,0.2-0.1,0.3-0.2,0.4c-0.2,0.1-0.4,0.1-0.5,0c-0.3-0.2-0.5-0.3-0.8-0.3c-0.6,0-1,0.4-1,1
	c0,0.3,0.1,0.6,0.3,0.8h-0.1c-0.3,0-0.7,0.1-0.9,0.4c-0.2-0.3-0.3-0.7-0.3-1.1c0-1.1,0.9-2,2-2c0.7,0,1.1,0.3,1.4,0.5
	C29.9,24.2,30,24.3,30,24.5z"/>
<path class="st1" d="M29.5,26.2c0.1,0,0.3,0.1,0.4,0.2h-0.7c0,0,0,0,0,0C29.3,26.2,29.4,26.2,29.5,26.2z"/>
<path class="st1" d="M31.4,24.1v2.2h-1v-2.2c0-0.3,0.2-0.5,0.5-0.5S31.4,23.8,31.4,24.1z"/>
<path class="st1" d="M33,24.1v2.2h-1v-2.2c0-0.3,0.2-0.5,0.5-0.5S33,23.8,33,24.1z"/>
<path class="st1" d="M35.4,35.4h-3c-0.3,0-0.5,0.2-0.5,0.5c0,0.3,0.2,0.5,0.5,0.5h1v3.4c0,0.3,0.2,0.5,0.5,0.5
	c0.3,0,0.5-0.2,0.5-0.5v-3.4h1c0.3,0,0.5-0.2,0.5-0.5C35.9,35.7,35.7,35.4,35.4,35.4L35.4,35.4z"/>
<path class="st1" d="M38.7,37.8l1.2-1.6c0.1-0.1,0.1-0.2,0.1-0.3c0-0.3-0.2-0.5-0.5-0.5c-0.2,0-0.4,0.2-0.4,0.2L38.1,37L37,35.6
	c-0.1-0.1-0.2-0.2-0.4-0.2c-0.3,0-0.5,0.2-0.5,0.5c0,0.2,0.1,0.3,0.1,0.3l1.2,1.6l-1.3,1.7c-0.1,0.1-0.1,0.2-0.1,0.3
	c0,0.3,0.2,0.5,0.5,0.5c0.2,0,0.4-0.1,0.4-0.2l1.1-1.5l1.2,1.5c0,0.1,0.2,0.2,0.4,0.2c0.3,0,0.5-0.2,0.5-0.5c0-0.1,0-0.2-0.1-0.3
	L38.7,37.8L38.7,37.8z"/>
<path class="st1" d="M43.8,35.4h-3c-0.3,0-0.5,0.2-0.5,0.5c0,0.3,0.2,0.5,0.5,0.5h1v3.4c0,0.3,0.2,0.5,0.5,0.5
	c0.3,0,0.5-0.2,0.5-0.5v-3.4h1c0.3,0,0.5-0.2,0.5-0.5C44.3,35.7,44.1,35.4,43.8,35.4L43.8,35.4z"/>
<path class="st1" d="M29.1,26.3c-0.2,0.2-0.4,0.3-0.7,0.3c-0.3,0-0.5-0.1-0.7-0.3H29.1z"/>
</svg>
