<svg width="37" height="37" viewBox="0 0 37 37" fill="none" xmlns="http://www.w3.org/2000/svg">
<path d="M21.83 1H3.5C2.11929 1 1 2.11929 1 3.5V21.83C1 23.2107 2.11929 24.33 3.5 24.33H21.83C23.2107 24.33 24.33 23.2107 24.33 21.83V3.5C24.33 2.11929 23.2107 1 21.83 1Z" fill="white" stroke="#1E70B9" stroke-miterlimit="10"/>
<path d="M33.5 12.6699H15.17C13.7893 12.6699 12.67 13.7892 12.67 15.1699V33.4999C12.67 34.8806 13.7893 35.9999 15.17 35.9999H33.5C34.8808 35.9999 36 34.8806 36 33.4999V15.1699C36 13.7892 34.8808 12.6699 33.5 12.6699Z" fill="white" stroke="#1E70B9" stroke-miterlimit="10"/>
<path d="M13.72 13.25L13.46 12.97H13.72V13.25Z" fill="#1E70B9"/>
<path d="M17.8 26.32C18.1 26.34 18.28 26.35 18.35 26.35C18.89 26.35 19.14 26.17 19.14 25.69V21.77H20.26V25.8C20.26 26.84 19.66 27.37 18.59 27.37C18.33 27.37 18.06 27.34 17.8 27.27V26.31V26.32Z" fill="#1E70B9"/>
<path d="M21.53 21.78H23.6C24.75 21.78 25.58 22.5 25.58 23.56C25.58 24.62 24.75 25.34 23.6 25.34H22.66V27.28H21.54V21.78H21.53ZM23.6 24.35C24.13 24.35 24.43 24.02 24.43 23.55C24.43 23.08 24.11 22.77 23.6 22.77H22.66V24.35H23.6Z" fill="#1E70B9"/>
<path d="M29.1 21.68C30.07 21.68 30.88 22.11 31.42 22.87L30.62 23.53C30.23 22.99 29.72 22.72 29.09 22.72C28.04 22.72 27.32 23.48 27.32 24.53C27.32 25.58 28.06 26.37 29.15 26.37C29.78 26.37 30.29 26.11 30.6 25.69V25.24H29.08V24.27H31.72V25.89C31.47 26.33 31.11 26.7 30.65 26.97C30.19 27.25 29.67 27.38 29.1 27.38C27.48 27.41 26.13 26.11 26.16 24.53C26.13 22.95 27.48 21.65 29.1 21.68Z" fill="#1E70B9"/>
<path d="M7.14005 9.8999H6.76005L4.30005 15.4999H5.51005L5.82005 14.7799H8.07005L8.38005 15.4999H9.59005L7.14005 9.8999ZM6.21005 13.8499L6.94005 11.9999L7.68005 13.8499H6.21005Z" fill="#1E70B9"/>
<path d="M13.16 10L11.79 13.33L10.42 10H9.14001L11.6 15.6H11.97L14.42 10H13.16Z" fill="#1E70B9"/>
<path d="M15.17 10V12.97H16.3V10H15.17Z" fill="#1E70B9"/>
<path d="M21.17 11.01V10H17.55V12.97H20.7201V12.39H18.68V11.01H21.17Z" fill="#1E70B9"/>
</svg>
