<svg id="Group_7628" data-name="Group 7628" xmlns="http://www.w3.org/2000/svg" width="210.282" height="48.128" viewBox="0 0 210.282 48.128">
  <path id="Path_10241" data-name="Path 10241" d="M25.507,242.32H51.09s-5.135-6.277-12.587-5.777S25.507,242.32,25.507,242.32Z" transform="translate(-25.507 -235.503)" fill="#05331d"/>
  <path id="Path_10242" data-name="Path 10242" d="M424.345,242.32H398.762s5.135-6.277,12.587-5.777S424.345,242.32,424.345,242.32Z" transform="translate(-214.063 -235.503)" fill="#05331d"/>
  <path id="Path_10243" data-name="Path 10243" d="M224.043,234.04H37.253c-6.959,0-11.746,6.816-11.746,6.816,19.7-17.359,20.285,41.312,41.382,41.312H194.407a10.738,10.738,0,0,0,3.15-.489c17.517-5.078,19.494-57.331,38.232-40.822C235.789,240.856,231,234.04,224.043,234.04Z" transform="translate(-25.507 -234.04)" fill="#0f804a"/>
</svg>
