<svg xmlns="http://www.w3.org/2000/svg" width="36" height="36" viewBox="0 0 36 36">
  <g id="facebook" transform="translate(-1208 -1001)">
    <g id="Path_3837" data-name="Path 3837" transform="translate(1208 1001)" fill="#fff">
      <path d="M 18 35.5 C 13.32557964324951 35.5 8.930950164794922 33.67967987060547 5.625629901885986 30.37437057495117 C 2.320319890975952 27.06904983520508 0.5 22.67441940307617 0.5 18 C 0.5 13.32557964324951 2.320319890975952 8.930950164794922 5.625629901885986 5.625629901885986 C 8.930950164794922 2.320319890975952 13.32557964324951 0.5 18 0.5 C 22.67441940307617 0.5 27.06904983520508 2.320319890975952 30.37437057495117 5.625629901885986 C 33.67967987060547 8.930950164794922 35.5 13.32557964324951 35.5 18 C 35.5 22.67441940307617 33.67967987060547 27.06904983520508 30.37437057495117 30.37437057495117 C 27.06904983520508 33.67967987060547 22.67441940307617 35.5 18 35.5 Z" stroke="none"/>
      <path d="M 18 1 C 13.45914077758789 1 9.190059661865234 2.768310546875 5.979190826416016 5.979190826416016 C 2.768310546875 9.190059661865234 1 13.45914077758789 1 18 C 1 22.54085922241211 2.768310546875 26.80994033813477 5.979190826416016 30.02080917358398 C 9.190059661865234 33.231689453125 13.45914077758789 35 18 35 C 22.54085922241211 35 26.80994033813477 33.231689453125 30.02080917358398 30.02080917358398 C 33.231689453125 26.80994033813477 35 22.54085922241211 35 18 C 35 13.45914077758789 33.231689453125 9.190059661865234 30.02080917358398 5.979190826416016 C 26.80994033813477 2.768310546875 22.54085922241211 1 18 1 M 18 0 C 27.94112014770508 0 36 8.058879852294922 36 18 C 36 27.94112014770508 27.94112014770508 36 18 36 C 8.058879852294922 36 0 27.94112014770508 0 18 C 0 8.058879852294922 8.058879852294922 0 18 0 Z" stroke="none" fill="#0162b8"/>
    </g>
    <path id="Path_3838" data-name="Path 3838" d="M3.258-4.375l.389-2.534H1.215V-8.553A1.267,1.267,0,0,1,2.644-9.922H3.749v-2.157a13.479,13.479,0,0,0-1.962-.171A3.093,3.093,0,0,0-1.524-8.84v1.931H-3.749v2.534h2.226V1.75H1.215V-4.375Z" transform="translate(1226 1024)" fill="#0162b8"/>
  </g>
</svg>
