<svg xmlns="http://www.w3.org/2000/svg" width="36" height="36" viewBox="0 0 36 36">
  <g id="light_more" data-name="light more" transform="translate(1511 -5617)">
    <path id="Path_13577" data-name="Path 13577" d="M35.333,37.833H17a2.5,2.5,0,0,1-2.5-2.5V17A2.5,2.5,0,0,1,17,14.5H35.333a2.5,2.5,0,0,1,2.5,2.5V35.333a2.5,2.5,0,0,1-2.5,2.5" transform="translate(-1525 5603)" fill="#fff"/>
    <rect id="Rectangle_22619" data-name="Rectangle 22619" width="23.333" height="23.333" rx="2.5" transform="translate(-1510.5 5617.5)" fill="none" stroke="#1e70b9" stroke-miterlimit="10" stroke-width="1"/>
    <line id="Line_488" data-name="Line 488" x2="6.208" y2="6.208" transform="translate(-1506.634 5621.366)" fill="#fff"/>
    <line id="Line_489" data-name="Line 489" x2="6.208" y2="6.208" transform="translate(-1506.634 5621.366)" fill="none" stroke="#1e70b9" stroke-linecap="round" stroke-miterlimit="10" stroke-width="1"/>
    <path id="Path_13578" data-name="Path 13578" d="M24.573,21.447v3.126H21.447" transform="translate(-1525 5603)" fill="none" stroke="#1e70b9" stroke-linecap="round" stroke-linejoin="round" stroke-width="1"/>
    <path id="Path_13579" data-name="Path 13579" d="M47,49.5H28.667a2.5,2.5,0,0,1-2.5-2.5V28.667a2.5,2.5,0,0,1,2.5-2.5H47a2.5,2.5,0,0,1,2.5,2.5V47A2.5,2.5,0,0,1,47,49.5" transform="translate(-1525 5603)" fill="#fff"/>
    <rect id="Rectangle_22620" data-name="Rectangle 22620" width="23.333" height="23.333" rx="2.5" transform="translate(-1498.833 5629.167)" fill="none" stroke="#1e70b9" stroke-miterlimit="10" stroke-width="1"/>
    <line id="Line_490" data-name="Line 490" x2="4.852" transform="translate(-1492.712 5636.328)" fill="none" stroke="#1e70b9" stroke-linecap="round" stroke-linejoin="round" stroke-width="1"/>
    <path id="Path_13580" data-name="Path 13580" d="M35.754,31.942v1.386c0,3.063-1.552,5.545-3.466,5.545" transform="translate(-1525 5603)" fill="none" stroke="#1e70b9" stroke-linecap="round" stroke-linejoin="round" stroke-width="1"/>
    <path id="Path_13581" data-name="Path 13581" d="M32.981,36.1c0,1.486,2.046,2.709,4.644,2.773" transform="translate(-1525 5603)" fill="none" stroke="#1e70b9" stroke-linecap="round" stroke-linejoin="round" stroke-width="1"/>
    <path id="Path_13582" data-name="Path 13582" d="M37.833,43.725l2.773-6.238,2.772,6.238" transform="translate(-1525 5603)" fill="none" stroke="#1e70b9" stroke-linecap="round" stroke-linejoin="round" stroke-width="1"/>
    <line id="Line_491" data-name="Line 491" x1="4.298" transform="translate(-1486.543 5645.339)" fill="none" stroke="#1e70b9" stroke-linecap="round" stroke-linejoin="round" stroke-width="1"/>
  </g>
</svg>
