<svg xmlns="http://www.w3.org/2000/svg" width="36" height="36" viewBox="0 0 36 36">
  <g id="linkedin" transform="translate(-1254 -1001)">
    <g id="Ellipse_63" data-name="Ellipse 63" transform="translate(1254 1001)" fill="#fff" stroke="#0162b8" stroke-width="1">
      <circle cx="18" cy="18" r="18" stroke="none"/>
      <circle cx="18" cy="18" r="17.5" fill="none"/>
    </g>
    <path id="Path_3839" data-name="Path 3839" d="M-3.383,0V-8.179h-2.54V0ZM-4.654-9.294a1.483,1.483,0,0,0,1.471-1.485A1.472,1.472,0,0,0-4.654-12.25a1.472,1.472,0,0,0-1.471,1.471A1.483,1.483,0,0,0-4.654-9.294ZM6.122,0h0V-4.493c0-2.2-.473-3.891-3.043-3.891a2.669,2.669,0,0,0-2.4,1.321H.644V-8.179H-1.792V0H.745V-4.05c0-1.066.2-2.1,1.523-2.1,1.3,0,1.32,1.217,1.32,2.166V0Z" transform="translate(1272 1024)" fill="#0162b8"/>
  </g>
</svg>
