<svg xmlns="http://www.w3.org/2000/svg" xmlns:xlink="http://www.w3.org/1999/xlink" width="36" height="36" viewBox="0 0 36 36">
  <defs>
    <clipPath id="clip-BMI_calculator_light_mode">
      <rect width="36" height="36"/>
    </clipPath>
  </defs>
  <g id="BMI_calculator_light_mode" data-name="BMI calculator light mode" clip-path="url(#clip-BMI_calculator_light_mode)">
    <g id="Group_19" data-name="Group 19" transform="translate(-34 -496.22)">
      <path id="Path_26" data-name="Path 26" d="M67,496.22H37a3,3,0,0,0-3,3v30a3.009,3.009,0,0,0,3,3H67a3.009,3.009,0,0,0,3-3v-30A3,3,0,0,0,67,496.22Zm2,33a2.006,2.006,0,0,1-2,2H37a2.006,2.006,0,0,1-2-2v-30a2,2,0,0,1,2-2H67a2,2,0,0,1,2,2Z" fill="#1e70b9"/>
      <path id="Path_27" data-name="Path 27" d="M69,499.22v30a2.006,2.006,0,0,1-2,2H37a2.006,2.006,0,0,1-2-2v-30a2,2,0,0,1,2-2H67A2,2,0,0,1,69,499.22Z" fill="#fff"/>
      <path id="Path_28" data-name="Path 28" d="M52,502.72h-.02a17.762,17.762,0,0,0-11.635,4.342,1.809,1.809,0,0,0-.623,1.308,1.751,1.751,0,0,0,.528,1.315l5.564,5.464a1.75,1.75,0,0,0,2.226.2,7.029,7.029,0,0,1,7.92,0,1.722,1.722,0,0,0,.988.309,1.766,1.766,0,0,0,1.239-.508l5.562-5.464a1.779,1.779,0,0,0,.529-1.319,1.808,1.808,0,0,0-.621-1.3A17.8,17.8,0,0,0,52,502.72Zm3.752,7.138-.817,3.832a7.856,7.856,0,0,0-1.708-.491l1.336-3.69c.148-.415.511-.681.823-.59a.663.663,0,0,1,.393.687A1.179,1.179,0,0,1,55.752,509.858Zm7.3-.885-5.562,5.465a.75.75,0,0,1-.954.091c-.214-.149-.444-.269-.669-.4l.866-4.063a2.156,2.156,0,0,0,.05-.464,1.635,1.635,0,0,0-1.121-1.649,1.733,1.733,0,0,0-2.036,1.213l-1.429,3.947c-.065,0-.128-.014-.193-.014a7.89,7.89,0,0,0-4.532,1.424.749.749,0,0,1-.953-.09l-5.565-5.466a.757.757,0,0,1-.228-.571.811.811,0,0,1,.278-.583,16.764,16.764,0,0,1,10.98-4.1H52a16.8,16.8,0,0,1,11,4.1.792.792,0,0,1,.276.578A.759.759,0,0,1,63.048,508.973Z" fill="#1e70b9"/>
    </g>
  </g>
</svg>
