<svg xmlns="http://www.w3.org/2000/svg" xmlns:xlink="http://www.w3.org/1999/xlink" width="36" height="36" viewBox="0 0 36 36">
  <defs>
    <clipPath id="clip-BMP_To_PDF_Light_Mode_">
      <rect width="36" height="36"/>
    </clipPath>
  </defs>
  <g id="BMP_To_PDF_Light_Mode_" data-name="BMP To PDF (Light Mode)" clip-path="url(#clip-BMP_To_PDF_Light_Mode_)">
    <g id="Group_69" data-name="Group 69" transform="translate(-36 -119.333)">
      <g id="Group_68" data-name="Group 68">
        <g id="Group_64" data-name="Group 64">
          <g id="Group_59" data-name="Group 59">
            <g id="Group_58" data-name="Group 58">
              <rect id="Rectangle_14" data-name="Rectangle 14" width="23.333" height="23.333" rx="2.5" transform="translate(36.5 119.833)" fill="#fff"/>
              <path id="Path_27" data-name="Path 27" d="M57.334,143.667H39a3,3,0,0,1-3-3V122.333a3,3,0,0,1,3-3H57.334a3,3,0,0,1,3,3v18.334A3,3,0,0,1,57.334,143.667ZM39,120.333a2,2,0,0,0-2,2v18.334a2,2,0,0,0,2,2H57.334a2,2,0,0,0,2-2V122.333a2,2,0,0,0-2-2Z" fill="#1e70b9"/>
            </g>
          </g>
          <g id="Group_63" data-name="Group 63">
            <g id="Group_60" data-name="Group 60">
              <path id="Path_28" data-name="Path 28" d="M40.12,129.193a.488.488,0,0,1,.5-.495h2.016a1.991,1.991,0,0,1,1.463.495,1.267,1.267,0,0,1,.376.928v.015a1.325,1.325,0,0,1-.8,1.248,1.365,1.365,0,0,1,1.111,1.36v.015c0,1-.823,1.535-2.07,1.535h-2.1a.488.488,0,0,1-.5-.5Zm2.311,1.863c.639,0,1.055-.248,1.055-.76v-.015c0-.448-.343-.712-.983-.712H41.088v1.487Zm.288,2.367c.672,0,1.079-.256,1.079-.767v-.017c0-.479-.376-.751-1.151-.751H41.088v1.535Z" fill="#1e70b9"/>
            </g>
            <g id="Group_61" data-name="Group 61">
              <path id="Path_29" data-name="Path 29" d="M45.416,129.162a.488.488,0,0,1,.5-.5h.1a.521.521,0,0,1,.456.263l1.694,2.654,1.7-2.662a.5.5,0,0,1,.449-.255h.1a.488.488,0,0,1,.5.5v4.685a.482.482,0,0,1-.5.487.494.494,0,0,1-.487-.487v-3.358l-1.367,2.054a.48.48,0,0,1-.416.256.468.468,0,0,1-.409-.256L46.384,130.5v3.351a.468.468,0,0,1-.488.479.462.462,0,0,1-.48-.479Z" fill="#1e70b9"/>
            </g>
            <g id="Group_62" data-name="Group 62">
              <path id="Path_30" data-name="Path 30" d="M51.88,129.193a.488.488,0,0,1,.495-.495h1.712a1.878,1.878,0,0,1,2.126,1.871v.015c0,1.248-1,1.912-2.238,1.912H52.863v1.351a.475.475,0,0,1-.488.487.481.481,0,0,1-.495-.487Zm2.127,2.415c.743,0,1.207-.416,1.207-1v-.017c0-.663-.472-1-1.207-1H52.863v2.015Z" fill="#1e70b9"/>
            </g>
          </g>
        </g>
        <g id="Group_67" data-name="Group 67">
          <g id="Group_65" data-name="Group 65">
            <rect id="Rectangle_15" data-name="Rectangle 15" width="23.333" height="23.333" rx="2.5" transform="translate(48.167 131.5)" fill="#fff"/>
            <path id="Path_31" data-name="Path 31" d="M69,155.333H50.667a3,3,0,0,1-3-3V134a3,3,0,0,1,3-3H69a3,3,0,0,1,3,3v18.333A3,3,0,0,1,69,155.333ZM50.667,132a2,2,0,0,0-2,2v18.333a2,2,0,0,0,2,2H69a2,2,0,0,0,2-2V134a2,2,0,0,0-2-2Z" fill="#1e70b9"/>
          </g>
          <g id="Group_66" data-name="Group 66">
            <path id="Path_32" data-name="Path 32" d="M54.468,149.9a1.383,1.383,0,0,1-.933-.4,1.591,1.591,0,0,1-.435-1.493,1.225,1.225,0,0,1,.528-.777,14.7,14.7,0,0,1,3.172-1.773,34.254,34.254,0,0,0,1.865-3.886,8.9,8.9,0,0,1-1-2.892,2.744,2.744,0,0,1,.094-1.243c.311-1,.995-1.027,1.275-1,.062,0,1.15.155,1.337,1.71a8.407,8.407,0,0,1-.716,3.389,10.808,10.808,0,0,0,2.426,2.86,14.352,14.352,0,0,1,3.513.4,1.316,1.316,0,0,1,.715.435,1.153,1.153,0,0,1,.218,1.212h0a1.288,1.288,0,0,1-.249.436,1.2,1.2,0,0,1-1.523.342,16.523,16.523,0,0,1-2.985-1.959,13.055,13.055,0,0,0-4.291.9c-.529.963-1.182,2.021-1.928,3.2a1.31,1.31,0,0,1-.591.5h0C54.748,149.871,54.592,149.9,54.468,149.9Zm1.523-3.141a11.651,11.651,0,0,0-1.834,1.151c-.093.093-.187.186-.187.28a.74.74,0,0,0,.249.684.444.444,0,0,0,.373.093h0a.256.256,0,0,0,.156-.155C55.183,148.1,55.618,147.414,55.991,146.761Zm7.245-1.492a17.464,17.464,0,0,0,1.866,1.119.3.3,0,0,0,.373-.093.852.852,0,0,0,.124-.218c.062-.155.062-.217-.031-.311a.6.6,0,0,0-.28-.155A11.722,11.722,0,0,0,63.236,145.269ZM59.194,142.5c-.311.715-.684,1.523-1.181,2.456a14.217,14.217,0,0,1,2.736-.56A15.558,15.558,0,0,1,59.194,142.5Zm-.311-5.224c-.124,0-.218.124-.311.4a1.864,1.864,0,0,0-.062.84,7.763,7.763,0,0,0,.529,1.8,6.207,6.207,0,0,0,.4-2.114c-.094-.84-.529-.933-.56-.933Z" fill="#1e70b9"/>
          </g>
        </g>
      </g>
    </g>
  </g>
</svg>
