<svg xmlns="http://www.w3.org/2000/svg" width="11.753" height="15.18" viewBox="0 0 11.753 15.18">
  <path id="Path_1836" data-name="Path 1836" d="M13.5-4.462A3.81,3.81,0,0,0,10.81-8.211a3.591,3.591,0,0,0,1.127-2.737c0-2.484-2-4.232-4.807-4.232H1.748V0H8.51C11.431,0,13.5-1.84,13.5-4.462Zm-6.624-8.05c1.265,0,1.978.644,1.978,1.725S8.142-9.039,6.877-9.039H4.738v-3.473Zm3.565,7.935c0,1.2-.8,1.909-2.162,1.909H4.738V-6.486H8.28C9.637-6.486,10.442-5.75,10.442-4.577Z" transform="translate(-1.748 15.18)" fill="#505050"/>
</svg>
