<svg width="14" height="12" xmlns="http://www.w3.org/2000/svg" xmlns:xlink="http://www.w3.org/1999/xlink" xmlns:svgjs="http://svgjs.com/svgjs" viewBox="473 420 14 12"><svg width="8" height="10" xmlns="http://www.w3.org/2000/svg" xmlns:xlink="http://www.w3.org/1999/xlink" xmlns:svgjs="http://svgjs.com/svgjs" viewBox="0.148 0 7.703 10" fill="#9aa0aa" x="476" y="420"><svg xmlns="http://www.w3.org/2000/svg" xmlns:xlink="http://www.w3.org/1999/xlink" width="8" height="10" viewBox="0.584 0.134 6.832 8.869"><path paint-order="stroke fill markers" fill-rule="evenodd" d="M3.494 8.793c.28.28.733.28 1.012 0l2.7-2.7A.716.716 0 0 0 6.194 5.08L4.716 6.558V.85a.716.716 0 1 0-1.432 0v5.708L1.806 5.08A.716.716 0 1 0 .794 6.093l2.7 2.7z"/></svg></svg><svg width="14" height="8" xmlns="http://www.w3.org/2000/svg" xmlns:xlink="http://www.w3.org/1999/xlink" xmlns:svgjs="http://svgjs.com/svgjs" viewBox="0 0.138 14 7.724" fill="#9aa0aa" x="473" y="424"><svg xmlns="http://www.w3.org/2000/svg" width="14" height="8" viewBox="0.079 0.229 13.842 7.637"><path paint-order="stroke fill markers" fill-rule="evenodd" d="M13.205.23a.716.716 0 0 0-.716.715v5.49H1.51V.944a.716.716 0 0 0-1.432 0v5.728c0 .659.534 1.193 1.193 1.193h11.456c.659 0 1.193-.534 1.193-1.193V.945a.716.716 0 0 0-.716-.716z"/></svg></svg></svg>