<svg width="16" height="16" xmlns="http://www.w3.org/2000/svg" xmlns:xlink="http://www.w3.org/1999/xlink" xmlns:svgjs="http://svgjs.com/svgjs" fill="#9aa0aa"><svg xmlns="http://www.w3.org/2000/svg" width="16" height="16" viewBox="0.794 0.794 14.412 14.412"><path paint-order="stroke fill markers" fill-rule="evenodd" d="M14.606.794H4.303c-.333 0-.6.268-.6.6v1.774h-2.31c-.331 0-.6.267-.6.6v10.838c0 .333.269.6.6.6h10.304c.332 0 .6-.267.6-.6v-1.773h2.309a.6.6 0 0 0 .6-.6V1.394a.6.6 0 0 0-.6-.6zm-3.512 13.212h-9.1V4.368h9.1v9.638zm2.909-2.373h-1.709V3.768c0-.333-.268-.6-.6-.6H4.9V1.994H14v9.639h.003z"/></svg></svg>