<svg width="14" height="16" xmlns="http://www.w3.org/2000/svg" xmlns:xlink="http://www.w3.org/1999/xlink" xmlns:svgjs="http://svgjs.com/svgjs" viewBox="0.077 0 13.846 16" fill="#9aa0aa"><svg xmlns="http://www.w3.org/2000/svg" width="14" height="16" viewBox="0.718 0.74 12.564 14.518"><path paint-order="stroke fill markers" fill-rule="evenodd" d="M12.584 3.532H9.792a2.792 2.792 0 1 0-5.584 0H1.416a.698.698 0 1 0 0 1.396h.28v8.516A1.818 1.818 0 0 0 3.51 15.26h6.98a1.818 1.818 0 0 0 1.815-1.815V4.928h.279a.698.698 0 1 0 0-1.396zM7 2.136c.77 0 1.396.626 1.396 1.396H5.604c0-.77.625-1.396 1.396-1.396zm3.909 11.308a.42.42 0 0 1-.42.419H3.51a.419.419 0 0 1-.418-.419V4.928h7.818v8.516z"/></svg></svg>