<svg width="13" height="13" xmlns="http://www.w3.org/2000/svg" xmlns:xlink="http://www.w3.org/1999/xlink" xmlns:svgjs="http://svgjs.com/svgjs" viewBox="1178 381 13 13"><svg width="6" height="6" xmlns="http://www.w3.org/2000/svg" xmlns:xlink="http://www.w3.org/1999/xlink" xmlns:svgjs="http://svgjs.com/svgjs" viewBox="0 0.008 6 5.984" fill="#fff" x="1185" y="388"><svg xmlns="http://www.w3.org/2000/svg" xmlns:xlink="http://www.w3.org/1999/xlink" width="6" height="6" viewBox="0.952 0.965 5.048 5.035"><path paint-order="stroke fill markers" fill-rule="evenodd" d="M6 2.368c0-.38-.291-.687-.653-.687-.358 0-.652.307-.652.687v1.42L2.063 1.157a.653.653 0 0 0-.921.922l2.62 2.618H2.347c-.385 0-.696.292-.696.652 0 .36.31.651.696.651h2.956c.385 0 .695-.29.697-.651l-.004-.027C5.997 5.31 6 5.296 6 5.283V2.368z"/></svg></svg><svg width="7" height="6" xmlns="http://www.w3.org/2000/svg" xmlns:xlink="http://www.w3.org/1999/xlink" xmlns:svgjs="http://svgjs.com/svgjs" viewBox="0.492 0 6.016 6" fill="#fff" x="1178" y="388"><svg xmlns="http://www.w3.org/2000/svg" xmlns:xlink="http://www.w3.org/1999/xlink" width="7" height="6" viewBox="1 0.965 5.048 5.035"><path paint-order="stroke fill markers" fill-rule="evenodd" d="M4.935 1.156l-2.63 2.633V2.368c0-.38-.294-.686-.653-.687-.36 0-.651.307-.651.687L1 5.284c0 .012.003.026.004.038 0 .009-.002.016-.003.026 0 .361.31.652.696.652h2.957c.384 0 .695-.291.695-.652 0-.359-.311-.65-.695-.652H3.239l2.619-2.618a.652.652 0 1 0-.922-.923z"/></svg></svg><svg width="6" height="7" xmlns="http://www.w3.org/2000/svg" xmlns:xlink="http://www.w3.org/1999/xlink" xmlns:svgjs="http://svgjs.com/svgjs" viewBox="0 0.508 6 5.985" fill="#fff" x="1185" y="381"><svg xmlns="http://www.w3.org/2000/svg" xmlns:xlink="http://www.w3.org/1999/xlink" width="6" height="7" viewBox="0.952 1 5.048 5.035"><path paint-order="stroke fill markers" fill-rule="evenodd" d="M2.063 5.843l2.632-2.63v1.42c0 .378.294.684.652.686.362 0 .652-.308.652-.686V1.716c0-.012-.002-.026-.004-.037L6 1.652C6 1.29 5.69 1 5.303 1H2.347c-.385 0-.696.29-.696.652 0 .359.31.651.696.652h1.415l-2.62 2.618a.65.65 0 1 0 .921.921z"/></svg></svg><svg width="7" height="7" xmlns="http://www.w3.org/2000/svg" xmlns:xlink="http://www.w3.org/1999/xlink" xmlns:svgjs="http://svgjs.com/svgjs" viewBox="0 0.009 7 6.981" fill="#fff" x="1178" y="381"><svg xmlns="http://www.w3.org/2000/svg" width="7" height="7" viewBox="1 1 5.048 5.035"><path paint-order="stroke fill markers" fill-rule="evenodd" d="M3.239 2.304h1.414c.385 0 .695-.293.695-.652 0-.361-.31-.652-.695-.652H1.697c-.385 0-.695.29-.696.652l.003.027c0 .011-.004.024-.004.037v2.918c0 .378.292.685.652.685.36-.001.653-.307.653-.685V3.212l2.63 2.631a.652.652 0 0 0 .922-.92L3.24 2.304z"/></svg></svg></svg>