<svg width="18" height="18" viewBox="0 0 18 18" fill="none" xmlns="http://www.w3.org/2000/svg">
<path d="M6 12.0004L12.0004 6" stroke="black" stroke-width="2" stroke-linecap="round" stroke-linejoin="round"/>
<path d="M8 3.00044L8.46303 2.4644C9.4009 1.52667 10.6729 0.999906 11.9991 1C13.3254 1.00009 14.5973 1.52704 15.535 2.4649C16.4727 3.40277 16.9995 4.67474 16.9994 6.00099C16.9993 7.32725 16.4724 8.59914 15.5345 9.53688L15.0005 10.0009" stroke="black" stroke-width="2" stroke-linecap="round" stroke-linejoin="round"/>
<path d="M10.0007 15.0005L9.60372 15.5345C8.6549 16.4728 7.37436 16.999 6.03998 16.999C4.7056 16.999 3.42506 16.4728 2.47624 15.5345C2.00857 15.0721 1.63728 14.5215 1.38388 13.9145C1.13048 13.3076 1 12.6565 1 11.9988C1 11.3411 1.13048 10.6899 1.38388 10.083C1.63728 9.47608 2.00857 8.92546 2.47624 8.46303L3.00028 8" stroke="black" stroke-width="2" stroke-linecap="round" stroke-linejoin="round"/>
</svg>
