<svg width="36" height="36" viewBox="0 0 36 36" fill="none" xmlns="http://www.w3.org/2000/svg">
<path d="M31.8883 0.98999H4.09828C2.38068 0.98999 0.988281 2.38239 0.988281 4.09999V31.89C0.988281 33.6076 2.38068 35 4.09828 35H31.8883C33.6059 35 34.9983 33.6076 34.9983 31.89V4.09999C34.9983 2.38239 33.6059 0.98999 31.8883 0.98999Z" stroke="#1E70B9" stroke-miterlimit="10" stroke-linecap="round"/>
<path d="M8.80859 21.16H27.1886" stroke="#1E70B9" stroke-miterlimit="10" stroke-linecap="round"/>
<path d="M8.80859 27.7101H20.1886" stroke="#1E70B9" stroke-miterlimit="10" stroke-linecap="round"/>
<path d="M23.0014 12.89C23.0014 12.89 22.9614 12.95 22.9414 12.98C22.4714 13.93 21.9914 14.87 21.5214 15.82C21.4914 15.89 21.4514 15.91 21.3714 15.91C20.6814 15.91 20.0014 15.91 19.3114 15.91C19.2814 15.91 19.2414 15.91 19.1914 15.91C19.7014 14.89 20.2014 13.88 20.7114 12.86H18.4414V8.28003H23.0014V12.88V12.89Z" stroke="#1E70B9" stroke-miterlimit="10" stroke-linecap="round"/>
<path d="M13.0998 15.91C13.6098 14.89 14.1098 13.8901 14.6198 12.8701H12.3398V8.30005H16.8998C16.8998 8.30005 16.8998 8.38005 16.8998 8.42005C16.8998 9.87005 16.8998 11.3201 16.8998 12.7701C16.8998 12.8301 16.8798 12.9 16.8598 12.96C16.3898 13.92 15.9098 14.87 15.4298 15.83C15.3998 15.9 15.3598 15.93 15.2798 15.92C14.5898 15.92 13.8998 15.92 13.2098 15.92C13.1798 15.92 13.1498 15.92 13.0998 15.92V15.91Z" stroke="#1E70B9" stroke-miterlimit="10" stroke-linecap="round"/>
</svg>
