<svg width="17" height="17" viewBox="0 0 17 17" fill="none" xmlns="http://www.w3.org/2000/svg">
<path d="M5.25 7.04168C5.25 6.56649 5.43877 6.11078 5.77477 5.77477C6.11078 5.43877 6.56649 5.25 7.04168 5.25H14.2084C14.6836 5.25 15.1393 5.43877 15.4753 5.77477C15.8113 6.11078 16.0001 6.56649 16.0001 7.04168V14.2084C16.0001 14.6836 15.8113 15.1393 15.4753 15.4753C15.1393 15.8113 14.6836 16.0001 14.2084 16.0001H7.04168C6.56649 16.0001 6.11078 15.8113 5.77477 15.4753C5.43877 15.1393 5.25 14.6836 5.25 14.2084V7.04168Z" stroke="black" stroke-width="1.5" stroke-linecap="round" stroke-linejoin="round"/>
<path d="M12.4171 5.25004V3.45836C12.4171 2.98318 12.2283 2.52746 11.8923 2.19146C11.5563 1.85545 11.1006 1.66669 10.6254 1.66669H3.45867C2.98349 1.66669 2.52777 1.85545 2.19176 2.19146C1.85576 2.52746 1.66699 2.98318 1.66699 3.45836V10.6251C1.66699 11.1003 1.85576 11.556 2.19176 11.892C2.52777 12.228 2.98349 12.4167 3.45867 12.4167H5.25035" stroke="black" stroke-width="1.5" stroke-linecap="round" stroke-linejoin="round"/>
</svg>
