<svg xmlns="http://www.w3.org/2000/svg" width="27.25" height="36" viewBox="0 0 27.25 36">
  <g id="Group_131" data-name="Group 131" transform="translate(-607.571 -724.267)">
    <g id="Group_107" data-name="Group 107" transform="translate(-397.234 841.854)">
      <g id="Group_33" data-name="Group 33">
        <path id="Path_29" data-name="Path 29" d="M1029.055-82.087H1007.8a2.5,2.5,0,0,1-2.5-2.5v-30a2.5,2.5,0,0,1,2.5-2.5H1022.5a2.5,2.5,0,0,1,1.768.732l6.556,6.556a2.5,2.5,0,0,1,.732,1.768v23.444A2.5,2.5,0,0,1,1029.055-82.087Z" fill="#fff" stroke="#1e70b9" stroke-miterlimit="10" stroke-width="1"/>
        <path id="Path_30" data-name="Path 30" d="M1021.92-113.7v6.25h6.25" fill="none" stroke="#1e70b9" stroke-linecap="round" stroke-linejoin="round" stroke-width="1"/>
      </g>
    </g>
    <g id="Group_112" data-name="Group 112" transform="translate(-397.234 841.854)">
      <line id="Line_31" data-name="Line 31" y2="11.52" transform="translate(1011.88 -117.087)" fill="none" stroke="#1e70b9" stroke-linecap="round" stroke-miterlimit="10" stroke-width="1"/>
      <line id="Line_32" data-name="Line 32" x2="3" transform="translate(1010.38 -115.545)" fill="none" stroke="#1e70b9" stroke-linecap="round" stroke-miterlimit="10" stroke-width="1"/>
      <line id="Line_33" data-name="Line 33" x2="3" transform="translate(1010.38 -113.545)" fill="none" stroke="#1e70b9" stroke-linecap="round" stroke-miterlimit="10" stroke-width="1"/>
      <line id="Line_34" data-name="Line 34" x2="3" transform="translate(1010.38 -111.545)" fill="none" stroke="#1e70b9" stroke-linecap="round" stroke-miterlimit="10" stroke-width="1"/>
      <line id="Line_35" data-name="Line 35" x2="3" transform="translate(1010.38 -109.545)" fill="none" stroke="#1e70b9" stroke-linecap="round" stroke-miterlimit="10" stroke-width="1"/>
      <path id="Path_31" data-name="Path 31" d="M1011.88-104.59h0a1.575,1.575,0,0,1-1.575-1.575v-1.13a.25.25,0,0,1,.25-.25h2.65a.249.249,0,0,1,.25.25v1.13A1.575,1.575,0,0,1,1011.88-104.59Z" fill="#fff" stroke="#1e70b9" stroke-miterlimit="10" stroke-width="1"/>
    </g>
    <text id="_300KB" data-name="300KB" transform="translate(611.719 756.218)" fill="#1e70b9" font-size="5.89" font-family="NunitoSans-ExtraBold, Nunito Sans" font-weight="800"><tspan x="0" y="0">300KB</tspan></text>
    <rect id="Rectangle_60" data-name="Rectangle 60" width="19.442" height="8.638" rx="1.38" transform="translate(611.494 739.926)" fill="#fff" stroke="#1e70b9" stroke-miterlimit="10" stroke-width="1"/>
    <g id="Group_108" data-name="Group 108" transform="translate(-397.234 841.854)">
      <path id="Path_32" data-name="Path 32" d="M1013.311-100.3H1011.7a.5.5,0,0,0-.5.5v4.391a.494.494,0,0,0,.5.495.49.49,0,0,0,.495-.495v-1.239h1.013c1.3,0,2.148-.722,2.148-1.839V-98.5A1.811,1.811,0,0,0,1013.311-100.3Zm-.076,2.746h-1.043v-1.831h1.043c.7,0,1.1.331,1.1.908v.015C1014.339-97.922,1013.9-97.557,1013.235-97.557Z" fill="#1e70b9"/>
      <path id="Path_33" data-name="Path 33" d="M1018.24-100.3h-1.5a.5.5,0,0,0-.5.5v4.346a.5.5,0,0,0,.5.5h1.5a2.672,2.672,0,0,0,2.842-2.676v-.016A2.665,2.665,0,0,0,1018.24-100.3Zm1.8,2.691a1.678,1.678,0,0,1-1.8,1.746h-1.005v-3.522h1.005a1.7,1.7,0,0,1,1.8,1.761Z" fill="#1e70b9"/>
      <path id="Path_34" data-name="Path 34" d="M1025.722-99.388a.458.458,0,0,0,.457-.458.457.457,0,0,0-.457-.457h-3.079a.5.5,0,0,0-.5.5v4.391a.494.494,0,0,0,.5.495.49.49,0,0,0,.495-.495V-97.1h2.244a.458.458,0,0,0,.458-.458.458.458,0,0,0-.458-.458h-2.244v-1.37Z" fill="#1e70b9"/>
    </g>
  </g>
</svg>
