<svg xmlns="http://www.w3.org/2000/svg" width="27.25" height="36" viewBox="0 0 27.25 36">
  <g id="Group_124" data-name="Group 124" transform="translate(-441.375 -562.921)">
    <g id="Group_117" data-name="Group 117" transform="translate(-397.234 841.854)">
      <g id="Group_2" data-name="Group 2">
        <g id="Group_1" data-name="Group 1">
          <path id="Path_1" data-name="Path 1" d="M862.859-243.433h-21.25a2.5,2.5,0,0,1-2.5-2.5v-30a2.5,2.5,0,0,1,2.5-2.5H856.3a2.5,2.5,0,0,1,1.767.732l6.557,6.556a2.5,2.5,0,0,1,.732,1.768v23.444A2.5,2.5,0,0,1,862.859-243.433Z" fill="#fff" stroke="#1e70b9" stroke-miterlimit="10" stroke-width="1"/>
          <path id="Path_2" data-name="Path 2" d="M855.724-275.048v6.25h6.25" fill="none" stroke="#1e70b9" stroke-linecap="round" stroke-linejoin="round" stroke-width="1"/>
        </g>
      </g>
      <g id="Group_3" data-name="Group 3">
        <line id="Line_1" data-name="Line 1" y2="11.52" transform="translate(845.684 -278.433)" fill="none" stroke="#1e70b9" stroke-linecap="round" stroke-miterlimit="10" stroke-width="1"/>
        <line id="Line_2" data-name="Line 2" x2="3" transform="translate(844.184 -276.891)" fill="none" stroke="#1e70b9" stroke-linecap="round" stroke-miterlimit="10" stroke-width="1"/>
        <line id="Line_3" data-name="Line 3" x2="3" transform="translate(844.184 -274.891)" fill="none" stroke="#1e70b9" stroke-linecap="round" stroke-miterlimit="10" stroke-width="1"/>
        <line id="Line_4" data-name="Line 4" x2="3" transform="translate(844.184 -272.891)" fill="none" stroke="#1e70b9" stroke-linecap="round" stroke-miterlimit="10" stroke-width="1"/>
        <line id="Line_5" data-name="Line 5" x2="3" transform="translate(844.184 -270.891)" fill="none" stroke="#1e70b9" stroke-linecap="round" stroke-miterlimit="10" stroke-width="1"/>
        <path id="Path_3" data-name="Path 3" d="M845.684-265.936h0a1.575,1.575,0,0,1-1.575-1.575v-1.13a.25.25,0,0,1,.25-.25h2.65a.25.25,0,0,1,.25.25v1.13A1.575,1.575,0,0,1,845.684-265.936Z" fill="#fff" stroke="#1e70b9" stroke-miterlimit="10" stroke-width="1"/>
      </g>
      <g id="Group_5" data-name="Group 5">
        <g id="Group_4" data-name="Group 4">
          <rect id="Rectangle_2" data-name="Rectangle 2" width="12.199" height="12.199" rx="2.5" transform="translate(846.135 -264.285)" fill="#fff" stroke="#1e70b9" stroke-miterlimit="10" stroke-width="1"/>
        </g>
        <path id="Path_4" data-name="Path 4" d="M846.135-255.21l3.091-3.15,3.738,3.15,2.314-1.8,3.057,1.831" fill="none" stroke="#1e70b9" stroke-linecap="round" stroke-linejoin="round" stroke-width="1"/>
        <circle id="Ellipse_1" data-name="Ellipse 1" cx="1.029" cy="1.029" r="1.029" transform="translate(853.936 -261.854)" fill="none" stroke="#1e70b9" stroke-linecap="round" stroke-linejoin="round" stroke-width="1"/>
      </g>
      <text id="_50KB" data-name="50KB" transform="translate(845.684 -245.8)" fill="#1e70b9" font-size="5.395" font-family="NunitoSans-ExtraBold, Nunito Sans" font-weight="800"><tspan x="0" y="0">50KB</tspan></text>
    </g>
  </g>
</svg>
