<svg width="30" height="31" viewBox="0 0 30 31" fill="none" xmlns="http://www.w3.org/2000/svg">
<path d="M26.6 1.03027H3.79999C2.41928 1.03027 1.29999 2.14956 1.29999 3.53027V27.3103C1.29999 28.691 2.41928 29.8103 3.79999 29.8103H26.6C27.9807 29.8103 29.1 28.691 29.1 27.3103V3.53027C29.1 2.14956 27.9807 1.03027 26.6 1.03027Z" fill="white" stroke="#1E70B9" stroke-miterlimit="10"/>
<path d="M7.23999 17.8193H15.55" stroke="#1E70B9" stroke-miterlimit="10" stroke-linecap="round"/>
<path d="M7.23999 12.8193H11.55" stroke="#1E70B9" stroke-miterlimit="10" stroke-linecap="round"/>
<path d="M7.23999 22.8193H22.55" stroke="#1E70B9" stroke-miterlimit="10" stroke-linecap="round"/>
<path d="M16.6 12.1798C16.6 14.4798 18.47 16.3498 20.77 16.3498C23.07 16.3498 24.94 14.4798 24.94 12.1798C24.94 9.87977 23.07 8.00977 20.77 8.00977C18.47 8.00977 16.6 9.87977 16.6 12.1798Z" stroke="#1E70B9" stroke-miterlimit="10" stroke-linecap="round"/>
<path d="M19.38 12.1798L20.31 13.1098L22.16 11.2598" stroke="#1E70B9" stroke-miterlimit="10" stroke-linecap="round"/>
</svg>
