<svg width="37" height="37" viewBox="0 0 37 37" fill="none" xmlns="http://www.w3.org/2000/svg">
<path d="M21.83 1H3.5C2.11929 1 1 2.11929 1 3.5V21.83C1 23.2107 2.11929 24.33 3.5 24.33H21.83C23.2107 24.33 24.33 23.2107 24.33 21.83V3.5C24.33 2.11929 23.2107 1 21.83 1Z" fill="white" stroke="#1E70B9" stroke-miterlimit="10"/>
<path d="M33.5 12.6699H15.17C13.7893 12.6699 12.67 13.7892 12.67 15.1699V33.4999C12.67 34.8806 13.7893 35.9999 15.17 35.9999H33.5C34.8807 35.9999 36 34.8806 36 33.4999V15.1699C36 13.7892 34.8807 12.6699 33.5 12.6699Z" fill="white" stroke="#1E70B9" stroke-miterlimit="10"/>
<path d="M4.87 4.87012L11.07 11.0701" stroke="#1E70B9" stroke-miterlimit="10" stroke-linecap="round"/>
<path d="M11.07 7.9502V11.0702H7.95001" stroke="#1E70B9" stroke-linecap="round" stroke-linejoin="round"/>
<path d="M16.23 26.0598C16.66 26.0598 17 26.3998 17 26.8298C17 27.2598 16.68 27.5998 16.23 27.5998C15.78 27.5998 15.45 27.2698 15.45 26.8298C15.45 26.3898 15.79 26.0598 16.23 26.0598Z" fill="#1E70B9"/>
<path d="M18.41 25.8099C18.77 26.2999 19.16 26.6099 19.76 26.6099C20.25 26.6099 20.54 26.3799 20.54 25.9999C20.54 25.6699 20.36 25.5599 19.84 25.3199L19.25 25.0499C18.41 24.6699 17.92 24.1999 17.92 23.4699C17.92 22.5299 18.7 21.9099 19.74 21.9099C20.58 21.9099 21.21 22.3199 21.56 22.9499L20.79 23.5399C20.51 23.1199 20.16 22.9099 19.74 22.9099C19.35 22.9099 19.06 23.0999 19.06 23.4399C19.06 23.7299 19.23 23.8599 19.7 24.0699L20.32 24.3499C21.24 24.7599 21.68 25.2199 21.68 25.9599C21.68 26.9699 20.86 27.6099 19.76 27.6099C18.83 27.6099 18.06 27.1399 17.64 26.3899L18.42 25.8099H18.41Z" fill="#1E70B9"/>
<path d="M27.31 22.01L24.86 27.61H24.48L22.02 22.01H23.3L24.68 25.34L26.05 22.01H27.32H27.31Z" fill="#1E70B9"/>
<path d="M30.51 21.9099C31.47 21.9099 32.29 22.3399 32.82 23.0999L32.02 23.7599C31.63 23.2199 31.12 22.9499 30.49 22.9499C29.44 22.9499 28.72 23.7099 28.72 24.7599C28.72 25.8099 29.46 26.5999 30.55 26.5999C31.18 26.5999 31.69 26.3399 32 25.9199V25.4699H30.48V24.4999H33.12V26.1199C32.87 26.5599 32.51 26.9299 32.05 27.1999C31.59 27.4799 31.08 27.6099 30.5 27.6099C28.88 27.6399 27.53 26.3399 27.56 24.7599C27.53 23.1799 28.88 21.8799 30.5 21.9099H30.51Z" fill="#1E70B9"/>
</svg>
