<svg width="46" height="44" viewBox="0 0 46 44" fill="none" xmlns="http://www.w3.org/2000/svg">
<path d="M38.4971 24.0348L34.8237 25.0611L31.0059 31.526C33.1765 33.6966 34.5882 36.6613 34.5882 39.9436C34.5882 40.6847 35.1705 41.2671 35.9118 41.2671H43.853C44.5942 41.2671 45.1765 40.6847 45.1765 39.9436C45.1765 33.7495 42.5736 28.1112 38.4971 24.0348ZM27.2671 33.4814L23.524 37.2246C23.007 37.7415 23.007 38.5791 23.524 39.0961C24.041 39.6131 24.8786 39.6131 25.3955 39.0961L29.1387 35.353C29.6556 34.836 29.6556 33.9984 29.1387 33.4814C28.6217 32.9645 27.7842 32.9645 27.2671 33.4814Z" fill="#C8B5FF"/>
<path d="M19.7809 37.2246C18.2325 38.773 18.2325 41.2908 19.7809 42.8392C21.3294 44.3877 23.8487 44.3862 25.3956 42.8392C26.944 41.2908 26.944 38.773 25.3956 37.2246C23.8472 35.6761 21.3293 35.6761 19.7809 37.2246ZM22.5882 17.4436C10.1735 17.4436 0 27.5289 0 39.9436C0 40.6847 0.582265 41.2672 1.32353 41.2672H9.2647C10.006 41.2672 10.5882 40.6847 10.5882 39.9436C10.5882 33.3788 16.0236 28.0319 22.5882 28.0319C25.8706 28.0319 28.8353 29.3554 31.0059 31.526L38.4971 24.0348C34.4205 19.9584 28.7824 17.4436 22.5882 17.4436Z" fill="#815AF6"/>
<path d="M28.7539 14.305L33.8648 4.24521C34.1244 3.73559 34.002 3.11792 33.5679 2.73967C33.1324 2.36511 32.4947 2.32093 32.0131 2.63656L25.738 6.75287L23.7116 0.769954C23.3648 -0.256651 21.6353 -0.256651 21.2885 0.769954L19.2621 6.75279L12.9869 2.63647C12.504 2.32084 11.8689 2.36511 11.4322 2.73958C10.9979 3.11783 10.8757 3.73551 11.1352 4.24512L16.2461 14.3049C16.4633 14.7311 16.9049 15 17.3891 15H27.6109C28.0951 15.0001 28.5368 14.7312 28.7539 14.305Z" fill="#FDBF00"/>
</svg>
