<svg width="25" height="25" viewBox="0 0 25 25" fill="none" xmlns="http://www.w3.org/2000/svg">
<g clip-path="url(#clip0_790_82)">
<path d="M23.3007 10.5079L20.5566 19.8243L17.6563 21.465H10.3027L4.44333 19.8243C4.44333 19.8243 2.28516 12.456 1.80165 10.8302L1.69922 10.5079C1.64067 10.3028 1.66985 10.0831 1.78696 9.89273L3.50091 9.18949L7.79778 10.8594L11.0645 5.29297H13.9354L17.2022 10.8594L21.499 9.18949L23.3007 10.5079Z" fill="#FFD400"/>
<path d="M23.3007 10.5079L20.5566 19.8243L17.6563 21.465H12.5V5.29297H13.9355L17.2022 10.8594L21.4991 9.18949L23.3007 10.5079Z" fill="#FDBF00"/>
<path d="M4.44336 19.8242V22.0215C4.44336 22.4316 4.76551 22.7539 5.17578 22.7539H19.8242C20.2345 22.7539 20.5566 22.4316 20.5566 22.0215V19.8242H4.44336Z" fill="#FDBF00"/>
<path d="M12.5 2.24609C11.2841 2.24609 10.3027 3.22742 10.3027 4.44336C10.3027 5.68848 11.3281 6.64062 12.5 6.64062C13.7159 6.64062 14.6973 5.64461 14.6973 4.44336C14.6973 3.22742 13.7159 2.24609 12.5 2.24609Z" fill="#FDBF00"/>
<path d="M22.8027 11.0352C22.1834 11.0352 21.6433 10.7941 21.245 10.3956C20.8221 9.95007 20.6055 9.41658 20.6055 8.83789C20.6055 7.62634 21.5912 6.64062 22.8027 6.64062C24.0143 6.64062 25 7.62634 25 8.83789C25 10.0494 24.0143 11.0352 22.8027 11.0352Z" fill="#FF9F00"/>
<path d="M2.19727 11.0352C0.985718 11.0352 0 10.0494 0 8.83789C0 7.62634 0.985718 6.64062 2.19727 6.64062C3.40881 6.64062 4.39453 7.62634 4.39453 8.83789C4.39453 10.0636 3.40786 11.0352 2.19727 11.0352Z" fill="#FDBF00"/>
<path d="M12.5 6.64062V2.24609C13.7159 2.24609 14.6973 3.22742 14.6973 4.44336C14.6973 5.64461 13.7159 6.64062 12.5 6.64062Z" fill="#FF9F00"/>
<path d="M20.5566 19.8242V22.0215C20.5566 22.4316 20.2345 22.7539 19.8242 22.7539H12.5V19.8242H20.5566Z" fill="#FF9F00"/>
<path d="M16.1328 13.2617C16.0448 12.9834 15.8106 12.7931 15.5323 12.7492L13.8916 12.5148L13.1592 11.0645C13.0274 10.8302 12.7636 10.6982 12.5 10.6982C12.2364 10.6982 11.9727 10.8302 11.8409 11.0645L11.1084 12.5148L9.46773 12.7492C9.18945 12.7931 8.95523 12.9834 8.8673 13.2617C8.79406 13.5255 8.8673 13.8185 9.07234 14.0088L10.2442 15.1368L9.96593 16.719C9.92187 16.9826 10.0245 17.2609 10.2589 17.4367C10.4786 17.5979 10.7863 17.6124 11.0205 17.4953L12.5 16.7335L13.9796 17.4953C14.2285 17.6271 14.5214 17.5977 14.7414 17.4367C14.9756 17.2609 15.0782 16.9826 15.0341 16.7188L14.7559 15.1368L15.9277 14.0088C16.1328 13.8185 16.2062 13.5255 16.1328 13.2617Z" fill="#FF9F00"/>
<path d="M13.9795 17.4953L12.5 16.7335V10.6982C12.7636 10.6982 13.0274 10.8302 13.1592 11.0645L13.8916 12.5148L15.5323 12.7492C15.8106 12.7931 16.0448 12.9834 16.1327 13.2617C16.206 13.5255 16.1327 13.8185 15.9277 14.0088L14.7558 15.1368L15.0341 16.719C15.0782 16.9826 14.9755 17.2609 14.7411 17.4367C14.5214 17.5977 14.2284 17.6271 13.9795 17.4953Z" fill="#FF7816"/>
</g>
<defs>
<clipPath id="clip0_790_82">
<rect width="25" height="25" fill="white"/>
</clipPath>
</defs>
</svg>
