<svg xmlns="http://www.w3.org/2000/svg" xmlns:xlink="http://www.w3.org/1999/xlink" width="36" height="36" viewBox="0 0 36 36">
  <defs>
    <clipPath id="clip-Delete_Pages_From_PDF_Light_Mode_">
      <rect width="36" height="36"/>
    </clipPath>
  </defs>
  <g id="Delete_Pages_From_PDF_Light_Mode_" data-name="Delete Pages From PDF (Light Mode)" clip-path="url(#clip-Delete_Pages_From_PDF_Light_Mode_)">
    <g id="Group_106" data-name="Group 106" transform="translate(-290 -119.333)">
      <g id="Group_105" data-name="Group 105">
        <g id="Group_98" data-name="Group 98">
          <g id="Group_97" data-name="Group 97">
            <g id="Group_91" data-name="Group 91">
              <path id="Path_41" data-name="Path 41" d="M318.625,154.833h-21.25a2.5,2.5,0,0,1-2.5-2.5v-30a2.5,2.5,0,0,1,2.5-2.5h14.694a2.5,2.5,0,0,1,1.767.733l6.557,6.556a2.5,2.5,0,0,1,.732,1.768v23.443A2.5,2.5,0,0,1,318.625,154.833Z" fill="#fff"/>
              <path id="Path_42" data-name="Path 42" d="M318.625,155.333h-21.25a3,3,0,0,1-3-3v-30a3,3,0,0,1,3-3h14.694a2.98,2.98,0,0,1,2.121.879l6.556,6.557a2.977,2.977,0,0,1,.879,2.121v23.443A3,3,0,0,1,318.625,155.333Zm-21.25-35a2,2,0,0,0-2,2v30a2,2,0,0,0,2,2h21.25a2,2,0,0,0,2-2V128.89a1.983,1.983,0,0,0-.586-1.414l-6.556-6.557a1.991,1.991,0,0,0-1.414-.586Z" fill="#1e70b9"/>
            </g>
            <g id="Group_92" data-name="Group 92">
              <path id="Path_43" data-name="Path 43" d="M317.74,129.969h-6.25a.5.5,0,0,1-.5-.5v-6.25a.5.5,0,0,1,1,0v5.75h5.75a.5.5,0,0,1,0,1Z" fill="#1e70b9"/>
            </g>
            <g id="Group_96" data-name="Group 96">
              <g id="Group_93" data-name="Group 93">
                <path id="Path_44" data-name="Path 44" d="M316.259,151.333H299.74a.5.5,0,0,1,0-1h16.519a.5.5,0,0,1,0,1Z" fill="#1e70b9"/>
              </g>
              <g id="Group_94" data-name="Group 94">
                <path id="Path_45" data-name="Path 45" d="M316.259,147.583H305.99a.5.5,0,0,1,0-1h10.269a.5.5,0,0,1,0,1Z" fill="#1e70b9"/>
              </g>
              <g id="Group_95" data-name="Group 95">
                <path id="Path_46" data-name="Path 46" d="M302.509,147.583H299.74a.5.5,0,0,1,0-1h2.769a.5.5,0,0,1,0,1Z" fill="#1e70b9"/>
              </g>
            </g>
          </g>
        </g>
        <g id="Group_104" data-name="Group 104">
          <g id="Group_99" data-name="Group 99">
            <path id="Path_47" data-name="Path 47" d="M312.948,134.937h-9.9a.5.5,0,0,1,0-1h9.9a.5.5,0,0,1,0,1Z" fill="#1e70b9"/>
          </g>
          <g id="Group_100" data-name="Group 100">
            <path id="Path_48" data-name="Path 48" d="M306.763,141.121a.5.5,0,0,1-.5-.5v-3.71a.5.5,0,1,1,1,0v3.71A.5.5,0,0,1,306.763,141.121Z" fill="#1e70b9"/>
          </g>
          <g id="Group_101" data-name="Group 101">
            <path id="Path_49" data-name="Path 49" d="M309.237,141.121a.5.5,0,0,1-.5-.5v-3.71a.5.5,0,1,1,1,0v3.71A.5.5,0,0,1,309.237,141.121Z" fill="#1e70b9"/>
          </g>
          <g id="Group_102" data-name="Group 102">
            <path id="Path_50" data-name="Path 50" d="M310.473,143.6h-4.947a1.739,1.739,0,0,1-1.736-1.737l-.617-7.38a.5.5,0,1,1,1-.083l.619,7.421a.751.751,0,0,0,.738.779h4.947a.739.739,0,0,0,.738-.737l.62-7.463a.51.51,0,0,1,.54-.457.5.5,0,0,1,.456.54l-.618,7.421A1.729,1.729,0,0,1,310.473,143.6Z" fill="#1e70b9"/>
          </g>
          <g id="Group_103" data-name="Group 103">
            <path id="Path_51" data-name="Path 51" d="M309.855,134.937a.5.5,0,0,1-.5-.5v-1.855a.118.118,0,0,0-.118-.119h-2.474a.119.119,0,0,0-.119.119v1.855a.5.5,0,1,1-1,0v-1.855a1.12,1.12,0,0,1,1.119-1.119h2.474a1.12,1.12,0,0,1,1.118,1.119v1.855A.5.5,0,0,1,309.855,134.937Z" fill="#1e70b9"/>
          </g>
        </g>
      </g>
    </g>
  </g>
</svg>
