<svg id="Group_2097" data-name="Group 2097" xmlns="http://www.w3.org/2000/svg" width="104.779" height="98.694" viewBox="0 0 104.779 98.694">
  <g id="Group_2048" data-name="Group 2048" transform="translate(1.176 1.176)">
    <g id="Group_2047" data-name="Group 2047">
      <g id="Group_2046" data-name="Group 2046">
        <rect id="Rectangle_454" data-name="Rectangle 454" width="67.861" height="86.977" fill="#fff"/>
      </g>
    </g>
  </g>
  <g id="Group_2051" data-name="Group 2051" transform="translate(1.176 1.176)">
    <g id="Group_2050" data-name="Group 2050">
      <g id="Group_2049" data-name="Group 2049">
        <rect id="Rectangle_455" data-name="Rectangle 455" width="67.861" height="19.299" fill="#e3e7ed"/>
      </g>
    </g>
  </g>
  <g id="Group_2054" data-name="Group 2054">
    <g id="Group_2053" data-name="Group 2053">
      <g id="Group_2052" data-name="Group 2052">
        <path id="Path_1493" data-name="Path 1493" d="M292.071,260.073H221.857V170.744h70.214Zm-67.861-2.353h65.509V173.1H224.21Z" transform="translate(-221.857 -170.744)" fill="#cacfd6"/>
      </g>
    </g>
  </g>
  <g id="Group_2057" data-name="Group 2057" transform="translate(11.992 42.402)">
    <g id="Group_2056" data-name="Group 2056">
      <g id="Group_2055" data-name="Group 2055">
        <rect id="Rectangle_456" data-name="Rectangle 456" width="47.152" height="2.353" fill="#cacfd6"/>
      </g>
    </g>
  </g>
  <g id="Group_2060" data-name="Group 2060" transform="translate(11.992 30.754)">
    <g id="Group_2059" data-name="Group 2059">
      <g id="Group_2058" data-name="Group 2058">
        <rect id="Rectangle_457" data-name="Rectangle 457" width="47.152" height="2.353" fill="#cacfd6"/>
      </g>
    </g>
  </g>
  <g id="Group_2063" data-name="Group 2063" transform="translate(11.992 53.872)">
    <g id="Group_2062" data-name="Group 2062">
      <g id="Group_2061" data-name="Group 2061">
        <rect id="Rectangle_458" data-name="Rectangle 458" width="23.576" height="2.353" fill="#cacfd6"/>
      </g>
    </g>
  </g>
  <g id="Group_2066" data-name="Group 2066" transform="translate(11.841 65.343)">
    <g id="Group_2065" data-name="Group 2065">
      <g id="Group_2064" data-name="Group 2064">
        <rect id="Rectangle_459" data-name="Rectangle 459" width="16.024" height="2.353" fill="#cacfd6"/>
      </g>
    </g>
  </g>
  <g id="Group_2069" data-name="Group 2069" transform="translate(11.841 76.813)">
    <g id="Group_2068" data-name="Group 2068">
      <g id="Group_2067" data-name="Group 2067">
        <rect id="Rectangle_460" data-name="Rectangle 460" width="12.5" height="2.353" fill="#cacfd6"/>
      </g>
    </g>
  </g>
  <g id="Group_2096" data-name="Group 2096" transform="translate(33.297 33.07)">
    <g id="Group_2075" data-name="Group 2075" transform="translate(1.201 20.886)">
      <g id="Group_2074" data-name="Group 2074">
        <g id="Group_2073" data-name="Group 2073">
          <g id="Group_2072" data-name="Group 2072">
            <g id="Group_2071" data-name="Group 2071">
              <g id="Group_2070" data-name="Group 2070">
                <path id="Path_1494" data-name="Path 1494" d="M374.9,385.859a17.359,17.359,0,0,0,1.011-1.567,17.167,17.167,0,0,0,.985-2.031l6.17-1.594-.145-5.41-.144-5.4-6.246-1.267a16.808,16.808,0,0,0-1.741-2.914l1.837-6.1-9.393-5.364-4.317,4.68a16.927,16.927,0,0,0-3.789.021l-4.368-4.635-4.668,2.735-4.67,2.729,1.9,6.077a16.986,16.986,0,0,0-2,3.6l-6.168,1.591.145,5.41.142,5.408,6.244,1.261a17.11,17.11,0,0,0,1.742,2.919L345.6,392.1,355,397.466l4.315-4.676a17.137,17.137,0,0,0,3.791-.024l4.368,4.635,4.666-2.731,4.668-2.735Zm-18.541-1.693a9.588,9.588,0,1,1,13.081-3.569A9.588,9.588,0,0,1,356.362,384.166Z" transform="translate(-339.163 -354.214)" fill="#fff"/>
              </g>
            </g>
          </g>
        </g>
      </g>
    </g>
    <g id="Group_2082" data-name="Group 2082" transform="translate(0 19.4)">
      <g id="Group_2081" data-name="Group 2081">
        <g id="Group_2080" data-name="Group 2080">
          <g id="Group_2079" data-name="Group 2079">
            <g id="Group_2078" data-name="Group 2078">
              <g id="Group_2077" data-name="Group 2077">
                <g id="Group_2076" data-name="Group 2076">
                  <path id="Path_1495" data-name="Path 1495" d="M352.342,395.385l-11.019-6.292,1.937-6.436a18.33,18.33,0,0,1-1.251-2.1l-6.594-1.331-.337-12.691,6.514-1.68a17.876,17.876,0,0,1,.818-1.619c.229-.4.477-.8.739-1.187l-2.01-6.42,10.955-6.41,4.612,4.895a18.194,18.194,0,0,1,2.859-.016l4.559-4.942,11.019,6.292-1.939,6.437a18.058,18.058,0,0,1,1.249,2.092l6.595,1.337.339,12.686-6.516,1.683c-.251.563-.524,1.105-.818,1.62-.229.4-.476.8-.738,1.184l2.007,6.416-10.951,6.413-4.613-4.895a18.345,18.345,0,0,1-2.86.018Zm-8.227-7.407,7.767,4.435,4.08-4.422.587.061a16.019,16.019,0,0,0,3.531-.023l.588-.069,4.132,4.385,7.719-4.521-1.8-5.745.346-.478a15.781,15.781,0,0,0,1.86-3.352l.223-.547,5.835-1.507-.239-8.942-5.909-1.2-.251-.536a15.657,15.657,0,0,0-1.619-2.71l-.354-.475,1.738-5.766-7.767-4.435L360.5,356.56l-.589-.064a15.849,15.849,0,0,0-3.526.02l-.588.069-4.131-4.384-7.722,4.519,1.8,5.746-.346.478a16.236,16.236,0,0,0-.945,1.464,15.909,15.909,0,0,0-.917,1.892l-.224.547-5.832,1.5.237,8.945,5.906,1.192.251.537a15.964,15.964,0,0,0,1.623,2.719l.351.474Zm14.109-4.94a10.762,10.762,0,1,1,9.356-5.425A10.769,10.769,0,0,1,358.225,383.039Zm.015-19.179a8.419,8.419,0,1,0,4.164,1.11A8.439,8.439,0,0,0,358.24,363.86Z" transform="translate(-335.079 -349.162)" fill="#cacfd6"/>
                </g>
              </g>
            </g>
          </g>
        </g>
      </g>
    </g>
    <g id="Group_2088" data-name="Group 2088" transform="translate(39.777 1.486)">
      <g id="Group_2087" data-name="Group 2087">
        <g id="Group_2086" data-name="Group 2086">
          <g id="Group_2085" data-name="Group 2085">
            <g id="Group_2084" data-name="Group 2084">
              <g id="Group_2083" data-name="Group 2083">
                <path id="Path_1496" data-name="Path 1496" d="M495.164,310.233a12.062,12.062,0,0,0,.7-1.089,11.939,11.939,0,0,0,.684-1.411l4.287-1.107-.1-3.759-.1-3.755-4.339-.88a11.679,11.679,0,0,0-1.209-2.025l1.276-4.235-6.526-3.726-3,3.251a11.753,11.753,0,0,0-2.632.014l-3.035-3.22-3.243,1.9-3.245,1.9,1.323,4.222a11.819,11.819,0,0,0-1.388,2.5l-4.285,1.105.1,3.759.1,3.757,4.338.876a11.9,11.9,0,0,0,1.21,2.028l-1.274,4.233,6.526,3.726,3-3.249a11.908,11.908,0,0,0,2.634-.017L490,318.252l3.242-1.9,3.243-1.9Zm-12.882-1.177a6.661,6.661,0,1,1,9.088-2.479A6.661,6.661,0,0,1,482.282,309.056Z" transform="translate(-470.333 -288.247)" fill="#fff"/>
              </g>
            </g>
          </g>
        </g>
      </g>
    </g>
    <g id="Group_2095" data-name="Group 2095" transform="translate(38.575)">
      <g id="Group_2094" data-name="Group 2094">
        <g id="Group_2093" data-name="Group 2093">
          <g id="Group_2092" data-name="Group 2092">
            <g id="Group_2091" data-name="Group 2091">
              <g id="Group_2090" data-name="Group 2090">
                <g id="Group_2089" data-name="Group 2089">
                  <path id="Path_1497" data-name="Path 1497" d="M478.679,316.216l-8.152-4.655,1.379-4.581a13.142,13.142,0,0,1-.715-1.2l-4.693-.948-.249-9.388,4.636-1.2c.159-.345.328-.675.513-1,.136-.237.28-.472.431-.7l-1.431-4.569,8.1-4.742,3.283,3.484a12.842,12.842,0,0,1,1.7-.009l3.244-3.517,8.152,4.655-1.38,4.582a12.968,12.968,0,0,1,.714,1.2l4.693.952.251,9.385-4.638,1.2c-.159.346-.331.68-.513,1-.135.236-.279.471-.43.7L495,311.428l-8.1,4.744-3.283-3.484a13.162,13.162,0,0,1-1.7.011Zm-5.359-5.769,4.9,2.8,2.763-2.995.587.061a10.786,10.786,0,0,0,2.374-.015l.588-.069,2.8,2.97,4.869-2.852-1.217-3.891.346-.478a10.6,10.6,0,0,0,1.25-2.254l.223-.547,3.952-1.02-.151-5.641-4-.812-.251-.536a10.539,10.539,0,0,0-1.088-1.821l-.354-.475,1.177-3.905-4.9-2.8-2.766,3-.589-.064a10.636,10.636,0,0,0-2.369.013l-.588.069-2.8-2.969-4.872,2.851,1.219,3.89-.346.478a10.943,10.943,0,0,0-.635.985,10.688,10.688,0,0,0-.617,1.272l-.223.547-3.95,1.018.15,5.643,4,.808.251.537a10.71,10.71,0,0,0,1.09,1.827l.351.474Zm9.377-2.9a7.838,7.838,0,1,1,6.812-3.95A7.838,7.838,0,0,1,482.7,307.544Zm.011-13.325a5.489,5.489,0,1,0,2.715.723A5.5,5.5,0,0,0,482.707,294.218Z" transform="translate(-466.249 -283.194)" fill="#cacfd6"/>
                </g>
              </g>
            </g>
          </g>
        </g>
      </g>
    </g>
  </g>
</svg>
