<svg xmlns="http://www.w3.org/2000/svg" width="14" height="14.211" viewBox="0 0 14 14.211">
  <g id="edit_3_" data-name="edit (3)" transform="translate(-8 -6.254)">
    <path id="Path_1640" data-name="Path 1640" d="M19.945,12.155a.52.52,0,0,0-.519.519v6.232a.52.52,0,0,1-.519.519H9.558a.52.52,0,0,1-.519-.519V9.558a.52.52,0,0,1,.519-.519h6.232a.519.519,0,1,0,0-1.039H9.558A1.56,1.56,0,0,0,8,9.558v9.349a1.56,1.56,0,0,0,1.558,1.558h9.349a1.56,1.56,0,0,0,1.558-1.558V12.674A.52.52,0,0,0,19.945,12.155Z"/>
    <g id="edit_1_" data-name="edit (1)" transform="translate(-1.211 16.254)">
      <g id="Group_2220" data-name="Group 2220" transform="translate(13 -10)">
        <g id="Group_2219" data-name="Group 2219">
          <path id="Path_1638" data-name="Path 1638" d="M0,74.171V76.3H2.128l6.278-6.278L6.278,67.893Z" transform="translate(0 -66.087)"/>
          <path id="Path_1639" data-name="Path 1639" d="M261.832,1.491,260.507.166a.568.568,0,0,0-.8,0L258.666,1.2l2.128,2.128,1.038-1.038A.568.568,0,0,0,261.832,1.491Z" transform="translate(-251.787)"/>
        </g>
      </g>
    </g>
  </g>
</svg>
