<svg xmlns="http://www.w3.org/2000/svg" xmlns:xlink="http://www.w3.org/1999/xlink" width="36" height="36" viewBox="0 0 36 36">
  <defs>
    <clipPath id="clip-EMF_To_PDF_Light_Mode_">
      <rect width="36" height="36"/>
    </clipPath>
  </defs>
  <g id="EMF_To_PDF_Light_Mode_" data-name="EMF To PDF (Light Mode)" clip-path="url(#clip-EMF_To_PDF_Light_Mode_)">
    <g id="Group_196" data-name="Group 196" transform="translate(-205.334 -301.435)">
      <g id="Group_195" data-name="Group 195">
        <g id="Group_191" data-name="Group 191">
          <g id="Group_186" data-name="Group 186">
            <g id="Group_185" data-name="Group 185">
              <rect id="Rectangle_40" data-name="Rectangle 40" width="23.333" height="23.333" rx="2.5" transform="translate(205.833 301.934)" fill="#fff"/>
              <path id="Path_90" data-name="Path 90" d="M226.667,325.768H208.334a3,3,0,0,1-3-3V304.435a3,3,0,0,1,3-3h18.333a3,3,0,0,1,3,3v18.333A3,3,0,0,1,226.667,325.768Zm-18.333-23.333a2,2,0,0,0-2,2v18.333a2,2,0,0,0,2,2h18.333a2,2,0,0,0,2-2V304.435a2,2,0,0,0-2-2Z" fill="#1e70b9"/>
            </g>
          </g>
          <g id="Group_190" data-name="Group 190">
            <g id="Group_187" data-name="Group 187">
              <path id="Path_91" data-name="Path 91" d="M210.22,316.395a.488.488,0,0,1-.495-.5v-4.6a.487.487,0,0,1,.495-.495h3.255a.439.439,0,1,1,0,.878h-2.767v1.456h2.407a.441.441,0,0,1,.44.448.426.426,0,0,1-.44.431h-2.407v1.5h2.807a.44.44,0,1,1,0,.88Z" fill="#1e70b9"/>
            </g>
            <g id="Group_188" data-name="Group 188">
              <path id="Path_92" data-name="Path 92" d="M214.6,311.262a.488.488,0,0,1,.5-.5h.1a.523.523,0,0,1,.456.264l1.694,2.654,1.7-2.662a.5.5,0,0,1,.448-.256h.1a.488.488,0,0,1,.5.5v4.686a.482.482,0,0,1-.5.487.493.493,0,0,1-.487-.487V312.59l-1.368,2.054a.48.48,0,0,1-.416.256.47.47,0,0,1-.408-.256l-1.358-2.039v3.351a.469.469,0,0,1-.489.479.462.462,0,0,1-.479-.479Z" fill="#1e70b9"/>
            </g>
            <g id="Group_189" data-name="Group 189">
              <path id="Path_93" data-name="Path 93" d="M221.069,311.294a.487.487,0,0,1,.495-.495h3.263a.447.447,0,1,1,0,.895h-2.775v1.527h2.415a.448.448,0,1,1,0,.9h-2.415v1.831a.475.475,0,0,1-.488.487.481.481,0,0,1-.495-.487Z" fill="#1e70b9"/>
            </g>
          </g>
        </g>
        <g id="Group_194" data-name="Group 194">
          <g id="Group_192" data-name="Group 192">
            <rect id="Rectangle_41" data-name="Rectangle 41" width="23.333" height="23.333" rx="2.5" transform="translate(217.5 313.601)" fill="#fff"/>
            <path id="Path_94" data-name="Path 94" d="M238.334,337.435H220a3,3,0,0,1-3-3V316.1a3,3,0,0,1,3-3h18.334a3,3,0,0,1,3,3v18.334A3,3,0,0,1,238.334,337.435ZM220,314.1a2,2,0,0,0-2,2v18.334a2,2,0,0,0,2,2h18.334a2,2,0,0,0,2-2V316.1a2,2,0,0,0-2-2Z" fill="#1e70b9"/>
          </g>
          <g id="Group_193" data-name="Group 193">
            <path id="Path_95" data-name="Path 95" d="M223.8,332a1.378,1.378,0,0,1-.933-.4,1.59,1.59,0,0,1-.435-1.492,1.222,1.222,0,0,1,.529-.777,14.616,14.616,0,0,1,3.171-1.773A34.113,34.113,0,0,0,228,323.67a8.876,8.876,0,0,1-.995-2.892,2.762,2.762,0,0,1,.093-1.244c.311-.995.995-1.026,1.275-.995.062,0,1.15.156,1.337,1.71a8.414,8.414,0,0,1-.715,3.39,10.8,10.8,0,0,0,2.425,2.86,14.343,14.343,0,0,1,3.513.4,1.324,1.324,0,0,1,.716.436,1.151,1.151,0,0,1,.217,1.212h0a1.3,1.3,0,0,1-.248.436,1.2,1.2,0,0,1-1.524.342,16.524,16.524,0,0,1-2.985-1.959,13.087,13.087,0,0,0-4.291.9c-.528.964-1.181,2.021-1.927,3.2a1.312,1.312,0,0,1-.591.5h0C224.081,331.971,223.926,332,223.8,332Zm1.524-3.141a11.626,11.626,0,0,0-1.835,1.151c-.093.093-.186.186-.186.279a.736.736,0,0,0,.249.684.442.442,0,0,0,.373.094h0a.254.254,0,0,0,.155-.156C224.516,330.2,224.952,329.515,225.325,328.862Zm7.244-1.492a17.464,17.464,0,0,0,1.866,1.119.3.3,0,0,0,.373-.093.872.872,0,0,0,.124-.218c.063-.155.063-.218-.031-.311a.6.6,0,0,0-.279-.155A11.733,11.733,0,0,0,232.569,327.37Zm-4.042-2.768c-.311.716-.684,1.524-1.181,2.457a14.142,14.142,0,0,1,2.736-.56A15.58,15.58,0,0,1,228.527,324.6Zm-.311-5.223c-.124,0-.217.124-.31.4a1.85,1.85,0,0,0-.063.84,7.814,7.814,0,0,0,.529,1.8,6.21,6.21,0,0,0,.4-2.114c-.093-.84-.528-.933-.56-.933Z" fill="#1e70b9"/>
          </g>
        </g>
      </g>
    </g>
  </g>
</svg>
