<svg xmlns="http://www.w3.org/2000/svg" width="33" height="33" viewBox="0 0 33 33">
  <g id="Group_5579" data-name="Group 5579" transform="translate(1998.435 19668.176)">
    <circle id="Ellipse_611" data-name="Ellipse 611" cx="16.5" cy="16.5" r="16.5" transform="translate(-1998.435 -19635.176) rotate(-90)" fill="#ffc402"/>
    <path id="Path_10371" data-name="Path 10371" d="M567.21,277.34a3.58,3.58,0,0,0-2.972-2.254,2.936,2.936,0,0,0-3.055,1.7.585.585,0,0,0,.85.654c.852-.5,1.76-1.035,2.736-.455.7.417,1.312,1.457,2.244.835A.442.442,0,0,0,567.21,277.34Z" transform="translate(-2549.897 -19937.527)" fill="#fff"/>
    <path id="Path_10372" data-name="Path 10372" d="M621.652,285.965a3.143,3.143,0,0,0-3.237.638c-.41.48-.033,1.367.663,1.14s1.286-.573,2.039-.276c.651.257.847.873,1.343,1.287a.716.716,0,0,0,1.206-.5C623.709,287.172,622.584,286.286,621.652,285.965Z" transform="translate(-2594.924 -19945.971)" fill="#fff"/>
    <path id="Path_10373" data-name="Path 10373" d="M615.953,312.22a2,2,0,0,0-3.163-.534,4.62,4.62,0,0,0-1.275,2.583,3.26,3.26,0,0,0,.1,1.781,1.983,1.983,0,0,0,1.778,1.265,2.45,2.45,0,0,0,2.146-1.489,3.719,3.719,0,0,0,.255-.493A3.619,3.619,0,0,0,615.953,312.22Z" transform="translate(-2589.556 -19965.965)" fill="#fff"/>
    <path id="Path_10374" data-name="Path 10374" d="M560.554,302.325c-.415-1-1.416-1.327-2.321-1.818a14.5,14.5,0,0,0-3.4-1.627.489.489,0,0,0-.472.811,10.448,10.448,0,0,0,2.242,1.6l1.2.74c.044.027.113.063.2.1a9.934,9.934,0,0,0-2.432,1.176c-.871.584-2.163,1.447-2,2.632a.409.409,0,0,0,.39.3c.972.084,1.883-.988,2.656-1.466a12.068,12.068,0,0,1,3.354-1.434A.833.833,0,0,0,560.554,302.325Z" transform="translate(-2543.909 -19956.291)" fill="#fff"/>
    <path id="Path_10375" data-name="Path 10375" d="M574.631,344.933c-.065-.088-.136-.178-.211-.268a.519.519,0,0,0-.276-.3,1.923,1.923,0,0,0-1.228-.638.394.394,0,0,0-.378.5,2.757,2.757,0,0,0,.39.652,12.839,12.839,0,0,1-1.317.955,7.29,7.29,0,0,1-3.073.883,3.936,3.936,0,0,1-2.946-.952c-.548-.507-.892-1.253-1.388-1.813.077-.043.154-.085.235-.123.362-.169,1.4-.594.906-1.15-.475-.535-1.48,0-1.934.286a2.939,2.939,0,0,0-1.438,1.706.375.375,0,0,0,.543.418,5.016,5.016,0,0,0,.648-.413,6.118,6.118,0,0,0,1.626,2.353,5.525,5.525,0,0,0,3.589,1.373,8.152,8.152,0,0,0,3.847-.893,5.6,5.6,0,0,0,1.691-1.2c.253.43.64.918,1.084.514C575.577,346.286,574.977,345.4,574.631,344.933Z" transform="translate(-2550.536 -19990.66)" fill="#fff"/>
  </g>
</svg>
