<svg xmlns="http://www.w3.org/2000/svg" width="17.971" height="16.17" viewBox="0 0 17.971 16.17">
  <g id="alert" transform="translate(-172.146 -133.268)">
    <path id="Path_1991" data-name="Path 1991" d="M174.084,149.438h14.095a1.935,1.935,0,0,0,1.679-2.9l-7.047-12.3a1.935,1.935,0,0,0-3.358,0l-7.047,12.3A1.935,1.935,0,0,0,174.084,149.438Z" transform="translate(0)" fill="#fff"/>
    <g id="Group_3224" data-name="Group 3224" transform="translate(180.298 137.423)">
      <g id="Group_3222" data-name="Group 3222" transform="translate(0.005 0)">
        <path id="Path_1993" data-name="Path 1993" d="M249.1,178.946a.828.828,0,0,1-.828-.828V172.87a.828.828,0,0,1,1.656,0v5.248A.828.828,0,0,1,249.1,178.946Z" transform="translate(-248.274 -172.042)" fill="#c9252d"/>
      </g>
      <g id="Group_3223" data-name="Group 3223" transform="translate(0 7.923)">
        <circle id="Ellipse_252" data-name="Ellipse 252" cx="0.833" cy="0.833" r="0.833" fill="#c9252d"/>
      </g>
    </g>
  </g>
</svg>
