<svg width="30" height="36" viewBox="0 0 30 36" fill="none" xmlns="http://www.w3.org/2000/svg">
<path d="M26.44 1.32031H3.64001C2.2593 1.32031 1.14001 2.4396 1.14001 3.82031V32.1803C1.14001 33.561 2.2593 34.6803 3.64001 34.6803H26.44C27.8207 34.6803 28.94 33.561 28.94 32.1803V3.82031C28.94 2.4396 27.8207 1.32031 26.44 1.32031Z" fill="white" stroke="#1E70B9" stroke-miterlimit="10"/>
<path d="M8.65002 20.7305H21.42" stroke="#1E70B9" stroke-miterlimit="10" stroke-linecap="round"/>
<path d="M8.65002 25.6006H21.42" stroke="#1E70B9" stroke-miterlimit="10" stroke-linecap="round"/>
<path d="M10.32 15.4H12.78L19.25 8.92996C19.93 8.24996 19.93 7.14996 19.25 6.46996C18.57 5.78996 17.47 5.78996 16.79 6.46996L10.32 12.94V15.4Z" stroke="#1E70B9" stroke-miterlimit="10" stroke-linecap="round"/>
<path d="M16.17 7.08008L18.63 9.54008" stroke="#1E70B9" stroke-miterlimit="10" stroke-linecap="round"/>
</svg>
