<svg width="30" height="30" viewBox="0 0 30 30" fill="none" xmlns="http://www.w3.org/2000/svg">
<path d="M26.72 0.669922H3.91998C2.53927 0.669922 1.41998 1.78921 1.41998 3.16992V26.9499C1.41998 28.3306 2.53927 29.4499 3.91998 29.4499H26.72C28.1007 29.4499 29.22 28.3306 29.22 26.9499V3.16992C29.22 1.78921 28.1007 0.669922 26.72 0.669922Z" fill="white" stroke="#1E70B9" stroke-miterlimit="10"/>
<path d="M7.37 17.46H15.68" stroke="#1E70B9" stroke-miterlimit="10" stroke-linecap="round"/>
<path d="M7.37 22.46H22.68" stroke="#1E70B9" stroke-miterlimit="10" stroke-linecap="round"/>
<path d="M9.57001 7.30957H7.51001V11.4296H9.57001" stroke="#1E70B9" stroke-miterlimit="10" stroke-linecap="round"/>
<path d="M7.51001 9.36914H8.79999" stroke="#1E70B9" stroke-miterlimit="10" stroke-linecap="round"/>
<path d="M11.31 10.9093C11.31 11.1893 11.54 11.4193 11.82 11.4193H12.85C13.13 11.4193 13.36 11.1893 13.36 10.9093V9.87934C13.36 9.59934 13.13 9.36934 12.85 9.36934H11.82C11.54 9.36934 11.31 9.13934 11.31 8.85934V7.82934C11.31 7.54934 11.54 7.31934 11.82 7.31934H12.85C13.13 7.31934 13.36 7.54934 13.36 7.82934" stroke="#1E70B9" stroke-miterlimit="10" stroke-linecap="round"/>
<path d="M15.11 10.9093C15.11 11.1893 15.34 11.4193 15.62 11.4193H16.65C16.93 11.4193 17.16 11.1893 17.16 10.9093V9.87934C17.16 9.59934 16.93 9.36934 16.65 9.36934H15.62C15.34 9.36934 15.11 9.13934 15.11 8.85934V7.82934C15.11 7.54934 15.34 7.31934 15.62 7.31934H16.65C16.93 7.31934 17.16 7.54934 17.16 7.82934" stroke="#1E70B9" stroke-miterlimit="10" stroke-linecap="round"/>
<path d="M18.9 11.4296V8.33957C18.9 7.76957 19.36 7.30957 19.93 7.30957C20.5 7.30957 20.96 7.76957 20.96 8.33957V11.4296" stroke="#1E70B9" stroke-miterlimit="10" stroke-linecap="round"/>
<path d="M18.9 9.87988H20.96" stroke="#1E70B9" stroke-miterlimit="10" stroke-linecap="round"/>
<path d="M22.31 7.38965L23.34 9.95965L24.37 7.38965" stroke="#1E70B9" stroke-miterlimit="10" stroke-linecap="round"/>
<path d="M23.34 11.5097V9.96973" stroke="#1E70B9" stroke-miterlimit="10" stroke-linecap="round"/>
</svg>
