<svg xmlns="http://www.w3.org/2000/svg" xmlns:xlink="http://www.w3.org/1999/xlink" width="36" height="36" viewBox="0 0 36 36">
  <defs>
    <clipPath id="clip-EXIF_To_PDF_Light_Mode_">
      <rect width="36" height="36"/>
    </clipPath>
  </defs>
  <g id="EXIF_To_PDF_Light_Mode_" data-name="EXIF To PDF (Light Mode)" clip-path="url(#clip-EXIF_To_PDF_Light_Mode_)">
    <g id="Group_291" data-name="Group 291" transform="translate(-120.667 -486.967)">
      <g id="Group_290" data-name="Group 290">
        <g id="Group_286" data-name="Group 286">
          <g id="Group_280" data-name="Group 280">
            <g id="Group_279" data-name="Group 279">
              <rect id="Rectangle_57" data-name="Rectangle 57" width="23.333" height="23.333" rx="2.5" transform="translate(121.167 487.467)" fill="#fff"/>
              <path id="Path_139" data-name="Path 139" d="M142,511.3H123.667a3,3,0,0,1-3-3V489.967a3,3,0,0,1,3-3H142a3,3,0,0,1,3,3V508.3A3,3,0,0,1,142,511.3Zm-18.333-23.333a2,2,0,0,0-2,2V508.3a2,2,0,0,0,2,2H142a2,2,0,0,0,2-2V489.967a2,2,0,0,0-2-2Z" fill="#1e70b9"/>
            </g>
          </g>
          <g id="Group_285" data-name="Group 285">
            <g id="Group_281" data-name="Group 281">
              <path id="Path_140" data-name="Path 140" d="M125.141,501.932a.488.488,0,0,1-.495-.5V496.83a.488.488,0,0,1,.495-.495H128.4a.439.439,0,1,1,0,.879H125.63v1.455h2.406a.441.441,0,0,1,.44.448.427.427,0,0,1-.44.432H125.63v1.5h2.806a.44.44,0,1,1,0,.88Z" fill="#1e70b9"/>
            </g>
            <g id="Group_282" data-name="Group 282">
              <path id="Path_141" data-name="Path 141" d="M129.382,501.149l1.664-2.064-1.568-1.942a.587.587,0,0,1-.152-.368.469.469,0,0,1,.488-.48.5.5,0,0,1,.448.239l1.415,1.864,1.4-1.831a.537.537,0,0,1,.48-.272.447.447,0,0,1,.448.447.556.556,0,0,1-.153.376l-1.566,1.952,1.646,2.054a.55.55,0,0,1,.153.368.469.469,0,0,1-.488.48.5.5,0,0,1-.448-.24l-1.5-1.959-1.479,1.927a.546.546,0,0,1-.48.272.449.449,0,0,1-.448-.456A.6.6,0,0,1,129.382,501.149Z" fill="#1e70b9"/>
            </g>
            <g id="Group_283" data-name="Group 283">
              <path id="Path_142" data-name="Path 142" d="M134.814,496.782a.482.482,0,0,1,.5-.487.475.475,0,0,1,.488.487v4.7a.475.475,0,0,1-.488.488.482.482,0,0,1-.5-.488Z" fill="#1e70b9"/>
            </g>
            <g id="Group_284" data-name="Group 284">
              <path id="Path_143" data-name="Path 143" d="M136.814,496.83a.488.488,0,0,1,.5-.495h3.263a.448.448,0,1,1,0,.9H137.8v1.527h2.415a.448.448,0,0,1,0,.9H137.8v1.83a.475.475,0,0,1-.489.488.482.482,0,0,1-.5-.488Z" fill="#1e70b9"/>
            </g>
          </g>
        </g>
        <g id="Group_289" data-name="Group 289">
          <g id="Group_287" data-name="Group 287">
            <rect id="Rectangle_58" data-name="Rectangle 58" width="23.333" height="23.333" rx="2.5" transform="translate(132.833 499.134)" fill="#fff"/>
            <path id="Path_144" data-name="Path 144" d="M153.667,522.967H135.334a3,3,0,0,1-3-3V501.634a3,3,0,0,1,3-3h18.333a3,3,0,0,1,3,3v18.333A3,3,0,0,1,153.667,522.967Zm-18.333-23.333a2,2,0,0,0-2,2v18.333a2,2,0,0,0,2,2h18.333a2,2,0,0,0,2-2V501.634a2,2,0,0,0-2-2Z" fill="#1e70b9"/>
          </g>
          <g id="Group_288" data-name="Group 288">
            <path id="Path_145" data-name="Path 145" d="M139.135,517.535a1.374,1.374,0,0,1-.933-.4,1.584,1.584,0,0,1-.435-1.492,1.225,1.225,0,0,1,.528-.778,14.644,14.644,0,0,1,3.172-1.772,34.336,34.336,0,0,0,1.865-3.887,8.872,8.872,0,0,1-.995-2.891,2.761,2.761,0,0,1,.093-1.244c.311-.995,1-1.026,1.275-.995.062,0,1.151.156,1.337,1.71a8.39,8.39,0,0,1-.715,3.389,10.808,10.808,0,0,0,2.425,2.861,14.352,14.352,0,0,1,3.514.4,1.326,1.326,0,0,1,.715.435,1.155,1.155,0,0,1,.218,1.213h0a1.3,1.3,0,0,1-.249.435,1.2,1.2,0,0,1-1.524.342,16.542,16.542,0,0,1-2.985-1.959,13.1,13.1,0,0,0-4.29.9c-.529.964-1.182,2.021-1.928,3.2a1.314,1.314,0,0,1-.591.5h0C139.414,517.5,139.259,517.535,139.135,517.535Zm1.523-3.14a11.574,11.574,0,0,0-1.834,1.15c-.094.094-.187.187-.187.28a.737.737,0,0,0,.249.684.442.442,0,0,0,.373.094h0a.259.259,0,0,0,.155-.156C139.85,515.732,140.285,515.048,140.658,514.4ZM147.9,512.9a17.18,17.18,0,0,0,1.865,1.12.3.3,0,0,0,.373-.093.859.859,0,0,0,.125-.218c.062-.156.062-.218-.031-.311a.613.613,0,0,0-.28-.156A11.913,11.913,0,0,0,147.9,512.9Zm-4.042-2.767c-.311.715-.684,1.524-1.182,2.457a14.16,14.16,0,0,1,2.736-.56A15.471,15.471,0,0,1,143.861,510.135Zm-.311-5.223c-.125,0-.218.124-.311.4a1.86,1.86,0,0,0-.062.839,7.766,7.766,0,0,0,.528,1.8,6.179,6.179,0,0,0,.4-2.115c-.093-.839-.528-.932-.559-.932Z" fill="#1e70b9"/>
          </g>
        </g>
      </g>
    </g>
  </g>
</svg>
