<svg xmlns="http://www.w3.org/2000/svg" xmlns:xlink="http://www.w3.org/1999/xlink" width="30" height="24.85" viewBox="0 0 30 24.85">
  <defs>
    <clipPath id="clip-eye-off">
      <rect width="30" height="24.85"/>
    </clipPath>
  </defs>
  <g id="eye-off" clip-path="url(#clip-eye-off)">
    <path id="Path_1709" data-name="Path 1709" d="M-57.552,227.219l-2.276-2.276a17.1,17.1,0,0,0-7.341-4.343l1.7-3.624-1.81-.849-1.89,4.031a17.19,17.19,0,0,0-15,4.785l-2.276,2.276A1.871,1.871,0,0,0-87,228.551a1.871,1.871,0,0,0,.552,1.332l2.276,2.276a17.107,17.107,0,0,0,7.34,4.344l-1.7,3.624,1.81.849,1.89-4.031a17.344,17.344,0,0,0,2.83.248,17.16,17.16,0,0,0,12.172-5.034l2.276-2.276A1.871,1.871,0,0,0-57,228.551,1.871,1.871,0,0,0-57.552,227.219Zm-25.206,3.526-2.194-2.194,2.194-2.194a15.186,15.186,0,0,1,12.7-4.309l-.989,2.11a4.486,4.486,0,0,0-.955-.107,4.505,4.505,0,0,0-4.5,4.5,4.476,4.476,0,0,0,1.742,3.529l-1.209,2.578A15.1,15.1,0,0,1-82.758,230.745Zm13.258-2.194a2.5,2.5,0,0,1-2.5,2.5c-.022,0-.043-.006-.065-.006l1.937-4.133A2.479,2.479,0,0,1-69.5,228.551Zm-5,0a2.5,2.5,0,0,1,2.5-2.5c.022,0,.043.006.065.007l-1.937,4.132A2.477,2.477,0,0,1-74.5,228.551Zm13.258,2.194a15.183,15.183,0,0,1-12.7,4.31l.989-2.111a4.486,4.486,0,0,0,.955.107,4.5,4.5,0,0,0,4.5-4.5,4.479,4.479,0,0,0-1.742-3.529l1.209-2.577a15.1,15.1,0,0,1,6.791,3.912l2.194,2.194Z" transform="translate(87 -216.127)" fill="#707070"/>
  </g>
</svg>
