<svg width="40" height="39" viewBox="0 0 40 39" fill="none" xmlns="http://www.w3.org/2000/svg">
<path d="M22.6101 19.28C22.6101 19.28 23.9101 21.1 25.7201 19.28" stroke="#1E70B9" stroke-miterlimit="10" stroke-linecap="round"/>
<path d="M14.0801 19.28C14.0801 19.28 15.3801 21.1 17.1901 19.28" stroke="#1E70B9" stroke-miterlimit="10" stroke-linecap="round"/>
<path d="M12.75 16.9201C12.75 16.9201 16.15 15.0101 18.6 16.9201" stroke="#1E70B9" stroke-miterlimit="10" stroke-linecap="round"/>
<path d="M21.28 16.9201C21.28 16.9201 24.68 15.0101 27.13 16.9201" stroke="#1E70B9" stroke-miterlimit="10" stroke-linecap="round"/>
<path d="M28.74 11.54C29.78 13.2 30.34 15.29 30.34 17.76C30.34 18.32 30.34 18.88 30.26 19.45" stroke="#1E70B9" stroke-miterlimit="10" stroke-linecap="round"/>
<path d="M30.2499 19.4501L30.0099 21.1401C28.8899 27.2401 24.7099 31.3501 19.7299 31.3501C14.7499 31.3501 10.5699 27.2501 9.44988 21.1401L9.20988 19.4501C9.12988 18.8901 9.12988 18.3201 9.12988 17.7601C9.12988 15.3301 9.65988 13.2701 10.6699 11.6301" stroke="#1E70B9" stroke-miterlimit="10" stroke-linecap="round"/>
<path d="M32.76 4.32007H35.99C37.35 4.32007 38.45 5.42007 38.45 6.78007V9.75007" stroke="#1E70B9" stroke-miterlimit="10" stroke-linecap="round"/>
<path d="M6.90997 4.32007H3.67997C2.31997 4.32007 1.21997 5.42007 1.21997 6.78007V9.75007" stroke="#1E70B9" stroke-miterlimit="10" stroke-linecap="round"/>
<path d="M32.76 37.98H35.99C37.35 37.98 38.45 36.8801 38.45 35.5201V32.55" stroke="#1E70B9" stroke-miterlimit="10" stroke-linecap="round"/>
<path d="M6.90997 37.98H3.67997C2.31997 37.98 1.21997 36.8801 1.21997 35.5201V32.55" stroke="#1E70B9" stroke-miterlimit="10" stroke-linecap="round"/>
<path d="M0.5 19.55H38.65" stroke="#1E70B9" stroke-miterlimit="10" stroke-linecap="round"/>
<path d="M25.42 29.64C25.42 29.64 23.03 32.8 28.24 35.71" stroke="#1E70B9" stroke-miterlimit="10" stroke-linecap="round"/>
<path d="M14.1 29.64C14.1 29.64 16.49 32.8 11.28 35.71" stroke="#1E70B9" stroke-miterlimit="10" stroke-linecap="round"/>
<path d="M29.6199 5.17003C29.6199 5.17003 30.3299 9.21003 25.2099 11.41C25.2099 11.41 23.2399 11.64 22.3099 11.09C21.3799 10.54 18.4899 10.51 17.1499 11.41C15.8099 12.31 11.1899 11.26 10.5999 8.07003C10.0099 4.88003 10.5199 3.06003 14.2099 1.37003C16.0599 0.720031 18.1999 1.48003 18.6599 1.82003C19.1199 2.16003 20.8399 3.79003 22.6099 2.49003C23.9099 1.90003 25.9699 2.57003 26.7199 3.79003C27.4699 5.01003 28.1899 5.85003 29.6199 5.18003V5.17003Z" stroke="#1E70B9" stroke-miterlimit="10" stroke-linecap="round"/>
<path d="M30.21 9.05005C30.21 9.05005 32.31 11.95 30.41 15.53" stroke="#1E70B9" stroke-miterlimit="10" stroke-linecap="round"/>
<path d="M9.91009 7.03003C9.79009 7.30003 8.21009 8.20003 8.42009 10.28C8.63009 12.36 8.21009 13.25 8.21009 13.25C8.21009 13.25 7.73009 15.86 9.06009 16.92" stroke="#1E70B9" stroke-miterlimit="10" stroke-linecap="round"/>
<path d="M30.71 16.92C30.71 16.92 33.54 19.39 30.71 20.77" stroke="#1E70B9" stroke-miterlimit="10" stroke-linecap="round"/>
<path d="M8.96994 16.92C8.96994 16.92 6.13994 19.39 8.96994 20.77" stroke="#1E70B9" stroke-miterlimit="10" stroke-linecap="round"/>
<path d="M16.8501 25.29C16.8501 25.29 19.7501 28.54 23.0001 25.29" stroke="#1E70B9" stroke-miterlimit="10" stroke-linecap="round"/>
</svg>
