<svg width="15" height="17" xmlns="http://www.w3.org/2000/svg" xmlns:xlink="http://www.w3.org/1999/xlink" xmlns:svgjs="http://svgjs.com/svgjs" fill="#fff"><svg xmlns="http://www.w3.org/2000/svg" width="15" height="17" viewBox="0 0 14.999 16.999"><path paint-order="stroke fill markers" fill-rule="evenodd" d="M3.598 16.97c.745-.111 1.463-.521 2.154-1.23l.709-.726 1.376-1.411 1.704-1.747 1.69-1.733 1.363-1.384c.909-.922 1.145-1.16.709-.713.818-.875 1.336-1.733 1.554-2.571a3.69 3.69 0 0 0 .055-1.803 4.062 4.062 0 0 0-.41-1.076c-.2-.373-.49-.755-.872-1.146C12.65.424 11.6-.052 10.482.004 9.364.06 8.26.638 7.169 1.737L.218 8.893A.787.787 0 0 0 0 9.466c0 .233.073.424.218.573a.79.79 0 0 0 .586.251.707.707 0 0 0 .559-.251L8.314 2.91c.51-.522.973-.871 1.39-1.048.419-.177.8-.247 1.146-.21.345.038.654.15.926.336.273.186.51.382.71.587.78.801 1.053 1.621.817 2.46-.127.54-.509 1.146-1.145 1.816l-.695.713-1.35 1.384-1.703 1.733c-1.136 1.155-1.709 1.737-1.717 1.747L5.316 13.84l-.709.727c-.454.466-.863.726-1.227.782a3.24 3.24 0 0 1-.395-.041c-.191-.028-.432-.182-.722-.462-.437-.447-.628-.885-.573-1.313.018-.242.096-.462.232-.657a4.1 4.1 0 0 1 .422-.517l6.352-6.513c.218-.224.404-.387.559-.49.155-.101.277-.167.368-.195.09-.028.159-.028.204 0a.544.544 0 0 1 .096.07c.018.037.04.08.068.126.027.046.027.116 0 .21a1.442 1.442 0 0 1-.191.363c-.1.149-.259.335-.477.559L3.489 12.47l1.118 1.174 5.86-5.981c.419-.429.719-.825.9-1.188.182-.363.278-.694.287-.992a1.624 1.624 0 0 0-.164-.797 2.43 2.43 0 0 0-.422-.6 3.836 3.836 0 0 0-.532-.392c-.209-.13-.463-.2-.763-.21-.3-.01-.636.075-1.009.252-.372.177-.777.489-1.213.936L1.2 11.185c-.655.67-1.027 1.397-1.118 2.18-.037.317.004.708.122 1.174.118.466.432.96.94 1.481.364.392.728.653 1.091.783.364.13.7.196 1.009.196.164 0 .282-.01.354-.028z"/></svg></svg>