<svg id="Flip_Text" data-name="Flip Text" xmlns="http://www.w3.org/2000/svg" width="17.713" height="17.713" viewBox="0 0 17.713 17.713">
  <path id="Path_1784" data-name="Path 1784" d="M11.738,9A.738.738,0,0,0,11,9.738v8.856a.738.738,0,1,0,1.476,0V9.738A.738.738,0,0,0,11.738,9Z" transform="translate(-2.882 -2.357)"/>
  <path id="Path_1785" data-name="Path 1785" d="M20.026,8.324,15.354,13l-.079.07a.912.912,0,0,0-.275.651.934.934,0,0,0,.244.627l4.791,5.16a.935.935,0,0,0,.686.3.924.924,0,0,0,.923-.923V8.922A.917.917,0,0,0,20.026,8.324Z" transform="translate(-3.93 -2.095)"/>
  <path id="Path_1786" data-name="Path 1786" d="M1.645,8.355c-.009-.01-.063-.072-.073-.082A.912.912,0,0,0,.923,8,.924.924,0,0,0,0,8.923v9.963a.924.924,0,0,0,1.6.627l4.8-5.174a.927.927,0,0,0,.236-.619.94.94,0,0,0-.324-.694Z" transform="translate(0 -2.095)"/>
  <path id="Path_1787" data-name="Path 1787" d="M15.615,4.613V.553A.553.553,0,0,0,14.67.162L13.317,1.515A7.043,7.043,0,0,0,3.422,2.682a.738.738,0,1,0,1.151.924,5.573,5.573,0,0,1,7.693-1.04L10.611,4.221A.553.553,0,0,0,11,5.166h4.059A.554.554,0,0,0,15.615,4.613Z" transform="translate(-0.854 0.001)"/>
</svg>
