<svg width="330" height="364" viewBox="0 0 330 364" fill="none" xmlns="http://www.w3.org/2000/svg">
<mask id="mask0_226_17" style="mask-type:alpha" maskUnits="userSpaceOnUse" x="0" y="0" width="330" height="364">
<rect width="330" height="364" fill="#D9D9D9"/>
</mask>
<g mask="url(#mask0_226_17)">
<g opacity="0.2">
<path d="M-34 182.01C-34 81.4865 47.4865 0 148.01 0C248.534 0 330 81.4865 330 182.01C330 269.963 267.651 343.331 184.714 360.313C172.869 362.751 160.581 364 148.05 364H-34V181.99V182.01Z" fill="#27B473"/>
<path d="M273.955 164.769H191.945L172.626 198.23H240.253C229.656 256.408 164.951 296.034 100.285 262.532C86.3851 255.341 75.0636 244.2 67.7308 230.3C30.523 159.471 81.3488 88.2177 148.412 88.2177C176.071 88.2177 200.97 100.325 218.073 119.523L235.398 89.507C210.7 66.1388 176.635 52.5208 139.467 55.1396C76.1917 59.5111 24.9025 111.949 21.8203 175.264C18.3151 247.968 76.4334 308.221 148.371 308.221C220.309 308.221 275.083 251.352 275.083 181.489C275.083 175.808 274.66 170.248 273.935 164.789L273.955 164.769Z" fill="white"/>
</g>
</g>
</svg>
