<svg xmlns="http://www.w3.org/2000/svg" xmlns:xlink="http://www.w3.org/1999/xlink" width="36" height="36" viewBox="0 0 36 36">
  <defs>
    <clipPath id="clip-GIF_To_PDF_Light_Mode_">
      <rect width="36" height="36"/>
    </clipPath>
  </defs>
  <g id="GIF_To_PDF_Light_Mode_" data-name="GIF To PDF (Light Mode)" clip-path="url(#clip-GIF_To_PDF_Light_Mode_)">
    <g id="Group_131" data-name="Group 131" transform="translate(-120.667 -208.498)">
      <g id="Group_127" data-name="Group 127">
        <g id="Group_122" data-name="Group 122">
          <g id="Group_121" data-name="Group 121">
            <rect id="Rectangle_27" data-name="Rectangle 27" width="23.333" height="23.333" rx="2.5" transform="translate(121.167 208.998)" fill="#fff"/>
            <path id="Path_58" data-name="Path 58" d="M142,232.831H123.667a3,3,0,0,1-3-3V211.5a3,3,0,0,1,3-3H142a3,3,0,0,1,3,3v18.333A3,3,0,0,1,142,232.831ZM123.667,209.5a2,2,0,0,0-2,2v18.333a2,2,0,0,0,2,2H142a2,2,0,0,0,2-2V211.5a2,2,0,0,0-2-2Z" fill="#1e70b9"/>
          </g>
        </g>
        <g id="Group_126" data-name="Group 126">
          <g id="Group_123" data-name="Group 123">
            <path id="Path_59" data-name="Path 59" d="M126.333,220.682v-.018a3.008,3.008,0,0,1,3.051-3.058,3.164,3.164,0,0,1,2.02.6.526.526,0,0,1,.21.422.513.513,0,0,1-.515.516.571.571,0,0,1-.321-.119,2.255,2.255,0,0,0-1.436-.464,2.012,2.012,0,0,0-1.919,2.087v.016a1.976,1.976,0,0,0,2.011,2.113,2.4,2.4,0,0,0,1.429-.448v-1.107H129.7a.444.444,0,0,1-.466-.447.452.452,0,0,1,.466-.457h1.647a.516.516,0,0,1,.524.524v1.58a.729.729,0,0,1-.363.659,3.776,3.776,0,0,1-2.105.642A2.935,2.935,0,0,1,126.333,220.682Z" fill="#1e70b9"/>
          </g>
          <g id="Group_124" data-name="Group 124">
            <path id="Path_60" data-name="Path 60" d="M132.775,218.18a.509.509,0,0,1,.524-.515.5.5,0,0,1,.515.515v4.968a.5.5,0,0,1-.515.516.509.509,0,0,1-.524-.516Z" fill="#1e70b9"/>
          </g>
          <g id="Group_125" data-name="Group 125">
            <path id="Path_61" data-name="Path 61" d="M134.889,218.231a.516.516,0,0,1,.523-.524h3.448a.474.474,0,0,1,0,.947h-2.932v1.614h2.552a.473.473,0,1,1,0,.946h-2.552v1.934a.5.5,0,0,1-.516.516.509.509,0,0,1-.523-.516Z" fill="#1e70b9"/>
          </g>
        </g>
      </g>
      <g id="Group_130" data-name="Group 130">
        <g id="Group_128" data-name="Group 128">
          <rect id="Rectangle_28" data-name="Rectangle 28" width="23.333" height="23.333" rx="2.5" transform="translate(132.833 220.665)" fill="#fff"/>
          <path id="Path_62" data-name="Path 62" d="M153.667,244.5H135.334a3,3,0,0,1-3-3V223.165a3,3,0,0,1,3-3h18.333a3,3,0,0,1,3,3V241.5A3,3,0,0,1,153.667,244.5Zm-18.333-23.333a2,2,0,0,0-2,2V241.5a2,2,0,0,0,2,2h18.333a2,2,0,0,0,2-2V223.165a2,2,0,0,0-2-2Z" fill="#1e70b9"/>
        </g>
        <g id="Group_129" data-name="Group 129">
          <path id="Path_63" data-name="Path 63" d="M139.135,239.066a1.374,1.374,0,0,1-.933-.4,1.584,1.584,0,0,1-.435-1.492,1.225,1.225,0,0,1,.528-.778,14.645,14.645,0,0,1,3.172-1.772,34.255,34.255,0,0,0,1.865-3.887,8.872,8.872,0,0,1-.995-2.891,2.762,2.762,0,0,1,.093-1.244c.311-1,1-1.026,1.275-1,.062,0,1.151.156,1.337,1.71a8.39,8.39,0,0,1-.715,3.389,10.808,10.808,0,0,0,2.425,2.861,14.351,14.351,0,0,1,3.514.4,1.326,1.326,0,0,1,.715.435,1.155,1.155,0,0,1,.218,1.213h0a1.3,1.3,0,0,1-.249.435,1.2,1.2,0,0,1-1.524.342,16.541,16.541,0,0,1-2.985-1.958,13.075,13.075,0,0,0-4.29.9c-.529.964-1.182,2.021-1.928,3.2a1.313,1.313,0,0,1-.591.5h0C139.414,239.035,139.259,239.066,139.135,239.066Zm1.523-3.14a11.57,11.57,0,0,0-1.834,1.15c-.094.094-.187.187-.187.28a.736.736,0,0,0,.249.684.441.441,0,0,0,.373.094h0a.259.259,0,0,0,.155-.156C139.85,237.263,140.285,236.579,140.658,235.926Zm7.245-1.492a17.347,17.347,0,0,0,1.865,1.119.3.3,0,0,0,.373-.093.859.859,0,0,0,.125-.218c.062-.156.062-.218-.031-.311a.6.6,0,0,0-.28-.155A11.722,11.722,0,0,0,147.9,234.434Zm-4.042-2.768c-.311.715-.684,1.524-1.182,2.457a14.155,14.155,0,0,1,2.736-.56A15.472,15.472,0,0,1,143.861,231.666Zm-.311-5.223c-.125,0-.218.124-.311.4a1.86,1.86,0,0,0-.062.839,7.752,7.752,0,0,0,.528,1.8,6.179,6.179,0,0,0,.4-2.115c-.093-.839-.528-.932-.559-.932Z" fill="#1e70b9"/>
        </g>
      </g>
    </g>
  </g>
</svg>
