<svg width="37" height="37" viewBox="0 0 37 37" fill="none" xmlns="http://www.w3.org/2000/svg">
<path d="M21.83 1H3.5C2.11929 1 1 2.11929 1 3.5V21.83C1 23.2107 2.11929 24.33 3.5 24.33H21.83C23.2107 24.33 24.33 23.2107 24.33 21.83V3.5C24.33 2.11929 23.2107 1 21.83 1Z" fill="white" stroke="#1E70B9" stroke-miterlimit="10"/>
<path d="M33.5 12.6699H15.17C13.7893 12.6699 12.67 13.7892 12.67 15.1699V33.4999C12.67 34.8806 13.7893 35.9999 15.17 35.9999H33.5C34.8808 35.9999 36 34.8806 36 33.4999V15.1699C36 13.7892 34.8808 12.6699 33.5 12.6699Z" fill="white" stroke="#1E70B9" stroke-miterlimit="10"/>
<path d="M13.72 13.25L13.46 12.97H13.72V13.25Z" fill="#1E70B9"/>
<path d="M16.59 21.78H18.66C19.81 21.78 20.64 22.5 20.64 23.56C20.64 24.62 19.81 25.34 18.66 25.34H17.72V27.28H16.6V21.78H16.59ZM18.66 24.35C19.19 24.35 19.49 24.02 19.49 23.55C19.49 23.08 19.17 22.77 18.66 22.77H17.72V24.35H18.66Z" fill="#1E70B9"/>
<path d="M26.2199 21.7799V27.3799H25.8399L22.6599 23.9799V27.2799H21.5399V21.6799H21.9099L25.0999 25.0599V21.7799H26.2199Z" fill="#1E70B9"/>
<path d="M30.0999 21.68C31.0699 21.68 31.8799 22.11 32.4199 22.87L31.6199 23.53C31.2299 22.99 30.7199 22.72 30.0899 22.72C29.0399 22.72 28.3199 23.48 28.3199 24.53C28.3199 25.58 29.0599 26.37 30.1499 26.37C30.7799 26.37 31.2899 26.11 31.5999 25.69V25.24H30.0799V24.27H32.7199V25.89C32.4699 26.33 32.1099 26.7 31.6499 26.97C31.1899 27.25 30.6699 27.38 30.0999 27.38C28.4799 27.41 27.1299 26.11 27.1599 24.53C27.1299 22.95 28.4799 21.65 30.0999 21.68Z" fill="#1E70B9"/>
<path d="M7.74994 9.54004V11.65H5.30994V9.54004H4.18994V15.04H5.30994V12.66H7.74994V15.04H8.86994V9.54004H7.74994Z" fill="#1E70B9"/>
<path d="M13.8199 10.56V9.54004H10.1299V15.04H12.9699V14.32C12.9699 14.22 12.9799 14.12 12.9999 14.02H11.2499V12.63H13.1399V11.67H11.2499V10.56H13.8199Z" fill="#1E70B9"/>
<path d="M14.8999 9.54004V12.67H16.0199V9.54004H14.8999Z" fill="#1E70B9"/>
<path d="M19.8899 9.43996C18.2999 9.40996 16.9399 10.71 16.9599 12.29C16.9599 12.42 16.9599 12.55 16.9899 12.67H18.1499C18.1299 12.55 18.1199 12.43 18.1199 12.3C18.1199 11.25 18.8699 10.48 19.8899 10.48C20.5499 10.48 21.0799 10.79 21.4699 11.41L22.3199 10.81C21.8299 9.94996 20.9399 9.43996 19.8899 9.43996Z" fill="#1E70B9"/>
</svg>
