<?xml version="1.0" encoding="utf-8"?>
<!-- Generator: Adobe Illustrator 28.1.0, SVG Export Plug-In . SVG Version: 6.00 Build 0)  -->
<svg version="1.1" id="Layer_1" xmlns="http://www.w3.org/2000/svg" xmlns:xlink="http://www.w3.org/1999/xlink" x="0px" y="0px"
	 viewBox="0 0 65 64" style="enable-background:new 0 0 65 64;" xml:space="preserve">
<style type="text/css">
	.st0{fill:#FFFFFF;stroke:#1E70B9;stroke-miterlimit:10;}
	.st1{fill:#1E70B9;}
</style>
<path class="st0" d="M35.9,14.5H17.5c-1.4,0-2.5,1.1-2.5,2.5v18.3c0,1.4,1.1,2.5,2.5,2.5h18.3c1.4,0,2.5-1.1,2.5-2.5V17
	C38.4,15.6,37.2,14.5,35.9,14.5z"/>
<path class="st0" d="M47.5,26.2H29.2c-1.4,0-2.5,1.1-2.5,2.5V47c0,1.4,1.1,2.5,2.5,2.5h18.3c1.4,0,2.5-1.1,2.5-2.5V28.7
	C50,27.3,48.9,26.2,47.5,26.2z"/>
<path class="st1" d="M23.9,22.8c-0.3,0-0.5,0.2-0.5,0.5v1.4h-1.9v-1.4c0-0.3-0.2-0.5-0.5-0.5s-0.5,0.2-0.5,0.5v3.8
	c0,0.3,0.2,0.5,0.5,0.5s0.5-0.2,0.5-0.5v-1.4h1.9v1.4c0,0.3,0.2,0.5,0.5,0.5c0.3,0,0.5-0.2,0.5-0.5v-3.8
	C24.4,23,24.1,22.8,23.9,22.8z"/>
<path class="st1" d="M26,23.7v0.9h1.9c0.2,0,0.5,0.2,0.5,0.5s-0.2,0.5-0.5,0.5H26v1h1.9c-0.4,0.1-0.8,0.5-0.8,0.9h-1.6
	c-0.3,0-0.5-0.2-0.5-0.5v-3.7c0-0.3,0.2-0.5,0.5-0.5h2.6c0.3,0,0.5,0.2,0.5,0.5s-0.2,0.5-0.5,0.5H26z"/>
<path class="st1" d="M32.7,23.6l-1.2,1.5l1.1,1.4c0,0,0,0-0.1,0h-1.2l-0.5-0.7l-0.5,0.7h-1.2l1.1-1.4l-1.2-1.5
	c-0.1-0.1-0.1-0.2-0.1-0.3c0-0.3,0.2-0.5,0.5-0.5c0.2,0,0.3,0.1,0.4,0.2l1.1,1.4l1-1.4c0.1-0.1,0.2-0.2,0.4-0.2
	c0.2,0,0.5,0.2,0.5,0.5C32.8,23.4,32.8,23.5,32.7,23.6z"/>
<path class="st1" d="M36,35.4h-3c-0.3,0-0.5,0.2-0.5,0.5c0,0.3,0.2,0.5,0.5,0.5h1v3.4c0,0.3,0.2,0.5,0.5,0.5s0.5-0.2,0.5-0.5v-3.4h1
	c0.3,0,0.5-0.2,0.5-0.5C36.5,35.7,36.3,35.4,36,35.4L36,35.4z"/>
<path class="st1" d="M39.3,37.8l1.2-1.6c0.1-0.1,0.1-0.2,0.1-0.3c0-0.3-0.2-0.5-0.5-0.5c-0.2,0-0.4,0.2-0.4,0.2L38.7,37l-1.1-1.4
	c-0.1-0.1-0.2-0.2-0.4-0.2c-0.3,0-0.5,0.2-0.5,0.5c0,0.2,0.1,0.3,0.1,0.3l1.2,1.6l-1.3,1.7c-0.1,0.1-0.1,0.2-0.1,0.3
	c0,0.3,0.2,0.5,0.5,0.5c0.2,0,0.4-0.1,0.4-0.2l1.1-1.5l1.2,1.5c0,0.1,0.2,0.2,0.4,0.2c0.3,0,0.5-0.2,0.5-0.5c0-0.1,0-0.2-0.1-0.3
	L39.3,37.8L39.3,37.8z"/>
<path class="st1" d="M44.4,35.4h-3c-0.3,0-0.5,0.2-0.5,0.5c0,0.3,0.2,0.5,0.5,0.5h1v3.4c0,0.3,0.2,0.5,0.5,0.5s0.5-0.2,0.5-0.5v-3.4
	h1c0.3,0,0.5-0.2,0.5-0.5C44.9,35.7,44.7,35.4,44.4,35.4L44.4,35.4z"/>
</svg>
