<svg width="10" height="11" viewBox="0 0 10 11" fill="none" xmlns="http://www.w3.org/2000/svg">
<path d="M5 0.758057C7.7615 0.758057 10 2.99567 10 5.75608C10.001 7.0683 9.48577 8.32828 8.56545 9.26401C7.64512 10.1997 6.39357 10.7361 5.08101 10.7574C3.76845 10.7787 2.50017 10.2831 1.55 9.37765C0.599829 8.47222 0.0439942 7.22958 0.00250006 5.91802L0 5.75608L0.00199997 5.61614C0.076 2.9207 2.285 0.758057 5 0.758057ZM5 5.25628H4.5L4.4415 5.25978C4.31997 5.27423 4.20797 5.33273 4.12671 5.42419C4.04544 5.51566 4.00056 5.63375 4.00056 5.75608C4.00056 5.87841 4.04544 5.9965 4.12671 6.08797C4.20797 6.17943 4.31997 6.23793 4.4415 6.25238L4.5 6.25588V7.75529L4.5035 7.81377C4.51666 7.92533 4.56704 8.02921 4.6465 8.10864C4.72597 8.18808 4.82989 8.23844 4.9415 8.25159L5 8.25509H5.5L5.5585 8.25159C5.67011 8.23844 5.77403 8.18808 5.85349 8.10864C5.93296 8.02921 5.98334 7.92533 5.9965 7.81377L6 7.75529L5.9965 7.69681C5.98455 7.59484 5.94147 7.49902 5.87312 7.42239C5.80477 7.34575 5.71447 7.29201 5.6145 7.26848L5.5585 7.25848L5.5 7.25549V5.75608L5.4965 5.6976C5.48334 5.58604 5.43296 5.48216 5.35349 5.40273C5.27403 5.32329 5.17011 5.27293 5.0585 5.25978L5 5.25628ZM5.005 3.75687L4.9415 3.76037C4.81997 3.77482 4.70797 3.83332 4.62671 3.92479C4.54544 4.01626 4.50056 4.13434 4.50056 4.25667C4.50056 4.37901 4.54544 4.49709 4.62671 4.58856C4.70797 4.68003 4.81997 4.73853 4.9415 4.75298L5 4.75647L5.0635 4.75298C5.18502 4.73853 5.29703 4.68003 5.37829 4.58856C5.45956 4.49709 5.50444 4.37901 5.50444 4.25667C5.50444 4.13434 5.45956 4.01626 5.37829 3.92479C5.29703 3.83332 5.18502 3.77482 5.0635 3.76037L5.005 3.75687Z" fill="#BDC2C9"/>
</svg>
