<svg xmlns="http://www.w3.org/2000/svg" xmlns:xlink="http://www.w3.org/1999/xlink" width="36" height="36" viewBox="0 0 36 36">
  <defs>
    <clipPath id="clip-ICO_To_PDF_Light_Mode_">
      <rect width="36" height="36"/>
    </clipPath>
  </defs>
  <g id="ICO_To_PDF_Light_Mode_" data-name="ICO To PDF (Light Mode)" clip-path="url(#clip-ICO_To_PDF_Light_Mode_)">
    <g id="Group_304" data-name="Group 304" transform="translate(-205.333 -486.967)">
      <g id="Group_303" data-name="Group 303">
        <g id="Group_299" data-name="Group 299">
          <g id="Group_294" data-name="Group 294">
            <g id="Group_293" data-name="Group 293">
              <rect id="Rectangle_60" data-name="Rectangle 60" width="23.333" height="23.333" rx="2.5" transform="translate(205.833 487.467)" fill="#fff"/>
              <path id="Path_146" data-name="Path 146" d="M226.667,511.3H208.334a3,3,0,0,1-3-3V489.967a3,3,0,0,1,3-3h18.333a3,3,0,0,1,3,3V508.3A3,3,0,0,1,226.667,511.3Zm-18.333-23.333a2,2,0,0,0-2,2V508.3a2,2,0,0,0,2,2h18.333a2,2,0,0,0,2-2V489.967a2,2,0,0,0-2-2Z" fill="#1e70b9"/>
            </g>
          </g>
          <g id="Group_298" data-name="Group 298">
            <g id="Group_295" data-name="Group 295">
              <path id="Path_147" data-name="Path 147" d="M211.065,496.783a.482.482,0,0,1,.5-.487.475.475,0,0,1,.487.487v4.7a.475.475,0,0,1-.487.487.482.482,0,0,1-.5-.487Z" fill="#1e70b9"/>
            </g>
            <g id="Group_296" data-name="Group 296">
              <path id="Path_148" data-name="Path 148" d="M212.817,499.15v-.016a2.833,2.833,0,0,1,2.887-2.895,2.936,2.936,0,0,1,1.919.632.49.49,0,0,1,.191.391.469.469,0,0,1-.487.481.436.436,0,0,1-.3-.1,2.015,2.015,0,0,0-1.335-.5,1.889,1.889,0,0,0-1.847,1.975v.016a1.886,1.886,0,0,0,1.847,1.983,1.99,1.99,0,0,0,1.4-.536.448.448,0,0,1,.3-.112.467.467,0,0,1,.463.456.483.483,0,0,1-.16.352,2.921,2.921,0,0,1-4.877-2.127Z" fill="#1e70b9"/>
            </g>
            <g id="Group_297" data-name="Group 297">
              <path id="Path_149" data-name="Path 149" d="M218.082,499.15v-.016a2.874,2.874,0,0,1,2.935-2.895,2.842,2.842,0,0,1,2.918,2.879v.016A2.872,2.872,0,0,1,221,502.028,2.841,2.841,0,0,1,218.082,499.15Zm4.821,0v-.016a1.913,1.913,0,0,0-1.9-1.991,1.891,1.891,0,0,0-1.887,1.975v.016a1.907,1.907,0,0,0,1.9,1.983A1.884,1.884,0,0,0,222.9,499.15Z" fill="#1e70b9"/>
            </g>
          </g>
        </g>
        <g id="Group_302" data-name="Group 302">
          <g id="Group_300" data-name="Group 300">
            <rect id="Rectangle_61" data-name="Rectangle 61" width="23.333" height="23.333" rx="2.5" transform="translate(217.5 499.134)" fill="#fff"/>
            <path id="Path_150" data-name="Path 150" d="M238.334,522.967H220a3,3,0,0,1-3-3V501.634a3,3,0,0,1,3-3h18.334a3,3,0,0,1,3,3v18.333A3,3,0,0,1,238.334,522.967ZM220,499.634a2,2,0,0,0-2,2v18.333a2,2,0,0,0,2,2h18.334a2,2,0,0,0,2-2V501.634a2,2,0,0,0-2-2Z" fill="#1e70b9"/>
          </g>
          <g id="Group_301" data-name="Group 301">
            <path id="Path_151" data-name="Path 151" d="M223.8,517.535a1.378,1.378,0,0,1-.933-.4,1.59,1.59,0,0,1-.435-1.492,1.227,1.227,0,0,1,.529-.778,14.627,14.627,0,0,1,3.171-1.772A34.2,34.2,0,0,0,228,509.2a8.873,8.873,0,0,1-.995-2.891,2.761,2.761,0,0,1,.093-1.244c.311-.995.995-1.026,1.275-.995.062,0,1.15.156,1.337,1.71a8.413,8.413,0,0,1-.715,3.389,10.789,10.789,0,0,0,2.425,2.861,14.344,14.344,0,0,1,3.513.4,1.328,1.328,0,0,1,.716.435,1.152,1.152,0,0,1,.217,1.213h0a1.286,1.286,0,0,1-.248.435,1.2,1.2,0,0,1-1.524.342,16.471,16.471,0,0,1-2.985-1.959,13.113,13.113,0,0,0-4.291.9c-.528.964-1.181,2.021-1.927,3.2a1.319,1.319,0,0,1-.591.5h0C224.081,517.5,223.926,517.535,223.8,517.535Zm1.524-3.14a11.649,11.649,0,0,0-1.835,1.15c-.093.094-.186.187-.186.28a.737.737,0,0,0,.249.684.442.442,0,0,0,.373.094h0a.259.259,0,0,0,.155-.156C224.516,515.732,224.952,515.048,225.325,514.4Zm7.244-1.493a17.3,17.3,0,0,0,1.866,1.12.3.3,0,0,0,.373-.093.871.871,0,0,0,.124-.218c.063-.156.063-.218-.031-.311a.609.609,0,0,0-.279-.156A11.924,11.924,0,0,0,232.569,512.9Zm-4.042-2.767c-.311.715-.684,1.524-1.181,2.457a14.144,14.144,0,0,1,2.736-.56A15.58,15.58,0,0,1,228.527,510.135Zm-.311-5.223c-.124,0-.217.124-.31.4a1.845,1.845,0,0,0-.063.839,7.833,7.833,0,0,0,.529,1.8,6.214,6.214,0,0,0,.4-2.115c-.093-.839-.528-.932-.56-.932Z" fill="#1e70b9"/>
          </g>
        </g>
      </g>
    </g>
  </g>
</svg>
