<svg id="instagram-reels-download" xmlns="http://www.w3.org/2000/svg" width="36" height="36" viewBox="0 0 36 36">
  <g id="Group_7273" data-name="Group 7273">
    <path id="Path_8494" data-name="Path 8494" d="M28.435,30.935H3a2.5,2.5,0,0,1-2.5-2.5V3A2.5,2.5,0,0,1,3,.5H28.435a2.5,2.5,0,0,1,2.5,2.5V28.435a2.5,2.5,0,0,1-2.5,2.5" fill="#fff"/>
    <rect id="Rectangle_2142" data-name="Rectangle 2142" width="30.435" height="30.435" rx="2.5" transform="translate(0.5 0.5)" fill="none" stroke="#1e70b9" stroke-linecap="round" stroke-linejoin="round" stroke-width="1"/>
    <path id="Path_8495" data-name="Path 8495" d="M33,35.5H24.609a2.5,2.5,0,0,1-2.5-2.5V24.609a2.5,2.5,0,0,1,2.5-2.5H33a2.5,2.5,0,0,1,2.5,2.5V33A2.5,2.5,0,0,1,33,35.5" fill="#fff"/>
    <rect id="Rectangle_2143" data-name="Rectangle 2143" width="13.391" height="13.391" rx="2.5" transform="translate(22.109 22.109)" fill="none" stroke="#1e70b9" stroke-linecap="round" stroke-linejoin="round" stroke-width="1"/>
    <path id="Path_8496" data-name="Path 8496" d="M31.372,29.475,28.8,32.043l-2.568-2.568" fill="none" stroke="#1e70b9" stroke-linecap="round" stroke-linejoin="round" stroke-width="1"/>
    <line id="Line_704" data-name="Line 704" y1="6.477" transform="translate(28.804 25.566)" fill="none" stroke="#1e70b9" stroke-linecap="round" stroke-linejoin="round" stroke-width="1"/>
    <path id="Path_8497" data-name="Path 8497" d="M10.786,7.439h8.49a3.4,3.4,0,0,1,3.4,3.4v8.336a3.4,3.4,0,0,1-3.4,3.4h-8.49a3.4,3.4,0,0,1-3.4-3.4V10.835a3.4,3.4,0,0,1,3.4-3.4" fill="#fff"/>
    <rect id="Rectangle_2144" data-name="Rectangle 2144" width="15.282" height="15.128" rx="3.396" transform="translate(7.39 7.439)" fill="none" stroke="#1e70b9" stroke-linecap="round" stroke-linejoin="round" stroke-width="1"/>
    <path id="Path_8498" data-name="Path 8498" d="M13.477,14.388l4.245,2.547-4.245,2.547Z" fill="#fff"/>
    <path id="Path_8499" data-name="Path 8499" d="M13.477,14.388l4.245,2.547-4.245,2.547Z" fill="none" stroke="#1e70b9" stroke-linecap="round" stroke-linejoin="round" stroke-width="1"/>
    <line id="Line_705" data-name="Line 705" x2="14.913" transform="translate(7.39 11.732)" fill="#fff"/>
    <line id="Line_706" data-name="Line 706" x2="14.913" transform="translate(7.39 11.732)" fill="none" stroke="#1e70b9" stroke-linecap="round" stroke-linejoin="round" stroke-width="1"/>
    <line id="Line_707" data-name="Line 707" x2="1.905" y2="3.724" transform="translate(11.573 7.564)" fill="#fff"/>
    <line id="Line_708" data-name="Line 708" x2="1.905" y2="3.724" transform="translate(11.573 7.564)" fill="none" stroke="#1e70b9" stroke-linecap="round" stroke-linejoin="round" stroke-width="1"/>
    <line id="Line_709" data-name="Line 709" x2="1.905" y2="3.724" transform="translate(16.204 7.564)" fill="#fff"/>
    <line id="Line_710" data-name="Line 710" x2="1.905" y2="3.724" transform="translate(16.204 7.564)" fill="none" stroke="#1e70b9" stroke-linecap="round" stroke-linejoin="round" stroke-width="1"/>
  </g>
</svg>
