<svg width="38" height="28" viewBox="0 0 38 28" fill="none" xmlns="http://www.w3.org/2000/svg">
<path d="M17.29 12.1099C16.3 13.0999 16.3 14.6999 17.29 15.6899C18.28 16.6799 19.88 16.6799 20.87 15.6899" stroke="#1E70B9" stroke-miterlimit="10" stroke-linecap="round"/>
<path d="M25.0099 19.8199C23.2299 20.9299 21.1799 21.5099 19.0799 21.4999C14.5199 21.4999 10.7199 18.9699 7.67993 13.8999C9.28993 11.2199 11.1099 9.23993 13.1499 7.97993M16.7699 6.52993C17.5299 6.37993 18.2999 6.29993 19.0699 6.29993C23.6299 6.29993 27.4299 8.82993 30.4699 13.8999C29.6299 15.3099 28.7199 16.5199 27.7599 17.5299" stroke="#1E70B9" stroke-miterlimit="10" stroke-linecap="round"/>
<path d="M10.83 5.6499L27.77 22.3599" stroke="#1E70B9" stroke-miterlimit="10" stroke-linecap="round"/>
<path d="M29.87 27.3199H34.86C35.78 27.3199 36.52 26.5699 36.52 25.6599V2.34994C36.52 1.42994 35.77 0.689941 34.86 0.689941H29.87" stroke="#1E70B9" stroke-miterlimit="10" stroke-linecap="round"/>
<path d="M8.12998 27.3199H3.13998C2.21998 27.3199 1.47998 26.5699 1.47998 25.6599V2.34994C1.47998 1.42994 2.22998 0.689941 3.13998 0.689941H8.12998" stroke="#1E70B9" stroke-miterlimit="10" stroke-linecap="round"/>
</svg>
