<svg width="37" height="37" viewBox="0 0 37 37" fill="none" xmlns="http://www.w3.org/2000/svg">
<path d="M21.83 1H3.5C2.11929 1 1 2.11929 1 3.5V21.83C1 23.2107 2.11929 24.33 3.5 24.33H21.83C23.2107 24.33 24.33 23.2107 24.33 21.83V3.5C24.33 2.11929 23.2107 1 21.83 1Z" fill="white" stroke="#1E70B9" stroke-miterlimit="10"/>
<path d="M33.5 12.6699H15.17C13.7893 12.6699 12.67 13.7892 12.67 15.1699V33.4999C12.67 34.8806 13.7893 35.9999 15.17 35.9999H33.5C34.8808 35.9999 36 34.8806 36 33.4999V15.1699C36 13.7892 34.8808 12.6699 33.5 12.6699Z" fill="white" stroke="#1E70B9" stroke-miterlimit="10"/>
<path d="M13.72 13.25L13.46 12.97H13.72V13.25Z" fill="#1E70B9"/>
<path d="M5.06998 9.72998V13.64C5.06998 14.12 4.81998 14.3 4.27998 14.3C4.21998 14.3 4.02998 14.3 3.72998 14.27V15.23C3.99998 15.29 4.26998 15.33 4.51998 15.33C5.59998 15.33 6.19998 14.8 6.19998 13.76V9.72998H5.06998Z" fill="#1E70B9"/>
<path d="M9.52996 9.72998H7.45996V15.23H8.58996V13.29H9.52996C10.68 13.29 11.51 12.55 11.51 11.5C11.51 10.45 10.68 9.72998 9.52996 9.72998ZM9.52996 12.3H8.58996V10.72H9.52996C10.04 10.72 10.36 11.04 10.36 11.5C10.36 11.96 10.06 12.3 9.52996 12.3Z" fill="#1E70B9"/>
<path d="M13.2699 13.78L13.5399 12.82H15.4399V11.86H13.5399V10.74H16.1199V9.72998H12.4199V15.23H13.1399V14.21L13.2699 13.78Z" fill="#1E70B9"/>
<path d="M19.68 9.62991C18.06 9.59991 16.71 10.8899 16.74 12.4799C16.74 12.5899 16.74 12.7099 16.76 12.8199H17.93C17.91 12.7099 17.9 12.5999 17.9 12.4799C17.9 11.4299 18.62 10.6699 19.67 10.6699C20.3 10.6699 20.81 10.9399 21.2 11.4799L22 10.8199C21.46 10.0599 20.65 9.62991 19.68 9.62991Z" fill="#1E70B9"/>
<path d="M16.28 25.98C16.71 25.98 17.05 26.32 17.05 26.75C17.05 27.18 16.72 27.52 16.28 27.52C15.84 27.52 15.5 27.19 15.5 26.75C15.5 26.31 15.84 25.98 16.28 25.98Z" fill="#1E70B9"/>
<path d="M18.4599 25.7301C18.8199 26.2201 19.2099 26.5301 19.8099 26.5301C20.2999 26.5301 20.5899 26.3001 20.5899 25.9201C20.5899 25.5901 20.4199 25.4801 19.8899 25.2401L19.2999 24.9701C18.4599 24.5901 17.9699 24.1201 17.9699 23.3901C17.9699 22.4501 18.7499 21.8301 19.7899 21.8301C20.6299 21.8301 21.2599 22.2401 21.6099 22.8701L20.8399 23.4601C20.5599 23.0401 20.2099 22.8301 19.7899 22.8301C19.3999 22.8301 19.1099 23.0201 19.1099 23.3601C19.1099 23.6501 19.2799 23.7801 19.7499 23.9901L20.3699 24.2701C21.2899 24.6801 21.7299 25.1401 21.7299 25.8801C21.7299 26.8901 20.9099 27.5301 19.8099 27.5301C18.8799 27.5301 18.1099 27.0601 17.6899 26.3101L18.4599 25.7301Z" fill="#1E70B9"/>
<path d="M27.3599 21.9302L24.9099 27.5302H24.5299L22.0699 21.9302H23.3399L24.7199 25.2602L26.0899 21.9302H27.3599Z" fill="#1E70B9"/>
<path d="M30.56 21.8301C31.53 21.8301 32.34 22.2601 32.88 23.0201L32.08 23.6801C31.69 23.1401 31.18 22.8701 30.55 22.8701C29.5 22.8701 28.78 23.6301 28.78 24.6801C28.78 25.7301 29.52 26.5201 30.61 26.5201C31.24 26.5201 31.75 26.2601 32.06 25.8401V25.3901H30.54V24.4201H33.18V26.0401C32.93 26.4801 32.57 26.8501 32.11 27.1201C31.65 27.4001 31.13 27.5301 30.56 27.5301C28.94 27.5601 27.59 26.2601 27.62 24.6801C27.59 23.1001 28.94 21.8001 30.56 21.8301Z" fill="#1E70B9"/>
</svg>
