<svg width="37" height="37" viewBox="0 0 37 37" fill="none" xmlns="http://www.w3.org/2000/svg">
<path d="M21.83 1H3.5C2.11929 1 1 2.11929 1 3.5V21.83C1 23.2107 2.11929 24.33 3.5 24.33H21.83C23.2107 24.33 24.33 23.2107 24.33 21.83V3.5C24.33 2.11929 23.2107 1 21.83 1Z" fill="white" stroke="#1E70B9" stroke-miterlimit="10"/>
<path d="M33.5 12.6699H15.17C13.7893 12.6699 12.67 13.7892 12.67 15.1699V33.4999C12.67 34.8806 13.7893 35.9999 15.17 35.9999H33.5C34.8808 35.9999 36 34.8806 36 33.4999V15.1699C36 13.7892 34.8808 12.6699 33.5 12.6699Z" fill="white" stroke="#1E70B9" stroke-miterlimit="10"/>
<path d="M13.72 13.25L13.46 12.97H13.72V13.25Z" fill="#1E70B9"/>
<path d="M7.48001 9.96997V13.88C7.48001 14.36 7.23002 14.54 6.69002 14.54C6.62002 14.54 6.44001 14.53 6.14001 14.51V15.46C6.40001 15.53 6.67002 15.56 6.93002 15.56C8.00002 15.56 8.60002 15.04 8.60002 14V9.96997H7.48001Z" fill="#1E70B9"/>
<path d="M11.93 9.96997H9.87V15.46H10.99V13.52H11.93C13.08 13.52 13.92 12.79 13.92 11.74C13.92 10.69 13.08 9.96997 11.93 9.96997ZM11.93 12.54H10.99V10.96H11.93C12.44 10.96 12.77 11.27 12.77 11.74C12.77 12.21 12.46 12.54 11.93 12.54Z" fill="#1E70B9"/>
<path d="M17.42 12.4499V12.7099H20.06V12.4499H17.42ZM17.44 9.8699C15.81 9.8399 14.47 11.1199 14.5 12.7099H15.65C15.65 11.6699 16.37 10.9099 17.42 10.9099C18.05 10.9099 18.56 11.1699 18.95 11.7199L19.75 11.0599C19.22 10.2999 18.4 9.8699 17.44 9.8699Z" fill="#1E70B9"/>
<path d="M16.29 25.6299C16.72 25.6299 17.06 25.9699 17.06 26.3999C17.06 26.8299 16.73 27.1699 16.29 27.1699C15.85 27.1699 15.51 26.8399 15.51 26.3999C15.51 25.9599 15.85 25.6299 16.29 25.6299Z" fill="#1E70B9"/>
<path d="M18.47 25.38C18.83 25.87 19.22 26.18 19.82 26.18C20.31 26.18 20.6 25.95 20.6 25.57C20.6 25.24 20.43 25.13 19.9 24.89L19.31 24.62C18.47 24.24 17.98 23.77 17.98 23.04C17.98 22.1 18.76 21.48 19.8 21.48C20.64 21.48 21.27 21.89 21.62 22.52L20.85 23.11C20.57 22.69 20.22 22.48 19.8 22.48C19.41 22.48 19.12 22.67 19.12 23.01C19.12 23.3 19.29 23.43 19.76 23.64L20.38 23.92C21.3 24.33 21.74 24.79 21.74 25.53C21.74 26.54 20.92 27.18 19.82 27.18C18.89 27.18 18.12 26.71 17.7 25.96L18.47 25.38Z" fill="#1E70B9"/>
<path d="M27.37 21.5801L24.92 27.1801H24.54L22.08 21.5801H23.35L24.73 24.9101L26.1 21.5801H27.37Z" fill="#1E70B9"/>
<path d="M30.57 21.48C31.54 21.48 32.35 21.91 32.89 22.67L32.09 23.33C31.7 22.79 31.19 22.52 30.56 22.52C29.51 22.52 28.79 23.28 28.79 24.33C28.79 25.38 29.53 26.17 30.62 26.17C31.25 26.17 31.76 25.91 32.07 25.49V25.04H30.55V24.07H33.19V25.69C32.94 26.13 32.58 26.5 32.12 26.77C31.66 27.05 31.14 27.18 30.57 27.18C28.95 27.21 27.6 25.91 27.63 24.33C27.6 22.75 28.95 21.45 30.57 21.48Z" fill="#1E70B9"/>
</svg>
