<svg xmlns="http://www.w3.org/2000/svg" xmlns:xlink="http://www.w3.org/1999/xlink" width="154.346" height="139.669" viewBox="0 0 154.346 139.669">
  <defs>
    <filter id="Rectangle_458" x="31.495" y="20.703" width="96.206" height="118.967" filterUnits="userSpaceOnUse">
      <feOffset dy="6" input="SourceAlpha"/>
      <feGaussianBlur stdDeviation="4" result="blur"/>
      <feFlood flood-opacity="0.102"/>
      <feComposite operator="in" in2="blur"/>
      <feComposite in="SourceGraphic"/>
    </filter>
  </defs>
  <g id="Group_2063" data-name="Group 2063" transform="translate(2592.624 -2585.089)">
    <g id="Group_2065" data-name="Group 2065" transform="translate(-2489.966 2585.089) rotate(30)">
      <rect id="Rectangle_458-2" data-name="Rectangle 458" width="59.685" height="78.784" transform="translate(0 0)" fill="#edf2f7"/>
      <g id="Group_2063-2" data-name="Group 2063" transform="translate(7.162 9.55)">
        <rect id="Rectangle_459" data-name="Rectangle 459" width="19.696" height="6.565" transform="translate(25.665 0)" fill="#fff"/>
        <rect id="Rectangle_460" data-name="Rectangle 460" width="45.36" height="3.581" transform="translate(0 12.534)" fill="#fff"/>
        <rect id="Rectangle_461" data-name="Rectangle 461" width="45.36" height="3.581" transform="translate(0 19.099)" fill="#fff"/>
        <rect id="Rectangle_462" data-name="Rectangle 462" width="45.36" height="3.581" transform="translate(0 25.664)" fill="#fff"/>
        <rect id="Rectangle_463" data-name="Rectangle 463" width="45.36" height="3.581" transform="translate(0 32.23)" fill="#fff"/>
        <rect id="Rectangle_464" data-name="Rectangle 464" width="45.36" height="3.581" transform="translate(0 38.795)" fill="#fff"/>
        <rect id="Rectangle_465" data-name="Rectangle 465" width="45.36" height="3.581" transform="translate(0 45.36)" fill="#fff"/>
        <rect id="Rectangle_466" data-name="Rectangle 466" width="45.36" height="3.581" transform="translate(0 51.926)" fill="#fff"/>
        <rect id="Rectangle_467" data-name="Rectangle 467" width="45.36" height="3.581" transform="translate(0 58.491)" fill="#fff"/>
      </g>
      <path id="Path_1509" data-name="Path 1509" d="M0,0H4.562V14.921L2.384,13.727,0,14.921Z" transform="translate(8.356 0)" fill="#e09c9c"/>
    </g>
    <g id="Group_2066" data-name="Group 2066" transform="translate(-2592.624 2614.932) rotate(-30)">
      <rect id="Rectangle_458-3" data-name="Rectangle 458" width="59.685" height="78.784" transform="translate(0 0)" fill="#edf2f7"/>
      <g id="Group_2063-3" data-name="Group 2063" transform="translate(7.162 9.55)">
        <rect id="Rectangle_459-2" data-name="Rectangle 459" width="19.696" height="6.565" transform="translate(25.664 0)" fill="#fff"/>
        <rect id="Rectangle_460-2" data-name="Rectangle 460" width="45.36" height="3.581" transform="translate(0 12.534)" fill="#fff"/>
        <rect id="Rectangle_461-2" data-name="Rectangle 461" width="45.36" height="3.581" transform="translate(0 19.099)" fill="#fff"/>
        <rect id="Rectangle_462-2" data-name="Rectangle 462" width="45.36" height="3.581" transform="translate(0 25.664)" fill="#fff"/>
        <rect id="Rectangle_463-2" data-name="Rectangle 463" width="45.36" height="3.581" transform="translate(0 32.23)" fill="#fff"/>
        <rect id="Rectangle_464-2" data-name="Rectangle 464" width="45.36" height="3.581" transform="translate(0 38.795)" fill="#fff"/>
        <rect id="Rectangle_465-2" data-name="Rectangle 465" width="45.36" height="3.581" transform="translate(0 45.36)" fill="#fff"/>
        <rect id="Rectangle_466-2" data-name="Rectangle 466" width="45.36" height="3.581" transform="translate(0 51.926)" fill="#fff"/>
        <rect id="Rectangle_467-2" data-name="Rectangle 467" width="45.36" height="3.581" transform="translate(0 58.491)" fill="#fff"/>
      </g>
      <path id="Path_1509-2" data-name="Path 1509" d="M0,0H4.562V14.921L2.384,13.727,0,14.921Z" transform="translate(8.356 0)" fill="#989898"/>
    </g>
    <g id="Group_2064" data-name="Group 2064" transform="translate(-2549.128 2611.713)">
      <g transform="matrix(1, 0, 0, 1, -43.5, -26.62)" filter="url(#Rectangle_458)">
        <rect id="Rectangle_458-4" data-name="Rectangle 458" width="72.206" height="94.967" transform="translate(43.5 26.7)" fill="#fff"/>
      </g>
      <g id="Group_2063-4" data-name="Group 2063" transform="translate(8.633 11.851)">
        <rect id="Rectangle_459-3" data-name="Rectangle 459" width="24.33" height="7.848" transform="translate(30.609 0)" fill="#f7f7f7"/>
        <rect id="Rectangle_460-3" data-name="Rectangle 460" width="54.939" height="3.924" transform="translate(0 14.912)" fill="#f7f7f7"/>
        <rect id="Rectangle_461-3" data-name="Rectangle 461" width="54.939" height="4.709" transform="translate(0 22.761)" fill="#f7f7f7"/>
        <rect id="Rectangle_462-3" data-name="Rectangle 462" width="54.939" height="4.709" transform="translate(0 30.609)" fill="#f7f7f7"/>
        <rect id="Rectangle_463-3" data-name="Rectangle 463" width="54.939" height="4.709" transform="translate(0 38.458)" fill="#f7f7f7"/>
        <rect id="Rectangle_464-3" data-name="Rectangle 464" width="54.939" height="4.709" transform="translate(0 46.306)" fill="#f7f7f7"/>
        <rect id="Rectangle_465-3" data-name="Rectangle 465" width="54.939" height="3.924" transform="translate(0 54.939)" fill="#f7f7f7"/>
        <rect id="Rectangle_466-3" data-name="Rectangle 466" width="54.939" height="3.924" transform="translate(0 62.788)" fill="#f7f7f7"/>
        <rect id="Rectangle_467-3" data-name="Rectangle 467" width="54.939" height="3.924" transform="translate(0 70.636)" fill="#f7f7f7"/>
      </g>
      <path id="Path_1509-3" data-name="Path 1509" d="M0,0H5.521V18.06L2.886,16.615,0,18.06Z" transform="translate(9.893)" fill="#a18ccf"/>
    </g>
  </g>
</svg>
