<svg id="download" xmlns="http://www.w3.org/2000/svg" width="14.6" height="14.6" viewBox="0 0 14.6 14.6">
  <g id="Group_3328" data-name="Group 3328">
    <path id="Path_1681" data-name="Path 1681" d="M99.577,101.938a.686.686,0,0,1,.97,0l2.466,2.466V97.085a.686.686,0,0,1,1.372,0V104.4l2.466-2.466a.686.686,0,0,1,.97.97l-3.637,3.638a.686.686,0,0,1-.97,0l-3.638-3.637A.686.686,0,0,1,99.577,101.938ZM110.314,111H97.086a.686.686,0,0,1,0-1.372h13.228a.686.686,0,0,1,0,1.372Z" transform="translate(-96.4 -96.399)"/>
  </g>
</svg>
