<svg xmlns="http://www.w3.org/2000/svg" width="33.6" height="21" viewBox="0 0 33.6 21">
  <path id="Path_1627" data-name="Path 1627" d="M-251.826,1175c0,6-4.026,10.257-10.085,10.257a10.5,10.5,0,0,1-10.5-10.5,10.5,10.5,0,0,1,10.5-10.5,10.032,10.032,0,0,1,7.034,2.75l-2.851,2.736a5.894,5.894,0,0,0-4.183-1.619,6.573,6.573,0,0,0-6.5,6.633,6.573,6.573,0,0,0,6.5,6.633,5.687,5.687,0,0,0,5.959-4.528h-5.959v-3.609H-252A8.918,8.918,0,0,1-251.826,1175Zm13.015-1.4v3.063h-3.048v3.048h-3.062v-3.048h-3.048v-3.063h3.048v-3.047h3.062v3.047Z" transform="translate(272.411 -1164.26)" fill="#fff"/>
</svg>
