<?xml version="1.0" standalone="no"?>
<!DOCTYPE svg PUBLIC "-//W3C//DTD SVG 20010904//EN"
 "http://www.w3.org/TR/2001/REC-SVG-20010904/DTD/svg10.dtd">
<svg version="1.0" xmlns="http://www.w3.org/2000/svg"
 width="300.000000pt" height="41.000000pt" viewBox="0 0 300.000000 41.000000"
 preserveAspectRatio="xMidYMid meet">
<metadata>
Created by potrace 1.10, written by Peter Selinger 2001-2011
</metadata>
<g transform="translate(0.000000,41.000000) scale(0.100000,-0.100000)"
fill="#000000" stroke="none">
<path d="M347 383 c-3 -4 -21 -39 -42 -77 l-37 -68 28 -29 c15 -16 32 -29 37
-29 17 0 108 84 103 96 -2 6 5 26 15 44 11 18 19 33 17 34 -2 1 -23 8 -47 15
-23 7 -49 15 -56 17 -7 3 -15 2 -18 -3z m62 -44 c32 -11 42 -29 16 -29 -8 0
-15 -7 -15 -15 0 -22 -46 -38 -71 -25 -29 16 -23 20 21 15 24 -3 40 -1 40 5 0
5 -8 10 -17 10 -28 0 -47 16 -40 34 7 19 23 20 66 5z"/>
<path d="M93 363 c-13 -8 -23 -21 -23 -28 0 -7 -11 -20 -25 -29 -24 -16 -24
-18 -9 -33 14 -15 17 -14 38 12 16 20 28 26 42 21 27 -8 284 -263 284 -281 0
-20 14 -19 34 4 16 18 14 21 -51 82 -213 202 -236 226 -229 244 5 14 13 16 42
10 24 -4 34 -3 29 4 -10 17 -107 12 -132 -6z"/>
<path d="M2669 356 c-2 -2 -2 -71 1 -153 l5 -148 43 -3 c36 -3 42 0 42 16 0
11 -7 22 -15 26 -12 4 -15 28 -15 124 0 120 -6 142 -40 142 -9 0 -19 -2 -21
-4z"/>
<path d="M914 336 c-11 -28 4 -46 36 -46 28 0 31 3 28 28 -2 21 -9 28 -31 30
-18 2 -29 -2 -33 -12z"/>
<path d="M630 196 c0 -119 3 -145 15 -150 33 -12 45 4 45 65 l0 59 50 0 50 0
0 -59 c0 -62 9 -75 47 -65 17 5 18 16 15 149 l-3 145 -30 0 c-29 0 -29 0 -29
-60 l0 -60 -50 0 -50 0 0 60 c0 60 0 60 -30 60 l-30 0 0 -144z"/>
<path d="M1142 193 l3 -148 30 0 c30 0 30 0 31 60 l1 60 47 -3 c46 -4 46 -4
46 28 0 32 0 33 -41 27 -41 -5 -45 -3 -51 38 -3 18 4 21 57 25 57 5 60 7 63
33 l3 27 -96 0 -96 0 3 -147z"/>
<path d="M2017 334 c-4 -4 -7 -18 -7 -31 0 -20 5 -23 40 -23 l40 0 0 -114 c0
-120 4 -131 47 -120 16 5 18 15 15 119 l-3 114 38 3 c33 3 38 6 38 28 0 25 -1
25 -101 28 -55 1 -103 0 -107 -4z"/>
<path d="M893 244 c-4 -10 0 -22 10 -29 12 -9 17 -32 19 -91 l3 -79 30 0 30 0
3 87 c2 50 -2 97 -8 108 -14 26 -77 28 -87 4z"/>
<path d="M1346 244 c-3 -8 -1 -24 4 -34 6 -10 10 -52 10 -93 l0 -73 30 0 30 0
0 62 c0 78 6 94 36 94 17 0 27 8 34 26 14 35 14 34 -20 34 -20 0 -33 -7 -41
-22 l-12 -22 -15 22 c-17 26 -47 29 -56 6z"/>
<path d="M1541 243 c-43 -35 -45 -150 -4 -181 45 -33 138 -24 138 13 0 16 -6
19 -29 17 -42 -5 -76 6 -76 23 0 11 13 15 55 15 50 0 55 2 61 25 8 31 -12 82
-37 95 -28 16 -85 12 -108 -7z m83 -39 c11 -28 7 -34 -24 -34 -22 0 -30 5 -30
18 0 10 3 22 7 25 12 13 41 7 47 -9z"/>
<path d="M1764 252 c-27 -18 -44 -60 -44 -105 0 -84 65 -127 145 -97 17 7 25
16 23 28 -3 13 -12 16 -41 14 -36 -4 -67 10 -67 29 0 5 27 9 60 9 l60 0 0 40
c0 55 -34 90 -87 90 -21 0 -43 -4 -49 -8z m75 -51 c13 -23 5 -31 -31 -31 -30
0 -37 17 -16 38 17 17 36 15 47 -7z"/>
<path d="M2241 241 c-20 -15 -25 -30 -29 -78 -4 -52 -1 -63 21 -89 21 -24 33
-29 71 -29 63 0 88 26 94 97 4 47 1 58 -23 86 -22 27 -34 32 -68 32 -25 0 -52
-8 -66 -19z m78 -30 c15 -10 20 -88 7 -109 -10 -17 -43 -15 -50 4 -9 24 -7 73
4 95 12 21 18 23 39 10z"/>
<path d="M2459 234 c-20 -21 -24 -36 -24 -85 0 -77 24 -104 91 -104 61 0 94
35 94 101 0 78 -30 113 -96 114 -31 0 -46 -6 -65 -26z m95 -56 c11 -46 -5 -88
-33 -88 -14 0 -21 9 -26 38 -14 82 40 128 59 50z"/>
<path d="M2810 240 c-40 -40 -21 -87 46 -115 52 -21 44 -39 -15 -32 -40 5 -51
3 -55 -10 -9 -23 2 -31 59 -38 42 -6 54 -4 78 15 49 39 29 100 -39 119 -36 9
-39 36 -4 35 14 0 31 -3 38 -5 8 -2 19 4 25 14 16 24 -5 37 -65 37 -35 0 -54
-6 -68 -20z"/>
<path d="M191 130 c-23 -33 -41 -67 -41 -75 0 -8 -6 -14 -12 -13 -16 4 -17
-34 -2 -39 5 -2 42 27 82 64 l72 68 -29 27 -29 28 -41 -60z"/>
</g>
</svg>
