<svg xmlns="http://www.w3.org/2000/svg" xmlns:xlink="http://www.w3.org/1999/xlink" width="320" height="334" viewBox="0 0 320 334">
  <defs>
    <clipPath id="clip-path">
      <rect id="Rectangle_22698" data-name="Rectangle 22698" width="63" height="36" transform="translate(0 0)" fill="#fff"/>
    </clipPath>
  </defs>
  <g id="en" transform="translate(7129 2965)">
    <rect id="Rectangle_22697" data-name="Rectangle 22697" width="320" height="334" transform="translate(-7129 -2965)" fill="#383b3d"/>
    <path id="Path_102072" data-name="Path 102072" d="M0,0S35.642,44,165.424,44,320,0,320,0V132H0Z" transform="translate(-7129 -2763)" fill="#202223"/>
    <g id="Mask_Group_32080" data-name="Mask Group 32080" transform="translate(-6809 -2964.526) rotate(90)" clip-path="url(#clip-path)">
      <g id="Group_33207" data-name="Group 33207" transform="translate(-6 -9.198)">
        <path id="Path_102073" data-name="Path 102073" d="M17.605,40.193A1.625,1.625,0,0,1,16.467,38.4c.039-1.279.01-2.56.01-3.9-.127.074-.214.114-.289.17-1.016.759-2.029,1.523-3.047,2.279a1.44,1.44,0,1,1-1.721-2.294c1.6-1.2,3.2-2.4,4.8-3.609a.65.65,0,0,0,.25-.433c.015-2.577.011-5.154.01-7.732,0-.05-.012-.1-.025-.2-.134.068-.245.117-.349.18-2.1,1.258-4.185,2.526-6.288,3.77a.843.843,0,0,0-.455.739q-.282,2.967-.61,5.93a1.424,1.424,0,1,1-2.837-.25c.09-1.173.23-2.342.348-3.513.023-.232.043-.465.072-.784-.175.1-.293.155-.407.223-1.1.658-2.194,1.322-3.3,1.974a1.355,1.355,0,0,1-1.584-.068,1.367,1.367,0,0,1-.556-1.452,1.453,1.453,0,0,1,.758-1q1.6-.951,3.2-1.912c.121-.073.237-.154.408-.264L2.058,25.116c-.351-.143-.7-.284-1.052-.428A1.437,1.437,0,1,1,2.1,22.039c1.853.748,3.7,1.506,5.557,2.245a.64.64,0,0,0,.493-.01c2.26-1.339,4.51-2.695,6.762-4.047.052-.032.1-.073.178-.132-.134-.089-.236-.162-.344-.227-2.151-1.292-4.306-2.578-6.45-3.882a.736.736,0,0,0-.752-.05c-1.81.749-3.621,1.5-5.447,2.206a2.034,2.034,0,0,1-1.061.092A1.327,1.327,0,0,1,.014,16.99a1.4,1.4,0,0,1,.88-1.436c1.169-.486,2.346-.955,3.52-1.432.129-.052.255-.111.436-.19-.436-.266-.823-.505-1.213-.74-.806-.485-1.616-.963-2.42-1.453A1.436,1.436,0,1,1,2.695,9.283c1.068.633,2.128,1.279,3.193,1.918.121.072.246.137.445.247-.079-.8-.15-1.535-.223-2.267-.065-.65-.152-1.3-.2-1.951a1.428,1.428,0,1,1,2.841-.288q.326,2.923.6,5.852a.909.909,0,0,0,.493.8c2.094,1.234,4.172,2.5,6.256,3.747.1.059.2.108.349.186.009-.164.022-.289.022-.413,0-2.473,0-4.945.007-7.418a.642.642,0,0,0-.294-.584c-1.6-1.184-3.181-2.384-4.775-3.572a1.465,1.465,0,0,1-.675-1.334,1.347,1.347,0,0,1,.826-1.2,1.4,1.4,0,0,1,1.482.167q1.526,1.136,3.046,2.281c.1.076.206.146.383.27,0-.212,0-.349,0-.486,0-1.3-.012-2.591.013-3.885A1.4,1.4,0,0,1,17.777.006a1.419,1.419,0,0,1,1.508,1.052,2.336,2.336,0,0,1,.052.582c0,1.334,0,2.668,0,4.08.158-.108.272-.179.38-.26,1.026-.767,2.046-1.543,3.079-2.3a1.357,1.357,0,0,1,1.585-.076,1.363,1.363,0,0,1,.68,1.434,1.522,1.522,0,0,1-.69,1.048C22.8,6.738,21.238,7.921,19.661,9.087a.705.705,0,0,0-.329.644c.013,2.577.008,5.154.008,7.8.147-.077.257-.128.36-.189Q22.91,15.42,26.123,13.5a.571.571,0,0,0,.309-.49c.192-1.952.4-3.9.6-5.853a1.464,1.464,0,0,1,1.468-1.515,1.428,1.428,0,0,1,1.417,1.616c-.133,1.327-.275,2.653-.412,3.979-.005.05,0,.1,0,.2.149-.081.272-.142.39-.213,1.11-.665,2.213-1.342,3.33-1.994a1.408,1.408,0,0,1,1.859.378,1.433,1.433,0,0,1-.13,1.865,2.377,2.377,0,0,1-.442.322c-1.04.63-2.083,1.254-3.124,1.881-.121.073-.237.153-.406.262l3.156,1.289c.218.089.437.173.654.264a1.441,1.441,0,1,1-1.075,2.661c-1.828-.739-3.657-1.477-5.479-2.231a.665.665,0,0,0-.682.048c-2.144,1.3-4.3,2.593-6.447,3.887-.111.067-.219.137-.363.228.1.074.175.138.258.188q3.308,1.993,6.614,3.989a.563.563,0,0,0,.576.027c1.848-.76,3.695-1.523,5.557-2.245a2.053,2.053,0,0,1,1.1-.077,1.312,1.312,0,0,1,.979,1.234,1.394,1.394,0,0,1-.885,1.434c-1.034.437-2.079.85-3.119,1.275-.264.108-.528.219-.846.35.161.1.277.18.4.253,1.1.661,2.2,1.313,3.291,1.983a1.411,1.411,0,0,1,.675,1.512,1.342,1.342,0,0,1-1.168,1.113,2.028,2.028,0,0,1-1.073-.241c-1.1-.61-2.159-1.279-3.235-1.924-.109-.065-.222-.123-.384-.213.114,1.123.222,2.186.33,3.249.029.286.059.572.093.858a1.452,1.452,0,0,1-1.2,1.693A1.428,1.428,0,0,1,27.047,33.2c-.151-1.351-.277-2.705-.415-4.058-.069-.676-.135-1.353-.221-2.027a.516.516,0,0,0-.188-.343q-3.353-2.032-6.72-4.041a.77.77,0,0,0-.144-.043c-.007.151-.018.288-.018.425,0,2.446,0,4.893-.007,7.339a.7.7,0,0,0,.321.649c1.588,1.173,3.165,2.361,4.744,3.547a1.456,1.456,0,0,1,.627,1.641,1.427,1.427,0,0,1-2.251.726c-1.026-.746-2.032-1.518-3.048-2.278-.1-.077-.209-.148-.358-.254-.012.155-.027.263-.027.372,0,1.177-.033,2.356.009,3.532a1.649,1.649,0,0,1-1.116,1.8Z" transform="translate(0 0)" fill="#646464"/>
      </g>
    </g>
    <g id="Group_33208" data-name="Group 33208" transform="translate(-7096.354 -2938.5)">
      <path id="Path_102067" data-name="Path 102067" d="M133.986,246.131a.667.667,0,0,1-.467-.734c.016-.525,0-1.051,0-1.6-.052.03-.088.047-.119.07-.417.311-.833.625-1.251.936a.591.591,0,1,1-.707-.942c.656-.494,1.315-.985,1.969-1.482a.267.267,0,0,0,.1-.178c.006-1.058,0-2.116,0-3.174,0-.02-.005-.041-.01-.083-.055.028-.1.048-.143.074-.86.517-1.718,1.037-2.581,1.548a.346.346,0,0,0-.187.3q-.116,1.218-.25,2.434a.585.585,0,1,1-1.165-.1c.037-.481.095-.961.143-1.442.01-.1.018-.191.03-.322-.072.039-.12.064-.167.092-.451.27-.9.543-1.353.81a.587.587,0,0,1-.879-.624.6.6,0,0,1,.311-.409q.657-.39,1.312-.785c.05-.03.1-.063.168-.109l-1.147-.467c-.144-.059-.288-.116-.432-.176a.59.59,0,1,1,.448-1.087c.761.307,1.519.618,2.281.922a.263.263,0,0,0,.2,0c.928-.55,1.851-1.106,2.776-1.661.022-.013.041-.03.073-.054-.055-.036-.1-.067-.141-.093-.883-.531-1.768-1.058-2.648-1.594a.3.3,0,0,0-.309-.02c-.743.307-1.487.614-2.236.905a.835.835,0,0,1-.436.038.545.545,0,0,1-.419-.511.573.573,0,0,1,.361-.59c.48-.2.963-.392,1.445-.588.053-.021.1-.045.179-.078-.179-.109-.338-.207-.5-.3-.331-.2-.664-.4-.993-.6a.589.589,0,1,1,.607-1.009c.438.26.874.525,1.311.787.049.03.1.056.183.1-.032-.329-.061-.63-.092-.931-.027-.267-.062-.533-.081-.8a.586.586,0,1,1,1.166-.118q.134,1.2.247,2.4a.373.373,0,0,0,.2.328c.86.507,1.713,1.025,2.568,1.538.04.024.083.044.143.077,0-.067.009-.119.009-.17,0-1.015,0-2.03,0-3.045a.264.264,0,0,0-.121-.24c-.655-.486-1.306-.979-1.96-1.466a.6.6,0,0,1-.277-.548.553.553,0,0,1,.339-.491.573.573,0,0,1,.609.069q.626.467,1.25.936c.042.031.085.06.157.111,0-.087,0-.143,0-.2,0-.532,0-1.063.005-1.595a.573.573,0,0,1,.528-.554.582.582,0,0,1,.619.432.958.958,0,0,1,.021.239c0,.548,0,1.1,0,1.675.065-.044.112-.074.156-.107.421-.315.84-.634,1.264-.945a.587.587,0,0,1,.93.557.625.625,0,0,1-.283.43c-.645.482-1.287.967-1.935,1.446a.29.29,0,0,0-.135.264c.005,1.058,0,2.116,0,3.2.061-.032.105-.052.148-.078q1.318-.791,2.637-1.58a.234.234,0,0,0,.127-.2c.079-.8.166-1.6.244-2.4a.6.6,0,0,1,.6-.622.586.586,0,0,1,.582.663c-.055.545-.113,1.089-.169,1.634,0,.021,0,.042,0,.083.061-.033.112-.058.16-.087.456-.273.908-.551,1.367-.818a.578.578,0,0,1,.763.155.588.588,0,0,1-.053.766.976.976,0,0,1-.181.132c-.427.258-.855.515-1.282.772-.05.03-.1.063-.167.108l1.3.529c.089.036.179.071.269.108a.592.592,0,1,1-.441,1.092c-.751-.3-1.5-.606-2.249-.916a.273.273,0,0,0-.28.02c-.88.535-1.764,1.064-2.646,1.6-.045.027-.09.056-.149.094.041.03.072.057.106.077q1.358.818,2.715,1.637a.231.231,0,0,0,.237.011c.759-.312,1.517-.625,2.281-.922a.843.843,0,0,1,.451-.032.538.538,0,0,1,.4.507.572.572,0,0,1-.363.589c-.425.18-.853.349-1.28.523l-.347.144c.066.042.114.074.163.1.45.271.9.539,1.351.814a.579.579,0,0,1,.277.621.551.551,0,0,1-.48.457.833.833,0,0,1-.44-.1c-.45-.251-.886-.525-1.328-.79-.045-.027-.091-.051-.158-.087.047.461.091.9.136,1.334.012.117.024.235.038.352a.6.6,0,0,1-.494.7.586.586,0,0,1-.679-.549c-.062-.555-.114-1.111-.171-1.666-.028-.278-.055-.555-.091-.832a.212.212,0,0,0-.077-.141q-1.376-.834-2.758-1.659a.315.315,0,0,0-.059-.018c0,.062-.008.118-.008.174,0,1,0,2.009,0,3.013a.289.289,0,0,0,.132.266c.652.481,1.3.969,1.947,1.456a.6.6,0,0,1,.257.674.586.586,0,0,1-.924.3c-.421-.306-.834-.623-1.251-.935-.042-.032-.086-.061-.147-.1,0,.063-.011.108-.011.153,0,.483-.014.967,0,1.45a.677.677,0,0,1-.458.741Z" transform="translate(-126.759 -229.631)" fill="#646464"/>
    </g>
    <path id="Path_102074" data-name="Path 102074" d="M296.223,33.4l9.991-1.81-9.991-1.81,2.741-3.954-3.954,2.741-1.81-9.991-1.81,9.991-3.954-2.741,2.741,3.954-9.991,1.81,9.991,1.81-2.741,3.954,3.954-2.741L293.2,44.6l1.81-9.991,3.954,2.741Z" transform="translate(-7133.214 -2914.577)" fill="#fbb040"/>
    <path id="Path_102075" data-name="Path 102075" d="M296.223,33.4l9.991-1.81-9.991-1.81,2.741-3.954-3.954,2.741-1.81-9.991-1.81,9.991-3.954-2.741,2.741,3.954-9.991,1.81,9.991,1.81-2.741,3.954,3.954-2.741L293.2,44.6l1.81-9.991,3.954,2.741Z" transform="translate(-7395.214 -2816.577)" fill="#fbb040"/>
    <g id="Group_33209" data-name="Group 33209" transform="translate(-6867.488 -2863.876)">
      <path id="Path_102067-2" data-name="Path 102067" d="M141.981,264.383a1.4,1.4,0,0,1-.984-1.547c.034-1.106.009-2.214.009-3.376-.11.064-.185.1-.25.147-.879.656-1.754,1.316-2.635,1.971a1.245,1.245,0,1,1-1.488-1.984c1.382-1.041,2.769-2.074,4.147-3.121A.562.562,0,0,0,141,256.1c.013-2.228.009-4.456.008-6.685,0-.043-.011-.086-.022-.176-.116.059-.212.1-.3.155-1.811,1.088-3.618,2.184-5.437,3.26a.729.729,0,0,0-.393.639q-.244,2.566-.527,5.127a1.231,1.231,0,1,1-2.453-.216c.078-1.014.2-2.025.3-3.037.02-.2.037-.4.062-.678-.151.083-.254.134-.352.193-.95.569-1.9,1.143-2.85,1.707a1.237,1.237,0,0,1-1.85-1.314,1.256,1.256,0,0,1,.656-.861q1.384-.822,2.763-1.654c.1-.063.205-.133.353-.229l-2.415-.984c-.3-.124-.607-.245-.91-.37a1.243,1.243,0,1,1,.944-2.29c1.6.647,3.2,1.3,4.805,1.941a.553.553,0,0,0,.426-.009c1.954-1.158,3.9-2.33,5.846-3.5.045-.027.086-.063.154-.114-.116-.077-.2-.14-.3-.2-1.86-1.117-3.723-2.229-5.577-3.357a.636.636,0,0,0-.65-.043c-1.565.648-3.131,1.293-4.709,1.907a1.758,1.758,0,0,1-.917.08,1.147,1.147,0,0,1-.883-1.076,1.207,1.207,0,0,1,.761-1.242c1.011-.421,2.029-.826,3.043-1.238.111-.045.221-.1.377-.164-.377-.23-.712-.437-1.049-.64-.7-.419-1.4-.833-2.092-1.256a1.241,1.241,0,1,1,1.278-2.124c.923.547,1.84,1.106,2.761,1.659.1.063.213.118.385.213-.068-.693-.129-1.327-.193-1.96-.057-.562-.131-1.123-.17-1.687a1.235,1.235,0,1,1,2.456-.249q.282,2.528.521,5.06a.786.786,0,0,0,.427.69c1.811,1.067,3.607,2.158,5.409,3.24.085.051.174.093.3.161.008-.142.019-.25.019-.357,0-2.138,0-4.276.006-6.413a.555.555,0,0,0-.254-.5c-1.38-1.024-2.751-2.061-4.129-3.088a1.267,1.267,0,0,1-.583-1.154,1.165,1.165,0,0,1,.714-1.035,1.206,1.206,0,0,1,1.282.144q1.319.983,2.633,1.972c.087.065.178.126.331.234,0-.183,0-.3,0-.42,0-1.12-.01-2.24.011-3.359a1.206,1.206,0,0,1,1.112-1.167,1.227,1.227,0,0,1,1.3.91,2.018,2.018,0,0,1,.045.5c0,1.153,0,2.306,0,3.527.137-.093.236-.155.329-.225.887-.663,1.769-1.334,2.662-1.99a1.237,1.237,0,0,1,1.958,1.174,1.316,1.316,0,0,1-.6.906c-1.359,1.015-2.712,2.037-4.075,3.046a.61.61,0,0,0-.285.557c.011,2.228.007,4.456.007,6.747.127-.067.222-.11.311-.164q2.776-1.665,5.554-3.328a.494.494,0,0,0,.267-.423c.166-1.687.349-3.373.514-5.061a1.266,1.266,0,0,1,1.27-1.31,1.235,1.235,0,0,1,1.225,1.4c-.115,1.147-.238,2.294-.356,3.441,0,.043,0,.088,0,.175.129-.07.235-.123.337-.184.96-.575,1.913-1.16,2.88-1.724a1.218,1.218,0,0,1,1.607.327,1.239,1.239,0,0,1-.112,1.613,2.055,2.055,0,0,1-.382.278c-.9.544-1.8,1.084-2.7,1.626-.1.063-.205.132-.351.227l2.729,1.114c.188.077.378.15.566.228a1.246,1.246,0,1,1-.929,2.3c-1.581-.639-3.162-1.277-4.737-1.929a.575.575,0,0,0-.59.041c-1.854,1.127-3.715,2.242-5.574,3.361-.1.058-.189.119-.314.2.087.064.151.12.223.163q2.86,1.723,5.719,3.449a.487.487,0,0,0,.5.023c1.6-.657,3.194-1.317,4.8-1.941a1.775,1.775,0,0,1,.95-.067,1.134,1.134,0,0,1,.847,1.067,1.205,1.205,0,0,1-.765,1.24c-.894.378-1.8.735-2.7,1.1-.229.093-.456.189-.731.3.139.088.24.156.344.218.949.571,1.9,1.135,2.845,1.715a1.22,1.22,0,0,1,.584,1.307,1.16,1.16,0,0,1-1.01.962,1.754,1.754,0,0,1-.927-.209c-.947-.528-1.867-1.105-2.8-1.663-.094-.056-.192-.107-.332-.184.1.971.192,1.89.286,2.809.025.247.051.495.081.742a1.255,1.255,0,0,1-1.039,1.464,1.235,1.235,0,0,1-1.429-1.157c-.131-1.168-.239-2.339-.359-3.509-.06-.585-.117-1.17-.191-1.753a.446.446,0,0,0-.163-.3q-2.9-1.757-5.81-3.494a.661.661,0,0,0-.125-.038c-.006.131-.016.249-.016.367,0,2.115,0,4.23-.006,6.345a.609.609,0,0,0,.277.561c1.373,1.014,2.736,2.042,4.1,3.067a1.259,1.259,0,0,1,.542,1.419,1.234,1.234,0,0,1-1.946.627c-.887-.645-1.757-1.313-2.635-1.97-.089-.066-.181-.128-.31-.219-.01.134-.023.228-.023.322,0,1.018-.028,2.037.008,3.054a1.426,1.426,0,0,1-.965,1.561Z" transform="translate(-126.759 -229.631)" fill="#646464"/>
    </g>
    <g id="Group_33210" data-name="Group 33210" transform="translate(-7097.134 -2690.292)">
      <path id="Path_102067-3" data-name="Path 102067" d="M141.981,264.383a1.4,1.4,0,0,1-.984-1.547c.034-1.106.009-2.214.009-3.376-.11.064-.185.1-.25.147-.879.656-1.754,1.316-2.635,1.971a1.245,1.245,0,1,1-1.488-1.984c1.382-1.041,2.769-2.074,4.147-3.121A.562.562,0,0,0,141,256.1c.013-2.228.009-4.456.008-6.685,0-.043-.011-.086-.022-.176-.116.059-.212.1-.3.155-1.811,1.088-3.618,2.184-5.437,3.26a.729.729,0,0,0-.393.639q-.244,2.566-.527,5.127a1.231,1.231,0,1,1-2.453-.216c.078-1.014.2-2.025.3-3.037.02-.2.037-.4.062-.678-.151.083-.254.134-.352.193-.95.569-1.9,1.143-2.85,1.707a1.237,1.237,0,0,1-1.85-1.314,1.256,1.256,0,0,1,.656-.861q1.384-.822,2.763-1.654c.1-.063.205-.133.353-.229l-2.415-.984c-.3-.124-.607-.245-.91-.37a1.243,1.243,0,1,1,.944-2.29c1.6.647,3.2,1.3,4.805,1.941a.553.553,0,0,0,.426-.009c1.954-1.158,3.9-2.33,5.846-3.5.045-.027.086-.063.154-.114-.116-.077-.2-.14-.3-.2-1.86-1.117-3.723-2.229-5.577-3.357a.636.636,0,0,0-.65-.043c-1.565.648-3.131,1.293-4.709,1.907a1.758,1.758,0,0,1-.917.08,1.147,1.147,0,0,1-.883-1.076,1.207,1.207,0,0,1,.761-1.242c1.011-.421,2.029-.826,3.043-1.238.111-.045.221-.1.377-.164-.377-.23-.712-.437-1.049-.64-.7-.419-1.4-.833-2.092-1.256a1.241,1.241,0,1,1,1.278-2.124c.923.547,1.84,1.106,2.761,1.659.1.063.213.118.385.213-.068-.693-.129-1.327-.193-1.96-.057-.562-.131-1.123-.17-1.687a1.235,1.235,0,1,1,2.456-.249q.282,2.528.521,5.06a.786.786,0,0,0,.427.69c1.811,1.067,3.607,2.158,5.409,3.24.085.051.174.093.3.161.008-.142.019-.25.019-.357,0-2.138,0-4.276.006-6.413a.555.555,0,0,0-.254-.5c-1.38-1.024-2.751-2.061-4.129-3.088a1.267,1.267,0,0,1-.583-1.154,1.165,1.165,0,0,1,.714-1.035,1.206,1.206,0,0,1,1.282.144q1.319.983,2.633,1.972c.087.065.178.126.331.234,0-.183,0-.3,0-.42,0-1.12-.01-2.24.011-3.359a1.206,1.206,0,0,1,1.112-1.167,1.227,1.227,0,0,1,1.3.91,2.018,2.018,0,0,1,.045.5c0,1.153,0,2.306,0,3.527.137-.093.236-.155.329-.225.887-.663,1.769-1.334,2.662-1.99a1.237,1.237,0,0,1,1.958,1.174,1.316,1.316,0,0,1-.6.906c-1.359,1.015-2.712,2.037-4.075,3.046a.61.61,0,0,0-.285.557c.011,2.228.007,4.456.007,6.747.127-.067.222-.11.311-.164q2.776-1.665,5.554-3.328a.494.494,0,0,0,.267-.423c.166-1.687.349-3.373.514-5.061a1.266,1.266,0,0,1,1.27-1.31,1.235,1.235,0,0,1,1.225,1.4c-.115,1.147-.238,2.294-.356,3.441,0,.043,0,.088,0,.175.129-.07.235-.123.337-.184.96-.575,1.913-1.16,2.88-1.724a1.218,1.218,0,0,1,1.607.327,1.239,1.239,0,0,1-.112,1.613,2.055,2.055,0,0,1-.382.278c-.9.544-1.8,1.084-2.7,1.626-.1.063-.205.132-.351.227l2.729,1.114c.188.077.378.15.566.228a1.246,1.246,0,1,1-.929,2.3c-1.581-.639-3.162-1.277-4.737-1.929a.575.575,0,0,0-.59.041c-1.854,1.127-3.715,2.242-5.574,3.361-.1.058-.189.119-.314.2.087.064.151.12.223.163q2.86,1.723,5.719,3.449a.487.487,0,0,0,.5.023c1.6-.657,3.194-1.317,4.8-1.941a1.775,1.775,0,0,1,.95-.067,1.134,1.134,0,0,1,.847,1.067,1.205,1.205,0,0,1-.765,1.24c-.894.378-1.8.735-2.7,1.1-.229.093-.456.189-.731.3.139.088.24.156.344.218.949.571,1.9,1.135,2.845,1.715a1.22,1.22,0,0,1,.584,1.307,1.16,1.16,0,0,1-1.01.962,1.754,1.754,0,0,1-.927-.209c-.947-.528-1.867-1.105-2.8-1.663-.094-.056-.192-.107-.332-.184.1.971.192,1.89.286,2.809.025.247.051.495.081.742a1.255,1.255,0,0,1-1.039,1.464,1.235,1.235,0,0,1-1.429-1.157c-.131-1.168-.239-2.339-.359-3.509-.06-.585-.117-1.17-.191-1.753a.446.446,0,0,0-.163-.3q-2.9-1.757-5.81-3.494a.661.661,0,0,0-.125-.038c-.006.131-.016.249-.016.367,0,2.115,0,4.23-.006,6.345a.609.609,0,0,0,.277.561c1.373,1.014,2.736,2.042,4.1,3.067a1.259,1.259,0,0,1,.542,1.419,1.234,1.234,0,0,1-1.946.627c-.887-.645-1.757-1.313-2.635-1.97-.089-.066-.181-.128-.31-.219-.01.134-.023.228-.023.322,0,1.018-.028,2.037.008,3.054a1.426,1.426,0,0,1-.965,1.561Z" transform="translate(-126.759 -229.631)" fill="#646464"/>
    </g>
    <path id="Path_102077" data-name="Path 102077" d="M296.223,33.4l9.991-1.81-9.991-1.81,2.741-3.954-3.954,2.741-1.81-9.991-1.81,9.991-3.954-2.741,2.741,3.954-9.991,1.81,9.991,1.81-2.741,3.954,3.954-2.741L293.2,44.6l1.81-9.991,3.954,2.741Z" transform="translate(-7141.214 -2710.409)" fill="#fbb040"/>
  </g>
</svg>
