<svg xmlns="http://www.w3.org/2000/svg" width="12.667" height="15.481" viewBox="0 0 12.667 15.481">
  <g id="Group_2029" data-name="Group 2029" transform="translate(-263.667 -1296.259)">
    <path id="Path_1393" data-name="Path 1393" d="M57.081,85.4H49.875a1.226,1.226,0,0,0-1.225,1.225V96.964a1.226,1.226,0,0,0,1.225,1.225h7.205a1.226,1.226,0,0,0,1.225-1.225V86.625A1.23,1.23,0,0,0,57.081,85.4Zm.365,11.56a.368.368,0,0,1-.368.368H49.872a.368.368,0,0,1-.368-.368V86.625a.368.368,0,0,1,.368-.368h7.205a.368.368,0,0,1,.368.368Z" transform="translate(215.017 1213.552)" fill="#1e70b9"/>
    <path id="Path_1394" data-name="Path 1394" d="M143.881,0h-7.205a1.226,1.226,0,0,0-1.225,1.225.429.429,0,1,0,.857,0,.368.368,0,0,1,.368-.368h7.205a.368.368,0,0,1,.368.368V11.564a.368.368,0,0,1-.368.368.429.429,0,0,0,0,.857,1.226,1.226,0,0,0,1.225-1.225V1.225A1.226,1.226,0,0,0,143.881,0Z" transform="translate(131.228 1296.259)" fill="#1e70b9"/>
  </g>
</svg>
