<svg xmlns="http://www.w3.org/2000/svg" xmlns:xlink="http://www.w3.org/1999/xlink" width="50.062" height="66.416" viewBox="0 0 50.062 66.416">
  <defs>
    <clipPath id="clip-path">
      <rect id="Rectangle_470" data-name="Rectangle 470" width="24.554" height="9.045" transform="translate(0 0)" fill="#1e70b9"/>
    </clipPath>
  </defs>
  <g id="MERGE_pdf" data-name="MERGE pdf" transform="translate(-542.435 -467.114)">
    <path id="Path_1762" data-name="Path 1762" d="M44.889,65.916H5.173A4.672,4.672,0,0,1,.5,61.243V5.173A4.672,4.672,0,0,1,5.173.5H32.636a4.665,4.665,0,0,1,3.3,1.368L48.194,14.123a4.665,4.665,0,0,1,1.368,3.3V61.243a4.672,4.672,0,0,1-4.673,4.673" transform="translate(542.5 467.114)" fill="#fff"/>
    <path id="Path_1763" data-name="Path 1763" d="M44.889,65.916H5.173A4.672,4.672,0,0,1,.5,61.243V5.173A4.672,4.672,0,0,1,5.173.5H32.636a4.665,4.665,0,0,1,3.3,1.368L48.194,14.123a4.665,4.665,0,0,1,1.368,3.3V61.243A4.672,4.672,0,0,1,44.889,65.916Z" transform="translate(542.435 467.114)" fill="none" stroke="#1e70b9" stroke-miterlimit="10" stroke-width="1"/>
    <path id="Path_1764" data-name="Path 1764" d="M17.115,3.885V15.567H28.8" transform="translate(556.873 470.056)" fill="none" stroke="#1e70b9" stroke-linecap="round" stroke-linejoin="round" stroke-width="1"/>
    <g id="Group_879" data-name="Group 879" transform="translate(500.855 432.915)">
      <g id="Group_878" data-name="Group 878" transform="translate(55.183 55.183)">
        <g id="Group_876" data-name="Group 876" transform="translate(11.597 11.597)">
          <path id="Path_1765" data-name="Path 1765" d="M9.256,9.256,0,0" fill="none" stroke="#1e70b9" stroke-linecap="round" stroke-width="1"/>
          <path id="Path_305" data-name="Path 305" d="M58.867,66.325V58.867h7.459" transform="translate(-58.867 -58.867)" fill="none" stroke="#1e70b9" stroke-linecap="round" stroke-linejoin="round" stroke-width="1"/>
        </g>
        <g id="Group_3425" data-name="Group 3425" transform="translate(9.256 9.256) rotate(180)">
          <path id="Path_1765-2" data-name="Path 1765" d="M9.256,9.256,0,0" fill="none" stroke="#1e70b9" stroke-linecap="round" stroke-width="1"/>
          <path id="Path_305-2" data-name="Path 305" d="M0,7.459V0H7.459" fill="none" stroke="#1e70b9" stroke-linecap="round" stroke-linejoin="round" stroke-width="1"/>
        </g>
      </g>
    </g>
    <g id="Group_3424" data-name="Group 3424" transform="translate(555 515.468)">
      <g id="Group_3423" data-name="Group 3423" transform="translate(0 0)" clip-path="url(#clip-path)">
        <path id="Path_1759" data-name="Path 1759" d="M4.259,6.388H1.7V9.046H0V.014C1.42.014,2.839,0,4.259,0a3.2,3.2,0,1,1,0,6.387M1.7,4.826H4.259a1.6,1.6,0,1,0,0-3.2H1.7Z" transform="translate(-0.001 -0.001)" fill="#1e70b9"/>
        <path id="Path_1760" data-name="Path 1760" d="M38.5,4.485A4.278,4.278,0,0,1,33.98,9.078H30.432V.046H33.98A4.265,4.265,0,0,1,38.5,4.485M32.122,7.439H33.98a2.682,2.682,0,0,0,2.826-2.968A2.686,2.686,0,0,0,33.98,1.659H32.122Z" transform="translate(-21.826 -0.033)" fill="#1e70b9"/>
        <path id="Path_1761" data-name="Path 1761" d="M63.874,9.11V.091h6.49V1.73H65.577V4.194h4.529V5.769H65.577V9.11Z" transform="translate(-45.81 -0.066)" fill="#1e70b9"/>
      </g>
    </g>
  </g>
</svg>
