<svg width="22" height="26" viewBox="0 0 22 26" fill="none" xmlns="http://www.w3.org/2000/svg">
<path d="M13.7305 1V6.33333C13.7305 6.68695 13.8736 7.02609 14.1285 7.27614C14.3833 7.52619 14.7289 7.66667 15.0893 7.66667H20.5247" stroke="#084C16" stroke-width="2" stroke-linecap="round" stroke-linejoin="round"/>
<path d="M7.61477 25H4.21767C3.4969 25 2.80565 24.719 2.29599 24.219C1.78633 23.7189 1.5 23.0406 1.5 22.3333V3.66667C1.5 2.95942 1.78633 2.28115 2.29599 1.78105C2.80565 1.28095 3.4969 1 4.21767 1H13.7295L20.5237 7.66667V15.6667" stroke="#084C16" stroke-width="2" stroke-linecap="round" stroke-linejoin="round"/>
<path d="M8.29297 17.9636C8.29297 18.4403 8.38865 18.9122 8.57454 19.3526C8.76044 19.793 9.03291 20.1931 9.3764 20.5301C9.71989 20.8672 10.1277 21.1345 10.5765 21.317C11.0252 21.4994 11.5063 21.5932 11.992 21.5932C12.4778 21.5932 12.9588 21.4994 13.4076 21.317C13.8564 21.1345 14.2642 20.8672 14.6077 20.5301C14.9511 20.1931 15.2236 19.793 15.4095 19.3526C15.5954 18.9122 15.6911 18.4403 15.6911 17.9636C15.6911 17.487 15.5954 17.015 15.4095 16.5746C15.2236 16.1342 14.9511 15.7341 14.6077 15.3971C14.2642 15.06 13.8564 14.7927 13.4076 14.6103C12.9588 14.4279 12.4778 14.334 11.992 14.334C11.5063 14.334 11.0252 14.4279 10.5765 14.6103C10.1277 14.7927 9.71989 15.06 9.3764 15.3971C9.03291 15.7341 8.76044 16.1342 8.57454 16.5746C8.38865 17.015 8.29297 17.487 8.29297 17.9636Z" stroke="#084C16" stroke-width="2" stroke-linecap="round" stroke-linejoin="round"/>
<path d="M17.8034 23.6678L14.6328 20.5566" stroke="#084C16" stroke-width="2" stroke-linecap="round" stroke-linejoin="round"/>
</svg>
