<svg width="27" height="26" viewBox="0 0 27 26" fill="none" xmlns="http://www.w3.org/2000/svg">
<path d="M1.85547 13C1.85547 14.5759 2.16586 16.1363 2.76891 17.5922C3.37197 19.0481 4.25588 20.371 5.37019 21.4853C6.48449 22.5996 7.80736 23.4835 9.26327 24.0866C10.7192 24.6896 12.2796 25 13.8555 25C15.4313 25 16.9918 24.6896 18.4477 24.0866C19.9036 23.4835 21.2264 22.5996 22.3407 21.4853C23.4551 20.371 24.339 19.0481 24.942 17.5922C25.5451 16.1363 25.8555 14.5759 25.8555 13C25.8555 11.4241 25.5451 9.86371 24.942 8.4078C24.339 6.95189 23.4551 5.62902 22.3407 4.51472C21.2264 3.40042 19.9036 2.5165 18.4477 1.91345C16.9918 1.31039 15.4313 1 13.8555 1C12.2796 1 10.7192 1.31039 9.26327 1.91345C7.80736 2.5165 6.48449 3.40042 5.37019 4.51472C4.25588 5.62902 3.37197 6.95189 2.76891 8.4078C2.16586 9.86371 1.85547 11.4241 1.85547 13Z" stroke="#084C16" stroke-width="2" stroke-linecap="round" stroke-linejoin="round"/>
<path d="M9.85547 10.334C9.85547 11.3949 10.2769 12.4123 11.027 13.1624C11.7772 13.9126 12.7946 14.334 13.8555 14.334C14.9163 14.334 15.9338 13.9126 16.6839 13.1624C17.434 12.4123 17.8555 11.3949 17.8555 10.334C17.8555 9.27312 17.434 8.2557 16.6839 7.50556C15.9338 6.75541 14.9163 6.33398 13.8555 6.33398C12.7946 6.33398 11.7772 6.75541 11.027 7.50556C10.2769 8.2557 9.85547 9.27312 9.85547 10.334Z" stroke="#084C16" stroke-width="2" stroke-linecap="round" stroke-linejoin="round"/>
<path d="M6.07812 22.1327C6.40814 21.0343 7.08342 20.0716 8.00379 19.3873C8.92416 18.703 10.0406 18.3336 11.1875 18.334H16.5208C17.6691 18.3336 18.7869 18.7038 19.708 19.3897C20.629 20.0755 21.3041 21.0404 21.6328 22.1407" stroke="#084C16" stroke-width="2" stroke-linecap="round" stroke-linejoin="round"/>
</svg>
