<svg width="27" height="26" viewBox="0 0 27 26" fill="none" xmlns="http://www.w3.org/2000/svg">
<path d="M5.34748 4.53906C3.1077 6.78492 1.85162 9.82842 1.85548 13.0002C1.85548 19.6278 7.22788 25.0002 13.8555 25.0002C17.0267 25.0041 20.0697 23.7485 22.3155 21.5094" stroke="#084C16" stroke-width="2" stroke-linecap="round" stroke-linejoin="round"/>
<path d="M24.3874 18.7516C25.3523 16.9883 25.8566 15.01 25.8538 13C25.8538 6.37239 20.4814 1 13.8538 1C11.7658 1 9.80255 1.5328 8.09375 2.47" stroke="#084C16" stroke-width="2" stroke-linecap="round" stroke-linejoin="round"/>
<path d="M7.85547 16.6009V11.2009C7.85538 10.8978 7.93186 10.5995 8.07782 10.3338C8.22377 10.0681 8.43448 9.84352 8.69038 9.68098C8.94628 9.51844 9.2391 9.42316 9.54165 9.40399C9.8442 9.38482 10.1467 9.44238 10.4211 9.57133" stroke="#084C16" stroke-width="2" stroke-linecap="round" stroke-linejoin="round"/>
<path d="M11.2812 10.4238C11.3941 10.659 11.4565 10.9218 11.4565 11.2002V16.6002" stroke="#084C16" stroke-width="2" stroke-linecap="round" stroke-linejoin="round"/>
<path d="M7.85547 14.1992H11.4555" stroke="#084C16" stroke-width="2" stroke-linecap="round" stroke-linejoin="round"/>
<path d="M16.2539 15.4004V16.6004H17.4539" stroke="#084C16" stroke-width="2" stroke-linecap="round" stroke-linejoin="round"/>
<path d="M19.8539 14.2004V11.8004C19.8539 11.1639 19.6011 10.5534 19.151 10.1033C18.7009 9.65325 18.0904 9.40039 17.4539 9.40039H16.2539V10.6004" stroke="#084C16" stroke-width="2" stroke-linecap="round" stroke-linejoin="round"/>
<path d="M3.05469 2.19922L24.6547 23.7992" stroke="#084C16" stroke-width="2" stroke-linecap="round" stroke-linejoin="round"/>
</svg>
