<svg width="24" height="24" viewBox="0 0 24 24" fill="none" xmlns="http://www.w3.org/2000/svg">
<path d="M4.14039 19.8366C2.40627 19.8366 1 18.4303 1 16.6962V4.13751C1.00288 2.4034 2.40627 1 4.14039 1H16.6991C18.4332 1 19.8395 2.40627 19.8395 4.14039" stroke="white" stroke-width="2" stroke-linecap="round" stroke-linejoin="round"/>
<path d="M16.7224 9.39441H16.734" stroke="#FFB917" stroke-width="3" stroke-linecap="round" stroke-linejoin="round"/>
<path d="M4.16645 7.30091C4.16645 5.5668 5.57272 4.16052 7.30684 4.16052H19.8655C21.5996 4.16052 23.0059 5.5668 23.0059 7.30091V19.8596C23.0059 21.5937 21.5996 23 19.8655 23H7.30396C5.56985 23 4.16357 21.5937 4.16357 19.8596V7.30091H4.16645Z" stroke="#FFB917" stroke-width="2" stroke-linecap="round" stroke-linejoin="round"/>
<path d="M4.1665 17.7661L9.39761 12.535C10.3696 11.6003 11.566 11.6003 12.538 12.535L17.7691 17.7661" stroke="#FFB917" stroke-width="2" stroke-linecap="round" stroke-linejoin="round"/>
<path d="M15.6754 15.6725L16.7222 14.6257C17.6943 13.691 18.8906 13.691 19.8626 14.6257L23.003 17.7661" stroke="#FFB917" stroke-width="2" stroke-linecap="round" stroke-linejoin="round"/>
</svg>
