<svg width="23" height="23" viewBox="0 0 23 23" fill="none" xmlns="http://www.w3.org/2000/svg">
<path d="M1 17.0614C1 16.3809 1.55245 15.8285 2.23292 15.8285H5.9384C6.61886 15.8285 7.17131 16.3809 7.17131 17.0614V20.7669C7.17131 21.4474 6.61886 21.9998 5.9384 21.9998H2.23292C1.55245 21.9998 1 21.4474 1 20.7669V17.0614Z" stroke="#FFB917" stroke-width="2" stroke-linecap="round" stroke-linejoin="round"/>
<path d="M2.23291 10.8835V3.47257C2.23291 2.10491 3.33782 1 4.70548 1H19.5274C20.8951 1 22 2.10491 22 3.47257V18.2945C22 19.6622 20.8951 20.7671 19.5274 20.7671H12.1164" stroke="#FFB917" stroke-width="2" stroke-linecap="round" stroke-linejoin="round"/>
<path d="M12.1165 5.94507H17.0549V10.8835" stroke="black" stroke-width="2" stroke-linecap="round" stroke-linejoin="round"/>
<path d="M17.0549 5.94507L10.8768 12.1231" stroke="black" stroke-width="2" stroke-linecap="round" stroke-linejoin="round"/>
</svg>
