<svg width="23" height="23" viewBox="0 0 23 23" fill="none" xmlns="http://www.w3.org/2000/svg">
<path d="M4.0555 4.09644C2.0957 6.06156 0.996632 8.72462 1.00001 11.5C1.00001 17.2991 5.70085 22 11.5 22C14.2748 22.0033 16.9374 20.9047 18.9025 18.9455" stroke="#FFB917" stroke-width="2" stroke-linecap="round" stroke-linejoin="round"/>
<path d="M20.7168 16.5326C21.5611 14.9897 22.0024 13.2588 21.9999 11.5C21.9999 5.70084 17.2991 1 11.5 1C9.67295 1 7.95516 1.4662 6.45996 2.28625" stroke="#FFB917" stroke-width="2" stroke-linecap="round" stroke-linejoin="round"/>
<path d="M6.25 14.6499V9.92495C6.24992 9.65969 6.31684 9.3987 6.44455 9.1662C6.57227 8.9337 6.75663 8.73723 6.98055 8.595C7.20446 8.45278 7.46067 8.36941 7.7254 8.35264C7.99014 8.33587 8.25482 8.38623 8.4949 8.49905" stroke="black" stroke-width="2" stroke-linecap="round" stroke-linejoin="round"/>
<path d="M9.24658 9.24548C9.34528 9.45128 9.39988 9.68123 9.39988 9.92483V14.6498" stroke="black" stroke-width="2" stroke-linecap="round" stroke-linejoin="round"/>
<path d="M6.25 12.5499H9.39999" stroke="black" stroke-width="2" stroke-linecap="round" stroke-linejoin="round"/>
<path d="M13.6001 13.6V14.65H14.6501" stroke="black" stroke-width="2" stroke-linecap="round" stroke-linejoin="round"/>
<path d="M16.7501 12.5498V10.4498C16.7501 9.8929 16.5288 9.35875 16.135 8.96493C15.7412 8.5711 15.207 8.34985 14.6501 8.34985H13.6001V9.39985" stroke="black" stroke-width="2" stroke-linecap="round" stroke-linejoin="round"/>
<path d="M2.05005 2.05005L20.95 20.95" stroke="#FFB917" stroke-width="2" stroke-linecap="round" stroke-linejoin="round"/>
</svg>
