<svg width="99" height="99" viewBox="0 0 99 99" fill="none" xmlns="http://www.w3.org/2000/svg">
<circle cx="49.5" cy="49.5" r="49.5" fill="#ECEEEF"/>
<path d="M74.275 39.361L62.6792 36.462V67.9365H40.7299L37.0027 68.7647L65.5782 75.3909L74.275 39.361Z" fill="white"/>
<path d="M25.407 58.1454L33.3013 52.7678C34.3835 52.0294 35.7841 52.0134 36.8823 52.7357L40.4952 55.0794C41.6889 55.8499 43.2328 55.7536 44.315 54.8546L50.7132 49.5413C51.7318 48.6906 53.1643 48.5622 54.3261 49.1882L62.5706 53.6989V68.1298H25.407V58.1293V58.1454Z" fill="#FFB917"/>
<path d="M62.6793 53.4412V30.6637H62.2652H25.407V58.4109L34.518 52.1988L36.1746 52.613L41.1442 55.5119L43.629 55.0978L47.3563 51.7847L52.74 48.4716L56.4673 50.5423L62.6793 53.4412Z" fill="white"/>
<path d="M62.5706 30.6637H25.407V68.1457H62.5706V30.6637Z" stroke="black" stroke-width="2" stroke-miterlimit="10"/>
<path d="M62.5705 36.3623L74.2846 39.2196L65.5467 75.6582L34.7495 68.1457" stroke="black" stroke-width="2" stroke-miterlimit="10"/>
<path d="M25.407 58.1454L33.3013 52.7678C34.3835 52.0294 35.7841 52.0134 36.8823 52.7357L40.4952 55.0794C41.6889 55.8499 43.2328 55.7536 44.315 54.8546L50.7132 49.5413C51.7318 48.6906 53.1643 48.5622 54.3261 49.1882L62.5706 53.6989" stroke="black" stroke-width="2" stroke-miterlimit="10"/>
<path d="M40.6704 45.1588C42.5075 45.1588 43.9968 43.6568 43.9968 41.8039C43.9968 39.951 42.5075 38.449 40.6704 38.449C38.8333 38.449 37.344 39.951 37.344 41.8039C37.344 43.6568 38.8333 45.1588 40.6704 45.1588Z" fill="white" stroke="black" stroke-width="2" stroke-miterlimit="10"/>
</svg>
