<svg width="140" height="40" viewBox="0 0 140 40" fill="none" xmlns="http://www.w3.org/2000/svg">
<path d="M135 0H5.00012C2.2387 0 0.00012207 2.23858 0.00012207 5V35C0.00012207 37.7614 2.2387 40 5.00012 40H135C137.762 40 140 37.7614 140 35V5C140 2.23858 137.762 0 135 0Z" fill="url(#paint0_linear_61_192)"/>
<path d="M32.5425 22.7322C49.4646 20.6964 128 1.42306e-05 128 1.42306e-05H9.00016L4.50004 0C3.05816 0.21179 2.13105 0.869073 1.50016 1.50001L1.50006 1.50012C0.816379 2.18385 0.000150938 3.00015 0.000189404 6L0.000163081 9.50001V38C0.000163081 38 15.6205 24.7679 32.5425 22.7322Z" fill="#FFD26B" fill-opacity="0.31"/>
<defs>
<linearGradient id="paint0_linear_61_192" x1="48.1696" y1="-1.48161e-05" x2="148.058" y2="27.2668" gradientUnits="userSpaceOnUse">
<stop stop-color="#FFB917"/>
<stop offset="1" stop-color="#FF8617"/>
</linearGradient>
</defs>
</svg>
