<svg width="22" height="22" viewBox="0 0 22 22" fill="none" xmlns="http://www.w3.org/2000/svg">
<path d="M7.22925 14.7041L14.7041 7.22925" stroke="black" stroke-width="2" stroke-linecap="round" stroke-linejoin="round"/>
<path d="M9.72095 3.492L10.2978 2.82424C11.4661 1.65608 13.0506 0.999883 14.7028 1C16.3549 1.00012 17.9393 1.65654 19.1075 2.82487C20.2757 3.99319 20.9319 5.57772 20.9317 7.22986C20.9316 8.88201 20.2752 10.4664 19.1069 11.6346L18.4416 12.2127" stroke="black" stroke-width="2" stroke-linecap="round" stroke-linejoin="round"/>
<path d="M12.2125 18.4415L11.7179 19.1067C10.5359 20.2756 8.9407 20.9311 7.27843 20.9311C5.61616 20.9311 4.02095 20.2756 2.83899 19.1067C2.2564 18.5307 1.79387 17.8448 1.47821 17.0887C1.16254 16.3327 1 15.5215 1 14.7022C1 13.8829 1.16254 13.0717 1.47821 12.3157C1.79387 11.5596 2.2564 10.8737 2.83899 10.2976L3.49179 9.72083" stroke="black" stroke-width="2" stroke-linecap="round" stroke-linejoin="round"/>
</svg>
