<svg width="24" height="25" viewBox="0 0 24 25" fill="none" xmlns="http://www.w3.org/2000/svg">
<path d="M4.59354 8.3894C4.22321 9.41362 4.01489 10.5131 4.01489 11.6646" stroke="#FFB917" stroke-width="2" stroke-linecap="round" stroke-linejoin="round"/>
<path d="M20.4427 4.83057C18.7067 3.02517 16.2648 1.90259 13.5625 1.90259C11.6819 1.90259 9.92854 2.44652 8.44719 3.38394C7.60815 3.9163 6.86169 4.57596 6.23096 5.33399" stroke="#FFB917" stroke-width="2" stroke-linecap="round" stroke-linejoin="round"/>
<path d="M14.4827 20.9576C18.3018 20.5931 21.4612 17.9776 22.6301 14.4594" stroke="black" stroke-width="2" stroke-linecap="round" stroke-linejoin="round"/>
<path d="M4.01489 11.4503C4.01489 15.9059 7.07018 19.6556 11.2018 20.703" stroke="#FFB917" stroke-width="2" stroke-linecap="round" stroke-linejoin="round"/>
<path d="M16.4558 5.40933L20.9577 5.50191L21.0503 1" stroke="#FFB917" stroke-width="2" stroke-linecap="round" stroke-linejoin="round"/>
<path d="M7.13371 11.3694L4.92326 7.44617L1 9.65662" stroke="#FFB917" stroke-width="2" stroke-linecap="round" stroke-linejoin="round"/>
<path d="M16.1665 17.2484L13.5857 20.9344L17.2717 23.5152" stroke="black" stroke-width="2" stroke-linecap="round" stroke-linejoin="round"/>
</svg>
