<svg width="23" height="23" viewBox="0 0 23 23" fill="none" xmlns="http://www.w3.org/2000/svg">
<path d="M4.0555 4.09644C2.0957 6.06156 0.996632 8.72462 1.00001 11.5C1.00001 17.2991 5.70085 22 11.5 22C14.2748 22.0033 16.9374 20.9047 18.9025 18.9455" stroke="#FFB917" stroke-width="2" stroke-linecap="round" stroke-linejoin="round"/>
<path d="M20.7169 16.5326C21.5612 14.9897 22.0025 13.2588 22 11.5C22 5.70084 17.2991 1 11.5 1C9.673 1 7.9552 1.4662 6.46001 2.28625" stroke="#FFB917" stroke-width="2" stroke-linecap="round" stroke-linejoin="round"/>
<path d="M6.25005 14.6499V9.92495C6.24997 9.65969 6.31689 9.3987 6.4446 9.1662C6.57231 8.9337 6.75668 8.73723 6.98059 8.595C7.20451 8.45278 7.46072 8.36941 7.72545 8.35264C7.99018 8.33587 8.25487 8.38623 8.49494 8.49905" stroke="white" stroke-width="2" stroke-linecap="round" stroke-linejoin="round"/>
<path d="M9.2467 9.24548C9.3454 9.45128 9.4 9.68123 9.4 9.92483V14.6498" stroke="white" stroke-width="2" stroke-linecap="round" stroke-linejoin="round"/>
<path d="M6.25005 12.5499H9.40004" stroke="white" stroke-width="2" stroke-linecap="round" stroke-linejoin="round"/>
<path d="M13.6 13.6V14.65H14.65" stroke="black" stroke-width="2" stroke-linecap="round" stroke-linejoin="round"/>
<path d="M16.75 12.5498V10.4498C16.75 9.8929 16.5288 9.35875 16.1349 8.96493C15.7411 8.5711 15.207 8.34985 14.65 8.34985H13.6V9.39985" stroke="white" stroke-width="2" stroke-linecap="round" stroke-linejoin="round"/>
<path d="M2.05 2.05005L20.95 20.95" stroke="#FFB917" stroke-width="2" stroke-linecap="round" stroke-linejoin="round"/>
</svg>
