<svg width="34" height="36" viewBox="0 0 34 36" fill="none" xmlns="http://www.w3.org/2000/svg">
<path d="M10.1094 0.660156V7.15016" stroke="#1E70B9" stroke-miterlimit="10" stroke-linecap="round"/>
<path d="M16.3086 0.660156V7.15016" stroke="#1E70B9" stroke-miterlimit="10" stroke-linecap="round"/>
<path d="M22.5078 0.660156V7.15016" stroke="#1E70B9" stroke-miterlimit="10" stroke-linecap="round"/>
<path d="M9.21094 15.04H20.3109" stroke="#1E70B9" stroke-miterlimit="10" stroke-linecap="round"/>
<path d="M9.21094 20.2705H20.3109" stroke="#1E70B9" stroke-miterlimit="10" stroke-linecap="round"/>
<path d="M9.21094 25.3604H15.5009" stroke="#1E70B9" stroke-miterlimit="10" stroke-linecap="round"/>
<path d="M30.9203 28.2102V31.0002C30.9203 33.4002 28.9803 35.3402 26.5803 35.3402H5.66031C3.26031 35.3402 1.32031 33.4002 1.32031 31.0002V8.25016C1.32031 5.85016 3.26031 3.91016 5.66031 3.91016H26.5803C28.9803 3.91016 30.9203 5.85016 30.9203 8.25016V12.9002" stroke="#1E70B9" stroke-miterlimit="10" stroke-linecap="round"/>
<path d="M32.0811 20.1205C32.8711 19.3305 32.8711 18.0505 32.0811 17.2605C31.2911 16.4705 30.0111 16.4705 29.2211 17.2605L21.1211 25.3305V28.2205H24.0111L32.0811 20.1205Z" stroke="#1E70B9" stroke-miterlimit="10" stroke-linecap="round"/>
<path d="M27.8594 18.5908L30.7494 21.4808" stroke="#1E70B9" stroke-miterlimit="10" stroke-linecap="round"/>
</svg>
