<svg xmlns="http://www.w3.org/2000/svg" width="26.007" height="24.32" viewBox="0 0 26.007 24.32">
  <g id="Group_2011" data-name="Group 2011" transform="translate(-568 -536)">
    <path id="Path_93" data-name="Path 93" d="M1395-219.594h0a12.124,12.124,0,0,0-2.606-3.865,12.12,12.12,0,0,0-3.865-2.605,12.084,12.084,0,0,0-4.734-.956,12.083,12.083,0,0,0-4.733.956,12.12,12.12,0,0,0-3.865,2.606,12.117,12.117,0,0,0-2.605,3.865,12.092,12.092,0,0,0-.767,2.581l-.221-.221a.971.971,0,0,0-1.372,0,.964.964,0,0,0-.284.686.964.964,0,0,0,.284.686l1.814,1.814a.964.964,0,0,0,.686.284.964.964,0,0,0,.686-.284l1.814-1.814a.971.971,0,0,0,0-1.372.971.971,0,0,0-1.372,0h0a10.128,10.128,0,0,1,.525-1.6,10.178,10.178,0,0,1,2.189-3.246,10.177,10.177,0,0,1,3.246-2.189,10.15,10.15,0,0,1,3.975-.8,10.147,10.147,0,0,1,3.975.8,10.184,10.184,0,0,1,3.246,2.189,10.18,10.18,0,0,1,2.189,3.246,10.149,10.149,0,0,1,.8,3.975,10.148,10.148,0,0,1-.8,3.975,10.18,10.18,0,0,1-2.189,3.246,10.177,10.177,0,0,1-3.247,2.189,10.144,10.144,0,0,1-3.975.8,10.147,10.147,0,0,1-3.975-.8c-.138-.058-.276-.12-.41-.184a.978.978,0,0,0-1.261.393.975.975,0,0,0-.086.776.981.981,0,0,0,.515.592c.158.075.321.148.483.217a12.082,12.082,0,0,0,4.733.956,12.085,12.085,0,0,0,4.734-.956,12.116,12.116,0,0,0,3.865-2.606,12.122,12.122,0,0,0,2.606-3.865,12.089,12.089,0,0,0,.956-4.733A12.089,12.089,0,0,0,1395-219.594Z" transform="translate(-801.95 763.02)" fill="#fff"/>
    <g id="lock" transform="translate(513 542)">
      <g id="Group_2010" data-name="Group 2010" transform="translate(64)">
        <path id="Path_1422" data-name="Path 1422" d="M72.75,4.5H72v-1a3.5,3.5,0,1,0-7,0v1h-.75a.25.25,0,0,0-.25.25V11a1,1,0,0,0,1,1h7a1,1,0,0,0,1-1V4.75A.25.25,0,0,0,72.75,4.5Zm-3.5,5.222A.25.25,0,0,1,69,10H68a.25.25,0,0,1-.249-.278L67.909,8.3a.989.989,0,0,1-.409-.8,1,1,0,1,1,2,0,.989.989,0,0,1-.409.8ZM70.5,4.5h-4v-1a2,2,0,1,1,4,0Z" transform="translate(-64)" fill="#fff"/>
      </g>
    </g>
  </g>
</svg>
