<svg width="22" height="22" viewBox="0 0 22 22" fill="none" xmlns="http://www.w3.org/2000/svg">
<path d="M22 11C22 11 22 10.98 22 10.97C21.99 4.92 17.06 0 11 0C4.94 0 0 4.93 0 11C0 17.07 4.93 22 11 22C17.07 22 21.98 17.08 22 11.03C22 11.03 22 11.01 22 11ZM20.46 10.25H16.23C16.13 6.79 15.33 3.86 14.11 2.03C17.6 3.24 20.16 6.43 20.46 10.25ZM11 20.5C9.31 20.5 7.43 16.94 7.27 11.75H14.74C14.57 16.94 12.7 20.5 11.01 20.5H11ZM7.27 10.25C7.44 5.06 9.31 1.5 11 1.5C12.69 1.5 14.57 5.06 14.73 10.25H7.26H7.27ZM7.89 2.03C6.67 3.86 5.87 6.78 5.77 10.25H1.54C1.84 6.43 4.41 3.25 7.89 2.03ZM1.54 11.75H5.77C5.87 15.21 6.67 18.14 7.89 19.97C4.4 18.76 1.84 15.57 1.54 11.75ZM14.11 19.97C15.33 18.14 16.13 15.22 16.23 11.75H20.46C20.16 15.57 17.59 18.75 14.11 19.97Z" fill="#0075FF"/>
</svg>
