<svg width="100" height="49" viewBox="0 0 100 49" fill="none" xmlns="http://www.w3.org/2000/svg">
<g filter="url(#filter0_d_950_1798)">
<path d="M44.6695 34.1314L34.9258 29.4648H45.6953L44.6695 34.1314Z" fill="#F1B700"/>
<g filter="url(#filter1_d_950_1798)">
<path d="M13.6475 0.5C16.5963 0.50001 18.9082 1.38574 20.4766 3.11328C22.0377 4.83286 22.7949 7.3131 22.7949 10.3701V11.3281C22.7949 13.3718 22.4721 15.0718 21.7549 16.4268C21.1692 17.5331 20.3313 18.385 19.2402 19.0029C20.3803 19.68 21.2233 20.6138 21.7998 21.7715C22.4987 23.175 22.7949 24.8829 22.7949 26.8184V29.7471C22.7949 32.8041 22.0377 35.2844 20.4766 37.0039C18.9082 38.7313 16.5962 39.6162 13.6475 39.6162C10.6988 39.6162 8.3868 38.7318 6.81836 37.0049C5.25715 35.2858 4.50001 32.8061 4.5 29.749V26.1602H10.9834V30.1201C10.9834 31.3899 11.2619 32.1662 11.668 32.623C12.0636 33.068 12.6562 33.2939 13.4883 33.2939C14.3314 33.2939 14.9065 33.0896 15.2949 32.6133C15.7058 32.1092 15.9941 31.2007 15.9941 29.5889V26.6602C15.9941 24.9635 15.7048 23.926 15.1982 23.3115C14.7127 22.7225 13.9405 22.4229 12.6963 22.4229H10.2451V16.0977H13.0117C14.0294 16.0977 14.7397 15.8715 15.2051 15.3965C15.6738 14.9179 15.9912 14.0879 15.9912 12.6582V10.3701C15.9672 8.86162 15.6896 7.99764 15.2959 7.50977C14.9076 7.02864 14.3335 6.82422 13.4902 6.82422C12.6582 6.82427 12.0656 7.05025 11.6699 7.49512C11.2638 7.95188 10.9854 8.7281 10.9854 9.99805V12.8945H4.5V10.3721C4.5 7.31403 5.25719 4.83312 6.81836 3.11328C8.38678 1.38554 10.6987 0.5 13.6475 0.5Z" fill="white" stroke="black"/>
<path d="M34.5293 0.5C37.4775 0.500065 39.8264 1.38535 41.4336 3.1084C43.0356 4.8261 43.835 7.30697 43.835 10.3701V29.749C43.835 32.8123 43.0357 35.293 41.4336 37.0107C39.8264 38.7338 37.4775 39.6191 34.5293 39.6191C31.5811 39.6191 29.2322 38.7338 27.625 37.0107C26.0228 35.293 25.2227 32.8124 25.2227 29.749V10.3701L25.2324 9.80273C25.3261 6.99959 26.1229 4.71885 27.625 3.1084C29.2322 1.38529 31.581 0.5 34.5293 0.5ZM34.5293 6.82227C33.6971 6.82227 33.1037 7.04818 32.708 7.49316C32.3019 7.94995 32.0234 8.72623 32.0234 9.99609V30.1201C32.0234 31.3897 32.302 32.1662 32.708 32.623C33.1037 33.068 33.6971 33.2939 34.5293 33.2939C35.3613 33.2939 35.954 33.068 36.3496 32.623C36.7557 32.1662 37.0342 31.3899 37.0342 30.1201V9.99609C37.0342 8.7261 36.7558 7.94993 36.3496 7.49316C35.954 7.04826 35.3613 6.82232 34.5293 6.82227Z" fill="white" stroke="black"/>
</g>
<path d="M37.6364 8.77694H96.0006L93.2343 25.0741C93.2343 25.0741 91.85 34.0406 82.795 34.0406H34.6953L37.6364 8.77441V8.77694Z" fill="#FEB700"/>
<path d="M41.3984 14.693C41.3984 12.8101 42.3547 11.7656 44.1415 11.7656C45.9282 11.7656 46.8845 12.8101 46.8845 14.693V20.703C46.8845 22.5859 45.9282 23.6303 44.1415 23.6303C42.3547 23.6303 41.3984 22.5859 41.3984 20.703V14.693ZM43.2104 20.8356C43.2104 21.6458 43.5459 21.9846 44.1415 21.9846C44.7371 21.9846 45.0726 21.6458 45.0726 20.8356V14.566C45.0726 13.7558 44.7119 13.417 44.1415 13.417C43.5711 13.417 43.2104 13.7558 43.2104 14.566V20.8356ZM51.2857 11.8983H52.969L45.8248 30.188H44.1415L51.2857 11.8983ZM50.3798 21.3833C50.3798 19.5004 51.3361 18.4559 53.1228 18.4559C54.9096 18.4559 55.8659 19.5004 55.8659 21.3833V27.3933C55.8659 29.2762 54.9096 30.3206 53.1228 30.3206C51.3361 30.3206 50.3798 29.2762 50.3798 27.3933V21.3833ZM52.1889 27.5231C52.1889 28.3333 52.5244 28.6721 53.12 28.6721C53.7156 28.6721 54.0512 28.3333 54.0512 27.5231V21.2534C54.0512 20.4433 53.6876 20.1045 53.12 20.1045C52.5524 20.1045 52.1889 20.4433 52.1889 21.2534V27.5231Z" fill="black"/>
<path d="M61.5586 16.288C61.5586 13.3606 63.0853 11.6895 65.8815 11.6895C68.6777 11.6895 70.2044 13.3606 70.2044 16.288V25.7984C70.2044 28.7257 68.6777 30.3969 65.8815 30.3969C63.0853 30.3969 61.5586 28.7257 61.5586 25.7984V16.288ZM64.4051 25.9819C64.4051 27.2889 64.9755 27.7857 65.8815 27.7857C66.7875 27.7857 67.3579 27.2889 67.3579 25.9819V16.1045C67.3579 14.7975 66.7875 14.3006 65.8815 14.3006C64.9755 14.3006 64.4051 14.7975 64.4051 16.1045V25.9819Z" fill="black"/>
<path d="M74.8895 20.0256H78.5637V22.6396H74.8895V30.1909H72.043V11.8984H79.5759V14.5125H74.8923V20.0256H74.8895Z" fill="black"/>
<path d="M83.7918 20.0256H87.466V22.6396H83.7918V30.1909H80.9453V11.8984H88.4782V14.5125H83.7946V20.0256H83.7918Z" fill="black"/>
</g>
<defs>
<filter id="filter0_d_950_1798" x="0" y="0" width="100" height="48.1187" filterUnits="userSpaceOnUse" color-interpolation-filters="sRGB">
<feFlood flood-opacity="0" result="BackgroundImageFix"/>
<feColorMatrix in="SourceAlpha" type="matrix" values="0 0 0 0 0 0 0 0 0 0 0 0 0 0 0 0 0 0 127 0" result="hardAlpha"/>
<feOffset dy="4"/>
<feGaussianBlur stdDeviation="2"/>
<feComposite in2="hardAlpha" operator="out"/>
<feColorMatrix type="matrix" values="0 0 0 0 0 0 0 0 0 0 0 0 0 0 0 0 0 0 0.25 0"/>
<feBlend mode="normal" in2="BackgroundImageFix" result="effect1_dropShadow_950_1798"/>
<feBlend mode="normal" in="SourceGraphic" in2="effect1_dropShadow_950_1798" result="shape"/>
</filter>
<filter id="filter1_d_950_1798" x="4" y="0" width="46.3359" height="41.1187" filterUnits="userSpaceOnUse" color-interpolation-filters="sRGB">
<feFlood flood-opacity="0" result="BackgroundImageFix"/>
<feColorMatrix in="SourceAlpha" type="matrix" values="0 0 0 0 0 0 0 0 0 0 0 0 0 0 0 0 0 0 127 0" result="hardAlpha"/>
<feOffset dx="6" dy="1"/>
<feComposite in2="hardAlpha" operator="out"/>
<feColorMatrix type="matrix" values="0 0 0 0 0 0 0 0 0 0 0 0 0 0 0 0 0 0 1 0"/>
<feBlend mode="normal" in2="BackgroundImageFix" result="effect1_dropShadow_950_1798"/>
<feBlend mode="normal" in="SourceGraphic" in2="effect1_dropShadow_950_1798" result="shape"/>
</filter>
</defs>
</svg>
