<svg xmlns="http://www.w3.org/2000/svg" width="21.5" height="22.5" viewBox="0 0 21.5 22.5">
  <g id="print-hower" transform="translate(-573.688 -2441.183)">
    <path id="Path_13485" data-name="Path 13485" d="M18.556,18.168h2.222A2.258,2.258,0,0,0,23,15.876V11.292A2.258,2.258,0,0,0,20.778,9H5.222A2.258,2.258,0,0,0,3,11.292v4.584a2.258,2.258,0,0,0,2.222,2.292H7.444" transform="translate(571.438 2439.771)" fill="none" stroke="#1d70b9" stroke-linecap="round" stroke-linejoin="round" stroke-width="1.5"/>
    <path id="Path_13486" data-name="Path 13486" d="M17.832,9.876V5.292A2.232,2.232,0,0,0,15.665,3h-6.5A2.232,2.232,0,0,0,7,5.292V9.876" transform="translate(572.022 2438.933)" fill="none" stroke="#1d70b9" stroke-linecap="round" stroke-linejoin="round" stroke-width="1.5"/>
    <rect id="Rectangle_22564" data-name="Rectangle 22564" width="10.371" height="10" rx="2" transform="translate(579 2452.933)" fill="none" stroke="#1d70b9" stroke-linecap="round" stroke-linejoin="round" stroke-width="1.5"/>
  </g>
</svg>
