<svg width="111" height="18" viewBox="0 0 111 18" fill="none" xmlns="http://www.w3.org/2000/svg">
<path d="M9.5 0L12.44 5.93L19 6.88L14.25 11.49L15.37 18L9.5 14.93L3.63 18L4.75 11.49L0 6.88L6.56 5.93L9.5 0Z" fill="#FFB72C"/>
<path d="M32.5 0L35.44 5.93L42 6.88L37.25 11.49L38.37 18L32.5 14.93L26.63 18L27.75 11.49L23 6.88L29.56 5.93L32.5 0Z" fill="#FFB72C"/>
<path d="M55.5 0L58.44 5.93L65 6.88L60.25 11.49L61.37 18L55.5 14.93L49.63 18L50.75 11.49L46 6.88L52.56 5.93L55.5 0Z" fill="#FFB72C"/>
<path d="M78.5 0L81.44 5.93L88 6.88L83.25 11.49L84.37 18L78.5 14.93L72.63 18L73.75 11.49L69 6.88L75.56 5.93L78.5 0Z" fill="#FFB72C"/>
<path d="M101.5 0L104.44 5.93L111 6.88L106.25 11.49L107.37 18L101.5 14.93L95.63 18L96.75 11.49L92 6.88L98.56 5.93L101.5 0Z" fill="url(#paint0_linear_682_2498)"/>
<defs>
<linearGradient id="paint0_linear_682_2498" x1="104" y1="9.5" x2="103.5" y2="9.5" gradientUnits="userSpaceOnUse">
<stop stop-color="#626262"/>
<stop stop-color="#FFB72C"/>
</linearGradient>
</defs>
</svg>
