<svg width="16" height="24" viewBox="0 0 16 24" fill="none" xmlns="http://www.w3.org/2000/svg">
<path d="M8 24C3.59 24 0 20.38 0 15.93V5.71C0 2.56 2.54 0 5.67 0C8.8 0 11.34 2.56 11.34 5.71V15.3C11.34 17.15 9.84 18.66 8.01 18.66C6.18 18.66 4.68 17.15 4.68 15.3V6.33C4.68 5.78 5.13 5.33 5.68 5.33C6.23 5.33 6.68 5.78 6.68 6.33V15.31C6.68 16.06 7.28 16.67 8.01 16.67C8.74 16.67 9.34 16.06 9.34 15.31V5.71C9.34 3.66 7.69 2 5.67 2C3.65 2 2 3.67 2 5.71V15.92C2 19.27 4.69 21.99 8 21.99C11.31 21.99 14 19.27 14 15.92V6.33C14 5.78 14.45 5.33 15 5.33C15.55 5.33 16 5.78 16 6.33V15.92C16 20.37 12.41 23.99 8 23.99V24Z" fill="black"/>
</svg>
