<svg width="24" height="24" viewBox="0 0 24 24" fill="none" xmlns="http://www.w3.org/2000/svg">
<circle cx="12" cy="12" r="12" fill="white"/>
<path d="M13.4125 12.0025L16.7025 8.7125C17.0925 8.3225 17.0925 7.6925 16.7025 7.3025C16.3125 6.9125 15.6825 6.9125 15.2925 7.3025L12.0025 10.5925L8.7125 7.2925C8.3225 6.9025 7.6825 6.9025 7.2925 7.2925C6.9025 7.6825 6.9025 8.3225 7.2925 8.7125L10.5825 12.0025L7.2925 15.2925C6.9025 15.6825 6.9025 16.3125 7.2925 16.7025C7.4925 16.9025 7.7425 16.9925 8.0025 16.9925C8.2625 16.9925 8.5125 16.8925 8.7125 16.7025L12.0025 13.4125L15.2925 16.7025C15.4925 16.9025 15.7425 16.9925 16.0025 16.9925C16.2625 16.9925 16.5125 16.8925 16.7125 16.7025C17.1025 16.3125 17.1025 15.6825 16.7125 15.2925L13.4225 12.0025H13.4125Z" fill="#2B2D38"/>
</svg>
