<svg width="26" height="22" viewBox="0 0 26 22" fill="none" xmlns="http://www.w3.org/2000/svg">
<path d="M11.2632 0.975645L0.307265 18.8666C-0.531674 20.2356 0.446238 22 2.04379 22H23.9569C25.5532 22 26.5311 20.2356 25.6935 18.8666L14.7362 0.975645C13.9394 -0.325215 12.0613 -0.325215 11.2632 0.975645Z" fill="#FF4D4D"/>
<path d="M12.5939 14.491C12.0822 14.491 11.6606 14.0879 11.6343 13.5735L11.3435 7.85601C11.307 7.13545 11.8775 6.53125 12.5939 6.53125C13.3103 6.53125 13.8808 7.13545 13.8443 7.85601L13.5535 13.5735C13.5272 14.0879 13.1056 14.491 12.5939 14.491Z" fill="white"/>
<path d="M12.591 17.9612C13.2625 17.9612 13.807 17.4129 13.807 16.7365C13.807 16.0601 13.2625 15.5117 12.591 15.5117C11.9194 15.5117 11.375 16.0601 11.375 16.7365C11.375 17.4129 11.9194 17.9612 12.591 17.9612Z" fill="white"/>
</svg>
