<svg width="20" height="18" viewBox="0 0 20 18" fill="none" xmlns="http://www.w3.org/2000/svg">
<path d="M19.6314 7.06117C19.6314 6.56221 19.4351 6.09596 19.0752 5.74423L13.7829 0.533729C13.0549 -0.17791 11.877 -0.17791 11.1408 0.533729L0.548043 10.9547C0.196314 11.3065 0 11.7727 0 12.2717C0 12.7706 0.196314 13.2369 0.556223 13.5886L4.79333 17.7603C4.94875 17.9075 5.15324 17.9975 5.36592 17.9975H17.0139C17.4638 17.9975 17.8319 17.6294 17.8319 17.1795C17.8319 16.7296 17.4638 16.3615 17.0139 16.3615H10.9772L19.0834 8.38629C19.4351 8.03456 19.6314 7.56832 19.6314 7.06935V7.06117ZM8.63782 16.3534H5.69311L1.70139 12.4189C1.64413 12.3616 1.63595 12.3044 1.63595 12.2635C1.63595 12.2226 1.64413 12.1653 1.70139 12.1081L9.21858 4.72176L14.8381 10.2513L8.62964 16.3534H8.63782ZM17.93 7.20841L16.0078 9.09793L10.3883 3.56842L12.286 1.69525C12.3841 1.60528 12.5396 1.60528 12.6295 1.69525L17.9218 6.90575C17.9791 6.96301 17.9873 7.02027 17.9873 7.06117C17.9873 7.10207 17.9791 7.15933 17.9218 7.21659L17.93 7.20841Z" fill="#0075FF"/>
</svg>
