<svg xmlns="http://www.w3.org/2000/svg" width="36" height="36" viewBox="0 0 36 36">
  <g id="PDF_TO_SVG" data-name="PDF TO SVG" transform="translate(-3226.97 674.008)">
    <path id="Path_5715" data-name="Path 5715" d="M132.3,40.825H113.97a2.5,2.5,0,0,1-2.5-2.5V19.992a2.5,2.5,0,0,1,2.5-2.5H132.3a2.5,2.5,0,0,1,2.5,2.5V38.325a2.5,2.5,0,0,1-2.5,2.5" transform="translate(3116 -691)" fill="#fff"/>
    <rect id="Rectangle_1114" data-name="Rectangle 1114" width="23.333" height="23.333" rx="2.5" transform="translate(3227.47 -673.508)" fill="none" stroke="#1e70b9" stroke-miterlimit="10" stroke-width="1"/>
    <path id="Path_5716" data-name="Path 5716" d="M117.772,35.894a1.378,1.378,0,0,1-.933-.405A1.584,1.584,0,0,1,116.4,34a1.221,1.221,0,0,1,.528-.777,14.66,14.66,0,0,1,3.172-1.773,34.253,34.253,0,0,0,1.865-3.886,8.9,8.9,0,0,1-1-2.892,2.749,2.749,0,0,1,.094-1.244c.311-.995,1-1.026,1.274-.995.063,0,1.151.156,1.337,1.711a8.39,8.39,0,0,1-.715,3.389,10.808,10.808,0,0,0,2.426,2.86,14.4,14.4,0,0,1,3.513.4,1.324,1.324,0,0,1,.715.436,1.153,1.153,0,0,1,.218,1.212,1.288,1.288,0,0,1-.249.436,1.2,1.2,0,0,1-1.523.342,16.524,16.524,0,0,1-2.985-1.959,13.055,13.055,0,0,0-4.291.9c-.529.963-1.182,2.021-1.928,3.2a1.31,1.31,0,0,1-.591.5c-.217,0-.373.031-.5.031m1.523-3.141a11.652,11.652,0,0,0-1.834,1.151c-.093.093-.187.186-.187.28a.737.737,0,0,0,.249.684.444.444,0,0,0,.373.093.255.255,0,0,0,.156-.156c.435-.715.87-1.4,1.243-2.052m7.245-1.492a17.464,17.464,0,0,0,1.866,1.119.3.3,0,0,0,.373-.093.853.853,0,0,0,.124-.218c.062-.155.062-.217-.031-.311a.6.6,0,0,0-.28-.155,11.722,11.722,0,0,0-2.052-.342M122.5,28.494c-.311.715-.684,1.523-1.182,2.456a14.242,14.242,0,0,1,2.737-.56,15.557,15.557,0,0,1-1.555-1.9m-.311-5.224c-.124,0-.218.124-.311.4a1.864,1.864,0,0,0-.062.84,7.747,7.747,0,0,0,.528,1.8,6.2,6.2,0,0,0,.4-2.114c-.094-.84-.529-.933-.56-.933" transform="translate(3116 -691)" fill="#1e70b9"/>
    <path id="Path_5717" data-name="Path 5717" d="M143.97,52.491H125.637a2.5,2.5,0,0,1-2.5-2.5V31.658a2.5,2.5,0,0,1,2.5-2.5H143.97a2.5,2.5,0,0,1,2.5,2.5V49.991a2.5,2.5,0,0,1-2.5,2.5" transform="translate(3116 -691)" fill="#fff"/>
    <rect id="Rectangle_1115" data-name="Rectangle 1115" width="23.333" height="23.333" rx="2.5" transform="translate(3239.137 -661.842)" fill="none" stroke="#1e70b9" stroke-miterlimit="10" stroke-width="1"/>
    <path id="Path_5718" data-name="Path 5718" d="M127.733,43.927a.721.721,0,1,1,.214-.512.7.7,0,0,1-.214.512" transform="translate(3116 -691)" fill="#1e70b9"/>
    <path id="Path_5719" data-name="Path 5719" d="M130.547,44.141a2.458,2.458,0,0,1-1.366-.355,1.944,1.944,0,0,1-.776-.968l1.056-.612a1.136,1.136,0,0,0,1.124.742c.484,0,.727-.145.727-.436a.412.412,0,0,0-.233-.371,4.28,4.28,0,0,0-.876-.31,3.815,3.815,0,0,1-.589-.207,2.432,2.432,0,0,1-.494-.3,1.223,1.223,0,0,1-.367-.471,1.584,1.584,0,0,1-.126-.65,1.465,1.465,0,0,1,.532-1.186,1.914,1.914,0,0,1,1.265-.443,2.175,2.175,0,0,1,1.163.31,2.125,2.125,0,0,1,.8.9l-1.033.605a1.2,1.2,0,0,0-.359-.463.936.936,0,0,0-.567-.157.667.667,0,0,0-.424.119.356.356,0,0,0-.149.287.426.426,0,0,0,.187.344,2.74,2.74,0,0,0,.777.321c.214.066.379.12.5.161a3.46,3.46,0,0,1,.447.2,1.464,1.464,0,0,1,.413.3,1.494,1.494,0,0,1,.364,1,1.458,1.458,0,0,1-.551,1.2,2.231,2.231,0,0,1-1.438.44" transform="translate(3116 -691)" fill="#1e70b9"/>
    <path id="Path_5720" data-name="Path 5720" d="M134.185,44.034l-1.649-5.354h1.335l1.194,3.955,1.18-3.955h1.231l-1.637,5.354Z" transform="translate(3116 -691)" fill="#1e70b9"/>
    <path id="Path_5721" data-name="Path 5721" d="M143.114,41.052v.459a2.529,2.529,0,0,1-.746,1.916,2.627,2.627,0,0,1-1.893.715,2.842,2.842,0,0,1-2.069-.8,2.651,2.651,0,0,1-.822-1.974,2.693,2.693,0,0,1,.814-1.981,2.722,2.722,0,0,1,1.993-.811,2.848,2.848,0,0,1,1.373.337,2.534,2.534,0,0,1,.967.887l-1.04.6a1.291,1.291,0,0,0-.523-.451,1.723,1.723,0,0,0-.785-.176,1.524,1.524,0,0,0-1.128.451,1.572,1.572,0,0,0-.447,1.155,1.5,1.5,0,0,0,.459,1.136,1.7,1.7,0,0,0,1.223.44,1.3,1.3,0,0,0,1.37-.826h-1.431V41.052Z" transform="translate(3116 -691)" fill="#1e70b9"/>
  </g>
</svg>
