<svg xmlns="http://www.w3.org/2000/svg" xmlns:xlink="http://www.w3.org/1999/xlink" width="36" height="36" viewBox="0 0 36 36">
  <defs>
    <clipPath id="clip-PDF_To_ICO_Light_Mode_">
      <rect width="36" height="36"/>
    </clipPath>
  </defs>
  <g id="PDF_To_ICO_Light_Mode_" data-name="PDF To ICO (Light Mode)" clip-path="url(#clip-PDF_To_ICO_Light_Mode_)">
    <g id="Group_237" data-name="Group 237" transform="translate(-120.667 -399.31)">
      <g id="Group_236" data-name="Group 236">
        <g id="Group_229" data-name="Group 229">
          <g id="Group_227" data-name="Group 227">
            <g id="Group_226" data-name="Group 226">
              <rect id="Rectangle_49" data-name="Rectangle 49" width="23.333" height="23.333" rx="2.5" transform="translate(121.167 399.809)" fill="#fff"/>
              <path id="Path_109" data-name="Path 109" d="M142,423.643H123.667a3,3,0,0,1-3-3V402.31a3,3,0,0,1,3-3H142a3,3,0,0,1,3,3v18.333A3,3,0,0,1,142,423.643ZM123.667,400.31a2,2,0,0,0-2,2v18.333a2,2,0,0,0,2,2H142a2,2,0,0,0,2-2V402.31a2,2,0,0,0-2-2Z" fill="#1e70b9"/>
            </g>
          </g>
          <g id="Group_228" data-name="Group 228">
            <path id="Path_110" data-name="Path 110" d="M127.468,418.211a1.383,1.383,0,0,1-.933-.4,1.591,1.591,0,0,1-.435-1.493,1.23,1.23,0,0,1,.528-.777,14.672,14.672,0,0,1,3.172-1.772,34.338,34.338,0,0,0,1.865-3.887,8.9,8.9,0,0,1-.995-2.891,2.747,2.747,0,0,1,.094-1.244c.311-1,.995-1.026,1.275-1,.062,0,1.15.155,1.337,1.71a8.407,8.407,0,0,1-.716,3.389,10.8,10.8,0,0,0,2.426,2.861,14.348,14.348,0,0,1,3.513.4,1.322,1.322,0,0,1,.715.435,1.155,1.155,0,0,1,.218,1.213h0a1.289,1.289,0,0,1-.249.435,1.2,1.2,0,0,1-1.523.342,16.523,16.523,0,0,1-2.985-1.959,13.106,13.106,0,0,0-4.291.9c-.529.964-1.182,2.021-1.928,3.2a1.308,1.308,0,0,1-.591.5h0C127.748,418.18,127.592,418.211,127.468,418.211Zm1.523-3.14a11.67,11.67,0,0,0-1.834,1.15c-.093.093-.187.187-.187.28a.739.739,0,0,0,.249.684.44.44,0,0,0,.373.093h0a.256.256,0,0,0,.156-.155C128.183,416.408,128.618,415.724,128.991,415.071Zm7.245-1.493a17.471,17.471,0,0,0,1.866,1.12.3.3,0,0,0,.373-.094.858.858,0,0,0,.124-.217c.062-.156.062-.218-.031-.311a.6.6,0,0,0-.28-.156A11.91,11.91,0,0,0,136.236,413.578Zm-4.042-2.767c-.311.715-.684,1.524-1.181,2.456a14.217,14.217,0,0,1,2.736-.559A15.488,15.488,0,0,1,132.194,410.811Zm-.311-5.224c-.124,0-.218.125-.311.4a1.859,1.859,0,0,0-.062.839,7.782,7.782,0,0,0,.529,1.8,6.213,6.213,0,0,0,.4-2.115c-.094-.839-.529-.933-.56-.933Z" fill="#1e70b9"/>
          </g>
        </g>
        <g id="Group_235" data-name="Group 235">
          <g id="Group_230" data-name="Group 230">
            <rect id="Rectangle_50" data-name="Rectangle 50" width="23.333" height="23.333" rx="2.5" transform="translate(132.833 411.476)" fill="#fff"/>
            <path id="Path_111" data-name="Path 111" d="M153.667,435.31H135.334a3,3,0,0,1-3-3V413.976a3,3,0,0,1,3-3h18.333a3,3,0,0,1,3,3V432.31A3,3,0,0,1,153.667,435.31Zm-18.333-23.334a2,2,0,0,0-2,2V432.31a2,2,0,0,0,2,2h18.333a2,2,0,0,0,2-2V413.976a2,2,0,0,0-2-2Z" fill="#1e70b9"/>
          </g>
          <g id="Group_234" data-name="Group 234">
            <g id="Group_231" data-name="Group 231">
              <path id="Path_112" data-name="Path 112" d="M138.065,420.792a.482.482,0,0,1,.5-.487.475.475,0,0,1,.487.487v4.7a.475.475,0,0,1-.487.488.482.482,0,0,1-.5-.488Z" fill="#1e70b9"/>
            </g>
            <g id="Group_232" data-name="Group 232">
              <path id="Path_113" data-name="Path 113" d="M139.817,423.159v-.016a2.833,2.833,0,0,1,2.887-2.9,2.936,2.936,0,0,1,1.919.632.491.491,0,0,1,.191.392.468.468,0,0,1-.487.48.436.436,0,0,1-.3-.1,2.015,2.015,0,0,0-1.335-.5,1.889,1.889,0,0,0-1.847,1.975v.016a1.886,1.886,0,0,0,1.847,1.983,1.989,1.989,0,0,0,1.4-.536.452.452,0,0,1,.3-.111.467.467,0,0,1,.463.455.483.483,0,0,1-.16.352,2.921,2.921,0,0,1-4.877-2.127Z" fill="#1e70b9"/>
            </g>
            <g id="Group_233" data-name="Group 233">
              <path id="Path_114" data-name="Path 114" d="M145.082,423.159v-.016a2.874,2.874,0,0,1,2.935-2.9,2.842,2.842,0,0,1,2.918,2.879v.016A2.872,2.872,0,0,1,148,426.037,2.84,2.84,0,0,1,145.082,423.159Zm4.821,0v-.016a1.913,1.913,0,0,0-1.9-1.991,1.891,1.891,0,0,0-1.887,1.975v.016a1.906,1.906,0,0,0,1.9,1.983A1.884,1.884,0,0,0,149.9,423.159Z" fill="#1e70b9"/>
            </g>
          </g>
        </g>
      </g>
    </g>
  </g>
</svg>
