<svg xmlns="http://www.w3.org/2000/svg" xmlns:xlink="http://www.w3.org/1999/xlink" width="36" height="36" viewBox="0 0 36 36">
  <defs>
    <clipPath id="clip-PDF_To_ZIP_Light_Mode_">
      <rect width="36" height="36"/>
    </clipPath>
  </defs>
  <g id="PDF_To_ZIP_Light_Mode_" data-name="PDF To ZIP (Light Mode)" clip-path="url(#clip-PDF_To_ZIP_Light_Mode_)">
    <g id="Group_119" data-name="Group 119" transform="translate(-36 -208.498)">
      <g id="Group_118" data-name="Group 118">
        <g id="Group_111" data-name="Group 111">
          <g id="Group_109" data-name="Group 109">
            <g id="Group_108" data-name="Group 108">
              <rect id="Rectangle_24" data-name="Rectangle 24" width="23.333" height="23.333" rx="2.5" transform="translate(36.5 208.998)" fill="#fff"/>
              <path id="Path_52" data-name="Path 52" d="M57.334,232.831H39a3,3,0,0,1-3-3V211.5a3,3,0,0,1,3-3H57.334a3,3,0,0,1,3,3v18.333A3,3,0,0,1,57.334,232.831ZM39,209.5a2,2,0,0,0-2,2v18.333a2,2,0,0,0,2,2H57.334a2,2,0,0,0,2-2V211.5a2,2,0,0,0-2-2Z" fill="#1e70b9"/>
            </g>
          </g>
          <g id="Group_110" data-name="Group 110">
            <path id="Path_53" data-name="Path 53" d="M42.8,227.4a1.378,1.378,0,0,1-.933-.4,1.589,1.589,0,0,1-.435-1.492,1.222,1.222,0,0,1,.529-.777,14.616,14.616,0,0,1,3.171-1.773A34.116,34.116,0,0,0,47,219.067,8.876,8.876,0,0,1,46,216.175a2.763,2.763,0,0,1,.093-1.244c.311-.994.995-1.026,1.275-.994.062,0,1.15.155,1.337,1.71a8.413,8.413,0,0,1-.715,3.389,10.8,10.8,0,0,0,2.425,2.86,14.391,14.391,0,0,1,3.513.4,1.33,1.33,0,0,1,.716.436,1.151,1.151,0,0,1,.217,1.212h0a1.3,1.3,0,0,1-.248.436,1.2,1.2,0,0,1-1.524.342,16.523,16.523,0,0,1-2.985-1.959,13.06,13.06,0,0,0-4.291.9c-.528.963-1.181,2.021-1.927,3.2a1.321,1.321,0,0,1-.591.5h0C43.081,227.369,42.926,227.4,42.8,227.4Zm1.524-3.141a11.627,11.627,0,0,0-1.835,1.151c-.093.093-.186.186-.186.28a.737.737,0,0,0,.249.684.442.442,0,0,0,.373.093h0a.254.254,0,0,0,.155-.156C43.516,225.6,43.952,224.912,44.325,224.259Zm7.244-1.492a17.463,17.463,0,0,0,1.866,1.119.3.3,0,0,0,.373-.093.852.852,0,0,0,.124-.218c.063-.155.063-.217-.031-.311a.6.6,0,0,0-.279-.155A11.733,11.733,0,0,0,51.569,222.767ZM47.527,220c-.311.715-.684,1.523-1.181,2.456a14.217,14.217,0,0,1,2.736-.56A15.652,15.652,0,0,1,47.527,220Zm-.311-5.224c-.124,0-.217.124-.31.4a1.85,1.85,0,0,0-.063.84,7.814,7.814,0,0,0,.529,1.8,6.207,6.207,0,0,0,.4-2.114c-.093-.84-.528-.933-.56-.933Z" fill="#1e70b9"/>
          </g>
        </g>
        <g id="Group_117" data-name="Group 117">
          <g id="Group_112" data-name="Group 112">
            <rect id="Rectangle_25" data-name="Rectangle 25" width="23.333" height="23.333" rx="2.5" transform="translate(48.167 220.665)" fill="#fff"/>
            <path id="Path_54" data-name="Path 54" d="M69,244.5H50.667a3,3,0,0,1-3-3V223.165a3,3,0,0,1,3-3H69a3,3,0,0,1,3,3V241.5A3,3,0,0,1,69,244.5ZM50.667,221.165a2,2,0,0,0-2,2V241.5a2,2,0,0,0,2,2H69a2,2,0,0,0,2-2V223.165a2,2,0,0,0-2-2Z" fill="#1e70b9"/>
          </g>
          <g id="Group_116" data-name="Group 116">
            <g id="Group_113" data-name="Group 113">
              <path id="Path_55" data-name="Path 55" d="M54.4,235.13a.449.449,0,0,1-.441-.432v-.024a.678.678,0,0,1,.185-.456l3.15-3.814H54.483a.43.43,0,0,1-.432-.432.436.436,0,0,1,.432-.439H58.16a.436.436,0,0,1,.44.432v.023a.727.727,0,0,1-.176.456l-3.158,3.815h2.91a.434.434,0,0,1,.441.439.428.428,0,0,1-.441.432Z" fill="#1e70b9"/>
            </g>
            <g id="Group_114" data-name="Group 114">
              <path id="Path_56" data-name="Path 56" d="M59.378,229.98a.482.482,0,0,1,.5-.487.475.475,0,0,1,.488.487v4.7a.475.475,0,0,1-.488.489.482.482,0,0,1-.5-.489Z" fill="#1e70b9"/>
            </g>
            <g id="Group_115" data-name="Group 115">
              <path id="Path_57" data-name="Path 57" d="M61.378,230.028a.488.488,0,0,1,.5-.495h1.711a1.879,1.879,0,0,1,2.127,1.871v.016c0,1.247-1,1.911-2.239,1.911H62.362v1.35a.475.475,0,0,1-.488.489.482.482,0,0,1-.5-.489Zm2.127,2.415c.743,0,1.207-.416,1.207-1v-.017c0-.663-.471-1-1.207-1H62.362v2.015Z" fill="#1e70b9"/>
            </g>
          </g>
        </g>
      </g>
    </g>
  </g>
</svg>
