<svg xmlns="http://www.w3.org/2000/svg" xmlns:xlink="http://www.w3.org/1999/xlink" width="36" height="36" viewBox="0 0 36 36">
  <defs>
    <clipPath id="clip-PDF_To_EMF_Light_Mode_">
      <rect width="36" height="36"/>
    </clipPath>
  </defs>
  <g id="PDF_To_EMF_Light_Mode_" data-name="PDF To EMF (Light Mode)" clip-path="url(#clip-PDF_To_EMF_Light_Mode_)">
    <g id="Group_183" data-name="Group 183" transform="translate(-120.667 -301.435)">
      <g id="Group_182" data-name="Group 182">
        <g id="Group_175" data-name="Group 175">
          <g id="Group_173" data-name="Group 173">
            <g id="Group_172" data-name="Group 172">
              <rect id="Rectangle_37" data-name="Rectangle 37" width="23.333" height="23.333" rx="2.5" transform="translate(121.167 301.934)" fill="#fff"/>
              <path id="Path_84" data-name="Path 84" d="M142,325.768H123.667a3,3,0,0,1-3-3V304.435a3,3,0,0,1,3-3H142a3,3,0,0,1,3,3v18.333A3,3,0,0,1,142,325.768Zm-18.333-23.333a2,2,0,0,0-2,2v18.333a2,2,0,0,0,2,2H142a2,2,0,0,0,2-2V304.435a2,2,0,0,0-2-2Z" fill="#1e70b9"/>
            </g>
          </g>
          <g id="Group_174" data-name="Group 174">
            <path id="Path_85" data-name="Path 85" d="M127.468,320.336a1.383,1.383,0,0,1-.933-.4,1.591,1.591,0,0,1-.435-1.493,1.225,1.225,0,0,1,.528-.777,14.672,14.672,0,0,1,3.172-1.772A34.338,34.338,0,0,0,131.665,312a8.9,8.9,0,0,1-.995-2.892,2.743,2.743,0,0,1,.094-1.243c.311-1,.995-1.026,1.275-1,.062,0,1.15.155,1.337,1.71a8.407,8.407,0,0,1-.716,3.389,10.777,10.777,0,0,0,2.426,2.86,14.351,14.351,0,0,1,3.513.4,1.316,1.316,0,0,1,.715.435,1.154,1.154,0,0,1,.218,1.213h0a1.289,1.289,0,0,1-.249.435,1.2,1.2,0,0,1-1.523.342,16.523,16.523,0,0,1-2.985-1.959,13.055,13.055,0,0,0-4.291.9c-.529.964-1.182,2.021-1.928,3.2a1.31,1.31,0,0,1-.591.5h0C127.748,320.3,127.592,320.336,127.468,320.336Zm1.523-3.141a11.65,11.65,0,0,0-1.834,1.151c-.093.093-.187.186-.187.28a.74.74,0,0,0,.249.684.444.444,0,0,0,.373.093h0a.256.256,0,0,0,.156-.155C128.183,318.532,128.618,317.848,128.991,317.2Zm7.245-1.492a17.464,17.464,0,0,0,1.866,1.119.3.3,0,0,0,.373-.093.852.852,0,0,0,.124-.218c.062-.155.062-.217-.031-.31a.59.59,0,0,0-.28-.156A11.817,11.817,0,0,0,136.236,315.7Zm-4.042-2.767c-.311.715-.684,1.523-1.181,2.456a14.215,14.215,0,0,1,2.736-.56A15.484,15.484,0,0,1,132.194,312.936Zm-.311-5.224c-.124,0-.218.125-.311.4a1.864,1.864,0,0,0-.062.84,7.764,7.764,0,0,0,.529,1.8,6.207,6.207,0,0,0,.4-2.114c-.094-.84-.529-.933-.56-.933Z" fill="#1e70b9"/>
          </g>
        </g>
        <g id="Group_181" data-name="Group 181">
          <g id="Group_176" data-name="Group 176">
            <rect id="Rectangle_38" data-name="Rectangle 38" width="23.333" height="23.333" rx="2.5" transform="translate(132.833 313.601)" fill="#fff"/>
            <path id="Path_86" data-name="Path 86" d="M153.667,337.435H135.334a3,3,0,0,1-3-3V316.1a3,3,0,0,1,3-3h18.333a3,3,0,0,1,3,3v18.334A3,3,0,0,1,153.667,337.435ZM135.334,314.1a2,2,0,0,0-2,2v18.334a2,2,0,0,0,2,2h18.333a2,2,0,0,0,2-2V316.1a2,2,0,0,0-2-2Z" fill="#1e70b9"/>
          </g>
          <g id="Group_180" data-name="Group 180">
            <g id="Group_177" data-name="Group 177">
              <path id="Path_87" data-name="Path 87" d="M137.222,328.062a.488.488,0,0,1-.5-.5V322.96a.488.488,0,0,1,.5-.495h3.254a.439.439,0,0,1,0,.879h-2.767V324.8h2.406a.441.441,0,0,1,.441.448.428.428,0,0,1-.441.432h-2.406v1.5h2.807a.44.44,0,0,1,0,.88Z" fill="#1e70b9"/>
            </g>
            <g id="Group_178" data-name="Group 178">
              <path id="Path_88" data-name="Path 88" d="M141.6,322.929a.488.488,0,0,1,.5-.5h.1a.519.519,0,0,1,.456.264l1.694,2.654,1.7-2.662a.5.5,0,0,1,.448-.256h.1a.488.488,0,0,1,.5.5v4.685a.481.481,0,0,1-.5.488.5.5,0,0,1-.487-.488v-3.358l-1.367,2.055a.482.482,0,0,1-.416.256.467.467,0,0,1-.408-.256l-1.359-2.039v3.35a.469.469,0,0,1-.488.48.463.463,0,0,1-.48-.48Z" fill="#1e70b9"/>
            </g>
            <g id="Group_179" data-name="Group 179">
              <path id="Path_89" data-name="Path 89" d="M148.069,322.96a.488.488,0,0,1,.5-.495h3.262a.448.448,0,0,1,0,.9h-2.774v1.527h2.415a.448.448,0,0,1,0,.9h-2.415v1.83a.475.475,0,0,1-.488.488.482.482,0,0,1-.5-.488Z" fill="#1e70b9"/>
            </g>
          </g>
        </g>
      </g>
    </g>
  </g>
</svg>
