<svg xmlns="http://www.w3.org/2000/svg" xmlns:xlink="http://www.w3.org/1999/xlink" width="36" height="36" viewBox="0 0 36 36">
  <defs>
    <clipPath id="clip-PDF_To_WMF_Light_Mode_">
      <rect width="36" height="36"/>
    </clipPath>
  </defs>
  <g id="PDF_To_WMF_Light_Mode_" data-name="PDF To WMF (Light Mode)" clip-path="url(#clip-PDF_To_WMF_Light_Mode_)">
    <g id="Group_224" data-name="Group 224" transform="translate(-36 -399.31)">
      <g id="Group_223" data-name="Group 223">
        <g id="Group_216" data-name="Group 216">
          <g id="Group_214" data-name="Group 214">
            <g id="Group_213" data-name="Group 213">
              <rect id="Rectangle_46" data-name="Rectangle 46" width="23.333" height="23.333" rx="2.5" transform="translate(36.5 399.809)" fill="#fff"/>
              <path id="Path_103" data-name="Path 103" d="M57.334,423.643H39a3,3,0,0,1-3-3V402.31a3,3,0,0,1,3-3H57.334a3,3,0,0,1,3,3v18.333A3,3,0,0,1,57.334,423.643ZM39,400.31a2,2,0,0,0-2,2v18.333a2,2,0,0,0,2,2H57.334a2,2,0,0,0,2-2V402.31a2,2,0,0,0-2-2Z" fill="#1e70b9"/>
            </g>
          </g>
          <g id="Group_215" data-name="Group 215">
            <path id="Path_104" data-name="Path 104" d="M42.8,418.211a1.383,1.383,0,0,1-.933-.4,1.591,1.591,0,0,1-.435-1.493,1.227,1.227,0,0,1,.529-.777,14.629,14.629,0,0,1,3.171-1.772A34.2,34.2,0,0,0,47,409.878,8.88,8.88,0,0,1,46,406.987a2.761,2.761,0,0,1,.093-1.244c.311-1,.995-1.026,1.275-1,.062,0,1.15.155,1.337,1.71a8.413,8.413,0,0,1-.715,3.389,10.789,10.789,0,0,0,2.425,2.861,14.342,14.342,0,0,1,3.513.4,1.328,1.328,0,0,1,.716.435,1.152,1.152,0,0,1,.217,1.213h0a1.3,1.3,0,0,1-.248.435,1.2,1.2,0,0,1-1.524.342,16.523,16.523,0,0,1-2.985-1.959,13.112,13.112,0,0,0-4.291.9c-.528.964-1.181,2.021-1.927,3.2a1.318,1.318,0,0,1-.591.5h0C43.081,418.18,42.926,418.211,42.8,418.211Zm1.524-3.14a11.644,11.644,0,0,0-1.835,1.15c-.093.093-.186.187-.186.28a.737.737,0,0,0,.249.684.439.439,0,0,0,.373.093h0a.255.255,0,0,0,.155-.155C43.516,416.408,43.952,415.724,44.325,415.071Zm7.244-1.493a17.47,17.47,0,0,0,1.866,1.12.3.3,0,0,0,.373-.094.858.858,0,0,0,.124-.217c.063-.156.063-.218-.031-.311a.6.6,0,0,0-.279-.156A11.922,11.922,0,0,0,51.569,413.578Zm-4.042-2.767c-.311.715-.684,1.524-1.181,2.456a14.217,14.217,0,0,1,2.736-.559A15.58,15.58,0,0,1,47.527,410.811Zm-.311-5.224c-.124,0-.217.125-.31.4a1.844,1.844,0,0,0-.063.839,7.833,7.833,0,0,0,.529,1.8,6.214,6.214,0,0,0,.4-2.115c-.093-.839-.528-.933-.56-.933Z" fill="#1e70b9"/>
          </g>
        </g>
        <g id="Group_222" data-name="Group 222">
          <g id="Group_217" data-name="Group 217">
            <rect id="Rectangle_47" data-name="Rectangle 47" width="23.333" height="23.333" rx="2.5" transform="translate(48.167 411.476)" fill="#fff"/>
            <path id="Path_105" data-name="Path 105" d="M69,435.31H50.667a3,3,0,0,1-3-3V413.976a3,3,0,0,1,3-3H69a3,3,0,0,1,3,3V432.31A3,3,0,0,1,69,435.31ZM50.667,411.976a2,2,0,0,0-2,2V432.31a2,2,0,0,0,2,2H69a2,2,0,0,0,2-2V413.976a2,2,0,0,0-2-2Z" fill="#1e70b9"/>
          </g>
          <g id="Group_221" data-name="Group 221">
            <g id="Group_218" data-name="Group 218">
              <path id="Path_106" data-name="Path 106" d="M50.191,420.964a.524.524,0,0,1-.04-.192.507.507,0,0,1,.991-.12l1.287,3.846,1.264-3.829a.526.526,0,0,1,.5-.393h.071a.512.512,0,0,1,.5.393L56.02,424.5l1.287-3.854a.492.492,0,0,1,.479-.351.481.481,0,0,1,.488.471.564.564,0,0,1-.048.2L56.571,425.6a.541.541,0,0,1-.512.408h-.1a.523.523,0,0,1-.5-.408l-1.247-3.653L52.965,425.6a.532.532,0,0,1-.512.408h-.095a.539.539,0,0,1-.512-.408Z" fill="#1e70b9"/>
            </g>
            <g id="Group_219" data-name="Group 219">
              <path id="Path_107" data-name="Path 107" d="M58.846,420.8a.489.489,0,0,1,.5-.5h.1a.523.523,0,0,1,.456.264l1.694,2.654,1.7-2.662a.5.5,0,0,1,.448-.256h.1a.489.489,0,0,1,.5.5v4.685a.482.482,0,0,1-.5.487.493.493,0,0,1-.487-.487v-3.358L62,424.178a.478.478,0,0,1-.416.256.468.468,0,0,1-.408-.256l-1.358-2.039v3.351a.468.468,0,0,1-.488.479.462.462,0,0,1-.48-.479Z" fill="#1e70b9"/>
            </g>
            <g id="Group_220" data-name="Group 220">
              <path id="Path_108" data-name="Path 108" d="M65.311,420.828a.488.488,0,0,1,.5-.495h3.262a.447.447,0,0,1,0,.895H66.294v1.528h2.415a.447.447,0,1,1,0,.895H66.294v1.831a.475.475,0,0,1-.487.487.482.482,0,0,1-.5-.487Z" fill="#1e70b9"/>
            </g>
          </g>
        </g>
      </g>
    </g>
  </g>
</svg>
