<svg xmlns="http://www.w3.org/2000/svg" xmlns:xlink="http://www.w3.org/1999/xlink" width="36" height="36" viewBox="0 0 36 36">
  <defs>
    <clipPath id="clip-PDF_To_BMP_Light_Mode_">
      <rect width="36" height="36"/>
    </clipPath>
  </defs>
  <g id="PDF_To_BMP_Light_Mode_" data-name="PDF To BMP (Light Mode)" clip-path="url(#clip-PDF_To_BMP_Light_Mode_)">
    <g id="Group_144" data-name="Group 144" transform="translate(-205.333 -208.498)">
      <g id="Group_143" data-name="Group 143">
        <g id="Group_136" data-name="Group 136">
          <g id="Group_134" data-name="Group 134">
            <g id="Group_133" data-name="Group 133">
              <rect id="Rectangle_30" data-name="Rectangle 30" width="23.333" height="23.333" rx="2.5" transform="translate(205.833 208.998)" fill="#fff"/>
              <path id="Path_64" data-name="Path 64" d="M226.667,232.831H208.334a3,3,0,0,1-3-3V211.5a3,3,0,0,1,3-3h18.333a3,3,0,0,1,3,3v18.333A3,3,0,0,1,226.667,232.831ZM208.334,209.5a2,2,0,0,0-2,2v18.333a2,2,0,0,0,2,2h18.333a2,2,0,0,0,2-2V211.5a2,2,0,0,0-2-2Z" fill="#1e70b9"/>
            </g>
          </g>
          <g id="Group_135" data-name="Group 135">
            <path id="Path_65" data-name="Path 65" d="M212.135,227.4a1.374,1.374,0,0,1-.933-.4,1.584,1.584,0,0,1-.435-1.492,1.221,1.221,0,0,1,.528-.777,14.633,14.633,0,0,1,3.172-1.773,34.254,34.254,0,0,0,1.865-3.886,8.875,8.875,0,0,1-.995-2.892,2.763,2.763,0,0,1,.093-1.244c.311-.994,1-1.026,1.275-.994.062,0,1.151.155,1.337,1.71a8.39,8.39,0,0,1-.715,3.389,10.821,10.821,0,0,0,2.425,2.86,14.4,14.4,0,0,1,3.514.4,1.327,1.327,0,0,1,.715.436,1.153,1.153,0,0,1,.218,1.212h0a1.31,1.31,0,0,1-.249.436,1.2,1.2,0,0,1-1.524.342,16.594,16.594,0,0,1-2.985-1.959,13.048,13.048,0,0,0-4.29.9c-.529.963-1.182,2.021-1.928,3.2a1.316,1.316,0,0,1-.591.5h0C212.414,227.369,212.259,227.4,212.135,227.4Zm1.523-3.141a11.551,11.551,0,0,0-1.834,1.151c-.094.093-.187.186-.187.28a.737.737,0,0,0,.249.684.442.442,0,0,0,.373.093h0a.254.254,0,0,0,.155-.156C212.85,225.6,213.285,224.912,213.658,224.259Zm7.245-1.492a17.347,17.347,0,0,0,1.865,1.119.3.3,0,0,0,.373-.093.841.841,0,0,0,.125-.218c.062-.155.062-.217-.031-.311a.6.6,0,0,0-.28-.155A11.722,11.722,0,0,0,220.9,222.767ZM216.861,220c-.311.715-.684,1.523-1.182,2.456a14.232,14.232,0,0,1,2.736-.56A15.544,15.544,0,0,1,216.861,220Zm-.311-5.224c-.125,0-.218.124-.311.4a1.864,1.864,0,0,0-.062.84,7.748,7.748,0,0,0,.528,1.8,6.173,6.173,0,0,0,.4-2.114c-.093-.84-.528-.933-.559-.933Z" fill="#1e70b9"/>
          </g>
        </g>
        <g id="Group_142" data-name="Group 142">
          <g id="Group_137" data-name="Group 137">
            <rect id="Rectangle_31" data-name="Rectangle 31" width="23.333" height="23.333" rx="2.5" transform="translate(217.5 220.665)" fill="#fff"/>
            <path id="Path_66" data-name="Path 66" d="M238.334,244.5H220a3,3,0,0,1-3-3V223.165a3,3,0,0,1,3-3h18.334a3,3,0,0,1,3,3V241.5A3,3,0,0,1,238.334,244.5ZM220,221.165a2,2,0,0,0-2,2V241.5a2,2,0,0,0,2,2h18.334a2,2,0,0,0,2-2V223.165a2,2,0,0,0-2-2Z" fill="#1e70b9"/>
          </g>
          <g id="Group_141" data-name="Group 141">
            <g id="Group_138" data-name="Group 138">
              <path id="Path_67" data-name="Path 67" d="M221.12,230.024a.488.488,0,0,1,.5-.495h2.015a1.988,1.988,0,0,1,1.462.495,1.267,1.267,0,0,1,.376.928v.016a1.325,1.325,0,0,1-.8,1.248,1.363,1.363,0,0,1,1.111,1.359v.016c0,1-.823,1.535-2.07,1.535h-2.1a.488.488,0,0,1-.5-.5Zm2.31,1.863c.64,0,1.056-.248,1.056-.759v-.016c0-.448-.344-.712-.983-.712h-1.415v1.487Zm.288,2.368c.672,0,1.08-.256,1.08-.768v-.017c0-.479-.376-.751-1.152-.751h-1.558v1.536Z" fill="#1e70b9"/>
            </g>
            <g id="Group_139" data-name="Group 139">
              <path id="Path_68" data-name="Path 68" d="M226.416,229.993a.488.488,0,0,1,.495-.5h.1a.519.519,0,0,1,.456.263l1.7,2.655,1.7-2.662a.5.5,0,0,1,.448-.256h.1a.488.488,0,0,1,.5.5v4.684a.482.482,0,0,1-.5.489.5.5,0,0,1-.488-.489V231.32l-1.367,2.055a.479.479,0,0,1-.416.256.467.467,0,0,1-.408-.256l-1.359-2.039v3.35a.469.469,0,0,1-.488.48.462.462,0,0,1-.479-.48Z" fill="#1e70b9"/>
            </g>
            <g id="Group_140" data-name="Group 140">
              <path id="Path_69" data-name="Path 69" d="M232.88,230.024a.488.488,0,0,1,.5-.495h1.711a1.879,1.879,0,0,1,2.127,1.871v.016c0,1.247-1,1.911-2.24,1.911h-1.111v1.35a.475.475,0,0,1-.487.489.481.481,0,0,1-.5-.489Zm2.127,2.415c.743,0,1.207-.416,1.207-1v-.016c0-.664-.472-1-1.207-1h-1.144v2.014Z" fill="#1e70b9"/>
            </g>
          </g>
        </g>
      </g>
    </g>
  </g>
</svg>
