<svg xmlns="http://www.w3.org/2000/svg" xmlns:xlink="http://www.w3.org/1999/xlink" width="36" height="36" viewBox="0 0 36 36">
  <defs>
    <clipPath id="clip-PDF_To_GIF_Light_Mode_">
      <rect width="36" height="36"/>
    </clipPath>
  </defs>
  <g id="PDF_To_GIF_Light_Mode_" data-name="PDF To GIF (Light Mode)" clip-path="url(#clip-PDF_To_GIF_Light_Mode_)">
    <g id="Group_170" data-name="Group 170" transform="translate(-36 -301.434)">
      <g id="Group_169" data-name="Group 169">
        <g id="Group_162" data-name="Group 162">
          <g id="Group_160" data-name="Group 160">
            <g id="Group_159" data-name="Group 159">
              <rect id="Rectangle_34" data-name="Rectangle 34" width="23.333" height="23.333" rx="2.5" transform="translate(36.5 301.934)" fill="#fff"/>
              <path id="Path_78" data-name="Path 78" d="M57.334,325.768H39a3,3,0,0,1-3-3V304.435a3,3,0,0,1,3-3H57.334a3,3,0,0,1,3,3v18.333A3,3,0,0,1,57.334,325.768ZM39,302.435a2,2,0,0,0-2,2v18.333a2,2,0,0,0,2,2H57.334a2,2,0,0,0,2-2V304.435a2,2,0,0,0-2-2Z" fill="#1e70b9"/>
            </g>
          </g>
          <g id="Group_161" data-name="Group 161">
            <path id="Path_79" data-name="Path 79" d="M42.8,320.336a1.383,1.383,0,0,1-.933-.4,1.591,1.591,0,0,1-.435-1.493,1.222,1.222,0,0,1,.529-.777,14.629,14.629,0,0,1,3.171-1.772A34.2,34.2,0,0,0,47,312,8.875,8.875,0,0,1,46,309.111a2.758,2.758,0,0,1,.093-1.243c.311-1,.995-1.026,1.275-1,.062,0,1.15.155,1.337,1.71a8.413,8.413,0,0,1-.715,3.389,10.771,10.771,0,0,0,2.425,2.86,14.346,14.346,0,0,1,3.513.4,1.322,1.322,0,0,1,.716.435,1.152,1.152,0,0,1,.217,1.213h0a1.3,1.3,0,0,1-.248.435,1.2,1.2,0,0,1-1.524.342,16.523,16.523,0,0,1-2.985-1.959,13.061,13.061,0,0,0-4.291.9c-.528.964-1.181,2.021-1.927,3.2a1.321,1.321,0,0,1-.591.5h0C43.081,320.3,42.926,320.336,42.8,320.336Zm1.524-3.141a11.624,11.624,0,0,0-1.835,1.151c-.093.093-.186.186-.186.28a.737.737,0,0,0,.249.684.442.442,0,0,0,.373.093h0a.255.255,0,0,0,.155-.155C43.516,318.532,43.952,317.848,44.325,317.2Zm7.244-1.492a17.463,17.463,0,0,0,1.866,1.119.3.3,0,0,0,.373-.093.852.852,0,0,0,.124-.218c.063-.155.063-.217-.031-.31a.592.592,0,0,0-.279-.156A11.828,11.828,0,0,0,51.569,315.7Zm-4.042-2.767c-.311.715-.684,1.523-1.181,2.456a14.215,14.215,0,0,1,2.736-.56A15.576,15.576,0,0,1,47.527,312.936Zm-.311-5.224c-.124,0-.217.125-.31.4a1.85,1.85,0,0,0-.063.84,7.814,7.814,0,0,0,.529,1.8,6.207,6.207,0,0,0,.4-2.114c-.093-.84-.528-.933-.56-.933Z" fill="#1e70b9"/>
          </g>
        </g>
        <g id="Group_168" data-name="Group 168">
          <g id="Group_163" data-name="Group 163">
            <rect id="Rectangle_35" data-name="Rectangle 35" width="23.333" height="23.333" rx="2.5" transform="translate(48.167 313.601)" fill="#fff"/>
            <path id="Path_80" data-name="Path 80" d="M69,337.435H50.667a3,3,0,0,1-3-3V316.1a3,3,0,0,1,3-3H69a3,3,0,0,1,3,3v18.334A3,3,0,0,1,69,337.435ZM50.667,314.1a2,2,0,0,0-2,2v18.334a2,2,0,0,0,2,2H69a2,2,0,0,0,2-2V316.1a2,2,0,0,0-2-2Z" fill="#1e70b9"/>
          </g>
          <g id="Group_167" data-name="Group 167">
            <g id="Group_164" data-name="Group 164">
              <path id="Path_81" data-name="Path 81" d="M53.333,325.284v-.017a3.008,3.008,0,0,1,3.051-3.058,3.158,3.158,0,0,1,2.02.6.526.526,0,0,1,.21.422.513.513,0,0,1-.515.516.571.571,0,0,1-.321-.119,2.249,2.249,0,0,0-1.436-.464,2.012,2.012,0,0,0-1.919,2.086v.017a1.975,1.975,0,0,0,2.011,2.112,2.4,2.4,0,0,0,1.429-.447v-1.107H56.7a.445.445,0,0,1-.466-.448.451.451,0,0,1,.466-.456h1.647a.516.516,0,0,1,.524.523v1.58a.729.729,0,0,1-.363.66,3.776,3.776,0,0,1-2.1.642A2.935,2.935,0,0,1,53.333,325.284Z" fill="#1e70b9"/>
            </g>
            <g id="Group_165" data-name="Group 165">
              <path id="Path_82" data-name="Path 82" d="M59.775,322.783a.509.509,0,0,1,.524-.515.5.5,0,0,1,.515.515v4.968a.5.5,0,0,1-.515.516.509.509,0,0,1-.524-.516Z" fill="#1e70b9"/>
            </g>
            <g id="Group_166" data-name="Group 166">
              <path id="Path_83" data-name="Path 83" d="M61.889,322.833a.515.515,0,0,1,.523-.523H65.86a.473.473,0,0,1,0,.947H62.928v1.614H65.48a.473.473,0,1,1,0,.946H62.928v1.934a.5.5,0,0,1-.516.516.509.509,0,0,1-.523-.516Z" fill="#1e70b9"/>
            </g>
          </g>
        </g>
      </g>
    </g>
  </g>
</svg>
