<svg xmlns="http://www.w3.org/2000/svg" xmlns:xlink="http://www.w3.org/1999/xlink" width="36" height="36" viewBox="0 0 36 36">
  <defs>
    <clipPath id="clip-PDF_To_PNG_Light_Mode_">
      <rect width="36" height="36"/>
    </clipPath>
  </defs>
  <g id="PDF_To_PNG_Light_Mode_" data-name="PDF To PNG (Light Mode)" clip-path="url(#clip-PDF_To_PNG_Light_Mode_)">
    <g id="Group_28" data-name="Group 28" transform="translate(-114.542 -27.875)">
      <g id="Group_27" data-name="Group 27" transform="translate(114.542 27.875)">
        <g id="Group_19" data-name="Group 19">
          <g id="Group_17" data-name="Group 17">
            <g id="Group_16" data-name="Group 16">
              <rect id="Rectangle_5" data-name="Rectangle 5" width="23.333" height="23.333" rx="2.5" transform="translate(0.5 0.5)" fill="#fff"/>
              <path id="Path_7" data-name="Path 7" d="M142,58.333H123.667a3,3,0,0,1-3-3V37a3,3,0,0,1,3-3H142a3,3,0,0,1,3,3V55.333A3,3,0,0,1,142,58.333ZM123.667,35a2,2,0,0,0-2,2V55.333a2,2,0,0,0,2,2H142a2,2,0,0,0,2-2V37a2,2,0,0,0-2-2Z" transform="translate(-120.667 -34)" fill="#1e70b9"/>
            </g>
          </g>
          <g id="Group_18" data-name="Group 18" transform="translate(5.386 5.432)">
            <path id="Path_8" data-name="Path 8" d="M127.468,52.9a1.383,1.383,0,0,1-.933-.4,1.591,1.591,0,0,1-.435-1.493,1.225,1.225,0,0,1,.528-.777,14.7,14.7,0,0,1,3.172-1.773,34.249,34.249,0,0,0,1.865-3.886,8.9,8.9,0,0,1-.995-2.892,2.743,2.743,0,0,1,.094-1.243c.311-.995.995-1.027,1.275-.995.062,0,1.15.155,1.337,1.71a8.407,8.407,0,0,1-.716,3.389,10.808,10.808,0,0,0,2.426,2.86,14.352,14.352,0,0,1,3.513.4,1.316,1.316,0,0,1,.715.435,1.153,1.153,0,0,1,.218,1.212h0a1.288,1.288,0,0,1-.249.436,1.2,1.2,0,0,1-1.523.342,16.525,16.525,0,0,1-2.985-1.959,13.055,13.055,0,0,0-4.291.9c-.529.963-1.182,2.021-1.928,3.2a1.31,1.31,0,0,1-.591.5h0C127.748,52.871,127.592,52.9,127.468,52.9Zm1.523-3.141a11.651,11.651,0,0,0-1.834,1.151c-.093.093-.187.186-.187.28a.74.74,0,0,0,.249.684.444.444,0,0,0,.373.093h0a.256.256,0,0,0,.156-.155C128.183,51.1,128.618,50.414,128.991,49.761Zm7.245-1.492a17.472,17.472,0,0,0,1.866,1.119.3.3,0,0,0,.373-.093.853.853,0,0,0,.124-.218c.062-.155.062-.217-.031-.311a.6.6,0,0,0-.28-.155A11.722,11.722,0,0,0,136.236,48.269ZM132.194,45.5c-.311.715-.684,1.523-1.181,2.456a14.216,14.216,0,0,1,2.736-.56A15.56,15.56,0,0,1,132.194,45.5Zm-.311-5.224c-.124,0-.218.124-.311.4a1.865,1.865,0,0,0-.062.84,7.765,7.765,0,0,0,.529,1.8,6.206,6.206,0,0,0,.4-2.114c-.094-.84-.529-.933-.56-.933Z" transform="translate(-126.053 -39.432)" fill="#1e70b9"/>
          </g>
        </g>
        <g id="Group_26" data-name="Group 26" transform="translate(11.667 11.667)">
          <g id="Group_20" data-name="Group 20">
            <rect id="Rectangle_6" data-name="Rectangle 6" width="23.333" height="23.333" rx="2.5" transform="translate(0.499 0.5)" fill="#fff"/>
            <path id="Path_9" data-name="Path 9" d="M153.667,70H135.334a3,3,0,0,1-3-3V48.667a3,3,0,0,1,3-3h18.333a3,3,0,0,1,3,3V67A3,3,0,0,1,153.667,70ZM135.334,46.667a2,2,0,0,0-2,2V67a2,2,0,0,0,2,2h18.333a2,2,0,0,0,2-2V48.667a2,2,0,0,0-2-2Z" transform="translate(-132.334 -45.667)" fill="#1e70b9"/>
          </g>
          <g id="Group_25" data-name="Group 25" transform="translate(4.666 4.666)">
            <g id="Group_22" data-name="Group 22">
              <g id="Group_21" data-name="Group 21">
                <path id="Path_10" data-name="Path 10" d="M149.5,65.333h-10a2.5,2.5,0,0,1-2.5-2.5v-10a2.5,2.5,0,0,1,2.5-2.5h10a2.5,2.5,0,0,1,2.5,2.5v10A2.5,2.5,0,0,1,149.5,65.333Zm-10-14a1.5,1.5,0,0,0-1.5,1.5v10a1.5,1.5,0,0,0,1.5,1.5h10a1.5,1.5,0,0,0,1.5-1.5v-10a1.5,1.5,0,0,0-1.5-1.5Z" transform="translate(-137 -50.333)" fill="#1e70b9"/>
              </g>
            </g>
            <g id="Group_23" data-name="Group 23" transform="translate(0 6.8)">
              <path id="Path_11" data-name="Path 11" d="M151.5,61.785a.5.5,0,0,1-.257-.071l-3.214-1.925-2.386,1.854a.5.5,0,0,1-.629-.013l-3.935-3.316L137.856,61.6a.5.5,0,1,1-.713-.7l3.547-3.615a.5.5,0,0,1,.679-.032l3.98,3.354,2.336-1.815a.5.5,0,0,1,.564-.035l3.508,2.1a.5.5,0,0,1-.257.929Z" transform="translate(-137 -57.133)" fill="#1e70b9"/>
            </g>
            <g id="Group_24" data-name="Group 24" transform="translate(8.953 2.79)">
              <path id="Path_12" data-name="Path 12" d="M147.634,56.486a1.681,1.681,0,1,1,1.682-1.682A1.684,1.684,0,0,1,147.634,56.486Zm0-2.363a.681.681,0,1,0,.682.681A.682.682,0,0,0,147.634,54.123Z" transform="translate(-145.953 -53.123)" fill="#1e70b9"/>
            </g>
          </g>
        </g>
      </g>
    </g>
  </g>
</svg>
