<svg xmlns="http://www.w3.org/2000/svg" xmlns:xlink="http://www.w3.org/1999/xlink" width="36" height="36" viewBox="0 0 36 36">
  <defs>
    <clipPath id="clip-PDF_To_EXIF_Light_Mode_">
      <rect width="36" height="36"/>
    </clipPath>
  </defs>
  <g id="PDF_To_EXIF_Light_Mode_" data-name="PDF To EXIF (Light Mode)" clip-path="url(#clip-PDF_To_EXIF_Light_Mode_)">
    <g id="Group_317" data-name="Group 317" transform="translate(-290 -486.967)">
      <g id="Group_309" data-name="Group 309">
        <g id="Group_307" data-name="Group 307">
          <g id="Group_306" data-name="Group 306">
            <rect id="Rectangle_63" data-name="Rectangle 63" width="23.333" height="23.333" rx="2.5" transform="translate(290.5 487.467)" fill="#fff"/>
            <path id="Path_152" data-name="Path 152" d="M311.334,511.3H293a3,3,0,0,1-3-3V489.967a3,3,0,0,1,3-3h18.334a3,3,0,0,1,3,3V508.3A3,3,0,0,1,311.334,511.3ZM293,487.967a2,2,0,0,0-2,2V508.3a2,2,0,0,0,2,2h18.334a2,2,0,0,0,2-2V489.967a2,2,0,0,0-2-2Z" fill="#1e70b9"/>
          </g>
        </g>
        <g id="Group_308" data-name="Group 308">
          <path id="Path_153" data-name="Path 153" d="M296.8,505.869a1.378,1.378,0,0,1-.933-.4,1.589,1.589,0,0,1-.435-1.492,1.222,1.222,0,0,1,.529-.777,14.616,14.616,0,0,1,3.171-1.773A34.113,34.113,0,0,0,301,497.536a8.876,8.876,0,0,1-.995-2.892,2.763,2.763,0,0,1,.093-1.244c.311-.995,1-1.026,1.275-.995.062,0,1.15.156,1.337,1.711a8.413,8.413,0,0,1-.715,3.389,10.8,10.8,0,0,0,2.425,2.86,14.343,14.343,0,0,1,3.513.4,1.33,1.33,0,0,1,.716.436,1.151,1.151,0,0,1,.217,1.212h0a1.3,1.3,0,0,1-.248.436,1.2,1.2,0,0,1-1.524.342,16.523,16.523,0,0,1-2.985-1.959,13.088,13.088,0,0,0-4.291.9c-.528.964-1.181,2.022-1.927,3.2a1.321,1.321,0,0,1-.591.5h0C297.081,505.838,296.926,505.869,296.8,505.869Zm1.524-3.141a11.63,11.63,0,0,0-1.835,1.151c-.093.093-.186.186-.186.28a.737.737,0,0,0,.249.684.442.442,0,0,0,.373.093h0a.254.254,0,0,0,.155-.156C297.516,504.065,297.952,503.381,298.325,502.728Zm7.244-1.492a17.464,17.464,0,0,0,1.866,1.119.3.3,0,0,0,.373-.093.872.872,0,0,0,.124-.218c.063-.155.063-.217-.031-.311a.6.6,0,0,0-.279-.155A11.734,11.734,0,0,0,305.569,501.236Zm-4.042-2.767c-.311.715-.684,1.523-1.181,2.456a14.142,14.142,0,0,1,2.736-.56A15.65,15.65,0,0,1,301.527,498.469Zm-.311-5.224c-.124,0-.217.124-.31.4a1.85,1.85,0,0,0-.063.84,7.815,7.815,0,0,0,.529,1.8,6.206,6.206,0,0,0,.4-2.114c-.093-.84-.528-.933-.56-.933Z" fill="#1e70b9"/>
        </g>
      </g>
      <g id="Group_316" data-name="Group 316">
        <g id="Group_310" data-name="Group 310">
          <rect id="Rectangle_64" data-name="Rectangle 64" width="23.333" height="23.333" rx="2.5" transform="translate(302.167 499.134)" fill="#fff"/>
          <path id="Path_154" data-name="Path 154" d="M323,522.967H304.667a3,3,0,0,1-3-3V501.634a3,3,0,0,1,3-3H323a3,3,0,0,1,3,3v18.333A3,3,0,0,1,323,522.967Zm-18.333-23.333a2,2,0,0,0-2,2v18.333a2,2,0,0,0,2,2H323a2,2,0,0,0,2-2V501.634a2,2,0,0,0-2-2Z" fill="#1e70b9"/>
        </g>
        <g id="Group_315" data-name="Group 315">
          <g id="Group_311" data-name="Group 311">
            <path id="Path_155" data-name="Path 155" d="M306.143,513.6a.489.489,0,0,1-.5-.5v-4.6a.488.488,0,0,1,.5-.495H309.4a.439.439,0,0,1,0,.879H306.63v1.456h2.406a.44.44,0,0,1,.441.447.427.427,0,0,1-.441.432H306.63v1.5h2.807a.44.44,0,0,1,0,.88Z" fill="#1e70b9"/>
          </g>
          <g id="Group_312" data-name="Group 312">
            <path id="Path_156" data-name="Path 156" d="M310.383,512.815l1.662-2.063-1.566-1.943a.583.583,0,0,1-.153-.368.469.469,0,0,1,.489-.479.5.5,0,0,1,.447.239l1.415,1.863,1.4-1.831a.538.538,0,0,1,.48-.271.446.446,0,0,1,.448.447.557.557,0,0,1-.152.376l-1.567,1.951,1.647,2.055a.549.549,0,0,1,.152.368.469.469,0,0,1-.488.48.494.494,0,0,1-.447-.241l-1.5-1.959-1.48,1.928a.543.543,0,0,1-.479.272.448.448,0,0,1-.448-.456A.6.6,0,0,1,310.383,512.815Z" fill="#1e70b9"/>
          </g>
          <g id="Group_313" data-name="Group 313">
            <path id="Path_157" data-name="Path 157" d="M315.815,508.449a.482.482,0,0,1,.5-.487.475.475,0,0,1,.487.487v4.7a.475.475,0,0,1-.487.488.482.482,0,0,1-.5-.488Z" fill="#1e70b9"/>
          </g>
          <g id="Group_314" data-name="Group 314">
            <path id="Path_158" data-name="Path 158" d="M317.815,508.5a.488.488,0,0,1,.5-.495h3.262a.447.447,0,0,1,0,.895H318.8v1.528h2.415a.448.448,0,0,1,0,.9H318.8v1.831a.475.475,0,0,1-.487.488.482.482,0,0,1-.5-.488Z" fill="#1e70b9"/>
          </g>
        </g>
      </g>
    </g>
  </g>
</svg>
