<svg xmlns="http://www.w3.org/2000/svg" xmlns:xlink="http://www.w3.org/1999/xlink" width="36" height="36" viewBox="0 0 36 36">
  <defs>
    <clipPath id="clip-PDF_To_TIFF_Light_Mode_">
      <rect width="36" height="36"/>
    </clipPath>
  </defs>
  <g id="PDF_To_TIFF_Light_Mode_" data-name="PDF To TIFF (Light Mode)" clip-path="url(#clip-PDF_To_TIFF_Light_Mode_)">
    <g id="Group_56" data-name="Group 56" transform="translate(-290 -34)">
      <g id="Group_55" data-name="Group 55">
        <g id="Group_47" data-name="Group 47">
          <g id="Group_45" data-name="Group 45">
            <g id="Group_44" data-name="Group 44">
              <rect id="Rectangle_11" data-name="Rectangle 11" width="23.333" height="23.333" rx="2.5" transform="translate(290.5 34.5)" fill="#fff"/>
              <path id="Path_20" data-name="Path 20" d="M311.334,58.333H293a3,3,0,0,1-3-3V37a3,3,0,0,1,3-3h18.334a3,3,0,0,1,3,3V55.333A3,3,0,0,1,311.334,58.333ZM293,35a2,2,0,0,0-2,2V55.333a2,2,0,0,0,2,2h18.334a2,2,0,0,0,2-2V37a2,2,0,0,0-2-2Z" fill="#1e70b9"/>
            </g>
          </g>
          <g id="Group_46" data-name="Group 46">
            <path id="Path_21" data-name="Path 21" d="M296.8,52.9a1.383,1.383,0,0,1-.933-.4,1.591,1.591,0,0,1-.435-1.493,1.222,1.222,0,0,1,.529-.777,14.66,14.66,0,0,1,3.171-1.773A34.114,34.114,0,0,0,301,44.569,8.876,8.876,0,0,1,300,41.677a2.758,2.758,0,0,1,.093-1.243c.311-.995,1-1.027,1.275-.995.062,0,1.15.155,1.337,1.71a8.413,8.413,0,0,1-.715,3.389,10.8,10.8,0,0,0,2.425,2.86,14.346,14.346,0,0,1,3.513.405,1.322,1.322,0,0,1,.716.435,1.151,1.151,0,0,1,.217,1.212h0a1.3,1.3,0,0,1-.248.436,1.2,1.2,0,0,1-1.524.342,16.524,16.524,0,0,1-2.985-1.959,13.061,13.061,0,0,0-4.291.9c-.528.963-1.181,2.021-1.927,3.2a1.321,1.321,0,0,1-.591.5h0C297.081,52.871,296.926,52.9,296.8,52.9Zm1.524-3.141a11.628,11.628,0,0,0-1.835,1.151c-.093.093-.186.186-.186.28a.737.737,0,0,0,.249.684.442.442,0,0,0,.373.093h0a.255.255,0,0,0,.155-.155C297.516,51.1,297.952,50.414,298.325,49.761Zm7.244-1.492a17.465,17.465,0,0,0,1.866,1.119.3.3,0,0,0,.373-.093.852.852,0,0,0,.124-.218c.063-.155.063-.217-.031-.311a.6.6,0,0,0-.279-.155A11.734,11.734,0,0,0,305.569,48.269ZM301.527,45.5c-.311.715-.684,1.523-1.181,2.456a14.215,14.215,0,0,1,2.736-.56A15.651,15.651,0,0,1,301.527,45.5Zm-.311-5.224c-.124,0-.217.124-.31.4a1.85,1.85,0,0,0-.063.84,7.815,7.815,0,0,0,.529,1.8,6.207,6.207,0,0,0,.4-2.114c-.093-.84-.528-.933-.56-.933Z" fill="#1e70b9"/>
          </g>
        </g>
        <g id="Group_54" data-name="Group 54">
          <g id="Group_48" data-name="Group 48">
            <rect id="Rectangle_12" data-name="Rectangle 12" width="23.333" height="23.333" rx="2.5" transform="translate(302.167 46.167)" fill="#fff"/>
            <path id="Path_22" data-name="Path 22" d="M323,70H304.667a3,3,0,0,1-3-3V48.667a3,3,0,0,1,3-3H323a3,3,0,0,1,3,3V67A3,3,0,0,1,323,70ZM304.667,46.667a2,2,0,0,0-2,2V67a2,2,0,0,0,2,2H323a2,2,0,0,0,2-2V48.667a2,2,0,0,0-2-2Z" fill="#1e70b9"/>
          </g>
          <g id="Group_53" data-name="Group 53">
            <g id="Group_49" data-name="Group 49">
              <path id="Path_23" data-name="Path 23" d="M306.777,55.709h-1.531a.514.514,0,0,1,0-1.027h4.187a.514.514,0,0,1,0,1.027h-1.54V60.48a.558.558,0,0,1-1.116,0Z" fill="#1e70b9"/>
            </g>
            <g id="Group_50" data-name="Group 50">
              <path id="Path_24" data-name="Path 24" d="M310.583,55.186a.541.541,0,0,1,.559-.548.534.534,0,0,1,.549.548V60.48a.535.535,0,0,1-.549.549.542.542,0,0,1-.559-.549Z" fill="#1e70b9"/>
            </g>
            <g id="Group_51" data-name="Group 51">
              <path id="Path_25" data-name="Path 25" d="M312.833,55.241a.55.55,0,0,1,.558-.559h3.674a.5.5,0,0,1,0,1.009h-3.124V57.41h2.719a.5.5,0,0,1,0,1.008h-2.719V60.48a.535.535,0,0,1-.55.549.542.542,0,0,1-.558-.549Z" fill="#1e70b9"/>
            </g>
            <g id="Group_52" data-name="Group 52">
              <path id="Path_26" data-name="Path 26" d="M318.2,55.241a.55.55,0,0,1,.557-.559h3.673a.5.5,0,1,1,0,1.009H319.3V57.41h2.719a.5.5,0,1,1,0,1.008H319.3V60.48a.535.535,0,0,1-.55.549.542.542,0,0,1-.557-.549Z" fill="#1e70b9"/>
            </g>
          </g>
        </g>
      </g>
    </g>
  </g>
</svg>
