<svg width="32" height="33" viewBox="0 0 32 33" fill="none" xmlns="http://www.w3.org/2000/svg">
<path d="M9.22998 29.8799L16 14.6499" stroke="#1E70B9" stroke-miterlimit="10" stroke-linecap="round"/>
<path d="M13.8 19.7299C14.54 21.8699 16.22 23.1199 18.12 23.1199C21.63 23.1199 24.4701 20.4899 24.4701 16.3499C24.4701 11.6799 20.6901 7.87988 16.0201 7.87988C11.35 7.87988 7.55005 11.6599 7.55005 16.3299C7.55005 17.3199 7.72005 18.2999 8.06005 19.2299" stroke="#1E70B9" stroke-miterlimit="10" stroke-linecap="round"/>
<path d="M0.77002 16.3399C0.77002 24.7499 7.59002 31.5699 16 31.5699C24.41 31.5699 31.23 24.7499 31.23 16.3399C31.23 7.92986 24.41 1.10986 16 1.10986C7.59002 1.10986 0.77002 7.92986 0.77002 16.3399Z" stroke="#1E70B9" stroke-miterlimit="10" stroke-linecap="round"/>
</svg>
