<svg xmlns="http://www.w3.org/2000/svg" width="18" height="18" viewBox="0 0 18 18">
  <g id="world" transform="translate(-0.004)" style="isolation: isolate">
    <g id="Group_177" data-name="Group 177" transform="translate(0.004)">
      <path id="Path_19" data-name="Path 19" d="M22.522,5.345l-.27.085-1.436.128L20.41,6.2l-.294-.093L18.972,5.082l-.166-.535-.222-.571-.718-.643-.848-.166L17,3.555l.83.809.406.478-.457.238-.372-.109-.557-.232.019-.449-.731-.3-.243,1.055-.737.167.073.588.96.184.166-.94.793.117.368.215h.591l.4.809,1.073,1.086-.079.422-.865-.11-1.494.753L16.072,9.625l-.14.571h-.386l-.72-.331-.7.331.174.736.3-.35.535-.017-.037.661.443.129.442.5.722-.2.825.13.958.257.479.056.811.919,1.566.919-1.013,1.932-1.069.5-.406,1.1-1.547,1.031-.165.595A8.98,8.98,0,0,0,22.522,5.345Z" transform="translate(-6.048 -1.35)" fill="#bcc6d5"/>
      <path id="Path_20" data-name="Path 20" d="M10.053,16.935,9.4,15.718l.6-1.256-.6-.18L8.72,13.6l-1.5-.336-.5-1.041v.618H6.5L5.212,11.092V9.653l-.947-1.54-1.5.268H1.749l-.51-.334.65-.515-.648.15A9,9,0,0,0,9.017,21.238a9.437,9.437,0,0,0,1.131-.079l-.094-1.092s.414-1.622.414-1.677S10.053,16.935,10.053,16.935Z" transform="translate(-0.004 -3.238)" fill="#bcc6d5"/>
      <path id="Path_21" data-name="Path 21" d="M4.884,2.907l1.6-.223.738-.4.83.239L9.38,2.445l.455-.714.663.109,1.61-.151.444-.489.626-.418.885.133.323-.049A8.985,8.985,0,0,0,3.6,3.277h0ZM10.928.9l.92-.507.591.341-.856.651-.817.082L10.4,1.226ZM8.2.97l.406.169L9.14.97l.29.5L8.2,1.8,7.611,1.45S8.188,1.078,8.2.97Z" transform="translate(-1.535 0)" fill="#bcc6d5"/>
    </g>
  </g>
</svg>
