<svg xmlns="http://www.w3.org/2000/svg" xmlns:xlink="http://www.w3.org/1999/xlink" width="28" height="32" viewBox="0 0 28 32">
  <defs>
    <linearGradient id="linear-gradient" x1="0.808" y1="0.5" x2="-1.573" y2="0.5" gradientUnits="objectBoundingBox">
      <stop offset="0" stop-color="gold"/>
      <stop offset="0.075" stop-color="#fece00"/>
      <stop offset="0.48" stop-color="#fca704"/>
      <stop offset="0.803" stop-color="#fa8e07"/>
      <stop offset="1" stop-color="#fa8608"/>
    </linearGradient>
    <linearGradient id="linear-gradient-2" x1="0.862" y1="0.178" x2="-0.501" y2="1.948" gradientUnits="objectBoundingBox">
      <stop offset="0" stop-color="#e82b36"/>
      <stop offset="1" stop-color="#b4005a"/>
    </linearGradient>
    <linearGradient id="linear-gradient-3" x1="-0.507" y1="-0.956" x2="0.606" y2="0.489" gradientUnits="objectBoundingBox">
      <stop offset="0" stop-color="#2f8e5b"/>
      <stop offset="0.39" stop-color="#4ea157"/>
      <stop offset="0.768" stop-color="#67b054"/>
      <stop offset="1" stop-color="#70b653"/>
    </linearGradient>
  </defs>
  <g id="Group_1131" data-name="Group 1131" transform="translate(-9685.906 -1025.072)">
    <path id="Path_61" data-name="Path 61" d="M50.97,17.839a2.494,2.494,0,0,0-.575,1.748V47.1a2.494,2.494,0,0,0,.575,1.748l.092.09,15.38-15.415v-.364L51.061,17.749Z" transform="translate(9635.511 1007.727)" fill="#40bff2"/>
    <path id="Path_62" data-name="Path 62" d="M100.115,56.86l-5.126-5.129v-.363l5.128-5.128.116.066,6.074,3.451c1.735.986,1.735,2.6,0,3.585l-6.074,3.451Z" transform="translate(9606.299 989.522)" fill="url(#linear-gradient)"/>
    <path id="Path_63" data-name="Path 63" d="M72.438,66.014,66.79,60.945l-14.8,15.523a2.02,2.02,0,0,0,2.58.076" transform="translate(9634.488 980.111)" fill="url(#linear-gradient-2)"/>
    <path id="Path_64" data-name="Path 64" d="M72.438,27.571,54.572,17.045a2.02,2.02,0,0,0-2.58.076L66.807,32.657Z" transform="translate(9634.488 1008.445)" fill="url(#linear-gradient-3)"/>
  </g>
</svg>
