<svg xmlns="http://www.w3.org/2000/svg" xmlns:xlink="http://www.w3.org/1999/xlink" width="259" height="323" viewBox="0 0 259 323">
  <defs>
    <clipPath id="clip-path">
      <rect id="Rectangle_591" data-name="Rectangle 591" width="259" height="323" transform="translate(1203.11 886)" fill="#fff"/>
    </clipPath>
    <clipPath id="clip-path-2">
      <rect id="Rectangle_590" data-name="Rectangle 590" width="185.616" height="358.866" fill="none"/>
    </clipPath>
  </defs>
  <g id="PLUGIN" transform="translate(-1203.11 -886)" clip-path="url(#clip-path)">
    <g id="Group_3951" data-name="Group 3951" transform="translate(1325.642 856.102) rotate(30)">
      <g id="Group_3950" data-name="Group 3950" clip-path="url(#clip-path-2)">
        <path id="Path_2003" data-name="Path 2003" d="M59.517.032c16.081,0,32.164-.1,48.242.1a14.534,14.534,0,0,1,7.546,2.328c1.442.97,2.463,3.531,2.527,5.419.271,8.084.167,16.184.105,24.277-.116,14.989-5.524,27.894-15.465,39.007A56.275,56.275,0,0,1,73.279,88.656c-4.039.976-4.512,2.554-4.343,5.847.184,3.576.058,7.17.031,10.755-.019,2.557-1.306,4.035-3.9,4.081-3.884.069-7.77.046-11.655.012-2.906-.026-4.287-1.364-4.324-4.275-.055-4.4-.062-8.811.007-13.216.025-1.571-.406-2.436-2.088-2.765A56.516,56.516,0,0,1,14.895,70.335C4.87,58.963.1,45.5.085,30.34c0-6.557.235-13.125-.059-19.668C-.346,2.393,3.354.136,10.659.075,26.943-.063,43.231.032,59.517.032" transform="translate(34.966 249.483)" fill="#dc888b"/>
        <path id="Path_2004" data-name="Path 2004" d="M14.921,25.352c0,5.629-.065,11.259.037,16.885.035,1.948-.473,2.769-2.571,2.661-3.163-.162-6.344-.128-9.512-.013C.958,44.955,0,44.331.007,42.322.027,30.963-.045,19.6.053,8.245c.023-2.67.8-5.269,3.3-6.816C5.467.119,7.527-.615,10.179.671a7.553,7.553,0,0,1,4.714,7.183c.1,5.831.028,11.666.029,17.5" transform="translate(58.31 199.256)" fill="#dc888b"/>
        <path id="Path_2005" data-name="Path 2005" d="M.043,24.779c0-5.43-.019-10.859.006-16.289C.071,3.661,3.225.032,7.371,0c4.31-.033,7.524,3.6,7.529,8.57.012,10.961-.08,21.925.051,32.885.033,2.737-.877,3.651-3.542,3.469a63.043,63.043,0,0,0-8.291,0c-2.509.16-3.166-.9-3.114-3.24.125-5.632.041-11.269.041-16.9" transform="translate(114.753 199.229)" fill="#dc888b"/>
        <path id="Path_2006" data-name="Path 2006" d="M92.808,0a92.808,92.808,0,1,0,92.808,92.808A92.813,92.813,0,0,0,92.808,0m67.869,55.709a59.331,59.331,0,0,1,.514,7.945c0,7.839-1.465,16.661-5.876,27.7L131.69,159.65A77.339,77.339,0,0,0,160.677,55.709M94.167,99.575l-23.2,67.431a77.316,77.316,0,0,0,47.522-1.223,7.15,7.15,0,0,1-.559-1.072Zm50.845-10.664c0-9.562-3.429-16.178-6.374-21.329-3.928-6.374-7.6-11.767-7.6-18.141,0-7.115,5.392-13.731,12.99-13.731.348,0,.665.046,1,.06A77.316,77.316,0,0,0,28.187,50.332c1.812.06,3.52.09,4.985.09,8.081,0,20.619-.982,20.619-.982,4.169-.242,4.653,5.876.5,6.374,0,0-4.184.483-8.852.741L73.594,140.33,90.527,89.575,78.473,56.555c-4.169-.242-8.112-.741-8.112-.741-4.169-.241-3.686-6.616.483-6.374,0,0,12.764.982,20.362.982,8.081,0,20.619-.982,20.619-.982,4.169-.242,4.653,5.876.5,6.374,0,0-4.2.483-8.852.741l27.945,83.125,7.976-25.287c3.55-11.042,5.62-18.867,5.62-25.483m-129.545,3.9a77.349,77.349,0,0,0,43.595,69.606L22.16,61.328a77.064,77.064,0,0,0-6.692,31.48M92.808,5.574a86.712,86.712,0,0,1,33.957,6.858A87.345,87.345,0,0,1,154.5,31.117a87.2,87.2,0,0,1,10.649,12.915,87.388,87.388,0,0,1,8.036,82.733A87.361,87.361,0,0,1,154.5,154.5a87.2,87.2,0,0,1-12.915,10.649,87.388,87.388,0,0,1-82.733,8.036A87.361,87.361,0,0,1,31.117,154.5a87.17,87.17,0,0,1-10.649-12.915,87.388,87.388,0,0,1-8.036-82.733A87.36,87.36,0,0,1,31.117,31.117,87.2,87.2,0,0,1,44.033,20.468,86.955,86.955,0,0,1,92.808,5.574" fill="#dc888b"/>
      </g>
    </g>
  </g>
</svg>
