<svg width="36" height="36" viewBox="0 0 36 36" fill="none" xmlns="http://www.w3.org/2000/svg">
<path d="M21.33 0.5H3C1.61929 0.5 0.5 1.61929 0.5 3V21.33C0.5 22.7107 1.61929 23.83 3 23.83H21.33C22.7107 23.83 23.83 22.7107 23.83 21.33V3C23.83 1.61929 22.7107 0.5 21.33 0.5Z" fill="white" stroke="#1E70B9" stroke-miterlimit="10"/>
<path d="M33 12.1699H14.67C13.2893 12.1699 12.17 13.2892 12.17 14.6699V32.9999C12.17 34.3806 13.2893 35.4999 14.67 35.4999H33C34.3807 35.4999 35.5 34.3806 35.5 32.9999V14.6699C35.5 13.2892 34.3807 12.1699 33 12.1699Z" fill="white" stroke="#1E70B9" stroke-miterlimit="10"/>
<path d="M6.78002 9.46997H4.71002V14.97H5.84002V13.03H6.78002C7.93002 13.03 8.76002 12.29 8.76002 11.24C8.76002 10.19 7.93002 9.46997 6.78002 9.46997ZM6.78002 12.04H5.84002V10.46H6.78002C7.29002 10.46 7.61002 10.78 7.61002 11.24C7.61002 11.7 7.31002 12.04 6.78002 12.04Z" fill="#1E70B9"/>
<path d="M13.22 9.46987V12.4699H14.34V9.46987H13.22ZM10.03 9.36987H9.66003V14.9699H10.79V11.6699L12.61 13.6199V12.4699H12.96L10.03 9.36987Z" fill="#1E70B9"/>
<path d="M18.22 9.36989C16.6 9.33989 15.25 10.6399 15.28 12.2199C15.28 12.2999 15.28 12.3899 15.3 12.4699H16.46C16.44 12.3899 16.44 12.3099 16.44 12.2199C16.44 11.1699 17.16 10.4099 18.21 10.4099C18.84 10.4099 19.35 10.6799 19.74 11.2199L20.54 10.5599C20.01 9.79989 19.19 9.36989 18.22 9.36989Z" fill="#1E70B9"/>
<path d="M13.22 12.75L12.96 12.47H13.22V12.75Z" fill="#1E70B9"/>
<path d="M15.51 25.25C15.94 25.25 16.28 25.59 16.28 26.02C16.28 26.45 15.95 26.79 15.51 26.79C15.07 26.79 14.73 26.46 14.73 26.02C14.73 25.58 15.07 25.25 15.51 25.25Z" fill="#1E70B9"/>
<path d="M17.7 25.0001C18.06 25.4901 18.45 25.8001 19.05 25.8001C19.54 25.8001 19.83 25.5701 19.83 25.1901C19.83 24.8601 19.66 24.7501 19.13 24.5101L18.54 24.2401C17.7 23.8601 17.21 23.3901 17.21 22.6601C17.21 21.7201 17.99 21.1001 19.03 21.1001C19.87 21.1001 20.5 21.5101 20.85 22.1401L20.08 22.7301C19.8 22.3101 19.45 22.1001 19.03 22.1001C18.64 22.1001 18.35 22.2901 18.35 22.6301C18.35 22.9201 18.52 23.0501 18.99 23.2601L19.61 23.5401C20.53 23.9501 20.97 24.4101 20.97 25.1501C20.97 26.1601 20.15 26.8001 19.05 26.8001C18.12 26.8001 17.35 26.3301 16.93 25.5801L17.7 25.0001Z" fill="#1E70B9"/>
<path d="M26.59 21.2002L24.14 26.8002H23.76L21.3 21.2002H22.57L23.95 24.5302L25.32 21.2002H26.59Z" fill="#1E70B9"/>
<path d="M29.8 21.1001C30.77 21.1001 31.58 21.5301 32.12 22.2901L31.32 22.9501C30.93 22.4101 30.42 22.1401 29.79 22.1401C28.74 22.1401 28.02 22.9001 28.02 23.9501C28.02 25.0001 28.76 25.7901 29.85 25.7901C30.48 25.7901 30.99 25.5301 31.3 25.1101V24.6601H29.78V23.6901H32.42V25.3101C32.17 25.7501 31.81 26.1201 31.35 26.3901C30.89 26.6701 30.37 26.8001 29.8 26.8001C28.18 26.8301 26.83 25.5301 26.86 23.9501C26.83 22.3701 28.18 21.0701 29.8 21.1001Z" fill="#1E70B9"/>
</svg>
