<svg xmlns="http://www.w3.org/2000/svg" xmlns:xlink="http://www.w3.org/1999/xlink" width="36" height="36" viewBox="0 0 36 36">
  <defs>
    <clipPath id="clip-PNG_To_PDF_Light_Mode_">
      <rect width="36" height="36"/>
    </clipPath>
  </defs>
  <g id="PNG_To_PDF_Light_Mode_" data-name="PNG To PDF (Light Mode)" clip-path="url(#clip-PNG_To_PDF_Light_Mode_)">
    <g id="Group_14" data-name="Group 14" transform="translate(-36 -34)">
      <g id="Group_13" data-name="Group 13">
        <g id="Group_9" data-name="Group 9">
          <g id="Group_3" data-name="Group 3">
            <g id="Group_2" data-name="Group 2">
              <rect id="Rectangle_2" data-name="Rectangle 2" width="23.333" height="23.333" rx="2.5" transform="translate(36.5 34.5)" fill="#fff"/>
              <path id="Path_1" data-name="Path 1" d="M57.334,58.333H39a3,3,0,0,1-3-3V37a3,3,0,0,1,3-3H57.334a3,3,0,0,1,3,3V55.333A3,3,0,0,1,57.334,58.333ZM39,35a2,2,0,0,0-2,2V55.333a2,2,0,0,0,2,2H57.334a2,2,0,0,0,2-2V37a2,2,0,0,0-2-2Z" fill="#1e70b9"/>
            </g>
          </g>
          <g id="Group_8" data-name="Group 8">
            <g id="Group_5" data-name="Group 5">
              <g id="Group_4" data-name="Group 4">
                <path id="Path_2" data-name="Path 2" d="M53.167,53.667h-10a2.5,2.5,0,0,1-2.5-2.5v-10a2.5,2.5,0,0,1,2.5-2.5h10a2.5,2.5,0,0,1,2.5,2.5v10A2.5,2.5,0,0,1,53.167,53.667Zm-10-14a1.5,1.5,0,0,0-1.5,1.5v10a1.5,1.5,0,0,0,1.5,1.5h10a1.5,1.5,0,0,0,1.5-1.5v-10a1.5,1.5,0,0,0-1.5-1.5Z" fill="#1e70b9"/>
              </g>
            </g>
            <g id="Group_6" data-name="Group 6">
              <path id="Path_3" data-name="Path 3" d="M55.167,50.119a.49.49,0,0,1-.257-.072L51.7,48.122,49.31,49.976a.5.5,0,0,1-.629-.012l-3.935-3.316-3.223,3.284a.5.5,0,1,1-.713-.7l3.547-3.614a.5.5,0,0,1,.679-.033l3.98,3.354,2.336-1.815a.5.5,0,0,1,.564-.035l3.508,2.1a.5.5,0,0,1-.257.929Z" fill="#1e70b9"/>
            </g>
            <g id="Group_7" data-name="Group 7">
              <path id="Path_4" data-name="Path 4" d="M51.3,44.819a1.681,1.681,0,1,1,1.681-1.681A1.683,1.683,0,0,1,51.3,44.819Zm0-2.362a.681.681,0,1,0,.681.681A.682.682,0,0,0,51.3,42.457Z" fill="#1e70b9"/>
            </g>
          </g>
        </g>
        <g id="Group_12" data-name="Group 12">
          <g id="Group_10" data-name="Group 10">
            <rect id="Rectangle_3" data-name="Rectangle 3" width="23.333" height="23.333" rx="2.5" transform="translate(48.167 46.167)" fill="#fff"/>
            <path id="Path_5" data-name="Path 5" d="M69,70H50.667a3,3,0,0,1-3-3V48.667a3,3,0,0,1,3-3H69a3,3,0,0,1,3,3V67A3,3,0,0,1,69,70ZM50.667,46.667a2,2,0,0,0-2,2V67a2,2,0,0,0,2,2H69a2,2,0,0,0,2-2V48.667a2,2,0,0,0-2-2Z" fill="#1e70b9"/>
          </g>
          <g id="Group_11" data-name="Group 11">
            <path id="Path_6" data-name="Path 6" d="M54.468,64.568a1.378,1.378,0,0,1-.933-.4,1.59,1.59,0,0,1-.435-1.492,1.229,1.229,0,0,1,.528-.778A14.716,14.716,0,0,1,56.8,60.122a34.336,34.336,0,0,0,1.865-3.886,8.908,8.908,0,0,1-1-2.892,2.748,2.748,0,0,1,.094-1.244c.311-.995.995-1.026,1.275-.995.062,0,1.15.156,1.337,1.71A8.4,8.4,0,0,1,59.66,56.2a10.8,10.8,0,0,0,2.426,2.861,14.348,14.348,0,0,1,3.513.4,1.322,1.322,0,0,1,.715.435,1.155,1.155,0,0,1,.218,1.213h0a1.279,1.279,0,0,1-.249.435,1.2,1.2,0,0,1-1.523.342,16.47,16.47,0,0,1-2.985-1.958,13.082,13.082,0,0,0-4.291.9c-.529.964-1.182,2.021-1.928,3.2a1.308,1.308,0,0,1-.591.5h0C54.748,64.537,54.592,64.568,54.468,64.568Zm1.523-3.14a11.749,11.749,0,0,0-1.834,1.15c-.093.094-.187.187-.187.28a.738.738,0,0,0,.249.684.443.443,0,0,0,.373.094h0a.258.258,0,0,0,.156-.156C55.183,62.765,55.618,62.081,55.991,61.428Zm7.245-1.492A17.465,17.465,0,0,0,65.1,61.055a.3.3,0,0,0,.373-.093.871.871,0,0,0,.124-.218c.062-.155.062-.218-.031-.311a.6.6,0,0,0-.28-.155A11.722,11.722,0,0,0,63.236,59.936Zm-4.042-2.768c-.311.715-.684,1.524-1.181,2.457a14.14,14.14,0,0,1,2.736-.56A15.486,15.486,0,0,1,59.194,57.168Zm-.311-5.223c-.124,0-.218.124-.311.4a1.861,1.861,0,0,0-.062.839,7.768,7.768,0,0,0,.529,1.8,6.21,6.21,0,0,0,.4-2.114c-.094-.84-.529-.933-.56-.933Z" fill="#1e70b9"/>
          </g>
        </g>
      </g>
    </g>
  </g>
</svg>
