<svg width="37" height="37" viewBox="0 0 37 37" fill="none" xmlns="http://www.w3.org/2000/svg">
<path d="M21.83 1H3.5C2.11929 1 1 2.11929 1 3.5V21.83C1 23.2107 2.11929 24.33 3.5 24.33H21.83C23.2107 24.33 24.33 23.2107 24.33 21.83V3.5C24.33 2.11929 23.2107 1 21.83 1Z" fill="white" stroke="#1E70B9" stroke-miterlimit="10"/>
<path d="M33.5 12.6699H15.17C13.7893 12.6699 12.67 13.7892 12.67 15.1699V33.4999C12.67 34.8806 13.7893 35.9999 15.17 35.9999H33.5C34.8808 35.9999 36 34.8806 36 33.4999V15.1699C36 13.7892 34.8808 12.6699 33.5 12.6699Z" fill="white" stroke="#1E70B9" stroke-miterlimit="10"/>
<path d="M7.27996 9.96997H5.20996V15.47H6.33996V13.53H7.27996C8.42996 13.53 9.25996 12.79 9.25996 11.74C9.25996 10.69 8.42996 9.96997 7.27996 9.96997ZM7.27996 12.54H6.33996V10.96H7.27996C7.78996 10.96 8.10996 11.28 8.10996 11.74C8.10996 12.2 7.80996 12.54 7.27996 12.54Z" fill="#1E70B9"/>
<path d="M13.7199 9.96987V12.9699H14.8399V9.96987H13.7199ZM10.5299 9.86987H10.1599V15.4699H11.2899V12.1699L13.1099 14.1199V12.9699H13.4599L10.5299 9.86987Z" fill="#1E70B9"/>
<path d="M18.7199 9.86989C17.0999 9.83989 15.7499 11.1399 15.7799 12.7199C15.7799 12.7999 15.7799 12.8899 15.7999 12.9699H16.9599C16.9399 12.8899 16.9399 12.8099 16.9399 12.7199C16.9399 11.6699 17.6599 10.9099 18.7099 10.9099C19.3399 10.9099 19.8499 11.1799 20.2399 11.7199L21.0399 11.0599C20.5099 10.2999 19.6899 9.86989 18.7199 9.86989Z" fill="#1E70B9"/>
<path d="M13.72 13.25L13.46 12.97H13.72V13.25Z" fill="#1E70B9"/>
<path d="M17.96 21.73H19.08V27.23H17.96V21.73Z" fill="#1E70B9"/>
<path d="M22.9599 21.6299C23.9999 21.6299 24.8899 22.1399 25.3799 22.9999L24.5299 23.5999C24.1399 22.9799 23.6099 22.6799 22.9499 22.6799C21.9299 22.6799 21.1799 23.4499 21.1799 24.4999C21.1799 25.5499 21.9299 26.2999 22.9499 26.2999C23.6099 26.2999 24.1299 25.9899 24.5299 25.3799L25.3799 25.9799C24.8999 26.8399 23.9999 27.3499 22.9499 27.3499C21.3399 27.3799 19.9899 26.0799 20.0299 24.4999C20.0099 22.9199 21.3599 21.6199 22.9599 21.6499V21.6299Z" fill="#1E70B9"/>
<path d="M28.9 21.6299C30.48 21.5999 31.86 22.8999 31.83 24.4799C31.86 26.0499 30.48 27.3599 28.9 27.3299C27.32 27.3599 25.96 26.0599 25.98 24.4799C25.96 22.8999 27.31 21.5999 28.9 21.6299ZM28.91 22.6799C27.89 22.6799 27.14 23.4299 27.14 24.4899C27.14 25.5499 27.89 26.2999 28.91 26.2999C29.93 26.2999 30.68 25.5499 30.68 24.4899C30.68 23.4299 29.92 22.6799 28.91 22.6799Z" fill="#1E70B9"/>
</svg>
