<svg xmlns="http://www.w3.org/2000/svg" width="28" height="28" viewBox="0 0 28 28">
  <g id="Group_1197" data-name="Group 1197" transform="translate(-1703.676 -22.675)">
    <g id="Group_1196" data-name="Group 1196" transform="translate(1703.676 22.675)">
      <circle id="Ellipse_40" data-name="Ellipse 40" cx="14" cy="14" r="14" transform="translate(0 0)" fill="#3a4de3"/>
      <path id="Path_1215" data-name="Path 1215" d="M131.209,119.981h-1.568v-1.837a6.484,6.484,0,0,0,3.967-4.371,1.423,1.423,0,0,0,1.328-1.5,1.47,1.47,0,0,0-1.057-1.471c-.35-3.4-2.906-6.043-6.009-6.043s-5.658,2.641-6.009,6.043a1.47,1.47,0,0,0-1.057,1.471,1.423,1.423,0,0,0,1.328,1.5,6.484,6.484,0,0,0,3.967,4.371v1.837h-1.568a5.877,5.877,0,0,0-5.851,5.578,14.086,14.086,0,0,0,18.379,0A5.877,5.877,0,0,0,131.209,119.981Z" transform="translate(-113.779 -100.969)" fill="#fff"/>
    </g>
    <path id="Path_1217" data-name="Path 1217" d="M131.42,332.317a4.439,4.439,0,0,1-7.1,0,5.879,5.879,0,0,0-5.639,5.575,14.081,14.081,0,0,0,18.379,0A5.879,5.879,0,0,0,131.42,332.317Z" transform="translate(1589.898 -290.629)" fill="#00a6ff"/>
  </g>
</svg>
