<svg xmlns="http://www.w3.org/2000/svg" width="14.002" height="14.002" viewBox="0 0 14.002 14.002">
  <path id="Shape_641" data-name="Shape 641" d="M1122.062,397.486a6.971,6.971,0,0,0-2.548-2.548,7.045,7.045,0,0,0-7.029,0,6.969,6.969,0,0,0-2.548,2.548,7.046,7.046,0,0,0,0,7.028,6.971,6.971,0,0,0,2.548,2.548,7.046,7.046,0,0,0,7.028,0,6.972,6.972,0,0,0,2.548-2.548,7.047,7.047,0,0,0,0-7.028Zm-2.762,5.164a.561.561,0,0,1,.173.41.571.571,0,0,1-.173.419l-.82.82a.571.571,0,0,1-.419.173.56.56,0,0,1-.41-.173l-1.65-1.65-1.65,1.65a.56.56,0,0,1-.41.173.571.571,0,0,1-.42-.173l-.82-.82a.571.571,0,0,1-.173-.419.561.561,0,0,1,.173-.41l1.65-1.65-1.65-1.65a.561.561,0,0,1-.173-.41.571.571,0,0,1,.173-.419l.82-.82a.571.571,0,0,1,.42-.173.561.561,0,0,1,.41.173l1.65,1.65,1.65-1.65a.56.56,0,0,1,.41-.173.571.571,0,0,1,.419.173l.82.82a.571.571,0,0,1,.173.419.56.56,0,0,1-.173.41l-1.65,1.65Z" transform="translate(-1108.999 -393.999)" fill="#ea5050"/>
</svg>
