<svg width="40" height="36" viewBox="0 0 40 36" fill="none" xmlns="http://www.w3.org/2000/svg">
<path d="M39.11 18.1103C39.11 15.9303 37.35 14.1703 35.17 14.1703C34.11 14.1703 33.15 14.5903 32.44 15.2703C29.34 12.9703 24.94 11.5303 20.04 11.5303C15.14 11.5303 10.69 12.9803 7.59 15.3103C6.88 14.6103 5.9 14.1703 4.82 14.1703C2.64 14.1703 0.880005 15.9303 0.880005 18.1103C0.880005 19.7203 1.84001 21.1003 3.22001 21.7103C3.12001 22.2303 3.06001 22.7703 3.06001 23.3103C3.06001 29.8203 10.66 35.0903 20.03 35.0903C29.4 35.0903 37 29.8203 37 23.3103C37 22.7503 36.94 22.2103 36.84 21.6703C38.17 21.0403 39.1 19.6803 39.1 18.1103H39.11Z" stroke="#1E70B9" stroke-miterlimit="10" stroke-linecap="round"/>
<path d="M26.61 23.9503C28.2393 23.9503 29.56 22.6295 29.56 21.0003C29.56 19.3711 28.2393 18.0503 26.61 18.0503C24.9808 18.0503 23.66 19.3711 23.66 21.0003C23.66 22.6295 24.9808 23.9503 26.61 23.9503Z" stroke="#1E70B9" stroke-miterlimit="10" stroke-linecap="round"/>
<path d="M13.19 23.9503C14.8192 23.9503 16.14 22.6295 16.14 21.0003C16.14 19.3711 14.8192 18.0503 13.19 18.0503C11.5608 18.0503 10.24 19.3711 10.24 21.0003C10.24 22.6295 11.5608 23.9503 13.19 23.9503Z" stroke="#1E70B9" stroke-miterlimit="10" stroke-linecap="round"/>
<path d="M12.84 28.1899C12.84 28.1899 19.27 33.4299 26.93 28.1899" stroke="#1E70B9" stroke-miterlimit="10" stroke-linecap="round"/>
<path d="M20.05 11.5303L22.35 1.53027L29.3 2.91027" stroke="#1E70B9" stroke-miterlimit="10" stroke-linecap="round"/>
<path d="M31.9299 6.13016C33.3714 6.13016 34.5399 4.96162 34.5399 3.52016C34.5399 2.07869 33.3714 0.910156 31.9299 0.910156C30.4885 0.910156 29.3199 2.07869 29.3199 3.52016C29.3199 4.96162 30.4885 6.13016 31.9299 6.13016Z" stroke="#1E70B9" stroke-miterlimit="10" stroke-linecap="round"/>
</svg>
