<svg xmlns="http://www.w3.org/2000/svg" width="16.031" height="19" viewBox="0 0 16.031 19">
  <g id="flip" transform="translate(-40)">
    <g id="Group_3276" data-name="Group 3276" transform="translate(47.459)">
      <g id="Group_3275" data-name="Group 3275">
        <path id="Path_1653" data-name="Path 1653" d="M241.557,0A.557.557,0,0,0,241,.557v2.6a.557.557,0,0,0,1.113,0V.557A.557.557,0,0,0,241.557,0Z" transform="translate(-241)" fill="#fff"/>
      </g>
    </g>
    <g id="Group_3278" data-name="Group 3278" transform="translate(47.459 5.084)">
      <g id="Group_3277" data-name="Group 3277">
        <path id="Path_1654" data-name="Path 1654" d="M241.557,137a.557.557,0,0,0-.557.557v2.6a.557.557,0,0,0,1.113,0v-2.6A.557.557,0,0,0,241.557,137Z" transform="translate(-241 -137)" fill="#fff"/>
      </g>
    </g>
    <g id="Group_3280" data-name="Group 3280" transform="translate(47.459 10.205)">
      <g id="Group_3279" data-name="Group 3279">
        <path id="Path_1655" data-name="Path 1655" d="M241.557,275a.557.557,0,0,0-.557.557v2.6a.557.557,0,0,0,1.113,0v-2.6A.557.557,0,0,0,241.557,275Z" transform="translate(-241 -275)" fill="#fff"/>
      </g>
    </g>
    <g id="Group_3282" data-name="Group 3282" transform="translate(47.459 15.289)">
      <g id="Group_3281" data-name="Group 3281">
        <path id="Path_1656" data-name="Path 1656" d="M241.557,412a.557.557,0,0,0-.557.557v2.6a.557.557,0,0,0,1.113,0v-2.6A.557.557,0,0,0,241.557,412Z" transform="translate(-241 -412)" fill="#fff"/>
      </g>
    </g>
    <g id="Group_3284" data-name="Group 3284" transform="translate(40 2.449)">
      <g id="Group_3283" data-name="Group 3283">
        <path id="Path_1657" data-name="Path 1657" d="M45.173,67.391,40.72,66.024a.557.557,0,0,0-.72.532V79.545a.557.557,0,0,0,.72.532l4.453-1.367a.557.557,0,0,0,.393-.532V67.923A.557.557,0,0,0,45.173,67.391Zm-.72,10.375-3.34,1.025V67.309l3.34,1.025Z" transform="translate(-40 -66)" fill="#fff"/>
      </g>
    </g>
    <g id="Group_3286" data-name="Group 3286" transform="translate(50.465 2.449)">
      <g id="Group_3285" data-name="Group 3285">
        <path id="Path_1658" data-name="Path 1658" d="M327.341,66.109a.557.557,0,0,0-.494-.084l-4.453,1.367a.557.557,0,0,0-.393.532V78.177a.557.557,0,0,0,.393.532l4.453,1.367a.557.557,0,0,0,.72-.532V66.556A.557.557,0,0,0,327.341,66.109Zm-.887,12.683-3.34-1.025V68.335l3.34-1.025Z" transform="translate(-322 -66)" fill="#fff"/>
      </g>
    </g>
  </g>
</svg>
