<svg xmlns="http://www.w3.org/2000/svg" width="18.215" height="19" viewBox="0 0 18.215 19">
  <g id="refresh_1_" data-name="refresh (1)" transform="translate(-9.461)">
    <g id="Group_3287" data-name="Group 3287" transform="translate(9.461)">
      <path id="Path_1659" data-name="Path 1659" d="M27.549,8.374a.708.708,0,0,0-1.4.223l0,.013a7.792,7.792,0,1,1-1.935-3.957L21.083,5.7a.708.708,0,0,0-.448.895h0a.708.708,0,0,0,.895.448h0l4.246-1.415a.708.708,0,0,0,.484-.672V.708a.708.708,0,1,0-1.415,0V3.293a9.108,9.108,0,1,0,2.7,5.081Z" transform="translate(-9.461)" fill="#fff"/>
    </g>
  </g>
</svg>
