<svg xmlns="http://www.w3.org/2000/svg" width="19.333" height="19.333" viewBox="0 0 19.333 19.333">
  <g id="Group_3288" data-name="Group 3288" transform="translate(2 2)">
    <path id="Path_1660" data-name="Path 1660" d="M254.49,68.826a.491.491,0,0,0,.35-.145l4.992-4.992V67.5a.5.5,0,1,0,.99,0v-5h0a.5.5,0,0,0-.348-.473l-.047-.012a.5.5,0,0,0-.1-.01h-5a.5.5,0,1,0,0,.99h3.808l-4.992,4.992a.495.495,0,0,0,.35.845Z" transform="translate(-245.99 -61.499)" fill="#fff"/>
    <path id="Path_1661" data-name="Path 1661" d="M62.14,260.7a.5.5,0,0,0,.247.133h0l.04.006h.009l.05,0h5a.5.5,0,1,0,0-.99H63.685l4.991-4.991a.5.5,0,0,0,0-.7h0a.5.5,0,0,0-.7,0l-4.991,4.991v-3.808a.5.5,0,1,0-.99,0v5s0,0,0,0A.492.492,0,0,0,62.14,260.7Z" transform="translate(-61.494 -246.01)" fill="#fff"/>
    <path id="Path_1662" data-name="Path 1662" d="M16-2H-.671A1.33,1.33,0,0,0-2-.671V16A1.33,1.33,0,0,0-.671,17.333H16A1.33,1.33,0,0,0,17.333,16V-.671A1.33,1.33,0,0,0,16-2ZM-1.01-.671A.339.339,0,0,1-.671-1.01H16a.339.339,0,0,1,.339.339V16a.339.339,0,0,1-.339.339H-.671A.339.339,0,0,1-1.01,16Z" fill="#fff"/>
  </g>
</svg>
