<svg xmlns="http://www.w3.org/2000/svg" width="36" height="45.687" viewBox="0 0 36 45.687">
  <g id="image_compress_50_kb" data-name="image compress 50 kb" transform="translate(-989 -547.946)">
    <path id="Path_21" data-name="Path 21" d="M2.987-3.971A2.035,2.035,0,0,1,4-3.723a1.735,1.735,0,0,1,.688.692A2.1,2.1,0,0,1,4.929-2,2.022,2.022,0,0,1,4.637-.914a1.928,1.928,0,0,1-.827.727A2.859,2.859,0,0,1,2.56.07,3.719,3.719,0,0,1,1.4-.118a2.628,2.628,0,0,1-.932-.5L.9-1.585a2.918,2.918,0,0,0,1.681.592,1.177,1.177,0,0,0,.805-.244.917.917,0,0,0,.274-.723.924.924,0,0,0-.283-.714A1.092,1.092,0,0,0,2.6-2.935,1.7,1.7,0,0,0,2-2.821a1.915,1.915,0,0,0-.544.313H.679V-6.139H4.633V-5.1H2v1.367A1.975,1.975,0,0,1,2.987-3.971ZM7.837.078a1.974,1.974,0,0,1-1.7-.81,3.953,3.953,0,0,1-.588-2.342,3.875,3.875,0,0,1,.592-2.321,1.98,1.98,0,0,1,1.7-.805,1.98,1.98,0,0,1,1.7.805,3.875,3.875,0,0,1,.592,2.321A3.953,3.953,0,0,1,9.54-.731,1.974,1.974,0,0,1,7.837.078Zm0-1.036a.768.768,0,0,0,.736-.505A4.138,4.138,0,0,0,8.8-3.074a4.039,4.039,0,0,0-.231-1.594.767.767,0,0,0-.736-.5.767.767,0,0,0-.736.5,4.039,4.039,0,0,0-.231,1.594A4.138,4.138,0,0,0,7.1-1.463.768.768,0,0,0,7.837-.958ZM15.082,0,12.418-2.83V0H11.059V-6.139h1.358v2.7L15-6.139h1.6L13.741-3.2,16.711,0Zm5.826-3.178a1.538,1.538,0,0,1,.823.544,1.54,1.54,0,0,1,.292.954,1.485,1.485,0,0,1-.57,1.228A2.464,2.464,0,0,1,19.881,0H16.963V-6.139h2.83a2.453,2.453,0,0,1,1.52.427,1.386,1.386,0,0,1,.562,1.167,1.413,1.413,0,0,1-.257.84A1.459,1.459,0,0,1,20.908-3.178ZM18.287-3.64h1.28a1.33,1.33,0,0,0,.771-.179.626.626,0,0,0,.248-.544.645.645,0,0,0-.248-.562,1.33,1.33,0,0,0-.771-.179h-1.28Zm1.437,2.6a1.321,1.321,0,0,0,.784-.183.692.692,0,0,0,.244-.592.717.717,0,0,0-.244-.6,1.274,1.274,0,0,0-.784-.192H18.287v1.567Z" transform="translate(994.7 593.555)" fill="#1e70b9"/>
    <rect id="Rectangle_14" data-name="Rectangle 14" width="29.697" height="29.697" transform="translate(992.151 551.097)" fill="#fff"/>
    <rect id="Rectangle_15" data-name="Rectangle 15" width="29.697" height="29.697" transform="translate(992.151 551.097)" fill="none" stroke="#1e70b9" stroke-miterlimit="10" stroke-width="1"/>
    <path id="Path_12" data-name="Path 12" d="M18.8,14.749H15.5a1,1,0,0,1-1-1v-3.3a1,1,0,0,1,1-1h3.3a1,1,0,0,1,1,1v3.3a1,1,0,0,1-1,1" transform="translate(975 539)" fill="#fff"/>
    <rect id="Rectangle_16" data-name="Rectangle 16" width="5.303" height="5.303" rx="1" transform="translate(989.5 548.446)" fill="none" stroke="#1e70b9" stroke-miterlimit="10" stroke-width="1"/>
    <path id="Path_13" data-name="Path 13" d="M33.652,14.749h-3.3a1,1,0,0,1-1-1v-3.3a1,1,0,0,1,1-1h3.3a1,1,0,0,1,1,1v3.3a1,1,0,0,1-1,1" transform="translate(975 539)" fill="#fff"/>
    <rect id="Rectangle_17" data-name="Rectangle 17" width="5.303" height="5.303" rx="1" transform="translate(1004.349 548.446)" fill="none" stroke="#1e70b9" stroke-miterlimit="10" stroke-width="1"/>
    <path id="Path_14" data-name="Path 14" d="M48.5,14.749H45.2a1,1,0,0,1-1-1v-3.3a1,1,0,0,1,1-1h3.3a1,1,0,0,1,1,1v3.3a1,1,0,0,1-1,1" transform="translate(975 539)" fill="#fff"/>
    <rect id="Rectangle_18" data-name="Rectangle 18" width="5.303" height="5.303" rx="1" transform="translate(1019.197 548.446)" fill="none" stroke="#1e70b9" stroke-miterlimit="10" stroke-width="1"/>
    <path id="Path_15" data-name="Path 15" d="M18.8,29.6H15.5a1,1,0,0,1-1-1v-3.3a1,1,0,0,1,1-1h3.3a1,1,0,0,1,1,1v3.3a1,1,0,0,1-1,1" transform="translate(975 539)" fill="#fff"/>
    <rect id="Rectangle_19" data-name="Rectangle 19" width="5.303" height="5.303" rx="1" transform="translate(989.5 563.294)" fill="none" stroke="#1e70b9" stroke-miterlimit="10" stroke-width="1"/>
    <path id="Path_16" data-name="Path 16" d="M48.5,29.6H45.2a1,1,0,0,1-1-1v-3.3a1,1,0,0,1,1-1h3.3a1,1,0,0,1,1,1v3.3a1,1,0,0,1-1,1" transform="translate(975 539)" fill="#fff"/>
    <rect id="Rectangle_20" data-name="Rectangle 20" width="5.303" height="5.303" rx="1" transform="translate(1019.197 563.294)" fill="none" stroke="#1e70b9" stroke-miterlimit="10" stroke-width="1"/>
    <path id="Path_17" data-name="Path 17" d="M18.8,44.446H15.5a1,1,0,0,1-1-1v-3.3a1,1,0,0,1,1-1h3.3a1,1,0,0,1,1,1v3.3a1,1,0,0,1-1,1" transform="translate(975 539)" fill="#fff"/>
    <rect id="Rectangle_21" data-name="Rectangle 21" width="5.303" height="5.303" rx="1" transform="translate(989.5 578.143)" fill="none" stroke="#1e70b9" stroke-miterlimit="10" stroke-width="1"/>
    <path id="Path_18" data-name="Path 18" d="M33.652,44.446h-3.3a1,1,0,0,1-1-1v-3.3a1,1,0,0,1,1-1h3.3a1,1,0,0,1,1,1v3.3a1,1,0,0,1-1,1" transform="translate(975 539)" fill="#fff"/>
    <rect id="Rectangle_22" data-name="Rectangle 22" width="5.303" height="5.303" rx="1" transform="translate(1004.349 578.143)" fill="none" stroke="#1e70b9" stroke-miterlimit="10" stroke-width="1"/>
    <path id="Path_19" data-name="Path 19" d="M48.5,44.446H45.2a1,1,0,0,1-1-1v-3.3a1,1,0,0,1,1-1h3.3a1,1,0,0,1,1,1v3.3a1,1,0,0,1-1,1" transform="translate(975 539)" fill="#fff"/>
    <rect id="Rectangle_23" data-name="Rectangle 23" width="5.303" height="5.303" rx="1" transform="translate(1019.197 578.143)" fill="none" stroke="#1e70b9" stroke-miterlimit="10" stroke-width="1"/>
    <line id="Line_3" data-name="Line 3" y1="16.274" x2="16.274" transform="translate(998.863 557.809)" fill="#fff"/>
    <line id="Line_4" data-name="Line 4" y1="16.274" x2="16.274" transform="translate(998.863 557.809)" fill="none" stroke="#1e70b9" stroke-linecap="round" stroke-miterlimit="10" stroke-width="1"/>
    <path id="Path_20" data-name="Path 20" d="M31.941,18.809h8.2V27" transform="translate(975 539)" fill="none" stroke="#1e70b9" stroke-linecap="round" stroke-linejoin="round" stroke-width="1"/>
  </g>
</svg>
