<svg xmlns="http://www.w3.org/2000/svg" width="36" height="46.515" viewBox="0 0 36 46.515">
  <g id="image_compress_100_kb" transform="translate(-908.4 -550.6)">
    <g id="Rectangle_15">
      <path id="Path_1653" data-name="Path 1653" d="M940.8,570.7v10.5h1V570.7Zm0-14.8v10.5h1V555.9Zm-27.1-2.7v1h10.5v-1Zm-2.6,2.7v10.5h1V555.9Zm2.6,27v1h10.5v-1Zm-2.6-12.2v10.5h1V570.7Zm17.5-17.5v1h10.5v-1Zm0,29.7v1h10.5v-1Z" fill="#1e70b9"/>
    </g>
    <g id="Rectangle_16">
      <path id="Path_1654" data-name="Path 1654" d="M913.2,550.6h-3.3a1.538,1.538,0,0,0-1.5,1.5v3.3a1.538,1.538,0,0,0,1.5,1.5h3.3a1.538,1.538,0,0,0,1.5-1.5v-3.3A1.417,1.417,0,0,0,913.2,550.6Zm.5,4.8a.472.472,0,0,1-.5.5h-3.3a.472.472,0,0,1-.5-.5v-3.3a.472.472,0,0,1,.5-.5h3.3a.472.472,0,0,1,.5.5Z" fill="#1e70b9"/>
    </g>
    <g id="Rectangle_17">
      <path id="Path_1655" data-name="Path 1655" d="M928.1,550.6h-3.3a1.538,1.538,0,0,0-1.5,1.5v3.3a1.538,1.538,0,0,0,1.5,1.5h3.3a1.538,1.538,0,0,0,1.5-1.5v-3.3A1.473,1.473,0,0,0,928.1,550.6Zm.5,4.8a.472.472,0,0,1-.5.5h-3.3a.472.472,0,0,1-.5-.5v-3.3a.472.472,0,0,1,.5-.5h3.3a.472.472,0,0,1,.5.5Z" fill="#1e70b9"/>
    </g>
    <g id="Rectangle_18">
      <path id="Path_1656" data-name="Path 1656" d="M942.9,550.6h-3.3a1.538,1.538,0,0,0-1.5,1.5v3.3a1.538,1.538,0,0,0,1.5,1.5h3.3a1.538,1.538,0,0,0,1.5-1.5v-3.3A1.417,1.417,0,0,0,942.9,550.6Zm.5,4.8a.472.472,0,0,1-.5.5h-3.3a.472.472,0,0,1-.5-.5v-3.3a.472.472,0,0,1,.5-.5h3.3a.472.472,0,0,1,.5.5Z" fill="#1e70b9"/>
    </g>
    <g id="Rectangle_19">
      <path id="Path_1657" data-name="Path 1657" d="M913.2,565.4h-3.3a1.538,1.538,0,0,0-1.5,1.5v3.3a1.538,1.538,0,0,0,1.5,1.5h3.3a1.538,1.538,0,0,0,1.5-1.5v-3.3A1.473,1.473,0,0,0,913.2,565.4Zm.5,4.8a.472.472,0,0,1-.5.5h-3.3a.472.472,0,0,1-.5-.5v-3.3a.472.472,0,0,1,.5-.5h3.3a.472.472,0,0,1,.5.5Z" fill="#1e70b9"/>
    </g>
    <g id="Rectangle_20">
      <path id="Path_1658" data-name="Path 1658" d="M942.9,565.4h-3.3a1.538,1.538,0,0,0-1.5,1.5v3.3a1.538,1.538,0,0,0,1.5,1.5h3.3a1.538,1.538,0,0,0,1.5-1.5v-3.3A1.473,1.473,0,0,0,942.9,565.4Zm.5,4.8a.472.472,0,0,1-.5.5h-3.3a.472.472,0,0,1-.5-.5v-3.3a.472.472,0,0,1,.5-.5h3.3a.472.472,0,0,1,.5.5Z" fill="#1e70b9"/>
    </g>
    <g id="Rectangle_21">
      <path id="Path_1659" data-name="Path 1659" d="M913.2,580.3h-3.3a1.538,1.538,0,0,0-1.5,1.5v3.3a1.538,1.538,0,0,0,1.5,1.5h3.3a1.538,1.538,0,0,0,1.5-1.5v-3.3A1.417,1.417,0,0,0,913.2,580.3Zm.5,4.8a.472.472,0,0,1-.5.5h-3.3a.472.472,0,0,1-.5-.5v-3.3a.472.472,0,0,1,.5-.5h3.3a.472.472,0,0,1,.5.5Z" fill="#1e70b9"/>
    </g>
    <g id="Rectangle_22">
      <path id="Path_1660" data-name="Path 1660" d="M928.1,580.3h-3.3a1.538,1.538,0,0,0-1.5,1.5v3.3a1.538,1.538,0,0,0,1.5,1.5h3.3a1.538,1.538,0,0,0,1.5-1.5v-3.3A1.473,1.473,0,0,0,928.1,580.3Zm.5,4.8a.472.472,0,0,1-.5.5h-3.3a.472.472,0,0,1-.5-.5v-3.3a.472.472,0,0,1,.5-.5h3.3a.472.472,0,0,1,.5.5Z" fill="#1e70b9"/>
    </g>
    <g id="Rectangle_23">
      <path id="Path_1661" data-name="Path 1661" d="M942.9,580.3h-3.3a1.538,1.538,0,0,0-1.5,1.5v3.3a1.538,1.538,0,0,0,1.5,1.5h3.3a1.538,1.538,0,0,0,1.5-1.5v-3.3A1.417,1.417,0,0,0,942.9,580.3Zm.5,4.8a.472.472,0,0,1-.5.5h-3.3a.472.472,0,0,1-.5-.5v-3.3a.472.472,0,0,1,.5-.5h3.3a.472.472,0,0,1,.5.5Z" fill="#1e70b9"/>
    </g>
    <g id="Line_4">
      <path id="Path_1662" data-name="Path 1662" d="M934.9,560.8l-.9.8L918.6,577c-.1.1-.2.1-.4.1a.6.6,0,0,1-.4-.1.483.483,0,0,1,0-.7l15.4-15.4.9-.8c.1-.1.2-.2.3-.2h.2c.1,0,.1.1.2.1l.1.1h0C935.1,560.4,935.1,560.6,934.9,560.8Z" fill="#1e70b9"/>
    </g>
    <g id="Path_20">
      <path id="Path_1663" data-name="Path 1663" d="M935.1,560.4v8.2a.5.5,0,0,1-1,0v-7.7h-7.7a.5.5,0,0,1,0-1h8.4c.1,0,.1.1.2.1l.1.1h0Z" fill="#1e70b9"/>
    </g>
    <g id="Path_6048">
      <path id="Path_1664" data-name="Path 1664" d="M941,594a1.8,1.8,0,0,0-.9-.6,1.555,1.555,0,0,0,.8-.6,1.689,1.689,0,0,0,.3-1,1.613,1.613,0,0,0-.6-1.3,3.453,3.453,0,0,0-1.8-.5h-3.2v7H939a2.9,2.9,0,0,0,1.8-.5,1.537,1.537,0,0,0,.6-1.4A1.5,1.5,0,0,0,941,594Zm-3.9-2.8h1.5a1.486,1.486,0,0,1,.9.2.908.908,0,0,1,.3.7.713.713,0,0,1-.3.6,1.486,1.486,0,0,1-.9.2h-1.5Zm2.5,4.4a1.486,1.486,0,0,1-.9.2h-1.6V594h1.6a1.486,1.486,0,0,1,.9.2.908.908,0,0,1,.3.7C940,595.2,939.8,595.4,939.6,595.6Zm-7.7-2.3,3.3-3.4h-1.8l-3,3.1v-3h-1.6v7h1.6v-3.2l3.1,3.2h1.9Zm-4.9-2.5a2.248,2.248,0,0,0-2-.9,2.518,2.518,0,0,0-2,.9,4.953,4.953,0,0,0-.7,2.7,4.228,4.228,0,0,0,.7,2.7,2.248,2.248,0,0,0,2,.9,2.518,2.518,0,0,0,2-.9,4.953,4.953,0,0,0,.7-2.7A4.228,4.228,0,0,0,927,590.8Zm-1.1,4.5a.838.838,0,0,1-.8.6.76.76,0,0,1-.8-.6,5.822,5.822,0,0,1-.3-1.9,5.662,5.662,0,0,1,.3-1.8.838.838,0,0,1,.8-.6.76.76,0,0,1,.8.6,5.662,5.662,0,0,1,.3,1.8A4.011,4.011,0,0,1,925.9,595.3Zm-4.9-4.5a2.248,2.248,0,0,0-2-.9,2.518,2.518,0,0,0-2,.9,4.953,4.953,0,0,0-.7,2.7,4.228,4.228,0,0,0,.7,2.7,2.248,2.248,0,0,0,2,.9,2.518,2.518,0,0,0,2-.9,4.953,4.953,0,0,0,.7-2.7A4.228,4.228,0,0,0,921,590.8Zm-1.1,4.5a.838.838,0,0,1-.8.6.76.76,0,0,1-.8-.6,5.822,5.822,0,0,1-.3-1.9,5.662,5.662,0,0,1,.3-1.8.838.838,0,0,1,.8-.6.76.76,0,0,1,.8.6,5.662,5.662,0,0,1,.3,1.8A4.011,4.011,0,0,1,919.9,595.3Zm-5.7.5V590h-1.1l-2.2,1.3.6,1.1,1.2-.7v4.1h-1.5V597h4.6v-1.2h-1.6Z" fill="#1e70b9"/>
    </g>
  </g>
</svg>
