<svg xmlns="http://www.w3.org/2000/svg" width="36.673" height="34.457" viewBox="0 0 36.673 34.457">
  <g id="salary_calculator" transform="translate(-988.979 -604.189)">
    <rect id="Rectangle_29" data-name="Rectangle 29" width="26.805" height="30.156" rx="3.351" transform="translate(989.479 604.689)" fill="#fff" stroke="#1e70b9" stroke-miterlimit="10" stroke-width="1"/>
    <rect id="Rectangle_30" data-name="Rectangle 30" width="13.402" height="5.026" rx="1.675" transform="translate(996.18 611.39)" fill="#fff" stroke="#1e70b9" stroke-miterlimit="10" stroke-width="1"/>
    <line id="Line_69" data-name="Line 69" x2="3.362" transform="translate(994.466 623.117)" fill="none" stroke="#1e70b9" stroke-miterlimit="10" stroke-width="1"/>
    <line id="Line_70" data-name="Line 70" x2="3.362" transform="translate(1001.2 623.134)" fill="none" stroke="#1e70b9" stroke-miterlimit="10" stroke-width="1"/>
    <line id="Line_71" data-name="Line 71" x2="3.362" transform="translate(1001.2 623.134)" fill="none" stroke="#1e70b9" stroke-miterlimit="10" stroke-width="1"/>
    <line id="Line_72" data-name="Line 72" x2="3.362" transform="translate(1007.902 623.042)" fill="none" stroke="#1e70b9" stroke-miterlimit="10" stroke-width="1"/>
    <line id="Line_73" data-name="Line 73" x2="3.362" transform="translate(994.466 628.143)" fill="none" stroke="#1e70b9" stroke-miterlimit="10" stroke-width="1"/>
    <line id="Line_74" data-name="Line 74" x2="3.362" transform="translate(1001.2 628.16)" fill="none" stroke="#1e70b9" stroke-miterlimit="10" stroke-width="1"/>
    <line id="Line_75" data-name="Line 75" x2="3.362" transform="translate(1007.902 628.068)" fill="none" stroke="#1e70b9" stroke-miterlimit="10" stroke-width="1"/>
    <circle id="Ellipse_12" data-name="Ellipse 12" cx="10.125" cy="10.125" r="10.125" transform="translate(1004.902 617.896)" fill="#fff" stroke="#1e70b9" stroke-miterlimit="10" stroke-width="1"/>
    <path id="Path_17" data-name="Path 17" d="M231.889,439.392" transform="translate(783.138 184.452)" fill="#fff" stroke="#1e70b9" stroke-miterlimit="10" stroke-width="1"/>
    <path id="Path_18" data-name="Path 18" d="M231.889,444.266" transform="translate(783.138 184.452)" fill="#fff" stroke="#1e70b9" stroke-miterlimit="10" stroke-width="1"/>
    <path id="Path_19" data-name="Path 19" d="M226.493,439.392" transform="translate(783.138 184.452)" fill="#fff" stroke="#1e70b9" stroke-miterlimit="10" stroke-width="1"/>
    <path id="Path_20" data-name="Path 20" d="M237.285,439.392" transform="translate(783.138 184.452)" fill="#fff" stroke="#1e70b9" stroke-miterlimit="10" stroke-width="1"/>
    <path id="Path_50" data-name="Path 50" d="M234.45,441.306a1.8,1.8,0,0,0-1.623-.9h-1.8a1.8,1.8,0,1,0,0,3.606h1.8a1.8,1.8,0,1,1,0,3.607h-1.8a1.8,1.8,0,0,1-1.623-.9" transform="translate(783.138 184.452)" fill="none" stroke="#1e70b9" stroke-linecap="round" stroke-miterlimit="10" stroke-width="1"/>
    <path id="Path_51" data-name="Path 51" d="M231.925,438.6v1.8m0,7.213v1.8" transform="translate(783.138 184.452)" fill="none" stroke="#1e70b9" stroke-linecap="round" stroke-miterlimit="10" stroke-width="1"/>
  </g>
</svg>
