<svg width="42" height="38" viewBox="0 0 42 38" fill="none" xmlns="http://www.w3.org/2000/svg">
<path d="M20.89 15.7398L25.04 11.5898" stroke="#1E70B9" stroke-miterlimit="10" stroke-linecap="round"/>
<path d="M11.91 20.9297C9.04997 15.9697 10.74 9.6197 15.71 6.7597C20.68 3.8997 27.02 5.5897 29.88 10.5597C31.73 13.7697 31.73 17.7197 29.88 20.9297" stroke="#1E70B9" stroke-miterlimit="10" stroke-linecap="round"/>
<path d="M38.79 1H3C1.89543 1 1 1.89543 1 3V26.85C1 27.9546 1.89543 28.85 3 28.85H38.79C39.8946 28.85 40.79 27.9546 40.79 26.85V3C40.79 1.89543 39.8946 1 38.79 1Z" stroke="#1E70B9" stroke-miterlimit="10" stroke-linecap="round"/>
<path d="M20.89 28.8496V36.8096" stroke="#1E70B9" stroke-miterlimit="10" stroke-linecap="round"/>
<path d="M12.9399 36.8105H28.8499" stroke="#1E70B9" stroke-miterlimit="10" stroke-linecap="round"/>
<path d="M24.2 23.76L21.54 19.1C21.36 18.78 20.95 18.67 20.63 18.85C20.53 18.91 20.44 19 20.38 19.1L17.72 23.76C17.54 24.08 17.65 24.49 17.96 24.67C18.06 24.73 18.18 24.76 18.3 24.76H23.63C24 24.76 24.3 24.46 24.3 24.09C24.3 23.97 24.27 23.86 24.21 23.76" stroke="#1E70B9" stroke-miterlimit="10" stroke-linecap="round"/>
<path d="M20.96 20.7598V22.0898" stroke="#1E70B9" stroke-miterlimit="10" stroke-linecap="round"/>
</svg>
