<svg xmlns="http://www.w3.org/2000/svg" width="32.864" height="30.257" viewBox="0 0 32.864 30.257">
  <g id="Processing_-_gray_color" data-name="Processing - gray color" transform="translate(-429.502 -150.501)" style="isolation: isolate">
    <path id="Path_87" data-name="Path 87" d="M548.245,242h0a.794.794,0,0,0,.719-.793v-2.7a.793.793,0,0,0-.72-.793l-1.443-.139a8.052,8.052,0,0,0-.693-1.646l.914-1.1a.793.793,0,0,0-.046-1.068l-1.878-1.9a.792.792,0,0,0-1.075-.054l-1.107.916a8.216,8.216,0,0,0-1.643-.693l-.139-1.439a.783.783,0,0,0-.792-.712h-2.689a.789.789,0,0,0-.8.714l-.139,1.439a8.04,8.04,0,0,0-1.646.691l-1.1-.915a.793.793,0,0,0-1.071.05l-1.9,1.9a.793.793,0,0,0-.05,1.071l.917,1.107a8.215,8.215,0,0,0-.694,1.643l-1.444.139a.793.793,0,0,0-.72.793v2.7a.793.793,0,0,0,.72.793l1.442.139a8.055,8.055,0,0,0,.693,1.646l-.914,1.1a.794.794,0,0,0,.05,1.071l1.9,1.9a.793.793,0,0,0,1.071.05l1.107-.916a8.222,8.222,0,0,0,1.644.693l.139,1.439a.786.786,0,0,0,.783.712h2.711a.8.8,0,0,0,.787-.714l.139-1.439a8.032,8.032,0,0,0,1.646-.691l1.1.915a.793.793,0,0,0,1.071-.05l1.9-1.9a.793.793,0,0,0,.05-1.071l-.916-1.107a8.224,8.224,0,0,0,.694-1.644Zm-2.83-.77a6.618,6.618,0,0,1-.926,2.194.793.793,0,0,0,.055.94l.814.983-.877.877-.983-.814a.8.8,0,0,0-.948-.05,6.381,6.381,0,0,1-2.176.919.786.786,0,0,0-.631.7l-.123,1.273h-1.251l-.123-1.273a.786.786,0,0,0-.622-.7,6.61,6.61,0,0,1-2.2-.925.793.793,0,0,0-.939.057l-.983.814-.877-.877.814-.983a.79.79,0,0,0,.05-.948,6.4,6.4,0,0,1-.921-2.184.794.794,0,0,0-.7-.624l-1.279-.124v-1.251l1.279-.123a.792.792,0,0,0,.7-.622,6.6,6.6,0,0,1,.927-2.2.793.793,0,0,0-.056-.94l-.814-.983.877-.877.983.814a.8.8,0,0,0,.948.05,6.388,6.388,0,0,1,2.177-.919.786.786,0,0,0,.631-.7l.123-1.273h1.251l.123,1.273a.786.786,0,0,0,.622.7,6.614,6.614,0,0,1,2.2.926.793.793,0,0,0,.938-.057l.979-.811.859.87-.817.986a.8.8,0,0,0-.05.948,6.392,6.392,0,0,1,.92,2.184.794.794,0,0,0,.7.624l1.279.123v1.251l-1.255.123a.793.793,0,0,0-.7.626Z" transform="translate(-93.048 -74.229)" fill="#c6ccd6"/>
    <path id="Path_88" data-name="Path 88" d="M612.594,308.36h0a4.895,4.895,0,1,0,4.9,4.895A4.895,4.895,0,0,0,612.594,308.36Zm0,1.345a3.55,3.55,0,1,1-3.55,3.55A3.55,3.55,0,0,1,612.594,309.7Z" transform="translate(-166.646 -147.628)" fill="#c6ccd6"/>
    <path id="Path_89" data-name="Path 89" d="M530.623,399.665l-2.017-3.68v-.007a.875.875,0,0,0-1.234-.31l-3.5,2.232a.875.875,0,0,0,.942,1.475l1.813-1.157A13.417,13.417,0,0,1,522.391,405a12.662,12.662,0,0,1-8.047,3.156,11.946,11.946,0,0,1-5.472-1.413,13.733,13.733,0,0,1-4.681-4.014.875.875,0,0,0-1.414,1.032,15.5,15.5,0,0,0,5.285,4.534,13.7,13.7,0,0,0,6.281,1.612,14.433,14.433,0,0,0,9.186-3.577,15.215,15.215,0,0,0,4.709-7.369l.85,1.55a.875.875,0,1,0,1.535-.841Z" transform="translate(-68.365 -229.149)" fill="#c6ccd6"/>
    <path id="Path_90" data-name="Path 90" d="M436.629,161.295h0a.876.876,0,0,0-1.208-.266l-1.813,1.157a13.416,13.416,0,0,1,4.234-6.778,12.662,12.662,0,0,1,8.047-3.156,11.945,11.945,0,0,1,5.472,1.413,13.73,13.73,0,0,1,4.681,4.013.875.875,0,1,0,1.414-1.031,15.5,15.5,0,0,0-5.285-4.534,13.7,13.7,0,0,0-6.281-1.612,14.432,14.432,0,0,0-9.186,3.577A15.215,15.215,0,0,0,432,161.447l-.85-1.55a.875.875,0,0,0-1.535.841l2.017,3.68a.875.875,0,0,0,1.238.317l3.5-2.231a.876.876,0,0,0,.264-1.209Z" fill="#c6ccd6"/>
  </g>
</svg>
