<svg xmlns="http://www.w3.org/2000/svg" width="34" height="30" viewBox="0 0 34 30">
  <g id="Group_1741" data-name="Group 1741" transform="translate(-524 -486)">
    <path id="Path_45" data-name="Path 45" d="M55.074,218.271,29.938,218l-4.285,10.49L24,233.938l.725,1.658,1.243.744H50.24l3.867-10.49,2.382-6.429Z" transform="translate(500.88 278.847)" fill="#fcfcfc"/>
    <path id="Path_46" data-name="Path 46" d="M44.427,70.064a3.084,3.084,0,0,0-2.534-1.29h-1.5V65.312a3.088,3.088,0,0,0-3.1-3.054H27.164a1.324,1.324,0,0,1-.928-.377l-2.018-1.986a3.129,3.129,0,0,0-2.2-.9H14.1A3.088,3.088,0,0,0,11,62.054V85.946A3.088,3.088,0,0,0,14.1,89H36.828a3.113,3.113,0,0,0,2.928-2.038l5.063-14.116A2.986,2.986,0,0,0,44.427,70.064Zm-7.6,17.171H14.1a1.3,1.3,0,0,1-1.311-1.29v-.933L17.741,71.4a1.312,1.312,0,0,1,1.236-.86H41.888a1.323,1.323,0,0,1,1.07.547,1.269,1.269,0,0,1,.165,1.172L38.064,86.375A1.312,1.312,0,0,1,36.829,87.235ZM14.1,60.764H22.02a1.324,1.324,0,0,1,.928.377l2.018,1.986a3.132,3.132,0,0,0,2.188.9H37.286a1.3,1.3,0,0,1,1.311,1.29v3.462H37.078v-1.29a1.987,1.987,0,0,0-2-1.968H16.312a1.987,1.987,0,0,0-2,1.968V75.6l-1.517,4.171V62.054a1.3,1.3,0,0,1,1.31-1.29Zm2,6.719a.2.2,0,0,1,.2-.2H35.077a.2.2,0,0,1,.2.2v1.29H18.971a3.114,3.114,0,0,0-2.873,1.9Z" transform="translate(513 427)" fill="#c6ccd6"/>
  </g>
</svg>
