<svg xmlns="http://www.w3.org/2000/svg" width="30.5" height="30.501" viewBox="0 0 30.5 30.501">
  <path id="Union_31" data-name="Union 31" d="M1689,2850a14.952,14.952,0,1,1,.041,0Zm-13.466-15A13.465,13.465,0,1,0,1689,2821.535,13.48,13.48,0,0,0,1675.535,2835Zm11.089,4.747-4.745-4.744a.738.738,0,1,1,1.043-1.044l4.222,4.223,7.926-7.926a.74.74,0,0,1,1.044,0,.737.737,0,0,1,0,1.043l-8.448,8.448a.734.734,0,0,1-1.042,0Z" transform="translate(-1673.75 -2819.75)" fill="#c6ccd6" stroke="#c6ccd6" stroke-width="0.5"/>
</svg>
