<svg xmlns="http://www.w3.org/2000/svg" width="38.28" height="38" viewBox="0 0 38.28 38">
  <g id="Pinterest" transform="translate(-1362 -599)">
    <ellipse id="Ellipse_3" data-name="Ellipse 3" cx="19.14" cy="19" rx="19.14" ry="19" transform="translate(1362 599)" fill="#cb1f27"/>
    <g id="pinterest-seeklogo.com" transform="translate(1366.436 601.211)">
      <path id="Path_1" data-name="Path 1" d="M9.666,26.186a10.932,10.932,0,0,1,.22-2.878c.243-1.017,1.624-6.829,1.624-6.829a4.785,4.785,0,0,1-.4-1.983c0-1.857,1.084-3.244,2.435-3.244a1.683,1.683,0,0,1,1.7,1.881c0,1.146-.736,2.86-1.115,4.447A1.944,1.944,0,0,0,16.123,20c2.392,0,4-3.05,4-6.663,0-2.747-1.864-4.8-5.253-4.8a5.957,5.957,0,0,0-6.215,6,3.6,3.6,0,0,0,.832,2.458.6.6,0,0,1,.181.7c-.061.231-.2.786-.257,1.006a.436.436,0,0,1-.632.314C7.017,18.292,6.2,16.375,6.2,14.219c0-3.56,3.025-7.829,9.023-7.829,4.82,0,7.992,3.462,7.992,7.179,0,4.916-2.753,8.589-6.812,8.589A3.628,3.628,0,0,1,13.315,20.6s-.733,2.887-.888,3.445a10.459,10.459,0,0,1-1.271,2.685C10.179,27.754,9.81,26.832,9.666,26.186Z" transform="translate(0 0)" fill="#fff"/>
    </g>
  </g>
</svg>
