<svg xmlns="http://www.w3.org/2000/svg" width="38.28" height="38" viewBox="0 0 38.28 38">
  <g id="Reddit" transform="translate(-4.3 -3.3)">
    <ellipse id="Ellipse_1" data-name="Ellipse 1" cx="19.14" cy="19" rx="19.14" ry="19" transform="translate(4.3 3.3)" fill="#ff4500"/>
    <path id="Path_4" data-name="Path 4" d="M164.553,175.158a2.786,2.786,0,0,0-2.9-2.66,2.822,2.822,0,0,0-1.832.766,13.725,13.725,0,0,0-7.37-2.326l1.242-5.9,4.1.85a1.9,1.9,0,1,0,.252-1.156l-4.691-.926a.593.593,0,0,0-.709.446v.009l-1.413,6.56a13.83,13.83,0,0,0-7.465,2.326,2.816,2.816,0,0,0-3.949.122,2.749,2.749,0,0,0,.875,4.4,6.061,6.061,0,0,0,0,.832c0,4.234,5,7.678,11.157,7.678s11.157-3.44,11.157-7.678a6.066,6.066,0,0,0,0-.832A2.756,2.756,0,0,0,164.553,175.158Zm-19.14,1.894a1.917,1.917,0,1,1,1.917,1.894A1.909,1.909,0,0,1,145.413,177.052Zm11.119,5.2a8.4,8.4,0,0,1-9.458,0,.509.509,0,0,1,.071-.719.521.521,0,0,1,.657,0,7.394,7.394,0,0,0,7.983.038.543.543,0,0,1,.756.009.527.527,0,0,1-.01.747h0v-.075Zm-.343-3.238a1.348,1.348,0,1,1,.081.07h-.1Z" transform="translate(-128.348 -152.861)" fill="#fff"/>
  </g>
</svg>
