<svg width="58" height="71" viewBox="0 0 58 71" fill="none" xmlns="http://www.w3.org/2000/svg">
<path d="M15.1429 8.57153H8.57143C6.82858 8.57153 5.15711 9.26388 3.92473 10.4963C2.69234 11.7286 2 13.4001 2 15.143V54.5715C2 56.3144 2.69234 57.9859 3.92473 59.2182C5.15711 60.4506 6.82858 61.143 8.57143 61.143H14.2468M34.8571 8.57153H41.4286C43.1714 8.57153 44.8429 9.26388 46.0753 10.4963C47.3077 11.7286 48 13.4001 48 15.143V20.8183" stroke="#FFB917" stroke-width="3" stroke-linecap="round" stroke-linejoin="round"/>
<path d="M15.1426 8.57143C15.1426 6.82858 15.8349 5.15711 17.0673 3.92473C18.2997 2.69234 19.9712 2 21.714 2H28.2854C30.0283 2 31.6998 2.69234 32.9321 3.92473C34.1645 5.15711 34.8569 6.82858 34.8569 8.57143C34.8569 10.3143 34.1645 11.9857 32.9321 13.2181C31.6998 14.4505 30.0283 15.1429 28.2854 15.1429H21.714C19.9712 15.1429 18.2997 14.4505 17.0673 13.2181C15.8349 11.9857 15.1426 10.3143 15.1426 8.57143Z" stroke="#FFB917" stroke-width="3" stroke-linecap="round" stroke-linejoin="round"/>
<rect x="15.7471" y="22.3182" width="40.013" height="47.1818" rx="6.5" stroke="#FFB917" stroke-width="3"/>
<path d="M25 36.948H46.5065" stroke="#FFB917" stroke-width="3" stroke-linecap="round"/>
<path d="M25 45.9091H46.5065" stroke="#FFB917" stroke-width="3" stroke-linecap="round"/>
<path d="M25 54.8701H38.4416" stroke="#FFB917" stroke-width="3" stroke-linecap="round"/>
</svg>
