<svg width="37" height="37" viewBox="0 0 37 37" fill="none" xmlns="http://www.w3.org/2000/svg">
<path d="M21.83 1H3.5C2.11929 1 1 2.11929 1 3.5V21.83C1 23.2107 2.11929 24.33 3.5 24.33H21.83C23.2107 24.33 24.33 23.2107 24.33 21.83V3.5C24.33 2.11929 23.2107 1 21.83 1Z" fill="white" stroke="#1E70B9" stroke-miterlimit="10"/>
<path d="M33.5 12.6699H15.17C13.7893 12.6699 12.67 13.7892 12.67 15.1699V33.4999C12.67 34.8806 13.7893 35.9999 15.17 35.9999H33.5C34.8808 35.9999 36 34.8806 36 33.4999V15.1699C36 13.7892 34.8808 12.6699 33.5 12.6699Z" fill="white" stroke="#1E70B9" stroke-miterlimit="10"/>
<path d="M13.72 13.25L13.46 12.97H13.72V13.25Z" fill="#1E70B9"/>
<path d="M16.59 21.78H18.66C19.81 21.78 20.64 22.5 20.64 23.56C20.64 24.62 19.81 25.34 18.66 25.34H17.72V27.28H16.6V21.78H16.59ZM18.66 24.35C19.19 24.35 19.49 24.02 19.49 23.55C19.49 23.08 19.17 22.77 18.66 22.77H17.72V24.35H18.66Z" fill="#1E70B9"/>
<path d="M26.2199 21.7799V27.3799H25.8399L22.6599 23.9799V27.2799H21.5399V21.6799H21.9099L25.0999 25.0599V21.7799H26.2199Z" fill="#1E70B9"/>
<path d="M30.0999 21.68C31.0699 21.68 31.8799 22.11 32.4199 22.87L31.6199 23.53C31.2299 22.99 30.7199 22.72 30.0899 22.72C29.0399 22.72 28.3199 23.48 28.3199 24.53C28.3199 25.58 29.0599 26.37 30.1499 26.37C30.7799 26.37 31.2899 26.11 31.5999 25.69V25.24H30.0799V24.27H32.7199V25.89C32.4699 26.33 32.1099 26.7 31.6499 26.97C31.1899 27.25 30.6699 27.38 30.0999 27.38C28.4799 27.41 27.1299 26.11 27.1599 24.53C27.1299 22.95 28.4799 21.65 30.0999 21.68Z" fill="#1E70B9"/>
<path d="M4.49997 13.52C4.92997 13.52 5.26997 13.86 5.26997 14.29C5.26997 14.72 4.93997 15.06 4.49997 15.06C4.05997 15.06 3.71997 14.73 3.71997 14.29C3.71997 13.85 4.05997 13.52 4.49997 13.52Z" fill="#1E70B9"/>
<path d="M6.67991 13.2701C7.03991 13.7601 7.42991 14.0701 8.02991 14.0701C8.51991 14.0701 8.80991 13.8401 8.80991 13.4601C8.80991 13.1301 8.63991 13.0201 8.10991 12.7801L7.51991 12.5101C6.67991 12.1301 6.18991 11.6601 6.18991 10.9301C6.18991 9.99012 6.96991 9.37012 8.00991 9.37012C8.84991 9.37012 9.47991 9.78012 9.82991 10.4101L9.05991 11.0001C8.77991 10.5801 8.42991 10.3701 8.00991 10.3701C7.61991 10.3701 7.32991 10.5601 7.32991 10.9001C7.32991 11.1901 7.49991 11.3201 7.96991 11.5301L8.58991 11.8101C9.50991 12.2201 9.94991 12.6801 9.94991 13.4201C9.94991 14.4301 9.12991 15.0701 8.02991 15.0701C7.09991 15.0701 6.32991 14.6001 5.90991 13.8501L6.67991 13.2701Z" fill="#1E70B9"/>
<path d="M14.3099 9.48022L12.9399 12.8102L11.5699 9.48022H10.2999L12.7499 15.0802H12.7899V14.1902C12.7899 13.5202 13.3399 12.9702 14.0099 12.9702H14.0499L15.5799 9.48022H14.3099Z" fill="#1E70B9"/>
<path d="M18.77 11.9602V12.9402H20.28V12.9702H21.09C21.2 12.9702 21.31 12.9902 21.41 13.0202V11.9602H18.77ZM18.77 10.4202C19.4 10.4202 19.91 10.6902 20.3 11.2302L21.1 10.5702C20.56 9.81015 19.75 9.38015 18.78 9.38015C17.16 9.35015 15.81 10.6402 15.84 12.2302C15.84 12.4902 15.87 12.7402 15.94 12.9702H17.14C17.05 12.7502 17 12.5002 17 12.2302C17 11.1802 17.72 10.4202 18.77 10.4202Z" fill="#1E70B9"/>
</svg>
