<svg xmlns="http://www.w3.org/2000/svg" width="36" height="36" viewBox="0 0 36 36">
  <g id="SVG_TO_PDF" data-name="SVG TO PDF" transform="translate(-3130 677)">
    <path id="Path_5707" data-name="Path 5707" d="M35.333,37.833H17a2.5,2.5,0,0,1-2.5-2.5V17A2.5,2.5,0,0,1,17,14.5H35.333a2.5,2.5,0,0,1,2.5,2.5V35.333a2.5,2.5,0,0,1-2.5,2.5" transform="translate(3116 -691)" fill="#fff"/>
    <rect id="Rectangle_1112" data-name="Rectangle 1112" width="23.333" height="23.333" rx="2.5" transform="translate(3130.5 -676.5)" fill="none" stroke="#1e70b9" stroke-miterlimit="10" stroke-width="1"/>
    <path id="Path_5708" data-name="Path 5708" d="M18.61,28.629a.721.721,0,1,1,.214-.512.7.7,0,0,1-.214.512" transform="translate(3116 -691)" fill="#1e70b9"/>
    <path id="Path_5709" data-name="Path 5709" d="M21.425,28.843a2.458,2.458,0,0,1-1.366-.355,1.944,1.944,0,0,1-.776-.968l1.056-.612a1.136,1.136,0,0,0,1.124.742c.484,0,.727-.145.727-.436a.412.412,0,0,0-.233-.371,4.28,4.28,0,0,0-.876-.31,3.816,3.816,0,0,1-.589-.207,2.432,2.432,0,0,1-.494-.3,1.223,1.223,0,0,1-.367-.471,1.584,1.584,0,0,1-.126-.65,1.465,1.465,0,0,1,.532-1.186,1.914,1.914,0,0,1,1.265-.443,2.175,2.175,0,0,1,1.163.31,2.125,2.125,0,0,1,.8.9l-1.033.6a1.2,1.2,0,0,0-.359-.463.936.936,0,0,0-.567-.157.667.667,0,0,0-.424.119.356.356,0,0,0-.149.287.426.426,0,0,0,.187.344,2.74,2.74,0,0,0,.777.321c.214.066.379.12.5.161a3.461,3.461,0,0,1,.447.2,1.464,1.464,0,0,1,.413.3,1.494,1.494,0,0,1,.364,1,1.458,1.458,0,0,1-.551,1.2,2.231,2.231,0,0,1-1.438.44" transform="translate(3116 -691)" fill="#1e70b9"/>
    <path id="Path_5710" data-name="Path 5710" d="M25.063,28.736l-1.649-5.354h1.335l1.194,3.955,1.18-3.955h1.231l-1.637,5.354Z" transform="translate(3116 -691)" fill="#1e70b9"/>
    <path id="Path_5711" data-name="Path 5711" d="M33.992,25.754v.459a2.53,2.53,0,0,1-.747,1.916,2.623,2.623,0,0,1-1.892.715,2.841,2.841,0,0,1-2.069-.8,2.651,2.651,0,0,1-.822-1.974,2.692,2.692,0,0,1,.813-1.981,2.722,2.722,0,0,1,1.993-.811,2.848,2.848,0,0,1,1.373.337,2.534,2.534,0,0,1,.967.887l-1.039.6a1.294,1.294,0,0,0-.524-.451,1.717,1.717,0,0,0-.785-.176,1.525,1.525,0,0,0-1.128.451,1.572,1.572,0,0,0-.447,1.155,1.5,1.5,0,0,0,.46,1.136,1.694,1.694,0,0,0,1.223.44,1.3,1.3,0,0,0,1.369-.826H31.306V25.754Z" transform="translate(3116 -691)" fill="#1e70b9"/>
    <path id="Path_5712" data-name="Path 5712" d="M47,49.5H28.667a2.5,2.5,0,0,1-2.5-2.5V28.667a2.5,2.5,0,0,1,2.5-2.5H47a2.5,2.5,0,0,1,2.5,2.5V47A2.5,2.5,0,0,1,47,49.5" transform="translate(3116 -691)" fill="#fff"/>
    <rect id="Rectangle_1113" data-name="Rectangle 1113" width="23.333" height="23.333" rx="2.5" transform="translate(3142.167 -664.833)" fill="none" stroke="#1e70b9" stroke-miterlimit="10" stroke-width="1"/>
    <path id="Path_5713" data-name="Path 5713" d="M32.468,44.568a1.378,1.378,0,0,1-.933-.405,1.584,1.584,0,0,1-.435-1.492,1.221,1.221,0,0,1,.528-.777A14.66,14.66,0,0,1,34.8,40.121a34.254,34.254,0,0,0,1.865-3.886,8.9,8.9,0,0,1-1-2.892,2.749,2.749,0,0,1,.094-1.244c.311-.995.995-1.026,1.274-.995.063,0,1.151.156,1.337,1.711A8.39,8.39,0,0,1,37.66,36.2a10.808,10.808,0,0,0,2.426,2.86,14.4,14.4,0,0,1,3.513.4,1.324,1.324,0,0,1,.715.436,1.153,1.153,0,0,1,.218,1.212,1.288,1.288,0,0,1-.249.436,1.2,1.2,0,0,1-1.523.342,16.524,16.524,0,0,1-2.985-1.959,13.055,13.055,0,0,0-4.291.9c-.529.963-1.182,2.021-1.928,3.2a1.31,1.31,0,0,1-.591.5c-.217,0-.373.031-.5.031m1.523-3.141a11.651,11.651,0,0,0-1.834,1.151c-.093.093-.187.186-.187.28a.737.737,0,0,0,.249.684.444.444,0,0,0,.373.093.255.255,0,0,0,.156-.156c.435-.715.87-1.4,1.243-2.052m7.245-1.492A17.464,17.464,0,0,0,43.1,41.054a.3.3,0,0,0,.373-.093.852.852,0,0,0,.124-.218c.062-.155.062-.217-.031-.311a.6.6,0,0,0-.28-.155,11.722,11.722,0,0,0-2.052-.342m-4.042-2.767c-.311.715-.684,1.523-1.182,2.456a14.242,14.242,0,0,1,2.737-.56,15.557,15.557,0,0,1-1.555-1.9m-.311-5.224c-.124,0-.218.124-.311.4a1.864,1.864,0,0,0-.062.84,7.748,7.748,0,0,0,.528,1.8,6.2,6.2,0,0,0,.405-2.114c-.094-.84-.529-.933-.56-.933" transform="translate(3116 -691)" fill="#1e70b9"/>
  </g>
</svg>
