<svg xmlns="http://www.w3.org/2000/svg" width="36.673" height="34.457" viewBox="0 0 36.673 34.457">
  <g id="tdee_calculator" transform="translate(-807.979 -793.3)">
    <rect id="Rectangle_71" data-name="Rectangle 71" width="26.805" height="30.156" rx="3.351" transform="translate(808.479 793.8)" fill="#fff" stroke="#1e70b9" stroke-miterlimit="10" stroke-width="1"/>
    <rect id="Rectangle_72" data-name="Rectangle 72" width="13.402" height="5.026" rx="1.675" transform="translate(815.18 800.501)" fill="#fff" stroke="#1e70b9" stroke-miterlimit="10" stroke-width="1"/>
    <line id="Line_146" data-name="Line 146" x2="3.362" transform="translate(813.466 812.228)" fill="none" stroke="#1e70b9" stroke-miterlimit="10" stroke-width="1"/>
    <line id="Line_147" data-name="Line 147" x2="3.362" transform="translate(820.2 812.245)" fill="none" stroke="#1e70b9" stroke-miterlimit="10" stroke-width="1"/>
    <line id="Line_148" data-name="Line 148" x2="3.362" transform="translate(820.2 812.245)" fill="none" stroke="#1e70b9" stroke-miterlimit="10" stroke-width="1"/>
    <line id="Line_149" data-name="Line 149" x2="3.362" transform="translate(826.902 812.153)" fill="none" stroke="#1e70b9" stroke-miterlimit="10" stroke-width="1"/>
    <line id="Line_150" data-name="Line 150" x2="3.362" transform="translate(813.466 817.254)" fill="none" stroke="#1e70b9" stroke-miterlimit="10" stroke-width="1"/>
    <line id="Line_151" data-name="Line 151" x2="3.362" transform="translate(820.2 817.271)" fill="none" stroke="#1e70b9" stroke-miterlimit="10" stroke-width="1"/>
    <line id="Line_152" data-name="Line 152" x2="3.362" transform="translate(826.902 817.179)" fill="none" stroke="#1e70b9" stroke-miterlimit="10" stroke-width="1"/>
    <circle id="Ellipse_47" data-name="Ellipse 47" cx="10.125" cy="10.125" r="10.125" transform="translate(823.902 807.007)" fill="#fff" stroke="#1e70b9" stroke-miterlimit="10" stroke-width="1"/>
    <path id="Path_80" data-name="Path 80" d="M50.889,628.5" transform="translate(783.138 184.452)" fill="#fff" stroke="#1e70b9" stroke-miterlimit="10" stroke-width="1"/>
    <path id="Path_81" data-name="Path 81" d="M50.889,633.377" transform="translate(783.138 184.452)" fill="#fff" stroke="#1e70b9" stroke-miterlimit="10" stroke-width="1"/>
    <path id="Path_82" data-name="Path 82" d="M45.493,628.5" transform="translate(783.138 184.452)" fill="#fff" stroke="#1e70b9" stroke-miterlimit="10" stroke-width="1"/>
    <path id="Path_83" data-name="Path 83" d="M56.285,628.5" transform="translate(783.138 184.452)" fill="#fff" stroke="#1e70b9" stroke-miterlimit="10" stroke-width="1"/>
    <circle id="Ellipse_48" data-name="Ellipse 48" cx="0.679" cy="0.679" r="0.679" transform="translate(834.535 811.199)" fill="#fff" stroke="#1e70b9" stroke-miterlimit="10" stroke-width="1"/>
    <line id="Line_153" data-name="Line 153" y1="2.716" x2="2.037" transform="translate(831.139 820.705)" fill="#fff" stroke="#1e70b9" stroke-miterlimit="10" stroke-width="1"/>
    <path id="Path_98" data-name="Path 98" d="M54.113,638.969l-1.358-2.716-2.037-2.037.679-4.074" transform="translate(783.138 184.452)" fill="#fff" stroke="#1e70b9" stroke-miterlimit="10" stroke-width="1"/>
    <path id="Path_99" data-name="Path 99" d="M47.323,632.858l1.358-2.037,2.716-.679,2.037,2.037,2.037.679" transform="translate(783.138 184.452)" fill="#fff" stroke="#1e70b9" stroke-miterlimit="10" stroke-width="1"/>
  </g>
</svg>
