<svg width="30" height="31" viewBox="0 0 30 31" fill="none" xmlns="http://www.w3.org/2000/svg">
<path d="M26.4 1.08008H3.59998C2.21926 1.08008 1.09998 2.19937 1.09998 3.58008V27.3601C1.09998 28.7408 2.21926 29.8601 3.59998 29.8601H26.4C27.7807 29.8601 28.9 28.7408 28.9 27.3601V3.58008C28.9 2.19937 27.7807 1.08008 26.4 1.08008Z" fill="white" stroke="#1E70B9" stroke-miterlimit="10"/>
<path d="M10.85 18.9502H19.15" stroke="#1E70B9" stroke-miterlimit="10" stroke-linecap="round"/>
<path d="M10.85 23.9502H19.15" stroke="#1E70B9" stroke-miterlimit="10" stroke-linecap="round"/>
<path d="M20.35 9.14L15 7L9.65002 9.14L15 11.28L20.35 9.14ZM20.35 9.14V12.35" stroke="#1E70B9" stroke-linecap="round" stroke-linejoin="round"/>
<path d="M11.79 10V12.89C11.79 13.78 13.23 14.5 15 14.5C16.77 14.5 18.21 13.78 18.21 12.89V10" stroke="#1E70B9" stroke-linecap="round" stroke-linejoin="round"/>
</svg>
