<svg xmlns="http://www.w3.org/2000/svg" xmlns:xlink="http://www.w3.org/1999/xlink" width="36" height="36" viewBox="0 0 36 36">
  <defs>
    <clipPath id="clip-TIFF_To_PDF_Light_Mode_">
      <rect width="36" height="36"/>
    </clipPath>
  </defs>
  <g id="TIFF_To_PDF_Light_Mode_" data-name="TIFF To PDF (Light Mode)" clip-path="url(#clip-TIFF_To_PDF_Light_Mode_)">
    <g id="Group_42" data-name="Group 42" transform="translate(-199.208 -27.875)">
      <g id="Group_41" data-name="Group 41" transform="translate(199.209 27.875)">
        <g id="Group_37" data-name="Group 37">
          <g id="Group_31" data-name="Group 31">
            <g id="Group_30" data-name="Group 30">
              <rect id="Rectangle_8" data-name="Rectangle 8" width="23.333" height="23.333" rx="2.5" transform="translate(0.499 0.5)" fill="#fff"/>
              <path id="Path_13" data-name="Path 13" d="M226.667,58.333H208.334a3,3,0,0,1-3-3V37a3,3,0,0,1,3-3h18.333a3,3,0,0,1,3,3V55.333A3,3,0,0,1,226.667,58.333ZM208.334,35a2,2,0,0,0-2,2V55.333a2,2,0,0,0,2,2h18.333a2,2,0,0,0,2-2V37a2,2,0,0,0-2-2Z" transform="translate(-205.334 -34)" fill="#1e70b9"/>
            </g>
          </g>
          <g id="Group_36" data-name="Group 36" transform="translate(3.066 8.971)">
            <g id="Group_32" data-name="Group 32" transform="translate(0 0.045)">
              <path id="Path_14" data-name="Path 14" d="M210.443,44.042h-1.53a.513.513,0,1,1,0-1.026H213.1a.513.513,0,0,1,0,1.026h-1.54v4.772a.559.559,0,0,1-1.117,0Z" transform="translate(-208.4 -43.016)" fill="#1e70b9"/>
            </g>
            <g id="Group_33" data-name="Group 33" transform="translate(5.85)">
              <path id="Path_15" data-name="Path 15" d="M214.25,43.52a.542.542,0,0,1,.559-.549.534.534,0,0,1,.548.549v5.294a.534.534,0,0,1-.548.548.541.541,0,0,1-.559-.548Z" transform="translate(-214.25 -42.971)" fill="#1e70b9"/>
            </g>
            <g id="Group_34" data-name="Group 34" transform="translate(8.1 0.045)">
              <path id="Path_16" data-name="Path 16" d="M216.5,43.574a.549.549,0,0,1,.558-.558h3.673a.5.5,0,0,1,0,1.008h-3.124v1.719h2.719a.5.5,0,0,1,0,1.009h-2.719v2.062a.534.534,0,0,1-.549.548.541.541,0,0,1-.558-.548Z" transform="translate(-216.5 -43.016)" fill="#1e70b9"/>
            </g>
            <g id="Group_35" data-name="Group 35" transform="translate(13.464 0.045)">
              <path id="Path_17" data-name="Path 17" d="M221.864,43.574a.549.549,0,0,1,.558-.558h3.673a.5.5,0,1,1,0,1.008h-3.123v1.719h2.718a.5.5,0,0,1,0,1.009h-2.718v2.062a.535.535,0,0,1-.55.548.541.541,0,0,1-.558-.548Z" transform="translate(-221.864 -43.016)" fill="#1e70b9"/>
            </g>
          </g>
        </g>
        <g id="Group_40" data-name="Group 40" transform="translate(11.666 11.667)">
          <g id="Group_38" data-name="Group 38">
            <rect id="Rectangle_9" data-name="Rectangle 9" width="23.333" height="23.333" rx="2.5" transform="translate(0.5 0.5)" fill="#fff"/>
            <path id="Path_18" data-name="Path 18" d="M238.334,70H220a3,3,0,0,1-3-3V48.667a3,3,0,0,1,3-3h18.334a3,3,0,0,1,3,3V67A3,3,0,0,1,238.334,70ZM220,46.667a2,2,0,0,0-2,2V67a2,2,0,0,0,2,2h18.334a2,2,0,0,0,2-2V48.667a2,2,0,0,0-2-2Z" transform="translate(-217 -45.667)" fill="#1e70b9"/>
          </g>
          <g id="Group_39" data-name="Group 39" transform="translate(5.386 5.431)">
            <path id="Path_19" data-name="Path 19" d="M223.8,64.568a1.378,1.378,0,0,1-.933-.4,1.589,1.589,0,0,1-.435-1.492,1.227,1.227,0,0,1,.529-.778,14.672,14.672,0,0,1,3.171-1.772A34.2,34.2,0,0,0,228,56.236,8.882,8.882,0,0,1,227,53.344,2.762,2.762,0,0,1,227.1,52.1c.311-.995.995-1.026,1.275-.995.062,0,1.15.156,1.337,1.71a8.411,8.411,0,0,1-.715,3.389,10.79,10.79,0,0,0,2.425,2.861,14.343,14.343,0,0,1,3.513.4,1.328,1.328,0,0,1,.716.435,1.153,1.153,0,0,1,.217,1.213h0a1.287,1.287,0,0,1-.248.435,1.2,1.2,0,0,1-1.524.342,16.469,16.469,0,0,1-2.985-1.958,13.087,13.087,0,0,0-4.291.9c-.528.964-1.181,2.021-1.927,3.2a1.318,1.318,0,0,1-.591.5h0C224.081,64.537,223.926,64.568,223.8,64.568Zm1.524-3.14a11.726,11.726,0,0,0-1.835,1.15c-.093.094-.186.187-.186.28a.736.736,0,0,0,.249.684.441.441,0,0,0,.373.094h0a.257.257,0,0,0,.155-.156C224.516,62.765,224.952,62.081,225.325,61.428Zm7.244-1.492a17.456,17.456,0,0,0,1.866,1.119.3.3,0,0,0,.373-.093.871.871,0,0,0,.124-.218c.063-.155.063-.218-.031-.311a.6.6,0,0,0-.279-.155A11.733,11.733,0,0,0,232.569,59.936Zm-4.042-2.768c-.311.715-.684,1.524-1.181,2.457a14.139,14.139,0,0,1,2.736-.56A15.587,15.587,0,0,1,228.527,57.168Zm-.311-5.223c-.124,0-.217.124-.31.4a1.846,1.846,0,0,0-.063.839,7.82,7.82,0,0,0,.529,1.8,6.21,6.21,0,0,0,.4-2.114c-.093-.84-.528-.933-.56-.933Z" transform="translate(-222.386 -51.098)" fill="#1e70b9"/>
          </g>
        </g>
      </g>
    </g>
  </g>
</svg>
