<svg xmlns="http://www.w3.org/2000/svg" width="35.027" height="35.028" viewBox="0 0 35.027 35.028">
  <g id="tiktok_download" data-name="tiktok download" transform="translate(0.014 0.014)">
    <g id="Group_2241" data-name="Group 2241">
      <path id="Path_1415" data-name="Path 1415" d="M27.659,30.09H2.931A2.431,2.431,0,0,1,.5,27.659V2.931A2.431,2.431,0,0,1,2.931.5H27.659A2.431,2.431,0,0,1,30.09,2.931V27.659a2.43,2.43,0,0,1-2.431,2.431" transform="translate(-0.014 -0.014)" fill="#fff"/>
      <rect id="Rectangle_479" data-name="Rectangle 479" width="29.59" height="29.59" rx="2.5" transform="translate(0.486 0.486)" fill="none" stroke="#1e70b9" stroke-linecap="round" stroke-linejoin="round" stroke-width="1"/>
      <path id="Path_1416" data-name="Path 1416" d="M32.7,35.128H24.54A2.43,2.43,0,0,1,22.109,32.7V24.54a2.43,2.43,0,0,1,2.431-2.431H32.7a2.43,2.43,0,0,1,2.431,2.431V32.7A2.43,2.43,0,0,1,32.7,35.128" transform="translate(-0.614 -0.614)" fill="#fff"/>
      <rect id="Rectangle_480" data-name="Rectangle 480" width="13.019" height="13.019" rx="2.5" transform="translate(21.495 21.495)" fill="none" stroke="#1e70b9" stroke-linecap="round" stroke-linejoin="round" stroke-width="1"/>
      <path id="Path_1417" data-name="Path 1417" d="M31.23,29.475l-2.5,2.5-2.5-2.5" transform="translate(-0.729 -0.819)" fill="none" stroke="#1e70b9" stroke-linecap="round" stroke-linejoin="round" stroke-width="1"/>
      <line id="Line_71" data-name="Line 71" y1="6.297" transform="translate(28.004 24.856)" fill="none" stroke="#1e70b9" stroke-linecap="round" stroke-linejoin="round" stroke-width="1"/>
      <path id="Path_1418" data-name="Path 1418" d="M12.4,15.175a3.565,3.565,0,1,0,3.565,3.565V8.046A4.456,4.456,0,0,0,20.421,12.5" transform="translate(-0.245 -0.223)" fill="none" stroke="#1e70b9" stroke-linecap="round" stroke-linejoin="round" stroke-width="1"/>
    </g>
  </g>
</svg>
