<svg xmlns="http://www.w3.org/2000/svg" width="36" height="36" viewBox="0 0 36 36">
  <g id="TikTok_to_MP4" data-name="TikTok to MP4" transform="translate(-2689.678 808.001)">
    <path id="Path_7652" data-name="Path 7652" d="M120.113,44.934H94.678a2.5,2.5,0,0,1-2.5-2.5V17a2.5,2.5,0,0,1,2.5-2.5h25.435a2.5,2.5,0,0,1,2.5,2.5V42.434a2.5,2.5,0,0,1-2.5,2.5" transform="translate(2598 -822)" fill="#fff"/>
    <rect id="Rectangle_2560" data-name="Rectangle 2560" width="30.435" height="30.435" rx="2.5" transform="translate(2690.178 -807.501)" fill="none" stroke="#1e70b9" stroke-linecap="round" stroke-linejoin="round" stroke-width="1"/>
    <path id="Path_7653" data-name="Path 7653" d="M124.678,49.5h-8.391a2.5,2.5,0,0,1-2.5-2.5V38.609a2.5,2.5,0,0,1,2.5-2.5h8.391a2.5,2.5,0,0,1,2.5,2.5V47a2.5,2.5,0,0,1-2.5,2.5" transform="translate(2598 -822)" fill="#fff"/>
    <rect id="Rectangle_2561" data-name="Rectangle 2561" width="13.391" height="13.391" rx="2.5" transform="translate(2711.788 -785.891)" fill="none" stroke="#1e70b9" stroke-linecap="round" stroke-linejoin="round" stroke-width="1"/>
    <path id="Path_7654" data-name="Path 7654" d="M104.181,29.379a3.667,3.667,0,1,0,3.667,3.667v-11a4.583,4.583,0,0,0,4.583,4.583" transform="translate(2598 -822)" fill="none" stroke="#1e70b9" stroke-linecap="round" stroke-linejoin="round" stroke-width="1"/>
    <path id="Path_7655" data-name="Path 7655" d="M119.257,41.214v3.4h-.777V42.638l-.879,1.443h-.088l-.879-1.443v1.977h-.777v-3.4h.777l.923,1.512.923-1.512Z" transform="translate(2598 -822)" fill="#1e70b9"/>
    <path id="Path_7656" data-name="Path 7656" d="M121.128,41.213a1.16,1.16,0,0,1,.846.341,1.164,1.164,0,0,1,0,1.652,1.163,1.163,0,0,1-.846.34h-.51v1.069h-.777v-3.4Zm0,1.6a.384.384,0,0,0,.3-.126.472.472,0,0,0,0-.622.384.384,0,0,0-.3-.126h-.51v.874Z" transform="translate(2598 -822)" fill="#1e70b9"/>
    <path id="Path_7657" data-name="Path 7657" d="M125.088,43.351v.72h-.34v.544h-.787v-.544h-1.545v-.72l1.083-2.138h.836l-1.084,2.138h.71v-.729h.787v.729Z" transform="translate(2598 -822)" fill="#1e70b9"/>
  </g>
</svg>
