<svg width="30" height="31" viewBox="0 0 30 31" fill="none" xmlns="http://www.w3.org/2000/svg">
<path d="M26.59 1.40039H3.79001C2.4093 1.40039 1.29001 2.51968 1.29001 3.90039V27.6804C1.29001 29.0611 2.4093 30.1804 3.79001 30.1804H26.59C27.9707 30.1804 29.09 29.0611 29.09 27.6804V3.90039C29.09 2.51968 27.9707 1.40039 26.59 1.40039Z" fill="white" stroke="#1E70B9" stroke-miterlimit="10"/>
<path d="M7.53 18.8301H22.84" stroke="#1E70B9" stroke-miterlimit="10" stroke-linecap="round"/>
<path d="M7.53 22.8301H22.84" stroke="#1E70B9" stroke-miterlimit="10" stroke-linecap="round"/>
<path d="M12.02 10.1699V13.7999" stroke="#1E70B9" stroke-miterlimit="10" stroke-linecap="round"/>
<path d="M17.93 10.29V13.69H19.63" stroke="#1E70B9" stroke-miterlimit="10" stroke-linecap="round"/>
<path d="M7.42999 10.2197H10.81" stroke="#1E70B9" stroke-miterlimit="10" stroke-linecap="round"/>
<path d="M9.12 10.2197V13.7597" stroke="#1E70B9" stroke-miterlimit="10" stroke-linecap="round"/>
<path d="M13.25 10.2197H16.63" stroke="#1E70B9" stroke-miterlimit="10" stroke-linecap="round"/>
<path d="M14.94 10.2197V13.7597" stroke="#1E70B9" stroke-miterlimit="10" stroke-linecap="round"/>
<path d="M22.94 10.2998H21.26V13.6598H22.94" stroke="#1E70B9" stroke-miterlimit="10" stroke-linecap="round"/>
<path d="M21.26 11.9902H22.31" stroke="#1E70B9" stroke-miterlimit="10" stroke-linecap="round"/>
</svg>
