<svg xmlns="http://www.w3.org/2000/svg" width="15.353" height="16.042" viewBox="0 0 15.353 16.042">
  <g id="paste" transform="translate(-11)">
    <g id="Group_3639" data-name="Group 3639" transform="translate(11)">
      <g id="Group_3638" data-name="Group 3638" transform="translate(0)">
        <path id="Path_1451" data-name="Path 1451" d="M25.726,11.624A.627.627,0,0,0,26.353,11V8.115a1.882,1.882,0,0,0-1.88-1.88H23.251V3.76a2.509,2.509,0,0,0-2.507-2.507H19.255A1.815,1.815,0,0,0,17.527,0h-.8A1.815,1.815,0,0,0,15,1.253H13.507A2.509,2.509,0,0,0,11,3.76v9.776a2.509,2.509,0,0,0,2.507,2.507h2.757a.627.627,0,0,0,0-1.253H13.507a1.255,1.255,0,0,1-1.253-1.253V3.76a1.255,1.255,0,0,1,1.253-1.253h.063V4.355a.627.627,0,0,0,.627.627h5.922a.627.627,0,0,0,.627-.627V2.507A1.255,1.255,0,0,1,22,3.76V6.235H19.961a1.882,1.882,0,0,0-1.88,1.88v6.048a1.882,1.882,0,0,0,1.88,1.88l4.512,0a1.882,1.882,0,0,0,1.88-1.88.627.627,0,0,0-1.253,0,.627.627,0,0,1-.627.626l-4.512,0a.627.627,0,0,1-.627-.626V8.115a.627.627,0,0,1,.626-.626h4.512a.627.627,0,0,1,.627.627V11A.627.627,0,0,0,25.726,11.624Zm-6.235-7.9H14.823V2.507h.658a.627.627,0,0,0,.608-.475l.088-.351a.564.564,0,0,1,.548-.428h.8a.564.564,0,0,1,.548.428l.088.351a.627.627,0,0,0,.608.475h.721Z" transform="translate(-11)" fill="#8f99a7"/>
        <path id="Path_1452" data-name="Path 1452" d="M319.632,279h-2.005a.627.627,0,0,0,0,1.253h2.005a.627.627,0,0,0,0-1.253Z" transform="translate(-307.412 -270.258)" fill="#8f99a7"/>
        <path id="Path_1453" data-name="Path 1453" d="M319.632,349h-2.005a.627.627,0,1,0,0,1.253h2.005a.627.627,0,0,0,0-1.253Z" transform="translate(-307.412 -338.065)" fill="#8f99a7"/>
      </g>
    </g>
  </g>
</svg>
