<svg xmlns="http://www.w3.org/2000/svg" width="36" height="36" viewBox="0 0 36 36">
  <g id="twitter_video_downloader" data-name="twitter video downloader" transform="translate(-853 -4713)">
    <path id="Path_13584" data-name="Path 13584" d="M42.435,44.935H17a2.5,2.5,0,0,1-2.5-2.5V17A2.5,2.5,0,0,1,17,14.5H42.435a2.5,2.5,0,0,1,2.5,2.5V42.435a2.5,2.5,0,0,1-2.5,2.5" transform="translate(839 4699)" fill="#fff"/>
    <rect id="Rectangle_22621" data-name="Rectangle 22621" width="30.435" height="30.435" rx="2.5" transform="translate(853.5 4713.5)" fill="none" stroke="#1e70b9" stroke-linecap="round" stroke-linejoin="round" stroke-width="1"/>
    <path id="Path_13585" data-name="Path 13585" d="M47,49.5H38.609a2.5,2.5,0,0,1-2.5-2.5V38.609a2.5,2.5,0,0,1,2.5-2.5H47a2.5,2.5,0,0,1,2.5,2.5V47A2.5,2.5,0,0,1,47,49.5" transform="translate(839 4699)" fill="#fff"/>
    <rect id="Rectangle_22622" data-name="Rectangle 22622" width="13.391" height="13.391" rx="2.5" transform="translate(875.109 4735.109)" fill="none" stroke="#1e70b9" stroke-linecap="round" stroke-linejoin="round" stroke-width="1"/>
    <path id="Path_13586" data-name="Path 13586" d="M45.372,43.475,42.8,46.043l-2.568-2.568" transform="translate(839 4699)" fill="none" stroke="#1e70b9" stroke-linecap="round" stroke-linejoin="round" stroke-width="1"/>
    <line id="Line_492" data-name="Line 492" y1="6.477" transform="translate(881.804 4738.566)" fill="none" stroke="#1e70b9" stroke-linecap="round" stroke-linejoin="round" stroke-width="1"/>
    <path id="Path_13587" data-name="Path 13587" d="M35.69,26.657a1.734,1.734,0,0,1,.029.383,8.671,8.671,0,0,1-.588,3.1,9.782,9.782,0,0,1-1.662,2.824,7.926,7.926,0,0,1-2.781,2.075,8.824,8.824,0,0,1-3.766.794,8.572,8.572,0,0,1-4.737-1.383q.324.03.735.03a6.131,6.131,0,0,0,3.855-1.324,2.876,2.876,0,0,1-1.81-.6,3.07,3.07,0,0,1-1.074-1.515,5.514,5.514,0,0,0,.559.029,3.906,3.906,0,0,0,.824-.088,3,3,0,0,1-1.265-.588,3.219,3.219,0,0,1-.883-1.074,2.971,2.971,0,0,1-.323-1.368v-.059a2.91,2.91,0,0,0,1.383.412,3.068,3.068,0,0,1-.942-4.149A8.646,8.646,0,0,0,29.6,27.393a4.322,4.322,0,0,1-.058-.707,3,3,0,0,1,.9-2.177A2.924,2.924,0,0,1,32.6,23.6a2.982,2.982,0,0,1,2.265.971,6.294,6.294,0,0,0,1.972-.736,3.07,3.07,0,0,1-1.354,1.707,6.654,6.654,0,0,0,1.765-.5,6.789,6.789,0,0,1-1.559,1.618" transform="translate(839 4699)" fill="#fff"/>
    <path id="Path_13588" data-name="Path 13588" d="M35.69,26.657a1.734,1.734,0,0,1,.029.383,8.671,8.671,0,0,1-.588,3.1,9.782,9.782,0,0,1-1.662,2.824,7.926,7.926,0,0,1-2.781,2.075,8.824,8.824,0,0,1-3.766.794,8.572,8.572,0,0,1-4.737-1.383q.324.03.735.03a6.131,6.131,0,0,0,3.855-1.324,2.876,2.876,0,0,1-1.81-.6,3.07,3.07,0,0,1-1.074-1.515,5.514,5.514,0,0,0,.559.029,3.906,3.906,0,0,0,.824-.088,3,3,0,0,1-1.265-.588,3.219,3.219,0,0,1-.883-1.074,2.971,2.971,0,0,1-.323-1.368v-.059a2.91,2.91,0,0,0,1.383.412,3.068,3.068,0,0,1-.942-4.149A8.646,8.646,0,0,0,29.6,27.393a4.322,4.322,0,0,1-.058-.707,3,3,0,0,1,.9-2.177A2.924,2.924,0,0,1,32.6,23.6a2.982,2.982,0,0,1,2.265.971,6.294,6.294,0,0,0,1.972-.736,3.07,3.07,0,0,1-1.354,1.707,6.654,6.654,0,0,0,1.765-.5A6.789,6.789,0,0,1,35.69,26.657Z" transform="translate(839 4699)" fill="none" stroke="#1e70b9" stroke-linecap="round" stroke-linejoin="round" stroke-width="1"/>
  </g>
</svg>
