<svg xmlns="http://www.w3.org/2000/svg" width="16" height="16" viewBox="0 0 16 16">
  <g id="Group_1" data-name="Group 1" transform="translate(-323.715 -413.684)">
    <path id="Path_1" data-name="Path 1" d="M332.749,421.559l-.909-.909a3.555,3.555,0,0,0-.512-4.379l-1.547-1.546a3.554,3.554,0,0,0-5.026,5.026L326.3,421.3a3.556,3.556,0,0,0,4.379.512l.909.909a3.559,3.559,0,0,0,.512,4.378l1.547,1.546a3.554,3.554,0,1,0,5.026-5.026l-1.546-1.547a3.56,3.56,0,0,0-4.378-.511Zm-3.935-.861a1.9,1.9,0,0,1-1.353-.561l-1.547-1.546a1.914,1.914,0,0,1,2.707-2.706l1.547,1.546a1.916,1.916,0,0,1,.449,2l-.836-.836a.82.82,0,1,0-1.16,1.16l.837.837a1.919,1.919,0,0,1-.643.11Zm8.7,6.785a1.917,1.917,0,0,1-2.707,0l-1.547-1.547a1.916,1.916,0,0,1-.449-2l.836.836a.82.82,0,0,0,1.16-1.16l-.836-.836a1.919,1.919,0,0,1,2,.449l1.547,1.547a1.916,1.916,0,0,1,0,2.706Zm0,0" transform="translate(0 0)" fill="#1e70b9"/>
  </g>
</svg>
