<svg xmlns="http://www.w3.org/2000/svg" width="24" height="24.379" viewBox="0 0 24 24.379">
  <path id="Path_1692" data-name="Path 1692" d="M-201.266,191.021a6.486,6.486,0,0,0,2.578-5.171,6.508,6.508,0,0,0-6.5-6.5,6.508,6.508,0,0,0-6.5,6.5,6.486,6.486,0,0,0,2.579,5.171,12.013,12.013,0,0,0-8.079,11.329v1.379h2V202.35a10.011,10.011,0,0,1,10-10,10.011,10.011,0,0,1,10,10v1.379h2V202.35A12.012,12.012,0,0,0-201.266,191.021Zm-8.422-5.171a4.505,4.505,0,0,1,4.5-4.5,4.5,4.5,0,0,1,4.5,4.5,4.5,4.5,0,0,1-4.5,4.5A4.5,4.5,0,0,1-209.688,185.85Z" transform="translate(217.188 -179.35)" fill="#1e70b9"/>
</svg>
