<svg xmlns="http://www.w3.org/2000/svg" width="26" height="26.001" viewBox="0 0 26 26.001">
  <path id="Path_1702" data-name="Path 1702" d="M-364.262,128.58a12.946,12.946,0,0,0-3.141-8.464l.037-.037-.71-.707a12.937,12.937,0,0,0-9.186-3.792q-.65,0-1.289.063a12.918,12.918,0,0,0-7.9,3.729l-.711.707.038.037a12.941,12.941,0,0,0-3.142,8.464,12.944,12.944,0,0,0,3.142,8.464l-.038.038.711.707a12.937,12.937,0,0,0,9.158,3.79l.025,0,.021,0q.641,0,1.271-.062a12.927,12.927,0,0,0,7.9-3.728l.71-.707-.037-.038A12.94,12.94,0,0,0-364.262,128.58Zm-6.027,8.515c-.034.028-.07.052-.105.079-.232.186-.469.363-.714.528-.094.064-.192.12-.287.18-.191.121-.382.238-.579.346-.115.063-.232.12-.349.179-.143.072-.288.139-.435.205a13.018,13.018,0,0,0,1.209-2.427,11.039,11.039,0,0,1,1.279.893Zm-12.264,1.131c-.19-.1-.374-.217-.557-.333-.1-.064-.208-.125-.309-.193-.23-.155-.452-.322-.671-.5-.048-.038-.1-.071-.146-.11l-.017-.016a10.9,10.9,0,0,1,1.276-.891,12.943,12.943,0,0,0,1.206,2.423c-.141-.064-.282-.129-.421-.2C-382.313,138.351-382.434,138.292-382.553,138.226Zm-1.685-18.158c.045-.037.093-.069.138-.1.222-.177.449-.347.682-.5.1-.066.2-.125.3-.187.187-.118.375-.234.569-.341.116-.063.234-.121.352-.18.141-.071.285-.138.43-.2a12.945,12.945,0,0,0-1.208,2.423,10.987,10.987,0,0,1-1.276-.891Zm12.269-1.134c.187.1.37.216.551.33.105.066.213.128.316.2.221.15.435.311.645.478.057.044.117.084.173.13l.014.013a10.967,10.967,0,0,1-1.28.893,12.968,12.968,0,0,0-1.21-2.428q.218.1.429.2C-372.21,118.809-372.088,118.869-371.969,118.934Zm1.691,8.646a22.533,22.533,0,0,0-.655-4.647,12.926,12.926,0,0,0,2.085-1.436,10.933,10.933,0,0,1,2.537,6.083Zm-5.984-9.732a7.206,7.206,0,0,1,2.9,4.006,10.991,10.991,0,0,1-2.9.666Zm-2,0v4.674a11.014,11.014,0,0,1-2.9-.667A7.2,7.2,0,0,1-378.262,117.846Zm-3.479,5.931a12.886,12.886,0,0,0,3.479.749v3.054h-3.988A20.562,20.562,0,0,1-381.741,123.777Zm3.479,5.8v3.061a13.049,13.049,0,0,0-3.479.744,20.584,20.584,0,0,1-.509-3.8Zm0,5.06v4.677a7.211,7.211,0,0,1-2.9-4.01A11.07,11.07,0,0,1-378.262,134.64Zm2,0a11.048,11.048,0,0,1,2.9.666,7.214,7.214,0,0,1-2.9,4.008Zm3.476-1.256a13.009,13.009,0,0,0-3.476-.743V129.58h3.985A20.585,20.585,0,0,1-372.786,133.384Zm-3.476-5.8v-3.054a12.938,12.938,0,0,0,3.476-.747,20.625,20.625,0,0,1,.509,3.8Zm-7.331-4.649a22.475,22.475,0,0,0-.656,4.649h-3.964a10.949,10.949,0,0,1,2.537-6.083A12.962,12.962,0,0,0-383.593,122.931Zm-.656,6.649a22.565,22.565,0,0,0,.655,4.65,12.875,12.875,0,0,0-2.081,1.433,10.945,10.945,0,0,1-2.538-6.083Zm13.316,4.648a22.543,22.543,0,0,0,.655-4.648h3.967a10.934,10.934,0,0,1-2.537,6.083A12.877,12.877,0,0,0-370.933,134.228Z" transform="translate(390.262 -115.58)" fill="#1e70b9"/>
</svg>
