<svg width="37" height="37" viewBox="0 0 37 37" fill="none" xmlns="http://www.w3.org/2000/svg">
<path d="M21.83 1H3.5C2.11929 1 1 2.11929 1 3.5V21.83C1 23.2107 2.11929 24.33 3.5 24.33H21.83C23.2107 24.33 24.33 23.2107 24.33 21.83V3.5C24.33 2.11929 23.2107 1 21.83 1Z" fill="white" stroke="#1E70B9" stroke-miterlimit="10"/>
<path d="M33.5 12.6699H15.17C13.7893 12.6699 12.67 13.7892 12.67 15.1699V33.4999C12.67 34.8806 13.7893 35.9999 15.17 35.9999H33.5C34.8808 35.9999 36 34.8806 36 33.4999V15.1699C36 13.7892 34.8808 12.6699 33.5 12.6699Z" fill="white" stroke="#1E70B9" stroke-miterlimit="10"/>
<path d="M13.72 13.25L13.46 12.97H13.72V13.25Z" fill="#1E70B9"/>
<path d="M8.98005 10.7099L8.02005 13.2399L6.90005 10.6399H6.61005L5.48005 13.2499L4.53005 10.7099H3.55005L5.27005 15.0799H5.55005L6.76005 12.3899L7.95005 15.0799H8.24005L9.95005 10.7099H8.98005Z" fill="#1E70B9"/>
<path d="M13.5001 11.51V10.71H10.6101V15H12.6601V14.35C12.6601 14.35 12.6601 14.25 12.6701 14.21H11.4901V13.12H12.9601V12.38H11.4901V11.51H13.5001Z" fill="#1E70B9"/>
<path d="M15.8601 10.71H14.3301V12.67H16.9101C17.1101 12.47 17.2101 12.22 17.2101 11.91C17.2101 11.21 16.6501 10.71 15.8601 10.71ZM15.7801 12.45H15.1801V11.47H15.7801C16.1401 11.47 16.3401 11.65 16.3401 11.95C16.3401 12.25 16.1401 12.45 15.7801 12.45Z" fill="#1E70B9"/>
<path d="M19.98 10.71H18.37V12.67H19.25V11.49H19.98C20.38 11.49 20.63 11.73 20.63 12.1C20.63 12.37 20.5 12.58 20.27 12.67H20.37C20.69 12.67 21 12.76 21.25 12.93C21.43 12.71 21.53 12.42 21.53 12.1C21.53 11.27 20.88 10.71 19.98 10.71Z" fill="#1E70B9"/>
<path d="M17 21.5601H19.07C20.22 21.5601 21.05 22.2801 21.05 23.3401C21.05 24.4001 20.22 25.1201 19.07 25.1201H18.13V27.0601H17.01V21.5601H17ZM19.07 24.1301C19.6 24.1301 19.9 23.8001 19.9 23.3301C19.9 22.8601 19.58 22.5501 19.07 22.5501H18.13V24.1301H19.07Z" fill="#1E70B9"/>
<path d="M26.63 21.56V27.16H26.25L23.07 23.76V27.06H21.95V21.46H22.32L25.5099 24.84V21.56H26.63Z" fill="#1E70B9"/>
<path d="M30.5099 21.46C31.4799 21.46 32.29 21.89 32.83 22.65L32.0299 23.31C31.6399 22.77 31.1299 22.5 30.4999 22.5C29.4499 22.5 28.7299 23.26 28.7299 24.31C28.7299 25.36 29.47 26.15 30.56 26.15C31.19 26.15 31.6999 25.89 32.0099 25.47V25.02H30.49V24.05H33.13V25.67C32.88 26.11 32.52 26.48 32.06 26.75C31.6 27.03 31.0799 27.16 30.5099 27.16C28.8899 27.19 27.5399 25.89 27.5699 24.31C27.5399 22.73 28.8899 21.43 30.5099 21.46Z" fill="#1E70B9"/>
</svg>
