<svg xmlns="http://www.w3.org/2000/svg" xmlns:xlink="http://www.w3.org/1999/xlink" width="36" height="36" viewBox="0 0 36 36">
  <defs>
    <clipPath id="clip-WMF_To_PDF_Light_Mode_">
      <rect width="36" height="36"/>
    </clipPath>
  </defs>
  <g id="WMF_To_PDF_Light_Mode_" data-name="WMF To PDF (Light Mode)" clip-path="url(#clip-WMF_To_PDF_Light_Mode_)">
    <g id="Group_260" data-name="Group 260" transform="translate(-290 -399.31)">
      <g id="Group_259" data-name="Group 259">
        <g id="Group_255" data-name="Group 255">
          <g id="Group_250" data-name="Group 250">
            <g id="Group_249" data-name="Group 249">
              <rect id="Rectangle_53" data-name="Rectangle 53" width="23.333" height="23.333" rx="2.5" transform="translate(290.5 399.809)" fill="#fff"/>
              <path id="Path_122" data-name="Path 122" d="M311.334,423.643H293a3,3,0,0,1-3-3V402.31a3,3,0,0,1,3-3h18.334a3,3,0,0,1,3,3v18.333A3,3,0,0,1,311.334,423.643ZM293,400.31a2,2,0,0,0-2,2v18.333a2,2,0,0,0,2,2h18.334a2,2,0,0,0,2-2V402.31a2,2,0,0,0-2-2Z" fill="#1e70b9"/>
            </g>
          </g>
          <g id="Group_254" data-name="Group 254">
            <g id="Group_251" data-name="Group 251">
              <path id="Path_123" data-name="Path 123" d="M292.524,409.3a.555.555,0,0,1-.04-.193.507.507,0,0,1,.991-.12l1.287,3.846L296.026,409a.527.527,0,0,1,.5-.393h.071a.515.515,0,0,1,.5.393l1.263,3.829,1.287-3.853a.493.493,0,0,1,.48-.352.481.481,0,0,1,.487.472.553.553,0,0,1-.048.2l-1.655,4.637a.541.541,0,0,1-.512.408h-.1a.524.524,0,0,1-.5-.408l-1.247-3.654-1.247,3.654a.533.533,0,0,1-.512.408h-.1a.54.54,0,0,1-.512-.408Z" fill="#1e70b9"/>
            </g>
            <g id="Group_252" data-name="Group 252">
              <path id="Path_124" data-name="Path 124" d="M301.179,409.13a.488.488,0,0,1,.5-.5h.1a.52.52,0,0,1,.456.263l1.694,2.655,1.7-2.662a.505.505,0,0,1,.449-.256h.1a.488.488,0,0,1,.5.5v4.684a.481.481,0,0,1-.5.489.5.5,0,0,1-.487-.489v-3.357l-1.367,2.055a.482.482,0,0,1-.416.256.467.467,0,0,1-.408-.256l-1.359-2.039v3.35a.469.469,0,0,1-.488.48.463.463,0,0,1-.48-.48Z" fill="#1e70b9"/>
            </g>
            <g id="Group_253" data-name="Group 253">
              <path id="Path_125" data-name="Path 125" d="M307.644,409.161a.488.488,0,0,1,.5-.5H311.4a.448.448,0,0,1,0,.9h-2.774v1.527h2.415a.448.448,0,0,1,0,.9h-2.415v1.83a.475.475,0,0,1-.488.489.482.482,0,0,1-.5-.489Z" fill="#1e70b9"/>
            </g>
          </g>
        </g>
        <g id="Group_258" data-name="Group 258">
          <g id="Group_256" data-name="Group 256">
            <rect id="Rectangle_54" data-name="Rectangle 54" width="23.333" height="23.333" rx="2.5" transform="translate(302.167 411.476)" fill="#fff"/>
            <path id="Path_126" data-name="Path 126" d="M323,435.31H304.667a3,3,0,0,1-3-3V413.976a3,3,0,0,1,3-3H323a3,3,0,0,1,3,3V432.31A3,3,0,0,1,323,435.31Zm-18.333-23.334a2,2,0,0,0-2,2V432.31a2,2,0,0,0,2,2H323a2,2,0,0,0,2-2V413.976a2,2,0,0,0-2-2Z" fill="#1e70b9"/>
          </g>
          <g id="Group_257" data-name="Group 257">
            <path id="Path_127" data-name="Path 127" d="M308.468,429.878a1.383,1.383,0,0,1-.933-.4,1.591,1.591,0,0,1-.435-1.493,1.224,1.224,0,0,1,.528-.777,14.671,14.671,0,0,1,3.172-1.772,34.336,34.336,0,0,0,1.865-3.887,8.9,8.9,0,0,1-.995-2.892,2.743,2.743,0,0,1,.094-1.243c.311-.995.995-1.026,1.275-.995.062,0,1.15.155,1.337,1.71a8.407,8.407,0,0,1-.716,3.389,10.777,10.777,0,0,0,2.426,2.86,14.351,14.351,0,0,1,3.513.4,1.316,1.316,0,0,1,.715.435,1.154,1.154,0,0,1,.218,1.213h0a1.289,1.289,0,0,1-.249.435,1.2,1.2,0,0,1-1.523.342,16.525,16.525,0,0,1-2.985-1.959,13.055,13.055,0,0,0-4.291.9c-.529.964-1.182,2.021-1.928,3.2a1.31,1.31,0,0,1-.591.5h0C308.748,429.847,308.592,429.878,308.468,429.878Zm1.523-3.141a11.65,11.65,0,0,0-1.834,1.151c-.093.093-.187.186-.187.28a.74.74,0,0,0,.249.684.444.444,0,0,0,.373.093h0a.256.256,0,0,0,.156-.155C309.183,428.074,309.618,427.39,309.991,426.737Zm7.245-1.492a17.464,17.464,0,0,0,1.866,1.119.3.3,0,0,0,.373-.093.852.852,0,0,0,.124-.218c.062-.155.062-.217-.031-.311a.6.6,0,0,0-.28-.155A11.722,11.722,0,0,0,317.236,425.245Zm-4.042-2.767c-.311.715-.684,1.523-1.181,2.456a14.215,14.215,0,0,1,2.736-.56A15.558,15.558,0,0,1,313.194,422.478Zm-.311-5.224c-.124,0-.218.125-.311.4a1.864,1.864,0,0,0-.062.84,7.761,7.761,0,0,0,.529,1.8,6.206,6.206,0,0,0,.4-2.114c-.094-.84-.529-.933-.56-.933Z" fill="#1e70b9"/>
          </g>
        </g>
      </g>
    </g>
  </g>
</svg>
