<svg id="Group_32829" data-name="Group 32829" xmlns="http://www.w3.org/2000/svg" xmlns:xlink="http://www.w3.org/1999/xlink" width="91.031" height="27.016" viewBox="0 0 91.031 27.016">
  <defs>
    <clipPath id="clip-path">
      <path id="Path_101388" data-name="Path 101388" d="M148.1,222.425a10.729,10.729,0,0,1-4.064-4.657,18.687,18.687,0,0,1,0-14.51A10.731,10.731,0,0,1,148.1,198.6a11.777,11.777,0,0,1,11.838,0A10.739,10.739,0,0,1,164,203.258a18.684,18.684,0,0,1,0,14.51,10.737,10.737,0,0,1-4.063,4.657,11.777,11.777,0,0,1-11.838,0Zm8.888-6.216a15.371,15.371,0,0,0,0-11.393,3.348,3.348,0,0,0-5.937,0,15.365,15.365,0,0,0,0,11.393,3.348,3.348,0,0,0,5.938,0Z" transform="translate(-142.569 -197.005)" fill="none"/>
    </clipPath>
    <clipPath id="clip-path-2">
      <path id="Path_101395" data-name="Path 101395" d="M332.227,211.971a7.075,7.075,0,0,1,1.725,4.806,7.836,7.836,0,0,1-1.243,4.268,8.76,8.76,0,0,1-3.785,3.173,14.635,14.635,0,0,1-6.29,1.206,22.475,22.475,0,0,1-5.437-.668,16.081,16.081,0,0,1-4.657-1.893l2.672-5.529a11.97,11.97,0,0,0,3.433,1.6,13.43,13.43,0,0,0,3.767.557,5.573,5.573,0,0,0,3.006-.705,2.24,2.24,0,0,0,1.113-2q0-2.523-3.971-2.523h-3.08v-4.639l4.638-5.01H313.876v-5.678h18.777v4.6l-5.381,5.789A8.645,8.645,0,0,1,332.227,211.971Z" transform="translate(-312.54 -198.927)" fill="none"/>
    </clipPath>
  </defs>
  <g id="Group_32828" data-name="Group 32828" transform="translate(0 0)">
    <path id="Path_101385" data-name="Path 101385" d="M76.534,217.675V223.5H56.309v-4.6l9.723-9.092a9.31,9.31,0,0,0,1.893-2.282,4.175,4.175,0,0,0,.482-1.911,2.411,2.411,0,0,0-.854-1.967,3.821,3.821,0,0,0-2.486-.705,5.51,5.51,0,0,0-2.653.649,5.327,5.327,0,0,0-1.985,1.874l-5.455-3.043a10.674,10.674,0,0,1,4.268-3.971,13.744,13.744,0,0,1,6.494-1.447,13.392,13.392,0,0,1,5.251.965,8.135,8.135,0,0,1,3.562,2.765,7.018,7.018,0,0,1,1.28,4.175,9.02,9.02,0,0,1-.909,3.989,15.293,15.293,0,0,1-3.507,4.249l-4.9,4.527Z" transform="translate(-54.973 -197.005)" fill="#fff"/>
    <path id="Path_101386" data-name="Path 101386" d="M251.587,217.675V223.5H231.362v-4.6l9.723-9.092a9.31,9.31,0,0,0,1.893-2.282,4.175,4.175,0,0,0,.482-1.911,2.411,2.411,0,0,0-.854-1.967,3.821,3.821,0,0,0-2.486-.705,5.51,5.51,0,0,0-2.653.649,5.327,5.327,0,0,0-1.985,1.874l-5.455-3.043a10.675,10.675,0,0,1,4.268-3.971,13.744,13.744,0,0,1,6.494-1.447,13.391,13.391,0,0,1,5.251.965,8.135,8.135,0,0,1,3.563,2.765,7.019,7.019,0,0,1,1.28,4.175,9.02,9.02,0,0,1-.909,3.989,15.294,15.294,0,0,1-3.507,4.249l-4.9,4.527Z" transform="translate(-182.711 -197.005)" fill="#ef1f1f"/>
    <g id="Group_32817" data-name="Group 32817" transform="translate(23.677)">
      <path id="Path_101387" data-name="Path 101387" d="M148.1,222.425a10.729,10.729,0,0,1-4.064-4.657,18.687,18.687,0,0,1,0-14.51A10.731,10.731,0,0,1,148.1,198.6a11.777,11.777,0,0,1,11.838,0A10.739,10.739,0,0,1,164,203.258a18.684,18.684,0,0,1,0,14.51,10.737,10.737,0,0,1-4.063,4.657,11.777,11.777,0,0,1-11.838,0Zm8.888-6.216a15.371,15.371,0,0,0,0-11.393,3.348,3.348,0,0,0-5.937,0,15.365,15.365,0,0,0,0,11.393,3.348,3.348,0,0,0,5.938,0Z" transform="translate(-142.569 -197.005)" fill="#25bb70"/>
      <g id="Group_32816" data-name="Group 32816">
        <g id="Group_32815" data-name="Group 32815" clip-path="url(#clip-path)">
          <g id="Group_32814" data-name="Group 32814" transform="translate(-13.564 -8.513)">
            <g id="Group_32810" data-name="Group 32810" transform="translate(0 0)">
              <rect id="Rectangle_22645" data-name="Rectangle 22645" width="49.913" height="1.184" transform="translate(0 22.662) rotate(-27.003)" fill="#fff0e1"/>
            </g>
            <g id="Group_32811" data-name="Group 32811" transform="translate(1.906 6.353)">
              <rect id="Rectangle_22646" data-name="Rectangle 22646" width="49.913" height="1.184" transform="translate(0 22.662) rotate(-27.003)" fill="#fff0e1"/>
            </g>
            <g id="Group_32812" data-name="Group 32812" transform="translate(3.812 12.706)">
              <rect id="Rectangle_22647" data-name="Rectangle 22647" width="49.913" height="1.184" transform="translate(0 22.662) rotate(-27.003)" fill="#fff0e1"/>
            </g>
            <g id="Group_32813" data-name="Group 32813" transform="translate(5.718 19.06)">
              <rect id="Rectangle_22648" data-name="Rectangle 22648" width="49.913" height="1.184" transform="translate(0 22.662) rotate(-27.003)" fill="#fff0e1"/>
            </g>
          </g>
        </g>
      </g>
    </g>
    <g id="Group_32827" data-name="Group 32827" transform="translate(69.618 0.52)">
      <path id="Path_101389" data-name="Path 101389" d="M332.227,211.971a7.075,7.075,0,0,1,1.725,4.806,7.836,7.836,0,0,1-1.243,4.268,8.76,8.76,0,0,1-3.785,3.173,14.635,14.635,0,0,1-6.29,1.206,22.475,22.475,0,0,1-5.437-.668,16.081,16.081,0,0,1-4.657-1.893l2.672-5.529a11.97,11.97,0,0,0,3.433,1.6,13.43,13.43,0,0,0,3.767.557,5.573,5.573,0,0,0,3.006-.705,2.24,2.24,0,0,0,1.113-2q0-2.523-3.971-2.523h-3.08v-4.639l4.638-5.01H313.876v-5.678h18.777v4.6l-5.381,5.789A8.645,8.645,0,0,1,332.227,211.971Z" transform="translate(-312.54 -198.927)" fill="#1277dc"/>
      <g id="Group_32826" data-name="Group 32826">
        <g id="Group_32825" data-name="Group 32825" clip-path="url(#clip-path-2)">
          <g id="Group_32824" data-name="Group 32824" transform="translate(2.409 -3.825)">
            <g id="Group_32823" data-name="Group 32823">
              <g id="Group_32818" data-name="Group 32818" transform="translate(1.906)">
                <path id="Path_101390" data-name="Path 101390" d="M332.189,192.149a3.686,3.686,0,1,1,3.686-3.686A3.691,3.691,0,0,1,332.189,192.149Zm0-5.295a1.608,1.608,0,1,0,1.608,1.608A1.61,1.61,0,0,0,332.189,186.854Z" transform="translate(-328.502 -184.776)" fill="#4194e8"/>
              </g>
              <g id="Group_32819" data-name="Group 32819" transform="translate(14.613 18.848)">
                <path id="Path_101391" data-name="Path 101391" d="M381,265.482A5.486,5.486,0,1,1,386.487,260,5.493,5.493,0,0,1,381,265.482Zm0-8.894A3.408,3.408,0,1,0,384.408,260,3.411,3.411,0,0,0,381,256.587Z" transform="translate(-375.514 -254.509)" fill="#4194e8"/>
              </g>
              <g id="Group_32820" data-name="Group 32820" transform="translate(10.165 5.506)">
                <path id="Path_101392" data-name="Path 101392" d="M363.7,214.426a4.639,4.639,0,1,1,4.64-4.639A4.644,4.644,0,0,1,363.7,214.426Zm0-7.2a2.561,2.561,0,1,0,2.561,2.561A2.564,2.564,0,0,0,363.7,207.225Z" transform="translate(-359.061 -205.147)" fill="#4194e8"/>
              </g>
              <g id="Group_32821" data-name="Group 32821" transform="translate(0 25.837)">
                <path id="Path_101393" data-name="Path 101393" d="M326.621,290.7a5.169,5.169,0,1,1,5.169-5.169A5.175,5.175,0,0,1,326.621,290.7Zm0-8.26a3.091,3.091,0,1,0,3.091,3.091A3.094,3.094,0,0,0,326.621,282.442Z" transform="translate(-321.452 -280.364)" fill="#4194e8"/>
              </g>
              <g id="Group_32822" data-name="Group 32822" transform="translate(2.118 14.613)">
                <path id="Path_101394" data-name="Path 101394" d="M334.032,248.328a4.745,4.745,0,1,1,4.745-4.745A4.75,4.75,0,0,1,334.032,248.328Zm0-7.412a2.667,2.667,0,1,0,2.667,2.667A2.67,2.67,0,0,0,334.032,240.916Z" transform="translate(-329.287 -238.838)" fill="#4194e8"/>
              </g>
            </g>
          </g>
        </g>
      </g>
    </g>
  </g>
</svg>
