<svg width="245" height="473" viewBox="0 0 245 473" fill="none" xmlns="http://www.w3.org/2000/svg">
<ellipse cx="118.717" cy="353.602" rx="118.717" ry="118.531" fill="#E1EDEC"/>
<path d="M215.839 238.796C182.12 248.018 174.151 245.441 168.146 254.473C167.457 255.513 163.927 260.812 164.645 267.604C165.201 273.02 168.233 277.207 170.123 279.036C181.665 290.205 213.451 276.548 231.658 261.588C235.628 258.323 246.277 249.584 244.124 243.377C243.245 240.83 240.52 239.571 238.558 238.693C229.901 234.829 220.922 237.39 215.839 238.781V238.796Z" fill="url(#paint0_linear_168_1372)"/>
<path d="M111.751 12.3252H118.929V59.3874H111.751V12.3252Z" fill="url(#paint1_linear_168_1372)"/>
<path d="M90.5561 54.4541H140.11C143.766 54.4541 146.73 57.4164 146.73 61.0706V78.7684C146.73 82.4226 143.766 85.3849 140.11 85.3849H90.5561C86.8996 85.3849 83.9353 82.4226 83.9353 78.7684V61.0706C83.9353 57.4164 86.8996 54.4541 90.5561 54.4541Z" fill="url(#paint2_linear_168_1372)"/>
<path d="M135.525 69.2393H95.1561C44.2842 69.2393 2.99205 110.505 2.99205 161.344V188.234C2.99205 216.808 26.2088 239.995 54.7867 239.995H175.88C204.473 239.995 227.675 216.794 227.675 188.234V161.344C227.675 110.505 186.383 69.2393 135.511 69.2393H135.525Z" fill="url(#paint3_linear_168_1372)"/>
<path d="M38.3368 183.331C41.281 184.78 44.5768 185.541 47.9165 185.541H182.75C186.104 185.541 189.4 184.78 192.329 183.331C199.551 179.759 203.623 172.557 202.612 165.165L202.539 164.623C199.082 139.591 176.392 120.342 148.591 118.907C136.829 118.293 124.481 117.985 111.59 118.058C101.498 118.117 91.7427 118.41 82.3534 118.893C54.4347 120.327 31.5841 139.504 28.1126 164.623C28.0833 164.799 28.0687 164.989 28.0394 165.165C27.014 172.557 31.1008 179.759 38.3221 183.331H38.3368Z" fill="url(#paint4_linear_168_1372)"/>
<path style="mix-blend-mode:screen" d="M150.876 180.037C136.832 180.037 125.447 168.66 125.447 154.625C125.447 140.59 136.832 129.213 150.876 129.213C164.92 129.213 176.305 140.59 176.305 154.625C176.305 168.66 164.92 180.037 150.876 180.037Z" fill="url(#paint5_radial_168_1372)"/>
<path d="M150.877 172.864C140.797 172.864 132.626 164.698 132.626 154.625C132.626 144.552 140.797 136.386 150.877 136.386C160.957 136.386 169.128 144.552 169.128 154.625C169.128 164.698 160.957 172.864 150.877 172.864Z" fill="#EEFDFF"/>
<path d="M150.877 169.937C142.415 169.937 135.555 163.082 135.555 154.625C135.555 146.169 142.415 139.313 150.877 139.313C159.339 139.313 166.198 146.169 166.198 154.625C166.198 163.082 159.339 169.937 150.877 169.937Z" fill="url(#paint6_linear_168_1372)"/>
<path d="M141.047 150.658C141.047 153.791 143.596 156.338 146.731 156.338C149.865 156.338 152.414 153.791 152.414 150.658C152.414 147.526 149.865 144.979 146.731 144.979C143.596 144.979 141.047 147.526 141.047 150.658Z" fill="#EEFDFF"/>
<path d="M153.147 168.635C151.893 168.635 150.876 167.619 150.876 166.366C150.876 165.113 151.893 164.097 153.147 164.097C154.4 164.097 155.417 165.113 155.417 166.366C155.417 167.619 154.4 168.635 153.147 168.635Z" fill="#EEFDFF"/>
<path d="M158.756 162.969C158.756 163.598 159.269 164.096 159.884 164.096C160.499 164.096 161.012 163.584 161.012 162.969C161.012 162.354 160.499 161.842 159.884 161.842C159.269 161.842 158.756 162.354 158.756 162.969Z" fill="#EEFDFF"/>
<path style="mix-blend-mode:screen" d="M82.1915 180.037C68.1477 180.037 56.7629 168.66 56.7629 154.625C56.7629 140.59 68.1477 129.213 82.1915 129.213C96.2353 129.213 107.62 140.59 107.62 154.625C107.62 168.66 96.2353 180.037 82.1915 180.037Z" fill="url(#paint7_radial_168_1372)"/>
<path d="M82.1912 172.864C72.1114 172.864 63.94 164.698 63.94 154.625C63.94 144.552 72.1114 136.386 82.1912 136.386C92.2711 136.386 100.442 144.552 100.442 154.625C100.442 164.698 92.2711 172.864 82.1912 172.864Z" fill="#EEFDFF"/>
<path d="M82.1921 169.937C73.7302 169.937 66.8705 163.082 66.8705 154.625C66.8705 146.169 73.7302 139.313 82.1921 139.313C90.654 139.313 97.5137 146.169 97.5137 154.625C97.5137 163.082 90.654 169.937 82.1921 169.937Z" fill="url(#paint8_linear_168_1372)"/>
<path d="M72.3628 150.658C72.3628 153.791 74.9115 156.338 78.0461 156.338C81.1808 156.338 83.7295 153.791 83.7295 150.658C83.7295 147.526 81.1808 144.979 78.0461 144.979C74.9115 144.979 72.3628 147.526 72.3628 150.658Z" fill="#EEFDFF"/>
<path d="M84.4474 168.635C83.1935 168.635 82.177 167.619 82.177 166.366C82.177 165.113 83.1935 164.097 84.4474 164.097C85.7013 164.097 86.7178 165.113 86.7178 166.366C86.7178 167.619 85.7013 168.635 84.4474 168.635Z" fill="#EEFDFF"/>
<path d="M90.0714 162.969C90.0714 163.598 90.5841 164.096 91.1993 164.096C91.8145 164.096 92.3271 163.584 92.3271 162.969C92.3271 162.354 91.8145 161.842 91.1993 161.842C90.5841 161.842 90.0714 162.354 90.0714 162.969Z" fill="#EEFDFF"/>
<path d="M106.141 9.19287C106.141 14.2724 110.257 18.3857 115.34 18.3857C120.423 18.3857 124.539 14.2724 124.539 9.19287C124.539 4.11337 120.423 0 115.34 0C110.257 0 106.141 4.11337 106.141 9.19287Z" fill="url(#paint9_linear_168_1372)"/>
<path d="M108.94 5.60647C108.94 7.15813 110.199 8.40239 111.737 8.40239C113.275 8.40239 114.535 7.14349 114.535 5.60647C114.535 4.06944 113.275 2.81055 111.737 2.81055C110.199 2.81055 108.94 4.06944 108.94 5.60647Z" fill="white"/>
<path d="M36.1693 98.7059C36.0521 102.995 39.5529 108.118 43.5664 108.557C47.3309 108.967 50.3337 105.132 53.4244 101.165C56.4711 97.2567 63.1505 87.2294 60.4993 84.3896C56.9985 80.6422 36.4476 88.5762 36.1693 98.6912V98.7059Z" fill="white"/>
<path d="M70.547 82.355C68.7834 82.355 67.3538 80.9262 67.3538 79.1638C67.3538 77.4014 68.7834 75.9727 70.547 75.9727C72.3106 75.9727 73.7402 77.4014 73.7402 79.1638C73.7402 80.9262 72.3106 82.355 70.547 82.355Z" fill="white"/>
<path d="M36.6227 158.212C37.648 158.929 44.7961 144.378 63.9848 131.775C70.7228 127.339 77.3875 124.178 76.992 123.255C76.5965 122.318 69.0969 124.06 63.0912 126.842C43.9612 135.713 35.4069 157.363 36.6373 158.212H36.6227Z" fill="white"/>
<path d="M85.7522 63.6032C85.9866 63.6325 86.133 62.3004 87.2463 60.2217C87.2463 60.2217 87.7736 59.2556 88.3742 58.4359C90.3077 55.7863 96.8259 55.8449 97.3386 55.8449C107.504 55.9327 114.052 55.2886 114.052 55.3472C114.052 55.4057 109.277 55.3033 105.79 55.2301C95.9324 55.0251 90.0587 54.4982 87.5392 57.1331C86.4992 58.2309 85.9719 59.6508 85.9719 59.6508C85.2542 61.5831 85.5032 63.5593 85.7668 63.5886L85.7522 63.6032Z" fill="white"/>
<path d="M87.8753 196.461C88.1243 198.891 90.1457 200.765 92.5919 200.999L126.267 204.248C128.699 204.483 131.057 203.034 131.76 200.691C132.082 199.652 132.317 198.583 132.478 197.471C132.522 197.164 132.449 196.856 132.258 196.607C132.068 196.358 131.789 196.212 131.482 196.183L88.9885 192.084C88.6809 192.055 88.388 192.157 88.1536 192.348C87.9192 192.552 87.7874 192.831 87.7728 193.138C87.7288 194.251 87.7581 195.363 87.8607 196.446L87.8753 196.461Z" fill="#EEFDFF"/>
<path d="M87.8759 196.461C88.9452 206.898 97.2505 215.476 108.105 216.515C118.797 217.555 128.465 210.924 131.629 201.101C130.779 203.195 128.568 204.483 126.268 204.249L92.5778 201.013C90.1463 200.765 88.1249 198.906 87.8759 196.476V196.461Z" fill="url(#paint10_linear_168_1372)"/>
<path d="M34.8066 272.053C34.8066 272.361 34.8066 272.654 34.8066 272.946C34.9092 275.772 35.5683 277.894 35.8906 278.846C45.1627 307.142 50.7142 322.073 58.5068 334.149C59.8544 336.228 61.2606 338.233 62.784 340.195C64.7761 342.815 66.9586 345.377 69.3755 348.012C74.7512 353.867 82.8954 356.517 85.5174 357.424C95.1117 360.806 103.593 360.191 109.218 360.249H110.199C115.853 360.191 124.319 360.82 133.899 357.424C136.521 356.517 144.68 353.867 150.041 348.012C164.835 331.924 170.533 318.545 183.526 278.846C183.833 277.938 184.449 275.962 184.595 273.312C184.639 272.551 184.654 271.775 184.595 271.014C184.317 266.271 182.383 261.616 178.97 257.371C173.111 250.081 164.074 246.085 154.728 246.056L109.672 245.865L65.4352 245.69C55.8848 245.646 46.6274 249.657 40.5632 257.035C37.6337 260.606 35.7588 264.471 35.0703 268.452C34.9824 269.023 34.8945 269.594 34.836 270.165C34.7774 270.795 34.7481 271.424 34.7481 272.068L34.8066 272.053Z" fill="url(#paint11_linear_168_1372)"/>
<path d="M109.745 245.851L154.802 246.041C164.147 246.085 173.2 250.081 179.044 257.357C182.457 261.602 184.391 266.257 184.669 270.999C184.435 266.14 182.442 261.353 178.868 257.02C172.819 249.642 163.547 245.631 153.996 245.675L109.745 245.851Z" fill="url(#paint12_linear_168_1372)"/>
<path d="M64.9516 312.192C65.6107 277.265 70.342 270.355 63.3696 262.041C62.564 261.089 58.4772 256.215 51.7539 254.97C46.3928 253.975 41.5297 255.688 39.23 257.005C25.2413 264.925 29.4013 299.251 38.6002 320.916C40.6069 325.644 45.9973 338.321 52.5595 338.014C55.2547 337.897 57.2322 335.628 58.6237 334.003C64.7904 326.801 64.849 317.461 64.9516 312.192Z" fill="url(#paint13_linear_168_1372)"/>
<path d="M58.5214 334.149C59.869 336.228 61.2752 338.234 62.7986 340.195C63.282 339.697 63.7067 339.2 64.1022 338.746C70.269 331.544 70.3275 322.205 70.4301 316.935C71.0892 282.008 75.8205 275.098 68.8481 266.799C68.3354 266.184 66.4605 263.959 63.4284 262.114C70.3129 270.4 65.6256 277.367 64.9664 312.192C64.8786 317.462 64.7907 326.801 58.6386 334.018C58.5947 334.062 58.5507 334.106 58.5361 334.149H58.5214Z" fill="url(#paint14_linear_168_1372)"/>
<path d="M38.8056 283.105C39.0106 279.357 39.7137 276.591 41.1199 271.072C42.9655 263.855 45.2799 260.328 43.7712 258.937C42.7898 258.029 40.8709 258.644 40.4315 258.776C33.8253 260.884 31.7746 273.268 32.0676 281.026C32.2433 285.769 33.4005 291.083 35.1436 291.317C35.4219 291.361 36.0957 291.317 36.5937 290.892C38.5419 289.18 38.6591 285.974 38.8202 283.12L38.8056 283.105Z" fill="white"/>
<path d="M34.2648 296.353C34.2648 297.114 34.88 297.729 35.6417 297.729C36.4033 297.729 37.0186 297.114 37.0186 296.353C37.0186 295.591 36.4033 294.977 35.6417 294.977C34.88 294.977 34.2648 295.591 34.2648 296.353Z" fill="white"/>
<path d="M111.751 423.34C72.0547 423.34 39.8743 410.174 39.8743 393.932C39.8743 377.69 72.0547 364.523 111.751 364.523C151.448 364.523 183.628 377.69 183.628 393.932C183.628 410.174 151.448 423.34 111.751 423.34Z" fill="#CCE2E1" fill-opacity="0.51" style="mix-blend-mode:soft-light"/>
<defs>
<linearGradient id="paint0_linear_168_1372" x1="237" y1="247.521" x2="156.006" y2="291.856" gradientUnits="userSpaceOnUse">
<stop offset="0.04" stop-color="#FFCCBF"/>
<stop offset="1" stop-color="#49E1D2"/>
</linearGradient>
<linearGradient id="paint1_linear_168_1372" x1="129.959" y1="37.9862" x2="108.441" y2="34.8496" gradientUnits="userSpaceOnUse">
<stop offset="0.04" stop-color="#36E4D4"/>
<stop offset="1" stop-color="#E9CEC1"/>
</linearGradient>
<linearGradient id="paint2_linear_168_1372" x1="135.452" y1="92.6162" x2="97.2779" y2="49.4818" gradientUnits="userSpaceOnUse">
<stop offset="0.04" stop-color="#31E4D4"/>
<stop offset="1" stop-color="#E7CFC1"/>
</linearGradient>
<linearGradient id="paint3_linear_168_1372" x1="190.792" y1="241.913" x2="39.5045" y2="90.5279" gradientUnits="userSpaceOnUse">
<stop offset="0.04" stop-color="#31E4D4"/>
<stop offset="1" stop-color="#FFCCBF"/>
</linearGradient>
<linearGradient id="paint4_linear_168_1372" x1="115.736" y1="185.336" x2="114.39" y2="124.821" gradientUnits="userSpaceOnUse">
<stop stop-color="#030D14"/>
<stop offset="1" stop-color="#0B2F45"/>
</linearGradient>
<radialGradient id="paint5_radial_168_1372" cx="0" cy="0" r="1" gradientUnits="userSpaceOnUse" gradientTransform="translate(150.876 154.625) rotate(180) scale(25.1649 25.1486)">
<stop offset="0.13" stop-color="#3280FC"/>
<stop offset="1"/>
</radialGradient>
<linearGradient id="paint6_linear_168_1372" x1="166.198" y1="154.625" x2="135.54" y2="154.625" gradientUnits="userSpaceOnUse">
<stop stop-color="#030D14"/>
<stop offset="1" stop-color="#0B2F45"/>
</linearGradient>
<radialGradient id="paint7_radial_168_1372" cx="0" cy="0" r="1" gradientUnits="userSpaceOnUse" gradientTransform="translate(82.1915 0.73228) rotate(180) scale(25.1649 25.1486)">
<stop offset="0.13" stop-color="#3280FC"/>
<stop offset="1"/>
</radialGradient>
<linearGradient id="paint8_linear_168_1372" x1="97.5137" y1="154.625" x2="66.8558" y2="154.625" gradientUnits="userSpaceOnUse">
<stop stop-color="#030D14"/>
<stop offset="1" stop-color="#0B2F45"/>
</linearGradient>
<linearGradient id="paint9_linear_168_1372" x1="115" y1="19.9212" x2="106.234" y2="7.8361" gradientUnits="userSpaceOnUse">
<stop stop-color="#6DDDCE"/>
<stop offset="1" stop-color="#FFCCBF"/>
</linearGradient>
<linearGradient id="paint10_linear_168_1372" x1="116.263" y1="208.83" x2="72.4508" y2="165.004" gradientUnits="userSpaceOnUse">
<stop offset="0.07" stop-color="#0DA9AB"/>
<stop offset="1" stop-color="#DEFA8E"/>
</linearGradient>
<linearGradient id="paint11_linear_168_1372" x1="157.658" y1="341.761" x2="41.6167" y2="206.165" gradientUnits="userSpaceOnUse">
<stop offset="0.04" stop-color="#FFCCBF"/>
<stop offset="1" stop-color="#3EE3D3"/>
</linearGradient>
<linearGradient id="paint12_linear_168_1372" x1="163.81" y1="274.191" x2="94.0219" y2="192.654" gradientUnits="userSpaceOnUse">
<stop offset="0.04" stop-color="#06CFF1"/>
<stop offset="1" stop-color="#DEFA8E"/>
</linearGradient>
<linearGradient id="paint13_linear_168_1372" x1="13.777" y1="321.494" x2="70.4639" y2="273.377" gradientUnits="userSpaceOnUse">
<stop offset="0.04" stop-color="#36E4D4"/>
<stop offset="1" stop-color="#FDCCBF"/>
</linearGradient>
<linearGradient id="paint14_linear_168_1372" x1="90.3804" y1="315.354" x2="36.9898" y2="300.848" gradientUnits="userSpaceOnUse">
<stop offset="0.305255" stop-color="#FCC6B8"/>
<stop offset="1" stop-color="#29C8BA"/>
</linearGradient>
</defs>
</svg>
