<svg width="96" height="96" viewBox="0 0 96 96" fill="none" xmlns="http://www.w3.org/2000/svg">
<path d="M47.8703 95.436C74.2534 95.436 95.6411 74.0719 95.6411 47.718C95.6411 21.3641 74.2534 0 47.8703 0C21.4873 0 0.0996094 21.3641 0.0996094 47.718C0.0996094 74.0719 21.4873 95.436 47.8703 95.436Z" fill="black"/>
<path d="M68.9174 66.0205H26.8413C25.6496 66.0173 24.5079 65.5429 23.6666 64.7009C22.8253 63.859 22.353 62.7184 22.3535 61.5295V34.0925C22.3527 32.9036 22.8248 31.7631 23.6662 30.9211C24.5076 30.0791 25.6495 29.6045 26.8413 29.6016H68.9174C70.109 29.6045 71.2507 30.0789 72.0921 30.9207C72.9334 31.7624 73.4057 32.9028 73.4051 34.0916V61.5295C73.4054 62.7183 72.9331 63.8588 72.0918 64.7007C71.2506 65.5426 70.109 66.0171 68.9174 66.0205ZM70.412 34.0916C70.412 33.6953 70.2549 33.3152 69.9748 33.0342C69.6948 32.7531 69.3146 32.5939 68.9174 32.5916H26.8413C26.444 32.5939 26.064 32.7531 25.7839 33.0342C25.5039 33.3152 25.3467 33.6953 25.3467 34.0916V37.0286H70.414L70.412 34.0916ZM70.412 40.0217H25.3446V61.5295C25.3446 61.9258 25.5018 62.3061 25.7818 62.5872C26.0619 62.8682 26.4421 63.0272 26.8393 63.0295H68.9154C69.3126 63.0272 69.6927 62.8682 69.9728 62.5872C70.2528 62.3061 70.41 61.9258 70.41 61.5295L70.412 40.0217ZM59.6213 56.8215C59.2238 56.8197 58.8431 56.661 58.5627 56.3799C58.2822 56.0988 58.1247 55.7181 58.1247 55.3215V45.4487C58.1174 45.2482 58.1506 45.048 58.2225 44.8606C58.2943 44.6732 58.4032 44.5021 58.5428 44.3577C58.6824 44.2132 58.8499 44.0985 59.035 44.02C59.2201 43.9415 59.4191 43.9009 59.6202 43.9009C59.8214 43.9009 60.0205 43.9415 60.2056 44.02C60.3907 44.0985 60.5581 44.2132 60.6977 44.3577C60.8373 44.5021 60.9462 44.6732 61.0181 44.8606C61.0899 45.048 61.1232 45.2482 61.1159 45.4487V55.3206C61.1135 55.7141 60.9563 56.091 60.678 56.3699C60.3998 56.6488 60.0227 56.8073 59.6283 56.8115L59.6213 56.8215ZM51.7936 52.4856H49.3699V55.3247C49.3772 55.5252 49.3441 55.7252 49.2722 55.9126C49.2004 56.1 49.0914 56.2711 48.9518 56.4155C48.8122 56.56 48.6447 56.6749 48.4596 56.7534C48.2745 56.8319 48.0755 56.8723 47.8744 56.8723C47.6732 56.8723 47.4741 56.8319 47.289 56.7534C47.1039 56.6749 46.9365 56.56 46.7968 56.4155C46.6572 56.2711 46.5483 56.1 46.4765 55.9126C46.4047 55.7252 46.3714 55.5252 46.3787 55.3247V45.4526C46.3787 45.0564 46.5359 44.6761 46.8159 44.395C47.096 44.114 47.4761 43.955 47.8733 43.9526H51.7826C52.9063 43.9698 53.9782 44.4273 54.7668 45.2261C55.5553 46.0249 55.9973 47.101 55.9973 48.2222C55.9973 49.3433 55.5553 50.4194 54.7668 51.2183C53.9782 52.0171 52.9063 52.4745 51.7826 52.4917L51.7936 52.4856ZM51.7936 46.9426H49.3699V49.4917H51.7936C52.1262 49.4824 52.4421 49.344 52.6741 49.106C52.9061 48.868 53.0359 48.549 53.0359 48.217C53.0359 47.8851 52.9061 47.5664 52.6741 47.3284C52.4421 47.0904 52.1262 46.9519 51.7936 46.9426ZM42.8203 56.8147C42.4228 56.8128 42.0421 56.6539 41.7617 56.3728C41.4812 56.0917 41.3237 55.7113 41.3237 55.3147V52.4756H37.6339V55.3147C37.6413 55.5152 37.6081 55.7152 37.5363 55.9026C37.4644 56.09 37.3554 56.2611 37.2158 56.4055C37.0762 56.55 36.9088 56.6649 36.7237 56.7434C36.5386 56.8219 36.3396 56.8623 36.1384 56.8623C35.9373 56.8623 35.7382 56.8219 35.553 56.7434C35.3679 56.6649 35.2006 56.55 35.061 56.4055C34.9214 56.2611 34.8124 56.09 34.7406 55.9026C34.6687 55.7152 34.6354 55.5152 34.6428 55.3147V48.7805C34.6611 47.5127 35.1787 46.3032 36.0838 45.4131C36.989 44.523 38.2089 44.0242 39.4799 44.0242C40.7508 44.0242 41.9706 44.523 42.8758 45.4131C43.7809 46.3032 44.2985 47.5127 44.3168 48.7805V55.3147C44.3168 55.7106 44.16 56.0903 43.8804 56.3713C43.6008 56.6523 43.2211 56.8118 42.8243 56.8147H42.8203ZM41.3237 48.7837C41.3295 48.5383 41.2859 48.2941 41.1957 48.0657C41.1056 47.8372 40.9705 47.629 40.7986 47.4534C40.6266 47.2778 40.4211 47.1382 40.1943 47.043C39.9675 46.9477 39.7239 46.8987 39.4778 46.8987C39.2317 46.8987 38.9882 46.9477 38.7614 47.043C38.5346 47.1382 38.3291 47.2778 38.1571 47.4534C37.9852 47.629 37.8501 47.8372 37.76 48.0657C37.6698 48.2941 37.6262 48.5383 37.632 48.7837V49.4836H41.3237V48.7837Z" fill="white"/>
</svg>
