<svg width="346" height="224" viewBox="0 0 346 224" fill="none" xmlns="http://www.w3.org/2000/svg">
<g clip-path="url(#clip0_31_821)">
<path fill-rule="evenodd" clip-rule="evenodd" d="M103.629 44.1785H172.359C217.634 44.1785 254.668 81.1356 254.668 126.299V136.463C254.668 181.627 217.312 213.224 172.359 218.572C139.831 222.453 133.724 222.807 103.629 218.572C58.8026 212.276 21.3275 181.622 21.3275 136.463V126.299C21.3275 81.1356 58.3618 44.1785 103.629 44.1785Z" fill="#EBEBEE"/>
<path fill-rule="evenodd" clip-rule="evenodd" d="M18.6375 110.669C12.3883 111.54 8.21258 116.114 6.20433 121.799C5.28184 124.417 4.79611 127.268 4.77978 130.106C4.76345 132.937 5.19612 135.775 6.10229 138.398C8.03298 144.01 12.1842 148.514 18.6375 149.401V110.669ZM103.629 41.7838H172.359C195.654 41.7838 216.838 51.2929 232.186 66.6052C242.868 77.2627 250.729 90.7261 254.513 105.757L254.938 105.749C264.91 105.656 271.42 112.021 274.31 120.21C275.404 123.314 275.971 126.702 275.996 130.082C276.012 133.47 275.498 136.85 274.437 139.953C271.649 148.025 265.253 154.305 255.073 154.354C251.668 169.242 244.052 182.217 233.541 192.703C218.099 208.109 196.396 218.123 172.644 220.946C156.329 222.888 146.631 223.947 137.084 223.996C127.573 224.037 118.442 223.067 103.294 220.938C79.477 217.59 57.6556 207.49 42.1855 192.06C31.8259 181.724 24.3113 169.022 20.9233 154.349C10.7351 154.301 4.33078 148.021 1.55106 139.949C0.493874 136.85 -0.0245167 133.47 -2.58065e-05 130.082C0.0244651 126.702 0.583674 123.314 1.68576 120.21C4.57569 112.021 11.078 105.66 21.0581 105.749L21.4744 105.757C25.2705 90.722 33.128 77.2627 43.8101 66.6052C59.1577 51.2929 80.3342 41.7838 103.629 41.7838ZM269.796 121.799C267.787 116.114 263.603 111.54 257.354 110.669V149.401C263.808 148.514 267.967 144.01 269.898 138.398C270.796 135.779 271.237 132.937 271.22 130.106C271.196 127.268 270.722 124.417 269.796 121.799ZM172.359 46.5689H103.629C81.6567 46.5689 61.6843 55.5364 47.198 69.9853C32.7116 84.4464 23.7276 104.373 23.7276 126.295V136.459C23.7276 157.453 32.0871 175.208 45.5898 188.672C60.3292 203.377 81.1587 213 103.96 216.213C118.911 218.311 127.879 219.272 137.071 219.231C146.235 219.19 155.86 218.132 172.081 216.205C194.776 213.501 215.467 203.968 230.157 189.315C243.811 175.693 252.272 157.607 252.272 136.463V126.299C252.272 104.377 243.284 84.4505 228.794 69.9894C214.307 55.5404 194.335 46.573 172.363 46.573L172.359 46.5689Z" fill="black"/>
<path fill-rule="evenodd" clip-rule="evenodd" d="M90.204 104.067C123.377 112.4 155.599 111.777 187.065 104.067C203.254 100.105 217.365 117.665 217.365 134.297C217.365 150.929 203.066 159.88 187.065 164.518C155.582 173.661 123.393 174.801 90.204 164.518C74.2972 159.591 59.9128 150.921 59.9128 134.297C59.9128 117.673 74.0482 100.011 90.204 104.067Z" fill="#373333"/>
<path fill-rule="evenodd" clip-rule="evenodd" d="M90.6694 102.21C107.111 106.344 123.299 108.254 139.263 108.176C155.231 108.099 171.004 106.03 186.604 102.21H186.612C188.347 101.787 190.053 101.583 191.702 101.583C198.115 101.583 204.001 104.524 208.679 109.121C213.254 113.625 216.675 119.742 218.275 126.234C218.928 128.897 219.283 131.609 219.283 134.297C219.283 142.401 216.116 148.815 211.067 153.853C205.144 159.77 196.617 163.732 187.596 166.351C171.689 170.965 155.603 173.567 139.28 173.702C122.957 173.852 106.421 171.539 89.6407 166.343C81.4567 163.806 73.64 160.291 67.8275 155.229C61.8395 150.016 57.9863 143.228 57.9863 134.297C57.9863 131.532 58.3577 128.746 59.0435 126.014C60.668 119.583 64.0845 113.507 68.6398 109.036C73.2972 104.479 79.1341 101.563 85.4977 101.563C87.1835 101.563 88.9101 101.766 90.6653 102.206L90.6694 102.21ZM139.284 111.996C122.977 112.074 106.47 110.127 89.7469 105.928C88.3141 105.566 86.8937 105.395 85.5018 105.395C80.2158 105.395 75.2932 107.879 71.3297 111.76C67.2806 115.739 64.2233 121.176 62.7661 126.946C62.1579 129.353 61.8273 131.841 61.8273 134.297C61.8273 141.978 65.1743 147.846 70.3501 152.358C75.7054 157.017 83.0404 160.303 90.7714 162.694C107.172 167.78 123.324 170.036 139.255 169.894C155.199 169.76 170.95 167.214 186.539 162.694C194.992 160.234 202.931 156.557 208.352 151.149C212.724 146.795 215.442 141.277 215.442 134.297C215.442 131.898 215.136 129.487 214.561 127.138C213.128 121.33 210.071 115.857 205.997 111.842C202.005 107.92 197.041 105.419 191.706 105.419C190.327 105.419 188.927 105.578 187.523 105.916V105.924C171.657 109.801 155.578 111.907 139.284 111.992V111.996Z" fill="black"/>
<path fill-rule="evenodd" clip-rule="evenodd" d="M93.7266 40.6884C107.119 33.7653 120.952 30.0838 134.81 29.6359C135.108 29.6277 135.345 29.2571 135.369 28.7644L136.3 11.9534V11.9453C134.826 11.2937 133.802 9.83984 133.802 8.14165C133.802 5.86109 135.675 4 137.994 4C140.312 4 142.194 5.86109 142.194 8.14165C142.194 9.83984 141.17 11.2937 139.688 11.9453V11.9534L140.618 28.7888C140.651 29.2693 140.88 29.644 141.178 29.6521C155.044 30.1938 168.877 33.977 182.269 40.9938C182.539 41.1363 182.71 41.5843 182.661 42.0486C182.62 42.521 182.392 42.8671 182.102 42.859C172.359 42.8345 142.961 42.7327 93.8899 42.5536C93.6082 42.5536 93.3715 42.2074 93.3225 41.7431C93.2899 41.2707 93.449 40.8228 93.7307 40.6884H93.7266Z" fill="black"/>
<path fill-rule="evenodd" clip-rule="evenodd" d="M72.9094 49.5337C76.8565 67.1713 79.9301 85.6275 81.2118 105.236C80.2362 105.362 79.2974 105.558 78.3749 105.81C77.1218 86.2221 74.0563 67.774 70.1174 50.1527L72.9134 49.5337H72.9094ZM79.526 161.782C77.6443 176.699 74.5462 192.28 69.9215 208.635L67.1581 207.857C71.7828 191.486 74.8768 175.897 76.7381 160.963C77.6361 161.301 78.5668 161.578 79.526 161.782Z" fill="#162537"/>
<path fill-rule="evenodd" clip-rule="evenodd" d="M205.887 50.1527C201.94 67.774 198.874 86.2221 197.629 105.81C196.707 105.558 195.756 105.362 194.792 105.236C196.062 85.6316 199.139 67.1713 203.087 49.5337L205.891 50.1527H205.887ZM199.262 160.963C201.115 175.897 204.209 191.49 208.842 207.857L206.07 208.635C201.454 192.284 198.344 176.699 196.466 161.782C197.421 161.578 198.356 161.301 199.262 160.963Z" fill="black"/>
<path fill-rule="evenodd" clip-rule="evenodd" d="M21.2132 108.136C-3.13892 107.891 -4.16345 151.963 21.2132 151.963C18.8172 135.238 18.3151 123.187 21.2132 108.136Z" fill="#EBEBEE"/>
<path fill-rule="evenodd" clip-rule="evenodd" d="M254.779 108.136C279.131 107.891 280.163 151.963 254.779 151.963C257.183 135.238 257.685 123.187 254.779 108.136Z" fill="#EBEBEE"/>
<path fill-rule="evenodd" clip-rule="evenodd" d="M78.1504 102.886C76.9381 85.6723 74.2278 69.3256 70.8154 53.6509C61.9742 57.65 53.9861 63.2251 47.198 69.9853C32.7117 84.4465 23.7276 104.373 23.7276 126.295V136.459C23.7276 157.453 32.0872 175.208 45.5898 188.672C52.0268 195.102 59.6272 200.555 68.0561 204.925C71.995 190.439 75.0115 174.536 76.7708 161.191C71.8644 158.536 69.0806 156.956 63.0477 150.069C59.8721 145.732 57.9903 140.536 57.9903 134.301C57.9903 131.536 58.3618 128.75 59.0475 126.018C60.6721 119.587 64.0886 113.511 68.6439 109.04C71.4399 106.311 74.6482 104.173 78.1504 102.886Z" fill="#C2C5C6"/>
<path fill-rule="evenodd" clip-rule="evenodd" d="M73.493 52.4943C76.934 68.2709 79.6443 84.7275 80.9628 102.068C81.4363 101.958 81.922 101.872 82.4036 101.799C83.8935 84.8375 93.1184 61.2419 111.009 46.5731C93.4409 45.4735 79.3545 49.8758 73.493 52.4984V52.4943Z" fill="#C2C5C6"/>
<path fill-rule="evenodd" clip-rule="evenodd" d="M82.1057 163.659C81.2934 163.313 80.3791 162.914 79.4688 162.511C77.6728 176.023 74.6156 191.531 70.5991 206.204C80.7791 211.131 92.1388 214.552 103.956 216.218C118.907 218.315 127.875 219.276 137.067 219.235C146.231 219.195 155.856 218.136 172.077 216.209C183.927 214.8 195.237 211.518 205.425 206.627C204.781 204.285 204.172 201.952 203.589 199.639C151.978 205.401 86.2283 221.618 82.1057 163.663V163.659Z" fill="#C2C5C6"/>
<path fill-rule="evenodd" clip-rule="evenodd" d="M206.462 199.313C206.972 201.3 207.495 203.3 208.046 205.32C212.458 203.039 216.634 200.445 220.549 197.562C215.744 198.193 211.054 198.78 206.462 199.313Z" fill="#C2C5C6"/>
<path fill-rule="evenodd" clip-rule="evenodd" d="M14.4251 148.192C6.54724 134.501 8.8004 121.013 18.0498 108.372C16.9477 108.584 15.2782 108.946 13.9516 109.581C-1.74293 116.578 -1.49802 146.807 16.4089 151.381C15.7068 150.314 15.0374 149.251 14.4251 148.196V148.192Z" fill="#C2C5C6"/>
<path fill-rule="evenodd" clip-rule="evenodd" d="M258.836 149.133C262.375 133.784 262.501 121.09 259.232 111.06C258.934 110.164 258.611 109.284 258.264 108.425C257.162 108.229 255.995 108.128 254.775 108.136C257.681 123.187 257.179 135.238 254.775 151.963C255.987 151.963 257.13 151.861 258.224 151.666C258.436 150.811 258.64 149.968 258.832 149.133H258.836Z" fill="#C2C5C6"/>
<path fill-rule="evenodd" clip-rule="evenodd" d="M188.706 137.046C188.233 134.875 187.139 132.929 185.625 131.41C183.551 129.349 180.686 128.07 177.526 128.07C174.367 128.07 171.506 129.345 169.436 131.41C167.914 132.929 166.82 134.875 166.346 137.046C166.032 138.483 164.787 139.489 163.313 139.489C162.346 139.489 161.509 139.082 160.901 138.333C160.293 137.579 160.081 136.683 160.285 135.739C161.019 132.375 162.705 129.382 165.052 127.044C168.244 123.851 172.657 121.88 177.53 121.88C182.404 121.88 186.812 123.851 190.008 127.044C192.364 129.386 194.049 132.375 194.776 135.739C194.988 136.683 194.768 137.579 194.156 138.333C193.547 139.086 192.715 139.489 191.743 139.489C190.27 139.489 189.025 138.483 188.71 137.046H188.706Z" fill="#F95B33"/>
<path fill-rule="evenodd" clip-rule="evenodd" d="M110.931 137.046C110.458 134.875 109.356 132.929 107.842 131.41C105.768 129.349 102.911 128.07 99.7513 128.07C96.592 128.07 93.7307 129.345 91.6612 131.41C90.1346 132.929 89.0447 134.875 88.5672 137.046C88.2529 138.483 87.0079 139.489 85.5344 139.489C84.5588 139.489 83.7302 139.082 83.122 138.333C82.5138 137.579 82.3016 136.683 82.5016 135.739C83.2322 132.375 84.9262 129.382 87.2692 127.044C90.4611 123.851 94.8736 121.88 99.7473 121.88C104.621 121.88 109.029 123.851 112.225 127.044C114.572 129.386 116.258 132.375 116.993 135.739C117.197 136.683 116.985 137.579 116.372 138.333C115.764 139.086 114.923 139.489 113.96 139.489C112.478 139.489 111.242 138.483 110.927 137.046H110.931Z" fill="#F95B33"/>
</g>
<path d="M252.792 84.4474C251.536 84.4474 250.284 84.0452 249.214 83.246C247.184 81.7287 246.334 79.1801 247.052 76.7503L252.778 57.3629C247.751 51.1102 245 43.332 245 35.2758C245 15.8236 260.824 0 280.276 0H310.724C330.176 0 346 15.8236 346 35.2758C346 54.7279 330.176 70.5515 310.724 70.5515H280.276C278.961 70.5515 277.63 70.4759 276.302 70.3247L256.056 83.4701C255.049 84.1235 253.917 84.4474 252.789 84.4474H252.792ZM280.276 6.14477C264.215 6.14477 251.147 19.2119 251.147 35.2758C251.147 42.406 253.755 49.2716 258.494 54.6037C259.198 55.3975 259.444 56.4963 259.144 57.5141L253.07 78.084L273.907 64.5552C274.533 64.1476 275.287 63.9829 276.024 64.0909C277.441 64.2987 278.875 64.404 280.278 64.404H310.727C326.788 64.404 339.858 51.3369 339.858 35.2758C339.858 19.2146 326.785 6.14477 310.724 6.14477H280.276Z" fill="#F95B33"/>
<path d="M275.532 44.096H270.332V23.8717H286.367V27.916H275.532V32.6839H284.056V36.7282H275.532V44.096Z" fill="black"/>
<path d="M290.268 44.096H284.633L292.29 23.8717H298.067L305.724 44.096H300.09L298.788 40.4837H291.566L290.265 44.096H290.268ZM292.868 36.7282H297.49L295.179 29.9382L292.868 36.7282Z" fill="black"/>
<path d="M312.66 44.3876H311.793C309.771 44.3876 308.302 43.9313 307.387 43.0161C306.472 42.1009 306.016 40.6322 306.016 38.61V29.3659C306.016 27.3437 306.472 25.875 307.387 24.9598C308.302 24.0445 309.771 23.5883 311.793 23.5883H319.015C321.038 23.5883 322.506 24.0472 323.421 24.9598C324.337 25.875 324.793 27.3437 324.793 29.3659V38.61C324.793 40.6322 324.334 42.1009 323.421 43.0161C322.506 43.9313 321.038 44.3876 319.015 44.3876H317.571V44.6765C317.571 44.9654 317.668 45.2057 317.86 45.3973C318.052 45.589 318.292 45.6862 318.583 45.6862H320.751V48.7343C320.346 48.8045 319.933 48.8639 319.509 48.9098C319.142 48.9557 318.743 48.98 318.311 48.98H316.996C315.686 48.98 314.636 48.5858 313.848 47.8029C313.057 47.0172 312.663 45.9751 312.663 44.6738V44.3876H312.66ZM319.593 29.3632C319.593 28.2076 319.015 27.6299 317.86 27.6299H312.949C311.793 27.6299 311.216 28.2076 311.216 29.3632V38.6073C311.216 39.7628 311.793 40.3406 312.949 40.3406H317.86C319.015 40.3406 319.593 39.7628 319.593 38.6073V29.3632Z" fill="black"/>
<defs>
<clipPath id="clip0_31_821">
<rect width="276" height="220" fill="white" transform="translate(0 4)"/>
</clipPath>
</defs>
</svg>
