<svg width="19" height="19" viewBox="0 0 19 19" fill="none" xmlns="http://www.w3.org/2000/svg">
<path d="M8.99609 3.31972L14.9303 6.85996L19.0004 3.71237L13.1127 -0.000976562L8.99609 3.31972Z" fill="#1976D2"/>
<path d="M10.0054 3.32183L5.88668 -0.000976562L0 3.71132L4.07117 6.85996L10.0054 3.32183Z" fill="#1976D2"/>
<path d="M9.49976 10.303L13.4052 13.6237L18.9995 9.91036L15.1342 6.76172L9.49976 10.302L3.86429 6.76172L0 9.91036L5.5943 13.6237L9.49976 10.303Z" fill="#1976D2"/>
<path d="M15.2478 15.402V13.6329L13.5589 14.794C12.9256 15.2331 12.6354 14.3475 9.50044 11.791C6.31063 14.395 6.07314 15.2215 5.43982 14.794L3.75098 13.6329V15.4041L9.50994 19.0003L15.2478 15.402Z" fill="#1976D2"/>
</svg>
