<svg width="56" height="54" viewBox="0 0 56 54" fill="none" xmlns="http://www.w3.org/2000/svg">
<path d="M28.0672 53.6726C43.0333 53.6726 55.1657 41.6576 55.1657 26.8363C55.1657 12.015 43.0333 0 28.0672 0C13.1012 0 0.96875 12.015 0.96875 26.8363C0.96875 41.6576 13.1012 53.6726 28.0672 53.6726Z" fill="#3E68C0"/>
<path d="M33.2792 16.7767L30.5721 16.7724C29.9055 16.7233 29.2362 16.8175 28.6092 17.0485C27.9822 17.2795 27.4121 17.6419 26.9375 18.1114C26.463 18.581 26.0949 19.1468 25.8582 19.7703C25.6214 20.3939 25.5216 21.0609 25.5653 21.7262V24.0097H22.8432C22.7322 24.008 22.625 24.0505 22.5453 24.1275C22.4656 24.2046 22.4198 24.3102 22.418 24.4209V27.7295C22.4198 27.8402 22.4656 27.9456 22.5453 28.0227C22.625 28.0997 22.7322 28.1422 22.8432 28.1405H25.5653V36.4903C25.5662 36.5451 25.5779 36.5993 25.5997 36.6496C25.6216 36.6998 25.6532 36.7451 25.6927 36.7832C25.7322 36.8213 25.7788 36.8513 25.8299 36.8714C25.881 36.8915 25.9355 36.9014 25.9904 36.9005H29.5419C29.6529 36.9023 29.7601 36.8603 29.84 36.7834C29.9199 36.7065 29.9659 36.601 29.968 36.4903V28.1405H33.1504C33.2054 28.1415 33.2601 28.1314 33.3113 28.1113C33.3625 28.0911 33.4092 28.0613 33.4487 28.0231C33.4883 27.9849 33.52 27.9392 33.5419 27.8888C33.5638 27.8384 33.5756 27.7844 33.5765 27.7295V24.4209C33.5763 24.3667 33.565 24.313 33.5437 24.2631C33.5223 24.2133 33.4911 24.1682 33.4519 24.1305C33.3706 24.0532 33.2627 24.0099 33.1504 24.0097H29.9671V22.0734C29.9671 21.1428 30.1969 20.674 31.4576 20.674H33.2819C33.3927 20.6756 33.4997 20.6334 33.5794 20.5565C33.6591 20.4796 33.705 20.3744 33.7071 20.2638V17.1914C33.7067 17.136 33.6953 17.0813 33.6736 17.0304C33.6518 16.9794 33.6201 16.9331 33.5803 16.8946C33.5404 16.856 33.4933 16.8257 33.4417 16.8055C33.39 16.7853 33.3347 16.7754 33.2792 16.7767Z" fill="white"/>
</svg>
