<svg width="450" height="250" viewBox="0 0 450 250" fill="none" xmlns="http://www.w3.org/2000/svg">
<rect x="0.5" y="0.5" width="449" height="249" rx="9.5" fill="#F5F9FA" stroke="#DCE7E3"/>
<path d="M183.565 127.936C171.175 127.936 161.131 118.12 161.131 106.011C161.131 93.9021 171.175 84.0859 183.565 84.0859C195.955 84.0859 205.999 93.9021 205.999 106.011C205.999 118.12 195.955 127.936 183.565 127.936Z" stroke="#C6C6C6" stroke-width="2.75" stroke-linecap="round" stroke-linejoin="round"/>
<path d="M148.313 140.463L167.542 121.67" stroke="#C6C6C6" stroke-width="2.75" stroke-linecap="round" stroke-linejoin="round"/>
<path d="M140.394 136.903C125.44 140.993 121.906 139.851 119.243 143.856C118.938 144.317 117.372 146.667 117.69 149.679C117.937 152.081 119.282 153.938 120.12 154.749C125.239 159.703 139.335 153.646 147.41 147.011C149.171 145.563 153.893 141.688 152.938 138.935C152.549 137.806 151.34 137.247 150.47 136.858C146.631 135.144 142.648 136.28 140.394 136.897V136.903Z" fill="url(#paint0_linear_123_1634)"/>
<path d="M94.2319 36.4648H97.415V57.3363H94.2319V36.4648Z" fill="url(#paint1_linear_123_1634)"/>
<path d="M84.8326 55.1504H106.809C108.431 55.1504 109.745 56.4641 109.745 58.0847V65.9334C109.745 67.554 108.431 68.8678 106.809 68.8678H84.8326C83.2109 68.8678 81.8963 67.554 81.8963 65.9334V58.0847C81.8963 56.4641 83.2109 55.1504 84.8326 55.1504Z" fill="url(#paint2_linear_123_1634)"/>
<path d="M104.777 61.708H86.8733C64.3124 61.708 45.9999 80.0087 45.9999 102.555V114.481C45.9999 127.153 56.2962 137.436 68.9701 137.436H122.673C135.354 137.436 145.644 127.146 145.644 114.481V102.555C145.644 80.0087 127.331 61.708 104.77 61.708H104.777Z" fill="url(#paint3_linear_123_1634)"/>
<path d="M61.6742 112.303C62.9799 112.945 64.4416 113.283 65.9227 113.283H125.719C127.207 113.283 128.669 112.945 129.968 112.303C133.17 110.719 134.976 107.525 134.528 104.246L134.496 104.006C132.962 92.9049 122.9 84.368 110.57 83.7318C105.354 83.4592 99.8778 83.3228 94.1612 83.3553C89.6854 83.3813 85.359 83.5111 81.195 83.7253C68.8134 84.3615 58.6795 92.8659 57.14 104.006C57.127 104.084 57.1205 104.168 57.1075 104.246C56.6527 107.525 58.4652 110.719 61.6677 112.303H61.6742Z" fill="url(#paint4_linear_123_1634)"/>
<path style="mix-blend-mode:screen" d="M111.582 110.846C105.354 110.846 100.305 105.8 100.305 99.5756C100.305 93.3514 105.354 88.3057 111.582 88.3057C117.81 88.3057 122.859 93.3514 122.859 99.5756C122.859 105.8 117.81 110.846 111.582 110.846Z" fill="url(#paint5_radial_123_1634)"/>
<path d="M111.582 107.664C107.111 107.664 103.488 104.043 103.488 99.5752C103.488 95.1079 107.111 91.4863 111.582 91.4863C116.052 91.4863 119.676 95.1079 119.676 99.5752C119.676 104.043 116.052 107.664 111.582 107.664Z" fill="#EEFDFF"/>
<path d="M111.583 106.365C107.83 106.365 104.788 103.325 104.788 99.5747C104.788 95.8244 107.83 92.7842 111.583 92.7842C115.336 92.7842 118.378 95.8244 118.378 99.5747C118.378 103.325 115.336 106.365 111.583 106.365Z" fill="url(#paint6_linear_123_1634)"/>
<path d="M107.224 97.8157C107.224 99.205 108.354 100.335 109.744 100.335C111.134 100.335 112.265 99.205 112.265 97.8157C112.265 96.4265 111.134 95.2969 109.744 95.2969C108.354 95.2969 107.224 96.4265 107.224 97.8157Z" fill="#EEFDFF"/>
<path d="M112.589 105.788C112.033 105.788 111.582 105.338 111.582 104.782C111.582 104.226 112.033 103.775 112.589 103.775C113.145 103.775 113.596 104.226 113.596 104.782C113.596 105.338 113.145 105.788 112.589 105.788Z" fill="#EEFDFF"/>
<path d="M115.078 103.276C115.078 103.555 115.305 103.776 115.578 103.776C115.851 103.776 116.078 103.549 116.078 103.276C116.078 103.004 115.851 102.776 115.578 102.776C115.305 102.776 115.078 103.004 115.078 103.276Z" fill="#EEFDFF"/>
<path style="mix-blend-mode:screen" d="M81.1222 110.844C74.8939 110.844 69.845 105.798 69.845 99.5736C69.845 93.3494 74.8939 88.3037 81.1222 88.3037C87.3504 88.3037 92.3994 93.3494 92.3994 99.5736C92.3994 105.798 87.3504 110.844 81.1222 110.844Z" fill="url(#paint7_radial_123_1634)"/>
<path d="M81.1217 107.664C76.6514 107.664 73.0275 104.043 73.0275 99.5752C73.0275 95.1079 76.6514 91.4863 81.1217 91.4863C85.592 91.4863 89.2158 95.1079 89.2158 99.5752C89.2158 104.043 85.592 107.664 81.1217 107.664Z" fill="#EEFDFF"/>
<path d="M81.1231 106.363C77.3703 106.363 74.3281 103.323 74.3281 99.5727C74.3281 95.8224 77.3703 92.7822 81.1231 92.7822C84.8758 92.7822 87.918 95.8224 87.918 99.5727C87.918 103.323 84.8758 106.363 81.1231 106.363Z" fill="url(#paint8_linear_123_1634)"/>
<path d="M76.7637 97.8148C76.7637 99.204 77.894 100.334 79.2842 100.334C80.6744 100.334 81.8047 99.204 81.8047 97.8148C81.8047 96.4255 80.6744 95.2959 79.2842 95.2959C77.894 95.2959 76.7637 96.4255 76.7637 97.8148Z" fill="#EEFDFF"/>
<path d="M82.122 105.786C81.5659 105.786 81.1151 105.336 81.1151 104.78C81.1151 104.224 81.5659 103.773 82.122 103.773C82.6781 103.773 83.1289 104.224 83.1289 104.78C83.1289 105.336 82.6781 105.786 82.122 105.786Z" fill="#EEFDFF"/>
<path d="M84.6187 103.275C84.6187 103.554 84.8461 103.775 85.1189 103.775C85.3918 103.775 85.6191 103.548 85.6191 103.275C85.6191 103.003 85.3918 102.775 85.1189 102.775C84.8461 102.775 84.6187 103.003 84.6187 103.275Z" fill="#EEFDFF"/>
<path d="M91.7442 35.0769C91.7442 37.3296 93.5696 39.1538 95.8238 39.1538C98.0779 39.1538 99.9033 37.3296 99.9033 35.0769C99.9033 32.8242 98.0779 31 95.8238 31C93.5696 31 91.7442 32.8242 91.7442 35.0769Z" fill="url(#paint9_linear_123_1634)"/>
<path d="M92.9872 33.487C92.9872 34.1752 93.5459 34.727 94.228 34.727C94.9101 34.727 95.4688 34.1687 95.4688 33.487C95.4688 32.8054 94.9101 32.2471 94.228 32.2471C93.5459 32.2471 92.9872 32.8054 92.9872 33.487Z" fill="white"/>
<path d="M60.7123 74.7741C60.6603 76.6763 62.2129 78.9484 63.9928 79.1432C65.6623 79.325 66.994 77.6241 68.3647 75.8648C69.7159 74.1314 72.6781 69.6845 71.5023 68.4251C69.9498 66.7631 60.8357 70.2818 60.7123 74.7677V74.7741Z" fill="white"/>
<path d="M75.9598 67.5228C75.1777 67.5228 74.5437 66.8892 74.5437 66.1076C74.5437 65.326 75.1777 64.6924 75.9598 64.6924C76.7419 64.6924 77.376 65.326 77.376 66.1076C77.376 66.8892 76.7419 67.5228 75.9598 67.5228Z" fill="white"/>
<path d="M60.9145 101.165C61.3692 101.483 64.5393 95.0298 73.0492 89.4403C76.0374 87.4733 78.9932 86.071 78.8178 85.662C78.6424 85.2466 75.3164 86.0191 72.653 87.2526C64.1691 91.1867 60.3753 100.788 60.921 101.165H60.9145Z" fill="white"/>
<path d="M82.7025 59.2062C82.8064 59.2192 82.8714 58.6284 83.3651 57.7065C83.3651 57.7065 83.5989 57.2781 83.8653 56.9145C84.7228 55.7395 87.6135 55.7655 87.8409 55.7655C92.3492 55.8044 95.2529 55.5188 95.2529 55.5447C95.2529 55.5707 93.1352 55.5253 91.5891 55.4928C87.2173 55.4019 84.6123 55.1682 83.495 56.3368C83.0338 56.8236 82.7999 57.4534 82.7999 57.4534C82.4816 58.3103 82.592 59.1867 82.709 59.1997L82.7025 59.2062Z" fill="white"/>
<path d="M83.6455 118.128C83.756 119.205 84.6524 120.036 85.7373 120.14L100.672 121.582C101.75 121.685 102.796 121.043 103.108 120.004C103.251 119.543 103.355 119.069 103.426 118.576C103.446 118.439 103.413 118.303 103.329 118.193C103.244 118.082 103.121 118.017 102.984 118.004L84.1392 116.187C84.0028 116.174 83.8729 116.219 83.769 116.304C83.665 116.394 83.6066 116.518 83.6001 116.654C83.5806 117.148 83.5936 117.641 83.639 118.121L83.6455 118.128Z" fill="#EEFDFF"/>
<path d="M83.646 118.127C84.1202 122.756 87.8035 126.56 92.6171 127.021C97.3592 127.482 101.647 124.541 103.05 120.185C102.673 121.113 101.692 121.685 100.672 121.581L85.7312 120.146C84.6529 120.036 83.7564 119.211 83.646 118.133V118.127Z" fill="url(#paint10_linear_123_1634)"/>
<path d="M60.1084 151.652C60.1084 151.788 60.1084 151.918 60.1084 152.048C60.1539 153.301 60.4462 154.242 60.5891 154.664C64.7012 167.213 67.1632 173.835 70.6191 179.191C71.2168 180.112 71.8404 181.002 72.516 181.872C73.3994 183.034 74.3674 184.17 75.4392 185.338C77.8233 187.935 81.4351 189.11 82.5979 189.513C86.8529 191.012 90.6141 190.74 93.1086 190.766H93.5439C96.0514 190.74 99.8061 191.019 104.055 189.513C105.217 189.11 108.836 187.935 111.213 185.338C117.774 178.204 120.301 172.27 126.063 154.664C126.2 154.262 126.473 153.385 126.538 152.21C126.557 151.873 126.564 151.529 126.538 151.191C126.414 149.088 125.557 147.023 124.043 145.141C121.445 141.908 117.437 140.135 113.292 140.122L93.31 140.038L73.6918 139.96C69.4563 139.941 65.3508 141.719 62.6614 144.991C61.3622 146.575 60.5307 148.289 60.2254 150.055C60.1864 150.308 60.1474 150.561 60.1214 150.815C60.0954 151.094 60.0824 151.373 60.0824 151.659L60.1084 151.652Z" fill="url(#paint11_linear_123_1634)"/>
<path d="M93.3447 140.031L113.327 140.116C117.471 140.135 121.486 141.907 124.078 145.134C125.591 147.016 126.449 149.081 126.572 151.184C126.468 149.029 125.585 146.906 124 144.985C121.317 141.713 117.205 139.934 112.969 139.953L93.3447 140.031Z" fill="url(#paint12_linear_123_1634)"/>
<path d="M73.4779 169.452C73.7702 153.962 75.8684 150.898 72.7763 147.211C72.419 146.789 70.6066 144.627 67.6249 144.075C65.2473 143.634 63.0906 144.393 62.0707 144.978C55.8669 148.49 57.7118 163.713 61.7914 173.321C62.6813 175.418 65.0719 181.04 67.9822 180.904C69.1774 180.852 70.0544 179.846 70.6715 179.125C73.4064 175.931 73.4324 171.789 73.4779 169.452Z" fill="url(#paint13_linear_123_1634)"/>
<path d="M70.6252 179.19C71.2229 180.112 71.8465 181.001 72.5221 181.871C72.7365 181.65 72.9249 181.429 73.1002 181.228C75.8351 178.034 75.8611 173.892 75.9066 171.555C76.1989 156.066 78.2971 153.001 75.205 149.321C74.9776 149.048 74.1461 148.061 72.8014 147.243C75.8546 150.918 73.7758 154.008 73.4835 169.452C73.4445 171.789 73.4056 175.931 70.6772 179.131C70.6577 179.151 70.6382 179.17 70.6317 179.19H70.6252Z" fill="url(#paint14_linear_123_1634)"/>
<path d="M61.8828 156.553C61.9737 154.891 62.2855 153.664 62.9092 151.217C63.7277 148.016 64.7541 146.452 64.085 145.835C63.6497 145.433 62.7987 145.705 62.6038 145.764C59.6741 146.698 58.7646 152.191 58.8946 155.631C58.9725 157.735 59.4857 160.091 60.2588 160.195C60.3822 160.215 60.681 160.195 60.9019 160.007C61.7658 159.247 61.8178 157.826 61.8893 156.56L61.8828 156.553Z" fill="white"/>
<path d="M59.8686 162.429C59.8686 162.766 60.1414 163.039 60.4792 163.039C60.817 163.039 61.0898 162.766 61.0898 162.429C61.0898 162.091 60.817 161.818 60.4792 161.818C60.1414 161.818 59.8686 162.091 59.8686 162.429Z" fill="white"/>
<path d="M94.234 218.747C76.6292 218.747 62.3576 212.907 62.3576 205.704C62.3576 198.501 76.6292 192.662 94.234 192.662C111.839 192.662 126.11 198.501 126.11 205.704C126.11 212.907 111.839 218.747 94.234 218.747Z" fill="#CCE2E1" fill-opacity="0.51" style="mix-blend-mode:soft-light"/>
<path d="M231.5 67.165V53.165H239.58V55.225H233.8V59.665H239.58V61.725H233.8V67.165H231.5ZM250.426 62.025C250.426 62.265 250.406 62.665 250.366 63.225H243.446C243.473 63.9584 243.713 64.525 244.166 64.925C244.619 65.3117 245.246 65.505 246.046 65.505C247.073 65.505 247.766 65.1517 248.126 64.445H250.326C250.179 65.3117 249.706 66.025 248.906 66.585C248.119 67.1317 247.166 67.405 246.046 67.405C244.579 67.405 243.419 66.965 242.566 66.085C241.713 65.205 241.286 64.0117 241.286 62.505C241.286 61.0117 241.706 59.825 242.546 58.945C243.399 58.0517 244.539 57.605 245.966 57.605C247.299 57.605 248.373 58.0184 249.186 58.845C250.013 59.6584 250.426 60.7184 250.426 62.025ZM243.446 61.565H248.286C248.273 60.845 248.059 60.2917 247.646 59.905C247.246 59.5184 246.673 59.325 245.926 59.325C245.166 59.325 244.566 59.5317 244.126 59.945C243.686 60.3584 243.459 60.8984 243.446 61.565ZM261.168 62.025C261.168 62.265 261.148 62.665 261.108 63.225H254.188C254.215 63.9584 254.455 64.525 254.908 64.925C255.361 65.3117 255.988 65.505 256.788 65.505C257.815 65.505 258.508 65.1517 258.868 64.445H261.068C260.921 65.3117 260.448 66.025 259.648 66.585C258.861 67.1317 257.908 67.405 256.788 67.405C255.321 67.405 254.161 66.965 253.308 66.085C252.455 65.205 252.028 64.0117 252.028 62.505C252.028 61.0117 252.448 59.825 253.288 58.945C254.141 58.0517 255.281 57.605 256.708 57.605C258.041 57.605 259.115 58.0184 259.928 58.845C260.755 59.6584 261.168 60.7184 261.168 62.025ZM254.188 61.565H259.028C259.015 60.845 258.801 60.2917 258.388 59.905C257.988 59.5184 257.415 59.325 256.668 59.325C255.908 59.325 255.308 59.5317 254.868 59.945C254.428 60.3584 254.201 60.8984 254.188 61.565ZM263.275 67.165V53.165H265.455V67.165H263.275ZM277.915 54.985C277.715 54.985 277.535 54.9984 277.375 55.025C277.229 55.0517 277.062 55.1117 276.875 55.205C276.702 55.285 276.569 55.4317 276.475 55.645C276.382 55.8584 276.335 56.125 276.335 56.445V57.845H278.775V59.665H276.335V67.165H274.155V59.665H272.255V57.845H274.155V56.485C274.155 55.7784 274.269 55.185 274.495 54.705C274.722 54.2117 275.015 53.8584 275.375 53.645C275.749 53.4184 276.089 53.265 276.395 53.185C276.702 53.0917 277.009 53.045 277.315 53.045C277.929 53.045 278.415 53.105 278.775 53.225V55.065C278.709 55.065 278.575 55.0517 278.375 55.025C278.189 54.9984 278.035 54.985 277.915 54.985ZM280.482 67.165V57.845H282.662V59.645C282.822 59.0184 283.135 58.545 283.602 58.225C284.069 57.8917 284.582 57.725 285.142 57.725C285.502 57.725 285.789 57.7517 286.002 57.805V59.805C285.775 59.7784 285.489 59.765 285.142 59.765C284.369 59.765 283.762 60.0517 283.322 60.625C282.882 61.185 282.662 61.9917 282.662 63.045V67.165H280.482ZM295.953 62.025C295.953 62.265 295.933 62.665 295.893 63.225H288.973C289 63.9584 289.24 64.525 289.693 64.925C290.147 65.3117 290.773 65.505 291.573 65.505C292.6 65.505 293.293 65.1517 293.653 64.445H295.853C295.707 65.3117 295.233 66.025 294.433 66.585C293.647 67.1317 292.693 67.405 291.573 67.405C290.107 67.405 288.947 66.965 288.093 66.085C287.24 65.205 286.813 64.0117 286.813 62.505C286.813 61.0117 287.233 59.825 288.073 58.945C288.927 58.0517 290.067 57.605 291.493 57.605C292.827 57.605 293.9 58.0184 294.713 58.845C295.54 59.6584 295.953 60.7184 295.953 62.025ZM288.973 61.565H293.813C293.8 60.845 293.587 60.2917 293.173 59.905C292.773 59.5184 292.2 59.325 291.453 59.325C290.693 59.325 290.093 59.5317 289.653 59.945C289.213 60.3584 288.987 60.8984 288.973 61.565ZM306.695 62.025C306.695 62.265 306.675 62.665 306.635 63.225H299.715C299.742 63.9584 299.982 64.525 300.435 64.925C300.889 65.3117 301.515 65.505 302.315 65.505C303.342 65.505 304.035 65.1517 304.395 64.445H306.595C306.449 65.3117 305.975 66.025 305.175 66.585C304.389 67.1317 303.435 67.405 302.315 67.405C300.849 67.405 299.689 66.965 298.835 66.085C297.982 65.205 297.555 64.0117 297.555 62.505C297.555 61.0117 297.975 59.825 298.815 58.945C299.669 58.0517 300.809 57.605 302.235 57.605C303.569 57.605 304.642 58.0184 305.455 58.845C306.282 59.6584 306.695 60.7184 306.695 62.025ZM299.715 61.565H304.555C304.542 60.845 304.329 60.2917 303.915 59.905C303.515 59.5184 302.942 59.325 302.195 59.325C301.435 59.325 300.835 59.5317 300.395 59.945C299.955 60.3584 299.729 60.8984 299.715 61.565ZM318.022 65.325C318.462 65.325 318.829 65.2984 319.122 65.245V67.165C318.669 67.245 318.129 67.285 317.502 67.285C317.142 67.285 316.829 67.2584 316.562 67.205C316.296 67.1517 315.982 67.0317 315.622 66.845C315.262 66.645 314.982 66.305 314.782 65.825C314.582 65.345 314.482 64.7384 314.482 64.005V59.665H312.902V57.845H314.482V55.025H316.662V57.845H318.802V59.665H316.662V63.505C316.662 64.2517 316.769 64.745 316.982 64.985C317.196 65.2117 317.542 65.325 318.022 65.325ZM328.829 66.025C327.949 66.945 326.756 67.405 325.249 67.405C323.742 67.405 322.542 66.945 321.649 66.025C320.769 65.0917 320.329 63.9184 320.329 62.505C320.329 61.0917 320.769 59.925 321.649 59.005C322.542 58.0717 323.742 57.605 325.249 57.605C326.756 57.605 327.949 58.0717 328.829 59.005C329.722 59.925 330.169 61.0917 330.169 62.505C330.169 63.9184 329.722 65.0917 328.829 66.025ZM323.229 64.645C323.722 65.1917 324.396 65.465 325.249 65.465C326.102 65.465 326.769 65.1917 327.249 64.645C327.742 64.0984 327.989 63.385 327.989 62.505C327.989 61.625 327.742 60.9117 327.249 60.365C326.769 59.8184 326.102 59.545 325.249 59.545C324.396 59.545 323.722 59.8184 323.229 60.365C322.749 60.9117 322.509 61.625 322.509 62.505C322.509 63.385 322.749 64.0984 323.229 64.645ZM344.119 53.165H346.299V67.165H344.119V65.905C343.853 66.3584 343.433 66.725 342.859 67.005C342.299 67.2717 341.726 67.405 341.139 67.405C339.686 67.405 338.559 66.945 337.759 66.025C336.959 65.105 336.559 63.9317 336.559 62.505C336.559 61.0917 336.979 59.925 337.819 59.005C338.659 58.0717 339.786 57.605 341.199 57.605C341.826 57.605 342.399 57.7384 342.919 58.005C343.439 58.2717 343.839 58.6384 344.119 59.105V53.165ZM341.459 65.465C342.353 65.465 343.033 65.185 343.499 64.625C343.979 64.065 344.219 63.3584 344.219 62.505C344.219 61.6517 343.979 60.945 343.499 60.385C343.033 59.825 342.353 59.545 341.459 59.545C340.619 59.545 339.953 59.825 339.459 60.385C338.979 60.9317 338.739 61.6384 338.739 62.505C338.739 63.3717 338.979 64.085 339.459 64.645C339.953 65.1917 340.619 65.465 341.459 65.465ZM349.095 67.165V57.845H351.275V59.645C351.435 59.0184 351.749 58.545 352.215 58.225C352.682 57.8917 353.195 57.725 353.755 57.725C354.115 57.725 354.402 57.7517 354.615 57.805V59.805C354.389 59.7784 354.102 59.765 353.755 59.765C352.982 59.765 352.375 60.0517 351.935 60.625C351.495 61.185 351.275 61.9917 351.275 63.045V67.165H349.095ZM363.927 66.025C363.047 66.945 361.853 67.405 360.347 67.405C358.84 67.405 357.64 66.945 356.747 66.025C355.867 65.0917 355.427 63.9184 355.427 62.505C355.427 61.0917 355.867 59.925 356.747 59.005C357.64 58.0717 358.84 57.605 360.347 57.605C361.853 57.605 363.047 58.0717 363.927 59.005C364.82 59.925 365.267 61.0917 365.267 62.505C365.267 63.9184 364.82 65.0917 363.927 66.025ZM358.327 64.645C358.82 65.1917 359.493 65.465 360.347 65.465C361.2 65.465 361.867 65.1917 362.347 64.645C362.84 64.0984 363.087 63.385 363.087 62.505C363.087 61.625 362.84 60.9117 362.347 60.365C361.867 59.8184 361.2 59.545 360.347 59.545C359.493 59.545 358.82 59.8184 358.327 60.365C357.847 60.9117 357.607 61.625 357.607 62.505C357.607 63.385 357.847 64.0984 358.327 64.645ZM372.657 57.605C373.99 57.605 375.064 58.0584 375.877 58.965C376.69 59.8584 377.097 61.0384 377.097 62.505C377.097 63.945 376.67 65.125 375.817 66.045C374.964 66.9517 373.864 67.405 372.517 67.405C371.904 67.405 371.324 67.2717 370.777 67.005C370.23 66.725 369.817 66.3584 369.537 65.905V71.365H367.357V57.845H369.537V59.105C369.817 58.6517 370.244 58.2917 370.817 58.025C371.39 57.745 372.004 57.605 372.657 57.605ZM372.197 65.465C372.997 65.465 373.65 65.1917 374.157 64.645C374.664 64.085 374.917 63.3717 374.917 62.505C374.917 61.6384 374.664 60.9317 374.157 60.385C373.65 59.825 372.997 59.545 372.197 59.545C371.37 59.545 370.704 59.8184 370.197 60.365C369.69 60.9117 369.437 61.625 369.437 62.505C369.437 63.385 369.69 64.0984 370.197 64.645C370.704 65.1917 371.37 65.465 372.197 65.465ZM387.553 67.405C386.5 67.405 385.66 67.0917 385.033 66.465C384.406 65.8384 384.093 64.9184 384.093 63.705V57.845H386.273V63.165C386.273 63.9517 386.42 64.545 386.713 64.945C387.006 65.345 387.493 65.545 388.173 65.545C388.96 65.545 389.533 65.325 389.893 64.885C390.253 64.4317 390.433 63.8384 390.433 63.105V57.845H392.613V67.165H390.433V65.865C389.86 66.8917 388.9 67.405 387.553 67.405ZM398.664 67.405C397.491 67.405 396.537 67.105 395.804 66.505C395.071 65.905 394.704 65.1717 394.704 64.305H396.884C396.884 64.705 397.057 65.0317 397.404 65.285C397.764 65.5384 398.224 65.665 398.784 65.665C399.197 65.665 399.524 65.565 399.764 65.365C400.004 65.165 400.124 64.8984 400.124 64.565C400.124 64.0317 399.891 63.705 399.424 63.585L397.024 62.925C395.677 62.5517 395.004 61.6917 395.004 60.345C395.004 59.5717 395.337 58.925 396.004 58.405C396.671 57.8717 397.531 57.605 398.584 57.605C399.771 57.605 400.677 57.8717 401.304 58.405C401.944 58.9384 402.264 59.6384 402.264 60.505H400.124C400.124 60.1184 399.977 59.8184 399.684 59.605C399.404 59.3784 399.011 59.265 398.504 59.265C398.117 59.265 397.797 59.3584 397.544 59.545C397.291 59.7184 397.164 59.945 397.164 60.225C397.164 60.7317 397.431 61.065 397.964 61.225L400.184 61.865C400.824 62.0517 401.344 62.3717 401.744 62.825C402.144 63.265 402.344 63.7784 402.344 64.365C402.344 65.2717 402.017 66.005 401.364 66.565C400.724 67.125 399.824 67.405 398.664 67.405ZM237.74 80.845H239.92V90.205C239.92 91.6317 239.513 92.7384 238.7 93.525C237.913 94.245 236.86 94.605 235.54 94.605C234.167 94.605 233.1 94.285 232.34 93.645C231.673 93.0584 231.327 92.2517 231.3 91.225H233.5C233.553 91.7584 233.727 92.1517 234.02 92.405C234.327 92.6717 234.82 92.805 235.5 92.805C236.193 92.805 236.74 92.5784 237.14 92.125C237.54 91.685 237.74 90.9917 237.74 90.045V88.865C237.14 89.8917 236.14 90.405 234.74 90.405C233.633 90.405 232.78 90.0517 232.18 89.345C231.593 88.625 231.3 87.685 231.3 86.525V80.845H233.48V86.065C233.48 87.6784 234.153 88.485 235.5 88.485C236.233 88.485 236.787 88.225 237.16 87.705C237.547 87.185 237.74 86.505 237.74 85.665V80.845ZM250.528 89.025C249.648 89.945 248.455 90.405 246.948 90.405C245.441 90.405 244.241 89.945 243.348 89.025C242.468 88.0917 242.028 86.9184 242.028 85.505C242.028 84.0917 242.468 82.925 243.348 82.005C244.241 81.0717 245.441 80.605 246.948 80.605C248.455 80.605 249.648 81.0717 250.528 82.005C251.421 82.925 251.868 84.0917 251.868 85.505C251.868 86.9184 251.421 88.0917 250.528 89.025ZM244.928 87.645C245.421 88.1917 246.095 88.465 246.948 88.465C247.801 88.465 248.468 88.1917 248.948 87.645C249.441 87.0984 249.688 86.385 249.688 85.505C249.688 84.625 249.441 83.9117 248.948 83.365C248.468 82.8184 247.801 82.545 246.948 82.545C246.095 82.545 245.421 82.8184 244.928 83.365C244.448 83.9117 244.208 84.625 244.208 85.505C244.208 86.385 244.448 87.0984 244.928 87.645ZM257.319 90.405C256.265 90.405 255.425 90.0917 254.799 89.465C254.172 88.8384 253.859 87.9184 253.859 86.705V80.845H256.039V86.165C256.039 86.9517 256.185 87.545 256.479 87.945C256.772 88.345 257.259 88.545 257.939 88.545C258.725 88.545 259.299 88.325 259.659 87.885C260.019 87.4317 260.199 86.8384 260.199 86.105V80.845H262.379V90.165H260.199V88.865C259.625 89.8917 258.665 90.405 257.319 90.405ZM265.17 90.165V80.845H267.35V82.645C267.51 82.0184 267.823 81.545 268.29 81.225C268.756 80.8917 269.27 80.725 269.83 80.725C270.19 80.725 270.476 80.7517 270.69 80.805V82.805C270.463 82.7784 270.176 82.765 269.83 82.765C269.056 82.765 268.45 83.0517 268.01 83.625C267.57 84.185 267.35 84.9917 267.35 86.045V90.165H265.17ZM282.154 77.985C281.954 77.985 281.774 77.9984 281.614 78.025C281.467 78.0517 281.3 78.1117 281.114 78.205C280.94 78.285 280.807 78.4317 280.714 78.645C280.62 78.8584 280.574 79.125 280.574 79.445V80.845H283.014V82.665H280.574V90.165H278.394V82.665H276.494V80.845H278.394V79.485C278.394 78.7784 278.507 78.185 278.734 77.705C278.96 77.2117 279.254 76.8584 279.614 76.645C279.987 76.4184 280.327 76.265 280.634 76.185C280.94 76.0917 281.247 76.045 281.554 76.045C282.167 76.045 282.654 76.105 283.014 76.225V78.065C282.947 78.065 282.814 78.0517 282.614 78.025C282.427 77.9984 282.274 77.985 282.154 77.985ZM292.965 85.025C292.965 85.265 292.945 85.665 292.905 86.225H285.985C286.012 86.9584 286.252 87.525 286.705 87.925C287.158 88.3117 287.785 88.505 288.585 88.505C289.612 88.505 290.305 88.1517 290.665 87.445H292.865C292.718 88.3117 292.245 89.025 291.445 89.585C290.658 90.1317 289.705 90.405 288.585 90.405C287.118 90.405 285.958 89.965 285.105 89.085C284.252 88.205 283.825 87.0117 283.825 85.505C283.825 84.0117 284.245 82.825 285.085 81.945C285.938 81.0517 287.078 80.605 288.505 80.605C289.838 80.605 290.912 81.0184 291.725 81.845C292.552 82.6584 292.965 83.7184 292.965 85.025ZM285.985 84.565H290.825C290.812 83.845 290.598 83.2917 290.185 82.905C289.785 82.5184 289.212 82.325 288.465 82.325C287.705 82.325 287.105 82.5317 286.665 82.945C286.225 83.3584 285.998 83.8984 285.985 84.565ZM303.707 85.025C303.707 85.265 303.687 85.665 303.647 86.225H296.727C296.754 86.9584 296.994 87.525 297.447 87.925C297.901 88.3117 298.527 88.505 299.327 88.505C300.354 88.505 301.047 88.1517 301.407 87.445H303.607C303.461 88.3117 302.987 89.025 302.187 89.585C301.401 90.1317 300.447 90.405 299.327 90.405C297.861 90.405 296.701 89.965 295.847 89.085C294.994 88.205 294.567 87.0117 294.567 85.505C294.567 84.0117 294.987 82.825 295.827 81.945C296.681 81.0517 297.821 80.605 299.247 80.605C300.581 80.605 301.654 81.0184 302.467 81.845C303.294 82.6584 303.707 83.7184 303.707 85.025ZM296.727 84.565H301.567C301.554 83.845 301.341 83.2917 300.927 82.905C300.527 82.5184 299.954 82.325 299.207 82.325C298.447 82.325 297.847 82.5317 297.407 82.945C296.967 83.3584 296.741 83.8984 296.727 84.565ZM312.869 76.165H315.049V90.165H312.869V88.905C312.603 89.3584 312.183 89.725 311.609 90.005C311.049 90.2717 310.476 90.405 309.889 90.405C308.436 90.405 307.309 89.945 306.509 89.025C305.709 88.105 305.309 86.9317 305.309 85.505C305.309 84.0917 305.729 82.925 306.569 82.005C307.409 81.0717 308.536 80.605 309.949 80.605C310.576 80.605 311.149 80.7384 311.669 81.005C312.189 81.2717 312.589 81.6384 312.869 82.105V76.165ZM310.209 88.465C311.103 88.465 311.783 88.185 312.249 87.625C312.729 87.065 312.969 86.3584 312.969 85.505C312.969 84.6517 312.729 83.945 312.249 83.385C311.783 82.825 311.103 82.545 310.209 82.545C309.369 82.545 308.703 82.825 308.209 83.385C307.729 83.9317 307.489 84.6384 307.489 85.505C307.489 86.3717 307.729 87.085 308.209 87.645C308.703 88.1917 309.369 88.465 310.209 88.465ZM323.145 80.605C324.479 80.605 325.552 81.0584 326.365 81.965C327.179 82.8584 327.585 84.0384 327.585 85.505C327.585 86.945 327.159 88.125 326.305 89.045C325.452 89.9517 324.352 90.405 323.005 90.405C322.392 90.405 321.812 90.2717 321.265 90.005C320.719 89.725 320.305 89.3584 320.025 88.905V90.165H317.845V76.165H320.025V82.105C320.305 81.6517 320.732 81.2917 321.305 81.025C321.879 80.745 322.492 80.605 323.145 80.605ZM322.685 88.465C323.485 88.465 324.139 88.1917 324.645 87.645C325.152 87.085 325.405 86.3717 325.405 85.505C325.405 84.6384 325.152 83.9317 324.645 83.385C324.139 82.825 323.485 82.545 322.685 82.545C321.859 82.545 321.192 82.8184 320.685 83.365C320.179 83.9117 319.925 84.625 319.925 85.505C319.925 86.385 320.179 87.0984 320.685 87.645C321.192 88.1917 321.859 88.465 322.685 88.465ZM333.561 90.405C332.108 90.405 330.981 89.945 330.181 89.025C329.381 88.105 328.981 86.9317 328.981 85.505C328.981 84.0917 329.401 82.925 330.241 82.005C331.081 81.0717 332.208 80.605 333.621 80.605C334.248 80.605 334.821 80.7384 335.341 81.005C335.861 81.2717 336.261 81.6384 336.541 82.105V80.845H338.721V90.165H336.541V88.905C336.275 89.3584 335.855 89.725 335.281 90.005C334.721 90.2717 334.148 90.405 333.561 90.405ZM333.881 88.465C334.775 88.465 335.455 88.185 335.921 87.625C336.401 87.065 336.641 86.3584 336.641 85.505C336.641 84.6517 336.401 83.945 335.921 83.385C335.455 82.825 334.775 82.545 333.881 82.545C333.041 82.545 332.375 82.825 331.881 83.385C331.401 83.9317 331.161 84.6384 331.161 85.505C331.161 86.3717 331.401 87.085 331.881 87.645C332.375 88.1917 333.041 88.465 333.881 88.465ZM345.457 90.405C344.031 90.405 342.897 89.9584 342.057 89.065C341.231 88.1584 340.817 86.9717 340.817 85.505C340.817 84.0384 341.231 82.8584 342.057 81.965C342.897 81.0584 344.031 80.605 345.457 80.605C346.737 80.605 347.764 80.9317 348.537 81.585C349.324 82.225 349.771 83.085 349.877 84.165H347.697C347.457 83.085 346.711 82.545 345.457 82.545C344.684 82.545 344.077 82.805 343.637 83.325C343.211 83.8317 342.997 84.5584 342.997 85.505C342.997 86.4517 343.211 87.185 343.637 87.705C344.077 88.2117 344.684 88.465 345.457 88.465C346.697 88.465 347.444 87.9584 347.697 86.945H349.877C349.771 87.9984 349.324 88.8384 348.537 89.465C347.764 90.0917 346.737 90.405 345.457 90.405ZM360.446 80.845L356.406 85.305L360.446 90.165H357.586L354.166 85.925V90.165H351.986V76.165H354.166V84.925L357.686 80.845H360.446ZM364.627 89.825C364.294 90.1584 363.894 90.325 363.427 90.325C362.96 90.325 362.56 90.1584 362.227 89.825C361.907 89.4917 361.747 89.0917 361.747 88.625C361.747 88.1584 361.907 87.765 362.227 87.445C362.56 87.1117 362.96 86.945 363.427 86.945C363.894 86.945 364.294 87.1117 364.627 87.445C364.96 87.765 365.127 88.1584 365.127 88.625C365.127 89.0917 364.96 89.4917 364.627 89.825Z" fill="black"/>
<rect x="230" y="134" width="168" height="50" rx="8" fill="#F45932"/>
<path d="M271.5 166V152H279.58V154.06H273.8V158.5H279.58V160.56H273.8V166H271.5ZM290.426 160.86C290.426 161.1 290.406 161.5 290.366 162.06H283.446C283.473 162.793 283.713 163.36 284.166 163.76C284.619 164.147 285.246 164.34 286.046 164.34C287.073 164.34 287.766 163.987 288.126 163.28H290.326C290.179 164.147 289.706 164.86 288.906 165.42C288.119 165.967 287.166 166.24 286.046 166.24C284.579 166.24 283.419 165.8 282.566 164.92C281.713 164.04 281.286 162.847 281.286 161.34C281.286 159.847 281.706 158.66 282.546 157.78C283.399 156.887 284.539 156.44 285.966 156.44C287.299 156.44 288.373 156.853 289.186 157.68C290.013 158.493 290.426 159.553 290.426 160.86ZM283.446 160.4H288.286C288.273 159.68 288.059 159.127 287.646 158.74C287.246 158.353 286.673 158.16 285.926 158.16C285.166 158.16 284.566 158.367 284.126 158.78C283.686 159.193 283.459 159.733 283.446 160.4ZM301.168 160.86C301.168 161.1 301.148 161.5 301.108 162.06H294.188C294.215 162.793 294.455 163.36 294.908 163.76C295.361 164.147 295.988 164.34 296.788 164.34C297.815 164.34 298.508 163.987 298.868 163.28H301.068C300.921 164.147 300.448 164.86 299.648 165.42C298.861 165.967 297.908 166.24 296.788 166.24C295.321 166.24 294.161 165.8 293.308 164.92C292.455 164.04 292.028 162.847 292.028 161.34C292.028 159.847 292.448 158.66 293.288 157.78C294.141 156.887 295.281 156.44 296.708 156.44C298.041 156.44 299.115 156.853 299.928 157.68C300.755 158.493 301.168 159.553 301.168 160.86ZM294.188 160.4H299.028C299.015 159.68 298.801 159.127 298.388 158.74C297.988 158.353 297.415 158.16 296.668 158.16C295.908 158.16 295.308 158.367 294.868 158.78C294.428 159.193 294.201 159.733 294.188 160.4ZM310.33 152H312.51V166H310.33V164.74C310.064 165.193 309.644 165.56 309.07 165.84C308.51 166.107 307.937 166.24 307.35 166.24C305.897 166.24 304.77 165.78 303.97 164.86C303.17 163.94 302.77 162.767 302.77 161.34C302.77 159.927 303.19 158.76 304.03 157.84C304.87 156.907 305.997 156.44 307.41 156.44C308.037 156.44 308.61 156.573 309.13 156.84C309.65 157.107 310.05 157.473 310.33 157.94V152ZM307.67 164.3C308.564 164.3 309.244 164.02 309.71 163.46C310.19 162.9 310.43 162.193 310.43 161.34C310.43 160.487 310.19 159.78 309.71 159.22C309.244 158.66 308.564 158.38 307.67 158.38C306.83 158.38 306.164 158.66 305.67 159.22C305.19 159.767 304.95 160.473 304.95 161.34C304.95 162.207 305.19 162.92 305.67 163.48C306.164 164.027 306.83 164.3 307.67 164.3ZM320.606 156.44C321.94 156.44 323.013 156.893 323.826 157.8C324.64 158.693 325.046 159.873 325.046 161.34C325.046 162.78 324.62 163.96 323.766 164.88C322.913 165.787 321.813 166.24 320.466 166.24C319.853 166.24 319.273 166.107 318.726 165.84C318.18 165.56 317.766 165.193 317.486 164.74V166H315.306V152H317.486V157.94C317.766 157.487 318.193 157.127 318.766 156.86C319.34 156.58 319.953 156.44 320.606 156.44ZM320.146 164.3C320.946 164.3 321.6 164.027 322.106 163.48C322.613 162.92 322.866 162.207 322.866 161.34C322.866 160.473 322.613 159.767 322.106 159.22C321.6 158.66 320.946 158.38 320.146 158.38C319.32 158.38 318.653 158.653 318.146 159.2C317.64 159.747 317.386 160.46 317.386 161.34C317.386 162.22 317.64 162.933 318.146 163.48C318.653 164.027 319.32 164.3 320.146 164.3ZM331.022 166.24C329.569 166.24 328.442 165.78 327.642 164.86C326.842 163.94 326.442 162.767 326.442 161.34C326.442 159.927 326.862 158.76 327.702 157.84C328.542 156.907 329.669 156.44 331.082 156.44C331.709 156.44 332.282 156.573 332.802 156.84C333.322 157.107 333.722 157.473 334.002 157.94V156.68H336.182V166H334.002V164.74C333.736 165.193 333.316 165.56 332.742 165.84C332.182 166.107 331.609 166.24 331.022 166.24ZM331.342 164.3C332.236 164.3 332.916 164.02 333.382 163.46C333.862 162.9 334.102 162.193 334.102 161.34C334.102 160.487 333.862 159.78 333.382 159.22C332.916 158.66 332.236 158.38 331.342 158.38C330.502 158.38 329.836 158.66 329.342 159.22C328.862 159.767 328.622 160.473 328.622 161.34C328.622 162.207 328.862 162.92 329.342 163.48C329.836 164.027 330.502 164.3 331.342 164.3ZM342.918 166.24C341.491 166.24 340.358 165.793 339.518 164.9C338.691 163.993 338.278 162.807 338.278 161.34C338.278 159.873 338.691 158.693 339.518 157.8C340.358 156.893 341.491 156.44 342.918 156.44C344.198 156.44 345.225 156.767 345.998 157.42C346.785 158.06 347.231 158.92 347.338 160H345.158C344.918 158.92 344.171 158.38 342.918 158.38C342.145 158.38 341.538 158.64 341.098 159.16C340.671 159.667 340.458 160.393 340.458 161.34C340.458 162.287 340.671 163.02 341.098 163.54C341.538 164.047 342.145 164.3 342.918 164.3C344.158 164.3 344.905 163.793 345.158 162.78H347.338C347.231 163.833 346.785 164.673 345.998 165.3C345.225 165.927 344.198 166.24 342.918 166.24ZM357.907 156.68L353.867 161.14L357.907 166H355.047L351.627 161.76V166H349.447V152H351.627V160.76L355.147 156.68H357.907Z" fill="white"/>
<defs>
<linearGradient id="paint0_linear_123_1634" x1="149.779" y1="140.773" x2="113.859" y2="160.435" gradientUnits="userSpaceOnUse">
<stop offset="0.04" stop-color="#FFCCBF"/>
<stop offset="1" stop-color="#49E1D2"/>
</linearGradient>
<linearGradient id="paint1_linear_123_1634" x1="102.307" y1="47.8451" x2="92.7641" y2="46.4541" gradientUnits="userSpaceOnUse">
<stop offset="0.04" stop-color="#36E4D4"/>
<stop offset="1" stop-color="#E9CEC1"/>
</linearGradient>
<linearGradient id="paint2_linear_123_1634" x1="104.743" y1="72.0748" x2="87.8136" y2="52.9453" gradientUnits="userSpaceOnUse">
<stop offset="0.04" stop-color="#31E4D4"/>
<stop offset="1" stop-color="#E7CFC1"/>
</linearGradient>
<linearGradient id="paint3_linear_123_1634" x1="129.286" y1="138.286" x2="62.1926" y2="71.1492" gradientUnits="userSpaceOnUse">
<stop offset="0.04" stop-color="#31E4D4"/>
<stop offset="1" stop-color="#FFCCBF"/>
</linearGradient>
<linearGradient id="paint4_linear_123_1634" x1="95.9996" y1="113.192" x2="95.4028" y2="86.3545" gradientUnits="userSpaceOnUse">
<stop stop-color="#030D14"/>
<stop offset="1" stop-color="#0B2F45"/>
</linearGradient>
<radialGradient id="paint5_radial_123_1634" cx="0" cy="0" r="1" gradientUnits="userSpaceOnUse" gradientTransform="translate(111.582 99.5756) rotate(180) scale(11.1603 11.1531)">
<stop offset="0.13" stop-color="#3280FC"/>
<stop offset="1"/>
</radialGradient>
<linearGradient id="paint6_linear_123_1634" x1="118.378" y1="99.5747" x2="104.782" y2="99.5747" gradientUnits="userSpaceOnUse">
<stop stop-color="#030D14"/>
<stop offset="1" stop-color="#0B2F45"/>
</linearGradient>
<radialGradient id="paint7_radial_123_1634" cx="0" cy="0" r="1" gradientUnits="userSpaceOnUse" gradientTransform="translate(81.1222 31.3244) rotate(180) scale(11.1603 11.1531)">
<stop offset="0.13" stop-color="#3280FC"/>
<stop offset="1"/>
</radialGradient>
<linearGradient id="paint8_linear_123_1634" x1="87.918" y1="99.5727" x2="74.3216" y2="99.5727" gradientUnits="userSpaceOnUse">
<stop stop-color="#030D14"/>
<stop offset="1" stop-color="#0B2F45"/>
</linearGradient>
<linearGradient id="paint9_linear_123_1634" x1="95.6729" y1="39.8348" x2="91.7853" y2="34.4752" gradientUnits="userSpaceOnUse">
<stop stop-color="#6DDDCE"/>
<stop offset="1" stop-color="#FFCCBF"/>
</linearGradient>
<linearGradient id="paint10_linear_123_1634" x1="96.2354" y1="123.613" x2="76.8052" y2="104.176" gradientUnits="userSpaceOnUse">
<stop offset="0.07" stop-color="#0DA9AB"/>
<stop offset="1" stop-color="#DEFA8E"/>
</linearGradient>
<linearGradient id="paint11_linear_123_1634" x1="114.591" y1="182.566" x2="63.1286" y2="122.432" gradientUnits="userSpaceOnUse">
<stop offset="0.04" stop-color="#FFCCBF"/>
<stop offset="1" stop-color="#3EE3D3"/>
</linearGradient>
<linearGradient id="paint12_linear_123_1634" x1="117.322" y1="152.599" x2="86.3715" y2="116.439" gradientUnits="userSpaceOnUse">
<stop offset="0.04" stop-color="#06CFF1"/>
<stop offset="1" stop-color="#DEFA8E"/>
</linearGradient>
<linearGradient id="paint13_linear_123_1634" x1="50.7826" y1="173.578" x2="75.9225" y2="152.238" gradientUnits="userSpaceOnUse">
<stop offset="0.04" stop-color="#36E4D4"/>
<stop offset="1" stop-color="#FDCCBF"/>
</linearGradient>
<linearGradient id="paint14_linear_123_1634" x1="84.7543" y1="170.854" x2="61.0763" y2="164.421" gradientUnits="userSpaceOnUse">
<stop offset="0.305255" stop-color="#FCC6B8"/>
<stop offset="1" stop-color="#29C8BA"/>
</linearGradient>
</defs>
</svg>
