<svg width="34" height="35" viewBox="0 0 34 35" fill="none" xmlns="http://www.w3.org/2000/svg">
<ellipse cx="17" cy="17.6419" rx="17" ry="17.3469" fill="#2EC4B6"/>
<path d="M25.34 17.139V19.579H24.02C23.66 21.2724 22.8667 22.5857 21.64 23.519C20.4267 24.439 18.86 24.899 16.94 24.899C14.7267 24.899 12.9333 24.2124 11.56 22.839C10.2 21.4524 9.52667 19.6924 9.54 17.559C9.54 15.439 10.2133 13.6657 11.56 12.239C12.92 10.8124 14.7733 10.099 17.12 10.099C18.9733 10.099 20.5067 10.5457 21.72 11.439C22.9467 12.3324 23.62 13.4657 23.74 14.839H20.2C20.0667 14.239 19.7267 13.7524 19.18 13.379C18.6467 13.0057 17.9667 12.819 17.14 12.819C15.7667 12.819 14.7133 13.2524 13.98 14.119C13.26 14.9857 12.9067 16.1124 12.92 17.499C12.9067 18.8324 13.2733 19.9324 14.02 20.799C14.78 21.6524 15.78 22.079 17.02 22.079C18.98 22.079 20.2 21.2457 20.68 19.579H18.18V17.139H25.34Z" fill="white"/>
</svg>
