<svg width="56" height="54" viewBox="0 0 56 54" fill="none" xmlns="http://www.w3.org/2000/svg">
<path d="M27.9862 53.6726C42.9523 53.6726 55.0847 41.6576 55.0847 26.8363C55.0847 12.015 42.9523 0 27.9862 0C13.0201 0 0.887695 12.015 0.887695 26.8363C0.887695 41.6576 13.0201 53.6726 27.9862 53.6726Z" fill="#1686B0"/>
<path d="M39.2868 29.1133V36.8971H34.6904V29.6317C34.6904 27.8064 34.0259 26.561 32.3619 26.561C31.8465 26.5616 31.3437 26.7204 30.9218 27.0158C30.4999 27.3112 30.1793 27.729 30.0036 28.2124C29.8855 28.567 29.8339 28.9403 29.8511 29.3135V36.8971H25.2528C25.2528 36.8971 25.3151 24.5923 25.2528 23.3171H29.8511V25.2414C29.8414 25.2554 29.83 25.2709 29.8204 25.2849H29.8511V25.2414C30.2726 24.5274 30.8808 23.9413 31.6107 23.546C32.3406 23.1506 33.1645 22.9608 33.9943 22.997C37.0189 23.004 39.2868 24.9414 39.2868 29.1133ZM20.438 16.7725C20.1121 16.7398 19.783 16.7751 19.4715 16.8761C19.16 16.9771 18.873 17.1417 18.6287 17.3593C18.3843 17.5769 18.1881 17.8428 18.0524 18.1401C17.9166 18.4375 17.8442 18.7598 17.84 19.0865C17.8358 19.4132 17.8998 19.7372 18.0279 20.038C18.1559 20.3387 18.3453 20.6097 18.5839 20.8336C18.8225 21.0574 19.1053 21.2292 19.4141 21.3381C19.7228 21.4471 20.0509 21.4908 20.3775 21.4665H20.4083C20.7388 21.5052 21.0739 21.4741 21.3915 21.3749C21.7092 21.2757 22.0023 21.1107 22.2517 20.8908C22.5012 20.6709 22.7013 20.4011 22.8391 20.0988C22.9769 19.7965 23.0492 19.4687 23.0514 19.1367C23.0536 18.8046 22.9855 18.4758 22.8517 18.1717C22.7179 17.8677 22.5213 17.5952 22.2748 17.3721C22.0282 17.149 21.7373 16.9802 21.421 16.8769C21.1046 16.7736 20.77 16.7381 20.439 16.7725H20.438ZM18.1087 36.8997H22.7104V23.3199H18.1139L18.1087 36.8997Z" fill="white"/>
</svg>
