<svg width="195" height="167" viewBox="0 0 195 167" fill="none" xmlns="http://www.w3.org/2000/svg">
<g opacity="0.6">
<mask id="mask0_33_91" style="mask-type:alpha" maskUnits="userSpaceOnUse" x="0" y="0" width="195" height="167">
<rect width="195" height="167" rx="14" fill="white"/>
</mask>
<g mask="url(#mask0_33_91)">
<g opacity="0.2">
<path d="M116.911 -28.3406L122.56 -27.3533L116.086 9.68494L110.438 8.69765L116.911 -28.3406Z" fill="url(#paint0_linear_33_91)"/>
<path d="M94.4354 1.89971L133.434 8.71599C136.312 9.21897 138.237 11.9581 137.735 14.8339L135.3 28.7622C134.798 31.638 132.057 33.5617 129.18 33.0587L90.1807 26.2424C87.303 25.7394 85.3776 23.0003 85.8802 20.1244L88.3146 6.19623C88.8173 3.32035 91.5576 1.39673 94.4354 1.89971Z" fill="url(#paint1_linear_33_91)"/>
<path d="M127.793 19.7213L96.0219 14.1684C55.9855 7.17075 17.8121 33.967 10.819 73.9775L7.12007 95.1405C3.1896 117.628 18.2718 139.07 40.7628 143.001L136.064 159.658C158.566 163.591 180.018 148.523 183.947 126.047L187.645 104.883C194.639 64.873 167.818 26.7169 127.781 19.7193L127.793 19.7213Z" fill="url(#paint2_linear_33_91)"/>
<path d="M35.611 96.1433C37.7288 97.6889 40.2178 98.7413 42.8462 99.2007L148.961 117.747C151.6 118.209 154.299 118.063 156.804 117.326C162.978 115.508 167.174 110.4 167.395 104.443L167.412 104.007C168.135 83.8314 152.926 65.561 131.243 60.6078C122.071 58.506 112.395 56.5655 102.24 54.85C94.2897 53.5079 86.5719 52.3964 79.116 51.485C56.9465 48.7737 36.3252 60.7223 30.1379 80.0139C30.0906 80.1481 30.0529 80.2958 30.0057 80.43C28.1819 86.1068 30.4075 92.337 35.5995 96.1413L35.611 96.1433Z" fill="url(#paint3_linear_33_91)"/>
<path style="mix-blend-mode:screen" d="M125.406 108.044C113.926 105.566 105.84 95.0461 107.343 84.5464C108.847 74.0467 119.372 67.5434 130.851 70.0209C142.331 72.4983 150.417 83.0184 148.914 93.5181C147.41 104.018 136.885 110.521 125.406 108.044Z" fill="url(#paint4_radial_33_91)"/>
<path d="M126.175 102.677C117.936 100.899 112.131 93.3481 113.211 85.812C114.29 78.2759 121.844 73.6082 130.083 75.3864C138.323 77.1646 144.127 84.7153 143.047 92.2514C141.968 99.7875 134.414 104.455 126.175 102.677Z" fill="#EEFDFF"/>
<path d="M126.488 100.488C119.571 98.9955 114.699 92.6568 115.605 86.3304C116.511 80.0039 122.853 76.0855 129.769 77.5782C136.686 79.071 141.559 85.4097 140.652 91.7362C139.746 98.0626 133.405 101.981 126.488 100.488Z" fill="url(#paint5_linear_33_91)"/>
<path d="M120.766 84.3371C120.43 86.6804 122.241 89.0355 124.803 89.5885C127.365 90.1415 129.722 88.6858 130.057 86.3424C130.393 83.999 128.582 81.644 126.02 81.091C123.458 80.5379 121.101 81.9937 120.766 84.3371Z" fill="#EEFDFF"/>
<path d="M128.057 100.281C127.032 100.06 126.31 99.1208 126.444 98.1833C126.578 97.2457 127.518 96.6651 128.543 96.8863C129.568 97.1075 130.291 98.0469 130.156 98.9844C130.022 99.9219 129.082 100.503 128.057 100.281Z" fill="#EEFDFF"/>
<path d="M133.148 96.6392C133.08 97.1101 133.446 97.5729 133.949 97.6814C134.452 97.7899 134.926 97.4971 134.992 97.0371C135.058 96.5772 134.693 96.1034 134.191 95.9949C133.688 95.8863 133.214 96.1792 133.148 96.6392Z" fill="#EEFDFF"/>
<path style="mix-blend-mode:screen" d="M71.3506 98.5959C59.8713 96.1185 51.7846 85.5984 53.2884 75.0987C54.7922 64.5989 65.3171 58.0956 76.7963 60.5731C88.2756 63.0506 96.3623 73.5707 94.8585 84.0704C93.3547 94.5701 82.8298 101.073 71.3506 98.5959Z" fill="url(#paint6_radial_33_91)"/>
<path d="M72.119 93.2291C63.8799 91.4509 58.0757 83.9002 59.155 76.3641C60.2344 68.828 67.7885 64.1603 76.0277 65.9385C84.2669 67.7167 90.071 75.2674 88.9917 82.8035C87.9123 90.3396 80.3582 95.0073 72.119 93.2291Z" fill="#EEFDFF"/>
<path d="M72.4331 91.0406C65.5164 89.5478 60.6439 83.2091 61.55 76.8826C62.4561 70.5562 68.7977 66.6377 75.7144 68.1305C82.631 69.6232 87.5036 75.962 86.5975 82.2884C85.6914 88.6149 79.3498 92.5333 72.4331 91.0406Z" fill="url(#paint7_linear_33_91)"/>
<path d="M66.7106 74.8893C66.375 77.2327 68.1855 79.5877 70.7479 80.1407C73.3103 80.6937 75.6666 79.238 76.0023 76.8946C76.3379 74.5512 74.5273 72.1962 71.965 71.6432C69.4026 71.0902 67.0463 72.5459 66.7106 74.8893Z" fill="#EEFDFF"/>
<path d="M73.9907 90.8317C72.9656 90.6105 72.2435 89.6711 72.3778 88.7336C72.512 87.796 73.4519 87.2154 74.4769 87.4366C75.502 87.6578 76.2241 88.5972 76.0898 89.5347C75.9555 90.4722 75.0157 91.0529 73.9907 90.8317Z" fill="#EEFDFF"/>
<path d="M79.0929 87.1914C79.0255 87.6623 79.3912 88.1251 79.8941 88.2337C80.397 88.3422 80.8709 88.0493 80.9368 87.5894C81.0027 87.1294 80.6385 86.6557 80.1356 86.5471C79.6328 86.4386 79.1588 86.7315 79.0929 87.1914Z" fill="#EEFDFF"/>
<path d="M45.5454 29.2465C44.8632 32.6058 46.9136 37.1195 50.0118 38.0172C52.9181 38.8576 55.8089 36.2523 58.7869 33.5554C61.7224 30.8985 68.3584 23.9258 66.6625 21.3262C64.4228 17.8954 47.1578 21.3126 45.5474 29.2349L45.5454 29.2465Z" fill="white"/>
<path d="M74.8501 21.1063C73.4622 20.8637 72.5335 19.5426 72.776 18.1556C73.0184 16.7685 74.3401 15.8408 75.728 16.0833C77.1159 16.3259 78.0446 17.647 77.8021 19.034C77.5597 20.4211 76.238 21.3488 74.8501 21.1063Z" fill="white"/>
<path d="M37.7171 76.1395C38.4253 76.845 46.0524 66.377 62.8877 59.0973C68.8006 56.5335 74.4807 54.9618 74.2963 54.1816C74.1139 53.3899 67.972 53.7293 62.863 55.092C46.5874 59.442 36.877 75.3041 37.7286 76.1415L37.7171 76.1395Z" fill="white"/>
<path d="M89.3959 8.4408C89.5763 8.49607 89.8748 7.46786 91.0369 5.98509C91.0369 5.98509 91.5848 5.29727 92.1702 4.73474C94.0563 2.9155 99.1782 3.8582 99.5816 3.92872C107.57 5.39616 112.811 5.78991 112.803 5.83599C112.795 5.88207 109.051 5.14458 106.318 4.60744C98.5877 3.09015 94.0375 1.86745 91.6923 3.59457C90.7228 4.31555 90.1125 5.3605 90.1125 5.3605C89.2818 6.78247 89.206 8.37198 89.4094 8.43129L89.3959 8.4408Z" fill="white"/>
<path d="M72.7919 113.291C72.6537 115.238 73.9868 116.99 75.8797 117.511L101.935 124.701C103.817 125.22 105.872 124.404 106.748 122.657C107.144 121.883 107.476 121.075 107.755 120.221C107.832 119.985 107.817 119.733 107.701 119.511C107.586 119.289 107.387 119.136 107.149 119.07L74.2701 110C74.0321 109.934 73.7874 109.975 73.5768 110.092C73.3642 110.221 73.2221 110.422 73.1683 110.662C72.9807 111.531 72.8507 112.411 72.7824 113.277L72.7919 113.291Z" fill="#EEFDFF"/>
<path d="M72.7923 113.292C72.1982 121.653 77.5545 129.546 85.9538 131.857C94.2262 134.146 102.747 130.257 106.588 122.962C105.631 124.493 103.713 125.202 101.936 124.702L75.8665 117.522C73.9871 116.991 72.652 115.25 72.7903 113.303L72.7923 113.292Z" fill="url(#paint8_linear_33_91)"/>
</g>
</g>
</g>
<defs>
<linearGradient id="paint0_linear_33_91" x1="127.711" y1="-5.64075" x2="111.208" y2="-11.069" gradientUnits="userSpaceOnUse">
<stop offset="0.04" stop-color="#36E4D4"/>
<stop offset="1" stop-color="#E9CEC1"/>
</linearGradient>
<linearGradient id="paint1_linear_33_91" x1="124.519" y1="38.109" x2="100.409" y2="-1.0889" gradientUnits="userSpaceOnUse">
<stop offset="0.04" stop-color="#31E4D4"/>
<stop offset="1" stop-color="#E7CFC1"/>
</linearGradient>
<linearGradient id="paint2_linear_33_91" x1="147.536" y1="163.219" x2="49.2955" y2="23.2676" gradientUnits="userSpaceOnUse">
<stop offset="0.04" stop-color="#31E4D4"/>
<stop offset="1" stop-color="#FFCCBF"/>
</linearGradient>
<linearGradient id="paint3_linear_33_91" x1="96.2486" y1="108.368" x2="103.513" y2="60.5575" gradientUnits="userSpaceOnUse">
<stop stop-color="#030D14"/>
<stop offset="1" stop-color="#0B2F45"/>
</linearGradient>
<radialGradient id="paint4_radial_33_91" cx="0" cy="0" r="1" gradientUnits="userSpaceOnUse" gradientTransform="translate(128.128 89.0323) rotate(-167.821) scale(21.0432 18.9593)">
<stop offset="0.13" stop-color="#3280FC"/>
<stop offset="1"/>
</radialGradient>
<linearGradient id="paint5_linear_33_91" x1="140.652" y1="91.7362" x2="115.338" y2="88.1105" gradientUnits="userSpaceOnUse">
<stop stop-color="#030D14"/>
<stop offset="1" stop-color="#0B2F45"/>
</linearGradient>
<radialGradient id="paint6_radial_33_91" cx="0" cy="0" r="1" gradientUnits="userSpaceOnUse" gradientTransform="translate(90.563 -35.5463) rotate(-167.821) scale(21.0432 18.9593)">
<stop offset="0.13" stop-color="#3280FC"/>
<stop offset="1"/>
</radialGradient>
<linearGradient id="paint7_linear_33_91" x1="86.5975" y1="82.2884" x2="61.2827" y2="78.6627" gradientUnits="userSpaceOnUse">
<stop stop-color="#030D14"/>
<stop offset="1" stop-color="#0B2F45"/>
</linearGradient>
<linearGradient id="paint8_linear_33_91" x1="93.4319" y1="126.931" x2="64.9797" y2="86.4134" gradientUnits="userSpaceOnUse">
<stop offset="0.07" stop-color="#0DA9AB"/>
<stop offset="1" stop-color="#DEFA8E"/>
</linearGradient>
</defs>
</svg>
