<svg width="34" height="35" viewBox="0 0 34 35" fill="none" xmlns="http://www.w3.org/2000/svg">
<ellipse cx="17" cy="17.6419" rx="17" ry="17.3469" fill="#131313"/>
<path d="M18.32 10.499C19.7733 10.499 20.9733 10.979 21.92 11.939C22.8667 12.8857 23.34 14.0924 23.34 15.559C23.34 17.0257 22.8667 18.239 21.92 19.199C20.9733 20.1457 19.7733 20.619 18.32 20.619H15.6V24.499H12.36V10.499H18.32ZM17.82 17.979C18.4733 17.979 19.0067 17.7524 19.42 17.299C19.8467 16.8457 20.06 16.2657 20.06 15.559C20.06 14.8524 19.8467 14.2724 19.42 13.819C19.0067 13.3657 18.4733 13.139 17.82 13.139H15.6V17.979H17.82Z" fill="white"/>
</svg>
