<svg width="34" height="34" viewBox="0 0 34 34" fill="none" xmlns="http://www.w3.org/2000/svg">
<ellipse cx="17" cy="16.8605" rx="17" ry="16.8029" fill="#F75B33"/>
<path d="M18.32 9.94141C19.7733 9.94141 20.9733 10.4214 21.92 11.3814C22.8667 12.3281 23.34 13.5347 23.34 15.0014C23.34 16.4681 22.8667 17.6814 21.92 18.6414C20.9733 19.5881 19.7733 20.0614 18.32 20.0614H15.6V23.9414H12.36V9.94141H18.32ZM17.82 17.4214C18.4733 17.4214 19.0067 17.1947 19.42 16.7414C19.8467 16.2881 20.06 15.7081 20.06 15.0014C20.06 14.2947 19.8467 13.7147 19.42 13.2614C19.0067 12.8081 18.4733 12.5814 17.82 12.5814H15.6V17.4214H17.82Z" fill="white"/>
</svg>
