<svg width="1920" height="560" viewBox="0 0 1920 560" fill="none" xmlns="http://www.w3.org/2000/svg">
<rect y="0" width="1920" height="543" fill="url(#paint0_linear_0_1)"/>
<g opacity="0.2">
<path d="M1509.27 53.2095L1521.45 55.3398L1507.49 135.259L1495.3 133.129L1509.27 53.2095Z" fill="url(#paint1_linear_0_1)"/>
<path d="M1460.77 118.46L1544.92 133.168C1551.13 134.253 1555.28 140.163 1554.2 146.369L1548.95 176.422C1547.86 182.628 1541.95 186.779 1535.74 185.693L1451.59 170.985C1445.38 169.9 1441.22 163.99 1442.31 157.784L1447.56 127.731C1448.65 121.525 1454.56 117.375 1460.77 118.46Z" fill="url(#paint2_linear_0_1)"/>
<path d="M1532.75 156.915L1464.19 144.933C1377.8 129.834 1295.43 187.654 1280.34 273.987L1272.36 319.651C1263.88 368.175 1296.43 414.441 1344.96 422.923L1550.59 458.865C1599.15 467.351 1645.44 434.838 1653.91 386.339L1661.89 340.674C1676.98 254.341 1619.11 172.01 1532.72 156.911L1532.75 156.915Z" fill="url(#paint3_linear_0_1)"/>
<path d="M1333.84 321.816C1338.41 325.15 1343.78 327.421 1349.45 328.413L1578.42 368.432C1584.12 369.428 1589.94 369.113 1595.34 367.522C1608.67 363.6 1617.72 352.578 1618.2 339.725L1618.23 338.783C1619.79 295.249 1586.98 255.826 1540.19 245.138C1520.4 240.603 1499.52 236.416 1477.61 232.715C1460.45 229.819 1443.8 227.42 1427.71 225.454C1379.88 219.603 1335.38 245.386 1322.03 287.012C1321.93 287.302 1321.85 287.62 1321.74 287.91C1317.81 300.159 1322.61 313.602 1333.81 321.811L1333.84 321.816Z" fill="url(#paint4_linear_0_1)"/>
<path style="mix-blend-mode:screen" d="M1525.73 349.852C1501.99 345.808 1486.21 323.108 1490.48 299.15C1494.76 275.192 1517.47 259.048 1541.21 263.091C1564.95 267.134 1580.73 289.834 1576.46 313.792C1572.19 337.751 1549.48 353.895 1525.73 349.852Z" fill="url(#paint5_radial_0_1)"/>
<path d="M1527.92 337.605C1510.88 334.703 1499.55 318.41 1502.62 301.214C1505.68 284.018 1521.98 272.431 1539.02 275.333C1556.07 278.235 1567.39 294.528 1564.33 311.724C1561.26 328.92 1544.96 340.507 1527.92 337.605Z" fill="#EEFDFF"/>
<path d="M1528.81 332.611C1514.5 330.175 1504.99 316.497 1507.57 302.062C1510.14 287.626 1523.83 277.899 1538.13 280.335C1552.44 282.771 1561.95 296.449 1559.37 310.884C1556.8 325.32 1543.11 335.047 1528.81 332.611Z" fill="url(#paint6_linear_0_1)"/>
<path d="M1518 296.868C1517.05 302.215 1520.58 307.297 1525.88 308.2C1531.18 309.102 1536.26 305.488 1537.22 300.141C1538.17 294.793 1534.64 289.711 1529.34 288.809C1524.04 287.906 1518.95 291.521 1518 296.868Z" fill="#EEFDFF"/>
<path d="M1533.15 330.955C1531.03 330.594 1529.62 328.567 1530 326.428C1530.38 324.288 1532.41 322.847 1534.53 323.208C1536.65 323.569 1538.06 325.596 1537.68 327.735C1537.3 329.874 1535.27 331.316 1533.15 330.955Z" fill="#EEFDFF"/>
<path d="M1544.38 322.988C1544.19 324.062 1544.91 325.059 1545.95 325.236C1546.99 325.413 1548.01 324.687 1548.2 323.638C1548.39 322.589 1547.67 321.567 1546.63 321.39C1545.59 321.213 1544.57 321.939 1544.38 322.988Z" fill="#EEFDFF"/>
<path style="mix-blend-mode:screen" d="M1409.1 329.465C1385.35 325.421 1369.57 302.722 1373.85 278.763C1378.12 254.805 1400.83 238.661 1424.57 242.704C1448.31 246.748 1464.09 269.447 1459.82 293.406C1455.55 317.364 1432.84 333.508 1409.1 329.465Z" fill="url(#paint7_radial_0_1)"/>
<path d="M1411.28 317.218C1394.24 314.316 1382.91 298.023 1385.98 280.828C1389.05 263.632 1405.35 252.044 1422.39 254.946C1439.43 257.849 1450.75 274.141 1447.69 291.337C1444.62 308.533 1428.32 320.12 1411.28 317.218Z" fill="#EEFDFF"/>
<path d="M1412.17 312.224C1397.87 309.788 1388.36 296.111 1390.93 281.675C1393.51 267.239 1407.19 257.512 1421.49 259.948C1435.8 262.384 1445.31 276.062 1442.73 290.498C1440.16 304.933 1426.48 314.661 1412.17 312.224Z" fill="url(#paint8_linear_0_1)"/>
<path d="M1401.36 276.481C1400.41 281.829 1403.94 286.91 1409.24 287.813C1414.54 288.715 1419.62 285.101 1420.58 279.754C1421.53 274.406 1418 269.325 1412.7 268.422C1407.4 267.52 1402.32 271.134 1401.36 276.481Z" fill="#EEFDFF"/>
<path d="M1416.49 310.564C1414.37 310.203 1412.96 308.176 1413.34 306.037C1413.72 303.898 1415.75 302.456 1417.87 302.817C1419.99 303.178 1421.4 305.205 1421.02 307.344C1420.64 309.484 1418.61 310.925 1416.49 310.564Z" fill="#EEFDFF"/>
<path d="M1427.74 302.601C1427.55 303.675 1428.27 304.672 1429.31 304.849C1430.35 305.027 1431.37 304.3 1431.56 303.251C1431.75 302.202 1431.04 301.18 1430 301.003C1428.95 300.826 1427.93 301.552 1427.74 302.601Z" fill="#EEFDFF"/>
<path d="M1500.67 46.2266C1499.16 54.8525 1504.93 63.0593 1513.56 64.5679C1522.19 66.0766 1530.4 60.313 1531.91 51.6872C1533.42 43.0614 1527.65 34.8545 1519.02 33.3459C1510.39 31.8373 1502.18 37.6008 1500.67 46.2266Z" fill="url(#paint9_linear_0_1)"/>
<path d="M1506.49 40.967C1506.02 43.602 1507.79 46.0889 1510.41 46.5454C1513.02 47.0019 1515.53 45.2379 1515.99 42.6278C1516.44 40.0177 1514.68 37.506 1512.07 37.0495C1509.45 36.593 1506.94 38.3569 1506.49 40.967Z" fill="white"/>
<path d="M1355.28 177.468C1353.8 184.716 1358.23 194.456 1364.91 196.393C1371.18 198.206 1377.42 192.585 1383.85 186.765C1390.18 181.032 1404.5 165.987 1400.84 160.378C1396.01 152.975 1358.75 160.348 1355.28 177.443L1355.28 177.468Z" fill="white"/>
<path d="M1418.51 159.904C1415.51 159.381 1413.51 156.53 1414.03 153.537C1414.56 150.544 1417.41 148.542 1420.4 149.066C1423.4 149.589 1425.4 152.44 1424.88 155.433C1424.35 158.426 1421.5 160.428 1418.51 159.904Z" fill="white"/>
<path d="M1338.38 278.652C1339.91 280.174 1356.37 257.587 1392.7 241.879C1405.46 236.347 1417.71 232.956 1417.31 231.272C1416.92 229.564 1403.67 230.296 1392.64 233.237C1357.52 242.623 1336.57 276.849 1338.41 278.656L1338.38 278.652Z" fill="white"/>
<path d="M1449.89 132.575C1450.28 132.694 1450.93 130.475 1453.44 127.276C1453.44 127.276 1454.62 125.792 1455.88 124.578C1459.95 120.652 1471 122.686 1471.87 122.839C1489.11 126.005 1500.42 126.855 1500.4 126.954C1500.39 127.053 1492.31 125.462 1486.41 124.303C1469.73 121.029 1459.91 118.391 1454.85 122.118C1452.76 123.673 1451.44 125.928 1451.44 125.928C1449.65 128.996 1449.49 132.426 1449.92 132.554L1449.89 132.575Z" fill="white"/>
<path d="M1414.07 358.816C1413.77 363.017 1416.65 366.798 1420.73 367.922L1476.95 383.436C1481.01 384.555 1485.45 382.794 1487.34 379.026C1488.19 377.356 1488.91 375.611 1489.51 373.77C1489.68 373.261 1489.64 372.717 1489.39 372.238C1489.14 371.759 1488.72 371.428 1488.2 371.287L1417.26 351.714C1416.74 351.573 1416.22 351.66 1415.76 351.914C1415.3 352.192 1415 352.625 1414.88 353.143C1414.47 355.019 1414.19 356.917 1414.05 358.787L1414.07 358.816Z" fill="#EEFDFF"/>
<path d="M1414.07 358.818C1412.79 376.86 1424.34 393.892 1442.47 398.878C1460.32 403.817 1478.7 395.426 1486.99 379.685C1484.93 382.987 1480.79 384.518 1476.95 383.438L1420.7 367.945C1416.65 366.801 1413.77 363.044 1414.06 358.843L1414.07 358.818Z" fill="url(#paint10_linear_0_1)"/>
</g>
<defs>
<linearGradient id="paint0_linear_0_1" x1="960" y1="17" x2="960" y2="560" gradientUnits="userSpaceOnUse">
<stop stop-color="#DCF3F1"/>
<stop offset="1" stop-color="#D9D9D9" stop-opacity="0"/>
</linearGradient>
<linearGradient id="paint1_linear_0_1" x1="1532.57" y1="102.19" x2="1496.96" y2="90.4774" gradientUnits="userSpaceOnUse">
<stop offset="0.04" stop-color="#36E4D4"/>
<stop offset="1" stop-color="#E9CEC1"/>
</linearGradient>
<linearGradient id="paint2_linear_0_1" x1="1525.68" y1="196.591" x2="1473.66" y2="112.011" gradientUnits="userSpaceOnUse">
<stop offset="0.04" stop-color="#31E4D4"/>
<stop offset="1" stop-color="#E7CFC1"/>
</linearGradient>
<linearGradient id="paint3_linear_0_1" x1="1575.35" y1="466.547" x2="1363.37" y2="164.567" gradientUnits="userSpaceOnUse">
<stop offset="0.04" stop-color="#31E4D4"/>
<stop offset="1" stop-color="#FFCCBF"/>
</linearGradient>
<linearGradient id="paint4_linear_0_1" x1="1464.68" y1="348.194" x2="1480.36" y2="245.03" gradientUnits="userSpaceOnUse">
<stop stop-color="#030D14"/>
<stop offset="1" stop-color="#0B2F45"/>
</linearGradient>
<radialGradient id="paint5_radial_0_1" cx="0" cy="0" r="1" gradientUnits="userSpaceOnUse" gradientTransform="translate(1533.47 306.471) rotate(-170.335) scale(43.1547 43.6066)">
<stop offset="0.13" stop-color="#3280FC"/>
<stop offset="1"/>
</radialGradient>
<linearGradient id="paint6_linear_0_1" x1="1559.37" y1="310.884" x2="1507.62" y2="301.654" gradientUnits="userSpaceOnUse">
<stop stop-color="#030D14"/>
<stop offset="1" stop-color="#0B2F45"/>
</linearGradient>
<radialGradient id="paint7_radial_0_1" cx="0" cy="0" r="1" gradientUnits="userSpaceOnUse" gradientTransform="translate(1463.69 23.3788) rotate(-170.335) scale(43.1547 43.6066)">
<stop offset="0.13" stop-color="#3280FC"/>
<stop offset="1"/>
</radialGradient>
<linearGradient id="paint8_linear_0_1" x1="1442.73" y1="290.498" x2="1390.98" y2="281.267" gradientUnits="userSpaceOnUse">
<stop stop-color="#030D14"/>
<stop offset="1" stop-color="#0B2F45"/>
</linearGradient>
<linearGradient id="paint9_linear_0_1" x1="1512.53" y1="67.0745" x2="1501.23" y2="43.9501" gradientUnits="userSpaceOnUse">
<stop stop-color="#6DDDCE"/>
<stop offset="1" stop-color="#FFCCBF"/>
</linearGradient>
<linearGradient id="paint10_linear_0_1" x1="1458.6" y1="388.249" x2="1397.21" y2="300.821" gradientUnits="userSpaceOnUse">
<stop offset="0.07" stop-color="#0DA9AB"/>
<stop offset="1" stop-color="#DEFA8E"/>
</linearGradient>
</defs>
</svg>
