<svg width="23" height="22" viewBox="0 0 23 22" fill="none" xmlns="http://www.w3.org/2000/svg">
<path d="M22.6175 0L14.7934 21.6146C14.7407 21.7296 14.6559 21.827 14.5493 21.8954C14.4426 21.9637 14.3185 22 14.1918 22C14.065 22 13.9409 21.9637 13.8343 21.8954C13.7276 21.827 13.6428 21.7296 13.5901 21.6146L9.37699 13.2092L0.951748 9.00608C0.83649 8.95345 0.738809 8.86891 0.670323 8.7625C0.601838 8.65609 0.56543 8.53229 0.56543 8.40584C0.56543 8.27938 0.601838 8.15559 0.670323 8.04918C0.738809 7.94277 0.83649 7.85822 0.951748 7.80559L22.6175 0Z" fill="white"/>
</svg>
