<svg width="236" height="33" viewBox="0 0 236 33" fill="none" xmlns="http://www.w3.org/2000/svg">
<path d="M133.851 0C131.694 1.07814 129.816 2.6381 128.362 4.55857H110.596L107.352 0H133.851Z" fill="#1E70B9"/>
<path d="M125.356 16.2754H110.594L107.352 11.7168H125.354C125.134 13.2284 125.134 14.7638 125.354 16.2754H125.356Z" fill="#1E70B9"/>
<path d="M133.865 28.0078H107.352L110.596 23.4492H128.373C129.828 25.37 131.707 26.93 133.865 28.0078Z" fill="#1E70B9"/>
<path d="M140.76 5.86148C142.375 5.85172 143.957 6.32073 145.306 7.20904C146.654 8.09735 147.707 9.36496 148.332 10.8512C148.957 12.3374 149.126 13.9753 148.816 15.5572C148.507 17.1392 147.734 18.5939 146.595 19.737C145.456 20.8801 144.003 21.6601 142.419 21.9782C140.835 22.2962 139.192 22.1379 137.699 21.5234C136.205 20.9089 134.928 19.8659 134.03 18.5265C133.131 17.1871 132.651 15.6116 132.651 13.9999C132.648 12.9344 132.855 11.8787 133.261 10.893C133.667 9.90736 134.263 9.01108 135.016 8.25536C135.769 7.49964 136.664 6.89926 137.649 6.48852C138.635 6.07778 139.692 5.86471 140.76 5.86148Z" fill="#0F804A"/>
<path d="M142.606 20.3132C142.007 20.49 141.386 20.5796 140.761 20.5793C139.446 20.5699 138.165 20.1691 137.08 19.4285C135.995 18.6878 135.156 17.641 134.671 16.4219C134.187 15.2029 134.078 13.8673 134.358 12.5861C134.639 11.3049 135.297 10.1364 136.247 9.23047C135.787 10.3704 135.592 11.5996 135.676 12.8257C135.761 14.0517 136.122 15.2428 136.734 16.3093C137.346 17.3759 138.192 18.2903 139.209 18.9838C140.226 19.6772 141.388 20.1318 142.606 20.3132Z" fill="white"/>
<path d="M108.463 19.8619C108.461 22.02 107.6 24.089 106.07 25.615C104.541 27.141 102.467 27.9994 100.304 28.002H86.3682L89.6126 23.4435H100.312C101.251 23.4234 102.144 23.0374 102.801 22.368C103.457 21.6987 103.825 20.7994 103.825 19.8628C103.825 18.9262 103.457 18.0269 102.801 17.3575C102.144 16.6882 101.251 16.3022 100.312 16.2821H94.5507C92.3867 16.2821 90.3113 15.4245 88.7811 13.8979C87.2509 12.3714 86.3912 10.3009 86.3912 8.14203C86.3912 5.98315 87.2509 3.91269 88.7811 2.38613C90.3113 0.859569 92.3867 0.00195312 94.5507 0.00195312H105.25L108.494 4.56053H94.5573C94.0795 4.55032 93.6044 4.63539 93.16 4.81075C92.7156 4.98611 92.3108 5.24824 91.9692 5.58175C91.6277 5.91526 91.3563 6.31346 91.1711 6.75297C90.9858 7.19247 90.8904 7.66444 90.8904 8.14122C90.8904 8.61801 90.9858 9.08998 91.1711 9.52948C91.3563 9.96899 91.6277 10.3672 91.9692 10.7007C92.3108 11.0342 92.7156 11.2963 93.16 11.4717C93.6044 11.647 94.0795 11.7321 94.5573 11.7219H100.318C102.479 11.7284 104.549 12.5886 106.076 14.1142C107.602 15.6397 108.461 17.7064 108.463 19.8619Z" fill="#EA5050"/>
<path d="M159.548 29.3467L152.194 22.0096C153.966 19.4544 154.827 16.3803 154.642 13.2789C154.456 10.1774 153.233 7.22766 151.169 4.90111C149.105 2.57456 146.318 1.00555 143.255 0.444869C140.192 -0.115811 137.029 0.364215 134.271 1.80822C131.513 3.25223 129.321 5.57687 128.043 8.4105C126.766 11.2441 126.478 14.4231 127.225 17.4394C127.972 20.4557 129.711 23.1351 132.164 25.0492C134.617 26.9634 137.643 28.0018 140.757 27.9985C143.644 28.0013 146.46 27.1014 148.808 25.4253L156.141 32.741C156.308 32.907 156.534 33.0003 156.77 33.0003C157.006 33.0003 157.232 32.907 157.399 32.741L159.539 30.6062C159.623 30.5244 159.69 30.4268 159.736 30.3191C159.782 30.2114 159.806 30.0956 159.807 29.9785C159.808 29.8614 159.785 29.7453 159.741 29.6369C159.697 29.5284 159.631 29.4298 159.548 29.3467ZM130.058 14.0009C130.072 11.8929 130.711 9.83617 131.895 8.09017C133.079 6.34417 134.755 4.98706 136.711 4.18999C138.668 3.39293 140.817 3.19163 142.888 3.61143C144.958 4.03122 146.858 5.05332 148.347 6.54886C149.837 8.0444 150.849 9.94642 151.256 12.015C151.663 14.0836 151.447 16.2261 150.635 18.1724C149.823 20.1187 148.452 21.7816 146.694 22.9513C144.936 24.1211 142.87 24.7454 140.757 24.7454C139.347 24.7409 137.952 24.4594 136.652 23.9169C135.351 23.3745 134.17 22.5818 133.177 21.5841C132.183 20.5863 131.396 19.4031 130.861 18.102C130.326 16.8008 130.053 15.4073 130.058 14.0009Z" fill="#6D6D6D"/>
<path d="M1.52821 5.21124C2.23684 4.10558 3.2499 3.22711 4.44609 2.68105C5.81519 2.05575 7.30814 1.74688 8.81358 1.77749C10.9744 1.67568 13.0986 2.36098 14.7906 3.7057C15.5335 4.32723 16.1246 5.10965 16.5188 5.99341C16.913 6.87717 17.0999 7.83898 17.0654 8.80567H15.2948C15.3211 8.05239 15.1753 7.30301 14.8683 6.61429C14.5614 5.92557 14.1013 5.31556 13.523 4.83049C12.1749 3.77072 10.4868 3.23568 8.77273 3.32495C7.06895 3.24464 5.39436 3.78743 4.06327 4.85146C3.48095 5.33858 3.01711 5.95128 2.70676 6.64332C2.39641 7.33536 2.24764 8.08866 2.27169 8.84642C2.2202 9.86225 2.52658 10.864 3.13772 11.6782C3.62306 12.311 4.25076 12.8212 4.97015 13.1674C5.74291 13.5019 6.53623 13.787 7.3453 14.0209L12.0349 15.3855C12.8471 15.624 13.6381 15.9293 14.3996 16.2984C15.284 16.7758 16.0436 17.4539 16.6172 18.2779C17.3728 19.3502 17.7516 20.6419 17.6945 21.9515C17.7327 22.9513 17.534 23.9461 17.1144 24.8549C16.6948 25.7638 16.0662 26.561 15.2796 27.1818C13.428 28.4303 11.2474 29.1042 9.01252 29.1185C6.77767 29.1328 4.58857 28.4869 2.72104 27.2622C1.91972 26.6528 1.26142 25.8761 0.792112 24.9866C0.322805 24.0971 0.0538076 23.1161 0.00390625 22.1121H1.89586C1.873 22.9026 2.04341 23.6867 2.39236 24.3968C2.74132 25.1068 3.25832 25.7214 3.8987 26.1875C5.411 27.2115 7.21546 27.7185 9.04118 27.6324C10.8659 27.7417 12.6703 27.2007 14.1323 26.1059C14.7309 25.6127 15.2075 24.9884 15.525 24.2817C15.8426 23.5749 15.9927 22.8046 15.9636 22.0306C16.0278 21.3704 15.9314 20.7045 15.6827 20.0893C15.4341 19.4741 15.0403 18.9278 14.535 18.4968C13.4963 17.7458 12.3303 17.188 11.093 16.8503L6.48511 15.5858C5.57491 15.339 4.68925 15.0097 3.83918 14.6019C2.93991 14.1274 2.16446 13.4496 1.5749 12.6225C0.821057 11.5533 0.445707 10.264 0.508116 8.95821C0.48137 7.63753 0.83544 6.33696 1.52821 5.21124Z" fill="#6D6D6D"/>
<path d="M44.1361 11.9475C44.7404 12.6062 45.2023 13.382 45.493 14.2266C45.7838 15.0711 45.8972 15.9663 45.8261 16.8565V28.6621H44.2563V17.0777C44.2563 13.5714 42.6729 11.8113 39.506 11.7973C38.5246 11.7715 37.5577 12.0374 36.7282 12.5611C35.9683 13.0504 35.3515 13.7312 34.9401 14.5347C34.5269 15.3321 34.3127 16.2173 34.3156 17.115V28.6597H32.6641V17.0754C32.7435 15.6631 32.2873 14.2726 31.3861 13.1805C30.9379 12.6995 30.3893 12.3226 29.779 12.0763C29.1687 11.83 28.5117 11.7205 27.8543 11.7554C26.8895 11.7323 25.9399 11.9979 25.1278 12.518C24.368 13.0131 23.7559 13.7033 23.3561 14.5161C22.9535 15.3103 22.7433 16.1877 22.7422 17.0777V28.6621H21.0918V10.8087H22.3605L22.6616 13.6032C23.0904 12.6024 23.8259 11.7628 24.7625 11.2046C25.8251 10.5983 27.0352 10.2971 28.2587 10.3343C29.4823 10.3715 30.6717 10.7457 31.6954 11.4154C32.7255 12.1341 33.4783 13.1826 33.829 14.3869C34.2461 13.1855 35.0331 12.1465 36.0777 11.4181C37.1222 10.6898 38.3707 10.3094 39.6449 10.3313C40.4633 10.2922 41.2814 10.4148 42.0522 10.6922C42.8229 10.9695 43.5311 11.3962 44.1361 11.9475Z" fill="#6D6D6D"/>
<path d="M66.7589 10.81V28.6249H65.2287V24.3889C64.6714 25.7899 63.6902 26.9828 62.4217 27.8017C61.0651 28.6415 59.5057 29.099 57.9093 29.1254C56.3129 29.1519 54.7391 28.7463 53.3553 27.9519C52.0534 27.154 51.0035 26.0058 50.3265 24.6393C49.604 23.0978 49.2295 21.4168 49.2295 19.7151C49.2295 18.0134 49.604 16.3325 50.3265 14.791C51.0074 13.426 52.0651 12.2835 53.3751 11.4981C54.7024 10.7149 56.2205 10.312 57.7624 10.3337C59.4282 10.3006 61.0678 10.7504 62.4824 11.6286C63.7722 12.4046 64.756 13.5985 65.2696 15.0111L65.3501 10.8193L66.7589 10.81ZM62.9948 25.4566C64.3487 23.8146 65.0377 21.7266 64.9264 19.6034C65.0343 17.5365 64.3589 15.5049 63.0345 13.9119C62.3693 13.2338 61.5738 12.6966 60.6955 12.3327C59.8173 11.9688 58.8744 11.7856 57.9234 11.794C56.9724 11.8025 56.0329 12.0025 55.1613 12.3821C54.2897 12.7616 53.5039 13.3128 52.8511 14.0027C51.515 15.6114 50.8265 17.6583 50.9194 19.7454C50.8162 21.8291 51.5024 23.8753 52.8417 25.4776C53.47 26.1868 54.2481 26.7482 55.1199 27.1215C55.9918 27.4947 56.9357 27.6706 57.8838 27.6364C58.844 27.6737 59.8005 27.498 60.6843 27.1218C61.5682 26.7457 62.3573 26.1785 62.9948 25.4613V25.4566Z" fill="#6D6D6D"/>
<path d="M71.6113 0.419922H73.2617V28.6292H71.6113V0.419922Z" fill="#6D6D6D"/>
<path d="M78.3545 0.419922H80.0048V28.6292H78.3545V0.419922Z" fill="#6D6D6D"/>
<path d="M176.544 3.90476H168.212V28.6209H166.477V3.90476H158.125V2.25833H166.477V2.21875H168.208V2.25833H176.54L176.544 3.90476Z" fill="#6D6D6D"/>
<path d="M174.964 15.0576C175.743 13.6254 176.898 12.4316 178.305 11.6041C179.764 10.746 181.431 10.3049 183.125 10.3291C184.825 10.3066 186.498 10.7475 187.965 11.6041C189.385 12.4298 190.554 13.623 191.35 15.0576C192.16 16.5019 192.579 18.1313 192.567 19.7861C192.582 21.4287 192.162 23.0462 191.35 24.475C190.548 25.8894 189.379 27.0616 187.965 27.868C186.494 28.7123 184.822 29.1458 183.125 29.1232C181.445 29.1451 179.791 28.7112 178.34 27.868C176.936 27.0567 175.776 25.8851 174.979 24.475C174.167 23.0464 173.747 21.4288 173.762 19.7861C173.751 18.1333 174.165 16.5054 174.964 15.0576ZM176.464 23.7811C177.088 24.9523 178.025 25.9287 179.171 26.6023C180.369 27.302 181.738 27.6597 183.126 27.6363C184.524 27.6604 185.902 27.3028 187.111 26.6023C188.263 25.9279 189.21 24.9524 189.848 23.7811C190.514 22.5551 190.853 21.1792 190.834 19.785C190.853 18.3781 190.514 16.9894 189.848 15.7492C189.211 14.5667 188.265 13.5781 187.111 12.8884C185.9 12.201 184.532 11.838 183.139 11.8345C181.746 11.8311 180.375 12.1873 179.161 12.8686C178.016 13.5485 177.082 14.532 176.464 15.7096C175.807 16.9668 175.475 18.3675 175.498 19.785C175.478 21.1769 175.81 22.5512 176.464 23.7811Z" fill="#6D6D6D"/>
<path d="M195.898 15.0576C196.677 13.6255 197.832 12.4317 199.238 11.6041C200.698 10.746 202.365 10.3049 204.059 10.3291C205.758 10.3066 207.432 10.7475 208.899 11.6041C210.319 12.4297 211.488 13.623 212.284 15.0576C213.094 16.5018 213.514 18.1312 213.502 19.7861C213.517 21.4288 213.097 23.0463 212.284 24.475C211.482 25.8894 210.313 27.0617 208.899 27.868C207.428 28.7123 205.756 29.1459 204.059 29.1232C202.379 29.1452 200.725 28.7114 199.274 27.868C197.869 27.0569 196.709 25.8853 195.912 24.475C195.099 23.0463 194.679 21.4288 194.695 19.7861C194.684 18.1332 195.099 16.5053 195.898 15.0576ZM197.398 23.7811C198.022 24.9523 198.959 25.9287 200.105 26.6023C201.303 27.3019 202.671 27.6596 204.059 27.6363C205.457 27.6602 206.834 27.3027 208.043 26.6023C209.196 25.9279 210.142 24.9524 210.78 23.7811C211.446 22.5551 211.786 21.1792 211.767 19.785C211.786 18.3781 211.447 16.9894 210.78 15.7492C210.144 14.5667 209.198 13.5782 208.043 12.8884C206.833 12.201 205.464 11.838 204.071 11.8345C202.678 11.8311 201.308 12.1873 200.094 12.8686C198.949 13.5486 198.015 14.5321 197.397 15.7096C196.74 16.9668 196.408 18.3675 196.43 19.785C196.411 21.177 196.744 22.5514 197.398 23.7811Z" fill="#6D6D6D"/>
<path d="M217.122 0.417969H218.772V28.6273H217.122V0.417969Z" fill="#6D6D6D"/>
<path d="M224.379 27.7181C223.782 27.2976 223.291 26.7455 222.944 26.1046C222.597 25.4638 222.402 24.7516 222.376 24.0235H223.946C223.965 24.5682 224.115 25.1004 224.383 25.5754C224.651 26.0504 225.029 26.4546 225.485 26.754C226.59 27.4403 227.878 27.7765 229.178 27.7181C230.461 27.7905 231.733 27.4528 232.81 26.754C233.237 26.4504 233.581 26.0455 233.811 25.5759C234.042 25.1062 234.151 24.5867 234.129 24.0643C234.129 22.2308 232.923 21.0664 230.511 20.5712L227.089 19.8283C224.312 19.2259 222.923 17.7002 222.922 15.2511C222.905 14.568 223.049 13.8904 223.343 13.2731C223.637 12.6558 224.072 12.116 224.613 11.6975C225.946 10.7925 227.524 10.3162 229.136 10.3324C230.748 10.3487 232.316 10.8567 233.63 11.7883C234.192 12.2516 234.646 12.8323 234.959 13.4896C235.272 14.1469 235.436 14.8647 235.441 15.5923H233.891C233.902 15.0477 233.784 14.5082 233.546 14.0179C233.308 13.5275 232.957 13.1003 232.522 12.771C231.521 12.1316 230.363 11.781 229.174 11.758C227.986 11.735 226.815 12.0405 225.79 12.6406C225.391 12.9275 225.071 13.3094 224.859 13.7513C224.646 14.1933 224.548 14.6812 224.573 15.1708C224.533 15.5962 224.601 16.0248 224.769 16.4175C224.938 16.8102 225.203 17.1546 225.539 17.4192C226.241 17.8992 227.036 18.2276 227.873 18.3833L231.616 19.2065C232.83 19.4368 233.935 20.0533 234.768 20.9636C235.476 21.8095 235.851 22.8834 235.824 23.9851C235.852 24.7103 235.704 25.4315 235.392 26.0871C235.08 26.7427 234.614 27.3131 234.032 27.7495C232.601 28.7373 230.88 29.2211 229.142 29.1247C227.442 29.1919 225.768 28.6975 224.379 27.7181Z" fill="#6D6D6D"/>
</svg>
