<svg width="55" height="54" viewBox="0 0 55 54" fill="none" xmlns="http://www.w3.org/2000/svg">
<path d="M27.5487 53.6726C42.5148 53.6726 54.6472 41.6576 54.6472 26.8363C54.6472 12.015 42.5148 0 27.5487 0C12.5826 0 0.450195 12.015 0.450195 26.8363C0.450195 41.6576 12.5826 53.6726 27.5487 53.6726Z" fill="#23ABFF"/>
<path d="M40.3558 17.1661C39.3106 17.7898 38.1661 18.2302 36.9718 18.4684C36.4764 17.9335 35.8753 17.5067 35.2064 17.215C34.5375 16.9233 33.8154 16.7729 33.0854 16.7734C31.6661 16.7802 30.3075 17.3491 29.3086 18.355C28.3096 19.3609 27.7521 20.7215 27.7586 22.1374C27.758 22.5495 27.8041 22.9601 27.8962 23.3618C25.7744 23.2517 23.6999 22.6954 21.8086 21.7296C19.9174 20.7638 18.2521 19.4101 16.9219 17.7574C16.2416 18.9386 16.0334 20.3324 16.339 21.6602C16.6445 22.988 17.4414 24.1517 18.5701 24.9186C17.7234 24.89 16.8959 24.659 16.1573 24.2451V24.3126C16.1536 25.5462 16.5766 26.7431 17.3549 27.7017C18.1332 28.6603 19.2191 29.3216 20.4295 29.5741C19.6452 29.7884 18.8217 29.8184 18.0238 29.6617C18.359 30.7233 19.019 31.6534 19.9111 32.3218C20.8032 32.9901 21.8827 33.3632 22.9981 33.3883C21.1169 34.877 18.7856 35.686 16.3844 35.6833C15.9596 35.6831 15.5353 35.6586 15.1133 35.6099C17.5439 37.1841 20.38 38.021 23.2779 38.0193C33.074 38.0193 38.4314 29.8453 38.4314 22.7558L38.414 22.0603C39.4609 21.3028 40.3624 20.3634 41.0755 19.2871C40.1046 19.7207 39.0738 20.0055 38.0177 20.132C39.1301 19.4571 39.9605 18.4037 40.3558 17.1661Z" fill="white"/>
</svg>
