<svg width="24" height="20" viewBox="0 0 24 20" fill="none" xmlns="http://www.w3.org/2000/svg">
<path d="M6.68914 15.1049C5.41105 15.1049 4.18532 14.6027 3.28158 13.7089C2.37783 12.815 1.87012 11.6026 1.87012 10.3385C1.87012 9.07433 2.37783 7.86197 3.28158 6.96808C4.18532 6.0742 5.41105 5.57203 6.68914 5.57203C6.99099 4.18147 7.87405 2.95947 9.14404 2.17484C9.77288 1.78633 10.4778 1.51689 11.2185 1.38191C11.9592 1.24693 12.7213 1.24905 13.4611 1.38815C14.201 1.52725 14.9041 1.8006 15.5305 2.1926C16.1568 2.58459 16.694 3.08756 17.1115 3.67279C17.5289 4.25801 17.8185 4.91402 17.9635 5.60337C18.1085 6.29272 18.1063 7.00191 17.9568 7.69044H18.9811C19.932 7.69044 20.8439 8.08103 21.5162 8.77627C22.1886 9.47151 22.5663 10.4145 22.5663 11.3977C22.5663 12.3809 22.1886 13.3238 21.5162 14.0191C20.8439 14.7143 19.932 15.1049 18.9811 15.1049H17.9568" stroke="white" stroke-width="2" stroke-linecap="round" stroke-linejoin="round"/>
<path d="M8.7373 11.9282L11.8103 8.75L14.8833 11.9282" stroke="white" stroke-width="2" stroke-linecap="round" stroke-linejoin="round"/>
<path d="M11.8105 8.75V18.2829" stroke="white" stroke-width="2" stroke-linecap="round" stroke-linejoin="round"/>
</svg>
