<svg width="292" height="369" viewBox="0 0 292 369" fill="none" xmlns="http://www.w3.org/2000/svg">
<path fill-rule="evenodd" clip-rule="evenodd" d="M155.474 217.47C156.145 243.956 150.093 266.761 141.907 275.873C131.674 287.264 70.6662 290.123 59.4886 273.907C52.4895 263.754 47.7445 242.226 47.2349 217.47C46.9441 203.262 47.2109 197.72 52.4535 198.64C85.5037 204.449 118.041 203.79 148.427 198.298C153.726 197.339 155.057 201.314 155.474 217.47Z" fill="#EBEBEE"/>
<path fill-rule="evenodd" clip-rule="evenodd" d="M157.221 217.428C157.557 230.44 156.283 242.577 153.936 252.678C151.412 263.55 147.623 272.141 143.211 277.051C142.597 277.734 141.829 278.394 140.927 279.011C133.823 283.912 117.403 286.906 100.986 286.999C84.5086 287.092 67.8696 284.269 60.3609 277.518C59.4646 276.715 58.6823 275.846 58.0348 274.907C54.3899 269.62 51.3534 261.44 49.1773 251.431C47.0491 241.614 45.7302 229.972 45.4754 217.506C45.3315 210.279 45.3255 205.228 46.0479 202.006C46.9921 197.818 48.9645 196.245 52.7533 196.91C68.7958 199.728 84.7004 201.023 100.269 200.966C116.63 200.909 132.648 199.374 148.109 196.58C151.736 195.927 154.005 196.94 155.432 200.873C156.55 203.963 157.012 209.164 157.215 217.431L157.221 217.428ZM150.51 251.896C152.8 242.049 154.038 230.206 153.714 217.509C153.517 209.634 153.106 204.757 152.129 202.069C151.463 200.216 150.411 199.725 148.739 200.027C133.083 202.857 116.851 204.413 100.275 204.47C84.4696 204.527 68.3581 203.226 52.1478 200.378C50.697 200.123 49.9147 200.858 49.486 202.767C48.8386 205.636 48.8446 210.468 48.9884 217.434C49.2432 229.631 50.5381 241.045 52.6274 250.682C54.7046 260.268 57.5612 268.01 60.9304 272.908C61.41 273.598 62.0065 274.272 62.7169 274.904C69.5212 281.019 85.2519 283.576 100.977 283.489C116.764 283.396 132.39 280.636 138.934 276.124C139.599 275.663 140.16 275.192 140.6 274.701C144.611 270.228 148.121 262.186 150.51 251.896Z" fill="black"/>
<path fill-rule="evenodd" clip-rule="evenodd" d="M92.7847 322.414V314.222C92.7847 273.834 49.0544 276.787 49.0544 314.222V322.414C60.4748 335.298 81.5681 337.168 92.7847 322.414Z" fill="#EBEBEE"/>
<path fill-rule="evenodd" clip-rule="evenodd" d="M91.0251 321.824V314.222C91.0251 313.767 91.0191 313.314 91.0071 312.865C84.1699 316.069 77.3986 317.667 70.6842 317.667C63.9699 317.667 57.3784 316.081 50.8349 312.901C50.8229 313.335 50.8169 313.779 50.8169 314.219V321.74C51.9679 322.984 53.2119 324.105 54.5308 325.106C59.4886 328.877 65.5046 330.954 71.4755 331.035C77.3986 331.11 83.2766 329.207 88.0096 325.013C89.0797 324.06 90.0869 322.999 91.0251 321.821V321.824ZM90.8932 310.583C84.0829 313.899 77.3386 315.553 70.6842 315.553C64.0298 315.553 57.4713 313.905 50.9668 310.607C51.881 299.628 56.9557 292.308 63.2265 288.93C65.8193 287.53 68.6129 286.807 71.3886 286.784C74.1493 286.76 76.907 287.425 79.4368 288.798C85.3659 292.026 90.0719 299.187 90.8932 310.58V310.583ZM94.5441 314.222V322.415C94.5381 322.894 94.5321 323.035 94.1844 323.473C92.9974 325.04 91.7025 326.428 90.3327 327.639C84.9012 332.453 78.1839 334.629 71.4276 334.542C64.7162 334.455 57.9659 332.123 52.4056 327.906C50.733 326.623 49.1593 325.181 47.7355 323.578C47.4807 323.248 47.3129 322.999 47.2889 322.415V314.222C47.2889 299.76 53.5896 290.132 61.5569 285.833C64.6473 284.173 68.0015 283.306 71.3556 283.276C74.7098 283.246 78.049 284.047 81.1154 285.713C88.6931 289.844 94.5441 299.223 94.5441 314.222Z" fill="black"/>
<path fill-rule="evenodd" clip-rule="evenodd" d="M109.696 322.414V314.222C109.696 273.834 153.433 276.787 153.433 314.222V322.414C142.006 335.298 120.913 337.168 109.696 322.414Z" fill="#EBEBEE"/>
<path fill-rule="evenodd" clip-rule="evenodd" d="M107.937 322.415V314.223C107.937 299.226 113.797 289.844 121.372 285.714C124.432 284.047 127.78 283.244 131.131 283.277C134.477 283.307 137.831 284.173 140.927 285.833C148.895 290.132 155.192 299.76 155.192 314.223V322.415C155.147 323.011 155 323.26 154.746 323.578C153.322 325.181 151.754 326.626 150.073 327.906C144.518 332.124 137.762 334.456 131.051 334.542C124.294 334.629 117.577 332.453 112.154 327.639C110.779 326.425 109.493 325.037 108.303 323.473C108.117 323.224 107.985 322.894 107.937 322.415ZM151.64 312.811C145.04 316.051 138.358 317.67 131.605 317.67C124.852 317.67 118.251 316.096 111.477 312.955C111.471 313.371 111.465 313.794 111.465 314.223V321.824C112.403 322.999 113.41 324.063 114.48 325.017C119.213 329.21 125.092 331.113 131.009 331.038C136.98 330.958 142.995 328.88 147.953 325.109C149.272 324.108 150.516 322.987 151.667 321.743V314.223C151.667 313.743 151.661 313.278 151.643 312.811H151.64ZM111.582 310.677C118.338 313.929 125.011 315.553 131.605 315.553C138.199 315.553 144.941 313.875 151.511 310.521C150.579 299.586 145.507 292.302 139.258 288.93C136.671 287.53 133.877 286.808 131.101 286.784C128.341 286.76 125.577 287.425 123.047 288.798C117.106 292.032 112.391 299.223 111.582 310.674V310.677Z" fill="black"/>
<path fill-rule="evenodd" clip-rule="evenodd" d="M101.336 250.092C107.191 250.092 111.962 245.32 111.962 239.465C111.962 233.611 107.191 228.848 101.336 228.848C95.4824 228.848 90.7194 233.62 90.7194 239.465C90.7194 245.311 95.4914 250.092 101.336 250.092Z" fill="#EBEBEE"/>
<path fill-rule="evenodd" clip-rule="evenodd" d="M101.336 227.79C104.565 227.79 107.481 229.103 109.597 231.21C111.708 233.323 113.018 236.243 113.018 239.471C113.018 242.7 111.705 245.61 109.591 247.726L109.597 247.732C107.484 249.843 104.565 251.146 101.336 251.146C98.1081 251.146 95.1975 249.84 93.0873 247.732L93.0813 247.726C90.9651 245.604 89.6612 242.688 89.6612 239.471C89.6612 236.255 90.9681 233.326 93.0813 231.21V231.216C95.1945 229.1 98.1201 227.787 101.336 227.787V227.79ZM108.099 232.712C106.369 230.976 103.98 229.906 101.336 229.906C98.6926 229.906 96.3036 230.976 94.5741 232.706V232.712C92.8445 234.442 91.7744 236.831 91.7744 239.474C91.7744 242.118 92.8445 244.507 94.5681 246.237L94.5741 246.243C96.3036 247.966 98.6926 249.036 101.336 249.036C103.98 249.036 106.369 247.966 108.099 246.237H108.105C109.834 244.507 110.898 242.118 110.898 239.474C110.898 236.831 109.828 234.442 108.099 232.712Z" fill="black"/>
<path fill-rule="evenodd" clip-rule="evenodd" d="M69.0775 201.484C66.9073 211.643 66.2479 223.48 67.0932 236.977C67.6417 245.754 68.8287 255.235 70.6512 265.424C91.109 265.406 111.57 265.406 132.022 265.424C133.844 255.235 135.034 245.754 135.586 236.977C136.425 223.48 135.765 211.643 133.601 201.484L135.667 201.044C137.87 211.394 138.547 223.411 137.687 237.103C136.836 250.757 134.453 266.071 130.553 283.058L128.5 282.584C129.687 277.407 130.733 272.39 131.641 267.525C111.438 267.513 91.2349 267.513 71.0349 267.525C71.9371 272.39 72.9832 277.407 74.1762 282.584L72.117 283.058C68.2172 266.071 65.8402 250.757 64.983 237.103C64.1317 223.411 64.8031 211.394 67.0122 201.044L69.0775 201.484Z" fill="black"/>
<path fill-rule="evenodd" clip-rule="evenodd" d="M27.6194 265.319C35.6316 274.617 51.3684 272.567 48.4698 261.506C45.3854 250.976 43.557 231.324 46.7583 201.413C26.84 214.949 18.9177 232.167 22.9913 253.059C23.8246 257.328 24.7088 261.947 27.6194 265.319Z" fill="#EBEBEE"/>
<path fill-rule="evenodd" clip-rule="evenodd" d="M28.9503 264.167C31.738 267.408 35.5688 269.107 39.0578 269.398C40.7484 269.536 42.3371 269.347 43.656 268.831C44.855 268.364 45.8261 267.624 46.4107 266.628C47.0881 265.483 47.2889 263.943 46.7913 261.994H46.7853C46.015 259.362 45.3226 256.179 44.765 252.42C41.3059 251.737 37.9488 251.623 34.6875 252.103C31.4412 252.57 28.2879 253.613 25.2275 255.226C25.9289 258.505 26.8821 261.769 28.9533 264.164L28.9503 264.167ZM44.4503 250.214C41.0092 249.612 37.658 249.543 34.3788 250.016C31.0935 250.49 27.8982 251.515 24.7868 253.083L24.7359 252.81L24.7179 252.723C22.7515 242.646 23.6718 233.47 27.4726 225.209C30.8747 217.82 36.5909 211.115 44.6152 205.093C43.4701 217.092 43.1554 227.373 43.4042 236.003C43.5541 241.372 43.9257 246.105 44.4503 250.217V250.214ZM38.7641 272.905C34.4597 272.551 29.7267 270.453 26.2916 266.466C23.0873 262.759 22.1491 257.945 21.2858 253.478L21.2678 253.391V253.386C19.1576 242.574 20.1677 232.685 24.2833 223.734C28.3778 214.838 35.5418 206.916 45.7812 199.952L48.9105 197.824L48.5119 201.592C47.0611 215.123 46.6445 226.522 46.9142 235.904C47.232 247.088 48.5119 255.385 50.1545 261.002L50.1725 261.059C50.9428 264.015 50.5831 266.484 49.4381 268.418C48.4369 270.114 46.8453 271.352 44.9149 272.105C43.0984 272.809 40.9702 273.082 38.7641 272.902V272.905Z" fill="black"/>
<path fill-rule="evenodd" clip-rule="evenodd" d="M175.053 265.319C167.041 274.617 151.304 272.567 154.203 261.506C157.287 250.976 159.116 231.324 155.914 201.413C175.839 214.949 183.758 232.167 179.681 253.059C178.848 257.328 177.964 261.947 175.053 265.319Z" fill="#EBEBEE"/>
<path fill-rule="evenodd" clip-rule="evenodd" d="M176.387 266.47C172.946 270.456 168.219 272.555 163.909 272.908C161.7 273.088 159.58 272.816 157.758 272.111C155.825 271.359 154.245 270.121 153.235 268.424C152.096 266.488 151.73 264.021 152.506 261.065L152.518 261.008C154.161 255.391 155.447 247.094 155.765 235.911C156.031 226.531 155.615 215.129 154.167 201.598L153.762 197.831L156.898 199.959C167.131 206.919 174.295 214.844 178.396 223.741C182.514 232.691 183.521 242.583 181.411 253.392L181.393 253.479C180.524 257.945 179.583 262.759 176.384 266.473L176.387 266.47ZM163.624 269.401C167.107 269.108 170.938 267.411 173.726 264.171C176.312 261.179 177.161 256.836 177.943 252.813L177.955 252.732C179.921 242.649 179.007 233.48 175.2 225.213C171.798 217.824 166.088 211.118 158.058 205.096C159.203 217.095 159.52 227.377 159.278 236.006C158.948 247.532 157.611 256.135 155.894 262.001C155.396 263.949 155.588 265.49 156.265 266.635C156.85 267.63 157.827 268.37 159.026 268.838C160.339 269.353 161.924 269.542 163.621 269.404L163.624 269.401Z" fill="black"/>
<path fill-rule="evenodd" clip-rule="evenodd" d="M179.825 254.135C176.112 251.965 172.269 250.589 168.294 250.016C164.319 249.438 160.225 249.663 156.007 250.682L156.493 252.735C160.45 251.776 164.286 251.566 167.994 252.106C171.702 252.642 175.284 253.922 178.755 255.952L179.825 254.135Z" fill="#162537"/>
<path fill-rule="evenodd" clip-rule="evenodd" d="M76.1007 81.7441H126.572C159.82 81.7441 187.016 108.946 187.016 142.188V149.67C187.016 182.912 159.583 206.17 126.572 210.105C102.685 212.962 98.2011 213.223 76.1007 210.105C43.1824 205.471 15.6625 182.909 15.6625 149.67V142.188C15.6625 108.946 42.8587 81.7441 76.1007 81.7441Z" fill="#EBEBEE"/>
<path fill-rule="evenodd" clip-rule="evenodd" d="M13.6871 130.684C9.09796 131.325 6.03154 134.691 4.55678 138.876C3.87935 140.803 3.52265 142.902 3.51066 144.991C3.49867 147.074 3.8164 149.163 4.48184 151.094C5.89965 155.224 8.94808 158.539 13.6871 159.193V130.684ZM76.1036 79.9814H126.575C143.682 79.9814 159.239 86.9806 170.509 98.2511C178.354 106.095 184.127 116.005 186.905 127.069L187.217 127.063C194.54 126.994 199.321 131.679 201.443 137.707C202.247 139.991 202.663 142.485 202.681 144.973C202.693 147.467 202.315 149.955 201.536 152.239C199.489 158.18 194.792 162.802 187.316 162.838C184.816 173.797 179.223 183.347 171.504 191.065C160.165 202.404 144.227 209.775 126.785 211.853C114.804 213.282 107.682 214.062 100.671 214.098C93.6868 214.128 86.9815 213.414 75.8578 211.847C58.3675 209.383 42.343 201.949 30.9826 190.591C23.375 182.984 17.8566 173.635 15.3687 162.835C7.88698 162.799 3.18393 158.177 1.14265 152.236C0.363304 149.955 -0.0173764 147.467 0.000608511 144.973C0.0185934 142.485 0.429248 139.991 1.23857 137.707C3.36078 131.679 8.13577 126.997 15.4646 127.063L15.7703 127.069C18.558 116.002 24.3281 106.095 32.1726 98.2511C43.4431 86.9806 58.994 79.9814 76.1006 79.9814H76.1036ZM198.128 138.876C196.653 134.691 193.581 131.325 188.992 130.684V159.193C193.731 158.539 196.785 155.224 198.203 151.094C198.862 149.166 199.186 147.074 199.174 144.991C199.156 142.902 198.808 140.803 198.128 138.876ZM126.575 83.5035H76.1006C59.9652 83.5035 45.2985 90.1039 34.6605 100.739C24.0224 111.383 17.425 126.05 17.425 142.185V149.667C17.425 165.119 23.5638 178.188 33.4795 188.098C44.3034 198.921 59.5995 206.004 76.3434 208.369C87.3232 209.913 93.9086 210.621 100.659 210.591C107.388 210.561 114.456 209.781 126.368 208.363C143.034 206.373 158.229 199.356 169.016 188.571C179.043 178.545 185.257 165.233 185.257 149.67V142.188C185.257 126.053 178.656 111.386 168.015 100.742C157.377 90.1069 142.711 83.5065 126.575 83.5065V83.5035Z" fill="black"/>
<path fill-rule="evenodd" clip-rule="evenodd" d="M66.2418 125.828C90.6024 131.961 114.264 131.502 137.372 125.828C149.26 122.911 159.622 135.837 159.622 148.078C159.622 160.32 149.122 166.908 137.372 170.323C114.252 177.052 90.6143 177.891 66.2418 170.323C54.5607 166.696 43.9976 160.314 43.9976 148.078C43.9976 135.843 54.3778 122.842 66.2418 125.828Z" fill="#373333"/>
<path fill-rule="evenodd" clip-rule="evenodd" d="M66.5836 124.458C78.6574 127.501 90.5454 128.907 102.269 128.85C113.995 128.793 125.577 127.27 137.033 124.458H137.039C138.313 124.147 139.566 123.997 140.777 123.997C145.486 123.997 149.809 126.161 153.244 129.545C156.604 132.86 159.116 137.362 160.291 142.14C160.77 144.101 161.031 146.097 161.031 148.075C161.031 154.04 158.705 158.761 154.997 162.469C150.648 166.825 144.386 169.741 137.762 171.669C126.081 175.065 114.267 176.98 102.281 177.079C90.2936 177.19 78.1508 175.487 65.8282 171.663C59.8183 169.795 54.0781 167.208 49.8097 163.482C45.4124 159.646 42.5828 154.649 42.5828 148.075C42.5828 146.04 42.8555 143.99 43.3591 141.979C44.5521 137.246 47.061 132.773 50.4062 129.482C53.8263 126.128 58.1127 123.982 62.7858 123.982C64.0237 123.982 65.2917 124.132 66.5806 124.455L66.5836 124.458ZM102.284 131.661C90.3086 131.718 78.1868 130.285 65.9061 127.195C64.854 126.928 63.8109 126.802 62.7888 126.802C58.907 126.802 55.2921 128.631 52.3815 131.487C49.408 134.416 47.1629 138.418 46.0928 142.665C45.6462 144.436 45.4034 146.268 45.4034 148.075C45.4034 153.729 47.8613 158.048 51.6621 161.369C55.5948 164.798 60.9813 167.217 66.6585 168.977C78.7024 172.721 90.5634 174.381 102.263 174.276C113.971 174.177 125.538 172.304 136.985 168.977C143.193 167.166 149.023 164.46 153.004 160.479C156.214 157.275 158.211 153.213 158.211 148.075C158.211 146.31 157.986 144.535 157.563 142.806C156.511 138.531 154.266 134.503 151.274 131.547C148.343 128.661 144.698 126.82 140.78 126.82C139.767 126.82 138.739 126.937 137.708 127.186V127.192C126.057 130.046 114.249 131.595 102.284 131.658V131.661Z" fill="black"/>
<path fill-rule="evenodd" clip-rule="evenodd" d="M68.8288 79.1749C78.6636 74.0792 88.822 71.3695 98.9985 71.0398C99.2173 71.0338 99.3911 70.761 99.4091 70.3983L100.093 58.0247V58.0187C99.0105 57.5391 98.2581 56.469 98.2581 55.2191C98.2581 53.5405 99.6339 52.1707 101.336 52.1707C103.039 52.1707 104.421 53.5405 104.421 55.2191C104.421 56.469 103.669 57.5391 102.58 58.0187V58.0247L103.264 70.4163C103.288 70.77 103.456 71.0458 103.675 71.0518C113.857 71.4504 124.015 74.2351 133.85 79.3998C134.048 79.5047 134.174 79.8344 134.138 80.1761C134.108 80.5238 133.94 80.7786 133.727 80.7726C126.572 80.7546 104.984 80.6797 68.9487 80.5478C68.7419 80.5478 68.5681 80.293 68.5321 79.9513C68.5081 79.6036 68.625 79.2739 68.8318 79.1749H68.8288Z" fill="#101010"/>
<path fill-rule="evenodd" clip-rule="evenodd" d="M53.5417 85.6858C56.4402 98.6679 58.6974 112.252 59.6386 126.685C58.9222 126.778 58.2327 126.922 57.5553 127.108C56.6351 112.69 54.384 99.1115 51.4914 86.1414L53.5447 85.6858H53.5417ZM58.4006 168.305C57.0188 179.285 54.7437 190.753 51.3475 202.791L49.3182 202.219C52.7144 190.169 54.9865 178.695 56.3533 167.703C57.0128 167.952 57.6962 168.155 58.4006 168.305Z" fill="black"/>
<path fill-rule="evenodd" clip-rule="evenodd" d="M151.194 86.1414C148.295 99.1115 146.044 112.69 145.13 127.108C144.452 126.922 143.754 126.778 143.046 126.685C143.979 112.255 146.239 98.6679 149.137 85.6858L151.197 86.1414H151.194ZM146.329 167.703C147.689 178.695 149.962 190.172 153.364 202.219L151.328 202.791C147.938 190.756 145.654 179.285 144.275 168.305C144.977 168.155 145.663 167.952 146.329 167.703Z" fill="black"/>
<path fill-rule="evenodd" clip-rule="evenodd" d="M15.5786 128.82C-2.3044 128.64 -3.05676 161.078 15.5786 161.078C13.819 148.768 13.4504 139.898 15.5786 128.82Z" fill="#EBEBEE"/>
<path fill-rule="evenodd" clip-rule="evenodd" d="M187.097 128.82C204.98 128.64 205.739 161.078 187.097 161.078C188.863 148.768 189.231 139.898 187.097 128.82Z" fill="#EBEBEE"/>
<path fill-rule="evenodd" clip-rule="evenodd" d="M101.336 247.493C105.761 247.493 109.361 243.89 109.361 239.468C109.361 235.047 105.758 231.45 101.336 231.45C96.9151 231.45 93.3121 235.053 93.3121 239.468C93.3121 243.884 96.9211 247.493 101.336 247.493Z" fill="#F95B33"/>
<path fill-rule="evenodd" clip-rule="evenodd" d="M24.7897 253.083C27.0109 251.965 29.28 251.117 31.588 250.559C29.0252 232.4 33.3685 217.248 44.6181 205.093C36.5938 211.115 30.8776 217.821 27.4755 225.209C23.6747 233.47 22.7544 242.646 24.7208 252.723L24.7388 252.81L24.7897 253.083Z" fill="#C2C5C6"/>
<path fill-rule="evenodd" clip-rule="evenodd" d="M31.9117 252.648C29.6337 253.221 27.4065 254.078 25.2244 255.229C25.9258 258.509 26.879 261.773 28.9502 264.168C30.9795 266.518 33.5544 268.061 36.1472 268.841C34.1868 263.212 32.775 257.813 31.9117 252.648Z" fill="#C2C5C6"/>
<path fill-rule="evenodd" clip-rule="evenodd" d="M66.6826 270.543C59.9533 251.141 57.4894 234.744 60.6787 208.346C58.6524 207.749 51.1377 204.638 49.3033 203.676C48.6618 206.544 48.8416 210.468 48.9855 217.434C49.2403 229.631 50.5352 241.045 52.6245 250.682C54.7017 260.268 57.5583 268.01 60.9275 272.908C61.4071 273.598 62.0036 274.272 62.714 274.905C64.8242 276.796 67.7827 278.352 71.3347 279.59C70.7262 276.808 70.1537 274.077 69.6292 271.392C68.634 271.125 67.6508 270.843 66.6796 270.546L66.6826 270.543Z" fill="#C2C5C6"/>
<path fill-rule="evenodd" clip-rule="evenodd" d="M130.541 273.181C107.937 276.445 88.3903 276.041 71.8951 271.979C72.4437 274.716 73.0282 277.497 73.6666 280.327C81.3192 282.566 91.1449 283.543 100.974 283.486C111.207 283.423 121.369 282.242 129.039 280.189C129.567 277.818 130.064 275.48 130.538 273.178L130.541 273.181Z" fill="#C2C5C6"/>
<path fill-rule="evenodd" clip-rule="evenodd" d="M132.756 272.851C132.321 275.046 131.848 277.273 131.35 279.527C134.473 278.55 137.072 277.405 138.934 276.125C139.599 275.663 140.16 275.192 140.6 274.701C141.533 273.655 142.441 272.426 143.313 271.014C139.725 271.709 136.203 272.327 132.756 272.854V272.851Z" fill="#C2C5C6"/>
<path fill-rule="evenodd" clip-rule="evenodd" d="M166.142 249.78C168.387 235.305 167.35 221.768 163.019 209.167C161.475 207.773 159.82 206.412 158.055 205.093C159.2 217.092 159.517 227.374 159.275 236.003C159.119 241.372 158.753 246.105 158.223 250.217C160.908 249.744 163.555 249.603 166.142 249.783V249.78Z" fill="#C2C5C6"/>
<path fill-rule="evenodd" clip-rule="evenodd" d="M165.794 251.875C163.231 251.707 160.606 251.887 157.92 252.423C157.359 256.182 156.664 259.366 155.894 261.997C155.396 263.946 155.588 265.486 156.265 266.631C156.85 267.627 157.827 268.367 159.026 268.835C159.709 269.101 160.474 269.281 161.283 269.374C163.291 263.397 164.793 257.561 165.794 251.875Z" fill="#C2C5C6"/>
<path fill-rule="evenodd" clip-rule="evenodd" d="M56.9977 313.191C57.4444 304.484 60.8615 295.869 67.2491 287.338C65.8823 287.701 64.5244 288.228 63.2235 288.93C56.9528 292.308 51.878 299.628 50.9638 310.608C52.9661 311.627 54.9744 312.487 56.9977 313.188V313.191Z" fill="#C2C5C6"/>
<path fill-rule="evenodd" clip-rule="evenodd" d="M91.0251 320.592C77.3326 324.735 66.0831 324.549 57.2615 320.038C57.0636 318.488 56.9617 316.947 56.9497 315.404C54.9025 314.72 52.8702 313.887 50.8349 312.904L50.8169 314.223V321.743C51.9679 322.987 53.2119 324.108 54.5308 325.11C59.4886 328.88 65.5045 330.958 71.4755 331.039C77.3985 331.113 83.2766 329.21 88.0096 325.017C89.0797 324.063 90.0869 323.002 91.0251 321.824V320.592Z" fill="#C2C5C6"/>
<path fill-rule="evenodd" clip-rule="evenodd" d="M117.616 313.152C118.062 304.445 121.423 295.611 127.816 287.083C116.402 289.466 112.229 301.031 111.576 310.682C113.578 311.696 115.601 312.448 117.616 313.152Z" fill="#C2C5C6"/>
<path fill-rule="evenodd" clip-rule="evenodd" d="M151.661 320.643C137.969 324.786 126.716 324.6 117.897 320.089C117.7 318.539 117.61 316.917 117.598 315.374C115.568 314.672 113.506 313.917 111.471 312.955L111.459 314.273V321.794C120.589 334.246 140.708 334.006 151.661 321.875V320.643Z" fill="#C2C5C6"/>
<path fill-rule="evenodd" clip-rule="evenodd" d="M57.3904 124.956C56.5001 112.285 54.5098 100.253 52.0039 88.7161C45.5114 91.6596 39.6453 95.7631 34.6605 100.739C24.0224 111.383 17.425 126.05 17.425 142.185V149.667C17.425 165.119 23.5638 178.188 33.4795 188.097C38.2065 192.83 43.7878 196.844 49.9776 200.06C52.8702 189.398 55.0853 177.693 56.3772 167.87C52.7743 165.916 50.73 164.753 46.2997 159.684C43.9677 156.492 42.5858 152.667 42.5858 148.078C42.5858 146.043 42.8586 143.993 43.3622 141.981C44.5552 137.248 47.0641 132.776 50.4092 129.485C52.4625 127.476 54.8185 125.903 57.3904 124.956Z" fill="#C2C5C6"/>
<path fill-rule="evenodd" clip-rule="evenodd" d="M53.9702 87.865C56.497 99.4772 58.4874 111.59 59.4555 124.353C59.8032 124.272 60.1599 124.209 60.5137 124.155C61.6077 111.671 68.382 94.3036 81.52 83.5067C68.6188 82.6973 58.2745 85.9376 53.9702 87.868V87.865Z" fill="#C2C5C6"/>
<path fill-rule="evenodd" clip-rule="evenodd" d="M60.2949 169.687C59.6984 169.432 59.027 169.138 58.3586 168.842C57.0397 178.787 54.7946 190.202 51.845 201.001C59.3207 204.628 67.6627 207.146 76.3404 208.372C87.3202 209.916 93.9056 210.623 100.656 210.593C107.385 210.563 114.453 209.784 126.365 208.366C135.067 207.329 143.373 204.913 150.855 201.313C150.381 199.59 149.935 197.872 149.506 196.17C111.606 200.411 63.3224 212.347 60.2949 169.69V169.687Z" fill="#C2C5C6"/>
<path fill-rule="evenodd" clip-rule="evenodd" d="M151.616 195.93C151.991 197.393 152.375 198.864 152.779 200.351C156.02 198.672 159.086 196.763 161.961 194.641C158.432 195.105 154.988 195.537 151.616 195.93Z" fill="#C2C5C6"/>
<path fill-rule="evenodd" clip-rule="evenodd" d="M10.5937 158.303C4.80859 148.225 6.46319 138.297 13.2555 128.993C12.4462 129.149 11.2202 129.416 10.246 129.883C-1.27929 135.033 -1.09944 157.283 12.0505 160.65C11.5349 159.864 11.0433 159.082 10.5937 158.306V158.303Z" fill="#C2C5C6"/>
<path fill-rule="evenodd" clip-rule="evenodd" d="M190.077 158.996C192.676 147.698 192.768 138.355 190.367 130.972C190.149 130.313 189.912 129.665 189.657 129.033C188.848 128.889 187.99 128.814 187.094 128.82C189.228 139.899 188.86 148.768 187.094 161.079C187.984 161.079 188.824 161.004 189.627 160.86C189.783 160.23 189.933 159.61 190.074 158.996H190.077Z" fill="#C2C5C6"/>
<path fill-rule="evenodd" clip-rule="evenodd" d="M138.577 150.099C138.229 148.501 137.426 147.068 136.314 145.95C134.791 144.434 132.687 143.492 130.367 143.492C128.047 143.492 125.946 144.431 124.426 145.95C123.308 147.068 122.505 148.501 122.157 150.099C121.926 151.157 121.012 151.897 119.93 151.897C119.219 151.897 118.605 151.598 118.158 151.046C117.712 150.492 117.556 149.832 117.706 149.137C118.245 146.661 119.483 144.458 121.207 142.737C123.551 140.387 126.791 138.936 130.37 138.936C133.949 138.936 137.186 140.387 139.533 142.737C141.263 144.461 142.501 146.661 143.034 149.137C143.19 149.832 143.028 150.492 142.579 151.046C142.132 151.601 141.521 151.897 140.807 151.897C139.725 151.897 138.811 151.157 138.58 150.099H138.577Z" fill="#F95B33"/>
<path fill-rule="evenodd" clip-rule="evenodd" d="M81.4632 150.099C81.1154 148.501 80.3061 147.068 79.1941 145.95C77.6714 144.434 75.5731 143.492 73.2531 143.492C70.933 143.492 68.8318 144.431 67.3121 145.95C66.191 147.068 65.3907 148.501 65.04 150.099C64.8092 151.157 63.8949 151.897 62.8128 151.897C62.0965 151.897 61.488 151.598 61.0413 151.046C60.5947 150.492 60.4388 149.832 60.5857 149.137C61.1223 146.661 62.3662 144.458 64.0868 142.737C66.4308 140.387 69.6711 138.936 73.2501 138.936C76.8291 138.936 80.0663 140.387 82.4134 142.737C84.1369 144.461 85.3749 146.661 85.9144 149.137C86.0643 149.832 85.9084 150.492 85.4588 151.046C85.0122 151.601 84.3947 151.897 83.6873 151.897C82.5992 151.897 81.691 151.157 81.4602 150.099H81.4632Z" fill="#F95B33"/>
<path opacity="0.71" fill-rule="evenodd" clip-rule="evenodd" d="M101.336 350.843C144.779 350.843 179.993 354.743 179.993 359.55C179.993 364.358 144.779 368.264 101.336 368.264C57.894 368.264 22.6796 364.364 22.6796 359.55C22.6796 354.737 57.8999 350.843 101.336 350.843Z" fill="#DDDDDD"/>
<path d="M251.93 3.41113H218.124C198.38 3.41113 182.37 19.4177 182.37 39.1651C182.37 48.2714 185.781 56.5774 191.387 62.8901L184.507 86.1775C183.656 89.0611 186.854 91.4501 189.375 89.8105L212.906 74.5353C214.608 74.7841 216.35 74.919 218.124 74.919H251.93C271.674 74.919 287.684 58.9125 287.684 39.1651C287.684 19.4177 271.677 3.41113 251.93 3.41113Z" fill="white"/>
<path d="M187.61 93.7581C186.216 93.7581 184.825 93.3115 183.638 92.4243C181.384 90.7397 180.44 87.9101 181.237 85.2123L187.595 63.6874C182.014 56.7453 178.959 48.1125 178.959 39.1651C178.959 17.5682 196.527 0 218.124 0H251.93C273.527 0 291.095 17.5682 291.095 39.1651C291.095 60.7619 273.527 78.3301 251.93 78.3301H218.124C216.664 78.3301 215.187 78.2462 213.712 78.0783L191.234 92.6731C190.116 93.3984 188.86 93.7581 187.607 93.7581H187.61ZM218.124 6.82226C200.292 6.82226 185.784 21.3301 185.784 39.1651C185.784 47.0814 188.68 54.704 193.941 60.624C194.723 61.5053 194.996 62.7252 194.663 63.8553L187.919 86.6931L211.053 71.6727C211.749 71.2201 212.585 71.0373 213.403 71.1572C214.977 71.388 216.568 71.5049 218.127 71.5049H251.933C269.765 71.5049 284.276 56.9971 284.276 39.1651C284.276 21.3331 269.768 6.82226 251.933 6.82226H218.127H218.124Z" fill="#F95B33"/>
<path d="M201.572 26.054H216.47C218.952 26.054 220.756 26.6175 221.88 27.7385C223.004 28.8626 223.565 30.6641 223.565 33.149V36.695C223.565 39.1769 223.001 40.9814 221.88 42.1055C220.759 43.2295 218.955 43.79 216.47 43.79H207.957V50.8851H201.572V26.054ZM217.18 33.149C217.18 31.7312 216.47 31.0208 215.052 31.0208H207.957V38.8232H215.052C216.47 38.8232 217.18 38.1128 217.18 36.695V33.149Z" fill="#F95B33"/>
<path d="M240.59 26.054C243.261 26.054 245.29 26.7464 246.672 28.1282C248.054 29.51 248.746 31.5393 248.746 34.2101V42.7229C248.746 45.3967 248.054 47.423 246.672 48.8048C245.29 50.1867 243.261 50.8791 240.59 50.8791H226.757V26.054H240.59ZM242.365 34.2131C242.365 32.0849 241.301 31.0208 239.172 31.0208H233.141V45.9182H239.172C241.301 45.9182 242.365 44.8541 242.365 42.7259V34.2131Z" fill="#F95B33"/>
<path d="M258.68 50.8851H252.296V26.054H271.983V31.0208H258.68V36.8749H269.144V41.8417H258.68V50.8881V50.8851Z" fill="#F95B33"/>
</svg>
