<svg width="97" height="96" viewBox="0 0 97 96" fill="none" xmlns="http://www.w3.org/2000/svg">
<path d="M48.6389 95.8188C75.0219 95.8188 96.4096 74.4547 96.4096 48.1008C96.4096 21.7469 75.0219 0.382812 48.6389 0.382812C22.2559 0.382812 0.868164 21.7469 0.868164 48.1008C0.868164 74.4547 22.2559 95.8188 48.6389 95.8188Z" fill="black"/>
<path d="M28.8194 39.4876L38.9385 67.1426C33.984 64.7444 30.1583 60.5183 28.27 55.3577C26.3817 50.197 26.5787 44.506 28.8194 39.4876ZM62.5126 47.0336C62.4842 44.9639 61.8785 42.9431 60.7634 41.1976C59.6899 39.4526 58.6805 37.9786 58.6805 36.2336C58.6655 35.731 58.7551 35.2308 58.9438 34.7645C59.1325 34.2983 59.416 33.8761 59.7765 33.5247C60.137 33.1733 60.5667 32.9004 61.0383 32.7231C61.5099 32.5458 62.0133 32.468 62.5166 32.4946C60.2518 30.426 57.5637 28.8727 54.6381 27.942C51.7126 27.0114 48.6194 26.7256 45.5723 27.1045C42.5252 27.4833 39.5969 28.5177 36.9898 30.1362C34.3827 31.7547 32.1589 33.9187 30.4723 36.4786C32.814 36.5376 35.1571 36.4564 37.489 36.2356C37.6036 36.2267 37.7188 36.2403 37.8281 36.2758C37.9374 36.3113 38.0386 36.368 38.126 36.4425C38.2133 36.517 38.2851 36.6079 38.3372 36.7101C38.3894 36.8123 38.4208 36.9238 38.4298 37.0381C38.4387 37.1524 38.425 37.2674 38.3894 37.3764C38.3538 37.4854 38.2971 37.5864 38.2224 37.6735C38.1477 37.7607 38.0565 37.8323 37.9541 37.8843C37.8516 37.9363 37.7399 37.9677 37.6253 37.9766C37.6253 37.9766 36.4756 38.1106 35.1986 38.1766L42.923 61.0956L47.566 47.2106L44.2581 38.1786C43.1144 38.1106 42.0328 37.9786 42.0328 37.9786C41.8011 37.9608 41.586 37.852 41.4348 37.676C41.2836 37.5 41.2086 37.2712 41.2264 37.0401C41.2442 36.809 41.3533 36.5943 41.5298 36.4435C41.7062 36.2926 41.9355 36.2178 42.1672 36.2356C45.9055 36.5861 49.6686 36.5861 53.4069 36.2356C53.632 36.229 53.8511 36.3092 54.0185 36.4595C54.186 36.6098 54.2889 36.8186 54.3061 37.0426C54.3233 37.2667 54.2533 37.4887 54.1106 37.6626C53.968 37.8365 53.7638 37.949 53.5402 37.9766C53.5402 37.9766 52.3885 38.1106 51.1135 38.1766L58.7827 60.9226L60.8987 53.8696C61.8139 50.9446 62.5116 48.8416 62.5116 47.0306L62.5126 47.0336ZM48.5674 49.9506L42.2022 68.3996C46.4739 69.6529 51.0324 69.535 55.2333 68.0626C55.0558 67.7766 48.6787 50.2676 48.5634 49.9506H48.5674ZM66.8108 37.9506C67.191 41.275 66.684 44.6405 65.3413 47.7066L58.8529 66.3906C63.6314 63.6175 67.1362 59.093 68.6208 53.7805C70.1055 48.468 69.4529 42.7872 66.8018 37.9476L66.8108 37.9506ZM72.9254 48.1026C72.925 52.981 71.4746 57.7497 68.7577 61.8058C66.0408 65.8619 62.1793 69.0232 57.6615 70.89C53.1437 72.7569 48.1724 73.2453 43.3763 72.2937C38.5803 71.3421 34.1747 68.9932 30.7167 65.5439C27.2588 62.0945 24.9037 57.6998 23.9492 52.9152C22.9948 48.1307 23.4838 43.1712 25.3545 38.6639C27.2253 34.1567 30.3937 30.304 34.4591 27.593C38.5246 24.8821 43.3045 23.4346 48.1945 23.4336C54.7493 23.4426 61.0331 26.0443 65.668 30.6684C70.3029 35.2924 72.9106 41.5614 72.9194 48.1006L72.9254 48.1026ZM71.7917 48.1026C71.7927 43.4476 70.41 38.8969 67.8185 35.0259C65.227 31.1548 61.543 28.1374 57.2325 26.3551C52.9219 24.5728 48.1785 24.1057 43.6018 25.0129C39.0252 25.92 34.821 28.1607 31.5209 31.4516C28.2208 34.7425 25.9729 38.9357 25.0616 43.501C24.1504 48.0664 24.6166 52.7988 26.4013 57.0998C28.186 61.4008 31.2091 65.0773 35.0882 67.6643C38.9674 70.2513 43.5284 71.6326 48.1945 71.6336C54.4482 71.6254 60.4434 69.1434 64.8655 64.7319C69.2875 60.3204 71.7754 54.3394 71.7837 48.1006L71.7917 48.1026Z" fill="white"/>
</svg>
