<svg width="55" height="54" viewBox="0 0 55 54" fill="none" xmlns="http://www.w3.org/2000/svg">
<path d="M27.4676 53.6726C42.4337 53.6726 54.5661 41.6576 54.5661 26.8363C54.5661 12.015 42.4337 0 27.4676 0C12.5016 0 0.369141 12.015 0.369141 26.8363C0.369141 41.6576 12.5016 53.6726 27.4676 53.6726Z" fill="#F63329"/>
<path d="M37.0678 16.4525C32.6756 16.1534 22.8935 16.1543 18.5074 16.4525C13.7575 16.7761 13.1982 19.6396 13.1631 27.1708C13.1982 34.6924 13.7531 37.5646 18.5109 37.889C22.8943 38.1873 32.6791 38.1882 37.0713 37.889C41.8203 37.5654 42.3797 34.7037 42.4191 27.1708C42.3762 19.6509 41.8221 16.777 37.0678 16.4525ZM24.1314 32.0336V22.308L33.881 27.1612L24.1314 32.0336Z" fill="white"/>
</svg>
