<svg xmlns="http://www.w3.org/2000/svg" width="30" height="30" viewBox="0 0 30 30">
  <g id="dailymotion" transform="translate(-369.141 -187.14)">
    <circle id="Ellipse_729" data-name="Ellipse 729" cx="15" cy="15" r="15" transform="translate(369.141 187.14)" fill="#0166db"/>
    <g id="Group_23170" data-name="Group 23170" transform="translate(376.891 194.186)">
      <path id="Path_22" data-name="Path 22" d="M567.575,294.022v-1.071a4.577,4.577,0,0,1-2.628,1.12,4.963,4.963,0,0,1-5.186-4.093,5.175,5.175,0,0,1,3.945-6.045,3.873,3.873,0,0,1,3.41.742l.324.367v-4.221a23.271,23.271,0,0,1,2.8-.668c.161-.045.2.067.2.2,0,.1,0,.194,0,.292q0,6.444,0,12.888a.848.848,0,0,1-.069.511Zm-2.4-2.644a2.337,2.337,0,0,0,2.4-2.331,2.453,2.453,0,0,0-2.432-2.587,2.494,2.494,0,0,0-2.488,2.429A2.43,2.43,0,0,0,565.173,291.378Z" transform="translate(-559.669 -280.143)" fill="#fbfbfd"/>
    </g>
  </g>
</svg>
