<svg xmlns="http://www.w3.org/2000/svg" width="30" height="30" viewBox="0 0 30 30">
  <g id="Group_23143" data-name="Group 23143" transform="translate(-369.357 -187.356)">
    <circle id="Ellipse_729" data-name="Ellipse 729" cx="15" cy="15" r="15" transform="translate(369.357 187.356)" fill="#1877f2"/>
    <path id="Shape_609" data-name="Shape 609" d="M1239.084,2897.877l-1.479,0a2.553,2.553,0,0,0-2.736,2.713v1.251h-1.488a.229.229,0,0,0-.232.225v1.812a.229.229,0,0,0,.232.225h1.487v4.573a.229.229,0,0,0,.233.225h1.941a.229.229,0,0,0,.233-.225V2904.1h1.739a.229.229,0,0,0,.233-.225v-1.812a.222.222,0,0,0-.068-.159.237.237,0,0,0-.165-.066h-1.74v-1.061c0-.51.126-.768.813-.768h1a.229.229,0,0,0,.232-.225V2898.1A.229.229,0,0,0,1239.084,2897.877Z" transform="translate(-851.876 -2701.03)" fill="#fff"/>
  </g>
</svg>
