<svg xmlns="http://www.w3.org/2000/svg" width="30" height="30" viewBox="0 0 30 30">
  <g id="Group_23143" data-name="Group 23143" transform="translate(-369.461 -187.461)">
    <circle id="Ellipse_729" data-name="Ellipse 729" cx="15" cy="15" r="15" transform="translate(369.461 187.461)" fill="#9935b8"/>
    <g id="Instagram_Video_Downloader" data-name="Instagram Video Downloader" transform="translate(376.881 194.881)">
      <g id="Group_2434" data-name="Group 2434" transform="translate(0)">
        <path id="Path_1613" data-name="Path 1613" d="M134.3,642.456a3.823,3.823,0,1,0,2.729,1.12A3.729,3.729,0,0,0,134.3,642.456Zm1.877,5.725a2.648,2.648,0,1,1,.78-1.877A2.564,2.564,0,0,1,136.181,648.181Z" transform="translate(-126.724 -638.724)" fill="#fff"/>
        <path id="Path_1614" data-name="Path 1614" d="M137.327,641.555a.829.829,0,0,0-.591.235.742.742,0,0,0-.244.567.842.842,0,0,0,.835.835.75.75,0,0,0,.57-.245.834.834,0,0,0,.231-.59.788.788,0,0,0-.8-.8Z" transform="translate(-125.639 -638.886)" fill="#fff"/>
        <path id="Path_1615" data-name="Path 1615" d="M141.2,640.55a4.667,4.667,0,0,0-3.177-1.225c-.608-.021-1.667-.032-3.147-.032-1.509,0-2.539.011-3.148.033a4.545,4.545,0,0,0-3.156,1.24,4.6,4.6,0,0,0-1.208,3.127c-.045.639-.067,1.708-.067,3.18s.022,2.53.067,3.142a5.284,5.284,0,0,0,.119,1.186,4.758,4.758,0,0,0,.386,1.042,3.22,3.22,0,0,0,.7.933,4.639,4.639,0,0,0,3.162,1.21c.617.045,1.674.067,3.145.067s2.53-.022,3.143-.067A4.552,4.552,0,0,0,141.2,653.2a4.663,4.663,0,0,0,1.224-3.177c.021-.618.033-1.675.033-3.145s-.012-2.525-.033-3.147A4.667,4.667,0,0,0,141.2,640.55Zm.065,8.137c0,.244-.011.565-.035.982a10.276,10.276,0,0,1-.1,1.035,3.884,3.884,0,0,1-.176.721,2.7,2.7,0,0,1-1.521,1.521,3.758,3.758,0,0,1-.723.177,9.411,9.411,0,0,1-1.034.1c-.419.025-.739.035-.983.035h-3.646c-.232,0-.546-.011-.965-.035-.18-.01-.323-.032-.486-.048l-.126-.012c-.138-.015-.3-.023-.424-.043a3.736,3.736,0,0,1-.717-.174,2.7,2.7,0,0,1-1.522-1.521,5.952,5.952,0,0,1-.143-.635c-.048-.268-.083-.518-.1-.744-.025-.243-.041-.538-.052-.878s-.018-.624-.018-.841v-3.287c0-.232.012-.547.035-.965a9.822,9.822,0,0,1,.1-1.036,3.768,3.768,0,0,1,.175-.719,2.571,2.571,0,0,1,1.523-1.523,3.759,3.759,0,0,1,.718-.176c.133-.021.3-.029.453-.045l.063-.007c.173-.017.328-.041.52-.051.419-.025.739-.037.982-.037H136.7c.231,0,.546.012.965.037a10.088,10.088,0,0,1,1.034.1,3.789,3.789,0,0,1,.721.176,2.569,2.569,0,0,1,1.523,1.522,3.891,3.891,0,0,1,.176.72,10.334,10.334,0,0,1,.1,1.036c.025.419.035.739.035.982Z" transform="translate(-127.293 -639.293)" fill="#fff"/>
      </g>
    </g>
  </g>
</svg>
