<svg width="40" height="40" viewBox="0 0 40 40" fill="none" xmlns="http://www.w3.org/2000/svg">
<path d="M21.0185 40H18.9809C18.7756 39.9744 18.5703 39.9334 18.365 39.9181C16.9227 39.8003 15.5062 39.5391 14.0793 39.0986C14.998 37.5672 15.8911 36.0461 16.3941 34.3559C16.8971 32.6709 17.3179 30.9552 17.7799 29.2241C19.1862 31.0269 21.0544 31.5698 23.1896 31.3905C25.3863 31.2113 27.3162 30.3508 28.8765 28.8041C32.0894 25.6133 33.1981 21.6645 32.6181 17.2855C32.0586 13.0755 29.5745 10.192 25.7199 8.48138C23.5489 7.51851 21.2597 7.27779 18.9039 7.47754C16.1939 7.71313 13.7046 8.52235 11.5336 10.2074C7.41212 13.4135 5.8005 19.708 8.4643 24.4558C9.12639 25.6338 9.95787 26.653 11.2051 27.2625C11.6413 27.4724 11.8261 27.3854 11.9442 26.9244C12.1187 26.2433 12.2829 25.5621 12.4574 24.8809C12.5395 24.5685 12.4728 24.3073 12.2829 24.0409C12.0366 23.6927 11.8056 23.3239 11.6259 22.9347C9.98866 19.3956 11.1281 14.9705 14.3103 12.7067C17.0613 10.7503 20.0947 10.4379 23.2409 11.5441C25.6635 12.3943 27.2135 14.1562 27.9372 16.6146C28.3067 17.8694 28.3324 19.1549 28.2041 20.4456C28.0193 22.2945 27.5523 24.0563 26.4744 25.6082C25.5044 27.0064 24.2315 27.9539 22.4916 28.1639C20.3102 28.4302 18.4112 26.7605 19.0938 24.3636C19.4223 23.201 19.7816 22.0486 20.1152 20.886C20.4077 19.8617 20.7311 18.8374 20.6952 17.7516C20.6233 15.4929 18.5036 14.3662 16.5737 15.5595C15.8757 15.9897 15.383 16.6094 15.0545 17.3521C14.2846 19.0883 14.3667 20.8399 14.957 22.6018C15.0237 22.8015 15.0596 23.0422 15.0134 23.242C14.4745 25.5877 13.9151 27.9232 13.3659 30.2637C12.9553 32.0102 12.4369 33.7362 12.5087 35.5595C12.5447 36.5429 12.596 37.5262 12.6371 38.5147C12.6165 38.5147 12.5909 38.525 12.5652 38.5147C12.4523 38.4789 12.3445 38.4379 12.2367 38.3918C9.44461 37.2087 7.01178 35.5083 5.02549 33.2138C0.84759 28.3841 -0.748633 22.7708 0.32407 16.4865C1.26333 11.0012 4.14269 6.65295 8.73119 3.50314C13.1195 0.491611 18.0006 -0.558327 23.2512 0.276502C28.1014 1.04987 32.1459 3.35461 35.2973 7.10878C39.1621 11.7183 40.6043 17.0601 39.7729 22.991C39.2237 26.9091 37.571 30.3508 34.9226 33.2906C31.6994 36.8656 27.696 39.0371 22.9227 39.7542C22.2914 39.8515 21.6601 39.9129 21.0288 39.9898L21.0185 40Z" fill="#E60023"/>
</svg>
