<svg width="40" height="41" viewBox="0 0 40 41" fill="none" xmlns="http://www.w3.org/2000/svg">
<path d="M18.8395 0.00313055H19.2298C19.4124 0.0657416 19.594 0.0657416 19.7766 0.00313055H21.104C21.1478 0.0500888 21.2052 0.0396536 21.2605 0.0417407C21.3147 0.0396536 21.3732 0.0500888 21.417 0.00313055H21.6508C22.2268 0.0886989 22.8112 0.0688721 23.3872 0.135657C24.8564 0.30575 26.2537 0.755506 27.6155 1.30857C29.9749 2.26861 32.0651 3.6377 33.9121 5.40333C35.613 7.02809 36.9998 8.87511 38.0517 10.9684C38.8709 12.5994 39.4834 14.3108 39.7975 16.1161C39.9113 16.7683 39.9102 17.432 39.9614 18.0904C39.9676 18.1781 39.9332 18.273 40 18.3523V18.5861C39.9332 18.655 39.9707 18.7416 39.9614 18.8198C39.9718 18.8981 39.9342 18.9847 40 19.0546V19.3666C39.9384 19.5232 39.9384 19.6786 40 19.8352V20.1472C39.9384 20.3037 39.9384 20.4592 40 20.6157V20.9277C39.9478 20.9768 39.9645 21.0404 39.9614 21.0999C39.9697 21.174 39.9384 21.2544 40 21.318V21.7083C39.9071 22.2311 39.9227 22.7633 39.8706 23.2903C39.7224 24.7804 39.2695 26.1912 38.705 27.5624C37.9599 29.374 37.0009 31.0676 35.7508 32.588C34.1938 34.4809 32.4011 36.0973 30.2838 37.3485C28.179 38.5924 25.9281 39.4324 23.5207 39.8509C22.7131 39.9907 21.8918 39.9855 21.0768 40.0095C19.7401 40.0481 18.4012 40.021 17.0666 39.9072C15.6933 39.7903 14.3837 39.4126 13.1023 38.9388C11.3878 38.3054 9.77658 37.4696 8.28957 36.3947C6.58029 35.1592 5.08702 33.7056 3.8254 32.0214C2.15995 29.7966 1.01521 27.3224 0.369276 24.6176C0.138658 23.6534 0.0478723 22.6746 0.0176103 21.6853C-0.0147387 20.6199 0.00717517 19.5566 0.00821869 18.4911C0.0113492 16.3728 0.522673 14.3713 1.30635 12.4314C2.25491 10.0825 3.61566 7.99751 5.36146 6.1484C7.005 4.40782 8.88959 3.00637 11.0142 1.92842C12.6682 1.08943 14.4161 0.49254 16.2474 0.177398C16.9466 0.0573934 17.6656 0.0939165 18.371 0H18.683C18.7352 0.0480018 18.7873 0.0480018 18.8395 0V0.00313055Z" fill="#FE4500"/>
<path d="M19.7763 0.00292969C19.5938 0.111385 19.4124 0.120771 19.2299 0.00292969H19.7763Z" fill="#FE5516"/>
<path d="M39.9988 19.8359C39.8924 19.6795 39.8893 19.5241 39.9988 19.3677V19.8359Z" fill="#FE4F0E"/>
<path d="M39.9988 20.6167C39.8893 20.4602 39.8924 20.3049 39.9988 20.1484V20.6167Z" fill="#FE4F0E"/>
<path d="M39.9343 18.8143C39.9363 18.7319 39.8821 18.635 40 18.5859V18.8195C39.9728 18.8727 39.9509 18.8706 39.9343 18.8133V18.8143Z" fill="#FEAA8B"/>
<path d="M39.9343 18.8145C39.9562 18.8145 39.9781 18.8165 40 18.8207V19.0543C39.9155 18.9917 39.9207 18.9041 39.9343 18.8145Z" fill="#FE885C"/>
<path d="M39.9989 21.3189C39.8863 21.2688 39.9332 21.1739 39.9353 21.0915C39.9509 21.0342 39.9718 21.0321 39.9989 21.0853V21.3189Z" fill="#FE9F7C"/>
<path d="M18.8394 0.00292969C18.7873 0.0863568 18.7351 0.101999 18.683 0.00292969H18.8394Z" fill="#FEA280"/>
<path d="M21.2634 0.0686286C21.1977 0.0780141 21.1383 0.0717571 21.1039 0.00292969H21.2603C21.3156 0.0217008 21.3166 0.0436004 21.2634 0.0686286Z" fill="#FE9771"/>
<path d="M21.2635 0.0686285C21.2614 0.0467289 21.2604 0.0248293 21.2604 0.00292969H21.4168C21.3928 0.0873997 21.3282 0.0769713 21.2645 0.0686285H21.2635Z" fill="#FEAE90"/>
<path d="M39.9989 21.0856C39.978 21.0898 39.9572 21.0919 39.9353 21.0919C39.9259 21.0262 39.9374 20.9678 39.9989 20.9292V21.0856Z" fill="#FE8255"/>
<path d="M20.0259 31.6468C16.9549 31.6196 14.0727 30.9361 11.5442 29.1089C10.0614 28.0372 8.95319 26.6765 8.50448 24.8545C8.34691 24.2148 8.32917 23.5679 8.38656 22.9167C8.40326 22.7205 8.35004 22.6214 8.17786 22.5191C6.67728 21.6217 6.24318 19.7757 7.19069 18.3691C8.14655 16.9499 10.0249 16.6629 11.4368 17.7325C11.5839 17.8442 11.6705 17.8619 11.8302 17.7534C14.0226 16.2747 16.4707 15.5829 19.0899 15.4545C19.4426 15.4368 19.5647 15.3283 19.6346 14.9839C20.0635 12.8708 20.5195 10.7639 20.9703 8.656C21.0924 8.08207 21.275 7.97354 21.8521 8.09668C23.288 8.40034 24.727 8.69253 26.1587 9.01393C26.4164 9.07237 26.5187 8.99828 26.6544 8.80314C27.1834 8.04555 28.1028 7.74188 28.9605 8.0132C29.8434 8.29286 30.4173 9.08385 30.4121 10.0126C30.4069 10.9236 29.8371 11.6979 28.9668 11.9775C27.8283 12.3428 26.5928 11.6655 26.3424 10.4978C26.2693 10.1555 26.1117 10.0512 25.8008 9.98858C24.6289 9.75483 23.4622 9.49917 22.2956 9.24246C22.041 9.18611 21.9137 9.20281 21.85 9.51378C21.4691 11.3848 21.0674 13.2506 20.6552 15.1143C20.5675 15.5077 20.8211 15.4357 21.0256 15.4483C23.3162 15.5839 25.4835 16.1505 27.4798 17.3057C27.772 17.4748 28.0339 17.768 28.3407 17.8181C28.6329 17.8661 28.8593 17.4998 29.1484 17.3621C30.5237 16.7088 32.185 17.2191 32.9436 18.5402C33.7127 19.8811 33.3162 21.5904 32.0034 22.4137C31.6893 22.611 31.6184 22.803 31.6392 23.1494C31.7728 25.3491 30.8055 27.072 29.2256 28.4933C27.4339 30.1045 25.278 30.957 22.9374 31.3901C21.9763 31.5675 21.0058 31.6572 20.0249 31.6457L20.0259 31.6468Z" fill="#FEFEFE"/>
<path d="M26.6638 22.1174C26.645 23.2695 25.709 24.1679 24.5476 24.1481C23.3997 24.1283 22.4918 23.1839 22.5117 22.0308C22.5305 20.8903 23.4842 19.9761 24.6352 19.9949C25.7768 20.0137 26.6847 20.9623 26.6649 22.1185L26.6638 22.1174Z" fill="#FE4500"/>
<path d="M15.4293 24.148C14.2731 24.148 13.3548 23.2297 13.3558 22.0724C13.3558 20.9204 14.2825 19.9916 15.4303 19.9927C16.5751 19.9927 17.5101 20.9287 17.5101 22.0734C17.5101 23.2213 16.5813 24.148 15.4293 24.148Z" fill="#FE4500"/>
<path d="M19.9645 29.115C18.6194 29.0576 17.2951 28.9094 16.0711 28.2833C15.71 28.0986 15.373 27.8784 15.0892 27.5883C14.8679 27.3619 14.8418 27.0958 15.0474 26.8526C15.253 26.6085 15.5358 26.5678 15.7747 26.7775C16.861 27.7323 18.1988 27.917 19.5544 28.0109C20.7179 28.0913 21.8647 27.9348 22.9688 27.5414C23.3997 27.388 23.7942 27.1678 24.1427 26.8631C24.4537 26.5907 24.7448 26.5907 24.9692 26.8349C25.1925 27.078 25.1476 27.4078 24.8387 27.6833C23.959 28.467 22.878 28.7748 21.752 28.9658C21.1614 29.0659 20.5634 29.1004 19.9645 29.116V29.115Z" fill="#FE4500"/>
</svg>
