<svg xmlns="http://www.w3.org/2000/svg" width="30" height="30" viewBox="0 0 30 30">
  <g id="tiktok" transform="translate(-369.141 -187.14)">
    <circle id="Ellipse_729" data-name="Ellipse 729" cx="15" cy="15" r="15" transform="translate(369.141 187.14)"/>
    <path id="tiktok-svgrepo-com" d="M13.25,4.878a2.944,2.944,0,0,1-2.315-2.607V2H8.819v8.4a1.779,1.779,0,0,1-3.194,1.07h0A1.778,1.778,0,0,1,7.58,8.7V6.548a3.887,3.887,0,1,0,3.355,3.85V6.107a5.025,5.025,0,0,0,2.931.937v-2.1A2.967,2.967,0,0,1,13.25,4.878Z" transform="translate(375.628 193.998)" fill="#fff"/>
  </g>
</svg>
