<svg xmlns="http://www.w3.org/2000/svg" xmlns:xlink="http://www.w3.org/1999/xlink" width="30" height="30" viewBox="0 0 30 30">
  <defs>
    <clipPath id="clip-path">
      <rect id="Rectangle_22639" data-name="Rectangle 22639" width="15.426" height="12.536" fill="#fff"/>
    </clipPath>
  </defs>
  <g id="twitter" transform="translate(-369.141 -187.14)">
    <circle id="Ellipse_729" data-name="Ellipse 729" cx="15" cy="15" r="15" transform="translate(369.141 187.14)" fill="#009cdc"/>
    <g id="Group_23168" data-name="Group 23168" transform="translate(377.428 195.872)">
      <g id="Group_23168-2" data-name="Group 23168" clip-path="url(#clip-path)">
        <path id="Path_1637" data-name="Path 1637" d="M15.426,1.484a6.326,6.326,0,0,1-1.818.5A3.175,3.175,0,0,0,15,.231,6.337,6.337,0,0,1,12.99,1,3.168,3.168,0,0,0,7.6,3.886,8.984,8.984,0,0,1,1.074.579,3.168,3.168,0,0,0,2.053,4.8a3.152,3.152,0,0,1-1.433-.4c0,.013,0,.026,0,.04a3.167,3.167,0,0,0,2.539,3.1,3.172,3.172,0,0,1-1.429.054A3.168,3.168,0,0,0,4.685,9.8a6.349,6.349,0,0,1-3.93,1.355A6.419,6.419,0,0,1,0,11.114a8.957,8.957,0,0,0,4.851,1.422,8.943,8.943,0,0,0,9-9q0-.206-.009-.409a6.429,6.429,0,0,0,1.579-1.638" fill="#fff"/>
      </g>
    </g>
  </g>
</svg>
