<svg xmlns="http://www.w3.org/2000/svg" xmlns:xlink="http://www.w3.org/1999/xlink" width="30" height="30" viewBox="0 0 30 30">
  <defs>
    <clipPath id="clip-path">
      <rect id="Rectangle_22632" data-name="Rectangle 22632" width="15.731" height="13.494" fill="#fff"/>
    </clipPath>
  </defs>
  <g id="Group_23143" data-name="Group 23143" transform="translate(-369.141 -187.14)">
    <circle id="Ellipse_729" data-name="Ellipse 729" cx="15" cy="15" r="15" transform="translate(369.141 187.14)" fill="#2196f3"/>
    <g id="Group_23149" data-name="Group 23149" transform="translate(376.275 195.393)">
      <g id="Group_23148" data-name="Group 23148" clip-path="url(#clip-path)">
        <path id="Path_1632" data-name="Path 1632" d="M0,3.707A16.025,16.025,0,0,1,4.22.242,1.531,1.531,0,0,1,5.87.555a3.255,3.255,0,0,1,1.122,2.38c.156,1.243.257,2.495.476,3.726a5.179,5.179,0,0,0,.662,1.574c.216.381.5.389.859.131A2.062,2.062,0,0,0,9.4,7.984a8.43,8.43,0,0,0,1.67-3.292,1.818,1.818,0,0,0,.047-.447.629.629,0,0,0-.8-.689c-.8.112-1.078-.217-.824-.99A3.549,3.549,0,0,1,12.481.086,6.869,6.869,0,0,1,14.016.011a1.685,1.685,0,0,1,1.637,1.536,5.512,5.512,0,0,1-.426,3.2A20.659,20.659,0,0,1,9.573,12.4c-.28.232-.571.451-.871.656a2.063,2.063,0,0,1-2.85-.293A6.613,6.613,0,0,1,4.29,9.838c-.433-1.556-.814-3.127-1.222-4.69a2.691,2.691,0,0,0-.178-.494,1.031,1.031,0,0,0-1.554-.532A.579.579,0,0,1,.6,4.076,6.464,6.464,0,0,0,0,3.707" transform="translate(0 0.001)" fill="#fff"/>
      </g>
    </g>
  </g>
</svg>
