<svg xmlns="http://www.w3.org/2000/svg" width="18" height="13" viewBox="0 0 18 13">
  <g id="greece" transform="translate(0 -88.269)">
    <g id="Group_2350" data-name="Group 2350" transform="translate(0 89.711)">
      <rect id="Rectangle_2674" data-name="Rectangle 2674" width="18" height="1.434" fill="#f5f5f5"/>
      <rect id="Rectangle_2675" data-name="Rectangle 2675" width="18" height="1.434" transform="translate(0 2.869)" fill="#f5f5f5"/>
      <rect id="Rectangle_2676" data-name="Rectangle 2676" width="18" height="1.434" transform="translate(0 5.738)" fill="#f5f5f5"/>
    </g>
    <rect id="Rectangle_2677" data-name="Rectangle 2677" width="18" height="1.434" transform="translate(0 96.884)" fill="#41479b"/>
    <rect id="Rectangle_2678" data-name="Rectangle 2678" width="18" height="1.434" transform="translate(0 98.318)" fill="#f5f5f5"/>
    <g id="Group_2351" data-name="Group 2351" transform="translate(0 88.269)">
      <path id="Path_7118" data-name="Path 7118" d="M0,387.968l18-.051v-1.465H0Z" transform="translate(0 -374.968)" fill="#41479b"/>
      <path id="Path_7119" data-name="Path 7119" d="M18,89.711V88.268L0,88.277v7.172H18V94.015H6.207V92.58H18V91.146H6.207V89.711Z" transform="translate(0 -88.268)" fill="#41479b"/>
    </g>
    <path id="Path_7120" data-name="Path 7120" d="M6.8,91.146H4.115V88.277H2.68v2.869H0V92.58H2.68v2.869H4.115V92.58H6.8Z" fill="#f5f5f5"/>
  </g>
</svg>
