<svg xmlns="http://www.w3.org/2000/svg" width="18" height="13" viewBox="0 0 18 13">
  <g id="Brazil" transform="translate(320 357)">
    <path id="Path_1859" data-name="Path 1859" d="M-320-344.018V-357h18v12.982a.146.146,0,0,1-.076.007h-17.848A.146.146,0,0,1-320-344.018Z" transform="translate(0 0)" fill="#009b37"/>
    <path id="Path_1860" data-name="Path 1860" d="M-320,1434.49h18s.007.015-.007.014h-17.929C-319.957,1434.5-319.984,1434.519-320,1434.49Z" transform="translate(0 -1778.508)" fill="#84cf9e"/>
    <path id="Path_1861" data-name="Path 1861" d="M-99.61-132.294a.216.216,0,0,1,.069-.055l7.048-4.682c.1-.066.2-.129.3-.2a.079.079,0,0,1,.106,0q.748.5,1.5,1l5.858,3.891a.169.169,0,0,1,.054.043.181.181,0,0,1-.058.045l-3.323,2.207-3.992,2.651c-.11.073-.069.073-.182,0l-7.3-4.846Z" transform="translate(-218.84 -218.207)" fill="#fee000"/>
    <path id="Path_1862" data-name="Path 1862" d="M519.9,398.529a2.693,2.693,0,0,1-.291.7,3.087,3.087,0,0,1-2.172,1.546,3.151,3.151,0,0,1-3.608-3.94c0-.016.011-.031.016-.046a.39.39,0,0,1,.215-.052,6.908,6.908,0,0,1,1.036-.059,7.869,7.869,0,0,1,1.289.134,7.308,7.308,0,0,1,1.683.529,7.411,7.411,0,0,1,.742.382,6.536,6.536,0,0,1,.672.445c.121.092.246.179.359.281A.22.22,0,0,1,519.9,398.529Z" transform="translate(-827.856 -748.138)" fill="#027"/>
    <path id="Path_1863" data-name="Path 1863" d="M556.7,93.112a2.734,2.734,0,0,1,.361-.592,3.1,3.1,0,0,1,1.98-1.177,3.149,3.149,0,0,1,3.641,3.46.141.141,0,0,1-.008.027c-.044.011-.071-.019-.1-.042a7.956,7.956,0,0,0-1.7-1.024,7.759,7.759,0,0,0-1.975-.582,7.913,7.913,0,0,0-.9-.088c-.157-.006-.314-.013-.47-.009-.245.006-.49.02-.735.047C556.761,93.134,556.725,93.143,556.7,93.112Z" transform="translate(-870.533 -445.014)" fill="#027"/>
    <path id="Path_1864" data-name="Path 1864" d="M532.581,340.865l.392-.034a6.973,6.973,0,0,1,.794-.02,8.237,8.237,0,0,1,1.007.092,7.943,7.943,0,0,1,3.743,1.649l.039.03a2.728,2.728,0,0,1-.091.468.165.165,0,0,1-.063-.044,7.514,7.514,0,0,0-4.563-1.767,7.922,7.922,0,0,0-1.192.047c-.079.009-.157.026-.237.028A2.453,2.453,0,0,1,532.581,340.865Z" transform="translate(-846.416 -692.719)" fill="#fff"/>
    <path id="Path_1865" data-name="Path 1865" d="M1254.15,674.658c-.011-.05.023-.083.008-.117s-.052-.039-.067-.068c0,0,.008-.009.011-.009a.108.108,0,0,0,.13-.109l.011.008c.025.026.018.071.049.089s.064,0,.094.015c0,.006,0,.012,0,.013a.107.107,0,0,0-.045.161c-.01,0-.016.006-.018,0A.107.107,0,0,0,1254.15,674.658Z" transform="translate(-1563.023 -1023.876)" fill="#f9fafc"/>
    <path id="Path_1866" data-name="Path 1866" d="M941.833,726.611c-.011-.037.023-.069.012-.1s-.053-.042-.069-.07c0-.011,0-.014.009-.014.08.012.118-.032.132-.105.009.006.013.007.015.01.017.027.016.067.044.085s.063,0,.093.014c0,.006,0,.012,0,.015-.019.026-.058.035-.066.069s.022.061.013.095c-.037,0-.058-.044-.092-.043S941.868,726.6,941.833,726.611Z" transform="translate(-1252.905 -1075.464)" fill="#fafbfd"/>
    <path id="Path_1867" data-name="Path 1867" d="M576.539,444.69c-.008-.043.025-.075.011-.109s-.051-.038-.066-.068c0,0,.005-.01.008-.01.094-.009.094-.009.135-.1.026.01.026.037.033.057a.053.053,0,0,0,.061.043.414.414,0,0,1,.059,0c0,.008,0,.011,0,.013-.019.029-.065.039-.069.075a.308.308,0,0,0,.018.095c-.007,0-.011,0-.014,0-.03-.012-.054-.048-.085-.043A.315.315,0,0,0,576.539,444.69Z" transform="translate(-890.18 -795.588)" fill="#fbfbfd"/>
    <path id="Path_1868" data-name="Path 1868" d="M753.074,766.226c0-.053.029-.087.014-.118s-.045-.045-.066-.065c0-.01,0-.012.006-.013.031-.007.071.005.094-.018a.272.272,0,0,0,.04-.081c.01-.006.015,0,.016,0a.109.109,0,0,0,.14.1c0,.01,0,.016,0,.019-.02.025-.062.035-.066.069a.316.316,0,0,0,.017.095c-.008,0-.013,0-.015,0C753.193,766.156,753.136,766.164,753.074,766.226Z" transform="translate(-1065.477 -1114.784)" fill="#fafbfc"/>
    <path id="Path_1869" data-name="Path 1869" d="M613.436,630.177c.022.033.02.078.05.094a.265.265,0,0,0,.093.012c0,.007,0,.013,0,.016-.018.027-.058.035-.066.069s.019.062.015.094l-.007,0c-.06-.046-.12-.058-.175.009-.005-.009-.009-.012-.009-.015,0-.034.031-.068.014-.1a.284.284,0,0,0-.065-.063c0-.012,0-.013.009-.014.031-.006.068.009.094-.015S613.408,630.2,613.436,630.177Z" transform="translate(-926.723 -980.018)" fill="#fafbfc"/>
    <path id="Path_1870" data-name="Path 1870" d="M1074.108,828.839c-.069.084-.069.084-.055.159,0,.006,0,.008-.009,0a.1.1,0,0,0-.152.007.116.116,0,0,0-.046-.157c.067,0,.11-.023.124-.108C1074,828.817,1074.024,828.863,1074.108,828.839Z" transform="translate(-1384.045 -1177.146)" fill="#f6f7fa"/>
    <path id="Path_1871" data-name="Path 1871" d="M767.106,539.1c-.058-.044-.105-.046-.151,0-.005-.006-.01-.009-.01-.011.021-.056.009-.1-.064-.142.081,0,.131-.021.136-.094.031.025.024.065.051.081s.055,0,.084.02C767.1,538.995,767.064,539.035,767.106,539.1Z" transform="translate(-1079.239 -889.362)" fill="#f7f8fb"/>
    <path id="Path_1872" data-name="Path 1872" d="M948.225,599.919a.1.1,0,0,0-.049.146c-.057-.045-.106-.05-.156,0-.014-.037.015-.064.006-.092s-.044-.034-.055-.062c.024-.019.057,0,.08-.02s.021-.051.04-.074c.029.016.02.057.045.073S948.19,599.9,948.225,599.919Z" transform="translate(-1259.055 -949.884)" fill="#f6f7fa"/>
    <path id="Path_1873" data-name="Path 1873" d="M569.252,671.974c-.007-.041.02-.067.007-.094s-.045-.032-.059-.065c.066,0,.119-.008.122-.093.031.058.051.119.136.09-.048.048-.089.089-.047.16A.109.109,0,0,0,569.252,671.974Z" transform="translate(-882.948 -1021.262)" fill="#f8f9fb"/>
    <path id="Path_1874" data-name="Path 1874" d="M1274.663,722.347a.11.11,0,0,0-.051-.149c.069,0,.115-.022.122-.1.03.025.025.066.049.08a.248.248,0,0,0,.082.014c-.007.034-.048.038-.057.067s.021.052,0,.086A.1.1,0,0,0,1274.663,722.347Z" transform="translate(-1583.4 -1071.277)" fill="#f9fafc"/>
    <path id="Path_1875" data-name="Path 1875" d="M988.273,637.6a.108.108,0,0,0-.158,0,.114.114,0,0,0-.051-.153c.077.011.11-.033.131-.1.015.069.054.1.139.091C988.269,637.491,988.244,637.536,988.273,637.6Z" transform="translate(-1298.868 -987.146)" fill="#fafafc"/>
    <path id="Path_1876" data-name="Path 1876" d="M1253.11,758.4a.111.111,0,0,0,.129.089c-.048.04-.081.082-.046.139,0,.01-.008.012-.013.01-.071-.036-.071-.036-.149,0,.012-.059.028-.118-.052-.148C1253.051,758.487,1253.094,758.464,1253.11,758.4Z" transform="translate(-1561.919 -1107.308)" fill="#f9fafc"/>
    <path id="Path_1877" data-name="Path 1877" d="M706.927,675.661a.108.108,0,0,0,.125-.1c.022.062.052.106.127.089-.01.038-.05.043-.059.072s.019.053.007.087c-.049-.046-.1-.047-.158.012C706.992,675.75,706.993,675.7,706.927,675.661Z" transform="translate(-1019.706 -1025.077)" fill="#fbfbfd"/>
    <path id="Path_1878" data-name="Path 1878" d="M1168.751,820.006c-.063.031-.078.077-.042.151-.062-.042-.111-.061-.157-.006-.005-.007-.01-.011-.01-.014.009-.077.009-.077-.052-.142a.1.1,0,0,0,.123-.091c.03.024.025.062.05.08S1168.721,819.982,1168.751,820.006Z" transform="translate(-1478.025 -1168.37)" fill="#fafafc"/>
    <path id="Path_1879" data-name="Path 1879" d="M1325.489,683.724c.06,0,.093-.022.107-.087.019.06.044.1.118.083-.047.042-.078.076-.045.129-.032,0-.046-.022-.067-.024s-.04.022-.066.029c-.01-.024.006-.045,0-.066S1325.505,683.756,1325.489,683.724Z" transform="translate(-1633.919 -1033.092)" fill="#f2f4f8"/>
    <path id="Path_1880" data-name="Path 1880" d="M1171.008,779.586c-.061.029-.067.071-.041.137-.055-.048-.1-.05-.136-.012-.017-.026.008-.047,0-.07s-.034-.03-.047-.056c.047-.008.092-.02.1-.081C1170.932,779.571,1170.932,779.571,1171.008,779.586Z" transform="translate(-1480.305 -1128.264)" fill="#f7f8fa"/>
    <path id="Path_1881" data-name="Path 1881" d="M1051.606,496.681a.1.1,0,0,0-.036.126c-.031,0-.046-.029-.067-.026a.259.259,0,0,0-.069.031.1.1,0,0,0-.044-.128c.075-.012.075-.012.11-.08C1051.521,496.647,1051.538,496.695,1051.606,496.681Z" transform="translate(-1361.747 -847.415)" fill="#f3f5f9"/>
    <path id="Path_1882" data-name="Path 1882" d="M1214.612,778.239c.06.009.088-.024.108-.09.018.067.046.1.117.084-.047.041-.081.074-.048.131a.106.106,0,0,0-.136.005A.1.1,0,0,0,1214.612,778.239Z" transform="translate(-1523.822 -1126.919)" fill="#f6f8fa"/>
    <path id="Path_1883" data-name="Path 1883" d="M1040.188,777.136c-.05.062-.05.062-.045.126-.043-.021-.086-.035-.127.008a.112.112,0,0,0-.043-.131c.061.005.092-.021.1-.087C1040.1,777.113,1040.127,777.147,1040.188,777.136Z" transform="translate(-1350.411 -1125.83)" fill="#f3f5f9"/>
    <path id="Path_1884" data-name="Path 1884" d="M1171.062,868.815c.011.067.044.091.118.081-.057.039-.081.075-.043.142-.057-.037-.1-.053-.149.006.015-.066.016-.112-.038-.142C1171.012,868.91,1171.038,868.871,1171.062,868.815Z" transform="translate(-1480.466 -1216.927)" fill="#f8f9fb"/>
    <path id="Path_1885" data-name="Path 1885" d="M1117.737,788.687c.06,0,.091-.024.1-.088.024.054.045.1.11.087a.1.1,0,0,0-.034.13.3.3,0,0,0-.072-.033c-.022,0-.037.026-.068.025A.092.092,0,0,0,1117.737,788.687Z" transform="translate(-1427.628 -1137.293)" fill="#f7f8fb"/>
    <path id="Path_1886" data-name="Path 1886" d="M889.1,646.643a.1.1,0,0,0-.042.124.09.09,0,0,0-.128,0c.005-.074.005-.074-.039-.126.067-.014.067-.014.1-.076C889.035,646.63,889.035,646.63,889.1,646.643Z" transform="translate(-1200.393 -996.291)" fill="#f9fafc"/>
    <path id="Path_1887" data-name="Path 1887" d="M693.778,725.3c.065.009.086-.033.107-.085.017.056.041.093.115.076-.043.041-.078.074-.037.142-.056-.032-.1-.051-.145.005C693.825,725.373,693.833,725.326,693.778,725.3Z" transform="translate(-1006.65 -1074.365)" fill="#f8f9fb"/>
    <path id="Path_1888" data-name="Path 1888" d="M925.23,672.572c.039,0,.061-.017.074-.066.017.046.038.069.074.061,0,.025-.018.029-.025.043s0,.032,0,.054c-.032-.012-.064-.028-.1,0A.08.08,0,0,0,925.23,672.572Z" transform="translate(-1236.474 -1022.043)" fill="#e7eaf2"/>
    <path id="Path_1889" data-name="Path 1889" d="M662.922,611.5a.122.122,0,0,0-.1,0c.021-.037,0-.062-.036-.092.05,0,.076-.014.085-.055.025.027.03.073.084.049C662.928,611.437,662.905,611.462,662.922,611.5Z" transform="translate(-975.873 -961.334)" fill="#ebeef4"/>
    <path id="Path_1890" data-name="Path 1890" d="M957.471,888.65c-.065.033-.037-.033-.062-.039l.054-.04c0,.024.038.019.041.038s-.014.024-.014.043S957.471,888.651,957.471,888.65Z" transform="translate(-1268.428 -1236.543)" fill="#dfe3ee"/>
    <path id="Path_1891" data-name="Path 1891" d="M1078.652,361.368c-.013-.041.024-.074.009-.106a.371.371,0,0,0-.063-.073.011.011,0,0,1,.006,0c.031-.008.071,0,.093-.02a.323.323,0,0,0,.041-.088l.007,0c.024.026.018.071.049.089s.065,0,.1.017c0,0,0,.01,0,.013-.021.025-.06.035-.067.068s.02.061.014.095c0,0-.01,0-.013,0-.029-.013-.052-.048-.085-.042A.315.315,0,0,0,1078.652,361.368Z" transform="translate(-1388.764 -712.869)" fill="#fafbfc"/>
    <path id="Path_1892" data-name="Path 1892" d="M777.065,356.8c.02-.053.04-.1.055-.148s.039-.029.067-.027.03.022.028.045c-.007.065-.013.13-.021.2,0,.016,0,.041-.027.04s-.03-.021-.027-.044c.005-.044.008-.088.013-.138a.477.477,0,0,0-.061.14c-.01.027-.024.038-.052.03s-.022-.021-.024-.038a.535.535,0,0,0-.033-.135l-.017.132c0,.017,0,.033-.028.03s-.027-.019-.024-.04c.008-.067.014-.135.021-.2,0-.019,0-.041.029-.037s.06-.009.066.033.011.079.017.118A.058.058,0,0,0,777.065,356.8Z" transform="translate(-1089.199 -708.43)" fill="#079f3c"/>
    <path id="Path_1893" data-name="Path 1893" d="M1020.44,407.1a.183.183,0,0,0,.005-.021.061.061,0,0,0-.068-.073c-.015,0-.019.011-.023.022s-.012.035-.017.053-.015.021-.032.015-.03-.012-.023-.034c.022-.071.045-.143.066-.215.006-.019.016-.028.036-.021.04.013.081.023.12.039a.072.072,0,0,1,.029.124.065.065,0,0,0-.023.064.193.193,0,0,1-.01.062c0,.019-.005.039-.034.03S1020.43,407.126,1020.44,407.1Z" transform="translate(-1330.856 -758.281)" fill="#079f3c"/>
    <path id="Path_1894" data-name="Path 1894" d="M1122.218,448.793c0-.023-.02-.021-.031-.029a.021.021,0,0,1-.006-.03c.006-.011.014-.018.028-.012l.039.016c.048.021.048.021.028.07-.008.02-.017.038-.025.058s-.029.04-.046.006-.022-.009-.034-.009a.127.127,0,0,1-.13-.159.141.141,0,0,1,.232-.1.1.1,0,0,1,.037.105c-.025,0-.044,0-.052-.034a.066.066,0,0,0-.068-.051.078.078,0,0,0-.075.053.178.178,0,0,0-.016.046.069.069,0,0,0,.034.078A.063.063,0,0,0,1122.218,448.793Z" transform="translate(-1431.898 -799.73)" fill="#069e3c"/>
    <path id="Path_1895" data-name="Path 1895" d="M626.99,353.644c0-.016,0-.033,0-.049,0-.094-.014-.078.08-.084a.4.4,0,0,1,.077,0,.072.072,0,0,1,.063.1.1.1,0,0,0,0,.082.261.261,0,0,1,.01.062c0,.014.007.029-.015.03s-.035.007-.041-.015a.155.155,0,0,1-.007-.041c0-.037-.02-.048-.054-.047s-.047,0-.048.046c0,.014,0,.028,0,.042s-.012.023-.028.023-.028-.005-.028-.023c0-.042,0-.084,0-.126Z" transform="translate(-940.329 -705.356)" fill="#069e3c"/>
    <path id="Path_1896" data-name="Path 1896" d="M1168.157,467.724c.047.023.09.042.13.065a.076.076,0,0,1,.01.136c-.017.014-.029.021-.028.048a.223.223,0,0,1-.023.073c0,.014-.009.029-.028.021s-.038-.013-.029-.039.013-.03.018-.046a.039.039,0,0,0-.016-.049c-.042-.031-.057-.028-.083.022l-.013.025a.022.022,0,0,1-.034.011c-.016-.008-.028-.017-.018-.037Z" transform="translate(-1477.577 -818.743)" fill="#069e3c"/>
    <path id="Path_1897" data-name="Path 1897" d="M570.675,356.424a.135.135,0,0,1-.136.146.14.14,0,0,1-.14-.151.132.132,0,0,1,.137-.144A.135.135,0,0,1,570.675,356.424Z" transform="translate(-884.138 -708.102)" fill="#089f3d"/>
    <path id="Path_1898" data-name="Path 1898" d="M1070.993,426.879a.151.151,0,0,1-.141.161.136.136,0,0,1-.14-.135.154.154,0,0,1,.143-.161A.134.134,0,0,1,1070.993,426.879Z" transform="translate(-1380.934 -778.06)" fill="#079e3c"/>
    <path id="Path_1899" data-name="Path 1899" d="M679.13,352.023a.153.153,0,0,1,0-.042c.01-.033-.028-.088.029-.1.118-.02.182.013.2.088a.2.2,0,0,1,0,.1.113.113,0,0,1-.106.095c-.127.014-.129.012-.126-.112,0-.009,0-.019,0-.028Z" transform="translate(-992.102 -703.738)" fill="#079f3c"/>
    <path id="Path_1900" data-name="Path 1900" d="M1338.09,577.938a.173.173,0,0,1-.145.164.145.145,0,0,1-.145-.132.168.168,0,0,1,.151-.163A.144.144,0,0,1,1338.09,577.938Z" transform="translate(-1646.144 -928.028)" fill="#069e3b"/>
    <path id="Path_1901" data-name="Path 1901" d="M1255.764,519.387c.028.008.047.017.047.047a.052.052,0,0,0,.03.044c.018.011.038.024.057,0s0-.039-.011-.055-.036-.037-.052-.056a.069.069,0,0,1-.005-.09.075.075,0,0,1,.09-.035.141.141,0,0,1,.1.074.057.057,0,0,1,0,.047c0,.008-.01.019-.016.021s-.017-.006-.025-.011-.011-.019-.013-.031a.062.062,0,0,0-.045-.049.032.032,0,0,0-.038.007c-.013.014-.005.027,0,.038s.035.037.052.056c.036.041.04.071.016.106a.086.086,0,0,1-.111.029A.11.11,0,0,1,1255.764,519.387Z" transform="translate(-1564.678 -869.89)" fill="#079f3d"/>
    <path id="Path_1902" data-name="Path 1902" d="M1297.594,546.7c.025,0,.044.013.042.044a.059.059,0,0,0,.011.032c.017.026.056.041.071.026s0-.046-.012-.066-.031-.035-.044-.054a.079.079,0,0,1,.05-.12.137.137,0,0,1,.14.1c0,.019,0,.044-.019.048a.033.033,0,0,1-.036-.034.057.057,0,0,0-.029-.052c-.016-.01-.035-.019-.051,0s-.005.031.005.044.037.042.054.065a.068.068,0,0,1,.007.084.083.083,0,0,1-.082.043A.118.118,0,0,1,1297.594,546.7Z" transform="translate(-1606.212 -897.005)" fill="#089f3d"/>
    <path id="Path_1903" data-name="Path 1903" d="M729.813,353.332c0-.037.007-.075.008-.112s.008-.039.037-.037c.047,0,.093.007.14.009.017,0,.026.008.025.026s-.013.023-.028.022l-.084,0c-.024,0-.034.009-.034.032s.015.025.032.026a.554.554,0,0,1,.056,0c.017,0,.041,0,.041.025s-.024.023-.041.023-.037,0-.056,0-.04,0-.041.032.014.04.042.039.056,0,.084,0a.023.023,0,0,1,.025.026c0,.017-.007.027-.025.026l-.168-.011c-.02,0-.017-.018-.017-.032,0-.033,0-.066,0-.1Z" transform="translate(-1042.428 -705.033)" fill="#089f3d"/>
    <path id="Path_1904" data-name="Path 1904" d="M882.959,371.146l.115.025c.018,0,.029.014.023.035s-.018.019-.032.016l-.151-.032c-.015,0-.025-.011-.021-.029q.025-.113.049-.226c0-.017.013-.024.03-.021l.144.031c.018,0,.03.013.024.034s-.019.018-.033.015l-.089-.019a.023.023,0,0,0-.031.019c0,.017-.006.033.017.038l.082.018c.013,0,.022.008.021.022a.022.022,0,0,1-.027.024c-.018,0-.037-.007-.055-.01C882.968,371.076,882.968,371.076,882.959,371.146Z" transform="translate(-1194.433 -722.636)" fill="#089f3d"/>
    <path id="Path_1905" data-name="Path 1905" d="M1211.943,493.012c.041-.073.081-.144.119-.216.012-.022.026-.022.045-.01.04.024.082.045.122.068.012.007.025.014.016.032s-.022.021-.039.011l-.08-.044a.022.022,0,0,0-.035.009c-.009.015-.016.03,0,.041l.067.038c.016.009.028.019.016.038s-.027.011-.042,0l-.031-.017c-.054-.029-.057-.029-.074,0-.026.048.023.045.042.061a.387.387,0,0,0,.055.031.023.023,0,0,1,.008.035.022.022,0,0,1-.034.009A1.832,1.832,0,0,1,1211.943,493.012Z" transform="translate(-1521.172 -843.615)" fill="#069e3c"/>
    <path id="Path_1906" data-name="Path 1906" d="M975.386,392.767c0,.085-.048.122-.115.109a.129.129,0,0,1-.027-.006c-.03-.013-.042,0-.048.028a.29.29,0,0,1-.008.034c0,.014-.012.025-.03.018s-.032-.008-.025-.032.013-.054.021-.081c.012-.045.026-.089.037-.134.006-.023.017-.031.039-.024s.072.019.107.031A.071.071,0,0,1,975.386,392.767Z" transform="translate(-1286.023 -744.238)" fill="#069e3c"/>
    <path id="Path_1907" data-name="Path 1907" d="M1034.976,415.793a.035.035,0,0,1-.041.036c-.037,0-.075-.022-.07-.04s0-.046.03-.048S1034.977,415.768,1034.976,415.793Z" transform="translate(-1345.339 -767.139)" fill="#ecf7f0"/>
    <path id="Path_1908" data-name="Path 1908" d="M635.563,360.521a.3.3,0,0,1,.035,0c.016,0,.022.016.025.03a.034.034,0,0,1-.011.032.148.148,0,0,1-.088.007c-.015-.013-.008-.03-.009-.046s.01-.024.027-.024h.021Z" transform="translate(-948.796 -712.321)" fill="#f2faf5"/>
    <path id="Path_1909" data-name="Path 1909" d="M1185.527,478.545c.037,0,.084.041.079.062a.037.037,0,0,1-.039.033c-.028,0-.078-.036-.072-.051S1185.5,478.547,1185.527,478.545Z" transform="translate(-1494.909 -829.489)" fill="#edf8f1"/>
    <path id="Path_1910" data-name="Path 1910" d="M579.112,363.325c0-.06.023-.094.066-.1s.074.021.086.073a.117.117,0,0,1,0,.062.075.075,0,0,1-.144.005A.265.265,0,0,1,579.112,363.325Z" transform="translate(-892.79 -715.003)" fill="#fafdfb"/>
    <path id="Path_1911" data-name="Path 1911" d="M1079.462,434.484a.1.1,0,0,1-.092.111.072.072,0,0,1-.07-.079.1.1,0,0,1,.092-.111A.071.071,0,0,1,1079.462,434.484Z" transform="translate(-1389.461 -785.668)" fill="#fcfefd"/>
    <path id="Path_1912" data-name="Path 1912" d="M687.363,359.4a.12.12,0,0,1,0-.028c.005-.021-.016-.055.026-.06s.083.014.089.056a.213.213,0,0,1,0,.069.076.076,0,0,1-.1.053c-.014-.006-.014-.017-.014-.028s0-.042,0-.062Z" transform="translate(-1000.278 -711.117)" fill="#fdfefd"/>
    <path id="Path_1913" data-name="Path 1913" d="M1345.872,585.562a.123.123,0,0,1,.106-.1.078.078,0,0,1,.07.082c0,.051-.063.109-.106.105A.078.078,0,0,1,1345.872,585.562Z" transform="translate(-1654.158 -935.624)" fill="#fbfdfc"/>
    <path id="Path_1914" data-name="Path 1914" d="M988.624,401.572c.073.011.091.024.082.058s-.029.038-.074.024S988.6,401.642,988.624,401.572Z" transform="translate(-1299.403 -753.074)" fill="#e3f4e9"/>
  </g>
</svg>
