<svg xmlns="http://www.w3.org/2000/svg" width="18" height="13" viewBox="0 0 18 13">
  <g id="thailand" transform="translate(0.004 -0.047)">
    <path id="Path_12756" data-name="Path 12756" d="M17.685,101.051H.309A.323.323,0,0,1,0,100.716V88.634A.323.323,0,0,1,.309,88.3H17.682a.323.323,0,0,1,.309.334v12.082a.312.312,0,0,1-.082.23.324.324,0,0,1-.224.1Z" transform="translate(0 -88.005)" fill="#f5f5f5"/>
    <g id="Group_2406" data-name="Group 2406" transform="translate(-0.004 0.047)">
      <path id="Path_12757" data-name="Path 12757" d="M18,372.85H0s-.008-.162,0-.341V370.8H18v1.709C18,372.688,17.979,372.866,18,372.85Z" transform="translate(0.004 -359.851)" fill="#ff4b55"/>
      <path id="Path_12758" data-name="Path 12758" d="M0,88.347H17.991a2.876,2.876,0,0,1,0,.294V90.35H0V88.641a2.878,2.878,0,0,1,0-.294Z" transform="translate(0.004 -88.347)" fill="#ff4b55"/>
    </g>
    <rect id="Rectangle_2693" data-name="Rectangle 2693" width="17.995" height="4.791" transform="translate(0 4.128)" fill="#41479b"/>
  </g>
</svg>
