<svg width="18" height="13" viewBox="0 0 18 13" fill="none" xmlns="http://www.w3.org/2000/svg">
<path d="M17.9981 6.11121C17.9981 8.11174 17.9974 10.1125 18.0005 12.1131C18.0005 12.2026 17.9802 12.2226 17.8909 12.2226C9.78894 12.2203 8.13241 12.2205 0.0304597 12.2205C0.0266401 12.1472 0.0822636 12.1195 0.133113 12.0901C0.959827 11.6144 1.78511 11.1359 2.61159 10.6599C3.56888 10.1085 4.52523 9.55509 5.48205 9.00292C6.64895 8.3297 7.81514 7.6553 8.98204 6.98208C9.45018 6.71184 9.91904 6.44328 10.3858 6.17017C10.4617 6.12577 10.5407 6.09115 10.6238 6.06298C10.6916 6.05701 10.7591 6.05797 10.8267 6.05797C15.2756 6.05797 13.2787 6.05773 17.7276 6.05916C17.8193 6.05916 17.921 6.02884 17.9985 6.11121H17.9981Z" fill="#CD1126"/>
<path d="M17.9973 6.11143C13.3748 6.11143 15.198 6.11143 10.5755 6.11143C10.5132 6.11812 10.4594 6.09687 10.4062 6.06607C8.60405 5.0214 6.79927 3.98103 4.99568 2.93898C3.37878 2.0046 1.76139 1.07022 0.14282 0.138223C0.0891063 0.107428 0.0260822 0.0818836 0.0294243 0.00214855C8.13161 0.00214855 9.7879 0.00238728 17.8901 0C17.9796 0 17.9999 0.0200531 17.9997 0.109576C17.9968 2.11012 17.9973 4.11089 17.9973 6.11143Z" fill="#0038A7"/>
<path d="M0.0297375 0.00195312C0.27324 0.172644 0.537989 0.307286 0.794621 0.455536C4.02509 2.32239 7.25651 4.18733 10.4874 6.05323C10.518 6.07089 10.5467 6.0919 10.576 6.11124C10.0448 6.42063 9.5144 6.73169 8.98203 7.03917C6.03661 8.74035 3.09047 10.4408 0.145043 12.142C0.105175 12.1651 0.0567137 12.1773 0.0299762 12.2203C-0.0192018 12.1988 0.0077745 12.1558 0.00753577 12.125C0.00538722 11.6402 0.0061034 11.1556 0.0061034 10.6707C0.0061034 7.15018 0.0061034 3.62966 0.00753577 0.109142C0.00753577 0.0742877 -0.0199179 0.0282132 0.0299762 0.00195312H0.0297375Z" fill="#FEFEFE"/>
<path d="M1.53816 5.81182C1.59426 5.70774 1.65681 5.67647 1.76663 5.70249C2.01729 5.76241 2.27273 5.80204 2.52459 5.85694C2.59358 5.87198 2.61745 5.85241 2.63082 5.78986C2.65254 5.68816 2.69313 5.59219 2.74899 5.5053C2.78671 5.44681 2.77143 5.41721 2.71819 5.38259C2.50525 5.24365 2.29756 5.0966 2.08198 4.96195C1.99007 4.90442 1.95283 4.84068 1.98912 4.73659C2.034 4.73444 2.05859 4.77073 2.08867 4.79341C2.31355 4.9641 2.53652 5.13718 2.76164 5.30715C2.78838 5.32721 2.81703 5.38569 2.85833 5.33723C2.90392 5.28352 2.8378 5.26275 2.81082 5.23888C2.56135 5.01686 2.31307 4.79317 2.0562 4.57975C1.96716 4.50574 1.98005 4.42004 1.98816 4.33243C1.99366 4.27107 2.18631 4.26893 2.24527 4.33243C2.32931 4.42267 2.40833 4.5172 2.48973 4.60983C2.63392 4.77431 2.77644 4.94023 2.92374 5.10185C2.95048 5.13121 2.97101 5.20808 3.02806 5.16535C3.09133 5.11784 3.01422 5.08323 2.99202 5.05339C2.82586 4.83017 2.65493 4.61055 2.48591 4.38948C2.46276 4.35916 2.44222 4.3267 2.41787 4.29137C2.52817 4.25747 2.59453 4.28588 2.65254 4.37898C2.78671 4.59479 2.9352 4.80201 3.07271 5.01591C3.11377 5.07988 3.14528 5.0923 3.21212 5.04789C3.29114 4.99561 3.38043 4.95694 3.47496 4.93903C3.54849 4.92519 3.56902 4.89439 3.55159 4.81704C3.49597 4.56925 3.45348 4.31834 3.39714 4.07078C3.37302 3.96503 3.39976 3.89675 3.50719 3.84471C3.54944 4.16102 3.59074 4.46993 3.63181 4.77909C3.63348 4.79078 3.63228 4.8032 3.63491 4.81466C3.64183 4.84712 3.63228 4.89415 3.68647 4.89224C3.74735 4.8901 3.72395 4.8414 3.72252 4.81132C3.71488 4.66832 3.70366 4.5258 3.69435 4.38304C3.68098 4.18084 3.67406 3.97768 3.65305 3.77643C3.64088 3.66065 3.72419 3.61433 3.78913 3.55728C3.83138 3.52028 3.9677 3.67831 3.96244 3.76282C3.94549 4.03259 3.9264 4.30235 3.90825 4.57211C3.90372 4.63943 3.89369 4.70723 3.89751 4.77431C3.89966 4.8137 3.85478 4.8858 3.93069 4.88914C3.99634 4.89201 3.97605 4.81537 3.98202 4.77574C4.01353 4.56757 4.03693 4.35821 4.06438 4.14956C4.07727 4.05144 4.09207 3.9538 4.10759 3.84518C4.20451 3.8989 4.24295 3.95452 4.21573 4.06625C4.15653 4.30903 4.11714 4.55635 4.06486 4.80105C4.04815 4.87935 4.0534 4.92567 4.14674 4.9419C4.24056 4.95813 4.33008 4.99824 4.40886 5.05171C4.47189 5.09445 4.50125 5.07845 4.53921 5.01972C4.67743 4.8063 4.82544 4.59885 4.95961 4.38304C5.01714 4.29041 5.08399 4.25938 5.18545 4.28659C5.19189 4.32813 5.15823 4.35009 5.1377 4.37707C4.95937 4.61102 4.77961 4.84402 4.60152 5.07797C4.58242 5.10304 4.53897 5.13097 4.58433 5.16702C4.62945 5.20307 4.64735 5.15365 4.66788 5.13049C4.89706 4.87124 5.1272 4.61293 5.3516 4.34962C5.42704 4.26129 5.51823 4.28635 5.60346 4.3002C5.66195 4.30975 5.64309 4.50169 5.57672 4.56041C5.35327 4.75784 5.12863 4.95407 4.90446 5.15079C4.85958 5.19018 4.81422 5.22885 4.77054 5.2692C4.75192 5.28638 4.7204 5.3019 4.75168 5.3358C4.77842 5.36469 4.80062 5.35012 4.82377 5.33222C4.94051 5.2427 5.05725 5.15317 5.17399 5.06389C5.32128 4.95121 5.46882 4.83853 5.6228 4.72084C5.66099 4.83829 5.62733 4.90466 5.53232 4.96362C5.31961 5.09564 5.1155 5.24103 4.90518 5.37686C4.84574 5.4153 4.82163 5.4449 4.86937 5.51341C4.92834 5.5984 4.96343 5.69795 4.98659 5.79869C5.00067 5.85957 5.02144 5.8727 5.08375 5.85933C5.3399 5.80442 5.59868 5.76169 5.85412 5.70344C5.95773 5.67981 6.02075 5.70654 6.0728 5.81158C5.86892 5.83999 5.67078 5.8684 5.47216 5.89538C5.35017 5.91209 5.2277 5.92594 5.10571 5.9436C5.07205 5.94838 5.01308 5.92904 5.02407 5.99636C5.03266 6.04864 5.07921 6.02859 5.11216 6.02668C5.45736 6.00495 5.8028 5.98681 6.14752 5.95745C6.26569 5.94742 6.30723 6.03384 6.36333 6.09782C6.39771 6.13697 6.23871 6.27018 6.16041 6.26541C5.81927 6.24392 5.47789 6.22172 5.13675 6.19952C5.12099 6.19856 5.10523 6.19594 5.08924 6.19474C5.05582 6.19236 5.02311 6.19116 5.02216 6.23843C5.0212 6.2814 5.05486 6.27543 5.08088 6.27901C5.26208 6.30313 5.44327 6.32652 5.62447 6.35063C5.76937 6.36997 5.91404 6.38955 6.07829 6.41175C6.02004 6.49864 5.97659 6.54925 5.86654 6.52347C5.60776 6.46307 5.34468 6.42034 5.08446 6.36496C5.02383 6.35206 5.00067 6.36114 4.98635 6.42368C4.96224 6.52825 4.92404 6.63018 4.86364 6.71947C4.82401 6.77795 4.84048 6.80469 4.89372 6.83931C5.11025 6.98016 5.32057 7.13103 5.54091 7.26568C5.63807 7.32512 5.65144 7.39363 5.62781 7.5056C5.53614 7.43637 5.45473 7.37525 5.37356 7.31342C5.20001 7.18069 5.02717 7.04652 4.85242 6.91498C4.82497 6.89445 4.7956 6.84122 4.75359 6.88801C4.70775 6.93957 4.77269 6.95557 4.79608 6.97658C5.04555 7.19859 5.29765 7.41775 5.54807 7.63857C5.57744 7.66459 5.62232 7.69348 5.62518 7.72451C5.63163 7.79088 5.67197 7.88971 5.60203 7.91979C5.53232 7.94987 5.43277 7.96563 5.36115 7.8835C5.142 7.63141 4.92189 7.38027 4.69892 7.13151C4.66932 7.09857 4.64664 7.01358 4.58743 7.05846C4.52298 7.10716 4.60486 7.14727 4.63017 7.18117C4.79369 7.40127 4.96295 7.61732 5.12887 7.83576C5.15179 7.86584 5.18807 7.89019 5.18616 7.93579C5.08375 7.96754 5.01834 7.93435 4.9608 7.84244C4.82807 7.63021 4.68173 7.42658 4.54637 7.21602C4.50459 7.15085 4.47404 7.12674 4.40003 7.17711C4.32173 7.23034 4.23077 7.26687 4.13695 7.28501C4.05889 7.30005 4.04767 7.33825 4.06271 7.40891C4.11427 7.65361 4.15438 7.90093 4.21239 8.14396C4.23794 8.25043 4.21836 8.31966 4.10783 8.37934C4.08419 8.20674 4.06128 8.04083 4.0386 7.87467C4.01735 7.71711 3.9973 7.55955 3.97438 7.40223C3.97032 7.37477 3.98083 7.33013 3.93213 7.33085C3.87173 7.3318 3.89274 7.38074 3.89441 7.41106C3.91446 7.74051 3.92783 8.07043 3.96221 8.39844C3.97534 8.52449 3.91183 8.58751 3.83854 8.65961C3.81706 8.68085 3.79939 8.68229 3.77886 8.66128C3.71393 8.59467 3.64088 8.54311 3.65234 8.42422C3.68385 8.09597 3.70056 7.76629 3.7199 7.43684C3.72204 7.40151 3.75809 7.33825 3.68743 7.33252C3.62011 7.32703 3.63873 7.39244 3.63348 7.43064C3.59051 7.74385 3.54968 8.0573 3.50719 8.37958C3.40239 8.32634 3.37207 8.26022 3.39642 8.15374C3.45276 7.90618 3.49549 7.65528 3.55064 7.40724C3.56735 7.33204 3.55231 7.29743 3.47639 7.28382C3.38138 7.26687 3.29162 7.22891 3.21355 7.17568C3.13859 7.12483 3.10804 7.15156 3.06698 7.2153C2.93138 7.42586 2.78528 7.6295 2.6535 7.84244C2.59573 7.93579 2.52793 7.96204 2.41167 7.93316C2.49236 7.82669 2.56756 7.72666 2.64371 7.62711C2.76689 7.46597 2.89127 7.30602 3.01302 7.14392C3.03069 7.12053 3.07915 7.0957 3.03164 7.05703C2.98509 7.01907 2.96814 7.06944 2.94833 7.09164C2.72416 7.34469 2.49713 7.59512 2.28156 7.85533C2.20493 7.94772 2.11612 7.93841 2.02445 7.92815C1.95808 7.92075 1.96692 7.72761 2.03854 7.66387C2.21949 7.50249 2.4026 7.34326 2.58475 7.18332C2.6683 7.10979 2.75281 7.03721 2.83541 6.96249C2.85642 6.94339 2.89509 6.92597 2.86191 6.88658C2.82968 6.8479 2.80581 6.87989 2.78217 6.89804C2.54536 7.07923 2.30925 7.26138 2.0722 7.4421C2.04809 7.46048 2.02803 7.48889 1.98793 7.48674C1.96071 7.39387 1.97718 7.32727 2.06862 7.26997C2.28753 7.13318 2.49809 6.98302 2.71485 6.84289C2.77549 6.80374 2.78384 6.77199 2.74469 6.71063C2.68907 6.6235 2.64968 6.52729 2.62819 6.42535C2.61578 6.36663 2.58976 6.35207 2.52793 6.36543C2.27583 6.41962 2.02063 6.46045 1.76997 6.51989C1.66135 6.54567 1.59641 6.51607 1.53482 6.4127C1.69381 6.39122 1.84469 6.37045 1.99557 6.35015C2.16888 6.327 2.3422 6.30432 2.51528 6.28045C2.54368 6.27663 2.58666 6.28689 2.58522 6.23771C2.58331 6.17851 2.537 6.19785 2.50501 6.19976C2.16769 6.21957 1.82965 6.2327 1.49352 6.26469C1.37249 6.27615 1.31901 6.20644 1.25909 6.13721C1.21898 6.0909 1.35721 5.95243 1.44219 5.95721C1.69214 5.97106 1.94209 5.98824 2.19204 6.004C2.29923 6.01068 2.40642 6.01761 2.5136 6.02358C2.54368 6.02525 2.58236 6.03766 2.5857 5.98801C2.58904 5.93859 2.54798 5.94623 2.51862 5.94217C2.19634 5.89896 1.87405 5.85623 1.53792 5.81135L1.53816 5.81182Z" fill="#FBD016"/>
<path d="M9.36393 6.11184C9.21855 6.16269 9.10945 6.20566 8.99725 6.23836C8.92873 6.25842 8.90152 6.29184 8.90486 6.36441C8.91035 6.48139 8.90629 6.59908 8.90629 6.71654C8.89579 6.71892 8.88504 6.72155 8.87454 6.72394C8.80077 6.62773 8.72462 6.53343 8.65419 6.43484C8.6191 6.3859 8.58735 6.3711 8.52624 6.39306C8.41189 6.43412 8.29348 6.46325 8.14403 6.50669C8.23188 6.3785 8.2973 6.27584 8.37035 6.17892C8.4083 6.12879 8.40711 6.09322 8.36987 6.04356C8.2973 5.94688 8.23165 5.8447 8.14355 5.71579C8.29061 5.75924 8.40592 5.78645 8.51549 5.82799C8.5864 5.85497 8.62292 5.83444 8.66231 5.77833C8.72963 5.68284 8.80364 5.59189 8.87478 5.49902C8.88504 5.50189 8.89555 5.50451 8.90581 5.50738C8.90581 5.61695 8.9125 5.72701 8.9039 5.83587C8.8965 5.92945 8.93518 5.96956 9.02064 5.99295C9.1252 6.02184 9.22642 6.06338 9.36369 6.1116L9.36393 6.11184Z" fill="#FBD016"/>
<path d="M0.618767 11.1576C0.644072 11.0201 0.654337 10.9122 0.685133 10.811C0.715929 10.71 0.683223 10.6585 0.595133 10.6141C0.501074 10.5665 0.414177 10.5052 0.300781 10.4355C0.450464 10.4154 0.570782 10.3951 0.691817 10.3849C0.754842 10.3794 0.782057 10.3538 0.79447 10.2937C0.818582 10.1753 0.849139 10.0581 0.885187 9.90527C0.951315 10.0433 1.00646 10.1466 1.05039 10.2548C1.07784 10.3221 1.11699 10.3426 1.18575 10.3345C1.29962 10.3211 1.41445 10.3137 1.54455 10.3264C1.4579 10.4083 1.37386 10.4933 1.28362 10.5708C1.23277 10.6145 1.2249 10.6525 1.25402 10.7131C1.30487 10.8191 1.34617 10.9297 1.37434 11.0574C1.26906 10.9998 1.16235 10.9445 1.05922 10.8833C1.0067 10.8523 0.969219 10.8545 0.922906 10.8972C0.833144 10.9803 0.737176 11.0569 0.618767 11.1576Z" fill="#FBD016"/>
<path d="M1.39274 1.18432C1.34571 1.29652 1.30131 1.40991 1.25022 1.52021C1.22611 1.57225 1.23447 1.60543 1.27648 1.64291C1.36744 1.72408 1.4541 1.80978 1.5558 1.90599C1.41829 1.92485 1.30274 1.89787 1.18696 1.88761C1.11821 1.88164 1.07882 1.90026 1.05136 1.96758C1.00744 2.07573 0.952052 2.17933 0.886164 2.31684C0.850116 2.16429 0.819558 2.04708 0.795447 1.92867C0.783272 1.86851 0.755818 1.84297 0.692794 1.83748C0.571759 1.82697 0.451679 1.80692 0.301758 1.78663C0.415392 1.71692 0.502289 1.65557 0.596348 1.60806C0.684439 1.56365 0.717144 1.51185 0.686587 1.41111C0.65603 1.30965 0.645287 1.20198 0.619743 1.06543C0.736004 1.16379 0.832927 1.24113 0.923882 1.32493C0.970196 1.36742 1.0072 1.37005 1.05996 1.33853C1.16189 1.2779 1.26765 1.22347 1.37197 1.16665C1.3789 1.17238 1.38582 1.17835 1.39274 1.18408V1.18432Z" fill="#FBD016"/>
</svg>
